<?xml version="1.0" encoding="utf-8"?>
<!-- Generator: Adobe Illustrator 24.1.1, SVG Export Plug-In . SVG Version: 6.00 Build 0)  -->
<svg version="1.1" xmlns="http://www.w3.org/2000/svg" xmlns:xlink="http://www.w3.org/1999/xlink" x="0px" y="0px"
	 viewBox="0 0 184 325" style="enable-background:new 0 0 184 325;" xml:space="preserve">
<style type="text/css">
	.st0{display:none;}
	.st1{display:inline;}
	.st2{fill:none;stroke:#DCDCDC;stroke-miterlimit:10;}
	.st3{fill:none;stroke:#E0E0E0;stroke-miterlimit:10;}
	.st4{fill:none;stroke:#E8E8E8;stroke-miterlimit:10;}
	.st5{fill:none;stroke:#F4F4F4;stroke-miterlimit:10;}
	.st6{fill:none;stroke:#FFFFFF;stroke-miterlimit:10;}
	.st7{fill:none;stroke:#DDDDDD;stroke-miterlimit:10;}
	.st8{fill:none;stroke:#DFDFDF;stroke-miterlimit:10;}
	.st9{fill:none;stroke:#E2E2E2;stroke-miterlimit:10;}
	.st10{fill:none;stroke:#E6E6E6;stroke-miterlimit:10;}
	.st11{fill:none;stroke:#EBEBEB;stroke-miterlimit:10;}
	.st12{fill:none;stroke:#F1F1F1;stroke-miterlimit:10;}
	.st13{fill:#242F3D;}
	.st14{fill:#FFFFFF;}
	.st15{fill:#252F3E;}
	.st16{clip-path:url(#SVGID_2_);fill:#252F3E;}
	.st17{clip-path:url(#SVGID_2_);fill:#FF9900;}
	.st18{fill:#FF9900;}
	.st19{fill:#535B64;}
	.st20{fill:none;stroke:#91A2A3;stroke-width:2;stroke-linecap:square;stroke-miterlimit:10;}
	.st21{fill:none;stroke:#E5E9E9;stroke-width:2;stroke-linecap:square;stroke-miterlimit:10;}
	.st22{clip-path:url(#SVGID_4_);fill:#252F3E;}
	.st23{clip-path:url(#SVGID_4_);fill:#FF9900;}
	.st24{clip-path:url(#SVGID_6_);fill:#252F3E;}
	.st25{clip-path:url(#SVGID_6_);fill:#FF9900;}
</style>
<g id="Layer_1" class="st0">
</g>
<g id="Layer_2">
	<g>
		<polygon class="st2" points="1,2.3 183,2.3 183,325 1,325 1,2.3 		"/>
		<polygon class="st3" points="0.6,1.9 183.4,1.9 183.4,325 0.6,325 0.6,1.9 		"/>
		<polygon class="st4" points="0.2,1.5 183.8,1.5 183.8,325 0.2,325 0.2,1.5 		"/>
		<polygon class="st5" points="-0.2,1.2 184.2,1.2 184.2,325 -0.2,325 -0.2,1.2 		"/>
		<path class="st6" d="M-0.6,0.8h185.2V325H-0.6V0.8L-0.6,0.8z M-1,0.4H185V325H-1V0.4L-1,0.4z M-1.4,0h186.7v325H-1.4V0L-1.4,0z"/>
		<line class="st2" x1="1" y1="322.7" x2="183" y2="322.7"/>
		<line class="st7" x1="1" y1="323.1" x2="183" y2="323.1"/>
		<line class="st8" x1="1" y1="323.5" x2="183" y2="323.5"/>
		<line class="st9" x1="1" y1="323.8" x2="183" y2="323.8"/>
		<line class="st10" x1="1" y1="324.2" x2="183" y2="324.2"/>
		<line class="st11" x1="1" y1="324.6" x2="183" y2="324.6"/>
		<line class="st12" x1="1" y1="325" x2="183" y2="325"/>
		<polygon class="st13" points="1,0 183,0 183,5 1,5 1,0 		"/>
		<polygon class="st14" points="1,5 183,5 183,322.3 1,322.3 1,5 		"/>
		<path class="st15" d="M55.8,40.4c0.4,0.3,1.1,0.5,1.9,0.7c0.8,0.2,1.7,0.3,2.5,0.3c0.9,0,1.6-0.1,2.3-0.3c0.7-0.2,1.3-0.5,1.8-0.9
			c0.5-0.4,0.9-0.9,1.2-1.5c0.3-0.6,0.4-1.2,0.4-2c0-0.9-0.3-1.6-0.8-2.3c-0.5-0.7-1.4-1.2-2.5-1.6L60.4,32
			c-0.9-0.3-1.5-0.6-1.8-0.9c-0.3-0.3-0.5-0.7-0.5-1.2c0-0.7,0.3-1.2,0.8-1.5c0.5-0.3,1.2-0.5,2.2-0.5c1.2,0,2.2,0.2,3.2,0.7
			c0.3,0.1,0.5,0.2,0.7,0.2c0.3,0,0.4-0.2,0.4-0.5v-0.7c0-0.2-0.1-0.4-0.2-0.5c-0.1-0.2-0.3-0.3-0.5-0.4c-0.2-0.1-0.4-0.2-0.7-0.3
			c-0.3-0.1-0.6-0.2-0.9-0.3c-0.3-0.1-0.7-0.2-1.1-0.2c-0.4-0.1-0.8-0.1-1.1-0.1c-0.8,0-1.4,0.1-2.1,0.3c-0.7,0.2-1.2,0.5-1.7,0.9
			c-0.5,0.4-0.9,0.8-1.2,1.4c-0.3,0.5-0.4,1.1-0.4,1.8c0,0.9,0.3,1.7,0.8,2.4c0.5,0.8,1.4,1.3,2.7,1.7l2.4,0.8
			c0.8,0.3,1.4,0.5,1.7,0.9c0.3,0.3,0.4,0.7,0.4,1.1c0,0.7-0.3,1.2-0.9,1.6c-0.6,0.4-1.4,0.5-2.4,0.5c-0.7,0-1.3-0.1-2-0.2
			c-0.7-0.1-1.2-0.3-1.8-0.6c-0.2-0.1-0.3-0.1-0.4-0.2C55.7,38,55.6,38,55.5,38c-0.3,0-0.4,0.2-0.4,0.5v0.8c0,0.2,0.1,0.3,0.1,0.5
			C55.4,40.1,55.5,40.2,55.8,40.4L55.8,40.4z"/>
		<path class="st15" d="M27.8,32.3c-0.6-0.1-1.2-0.1-1.7-0.1c-1.7,0-3,0.4-4.1,1.3c-1,0.9-1.5,2-1.5,3.4c0,1.4,0.4,2.4,1.2,3.2
			c0.8,0.8,1.9,1.2,3.3,1.2c2,0,3.6-0.8,4.9-2.3c0.2,0.4,0.3,0.7,0.5,1c0.2,0.3,0.4,0.5,0.6,0.8c0.2,0.2,0.3,0.2,0.5,0.2
			c0.1,0,0.3-0.1,0.4-0.2l1-0.7c0.2-0.2,0.3-0.3,0.3-0.5c0-0.1-0.1-0.2-0.1-0.4c-0.2-0.4-0.4-0.8-0.5-1.2c-0.1-0.4-0.2-0.9-0.2-1.5
			v-5.4c0-1.8-0.4-3.1-1.4-4.1c-0.9-0.9-2.3-1.4-4.3-1.4c-0.9,0-1.8,0.1-2.6,0.3c-0.8,0.2-1.5,0.4-2.1,0.8c-0.2,0.1-0.4,0.2-0.4,0.3
			c-0.1,0.1-0.1,0.3-0.1,0.6v0.8c0,0.3,0.1,0.5,0.3,0.5c0.1,0,0.2,0,0.3-0.1c0.1-0.1,0.3-0.1,0.6-0.2c0.6-0.2,1.2-0.4,1.8-0.5
			c0.6-0.2,1.2-0.2,1.8-0.2c1.3,0,2.2,0.3,2.7,0.8c0.5,0.5,0.8,1.4,0.8,2.7v1.2C29,32.6,28.4,32.5,27.8,32.3L27.8,32.3z M29.7,35.3
			c0,0.5-0.1,1-0.2,1.4c-0.1,0.4-0.3,0.8-0.5,1c-0.4,0.5-1,0.9-1.6,1c-0.6,0.2-1.2,0.3-1.7,0.3c-0.8,0-1.4-0.2-1.7-0.6
			c-0.4-0.4-0.6-1-0.6-1.7c0-0.8,0.3-1.5,0.8-1.9c0.5-0.4,1.4-0.7,2.4-0.7c0.5,0,1,0.1,1.6,0.1c0.5,0.1,1,0.2,1.5,0.3V35.3
			L29.7,35.3z"/>
		<g>
			<defs>
				<rect id="SVGID_3_" x="18.4" y="0.1" width="108.5" height="94.8"/>
			</defs>
			<clipPath id="SVGID_2_">
				<use xlink:href="#SVGID_3_"  style="overflow:visible;"/>
			</clipPath>
			<path class="st16" d="M38,40.1c0.1,0.3,0.2,0.5,0.3,0.7c0.1,0.1,0.3,0.2,0.7,0.2h1.4c0.3,0,0.5-0.1,0.7-0.2
				c0.1-0.1,0.2-0.3,0.3-0.7l2.5-10.7l2.6,10.7c0.1,0.3,0.2,0.5,0.3,0.7c0.1,0.1,0.4,0.2,0.7,0.2h1.4c0.3,0,0.5-0.1,0.7-0.2
				c0.1-0.1,0.3-0.3,0.3-0.7l4-12.8C54,27.1,54,27,54,26.9c0-0.1,0.1-0.2,0.1-0.3c0-0.3-0.1-0.4-0.4-0.4h-1.5
				c-0.3,0-0.5,0.1-0.7,0.2c-0.1,0.1-0.2,0.3-0.3,0.7l-2.9,11.1L45.7,27c-0.1-0.3-0.2-0.5-0.3-0.7c-0.1-0.1-0.4-0.2-0.7-0.2h-1.4
				c-0.3,0-0.5,0.1-0.7,0.2c-0.1,0.1-0.2,0.3-0.3,0.7l-2.6,11L37,27c-0.1-0.3-0.2-0.5-0.3-0.7c-0.1-0.1-0.3-0.2-0.7-0.2h-1.6
				c-0.3,0-0.4,0.1-0.4,0.4c0,0.1,0.1,0.3,0.2,0.7L38,40.1L38,40.1z"/>
			<path class="st17" d="M62.6,48.1C56.5,50.7,49.9,52,43.8,52c-8.9,0-17.6-2.4-24.6-6.6c-0.6-0.4-1.1,0.3-0.5,0.8
				c6.5,5.9,15.1,9.4,24.6,9.4c6.8,0,14.7-2.1,20.2-6.2C64.3,48.7,63.5,47.8,62.6,48.1L62.6,48.1z"/>
		</g>
		<path class="st18" d="M59.2,45.9c-0.5,0.3-0.4,0.8,0.1,0.8c1.7-0.2,5.7-0.7,6.3,0.2c0.7,0.9-0.8,4.6-1.4,6.2
			c-0.2,0.5,0.2,0.7,0.7,0.3c2.9-2.4,3.7-7.6,3.1-8.3C67.4,44.3,62.3,43.7,59.2,45.9L59.2,45.9z"/>
		<path class="st15" d="M81.1,37.5c-0.1,0-0.2-0.1-0.2-0.2v-8.9c0-0.1,0.1-0.2,0.2-0.2h0.3c0.2,0,0.2,0.1,0.2,0.2l0.1,0.5
			c0.4-0.3,0.8-0.5,1.2-0.7C83.2,28,83.6,28,84,28c0.9,0,1.5,0.3,2,0.9c0.5,0.6,0.8,1.5,0.8,2.5c0,1.1-0.3,2-0.8,2.6
			c-0.5,0.7-1.2,1-2.1,1c-0.8,0-1.5-0.3-2.2-0.9v3.3c0,0.1-0.1,0.2-0.2,0.2H81.1L81.1,37.5z M83.8,34.2c0.7,0,1.2-0.2,1.6-0.7
			c0.4-0.5,0.5-1.2,0.5-2.1c0-1.8-0.7-2.8-2.1-2.8c-0.7,0-1.5,0.3-2.2,0.9v3.9c0.4,0.3,0.7,0.5,1,0.7C83,34.1,83.4,34.2,83.8,34.2
			L83.8,34.2z"/>
		<path class="st15" d="M90,34.9c-0.6,0-1.1-0.2-1.5-0.5C88.1,34,88,33.5,88,32.9c0-0.7,0.2-1.1,0.7-1.5c0.4-0.4,1-0.5,1.8-0.5
			c0.6,0,1.2,0.1,1.9,0.3v-1.1c0-0.5-0.1-0.9-0.4-1.1c-0.3-0.2-0.7-0.3-1.2-0.3c-0.6,0-1.2,0.1-1.9,0.3c-0.1,0-0.2,0.1-0.2,0.1
			c-0.1,0-0.1-0.1-0.1-0.2v-0.3c0-0.1,0-0.1,0.1-0.2s0.1-0.1,0.1-0.1c0.7-0.3,1.4-0.4,2.2-0.4c0.8,0,1.4,0.2,1.7,0.5
			c0.4,0.3,0.5,0.8,0.5,1.5v4.7c0,0.1-0.1,0.2-0.2,0.2h-0.3c-0.1,0-0.2-0.1-0.2-0.2L92.4,34C91.6,34.6,90.8,34.9,90,34.9L90,34.9z
			 M90.1,34.2c0.3,0,0.7-0.1,1.1-0.2c0.4-0.2,0.8-0.3,1.2-0.6v-1.6c-0.6-0.2-1.1-0.2-1.7-0.2c-1.2,0-1.8,0.5-1.8,1.4
			c0,0.4,0.1,0.7,0.3,0.9C89.3,34.1,89.7,34.2,90.1,34.2L90.1,34.2z"/>
		<path class="st15" d="M95.4,34.8c-0.1,0-0.2-0.1-0.2-0.2v-6.2c0-0.1,0.1-0.2,0.2-0.2h0.3c0.2,0,0.2,0.1,0.2,0.2l0.1,0.8
			c0.3-0.4,0.7-0.7,1-0.8c0.3-0.2,0.7-0.2,1.1-0.2c0.2,0,0.3,0,0.3,0c0.1,0,0.2,0.1,0.2,0.2v0.3c0,0.1,0,0.1-0.1,0.1
			c0,0.1-0.1,0.1-0.1,0.1c-0.1,0-0.2,0-0.2,0c-0.1,0-0.2,0-0.3,0c-0.4,0-0.8,0.1-1.1,0.2c-0.3,0.2-0.6,0.4-0.9,0.7v4.8
			c0,0.1-0.1,0.2-0.2,0.2H95.4L95.4,34.8z"/>
		<path class="st15" d="M102,34.8c-0.5,0-0.9-0.2-1.2-0.4c-0.3-0.3-0.4-0.7-0.4-1.2v-4.4h-1c-0.1,0-0.2-0.1-0.2-0.2v-0.1
			c0-0.1,0-0.1,0.1-0.2c0-0.1,0.1-0.1,0.2-0.1l1.1-0.1l0.1-1.7c0-0.1,0.1-0.1,0.1-0.2c0.1-0.1,0.1-0.1,0.2-0.1h0.2
			c0.1,0,0.2,0.1,0.2,0.2v1.7h1.9c0.1,0,0.2,0.1,0.2,0.2v0.3c0,0.1-0.1,0.2-0.2,0.2h-1.9v4.4c0,0.4,0.1,0.6,0.2,0.8
			c0.2,0.2,0.4,0.2,0.8,0.2c0.3,0,0.5,0,0.7-0.1c0.1,0,0.2-0.1,0.2-0.1c0.1,0,0.1,0,0.1,0c0.1,0,0.2,0.1,0.2,0.2v0.2
			c0,0.2-0.1,0.2-0.2,0.3C102.8,34.8,102.4,34.8,102,34.8L102,34.8z"/>
		<path class="st15" d="M104.9,34.8c-0.1,0-0.2-0.1-0.2-0.2v-6.2c0-0.1,0.1-0.2,0.2-0.2h0.3c0.2,0,0.2,0.1,0.2,0.2l0.1,0.5
			c0.4-0.3,0.9-0.5,1.4-0.7c0.5-0.2,0.9-0.3,1.4-0.3c0.7,0,1.1,0.2,1.5,0.5c0.3,0.3,0.5,0.8,0.5,1.5v4.6c0,0.1-0.1,0.2-0.2,0.2h-0.4
			c-0.1,0-0.2-0.1-0.2-0.2v-4.2c0-0.6-0.1-1-0.3-1.2c-0.2-0.3-0.6-0.4-1-0.4c-0.9,0-1.7,0.3-2.5,0.9v5.1c0,0.1-0.1,0.2-0.2,0.2
			L104.9,34.8L104.9,34.8z"/>
		<path class="st15" d="M115,35c-1,0-1.8-0.3-2.3-0.9c-0.5-0.6-0.8-1.5-0.8-2.7c0-1.1,0.3-2,0.8-2.5c0.5-0.6,1.3-0.9,2.2-0.9
			c0.8,0,1.4,0.2,1.8,0.7c0.4,0.4,0.7,1.1,0.7,2c0,0.3,0,0.6-0.1,0.8c0,0.1-0.1,0.2-0.2,0.2h-4.4c0,0.9,0.2,1.6,0.6,2.1
			c0.4,0.4,1,0.7,1.8,0.7c0.7,0,1.2-0.1,1.8-0.3c0.1-0.1,0.2-0.1,0.2-0.1c0.1,0,0.1,0,0.1,0.1c0,0.1,0.1,0.1,0.1,0.1v0.2
			c0,0.2-0.1,0.2-0.2,0.3C116.4,34.8,115.7,35,115,35L115,35z M116.6,31c0-0.1,0-0.3,0-0.4c0-0.7-0.2-1.1-0.4-1.4
			c-0.3-0.3-0.8-0.5-1.4-0.5c-1.4,0-2.1,0.8-2.2,2.3H116.6L116.6,31z"/>
		<path class="st15" d="M119.2,34.8c-0.1,0-0.2-0.1-0.2-0.2v-6.2c0-0.1,0.1-0.2,0.2-0.2h0.3c0.2,0,0.2,0.1,0.2,0.2l0.1,0.8
			c0.3-0.4,0.7-0.7,1-0.8c0.3-0.2,0.7-0.2,1.1-0.2c0.2,0,0.3,0,0.3,0c0.1,0,0.2,0.1,0.2,0.2v0.3c0,0.1,0,0.1-0.1,0.1
			c0,0.1-0.1,0.1-0.1,0.1c-0.1,0-0.2,0-0.2,0c-0.1,0-0.2,0-0.3,0c-0.4,0-0.8,0.1-1.1,0.2s-0.6,0.4-0.9,0.7v4.8
			c0,0.1-0.1,0.2-0.2,0.2H119.2L119.2,34.8z"/>
		<path class="st15" d="M81.1,49.4c-0.1,0-0.2-0.1-0.2-0.2V43c0-0.1,0.1-0.2,0.2-0.2h0.3c0.2,0,0.2,0.1,0.2,0.2l0.1,0.5
			c0.4-0.3,0.9-0.5,1.4-0.7c0.5-0.2,0.9-0.3,1.4-0.3c0.7,0,1.1,0.2,1.5,0.5c0.3,0.3,0.5,0.8,0.5,1.5v4.6c0,0.1-0.1,0.2-0.2,0.2h-0.4
			c-0.1,0-0.2-0.1-0.2-0.2v-4.3c0-0.6-0.1-1-0.3-1.2c-0.2-0.3-0.6-0.4-1-0.4c-0.9,0-1.7,0.3-2.5,0.9v5.1c0,0.1-0.1,0.2-0.2,0.2
			L81.1,49.4L81.1,49.4z"/>
		<path class="st15" d="M91.2,49.6c-1,0-1.8-0.3-2.3-0.9c-0.5-0.6-0.8-1.5-0.8-2.7c0-1.1,0.3-2,0.8-2.5c0.5-0.6,1.3-0.9,2.2-0.9
			c0.8,0,1.4,0.2,1.8,0.7c0.4,0.4,0.7,1.1,0.7,2c0,0.3,0,0.6-0.1,0.8c0,0.1-0.1,0.2-0.2,0.2h-4.4c0,0.9,0.2,1.6,0.6,2.1
			c0.4,0.4,1,0.7,1.8,0.7c0.7,0,1.2-0.1,1.8-0.3c0.1-0.1,0.2-0.1,0.2-0.1c0.1,0,0.1,0,0.1,0.1c0,0.1,0.1,0.1,0.1,0.1V49
			c0,0.2-0.1,0.2-0.2,0.3C92.6,49.4,91.9,49.6,91.2,49.6L91.2,49.6z M92.8,45.6c0-0.1,0-0.3,0-0.4c0-0.7-0.2-1.1-0.4-1.4
			c-0.3-0.3-0.8-0.5-1.4-0.5c-1.4,0-2.1,0.8-2.2,2.3H92.8L92.8,45.6z"/>
		<path class="st15" d="M97.3,49.5c-0.5,0-0.9-0.2-1.2-0.4c-0.3-0.3-0.4-0.7-0.4-1.2v-4.4h-1c-0.1,0-0.2-0.1-0.2-0.2v-0.1
			c0-0.1,0-0.1,0.1-0.2c0-0.1,0.1-0.1,0.2-0.1l1.1-0.1l0.1-1.7c0-0.1,0.1-0.1,0.1-0.2c0.1-0.1,0.1-0.1,0.2-0.1h0.2
			c0.1,0,0.2,0.1,0.2,0.2v1.7h1.9c0.1,0,0.2,0.1,0.2,0.2v0.3c0,0.1-0.1,0.2-0.2,0.2h-1.9v4.4c0,0.4,0.1,0.6,0.2,0.8
			c0.2,0.2,0.4,0.2,0.8,0.2c0.3,0,0.5,0,0.7-0.1c0.1,0,0.2-0.1,0.2-0.1c0.1,0,0.1,0,0.1,0c0.1,0,0.2,0.1,0.2,0.2v0.2
			c0,0.2-0.1,0.2-0.2,0.3C98.1,49.4,97.7,49.5,97.3,49.5L97.3,49.5z"/>
		<path class="st15" d="M101.5,49.4c-0.1,0-0.2-0.1-0.3-0.2l-2.1-6.1c-0.1-0.1-0.1-0.2-0.1-0.2s0.1-0.1,0.2-0.1h0.4
			c0.1,0,0.2,0.1,0.2,0.2l1.8,5.6l1.6-5.6c0.1-0.1,0.1-0.2,0.3-0.2h0.5c0.1,0,0.2,0.1,0.3,0.2l1.6,5.6l1.8-5.6
			c0.1-0.1,0.1-0.2,0.2-0.2h0.4c0.1,0,0.2,0.1,0.2,0.1s0,0.1-0.1,0.2l-2.2,6.1c-0.1,0.1-0.1,0.2-0.3,0.2h-0.4
			c-0.1,0-0.2-0.1-0.3-0.2l-1.6-5.6l-1.6,5.6c-0.1,0.1-0.1,0.2-0.3,0.2L101.5,49.4L101.5,49.4z"/>
		<path class="st15" d="M112.4,49.6c-1,0-1.7-0.3-2.3-0.9c-0.5-0.6-0.8-1.5-0.8-2.6c0-1.1,0.3-2,0.8-2.6c0.5-0.6,1.3-0.9,2.3-0.9
			c1,0,1.7,0.3,2.3,0.9c0.5,0.6,0.8,1.5,0.8,2.6c0,1.1-0.3,2-0.8,2.6C114.2,49.3,113.4,49.6,112.4,49.6L112.4,49.6z M112.4,48.9
			c1.5,0,2.3-0.9,2.3-2.8c0-1.9-0.8-2.8-2.3-2.8c-1.5,0-2.3,0.9-2.3,2.8C110.2,48,110.9,48.9,112.4,48.9L112.4,48.9z"/>
		<path class="st15" d="M117.4,49.4c-0.1,0-0.2-0.1-0.2-0.2V43c0-0.1,0.1-0.2,0.2-0.2h0.3c0.2,0,0.2,0.1,0.2,0.2l0.1,0.8
			c0.3-0.4,0.7-0.7,1-0.8c0.3-0.2,0.7-0.2,1.1-0.2c0.2,0,0.3,0,0.3,0c0.1,0,0.2,0.1,0.2,0.2v0.3c0,0.1,0,0.1-0.1,0.1
			c-0.1,0.1-0.1,0.1-0.1,0.1c-0.1,0-0.2,0-0.2,0c-0.1,0-0.2,0-0.3,0c-0.4,0-0.8,0.1-1.1,0.2c-0.3,0.2-0.6,0.4-0.9,0.7v4.8
			c0,0.1-0.1,0.2-0.2,0.2L117.4,49.4L117.4,49.4z"/>
		<path class="st15" d="M121.9,49.4c-0.1,0-0.2-0.1-0.2-0.2v-9.3c0-0.1,0.1-0.2,0.2-0.2h0.4c0.1,0,0.2,0.1,0.2,0.2v5.9l3.1-2.8
			c0.1-0.1,0.2-0.1,0.3-0.1h0.5c0.1,0,0.2,0.1,0.2,0.1s-0.1,0.1-0.2,0.2l-3.2,2.8l3.5,3.2c0.1,0.1,0.1,0.1,0.1,0.2
			c0,0.1-0.1,0.1-0.2,0.1h-0.5c-0.1,0-0.2-0.1-0.3-0.1l-3.4-3.1v3c0,0.1-0.1,0.2-0.2,0.2H121.9L121.9,49.4z"/>
		<path class="st19" d="M24.5,94.9l-0.6-2H21l-0.6,2h-1.9l3-8.6h2l3,8.6H24.5L24.5,94.9z M21.4,91.6h2.2L22.5,88L21.4,91.6
			L21.4,91.6z M31.8,94.9l-0.2-0.6c-0.5,0.5-1.1,0.7-1.8,0.7c-0.5,0-1-0.1-1.4-0.4c-0.4-0.3-0.7-0.6-0.9-1.1
			c-0.2-0.5-0.3-1.1-0.3-1.7c0-1,0.2-1.8,0.7-2.5c0.5-0.6,1.1-0.9,1.9-0.9c0.7,0,1.2,0.2,1.7,0.6v-3.2h1.8v9.2H31.8L31.8,94.9z
			 M30.4,93.7c0.4,0,0.8-0.1,1.1-0.3v-3.3c-0.4-0.2-0.8-0.3-1.2-0.3c-0.4,0-0.8,0.2-1,0.5c-0.2,0.3-0.3,0.8-0.3,1.5
			c0,0.7,0.1,1.2,0.3,1.5C29.6,93.5,29.9,93.7,30.4,93.7L30.4,93.7z M36.7,94.9l-2.4-6.3h1.9l1.3,4.7l1.4-4.7h1.9l-2.4,6.3H36.7
			L36.7,94.9z M45.3,94.9l-0.1-0.6c-0.3,0.2-0.6,0.4-0.9,0.6c-0.3,0.1-0.7,0.2-1,0.2c-0.6,0-1.1-0.2-1.5-0.5
			c-0.4-0.3-0.6-0.8-0.6-1.4c0-0.4,0.1-0.7,0.3-1c0.2-0.3,0.5-0.5,0.9-0.7s0.8-0.3,1.3-0.3c0.4,0,0.8,0.1,1.3,0.2v-0.6
			c0-0.4-0.1-0.6-0.2-0.8c-0.2-0.1-0.4-0.2-0.9-0.2c-0.7,0-1.4,0.1-2.2,0.4v-1.2c0.3-0.2,0.7-0.3,1.1-0.4c0.5-0.1,0.9-0.1,1.4-0.1
			c0.9,0,1.5,0.2,1.9,0.5c0.4,0.3,0.6,0.9,0.6,1.6v4.4H45.3L45.3,94.9z M43.9,93.9c0.2,0,0.4,0,0.6-0.1c0.2-0.1,0.4-0.2,0.6-0.4
			v-1.1c-0.4-0.1-0.7-0.1-1-0.1c-0.7,0-1.1,0.3-1.1,0.9c0,0.3,0.1,0.5,0.2,0.6C43.4,93.8,43.6,93.9,43.9,93.9L43.9,93.9z M52.6,94.9
			v-4.2c0-0.3-0.1-0.6-0.2-0.7c-0.1-0.2-0.4-0.2-0.7-0.2c-0.5,0-0.9,0.1-1.4,0.4v4.7h-1.8v-6.3H50l0.2,0.7c0.7-0.6,1.5-0.9,2.4-0.9
			c0.6,0,1,0.2,1.4,0.5c0.3,0.3,0.5,0.8,0.5,1.4v4.7H52.6L52.6,94.9z M60.6,94.6c-0.2,0.1-0.5,0.2-0.8,0.3c-0.3,0.1-0.6,0.1-1,0.1
			c-1,0-1.8-0.3-2.3-0.8c-0.5-0.6-0.8-1.4-0.8-2.4c0-1,0.3-1.9,0.8-2.5c0.6-0.6,1.3-0.9,2.3-0.9c0.6,0,1.2,0.1,1.7,0.4V90
			c-0.5-0.1-0.9-0.2-1.3-0.2c-0.6,0-1,0.1-1.3,0.4c-0.3,0.3-0.4,0.8-0.4,1.4v0.2c0,0.6,0.1,1.1,0.4,1.4c0.3,0.3,0.7,0.4,1.3,0.4
			c0.4,0,0.9-0.1,1.4-0.2V94.6L60.6,94.6z M63.3,92.2c0,0.5,0.2,0.9,0.5,1.2c0.3,0.2,0.8,0.4,1.4,0.4c0.6,0,1.2-0.1,1.9-0.3v1.2
			c-0.3,0.1-0.6,0.3-1,0.3c-0.4,0.1-0.8,0.1-1.2,0.1c-1.1,0-1.9-0.3-2.4-0.9c-0.5-0.6-0.8-1.4-0.8-2.5c0-1.1,0.3-1.9,0.8-2.5
			c0.5-0.6,1.3-0.9,2.3-0.9c0.8,0,1.4,0.2,1.9,0.7c0.4,0.4,0.7,1.1,0.7,1.9c0,0.2,0,0.4,0,0.6c0,0.2-0.1,0.4-0.1,0.6H63.3L63.3,92.2
			z M64.6,89.6c-0.4,0-0.7,0.1-1,0.4c-0.2,0.2-0.4,0.6-0.4,1.1h2.4v-0.2C65.7,90,65.3,89.6,64.6,89.6L64.6,89.6z M72.9,94.9
			l-0.2-0.6c-0.5,0.5-1.1,0.7-1.8,0.7c-0.5,0-1-0.1-1.4-0.4c-0.4-0.3-0.7-0.6-0.9-1.1c-0.2-0.5-0.3-1.1-0.3-1.7c0-1,0.2-1.8,0.7-2.5
			c0.5-0.6,1.1-0.9,1.9-0.9c0.7,0,1.2,0.2,1.7,0.6v-3.2h1.8v9.2H72.9L72.9,94.9z M71.5,93.7c0.4,0,0.8-0.1,1.1-0.3v-3.3
			c-0.4-0.2-0.8-0.3-1.2-0.3c-0.4,0-0.8,0.2-1,0.5c-0.2,0.3-0.3,0.8-0.3,1.5c0,0.7,0.1,1.2,0.3,1.5C70.7,93.5,71.1,93.7,71.5,93.7
			L71.5,93.7z"/>
		<path class="st19" d="M28.7,122.3c-2.8,0-4.9-0.8-6.4-2.4c-1.4-1.6-2.2-3.9-2.2-7c0-3.1,0.7-5.4,2.2-7c1.5-1.6,3.6-2.4,6.4-2.4
			c1.3,0,2.5,0.2,3.7,0.6c0.1,0,0.2,0.1,0.2,0.2c0.1,0.1,0.1,0.2,0.1,0.3v0.6c0,0.2-0.1,0.3-0.3,0.3c-0.1,0-0.3-0.1-0.8-0.2
			c-0.4-0.1-0.8-0.2-1.4-0.2c-0.5-0.1-1-0.1-1.4-0.1c-2.4,0-4.2,0.6-5.4,1.9c-1.2,1.3-1.8,3.1-1.8,5.7v0.7c0,5,2.3,7.5,7,7.5
			c1.1,0,2.3-0.1,3.4-0.4c0.3-0.1,0.5-0.1,0.6-0.1c0.2,0,0.3,0.1,0.3,0.3v0.6c0,0.2,0,0.3-0.1,0.3c-0.1,0.1-0.1,0.1-0.2,0.2
			C31.5,122.1,30.2,122.3,28.7,122.3L28.7,122.3z M41.6,122.4c-1.9,0-3.4-0.6-4.5-1.9c-1.1-1.2-1.6-3-1.6-5.2c0-2.2,0.5-3.9,1.6-5.2
			c1.1-1.2,2.6-1.8,4.5-1.8c1.9,0,3.4,0.6,4.5,1.8c1.1,1.2,1.6,2.9,1.6,5.2c0,2.2-0.5,3.9-1.6,5.2C45,121.8,43.5,122.4,41.6,122.4
			L41.6,122.4z M41.6,121c3,0,4.6-1.9,4.6-5.7c0-3.8-1.5-5.6-4.6-5.6c-3,0-4.6,1.9-4.6,5.6C37,119.2,38.6,121,41.6,121L41.6,121z
			 M51.5,122c-0.3,0-0.4-0.1-0.4-0.4v-12.5c0-0.3,0.1-0.4,0.4-0.4h0.5c0.3,0,0.4,0.1,0.4,0.4l0.1,1.1c0.9-0.6,1.8-1.1,2.7-1.4
			c0.9-0.3,1.9-0.5,2.8-0.5c1.3,0,2.3,0.3,2.9,1c0.7,0.7,1,1.7,1,3v9.2c0,0.3-0.1,0.4-0.4,0.4h-0.7c-0.3,0-0.4-0.1-0.4-0.4V113
			c0-1.1-0.2-2-0.7-2.5c-0.4-0.5-1.1-0.8-2.1-0.8c-1.8,0-3.5,0.6-5.1,1.7v10.2c0,0.3-0.1,0.4-0.4,0.4H51.5L51.5,122z M69.4,122.4
			c-0.7,0-1.4-0.1-2.1-0.2c-0.7-0.1-1.3-0.3-1.9-0.6c-0.2-0.1-0.3-0.3-0.3-0.5v-0.4c0-0.2,0.1-0.3,0.3-0.3c0,0,0.1,0,0.2,0.1
			c0.1,0,0.4,0.1,0.8,0.2c1,0.3,2,0.4,3.1,0.4c1.1,0,1.9-0.2,2.4-0.6c0.6-0.4,0.8-1.1,0.8-1.9c0-0.5-0.2-0.9-0.5-1.2
			c-0.3-0.3-0.9-0.7-1.7-1l-2.4-0.9c-1.9-0.7-2.8-1.9-2.8-3.4c0-1.1,0.4-2,1.2-2.6c0.8-0.7,1.9-1,3.2-1c1.2,0,2.3,0.2,3.4,0.7
			c0.2,0.1,0.3,0.3,0.3,0.5v0.4c0,0.2-0.1,0.3-0.3,0.3c-0.1,0-0.3,0-0.7-0.1c-1.1-0.3-2.1-0.4-2.9-0.4c-0.9,0-1.7,0.2-2.2,0.6
			c-0.5,0.4-0.7,0.9-0.7,1.7c0,0.6,0.2,1.1,0.5,1.4c0.3,0.3,1,0.7,2,1.1l2.1,0.8c1,0.4,1.7,0.8,2.1,1.4c0.4,0.5,0.7,1.2,0.7,2
			c0,1.2-0.4,2.1-1.3,2.8C72.1,122.1,70.9,122.4,69.4,122.4L69.4,122.4z M81,122.4c-1.3,0-2.2-0.3-2.9-1c-0.7-0.7-1-1.7-1-3v-9.2
			c0-0.3,0.1-0.4,0.4-0.4h0.7c0.3,0,0.4,0.1,0.4,0.4v8.6c0,1.2,0.2,2,0.7,2.5c0.4,0.5,1.1,0.8,2.1,0.8c0.9,0,1.7-0.1,2.4-0.4
			c0.8-0.3,1.6-0.7,2.4-1.3v-10.2c0-0.3,0.1-0.4,0.4-0.4h0.7c0.3,0,0.4,0.1,0.4,0.4v12.5c0,0.3-0.1,0.4-0.4,0.4h-0.5
			c-0.3,0-0.4-0.1-0.4-0.4l-0.1-1.1C84.5,121.8,82.8,122.4,81,122.4L81,122.4z M94,122.1c-0.7,0-1.3-0.2-1.6-0.6
			c-0.4-0.4-0.6-1-0.6-1.7v-16.8c0-0.3,0.1-0.4,0.4-0.4h0.7c0.3,0,0.4,0.1,0.4,0.4v16.8c0,0.4,0.1,0.7,0.2,0.8
			c0.1,0.2,0.4,0.2,0.8,0.2c0.1,0,0.2,0,0.4,0c0.1,0,0.2,0,0.3,0c0.2,0,0.4,0.1,0.4,0.4v0.5c0,0.2-0.1,0.3-0.3,0.4
			C94.7,122.1,94.4,122.1,94,122.1L94,122.1z M102.5,122.2c-1,0-1.8-0.3-2.4-0.8c-0.5-0.6-0.8-1.4-0.8-2.4v-8.8h-2.1
			c-0.3,0-0.4-0.1-0.4-0.4v-0.3c0-0.1,0-0.2,0.1-0.3c0.1-0.1,0.2-0.1,0.3-0.1l2.1-0.2l0.2-3.5c0-0.1,0.1-0.2,0.1-0.3
			c0.1-0.1,0.2-0.1,0.3-0.1h0.5c0.3,0,0.4,0.1,0.4,0.4v3.4h3.8c0.3,0,0.4,0.1,0.4,0.4v0.5c0,0.3-0.1,0.4-0.4,0.4h-3.8v8.8
			c0,0.7,0.2,1.2,0.5,1.5c0.3,0.3,0.8,0.4,1.5,0.4c0.5,0,1,0,1.3-0.1c0.2,0,0.3-0.1,0.5-0.1c0.1,0,0.2,0,0.3,0
			c0.2,0,0.3,0.1,0.3,0.3v0.4c0,0.3-0.1,0.5-0.3,0.6C104.1,122.1,103.3,122.2,102.5,122.2L102.5,122.2z M108.4,122
			c-0.3,0-0.4-0.1-0.4-0.4v-12.5c0-0.3,0.1-0.4,0.4-0.4h0.7c0.3,0,0.4,0.1,0.4,0.4v12.5c0,0.3-0.1,0.4-0.4,0.4H108.4L108.4,122z
			 M108.8,105.9c-0.4,0-0.6-0.1-0.8-0.3c-0.2-0.2-0.3-0.5-0.3-0.8c0-0.4,0.1-0.6,0.3-0.8c0.2-0.2,0.5-0.3,0.8-0.3
			c0.4,0,0.6,0.1,0.8,0.3c0.2,0.2,0.3,0.5,0.3,0.8c0,0.4-0.1,0.6-0.3,0.8C109.4,105.8,109.1,105.9,108.8,105.9L108.8,105.9z
			 M114.1,122c-0.3,0-0.4-0.1-0.4-0.4v-12.5c0-0.3,0.1-0.4,0.4-0.4h0.5c0.3,0,0.4,0.1,0.4,0.4l0.1,1.1c0.9-0.6,1.8-1.1,2.7-1.4
			c0.9-0.3,1.9-0.5,2.8-0.5c1.3,0,2.3,0.3,2.9,1c0.7,0.7,1,1.7,1,3v9.2c0,0.3-0.1,0.4-0.4,0.4h-0.7c-0.3,0-0.4-0.1-0.4-0.4V113
			c0-1.1-0.2-2-0.7-2.5c-0.4-0.5-1.1-0.8-2.1-0.8c-1.8,0-3.5,0.6-5.1,1.7v10.2c0,0.3-0.1,0.4-0.4,0.4H114.1L114.1,122z M133.4,127.8
			c-0.7,0-1.5-0.1-2.2-0.2c-0.7-0.1-1.3-0.4-1.8-0.6c-0.2-0.1-0.3-0.3-0.3-0.6V126c0-0.2,0.1-0.3,0.3-0.3c0.1,0,0.1,0,0.2,0
			c0.1,0,0.2,0.1,0.3,0.1c1.2,0.4,2.4,0.6,3.4,0.6c1.6,0,2.8-0.4,3.6-1.2c0.8-0.8,1.1-2.1,1.1-3.8v-1.3c-0.6,0.5-1.4,1-2.2,1.3
			c-0.8,0.3-1.5,0.5-2.3,0.5c-1.7,0-3-0.6-4.1-1.8c-1-1.2-1.5-2.8-1.5-4.8c0-2.1,0.5-3.8,1.5-5c1-1.2,2.4-1.8,4.1-1.8
			c1.7,0,3.1,0.6,4.4,1.8l0.1-1c0-0.3,0.2-0.4,0.4-0.4h0.5c0.3,0,0.4,0.1,0.4,0.4v12.3c0,2.1-0.5,3.6-1.6,4.7
			C136.9,127.2,135.4,127.8,133.4,127.8L133.4,127.8z M133.9,120.5c1.3,0,2.7-0.6,4.1-1.7v-7.3c-0.7-0.6-1.4-1-2.1-1.3
			c-0.7-0.3-1.4-0.4-2.1-0.4c-1.4,0-2.5,0.5-3.2,1.4c-0.7,0.9-1.1,2.3-1.1,4c0,1.7,0.4,3,1.1,3.9C131.4,120,132.5,120.5,133.9,120.5
			L133.9,120.5z"/>
		<path class="st19" d="M21.1,149.1c-0.3,0-0.4-0.1-0.4-0.4v-17.5c0-0.3,0.1-0.4,0.4-0.4H27c1.7,0,3,0.5,4,1.5c1,1,1.5,2.3,1.5,4
			c0,1.6-0.5,2.9-1.5,3.9c-1,1-2.3,1.5-4,1.5h-4.8v7c0,0.3-0.1,0.4-0.4,0.4H21.1L21.1,149.1z M27,140.3c2.6,0,3.9-1.3,3.9-4
			c0-2.7-1.3-4-3.9-4h-4.7v8H27L27,140.3z M38.9,149.4c-1.2,0-2.2-0.3-2.9-1c-0.7-0.7-1.1-1.6-1.1-2.8c0-1.3,0.4-2.3,1.3-3
			c0.9-0.7,2.1-1.1,3.6-1.1c1.2,0,2.4,0.2,3.8,0.6v-2.2c0-1.1-0.3-1.8-0.8-2.3c-0.5-0.5-1.4-0.7-2.5-0.7c-1.2,0-2.5,0.2-3.8,0.7
			c-0.2,0.1-0.3,0.1-0.4,0.1c-0.2,0-0.3-0.1-0.3-0.3v-0.4c0-0.1,0-0.3,0.1-0.3c0.1-0.1,0.1-0.1,0.3-0.2c1.4-0.5,2.9-0.8,4.4-0.8
			c1.5,0,2.7,0.3,3.4,1c0.7,0.6,1.1,1.6,1.1,2.9v9.3c0,0.3-0.1,0.4-0.4,0.4h-0.6c-0.3,0-0.4-0.1-0.4-0.4l-0.1-1.1
			C42.2,148.8,40.6,149.4,38.9,149.4L38.9,149.4z M39.1,148.1c0.7,0,1.4-0.1,2.2-0.4c0.8-0.3,1.6-0.7,2.3-1.1v-3.3
			c-1.2-0.3-2.3-0.5-3.4-0.5c-2.5,0-3.7,0.9-3.7,2.8c0,0.8,0.2,1.4,0.7,1.9C37.6,147.8,38.3,148.1,39.1,148.1L39.1,148.1z
			 M49.6,149.1c-0.3,0-0.4-0.1-0.4-0.4v-12.5c0-0.3,0.1-0.4,0.4-0.4h0.5c0.3,0,0.4,0.1,0.4,0.4l0.1,1.5c0.7-0.7,1.3-1.3,2-1.6
			c0.6-0.3,1.4-0.5,2.2-0.5c0.3,0,0.5,0,0.7,0c0.3,0,0.4,0.2,0.4,0.4v0.7c0,0.1,0,0.1-0.1,0.2c-0.1,0.1-0.1,0.1-0.2,0.1
			c-0.1,0-0.3,0-0.4,0c-0.1,0-0.3,0-0.6,0c-0.8,0-1.5,0.1-2.1,0.4c-0.6,0.3-1.2,0.8-1.8,1.4v9.7c0,0.3-0.1,0.4-0.4,0.4H49.6
			L49.6,149.1z M62.3,149.3c-1,0-1.8-0.3-2.4-0.8c-0.5-0.6-0.8-1.4-0.8-2.4v-8.8h-2.1c-0.3,0-0.4-0.1-0.4-0.4v-0.3
			c0-0.1,0-0.2,0.1-0.3c0.1-0.1,0.2-0.1,0.3-0.1l2.1-0.2l0.2-3.5c0-0.1,0.1-0.2,0.1-0.3c0.1-0.1,0.2-0.1,0.3-0.1h0.5
			c0.3,0,0.4,0.1,0.4,0.4v3.4h3.8c0.3,0,0.4,0.1,0.4,0.4v0.5c0,0.3-0.1,0.4-0.4,0.4h-3.8v8.8c0,0.7,0.2,1.2,0.5,1.5
			c0.3,0.3,0.8,0.4,1.5,0.4c0.5,0,1,0,1.3-0.1c0.2,0,0.3-0.1,0.5-0.1c0.1,0,0.2,0,0.3,0c0.2,0,0.3,0.1,0.3,0.3v0.4
			c0,0.3-0.1,0.5-0.3,0.6C64,149.2,63.2,149.3,62.3,149.3L62.3,149.3z M68.2,149.1c-0.3,0-0.4-0.1-0.4-0.4v-12.5
			c0-0.3,0.1-0.4,0.4-0.4h0.5c0.3,0,0.4,0.1,0.4,0.4l0.1,1.1c0.9-0.6,1.8-1.1,2.7-1.4c0.9-0.3,1.9-0.5,2.8-0.5c1.3,0,2.3,0.3,2.9,1
			c0.7,0.7,1,1.7,1,3v9.2c0,0.3-0.1,0.4-0.4,0.4h-0.7c-0.3,0-0.4-0.1-0.4-0.4v-8.6c0-1.1-0.2-2-0.7-2.5c-0.4-0.5-1.1-0.8-2.1-0.8
			c-1.8,0-3.5,0.6-5.1,1.7v10.2c0,0.3-0.1,0.4-0.4,0.4H68.2L68.2,149.1z M88.4,149.5c-2.1,0-3.7-0.6-4.7-1.8
			c-1.1-1.2-1.6-2.9-1.6-5.3c0-2.2,0.5-3.9,1.6-5.1c1.1-1.2,2.6-1.8,4.5-1.8c1.6,0,2.8,0.5,3.7,1.4c0.9,0.9,1.3,2.2,1.3,3.9
			c0,0.7,0,1.2-0.1,1.6c-0.1,0.3-0.2,0.4-0.4,0.4h-8.9c0,1.8,0.4,3.2,1.2,4.1c0.8,0.9,2,1.3,3.7,1.3c1.3,0,2.5-0.2,3.6-0.7
			c0.2-0.1,0.4-0.1,0.5-0.1c0.1,0,0.1,0,0.2,0.1c0.1,0.1,0.1,0.1,0.1,0.2v0.4c0,0.3-0.1,0.5-0.3,0.6
			C91.3,149.2,89.9,149.5,88.4,149.5L88.4,149.5z M91.6,141.6c0-0.2,0-0.5,0-0.9c0-1.3-0.3-2.2-0.9-2.9c-0.6-0.6-1.5-1-2.7-1
			c-2.8,0-4.2,1.6-4.4,4.7H91.6L91.6,141.6z M96.8,149.1c-0.3,0-0.4-0.1-0.4-0.4v-12.5c0-0.3,0.1-0.4,0.4-0.4h0.5
			c0.3,0,0.4,0.1,0.4,0.4l0.1,1.5c0.7-0.7,1.3-1.3,2-1.6c0.6-0.3,1.4-0.5,2.2-0.5c0.3,0,0.5,0,0.7,0c0.3,0,0.4,0.2,0.4,0.4v0.7
			c0,0.1,0,0.1-0.1,0.2c-0.1,0.1-0.1,0.1-0.2,0.1c-0.1,0-0.3,0-0.4,0c-0.1,0-0.3,0-0.6,0c-0.8,0-1.5,0.1-2.1,0.4
			c-0.6,0.3-1.2,0.8-1.8,1.4v9.7c0,0.3-0.1,0.4-0.4,0.4H96.8L96.8,149.1z"/>
		<line class="st20" x1="18.4" y1="170.4" x2="165.6" y2="170.4"/>
		<path class="st19" d="M19.8,193.7c-0.1,0-0.2-0.1-0.2-0.2v-9.2c0-0.1,0.1-0.2,0.2-0.2h2.7c1.4,0,2.5,0.4,3.2,1.2
			c0.7,0.8,1.1,2,1.1,3.6c0,1.6-0.4,2.8-1.1,3.6c-0.8,0.8-1.8,1.2-3.3,1.2H19.8L19.8,193.7z M20.5,193h1.9c1.2,0,2.1-0.3,2.7-1
			c0.6-0.7,0.9-1.7,0.9-3v-0.3c0-2.7-1.2-4-3.6-4h-1.9V193L20.5,193z M31.8,193.9c-1.1,0-1.9-0.3-2.5-0.9c-0.6-0.6-0.8-1.6-0.8-2.8
			c0-1.2,0.3-2.1,0.8-2.7c0.6-0.6,1.4-1,2.4-1c0.8,0,1.5,0.2,1.9,0.7c0.5,0.5,0.7,1.2,0.7,2.1c0,0.4,0,0.6-0.1,0.8
			c0,0.1-0.1,0.2-0.2,0.2h-4.7c0,1,0.2,1.7,0.6,2.2c0.4,0.5,1.1,0.7,1.9,0.7c0.7,0,1.3-0.1,1.9-0.4c0.1,0,0.2-0.1,0.3-0.1
			c0,0,0.1,0,0.1,0c0,0,0,0.1,0,0.1v0.2c0,0.1-0.1,0.2-0.2,0.3C33.4,193.7,32.6,193.9,31.8,193.9L31.8,193.9z M33.5,189.7
			c0-0.1,0-0.3,0-0.5c0-0.7-0.2-1.2-0.5-1.5c-0.3-0.3-0.8-0.5-1.4-0.5c-1.5,0-2.2,0.8-2.3,2.5H33.5L33.5,189.7z M38.1,193.7
			c-0.1,0-0.2-0.1-0.3-0.2l-2.6-6.5c0-0.1-0.1-0.2-0.1-0.2c0-0.1,0.1-0.2,0.2-0.2h0.4c0.1,0,0.2,0.1,0.2,0.2l2.3,6l2.3-6
			c0-0.1,0.1-0.2,0.2-0.2h0.4c0.1,0,0.2,0.1,0.2,0.2c0,0,0,0.1-0.1,0.2l-2.6,6.5c-0.1,0.1-0.1,0.2-0.3,0.2H38.1L38.1,193.7z
			 M47.2,193.2c1.2,0,2.1-0.4,2.7-1.1c0.6-0.7,0.9-1.8,0.9-3.2c0-1.4-0.3-2.5-0.9-3.2c-0.6-0.7-1.5-1.1-2.7-1.1
			c-1.2,0-2.1,0.4-2.7,1.1c-0.6,0.7-0.9,1.8-0.9,3.2c0,1.4,0.3,2.5,0.9,3.2C45.1,192.8,46,193.2,47.2,193.2L47.2,193.2z M47.2,193.9
			c-1.4,0-2.5-0.4-3.3-1.3c-0.8-0.9-1.2-2.1-1.2-3.7s0.4-2.8,1.2-3.7c0.8-0.9,1.9-1.3,3.3-1.3c1.4,0,2.5,0.4,3.3,1.3
			c0.8,0.9,1.2,2.1,1.2,3.7s-0.4,2.8-1.2,3.7C49.6,193.5,48.5,193.9,47.2,193.9L47.2,193.9z M53.8,196.6c-0.1,0-0.2-0.1-0.2-0.2
			v-9.5c0-0.1,0.1-0.2,0.2-0.2h0.3c0.1,0,0.2,0.1,0.2,0.2l0.1,0.6c0.4-0.3,0.8-0.6,1.2-0.8c0.4-0.2,0.8-0.2,1.3-0.2
			c0.9,0,1.6,0.3,2.1,1c0.5,0.6,0.8,1.5,0.8,2.7c0,1.1-0.3,2.1-0.8,2.7c-0.5,0.7-1.3,1-2.2,1c-0.9,0-1.6-0.3-2.3-0.9v3.5
			c0,0.1-0.1,0.2-0.2,0.2H53.8L53.8,196.6z M56.7,193.1c0.8,0,1.3-0.2,1.7-0.7c0.4-0.5,0.6-1.2,0.6-2.2c0-2-0.7-3-2.2-3
			c-0.8,0-1.5,0.3-2.3,0.9v4.1c0.4,0.3,0.8,0.6,1.1,0.7C55.9,193,56.3,193.1,56.7,193.1L56.7,193.1z M63.4,193.9
			c-0.4,0-0.7,0-1.1-0.1c-0.4-0.1-0.7-0.2-1-0.3c-0.1,0-0.2-0.1-0.2-0.3V193c0-0.1,0.1-0.2,0.2-0.2c0,0,0.1,0,0.1,0
			c0.1,0,0.2,0.1,0.4,0.1c0.5,0.2,1.1,0.2,1.6,0.2c0.6,0,1-0.1,1.3-0.3c0.3-0.2,0.4-0.6,0.4-1c0-0.3-0.1-0.5-0.3-0.6
			c-0.2-0.2-0.5-0.3-0.9-0.5l-1.3-0.5c-1-0.4-1.5-1-1.5-1.8c0-0.6,0.2-1,0.6-1.4c0.4-0.4,1-0.5,1.7-0.5c0.6,0,1.2,0.1,1.8,0.3
			c0.1,0,0.2,0.1,0.2,0.3v0.2c0,0.1-0.1,0.2-0.2,0.2c-0.1,0-0.2,0-0.4-0.1c-0.6-0.2-1.1-0.2-1.5-0.2c-0.5,0-0.9,0.1-1.1,0.3
			c-0.3,0.2-0.4,0.5-0.4,0.9c0,0.3,0.1,0.6,0.3,0.7c0.2,0.2,0.5,0.4,1.1,0.6l1.1,0.4c0.5,0.2,0.9,0.4,1.1,0.7
			c0.2,0.3,0.4,0.6,0.4,1.1c0,0.6-0.2,1.1-0.7,1.5C64.8,193.7,64.2,193.9,63.4,193.9L63.4,193.9z M75.5,193.8
			c-1.5,0-2.6-0.4-3.4-1.3c-0.8-0.8-1.1-2.1-1.1-3.7c0-1.6,0.4-2.8,1.2-3.7c0.8-0.9,1.9-1.3,3.4-1.3c0.7,0,1.3,0.1,2,0.3
			c0.1,0,0.1,0,0.1,0.1c0,0,0,0.1,0,0.2v0.3c0,0.1-0.1,0.2-0.2,0.2c0,0-0.2,0-0.4-0.1c-0.2-0.1-0.4-0.1-0.7-0.1c-0.3,0-0.5,0-0.8,0
			c-1.3,0-2.2,0.3-2.9,1c-0.6,0.7-0.9,1.7-0.9,3v0.4c0,2.7,1.2,4,3.7,4c0.6,0,1.2-0.1,1.8-0.2c0.2,0,0.3-0.1,0.3-0.1
			c0.1,0,0.2,0.1,0.2,0.2v0.3c0,0.1,0,0.1,0,0.2c0,0-0.1,0.1-0.1,0.1C77,193.7,76.3,193.8,75.5,193.8L75.5,193.8z M82.3,193.9
			c-1,0-1.8-0.3-2.4-1c-0.6-0.7-0.8-1.6-0.8-2.7c0-1.2,0.3-2.1,0.8-2.7c0.6-0.6,1.4-1,2.4-1c1,0,1.8,0.3,2.4,1
			c0.6,0.6,0.9,1.6,0.9,2.7c0,1.2-0.3,2.1-0.9,2.7C84.2,193.6,83.4,193.9,82.3,193.9L82.3,193.9z M82.3,193.2c1.6,0,2.4-1,2.4-3
			c0-2-0.8-3-2.4-3c-1.6,0-2.4,1-2.4,3C79.9,192.2,80.7,193.2,82.3,193.2L82.3,193.2z M87.6,193.7c-0.1,0-0.2-0.1-0.2-0.2v-6.6
			c0-0.1,0.1-0.2,0.2-0.2h0.3c0.1,0,0.2,0.1,0.2,0.2l0.1,0.6c0.4-0.3,0.9-0.6,1.3-0.7c0.5-0.2,0.9-0.2,1.3-0.2
			c0.9,0,1.5,0.4,1.8,1.1c0.4-0.3,0.9-0.6,1.4-0.8c0.5-0.2,1-0.3,1.5-0.3c0.6,0,1.1,0.2,1.5,0.5c0.3,0.4,0.5,0.9,0.5,1.6v4.9
			c0,0.1-0.1,0.2-0.2,0.2h-0.4c-0.1,0-0.2-0.1-0.2-0.2v-4.6c0-0.6-0.1-1-0.3-1.3c-0.2-0.3-0.6-0.4-1-0.4c-0.9,0-1.7,0.3-2.5,0.9
			c0,0.2,0,0.4,0,0.7v4.8c0,0.1-0.1,0.2-0.2,0.2h-0.4c-0.1,0-0.2-0.1-0.2-0.2v-4.6c0-0.6-0.1-1-0.3-1.3c-0.2-0.3-0.6-0.4-1-0.4
			c-0.9,0-1.7,0.3-2.5,0.9v5.4c0,0.1-0.1,0.2-0.2,0.2H87.6L87.6,193.7z M99.8,196.6c-0.1,0-0.2-0.1-0.2-0.2v-9.5
			c0-0.1,0.1-0.2,0.2-0.2h0.3c0.1,0,0.2,0.1,0.2,0.2l0.1,0.6c0.4-0.3,0.8-0.6,1.2-0.8c0.4-0.2,0.8-0.2,1.3-0.2c0.9,0,1.6,0.3,2.1,1
			c0.5,0.6,0.8,1.5,0.8,2.7c0,1.1-0.3,2.1-0.8,2.7c-0.5,0.7-1.3,1-2.2,1c-0.9,0-1.6-0.3-2.3-0.9v3.5c0,0.1-0.1,0.2-0.2,0.2H99.8
			L99.8,196.6z M102.6,193.1c0.8,0,1.3-0.2,1.7-0.7c0.4-0.5,0.6-1.2,0.6-2.2c0-2-0.7-3-2.2-3c-0.8,0-1.5,0.3-2.3,0.9v4.1
			c0.4,0.3,0.8,0.6,1.1,0.7C101.8,193,102.2,193.1,102.6,193.1L102.6,193.1z M110.5,193.9c-1.1,0-1.9-0.3-2.5-0.9
			c-0.6-0.6-0.8-1.6-0.8-2.8c0-1.2,0.3-2.1,0.8-2.7c0.6-0.6,1.4-1,2.4-1c0.8,0,1.5,0.2,1.9,0.7c0.5,0.5,0.7,1.2,0.7,2.1
			c0,0.4,0,0.6-0.1,0.8c0,0.1-0.1,0.2-0.2,0.2H108c0,1,0.2,1.7,0.6,2.2c0.4,0.5,1.1,0.7,1.9,0.7c0.7,0,1.3-0.1,1.9-0.4
			c0.1,0,0.2-0.1,0.3-0.1c0,0,0.1,0,0.1,0c0,0,0,0.1,0,0.1v0.2c0,0.1-0.1,0.2-0.2,0.3C112.1,193.7,111.3,193.9,110.5,193.9
			L110.5,193.9z M112.2,189.7c0-0.1,0-0.3,0-0.5c0-0.7-0.2-1.2-0.5-1.5c-0.3-0.3-0.8-0.5-1.4-0.5c-1.5,0-2.2,0.8-2.3,2.5H112.2
			L112.2,189.7z M116.9,193.8c-0.5,0-1-0.1-1.3-0.4c-0.3-0.3-0.4-0.7-0.4-1.3v-4.7h-1.1c-0.1,0-0.2-0.1-0.2-0.2V187
			c0-0.1,0-0.1,0-0.2c0,0,0.1-0.1,0.2-0.1l1.1-0.1l0.1-1.8c0-0.1,0-0.1,0.1-0.2c0,0,0.1,0,0.1,0h0.3c0.1,0,0.2,0.1,0.2,0.2v1.8h2
			c0.1,0,0.2,0.1,0.2,0.2v0.3c0,0.1-0.1,0.2-0.2,0.2h-2v4.6c0,0.4,0.1,0.6,0.2,0.8c0.2,0.2,0.4,0.2,0.8,0.2c0.3,0,0.5,0,0.7-0.1
			c0.1,0,0.2,0,0.2,0c0.1,0,0.1,0,0.1,0c0.1,0,0.2,0.1,0.2,0.2v0.2c0,0.2-0.1,0.3-0.2,0.3C117.8,193.7,117.4,193.8,116.9,193.8
			L116.9,193.8z M122.8,193.9c-1.1,0-1.9-0.3-2.5-0.9c-0.6-0.6-0.8-1.6-0.8-2.8c0-1.2,0.3-2.1,0.8-2.7c0.6-0.6,1.4-1,2.4-1
			c0.8,0,1.5,0.2,1.9,0.7c0.5,0.5,0.7,1.2,0.7,2.1c0,0.4,0,0.6-0.1,0.8c0,0.1-0.1,0.2-0.2,0.2h-4.7c0,1,0.2,1.7,0.6,2.2
			c0.4,0.5,1.1,0.7,1.9,0.7c0.7,0,1.3-0.1,1.9-0.4c0.1,0,0.2-0.1,0.3-0.1c0,0,0.1,0,0.1,0c0,0,0,0.1,0,0.1v0.2
			c0,0.1-0.1,0.2-0.2,0.3C124.3,193.7,123.6,193.9,122.8,193.9L122.8,193.9z M124.5,189.7c0-0.1,0-0.3,0-0.5c0-0.7-0.2-1.2-0.5-1.5
			c-0.3-0.3-0.8-0.5-1.4-0.5c-1.5,0-2.2,0.8-2.3,2.5H124.5L124.5,189.7z M127.3,193.7c-0.1,0-0.2-0.1-0.2-0.2v-6.6
			c0-0.1,0.1-0.2,0.2-0.2h0.3c0.1,0,0.2,0.1,0.2,0.2l0.1,0.6c0.5-0.3,0.9-0.6,1.4-0.8c0.5-0.2,1-0.3,1.5-0.3c0.7,0,1.2,0.2,1.6,0.5
			c0.4,0.4,0.5,0.9,0.5,1.6v4.9c0,0.1-0.1,0.2-0.2,0.2h-0.4c-0.1,0-0.2-0.1-0.2-0.2v-4.6c0-0.6-0.1-1-0.4-1.3
			c-0.2-0.3-0.6-0.4-1.1-0.4c-0.9,0-1.8,0.3-2.7,0.9v5.4c0,0.1-0.1,0.2-0.2,0.2H127.3L127.3,193.7z M137.9,193.8
			c-1.1,0-1.9-0.3-2.5-0.9c-0.6-0.6-0.8-1.5-0.8-2.7c0-1.2,0.3-2.1,0.8-2.7c0.6-0.6,1.4-0.9,2.5-0.9c0.5,0,1,0.1,1.5,0.3
			c0.1,0,0.2,0.1,0.2,0.3v0.2c0,0.1-0.1,0.2-0.2,0.2c0,0-0.1,0-0.1,0c0,0-0.1,0-0.2,0c-0.4-0.1-0.7-0.1-1.1-0.1
			c-0.9,0-1.5,0.2-1.9,0.7c-0.4,0.4-0.6,1.2-0.6,2.2v0.2c0,1,0.2,1.7,0.6,2.1c0.4,0.5,1,0.7,1.9,0.7c0.4,0,0.8-0.1,1.2-0.2
			c0.1,0,0.2,0,0.2-0.1c0,0,0.1,0,0.1,0c0.1,0,0.2,0.1,0.2,0.2v0.2c0,0.1-0.1,0.2-0.2,0.3C139,193.7,138.4,193.8,137.9,193.8
			L137.9,193.8z M141.5,196.7c-0.2,0-0.4,0-0.6-0.1c-0.1,0-0.2-0.1-0.2-0.3v-0.2c0-0.1,0.1-0.2,0.2-0.2c0.1,0,0.1,0,0.2,0
			c0,0,0.1,0,0.2,0c0.1,0,0.2,0,0.3,0c0.3,0,0.6-0.1,0.7-0.2c0.2-0.2,0.4-0.4,0.5-0.8l0.5-1.2l-2.7-6.8c0-0.1-0.1-0.2-0.1-0.2
			c0-0.1,0.1-0.2,0.2-0.2h0.4c0.1,0,0.2,0.1,0.2,0.2l2.3,6l2.4-6c0-0.1,0.1-0.2,0.2-0.2h0.4c0.1,0,0.2,0.1,0.2,0.2
			c0,0,0,0.1-0.1,0.2l-3.3,8.2c-0.2,0.6-0.5,1-0.8,1.2C142.3,196.6,142,196.7,141.5,196.7L141.5,196.7z"/>
		<line class="st21" x1="18.4" y1="201.4" x2="165.6" y2="201.4"/>
		<path class="st19" d="M19.8,217.7c-0.1,0-0.2-0.1-0.2-0.2v-9.2c0-0.1,0.1-0.2,0.2-0.2H23c0.9,0,1.6,0.3,2.1,0.8
			c0.5,0.5,0.8,1.2,0.8,2.1c0,0.9-0.3,1.6-0.8,2.1c-0.5,0.5-1.2,0.8-2.1,0.8h-2.5v3.7c0,0.1-0.1,0.2-0.2,0.2H19.8L19.8,217.7z
			 M22.9,213c1.4,0,2.1-0.7,2.1-2.1c0-1.4-0.7-2.1-2.1-2.1h-2.5v4.3H22.9L22.9,213z M29.6,217.9c-0.7,0-1.2-0.2-1.5-0.5
			c-0.4-0.4-0.5-0.9-0.5-1.6v-4.9c0-0.1,0.1-0.2,0.2-0.2h0.4c0.1,0,0.2,0.1,0.2,0.2v4.5c0,0.6,0.1,1.1,0.3,1.3
			c0.2,0.3,0.6,0.4,1.1,0.4c0.5,0,0.9-0.1,1.3-0.2c0.4-0.1,0.8-0.4,1.3-0.7v-5.4c0-0.1,0.1-0.2,0.2-0.2H33c0.1,0,0.2,0.1,0.2,0.2
			v6.6c0,0.1-0.1,0.2-0.2,0.2h-0.3c-0.1,0-0.2-0.1-0.2-0.2l-0.1-0.6C31.5,217.6,30.6,217.9,29.6,217.9L29.6,217.9z M38.4,217.1
			c0.8,0,1.3-0.2,1.7-0.7c0.4-0.5,0.6-1.2,0.6-2.2c0-2-0.7-3-2.2-3c-0.4,0-0.8,0.1-1.2,0.2c-0.4,0.1-0.8,0.4-1.2,0.7v4.1
			c0.4,0.3,0.8,0.6,1.1,0.7C37.6,217.1,38,217.1,38.4,217.1L38.4,217.1z M38.5,217.9c-0.9,0-1.6-0.3-2.4-1l-0.1,0.6
			c0,0.1-0.1,0.2-0.2,0.2h-0.3c-0.1,0-0.2-0.1-0.2-0.2v-9.9c0-0.1,0.1-0.2,0.2-0.2h0.4c0.1,0,0.2,0.1,0.2,0.2v3.8
			c0.4-0.3,0.8-0.6,1.2-0.7c0.4-0.2,0.8-0.2,1.3-0.2c0.9,0,1.6,0.3,2.1,1c0.5,0.6,0.8,1.5,0.8,2.7c0,1.2-0.3,2.1-0.8,2.7
			C40.2,217.5,39.4,217.9,38.5,217.9L38.5,217.9z M44.5,217.7c-0.4,0-0.7-0.1-0.9-0.3c-0.2-0.2-0.3-0.5-0.3-0.9v-8.9
			c0-0.1,0.1-0.2,0.2-0.2h0.4c0.1,0,0.2,0.1,0.2,0.2v8.9c0,0.2,0,0.3,0.1,0.4c0.1,0.1,0.2,0.1,0.4,0.1c0.1,0,0.1,0,0.2,0
			c0.1,0,0.1,0,0.2,0c0.1,0,0.2,0.1,0.2,0.2v0.3c0,0.1-0.1,0.2-0.2,0.2C44.9,217.7,44.7,217.7,44.5,217.7L44.5,217.7z M47.1,217.7
			c-0.1,0-0.2-0.1-0.2-0.2v-6.6c0-0.1,0.1-0.2,0.2-0.2h0.4c0.1,0,0.2,0.1,0.2,0.2v6.6c0,0.1-0.1,0.2-0.2,0.2H47.1L47.1,217.7z
			 M47.3,209.2c-0.2,0-0.3-0.1-0.4-0.2c-0.1-0.1-0.2-0.3-0.2-0.4c0-0.2,0.1-0.3,0.2-0.4c0.1-0.1,0.3-0.2,0.4-0.2
			c0.2,0,0.3,0.1,0.4,0.2c0.1,0.1,0.2,0.3,0.2,0.4c0,0.2-0.1,0.3-0.2,0.4C47.6,209.1,47.5,209.2,47.3,209.2L47.3,209.2z M52.8,217.9
			c-1.1,0-1.9-0.3-2.5-0.9c-0.6-0.6-0.8-1.5-0.8-2.7c0-1.2,0.3-2.1,0.8-2.7c0.6-0.6,1.4-0.9,2.5-0.9c0.5,0,1,0.1,1.5,0.3
			c0.1,0,0.2,0.1,0.2,0.3v0.2c0,0.1-0.1,0.2-0.2,0.2c0,0-0.1,0-0.1,0c0,0-0.1,0-0.2,0c-0.4-0.1-0.7-0.1-1.1-0.1
			c-0.9,0-1.5,0.2-1.9,0.7c-0.4,0.4-0.6,1.2-0.6,2.2v0.2c0,1,0.2,1.7,0.6,2.1c0.4,0.5,1,0.7,1.9,0.7c0.4,0,0.8-0.1,1.2-0.2
			c0.1,0,0.2,0,0.2-0.1c0,0,0.1,0,0.1,0c0.1,0,0.2,0.1,0.2,0.2v0.2c0,0.1-0.1,0.2-0.2,0.3C53.9,217.7,53.4,217.9,52.8,217.9
			L52.8,217.9z M62.4,217.9c-0.9,0-1.8-0.2-2.6-0.5c-0.1,0-0.2-0.1-0.2-0.3v-0.3c0-0.1,0.1-0.2,0.2-0.2c0.1,0,0.2,0,0.4,0.1
			c0.7,0.3,1.4,0.4,2.2,0.4c0.8,0,1.4-0.2,1.8-0.5c0.5-0.4,0.7-0.9,0.7-1.5c0-0.4-0.1-0.7-0.4-1c-0.3-0.3-0.7-0.5-1.2-0.7l-1.6-0.6
			c-0.7-0.3-1.2-0.6-1.6-1c-0.3-0.4-0.5-0.9-0.5-1.4c0-0.8,0.3-1.4,0.8-1.9c0.6-0.5,1.3-0.7,2.2-0.7c0.8,0,1.6,0.2,2.4,0.5
			c0.1,0,0.2,0.1,0.2,0.3v0.3c0,0.1-0.1,0.2-0.2,0.2c-0.1,0-0.3-0.1-0.6-0.2c-0.3-0.1-0.6-0.1-0.9-0.2c-0.3,0-0.6-0.1-0.9-0.1
			c-0.7,0-1.3,0.2-1.6,0.5c-0.4,0.3-0.6,0.8-0.6,1.3c0,0.3,0,0.5,0.1,0.8c0.1,0.2,0.3,0.4,0.5,0.6c0.3,0.2,0.7,0.4,1.2,0.6l1.5,0.6
			c0.7,0.3,1.2,0.6,1.5,1c0.3,0.4,0.5,0.8,0.5,1.4c0,0.8-0.3,1.5-0.9,2C64.2,217.7,63.4,217.9,62.4,217.9L62.4,217.9z M70.6,217.9
			c-1.1,0-1.9-0.3-2.5-0.9c-0.6-0.6-0.8-1.6-0.8-2.8c0-1.2,0.3-2.1,0.8-2.7c0.6-0.6,1.4-1,2.4-1c0.8,0,1.5,0.2,1.9,0.7
			c0.5,0.5,0.7,1.2,0.7,2.1c0,0.4,0,0.6-0.1,0.8c0,0.1-0.1,0.2-0.2,0.2H68c0,1,0.2,1.7,0.6,2.2c0.4,0.5,1.1,0.7,1.9,0.7
			c0.7,0,1.3-0.1,1.9-0.4c0.1,0,0.2-0.1,0.3-0.1c0,0,0.1,0,0.1,0c0,0,0,0.1,0,0.1v0.2c0,0.1-0.1,0.2-0.2,0.3
			C72.1,217.8,71.4,217.9,70.6,217.9L70.6,217.9z M72.3,213.7c0-0.1,0-0.3,0-0.5c0-0.7-0.2-1.2-0.5-1.5c-0.3-0.3-0.8-0.5-1.4-0.5
			c-1.5,0-2.2,0.8-2.3,2.5H72.3L72.3,213.7z M77.8,217.9c-1.1,0-1.9-0.3-2.5-0.9c-0.6-0.6-0.8-1.5-0.8-2.7c0-1.2,0.3-2.1,0.8-2.7
			c0.6-0.6,1.4-0.9,2.5-0.9c0.5,0,1,0.1,1.5,0.3c0.1,0,0.2,0.1,0.2,0.3v0.2c0,0.1-0.1,0.2-0.2,0.2c0,0-0.1,0-0.1,0c0,0-0.1,0-0.2,0
			c-0.4-0.1-0.7-0.1-1.1-0.1c-0.9,0-1.5,0.2-1.9,0.7c-0.4,0.4-0.6,1.2-0.6,2.2v0.2c0,1,0.2,1.7,0.6,2.1c0.4,0.5,1,0.7,1.9,0.7
			c0.4,0,0.8-0.1,1.2-0.2c0.1,0,0.2,0,0.2-0.1c0,0,0.1,0,0.1,0c0.1,0,0.2,0.1,0.2,0.2v0.2c0,0.1-0.1,0.2-0.2,0.3
			C78.8,217.7,78.3,217.9,77.8,217.9L77.8,217.9z M83.3,217.8c-0.5,0-1-0.1-1.3-0.4c-0.3-0.3-0.4-0.7-0.4-1.3v-4.7h-1.1
			c-0.1,0-0.2-0.1-0.2-0.2V211c0-0.1,0-0.1,0-0.2c0,0,0.1-0.1,0.2-0.1l1.1-0.1l0.1-1.8c0-0.1,0-0.1,0.1-0.2c0,0,0.1,0,0.1,0h0.3
			c0.1,0,0.2,0.1,0.2,0.2v1.8h2c0.1,0,0.2,0.1,0.2,0.2v0.3c0,0.1-0.1,0.2-0.2,0.2h-2v4.6c0,0.4,0.1,0.6,0.2,0.8
			c0.2,0.2,0.4,0.2,0.8,0.2c0.3,0,0.5,0,0.7-0.1c0.1,0,0.2,0,0.2,0c0.1,0,0.1,0,0.1,0c0.1,0,0.2,0.1,0.2,0.2v0.2
			c0,0.2-0.1,0.3-0.2,0.3C84.2,217.7,83.7,217.8,83.3,217.8L83.3,217.8z M89,217.9c-1,0-1.8-0.3-2.4-1c-0.6-0.7-0.8-1.6-0.8-2.7
			c0-1.2,0.3-2.1,0.8-2.7c0.6-0.6,1.4-1,2.4-1c1,0,1.8,0.3,2.4,1c0.6,0.6,0.9,1.6,0.9,2.7c0,1.2-0.3,2.1-0.9,2.7
			C90.9,217.6,90.1,217.9,89,217.9L89,217.9z M89,217.2c1.6,0,2.4-1,2.4-3c0-2-0.8-3-2.4-3c-1.6,0-2.4,1-2.4,3
			C86.6,216.2,87.4,217.2,89,217.2L89,217.2z M94.3,217.7c-0.1,0-0.2-0.1-0.2-0.2v-6.6c0-0.1,0.1-0.2,0.2-0.2h0.3
			c0.1,0,0.2,0.1,0.2,0.2l0.1,0.8c0.4-0.4,0.7-0.7,1-0.8c0.3-0.2,0.7-0.2,1.1-0.2c0.1,0,0.3,0,0.4,0c0.1,0,0.2,0.1,0.2,0.2v0.4
			c0,0,0,0.1,0,0.1c0,0-0.1,0-0.1,0c-0.1,0-0.1,0-0.2,0c-0.1,0-0.2,0-0.3,0c-0.4,0-0.8,0.1-1.1,0.2c-0.3,0.2-0.6,0.4-1,0.8v5.1
			c0,0.1-0.1,0.2-0.2,0.2H94.3L94.3,217.7z M102.9,217.7c-0.1,0-0.2-0.1-0.2-0.2v-9.2c0-0.1,0.1-0.2,0.2-0.2h3.1
			c0.9,0,1.6,0.3,2.1,0.8c0.5,0.5,0.8,1.2,0.8,2.1c0,0.9-0.3,1.6-0.8,2.1c-0.5,0.5-1.2,0.8-2.1,0.8h-2.5v3.7c0,0.1-0.1,0.2-0.2,0.2
			H102.9L102.9,217.7z M106,213c1.4,0,2.1-0.7,2.1-2.1c0-1.4-0.7-2.1-2.1-2.1h-2.5v4.3H106L106,213z M112.3,217.9
			c-0.6,0-1.2-0.2-1.5-0.6c-0.4-0.4-0.6-0.9-0.6-1.5c0-0.7,0.2-1.2,0.7-1.6c0.5-0.4,1.1-0.6,1.9-0.6c0.6,0,1.3,0.1,2,0.3v-1.2
			c0-0.6-0.1-1-0.4-1.2c-0.3-0.2-0.7-0.4-1.3-0.4c-0.6,0-1.3,0.1-2,0.4c-0.1,0-0.2,0-0.2,0c-0.1,0-0.1-0.1-0.1-0.2v-0.2
			c0-0.1,0-0.1,0-0.2c0,0,0.1-0.1,0.1-0.1c0.7-0.3,1.5-0.4,2.3-0.4c0.8,0,1.4,0.2,1.8,0.5c0.4,0.3,0.6,0.9,0.6,1.6v4.9
			c0,0.1-0.1,0.2-0.2,0.2h-0.3c-0.1,0-0.2-0.1-0.2-0.2l-0.1-0.6C114,217.5,113.2,217.9,112.3,217.9L112.3,217.9z M112.4,217.1
			c0.4,0,0.7-0.1,1.1-0.2s0.8-0.3,1.2-0.6v-1.7c-0.6-0.2-1.2-0.3-1.8-0.3c-1.3,0-1.9,0.5-1.9,1.5c0,0.4,0.1,0.8,0.3,1
			C111.6,217,112,217.1,112.4,217.1L112.4,217.1z M118,217.7c-0.1,0-0.2-0.1-0.2-0.2v-6.6c0-0.1,0.1-0.2,0.2-0.2h0.3
			c0.1,0,0.2,0.1,0.2,0.2l0.1,0.8c0.4-0.4,0.7-0.7,1-0.8c0.3-0.2,0.7-0.2,1.1-0.2c0.1,0,0.3,0,0.4,0c0.1,0,0.2,0.1,0.2,0.2v0.4
			c0,0,0,0.1,0,0.1c0,0-0.1,0-0.1,0c-0.1,0-0.1,0-0.2,0c-0.1,0-0.2,0-0.3,0c-0.4,0-0.8,0.1-1.1,0.2c-0.3,0.2-0.6,0.4-1,0.8v5.1
			c0,0.1-0.1,0.2-0.2,0.2H118L118,217.7z M124.7,217.8c-0.5,0-1-0.1-1.3-0.4c-0.3-0.3-0.4-0.7-0.4-1.3v-4.7h-1.1
			c-0.1,0-0.2-0.1-0.2-0.2V211c0-0.1,0-0.1,0-0.2c0,0,0.1-0.1,0.2-0.1l1.1-0.1l0.1-1.8c0-0.1,0-0.1,0.1-0.2c0,0,0.1,0,0.1,0h0.3
			c0.1,0,0.2,0.1,0.2,0.2v1.8h2c0.1,0,0.2,0.1,0.2,0.2v0.3c0,0.1-0.1,0.2-0.2,0.2h-2v4.6c0,0.4,0.1,0.6,0.2,0.8
			c0.2,0.2,0.4,0.2,0.8,0.2c0.3,0,0.5,0,0.7-0.1c0.1,0,0.2,0,0.2,0c0.1,0,0.1,0,0.1,0c0.1,0,0.2,0.1,0.2,0.2v0.2
			c0,0.2-0.1,0.3-0.2,0.3C125.6,217.7,125.2,217.8,124.7,217.8L124.7,217.8z M127.8,217.7c-0.1,0-0.2-0.1-0.2-0.2v-6.6
			c0-0.1,0.1-0.2,0.2-0.2h0.3c0.1,0,0.2,0.1,0.2,0.2l0.1,0.6c0.5-0.3,0.9-0.6,1.4-0.8c0.5-0.2,1-0.3,1.5-0.3c0.7,0,1.2,0.2,1.6,0.5
			c0.4,0.4,0.5,0.9,0.5,1.6v4.9c0,0.1-0.1,0.2-0.2,0.2h-0.4c-0.1,0-0.2-0.1-0.2-0.2v-4.6c0-0.6-0.1-1-0.4-1.3
			c-0.2-0.3-0.6-0.4-1.1-0.4c-0.9,0-1.8,0.3-2.7,0.9v5.4c0,0.1-0.1,0.2-0.2,0.2H127.8L127.8,217.7z M138.5,217.9
			c-1.1,0-1.9-0.3-2.5-0.9c-0.6-0.6-0.8-1.6-0.8-2.8c0-1.2,0.3-2.1,0.8-2.7c0.6-0.6,1.4-1,2.4-1c0.8,0,1.5,0.2,1.9,0.7
			c0.5,0.5,0.7,1.2,0.7,2.1c0,0.4,0,0.6-0.1,0.8c0,0.1-0.1,0.2-0.2,0.2H136c0,1,0.2,1.7,0.6,2.2c0.4,0.5,1.1,0.7,1.9,0.7
			c0.7,0,1.3-0.1,1.9-0.4c0.1,0,0.2-0.1,0.3-0.1c0,0,0.1,0,0.1,0c0,0,0,0.1,0,0.1v0.2c0,0.1-0.1,0.2-0.2,0.3
			C140,217.8,139.3,217.9,138.5,217.9L138.5,217.9z M140.2,213.7c0-0.1,0-0.3,0-0.5c0-0.7-0.2-1.2-0.5-1.5c-0.3-0.3-0.8-0.5-1.4-0.5
			c-1.5,0-2.2,0.8-2.3,2.5H140.2L140.2,213.7z M142.9,217.7c-0.1,0-0.2-0.1-0.2-0.2v-6.6c0-0.1,0.1-0.2,0.2-0.2h0.3
			c0.1,0,0.2,0.1,0.2,0.2l0.1,0.8c0.4-0.4,0.7-0.7,1-0.8c0.3-0.2,0.7-0.2,1.2-0.2c0.1,0,0.3,0,0.4,0c0.1,0,0.2,0.1,0.2,0.2v0.4
			c0,0,0,0.1,0,0.1s-0.1,0-0.1,0c-0.1,0-0.1,0-0.2,0c-0.1,0-0.2,0-0.3,0c-0.4,0-0.8,0.1-1.1,0.2c-0.3,0.2-0.6,0.4-1,0.8v5.1
			c0,0.1-0.1,0.2-0.2,0.2H142.9L142.9,217.7z"/>
		<line class="st21" x1="18.4" y1="225.4" x2="165.6" y2="225.4"/>
		<path class="st19" d="M19.8,241.7c-0.1,0-0.2-0.1-0.2-0.2v-9.2c0-0.1,0.1-0.2,0.2-0.2h0.6c0.1,0,0.2,0.1,0.3,0.2l3.4,6l3.4-6
			c0-0.1,0.1-0.1,0.1-0.1c0,0,0.1,0,0.2,0h0.6c0.1,0,0.2,0.1,0.2,0.2v9.2c0,0.1-0.1,0.2-0.2,0.2H28c-0.1,0-0.2-0.1-0.2-0.2v-8.2
			l-3.2,5.7c0,0.1-0.1,0.1-0.1,0.1c0,0-0.1,0-0.2,0h-0.4c-0.1,0-0.2-0.1-0.3-0.2l-3.2-5.6v8.2c0,0.1-0.1,0.2-0.2,0.2H19.8
			L19.8,241.7z M33.5,242c-0.9,0-1.8-0.2-2.6-0.5c-0.1,0-0.2-0.1-0.2-0.3v-0.3c0-0.1,0.1-0.2,0.2-0.2c0.1,0,0.2,0,0.4,0.1
			c0.7,0.3,1.4,0.4,2.2,0.4c0.8,0,1.4-0.2,1.8-0.5c0.5-0.4,0.7-0.9,0.7-1.5c0-0.4-0.1-0.7-0.4-1c-0.3-0.3-0.7-0.5-1.2-0.7l-1.6-0.6
			c-0.7-0.3-1.2-0.6-1.6-1c-0.3-0.4-0.5-0.9-0.5-1.4c0-0.8,0.3-1.4,0.8-1.9c0.6-0.5,1.3-0.7,2.2-0.7c0.8,0,1.6,0.2,2.4,0.5
			c0.1,0,0.2,0.1,0.2,0.3v0.3c0,0.1-0.1,0.2-0.2,0.2c-0.1,0-0.3-0.1-0.6-0.2c-0.3-0.1-0.6-0.1-0.9-0.2c-0.3,0-0.6-0.1-0.9-0.1
			c-0.7,0-1.3,0.2-1.6,0.5c-0.4,0.3-0.6,0.8-0.6,1.3c0,0.3,0,0.5,0.1,0.8c0.1,0.2,0.3,0.4,0.5,0.6c0.3,0.2,0.7,0.4,1.2,0.6l1.5,0.6
			c0.7,0.3,1.2,0.6,1.5,1c0.3,0.4,0.5,0.8,0.5,1.4c0,0.8-0.3,1.5-0.9,2C35.3,241.7,34.5,242,33.5,242L33.5,242z M39,241.7
			c-0.1,0-0.2-0.1-0.2-0.2v-9.2c0-0.1,0.1-0.2,0.2-0.2h3.1c0.9,0,1.6,0.3,2.1,0.8c0.5,0.5,0.8,1.2,0.8,2.1c0,0.9-0.3,1.6-0.8,2.1
			c-0.5,0.5-1.2,0.8-2.1,0.8h-2.5v3.7c0,0.1-0.1,0.2-0.2,0.2H39L39,241.7z M42.1,237c1.4,0,2.1-0.7,2.1-2.1c0-1.4-0.7-2.1-2.1-2.1
			h-2.5v4.3H42.1L42.1,237z M50.8,241.7c-0.1,0-0.2-0.1-0.2-0.2v-9.2c0-0.1,0.1-0.2,0.2-0.2h3.1c0.9,0,1.6,0.3,2.1,0.8
			c0.5,0.5,0.8,1.2,0.8,2.1c0,0.9-0.3,1.6-0.8,2.1c-0.5,0.5-1.2,0.8-2.1,0.8h-2.5v3.7c0,0.1-0.1,0.2-0.2,0.2H50.8L50.8,241.7z
			 M53.9,237c1.4,0,2.1-0.7,2.1-2.1c0-1.4-0.7-2.1-2.1-2.1h-2.5v4.3H53.9L53.9,237z M60.2,241.9c-0.6,0-1.2-0.2-1.5-0.6
			c-0.4-0.4-0.6-0.9-0.6-1.5c0-0.7,0.2-1.2,0.7-1.6c0.5-0.4,1.1-0.6,1.9-0.6c0.6,0,1.3,0.1,2,0.3v-1.2c0-0.6-0.1-1-0.4-1.2
			c-0.3-0.2-0.7-0.4-1.3-0.4c-0.6,0-1.3,0.1-2,0.4c-0.1,0-0.2,0-0.2,0c-0.1,0-0.1-0.1-0.1-0.2v-0.2c0-0.1,0-0.1,0-0.2
			c0,0,0.1-0.1,0.1-0.1c0.7-0.3,1.5-0.4,2.3-0.4c0.8,0,1.4,0.2,1.8,0.5c0.4,0.3,0.6,0.9,0.6,1.6v4.9c0,0.1-0.1,0.2-0.2,0.2H63
			c-0.1,0-0.2-0.1-0.2-0.2l-0.1-0.6C61.9,241.5,61.1,241.9,60.2,241.9L60.2,241.9z M60.3,241.1c0.4,0,0.7-0.1,1.1-0.2
			s0.8-0.3,1.2-0.6v-1.7c-0.6-0.2-1.2-0.3-1.8-0.3c-1.3,0-1.9,0.5-1.9,1.5c0,0.4,0.1,0.8,0.3,1C59.5,241,59.9,241.1,60.3,241.1
			L60.3,241.1z M65.9,241.7c-0.1,0-0.2-0.1-0.2-0.2v-6.6c0-0.1,0.1-0.2,0.2-0.2h0.3c0.1,0,0.2,0.1,0.2,0.2l0.1,0.8
			c0.4-0.4,0.7-0.7,1-0.8c0.3-0.2,0.7-0.2,1.1-0.2c0.1,0,0.3,0,0.4,0c0.1,0,0.2,0.1,0.2,0.2v0.4c0,0,0,0.1,0,0.1c0,0-0.1,0-0.1,0
			c-0.1,0-0.1,0-0.2,0c-0.1,0-0.2,0-0.3,0c-0.4,0-0.8,0.1-1.1,0.2c-0.3,0.2-0.6,0.4-1,0.8v5.1c0,0.1-0.1,0.2-0.2,0.2H65.9
			L65.9,241.7z M72.6,241.8c-0.5,0-1-0.1-1.3-0.4c-0.3-0.3-0.4-0.7-0.4-1.3v-4.7h-1.1c-0.1,0-0.2-0.1-0.2-0.2v-0.1
			c0-0.1,0-0.1,0-0.2c0,0,0.1-0.1,0.2-0.1l1.1-0.1l0.1-1.8c0-0.1,0-0.1,0.1-0.2c0,0,0.1,0,0.1,0h0.3c0.1,0,0.2,0.1,0.2,0.2v1.8h2
			c0.1,0,0.2,0.1,0.2,0.2v0.3c0,0.1-0.1,0.2-0.2,0.2h-2v4.6c0,0.4,0.1,0.6,0.2,0.8c0.2,0.2,0.4,0.2,0.8,0.2c0.3,0,0.5,0,0.7-0.1
			c0.1,0,0.2,0,0.2,0c0.1,0,0.1,0,0.1,0c0.1,0,0.2,0.1,0.2,0.2v0.2c0,0.2-0.1,0.3-0.2,0.3C73.5,241.7,73.1,241.8,72.6,241.8
			L72.6,241.8z M75.7,241.7c-0.1,0-0.2-0.1-0.2-0.2v-6.6c0-0.1,0.1-0.2,0.2-0.2H76c0.1,0,0.2,0.1,0.2,0.2l0.1,0.6
			c0.5-0.3,0.9-0.6,1.4-0.8c0.5-0.2,1-0.3,1.5-0.3c0.7,0,1.2,0.2,1.6,0.5c0.4,0.4,0.5,0.9,0.5,1.6v4.9c0,0.1-0.1,0.2-0.2,0.2h-0.4
			c-0.1,0-0.2-0.1-0.2-0.2v-4.6c0-0.6-0.1-1-0.4-1.3c-0.2-0.3-0.6-0.4-1.1-0.4c-0.9,0-1.8,0.3-2.7,0.9v5.4c0,0.1-0.1,0.2-0.2,0.2
			H75.7L75.7,241.7z M86.4,241.9c-1.1,0-1.9-0.3-2.5-0.9c-0.6-0.6-0.8-1.6-0.8-2.8c0-1.2,0.3-2.1,0.8-2.7c0.6-0.6,1.4-1,2.4-1
			c0.8,0,1.5,0.2,1.9,0.7c0.5,0.5,0.7,1.2,0.7,2.1c0,0.4,0,0.6-0.1,0.8c0,0.1-0.1,0.2-0.2,0.2h-4.7c0,1,0.2,1.7,0.6,2.2
			c0.4,0.5,1.1,0.7,1.9,0.7c0.7,0,1.3-0.1,1.9-0.4c0.1,0,0.2-0.1,0.3-0.1c0,0,0.1,0,0.1,0c0,0,0,0.1,0,0.1v0.2
			c0,0.1-0.1,0.2-0.2,0.3C87.9,241.8,87.2,241.9,86.4,241.9L86.4,241.9z M88.1,237.7c0-0.1,0-0.3,0-0.5c0-0.7-0.2-1.2-0.5-1.5
			c-0.3-0.3-0.8-0.5-1.4-0.5c-1.5,0-2.2,0.8-2.3,2.5H88.1L88.1,237.7z M90.9,241.7c-0.1,0-0.2-0.1-0.2-0.2v-6.6
			c0-0.1,0.1-0.2,0.2-0.2h0.3c0.1,0,0.2,0.1,0.2,0.2l0.1,0.8c0.4-0.4,0.7-0.7,1-0.8c0.3-0.2,0.7-0.2,1.1-0.2c0.1,0,0.3,0,0.4,0
			c0.1,0,0.2,0.1,0.2,0.2v0.4c0,0,0,0.1,0,0.1c0,0-0.1,0-0.1,0c-0.1,0-0.1,0-0.2,0c-0.1,0-0.2,0-0.3,0c-0.4,0-0.8,0.1-1.1,0.2
			c-0.3,0.2-0.6,0.4-1,0.8v5.1c0,0.1-0.1,0.2-0.2,0.2H90.9L90.9,241.7z"/>
		<line class="st21" x1="18.4" y1="249.5" x2="165.6" y2="249.5"/>
		<path class="st19" d="M22.1,266c-0.9,0-1.8-0.2-2.6-0.5c-0.1,0-0.2-0.1-0.2-0.3v-0.3c0-0.1,0.1-0.2,0.2-0.2c0.1,0,0.2,0,0.4,0.1
			c0.7,0.3,1.4,0.4,2.2,0.4c0.8,0,1.4-0.2,1.8-0.5c0.5-0.4,0.7-0.9,0.7-1.5c0-0.4-0.1-0.7-0.4-1c-0.3-0.3-0.7-0.5-1.2-0.7l-1.6-0.6
			c-0.7-0.3-1.2-0.6-1.6-1c-0.3-0.4-0.5-0.9-0.5-1.4c0-0.8,0.3-1.4,0.8-1.9c0.6-0.5,1.3-0.7,2.2-0.7c0.8,0,1.6,0.2,2.4,0.5
			c0.1,0,0.2,0.1,0.2,0.3v0.3c0,0.1-0.1,0.2-0.2,0.2c-0.1,0-0.3-0.1-0.6-0.2c-0.3-0.1-0.6-0.1-0.9-0.2c-0.3,0-0.6-0.1-0.9-0.1
			c-0.7,0-1.3,0.2-1.6,0.5c-0.4,0.3-0.6,0.8-0.6,1.3c0,0.3,0,0.5,0.1,0.8c0.1,0.2,0.3,0.4,0.5,0.6c0.3,0.2,0.7,0.4,1.2,0.6l1.5,0.6
			c0.7,0.3,1.2,0.6,1.5,1c0.3,0.4,0.5,0.8,0.5,1.4c0,0.8-0.3,1.5-0.9,2C23.9,265.7,23.1,266,22.1,266L22.1,266z M30.1,265.9
			c-1,0-1.8-0.3-2.4-1c-0.6-0.7-0.8-1.6-0.8-2.7c0-1.2,0.3-2.1,0.8-2.7c0.6-0.6,1.4-1,2.4-1c1,0,1.8,0.3,2.4,1
			c0.6,0.6,0.9,1.6,0.9,2.7c0,1.2-0.3,2.1-0.9,2.7C31.9,265.6,31.1,265.9,30.1,265.9L30.1,265.9z M30.1,265.2c1.6,0,2.4-1,2.4-3
			c0-2-0.8-3-2.4-3c-1.6,0-2.4,1-2.4,3C27.7,264.2,28.5,265.2,30.1,265.2L30.1,265.2z M36.4,265.8c-0.4,0-0.7-0.1-0.9-0.3
			c-0.2-0.2-0.3-0.5-0.3-0.9v-8.9c0-0.1,0.1-0.2,0.2-0.2h0.4c0.1,0,0.2,0.1,0.2,0.2v8.9c0,0.2,0,0.3,0.1,0.4
			c0.1,0.1,0.2,0.1,0.4,0.1c0.1,0,0.1,0,0.2,0c0.1,0,0.1,0,0.2,0c0.1,0,0.2,0.1,0.2,0.2v0.3c0,0.1-0.1,0.2-0.2,0.2
			C36.7,265.8,36.6,265.8,36.4,265.8L36.4,265.8z M40.7,265.9c-0.7,0-1.2-0.2-1.5-0.5c-0.4-0.4-0.5-0.9-0.5-1.6v-4.9
			c0-0.1,0.1-0.2,0.2-0.2h0.4c0.1,0,0.2,0.1,0.2,0.2v4.5c0,0.6,0.1,1.1,0.3,1.3c0.2,0.3,0.6,0.4,1.1,0.4c0.5,0,0.9-0.1,1.3-0.2
			c0.4-0.1,0.8-0.4,1.3-0.7v-5.4c0-0.1,0.1-0.2,0.2-0.2H44c0.1,0,0.2,0.1,0.2,0.2v6.6c0,0.1-0.1,0.2-0.2,0.2h-0.3
			c-0.1,0-0.2-0.1-0.2-0.2l-0.1-0.6C42.5,265.6,41.6,265.9,40.7,265.9L40.7,265.9z M48.5,265.8c-0.5,0-1-0.1-1.3-0.4
			c-0.3-0.3-0.4-0.7-0.4-1.3v-4.7h-1.1c-0.1,0-0.2-0.1-0.2-0.2v-0.1c0-0.1,0-0.1,0-0.2c0,0,0.1-0.1,0.2-0.1l1.1-0.1l0.1-1.8
			c0-0.1,0-0.1,0.1-0.2c0,0,0.1,0,0.1,0h0.3c0.1,0,0.2,0.1,0.2,0.2v1.8h2c0.1,0,0.2,0.1,0.2,0.2v0.3c0,0.1-0.1,0.2-0.2,0.2h-2v4.6
			c0,0.4,0.1,0.6,0.2,0.8c0.2,0.2,0.4,0.2,0.8,0.2c0.3,0,0.5,0,0.7-0.1c0.1,0,0.2,0,0.2,0c0.1,0,0.1,0,0.1,0c0.1,0,0.2,0.1,0.2,0.2
			v0.2c0,0.2-0.1,0.3-0.2,0.3C49.4,265.8,49,265.8,48.5,265.8L48.5,265.8z M51.7,265.7c-0.1,0-0.2-0.1-0.2-0.2v-6.6
			c0-0.1,0.1-0.2,0.2-0.2h0.4c0.1,0,0.2,0.1,0.2,0.2v6.6c0,0.1-0.1,0.2-0.2,0.2H51.7L51.7,265.7z M51.9,257.2
			c-0.2,0-0.3-0.1-0.4-0.2c-0.1-0.1-0.2-0.3-0.2-0.4c0-0.2,0.1-0.3,0.2-0.4c0.1-0.1,0.3-0.2,0.4-0.2c0.2,0,0.3,0.1,0.4,0.2
			c0.1,0.1,0.2,0.3,0.2,0.4c0,0.2-0.1,0.3-0.2,0.4C52.2,257.2,52.1,257.2,51.9,257.2L51.9,257.2z M57.4,265.9c-1,0-1.8-0.3-2.4-1
			c-0.6-0.7-0.8-1.6-0.8-2.7c0-1.2,0.3-2.1,0.8-2.7c0.6-0.6,1.4-1,2.4-1c1,0,1.8,0.3,2.4,1c0.6,0.6,0.9,1.6,0.9,2.7
			c0,1.2-0.3,2.1-0.9,2.7C59.2,265.6,58.4,265.9,57.4,265.9L57.4,265.9z M57.4,265.2c1.6,0,2.4-1,2.4-3c0-2-0.8-3-2.4-3
			c-1.6,0-2.4,1-2.4,3C55,264.2,55.8,265.2,57.4,265.2L57.4,265.2z M62.6,265.7c-0.1,0-0.2-0.1-0.2-0.2v-6.6c0-0.1,0.1-0.2,0.2-0.2
			h0.3c0.1,0,0.2,0.1,0.2,0.2l0.1,0.6c0.5-0.3,0.9-0.6,1.4-0.8c0.5-0.2,1-0.3,1.5-0.3c0.7,0,1.2,0.2,1.6,0.5
			c0.4,0.4,0.5,0.9,0.5,1.6v4.9c0,0.1-0.1,0.2-0.2,0.2h-0.4c-0.1,0-0.2-0.1-0.2-0.2V261c0-0.6-0.1-1-0.4-1.3
			c-0.2-0.3-0.6-0.4-1.1-0.4c-0.9,0-1.8,0.3-2.7,0.9v5.4c0,0.1-0.1,0.2-0.2,0.2H62.6L62.6,265.7z M74.3,265.7
			c-0.1,0-0.2-0.1-0.2-0.2v-9.2c0-0.1,0.1-0.2,0.2-0.2h3.1c0.9,0,1.6,0.3,2.1,0.8c0.5,0.5,0.8,1.2,0.8,2.1c0,0.9-0.3,1.6-0.8,2.1
			c-0.5,0.5-1.2,0.8-2.1,0.8h-2.5v3.7c0,0.1-0.1,0.2-0.2,0.2H74.3L74.3,265.7z M77.4,261.1c1.4,0,2.1-0.7,2.1-2.1
			c0-1.4-0.7-2.1-2.1-2.1h-2.5v4.3H77.4L77.4,261.1z M82.3,265.7c-0.1,0-0.2-0.1-0.2-0.2v-6.6c0-0.1,0.1-0.2,0.2-0.2h0.3
			c0.1,0,0.2,0.1,0.2,0.2l0.1,0.8c0.4-0.4,0.7-0.7,1-0.8c0.3-0.2,0.7-0.2,1.1-0.2c0.1,0,0.3,0,0.4,0c0.1,0,0.2,0.1,0.2,0.2v0.4
			c0,0,0,0.1,0,0.1c0,0-0.1,0-0.1,0c-0.1,0-0.1,0-0.2,0c-0.1,0-0.2,0-0.3,0c-0.4,0-0.8,0.1-1.1,0.2c-0.3,0.2-0.6,0.4-1,0.8v5.1
			c0,0.1-0.1,0.2-0.2,0.2H82.3L82.3,265.7z M89.8,265.9c-1,0-1.8-0.3-2.4-1c-0.6-0.7-0.8-1.6-0.8-2.7c0-1.2,0.3-2.1,0.8-2.7
			c0.6-0.6,1.4-1,2.4-1c1,0,1.8,0.3,2.4,1c0.6,0.6,0.9,1.6,0.9,2.7c0,1.2-0.3,2.1-0.9,2.7C91.6,265.6,90.8,265.9,89.8,265.9
			L89.8,265.9z M89.8,265.2c1.6,0,2.4-1,2.4-3c0-2-0.8-3-2.4-3c-1.6,0-2.4,1-2.4,3C87.4,264.2,88.2,265.2,89.8,265.2L89.8,265.2z
			 M96.9,265.7c-0.1,0-0.2-0.1-0.3-0.2l-2.6-6.5c0-0.1-0.1-0.2-0.1-0.2c0-0.1,0.1-0.2,0.2-0.2h0.4c0.1,0,0.2,0.1,0.2,0.2l2.3,6
			l2.3-6c0-0.1,0.1-0.2,0.2-0.2h0.4c0.1,0,0.2,0.1,0.2,0.2c0,0,0,0.1-0.1,0.2l-2.6,6.5c-0.1,0.1-0.1,0.2-0.3,0.2H96.9L96.9,265.7z
			 M101.9,265.7c-0.1,0-0.2-0.1-0.2-0.2v-6.6c0-0.1,0.1-0.2,0.2-0.2h0.4c0.1,0,0.2,0.1,0.2,0.2v6.6c0,0.1-0.1,0.2-0.2,0.2H101.9
			L101.9,265.7z M102.1,257.2c-0.2,0-0.3-0.1-0.4-0.2c-0.1-0.1-0.2-0.3-0.2-0.4c0-0.2,0.1-0.3,0.2-0.4c0.1-0.1,0.3-0.2,0.4-0.2
			s0.3,0.1,0.4,0.2c0.1,0.1,0.2,0.3,0.2,0.4c0,0.2-0.1,0.3-0.2,0.4C102.4,257.2,102.3,257.2,102.1,257.2L102.1,257.2z M107.3,265.9
			c-0.9,0-1.6-0.3-2.2-1c-0.5-0.6-0.8-1.5-0.8-2.7c0-1.1,0.3-2.1,0.8-2.7c0.5-0.7,1.3-1,2.2-1c0.9,0,1.7,0.3,2.3,0.9v-3.8
			c0-0.1,0.1-0.2,0.2-0.2h0.4c0.1,0,0.2,0.1,0.2,0.2v9.9c0,0.1-0.1,0.2-0.2,0.2H110c-0.1,0-0.2-0.1-0.2-0.2l-0.1-0.6
			c-0.3,0.3-0.7,0.5-1.2,0.7C108.1,265.8,107.7,265.9,107.3,265.9L107.3,265.9z M107.5,265.2c0.7,0,1.4-0.3,2.2-0.9v-4.1
			c-0.4-0.3-0.8-0.5-1.1-0.7c-0.4-0.1-0.7-0.2-1.1-0.2c-0.7,0-1.3,0.3-1.7,0.8c-0.4,0.5-0.6,1.2-0.6,2.2
			C105.2,264.2,105.9,265.2,107.5,265.2L107.5,265.2z M115.6,265.9c-1.1,0-1.9-0.3-2.5-0.9c-0.6-0.6-0.8-1.6-0.8-2.8
			c0-1.2,0.3-2.1,0.8-2.7c0.6-0.6,1.4-1,2.4-1c0.8,0,1.5,0.2,1.9,0.7c0.5,0.5,0.7,1.2,0.7,2.1c0,0.4,0,0.6-0.1,0.8
			c0,0.1-0.1,0.2-0.2,0.2h-4.7c0,1,0.2,1.7,0.6,2.2c0.4,0.5,1.1,0.7,1.9,0.7c0.7,0,1.3-0.1,1.9-0.4c0.1,0,0.2-0.1,0.3-0.1
			c0,0,0.1,0,0.1,0c0,0,0,0.1,0,0.1v0.2c0,0.1-0.1,0.2-0.2,0.3C117.2,265.8,116.4,265.9,115.6,265.9L115.6,265.9z M117.4,261.7
			c0-0.1,0-0.3,0-0.5c0-0.7-0.2-1.2-0.5-1.5c-0.3-0.3-0.8-0.5-1.4-0.5c-1.5,0-2.2,0.8-2.3,2.5H117.4L117.4,261.7z M120.1,265.7
			c-0.1,0-0.2-0.1-0.2-0.2v-6.6c0-0.1,0.1-0.2,0.2-0.2h0.3c0.1,0,0.2,0.1,0.2,0.2l0.1,0.8c0.4-0.4,0.7-0.7,1-0.8
			c0.3-0.2,0.7-0.2,1.2-0.2c0.1,0,0.3,0,0.4,0c0.1,0,0.2,0.1,0.2,0.2v0.4c0,0,0,0.1,0,0.1c0,0-0.1,0-0.1,0c-0.1,0-0.1,0-0.2,0
			c-0.1,0-0.2,0-0.3,0c-0.4,0-0.8,0.1-1.1,0.2s-0.6,0.4-1,0.8v5.1c0,0.1-0.1,0.2-0.2,0.2H120.1L120.1,265.7z"/>
		<line class="st21" x1="18.4" y1="273.5" x2="165.6" y2="273.5"/>
		<path class="st19" d="M24.7,286.2l-2-5.2l-2,5.2H24.7L24.7,286.2z M18.8,289.7c-0.1,0-0.2-0.1-0.2-0.2c0,0,0-0.1,0.1-0.2l3.5-9.2
			c0-0.1,0.1-0.2,0.3-0.2H23c0.1,0,0.2,0.1,0.3,0.2l3.5,9.2c0,0.1,0.1,0.2,0.1,0.2c0,0.1-0.1,0.2-0.2,0.2h-0.4
			c-0.1,0-0.2-0.1-0.2-0.2l-1-2.7h-4.5l-1,2.7c0,0.1-0.1,0.2-0.2,0.2H18.8L18.8,289.7z M30.5,289.7c-0.1,0-0.2-0.1-0.2-0.2l-2.8-9
			c0-0.1-0.1-0.2-0.1-0.3c0-0.1,0.1-0.2,0.2-0.2h0.5c0.1,0,0.2,0.1,0.2,0.2l2.5,8.6l2.1-8.2c0-0.1,0.1-0.2,0.2-0.2h0.6
			c0.1,0,0.2,0.1,0.3,0.2l2,8.3l2.6-8.6c0-0.1,0.1-0.2,0.2-0.2h0.4c0.1,0,0.2,0.1,0.2,0.2c0,0,0,0.1-0.1,0.3l-2.8,9
			c0,0.1-0.1,0.2-0.3,0.2h-0.6c-0.1,0-0.2-0.1-0.3-0.2l-2.1-8.1l-2.1,8.1c0,0.1-0.1,0.2-0.2,0.2H30.5L30.5,289.7z M43.4,290
			c-0.9,0-1.8-0.2-2.6-0.5c-0.1,0-0.2-0.1-0.2-0.3v-0.3c0-0.1,0.1-0.2,0.2-0.2c0.1,0,0.2,0,0.4,0.1c0.7,0.3,1.4,0.4,2.2,0.4
			c0.8,0,1.4-0.2,1.8-0.5c0.5-0.4,0.7-0.9,0.7-1.5c0-0.4-0.1-0.7-0.4-1s-0.7-0.5-1.2-0.7l-1.6-0.6c-0.7-0.3-1.2-0.6-1.6-1
			c-0.3-0.4-0.5-0.9-0.5-1.4c0-0.8,0.3-1.4,0.8-1.9c0.6-0.5,1.3-0.7,2.2-0.7c0.8,0,1.6,0.2,2.4,0.5c0.1,0,0.2,0.1,0.2,0.3v0.3
			c0,0.1-0.1,0.2-0.2,0.2c-0.1,0-0.3-0.1-0.6-0.2c-0.3-0.1-0.6-0.1-0.9-0.2c-0.3,0-0.6-0.1-0.9-0.1c-0.7,0-1.3,0.2-1.6,0.5
			c-0.4,0.3-0.6,0.8-0.6,1.3c0,0.3,0,0.5,0.1,0.8c0.1,0.2,0.3,0.4,0.5,0.6c0.3,0.2,0.7,0.4,1.2,0.6l1.5,0.6c0.7,0.3,1.2,0.6,1.5,1
			c0.3,0.4,0.5,0.8,0.5,1.4c0,0.8-0.3,1.5-0.9,2C45.2,289.7,44.4,290,43.4,290L43.4,290z M52.6,289.7c-0.1,0-0.2-0.1-0.2-0.2v-9.2
			c0-0.1,0.1-0.2,0.2-0.2h2.7c1.4,0,2.5,0.4,3.2,1.2c0.7,0.8,1.1,2,1.1,3.6c0,1.6-0.4,2.8-1.1,3.6c-0.8,0.8-1.8,1.2-3.3,1.2H52.6
			L52.6,289.7z M53.2,289.1h1.9c1.2,0,2.1-0.3,2.7-1c0.6-0.7,0.9-1.7,0.9-3v-0.3c0-2.7-1.2-4-3.6-4h-1.9V289.1L53.2,289.1z
			 M63.3,289.9c-0.6,0-1.2-0.2-1.5-0.6c-0.4-0.4-0.6-0.9-0.6-1.5c0-0.7,0.2-1.2,0.7-1.6c0.5-0.4,1.1-0.6,1.9-0.6
			c0.6,0,1.3,0.1,2,0.3v-1.2c0-0.6-0.1-1-0.4-1.2c-0.3-0.2-0.7-0.4-1.3-0.4c-0.6,0-1.3,0.1-2,0.4c-0.1,0-0.2,0-0.2,0
			c-0.1,0-0.1-0.1-0.1-0.2v-0.2c0-0.1,0-0.1,0-0.2c0,0,0.1-0.1,0.1-0.1c0.7-0.3,1.5-0.4,2.3-0.4c0.8,0,1.4,0.2,1.8,0.5
			c0.4,0.3,0.6,0.9,0.6,1.6v4.9c0,0.1-0.1,0.2-0.2,0.2H66c-0.1,0-0.2-0.1-0.2-0.2l-0.1-0.6C65,289.6,64.1,289.9,63.3,289.9
			L63.3,289.9z M63.4,289.2c0.4,0,0.7-0.1,1.1-0.2c0.4-0.1,0.8-0.3,1.2-0.6v-1.7c-0.6-0.2-1.2-0.3-1.8-0.3c-1.3,0-1.9,0.5-1.9,1.5
			c0,0.4,0.1,0.8,0.3,1C62.6,289.1,62.9,289.2,63.4,289.2L63.4,289.2z M70.8,289.8c-0.5,0-1-0.1-1.3-0.4c-0.3-0.3-0.4-0.7-0.4-1.3
			v-4.7h-1.1c-0.1,0-0.2-0.1-0.2-0.2v-0.1c0-0.1,0-0.1,0-0.2c0,0,0.1-0.1,0.2-0.1l1.1-0.1l0.1-1.8c0-0.1,0-0.1,0.1-0.2
			c0,0,0.1,0,0.1,0h0.3c0.1,0,0.2,0.1,0.2,0.2v1.8h2c0.1,0,0.2,0.1,0.2,0.2v0.3c0,0.1-0.1,0.2-0.2,0.2h-2v4.6c0,0.4,0.1,0.6,0.2,0.8
			c0.2,0.2,0.4,0.2,0.8,0.2c0.3,0,0.5,0,0.7-0.1c0.1,0,0.2,0,0.2,0c0.1,0,0.1,0,0.1,0c0.1,0,0.2,0.1,0.2,0.2v0.2
			c0,0.2-0.1,0.3-0.2,0.3C71.7,289.8,71.3,289.8,70.8,289.8L70.8,289.8z M75.4,289.9c-0.6,0-1.2-0.2-1.5-0.6
			c-0.4-0.4-0.6-0.9-0.6-1.5c0-0.7,0.2-1.2,0.7-1.6c0.5-0.4,1.1-0.6,1.9-0.6c0.6,0,1.3,0.1,2,0.3v-1.2c0-0.6-0.1-1-0.4-1.2
			c-0.3-0.2-0.7-0.4-1.3-0.4c-0.6,0-1.3,0.1-2,0.4c-0.1,0-0.2,0-0.2,0c-0.1,0-0.1-0.1-0.1-0.2v-0.2c0-0.1,0-0.1,0-0.2
			c0,0,0.1-0.1,0.1-0.1c0.7-0.3,1.5-0.4,2.3-0.4c0.8,0,1.4,0.2,1.8,0.5c0.4,0.3,0.6,0.9,0.6,1.6v4.9c0,0.1-0.1,0.2-0.2,0.2h-0.3
			c-0.1,0-0.2-0.1-0.2-0.2l-0.1-0.6C77.1,289.6,76.3,289.9,75.4,289.9L75.4,289.9z M75.5,289.2c0.4,0,0.7-0.1,1.1-0.2
			s0.8-0.3,1.2-0.6v-1.7c-0.6-0.2-1.2-0.3-1.8-0.3c-1.3,0-1.9,0.5-1.9,1.5c0,0.4,0.1,0.8,0.3,1C74.7,289.1,75,289.2,75.5,289.2
			L75.5,289.2z M83.9,289.2c0.8,0,1.3-0.2,1.7-0.7c0.4-0.5,0.6-1.2,0.6-2.2c0-2-0.7-3-2.2-3c-0.4,0-0.8,0.1-1.2,0.2
			c-0.4,0.1-0.8,0.4-1.2,0.7v4.1c0.4,0.3,0.8,0.6,1.1,0.7C83.1,289.1,83.5,289.2,83.9,289.2L83.9,289.2z M84,289.9
			c-0.9,0-1.6-0.3-2.4-1l-0.1,0.6c0,0.1-0.1,0.2-0.2,0.2H81c-0.1,0-0.2-0.1-0.2-0.2v-9.9c0-0.1,0.1-0.2,0.2-0.2h0.4
			c0.1,0,0.2,0.1,0.2,0.2v3.8c0.4-0.3,0.8-0.6,1.2-0.7c0.4-0.2,0.8-0.2,1.3-0.2c0.9,0,1.6,0.3,2.1,1c0.5,0.6,0.8,1.5,0.8,2.7
			c0,1.1-0.3,2.1-0.8,2.7C85.6,289.6,84.9,289.9,84,289.9L84,289.9z M90.5,289.9c-0.6,0-1.2-0.2-1.5-0.6c-0.4-0.4-0.6-0.9-0.6-1.5
			c0-0.7,0.2-1.2,0.7-1.6c0.5-0.4,1.1-0.6,1.9-0.6c0.6,0,1.3,0.1,2,0.3v-1.2c0-0.6-0.1-1-0.4-1.2c-0.3-0.2-0.7-0.4-1.3-0.4
			c-0.6,0-1.3,0.1-2,0.4c-0.1,0-0.2,0-0.2,0c-0.1,0-0.1-0.1-0.1-0.2v-0.2c0-0.1,0-0.1,0-0.2c0,0,0.1-0.1,0.1-0.1
			c0.7-0.3,1.5-0.4,2.3-0.4c0.8,0,1.4,0.2,1.8,0.5c0.4,0.3,0.6,0.9,0.6,1.6v4.9c0,0.1-0.1,0.2-0.2,0.2h-0.3c-0.1,0-0.2-0.1-0.2-0.2
			l-0.1-0.6C92.2,289.6,91.3,289.9,90.5,289.9L90.5,289.9z M90.6,289.2c0.4,0,0.7-0.1,1.1-0.2c0.4-0.1,0.8-0.3,1.2-0.6v-1.7
			c-0.6-0.2-1.2-0.3-1.8-0.3c-1.3,0-1.9,0.5-1.9,1.5c0,0.4,0.1,0.8,0.3,1C89.8,289.1,90.1,289.2,90.6,289.2L90.6,289.2z M97.7,290
			c-0.4,0-0.7,0-1.1-0.1c-0.4-0.1-0.7-0.2-1-0.3c-0.1,0-0.2-0.1-0.2-0.3V289c0-0.1,0.1-0.2,0.2-0.2c0,0,0.1,0,0.1,0
			c0.1,0,0.2,0.1,0.4,0.1c0.5,0.2,1.1,0.2,1.6,0.2c0.6,0,1-0.1,1.3-0.3c0.3-0.2,0.4-0.6,0.4-1c0-0.3-0.1-0.5-0.3-0.6
			c-0.2-0.2-0.5-0.3-0.9-0.5l-1.3-0.5c-1-0.4-1.5-1-1.5-1.8c0-0.6,0.2-1,0.6-1.4c0.4-0.4,1-0.5,1.7-0.5c0.6,0,1.2,0.1,1.8,0.3
			c0.1,0,0.2,0.1,0.2,0.3v0.2c0,0.1-0.1,0.2-0.2,0.2c-0.1,0-0.2,0-0.4-0.1c-0.6-0.2-1.1-0.2-1.5-0.2c-0.5,0-0.9,0.1-1.1,0.3
			c-0.3,0.2-0.4,0.5-0.4,0.9c0,0.3,0.1,0.6,0.3,0.7c0.2,0.2,0.5,0.4,1.1,0.6l1.1,0.4c0.5,0.2,0.9,0.4,1.1,0.7
			c0.2,0.3,0.4,0.6,0.4,1.1c0,0.6-0.2,1.1-0.7,1.5C99.1,289.8,98.5,290,97.7,290L97.7,290z M104.7,290c-1.1,0-1.9-0.3-2.5-0.9
			c-0.6-0.6-0.8-1.6-0.8-2.8c0-1.2,0.3-2.1,0.8-2.7c0.6-0.6,1.4-1,2.4-1c0.8,0,1.5,0.2,1.9,0.7c0.5,0.5,0.7,1.2,0.7,2.1
			c0,0.4,0,0.6-0.1,0.8c0,0.1-0.1,0.2-0.2,0.2h-4.7c0,1,0.2,1.7,0.6,2.2c0.4,0.5,1.1,0.7,1.9,0.7c0.7,0,1.3-0.1,1.9-0.4
			c0.1,0,0.2-0.1,0.3-0.1c0,0,0.1,0,0.1,0c0,0,0,0.1,0,0.1v0.2c0,0.1-0.1,0.2-0.2,0.3C106.3,289.8,105.5,290,104.7,290L104.7,290z
			 M106.5,285.7c0-0.1,0-0.3,0-0.5c0-0.7-0.2-1.2-0.5-1.5c-0.3-0.3-0.8-0.5-1.4-0.5c-1.5,0-2.2,0.8-2.3,2.5H106.5L106.5,285.7z"/>
		<path class="st19" d="M19.8,305.2c-0.1,0-0.2-0.1-0.2-0.2v-9.2c0-0.1,0.1-0.2,0.2-0.2h0.6c0.1,0,0.2,0.1,0.3,0.2l3.4,6l3.4-6
			c0-0.1,0.1-0.1,0.1-0.1c0,0,0.1,0,0.2,0h0.6c0.1,0,0.2,0.1,0.2,0.2v9.2c0,0.1-0.1,0.2-0.2,0.2H28c-0.1,0-0.2-0.1-0.2-0.2v-8.2
			l-3.2,5.7c0,0.1-0.1,0.1-0.1,0.1c0,0-0.1,0-0.2,0h-0.4c-0.1,0-0.2-0.1-0.3-0.2l-3.2-5.6v8.2c0,0.1-0.1,0.2-0.2,0.2H19.8
			L19.8,305.2z M31.2,305.2c-0.1,0-0.2-0.1-0.2-0.2v-6.6c0-0.1,0.1-0.2,0.2-0.2h0.4c0.1,0,0.2,0.1,0.2,0.2v6.6
			c0,0.1-0.1,0.2-0.2,0.2H31.2L31.2,305.2z M31.4,296.7c-0.2,0-0.3-0.1-0.4-0.2c-0.1-0.1-0.2-0.3-0.2-0.4c0-0.2,0.1-0.3,0.2-0.4
			c0.1-0.1,0.3-0.2,0.4-0.2c0.2,0,0.3,0.1,0.4,0.2c0.1,0.1,0.2,0.3,0.2,0.4c0,0.2-0.1,0.3-0.2,0.4C31.7,296.7,31.6,296.7,31.4,296.7
			L31.4,296.7z M36.5,308.3c-0.4,0-0.8,0-1.1-0.1c-0.4-0.1-0.7-0.2-1-0.3c-0.1,0-0.2-0.1-0.2-0.3v-0.2c0-0.1,0.1-0.2,0.2-0.2
			c0,0,0.1,0,0.1,0c0,0,0.1,0,0.2,0.1c0.7,0.2,1.3,0.3,1.8,0.3c0.9,0,1.5-0.2,1.9-0.6c0.4-0.4,0.6-1.1,0.6-2v-0.7
			c-0.3,0.3-0.7,0.5-1.1,0.7c-0.4,0.2-0.8,0.2-1.2,0.2c-0.9,0-1.6-0.3-2.1-1c-0.5-0.6-0.8-1.5-0.8-2.5c0-1.1,0.3-2,0.8-2.7
			c0.5-0.6,1.3-1,2.2-1c0.9,0,1.6,0.3,2.3,0.9l0.1-0.5c0-0.1,0.1-0.2,0.2-0.2h0.3c0.1,0,0.2,0.1,0.2,0.2v6.5c0,1.1-0.3,1.9-0.8,2.5
			C38.3,308,37.5,308.3,36.5,308.3L36.5,308.3z M36.8,304.4c0.7,0,1.4-0.3,2.2-0.9v-3.9c-0.4-0.3-0.7-0.5-1.1-0.7
			c-0.4-0.1-0.7-0.2-1.1-0.2c-0.7,0-1.3,0.2-1.7,0.7c-0.4,0.5-0.6,1.2-0.6,2.1c0,0.9,0.2,1.6,0.6,2.1
			C35.5,304.2,36,304.4,36.8,304.4L36.8,304.4z M42.1,305.2c-0.1,0-0.2-0.1-0.2-0.2v-6.6c0-0.1,0.1-0.2,0.2-0.2h0.3
			c0.1,0,0.2,0.1,0.2,0.2l0.1,0.8c0.4-0.4,0.7-0.7,1-0.8c0.3-0.2,0.7-0.2,1.1-0.2c0.1,0,0.3,0,0.4,0c0.1,0,0.2,0.1,0.2,0.2v0.4
			c0,0,0,0.1,0,0.1c0,0-0.1,0-0.1,0c-0.1,0-0.1,0-0.2,0c-0.1,0-0.2,0-0.3,0c-0.4,0-0.8,0.1-1.1,0.2c-0.3,0.2-0.6,0.4-1,0.8v5.1
			c0,0.1-0.1,0.2-0.2,0.2H42.1L42.1,305.2z M48.4,305.4c-0.6,0-1.2-0.2-1.5-0.6c-0.4-0.4-0.6-0.9-0.6-1.5c0-0.7,0.2-1.2,0.7-1.6
			c0.5-0.4,1.1-0.6,1.9-0.6c0.6,0,1.3,0.1,2,0.3v-1.2c0-0.6-0.1-1-0.4-1.2c-0.3-0.2-0.7-0.4-1.3-0.4c-0.6,0-1.3,0.1-2,0.4
			c-0.1,0-0.2,0-0.2,0c-0.1,0-0.1-0.1-0.1-0.2v-0.2c0-0.1,0-0.1,0-0.2c0,0,0.1-0.1,0.1-0.1c0.7-0.3,1.5-0.4,2.3-0.4
			c0.8,0,1.4,0.2,1.8,0.5s0.6,0.9,0.6,1.6v4.9c0,0.1-0.1,0.2-0.2,0.2h-0.3c-0.1,0-0.2-0.1-0.2-0.2l-0.1-0.6
			C50.1,305.1,49.2,305.4,48.4,305.4L48.4,305.4z M48.5,304.7c0.4,0,0.7-0.1,1.1-0.2s0.8-0.3,1.2-0.6v-1.7c-0.6-0.2-1.2-0.3-1.8-0.3
			c-1.3,0-1.9,0.5-1.9,1.5c0,0.4,0.1,0.8,0.3,1C47.7,304.6,48,304.7,48.5,304.7L48.5,304.7z M56,305.3c-0.5,0-1-0.1-1.3-0.4
			c-0.3-0.3-0.4-0.7-0.4-1.3v-4.7h-1.1c-0.1,0-0.2-0.1-0.2-0.2v-0.1c0-0.1,0-0.1,0-0.2s0.1-0.1,0.2-0.1l1.1-0.1l0.1-1.8
			c0-0.1,0-0.1,0.1-0.2c0,0,0.1,0,0.1,0h0.3c0.1,0,0.2,0.1,0.2,0.2v1.8h2c0.1,0,0.2,0.1,0.2,0.2v0.3c0,0.1-0.1,0.2-0.2,0.2h-2v4.6
			c0,0.4,0.1,0.6,0.2,0.8c0.2,0.2,0.4,0.2,0.8,0.2c0.3,0,0.5,0,0.7-0.1c0.1,0,0.2,0,0.2,0c0.1,0,0.1,0,0.1,0c0.1,0,0.2,0.1,0.2,0.2
			v0.2c0,0.2-0.1,0.3-0.2,0.3C56.8,305.3,56.4,305.3,56,305.3L56,305.3z M59.1,305.2c-0.1,0-0.2-0.1-0.2-0.2v-6.6
			c0-0.1,0.1-0.2,0.2-0.2h0.4c0.1,0,0.2,0.1,0.2,0.2v6.6c0,0.1-0.1,0.2-0.2,0.2H59.1L59.1,305.2z M59.3,296.7
			c-0.2,0-0.3-0.1-0.4-0.2c-0.1-0.1-0.2-0.3-0.2-0.4c0-0.2,0.1-0.3,0.2-0.4c0.1-0.1,0.3-0.2,0.4-0.2s0.3,0.1,0.4,0.2
			c0.1,0.1,0.2,0.3,0.2,0.4c0,0.2-0.1,0.3-0.2,0.4C59.6,296.7,59.5,296.7,59.3,296.7L59.3,296.7z M64.8,305.5c-1,0-1.8-0.3-2.4-1
			c-0.6-0.7-0.8-1.6-0.8-2.7c0-1.2,0.3-2.1,0.8-2.7c0.6-0.6,1.4-1,2.4-1c1,0,1.8,0.3,2.4,1c0.6,0.6,0.9,1.6,0.9,2.7
			c0,1.2-0.3,2.1-0.9,2.7C66.6,305.1,65.8,305.5,64.8,305.5L64.8,305.5z M64.8,304.7c1.6,0,2.4-1,2.4-3c0-2-0.8-3-2.4-3
			c-1.6,0-2.4,1-2.4,3C62.4,303.7,63.2,304.7,64.8,304.7L64.8,304.7z M70.1,305.2c-0.1,0-0.2-0.1-0.2-0.2v-6.6
			c0-0.1,0.1-0.2,0.2-0.2h0.3c0.1,0,0.2,0.1,0.2,0.2l0.1,0.6c0.5-0.3,0.9-0.6,1.4-0.8c0.5-0.2,1-0.3,1.5-0.3c0.7,0,1.2,0.2,1.6,0.5
			c0.4,0.4,0.5,0.9,0.5,1.6v4.9c0,0.1-0.1,0.2-0.2,0.2H75c-0.1,0-0.2-0.1-0.2-0.2v-4.6c0-0.6-0.1-1-0.4-1.3
			c-0.2-0.3-0.6-0.4-1.1-0.4c-0.9,0-1.8,0.3-2.7,0.9v5.4c0,0.1-0.1,0.2-0.2,0.2H70.1L70.1,305.2z M84,305.5c-0.9,0-1.8-0.2-2.6-0.5
			c-0.1,0-0.2-0.1-0.2-0.3v-0.3c0-0.1,0.1-0.2,0.2-0.2c0.1,0,0.2,0,0.4,0.1c0.7,0.3,1.4,0.4,2.2,0.4c0.8,0,1.4-0.2,1.8-0.5
			c0.5-0.4,0.7-0.9,0.7-1.5c0-0.4-0.1-0.7-0.4-1c-0.3-0.3-0.7-0.5-1.2-0.7l-1.6-0.6c-0.7-0.3-1.2-0.6-1.6-1
			c-0.3-0.4-0.5-0.9-0.5-1.4c0-0.8,0.3-1.4,0.8-1.9c0.6-0.5,1.3-0.7,2.2-0.7c0.8,0,1.6,0.2,2.4,0.5c0.1,0,0.2,0.1,0.2,0.3v0.3
			c0,0.1-0.1,0.2-0.2,0.2c-0.1,0-0.3-0.1-0.6-0.2c-0.3-0.1-0.6-0.1-0.9-0.2c-0.3,0-0.6-0.1-0.9-0.1c-0.7,0-1.3,0.2-1.6,0.5
			c-0.4,0.3-0.6,0.8-0.6,1.3c0,0.3,0,0.5,0.1,0.8c0.1,0.2,0.3,0.4,0.5,0.6c0.3,0.2,0.7,0.4,1.2,0.6l1.5,0.6c0.7,0.3,1.2,0.6,1.5,1
			c0.3,0.4,0.5,0.8,0.5,1.4c0,0.8-0.3,1.5-0.9,2C85.8,305.2,85,305.5,84,305.5L84,305.5z M92.1,305.5c-1.1,0-1.9-0.3-2.5-0.9
			c-0.6-0.6-0.8-1.6-0.8-2.8c0-1.2,0.3-2.1,0.8-2.7c0.6-0.6,1.4-1,2.4-1c0.8,0,1.5,0.2,1.9,0.7c0.5,0.5,0.7,1.2,0.7,2.1
			c0,0.4,0,0.6-0.1,0.8c0,0.1-0.1,0.2-0.2,0.2h-4.7c0,1,0.2,1.7,0.6,2.2c0.4,0.5,1.1,0.7,1.9,0.7c0.7,0,1.3-0.1,1.9-0.4
			c0.1,0,0.2-0.1,0.3-0.1c0,0,0.1,0,0.1,0c0,0,0,0.1,0,0.1v0.2c0,0.1-0.1,0.2-0.2,0.3C93.7,305.3,92.9,305.5,92.1,305.5L92.1,305.5z
			 M93.9,301.2c0-0.1,0-0.3,0-0.5c0-0.7-0.2-1.2-0.5-1.5c-0.3-0.3-0.8-0.5-1.4-0.5c-1.5,0-2.2,0.8-2.3,2.5H93.9L93.9,301.2z
			 M96.6,305.2c-0.1,0-0.2-0.1-0.2-0.2v-6.6c0-0.1,0.1-0.2,0.2-0.2h0.3c0.1,0,0.2,0.1,0.2,0.2l0.1,0.8c0.4-0.4,0.7-0.7,1-0.8
			c0.3-0.2,0.7-0.2,1.2-0.2c0.1,0,0.3,0,0.4,0c0.1,0,0.2,0.1,0.2,0.2v0.4c0,0,0,0.1,0,0.1c0,0-0.1,0-0.1,0c-0.1,0-0.1,0-0.2,0
			c-0.1,0-0.2,0-0.3,0c-0.4,0-0.8,0.1-1.1,0.2s-0.6,0.4-1,0.8v5.1c0,0.1-0.1,0.2-0.2,0.2H96.6L96.6,305.2z M103.3,305.2
			c-0.1,0-0.2-0.1-0.3-0.2l-2.6-6.5c0-0.1-0.1-0.2-0.1-0.2c0-0.1,0.1-0.2,0.2-0.2h0.4c0.1,0,0.2,0.1,0.2,0.2l2.3,6l2.3-6
			c0-0.1,0.1-0.2,0.2-0.2h0.4c0.1,0,0.2,0.1,0.2,0.2c0,0,0,0.1-0.1,0.2l-2.6,6.5c-0.1,0.1-0.1,0.2-0.3,0.2H103.3L103.3,305.2z
			 M108.2,305.2c-0.1,0-0.2-0.1-0.2-0.2v-6.6c0-0.1,0.1-0.2,0.2-0.2h0.4c0.1,0,0.2,0.1,0.2,0.2v6.6c0,0.1-0.1,0.2-0.2,0.2H108.2
			L108.2,305.2z M108.4,296.7c-0.2,0-0.3-0.1-0.4-0.2c-0.1-0.1-0.2-0.3-0.2-0.4c0-0.2,0.1-0.3,0.2-0.4c0.1-0.1,0.3-0.2,0.4-0.2
			s0.3,0.1,0.4,0.2c0.1,0.1,0.2,0.3,0.2,0.4c0,0.2-0.1,0.3-0.2,0.4C108.8,296.7,108.6,296.7,108.4,296.7L108.4,296.7z M114,305.4
			c-1.1,0-1.9-0.3-2.5-0.9c-0.6-0.6-0.8-1.5-0.8-2.7c0-1.2,0.3-2.1,0.8-2.7c0.6-0.6,1.4-0.9,2.5-0.9c0.5,0,1,0.1,1.5,0.3
			c0.1,0,0.2,0.1,0.2,0.3v0.2c0,0.1-0.1,0.2-0.2,0.2c0,0-0.1,0-0.1,0c0,0-0.1,0-0.2,0c-0.4-0.1-0.7-0.1-1.1-0.1
			c-0.9,0-1.5,0.2-1.9,0.7c-0.4,0.4-0.6,1.2-0.6,2.2v0.2c0,1,0.2,1.7,0.6,2.1c0.4,0.5,1,0.7,1.9,0.7c0.4,0,0.8-0.1,1.2-0.2
			c0.1,0,0.2,0,0.2-0.1c0,0,0.1,0,0.1,0c0.1,0,0.2,0.1,0.2,0.2v0.2c0,0.1-0.1,0.2-0.2,0.3C115.1,305.3,114.5,305.4,114,305.4
			L114,305.4z M120.3,305.5c-1.1,0-1.9-0.3-2.5-0.9c-0.6-0.6-0.8-1.6-0.8-2.8c0-1.2,0.3-2.1,0.8-2.7c0.6-0.6,1.4-1,2.4-1
			c0.8,0,1.5,0.2,1.9,0.7c0.5,0.5,0.7,1.2,0.7,2.1c0,0.4,0,0.6-0.1,0.8c0,0.1-0.1,0.2-0.2,0.2h-4.7c0,1,0.2,1.7,0.6,2.2
			c0.4,0.5,1.1,0.7,1.9,0.7c0.7,0,1.3-0.1,1.9-0.4c0.1,0,0.2-0.1,0.3-0.1c0,0,0.1,0,0.1,0c0,0,0,0.1,0,0.1v0.2
			c0,0.1-0.1,0.2-0.2,0.3C121.8,305.3,121.1,305.5,120.3,305.5L120.3,305.5z M122,301.2c0-0.1,0-0.3,0-0.5c0-0.7-0.2-1.2-0.5-1.5
			c-0.3-0.3-0.8-0.5-1.4-0.5c-1.5,0-2.2,0.8-2.3,2.5H122L122,301.2z"/>
	</g>
</g>
</svg>
