<svg xmlns="http://www.w3.org/2000/svg" viewBox="0 0 150 150"><defs><style>.cls-1{fill:#dce8ed;}.cls-1,.cls-10,.cls-11,.cls-12,.cls-13,.cls-14,.cls-15,.cls-16,.cls-17,.cls-18,.cls-19,.cls-2,.cls-20,.cls-21,.cls-22,.cls-23,.cls-24,.cls-25,.cls-26,.cls-27,.cls-28,.cls-29,.cls-3,.cls-30,.cls-31,.cls-32,.cls-33,.cls-34,.cls-35,.cls-36,.cls-37,.cls-38,.cls-39,.cls-4,.cls-40,.cls-41,.cls-42,.cls-43,.cls-44,.cls-45,.cls-5,.cls-6,.cls-7,.cls-8,.cls-9{fill-rule:evenodd;}.cls-2{fill:#f3fafd;}.cls-3,.cls-54{fill:#fff;}.cls-4{fill:#3ca4dc;}.cls-5{fill:#fccda2;}.cls-6{fill:#f36e24;}.cls-7{fill:#febe10;}.cls-8{fill:#2e3133;}.cls-9{fill:#6b7479;}.cls-10{fill:#e8f2f5;}.cls-11{fill:#d1e9f9;}.cls-12{fill:#82d3ef;}.cls-13{fill:#e4eef2;}.cls-14{fill:#ea2365;}.cls-15{fill:#f36d24;}.cls-16{fill:#81d3f6;}.cls-17{fill:#f48fb1;}.cls-18{fill:#cddae2;}.cls-19{fill:#26170e;}.cls-20{fill:#f1b387;}.cls-21{fill:#e8a477;}.cls-22{fill:#15506c;}.cls-23{fill:#21698b;}.cls-24{fill:#2b82ab;}.cls-25{fill:#805354;}.cls-26{fill:#774b4a;}.cls-27{fill:#37679c;}.cls-28{fill:#3d6dad;}.cls-29{fill:#457cb6;}.cls-30{fill:#dc976a;}.cls-31{fill:#1d0d0e;}.cls-32{fill:#0b85c1;}.cls-33{fill:#e6e6e5;}.cls-34{fill:#9fb1ba;}.cls-35{fill:#341f10;}.cls-36{fill:#4e2d14;}.cls-37{fill:#eaf6f5;opacity:0.5;}.cls-38{fill:#2a2524;}.cls-39{fill:#34c5ef;}.cls-40{fill:#0599ce;}.cls-41{fill:#2095d3;}.cls-42{fill:#bf1f4c;}.cls-43{fill:#a81d41;}.cls-44{fill:#d61c56;}.cls-45{fill:#f89521;}.cls-46{fill:#84b0c6;}.cls-47{fill:#008b53;}.cls-48{fill:#e2edf9;}.cls-49{fill:#c3d8eb;}.cls-50{fill:#fafdff;}.cls-51{fill:#c7d4d8;}.cls-52{fill:#b4c9e8;}.cls-53{fill:#dca896;}.cls-55{fill:#efc7b5;}.cls-56{fill:#053552;}.cls-57{fill:#00547f;}.cls-58{fill:#86433c;}.cls-59{fill:#537fa0;}.cls-60{fill:#010101;opacity:0.3;}.cls-61{fill:#d9e4f4;}.cls-62{fill:#bcbdbf;}.cls-63{fill:#2b6088;}.cls-64{fill:#acd8f3;}.cls-65{fill:#c8a496;}.cls-66{fill:#7a441d;}</style></defs><g id="Enterprise_Analytics_Servicesr_2" data-name="Enterprise Analytics Servicesr 2"><polygon class="cls-1" points="104.74 23.62 105.99 22.89 105.92 48.93 104.66 49.66 104.74 23.62"/><polygon class="cls-2" points="75.89 6.96 77.14 6.23 105.99 22.89 104.74 23.62 75.89 6.96"/><polygon class="cls-3" points="104.74 23.62 104.66 49.66 75.81 33.01 75.89 6.96 104.74 23.62"/><path class="cls-2" d="M101.66,46.73q0-10.86,0-21.73l2.57,1.52q0,10.88.06,21.73l-2.58-1.52ZM87.3,38.26l0-10.09,2.59,1.52,0,10.09L87.3,38.26Zm-11-6.49,0-10.08,2.58,1.53,0,10.08-2.58-1.53ZM80,33.93q0-5.74,0-11.49L82.54,24c0,3.83,0,7.67,0,11.5L80,33.93Zm3.66,2.16L83.6,19.4c.87.5,1.73,1,2.59,1.52q0,8.35,0,16.7l-2.58-1.53ZM98,38.25c0-3.46,0-6.93,0-10.39l2.58,1.52,0,10.4c0,2.1,0,4.21,0,6.31L98,44.56c0-2.1,0-4.21,0-6.31Zm-7.3,2,0-11.51,2.58,1.53c0,3.83,0,7.67,0,11.5l-2.59-1.52ZM94.29,29l2.58,1.52q0,6.72,0,13.43L94.33,42.4Q94.3,35.68,94.29,29Z"/><path class="cls-4" d="M102.42,32.18l-2.57-1.52c0,4.19,0,10.91,0,15.11l2.57,1.52C102.45,43.09,102.44,36.38,102.42,32.18Z"/><path class="cls-5" d="M102.42,32.18l-2.57-1.52c0-1.05,0-2.94,0-4l2.57,1.52C102.42,29.24,102.42,31.13,102.42,32.18Z"/><path class="cls-6" d="M102.41,25.56,99.84,24v2.63l2.57,1.52Z"/><path class="cls-4" d="M95.11,33.25l-2.58-1.52c0,3.23,0,6.47,0,9.71L95.14,43Z"/><path class="cls-5" d="M95.11,33.25l-2.58-1.52V29.14l2.59,1.53Z"/><path class="cls-6" d="M95.1,29.53,92.52,28v1.13l2.59,1.53C95.1,30.3,95.1,29.91,95.1,29.53Z"/><path class="cls-4" d="M91.45,32.9l-2.58-1.52c0,2.63,0,5.27,0,7.9l2.59,1.52Z"/><path class="cls-7" d="M91.45,32.9l-2.58-1.52c0-.79,0-1.58,0-2.38l2.59,1.53Z"/><path class="cls-6" d="M91.44,29.3l-2.58-1.53V29l2.59,1.53C91.45,30.12,91.44,29.71,91.44,29.3Z"/><path class="cls-4" d="M98.76,32.53,96.17,31q0,3.14,0,6.29c0,2.1,0,4.21,0,6.31l2.59,1.53c0-2.1,0-4.21,0-6.31S98.77,34.62,98.76,32.53Z"/><path class="cls-5" d="M98.76,32.53,96.17,31c0-1.05,0-2.11,0-3.15l2.58,1.52C98.76,30.42,98.76,31.47,98.76,32.53Z"/><path class="cls-6" d="M98.75,28.42,96.17,26.9v1l2.58,1.52Z"/><path class="cls-4" d="M84.43,24.06c-.86-.51-1.72-1-2.59-1.52,0,2.1,0,4.2,0,6.3s0,4.2,0,6.3c.87.5,1.73,1,2.58,1.52,0-2.1,0-4.2,0-6.3S84.43,26.16,84.43,24.06Z"/><path class="cls-5" d="M84.43,24.06c-.86-.51-1.72-1-2.59-1.52,0-1.05,0-2.1,0-3.16l2.59,1.53C84.42,22,84.42,23,84.43,24.06Z"/><path class="cls-6" d="M84.41,20l-2.58-1.52v.94l2.59,1.53Z"/><path class="cls-4" d="M80.78,26.61,78.2,25.08q0,4,0,7.89l2.59,1.53Z"/><path class="cls-5" d="M80.78,26.61,78.2,25.08c0-.79,0-1.58,0-2.37l2.58,1.52C80.78,25,80.78,25.82,80.78,26.61Z"/><path class="cls-6" d="M80.77,23l-2.58-1.52v1.23l2.58,1.52Z"/><path class="cls-4" d="M77.13,27.55,74.55,26c0,1.59,0,3.19,0,4.79l2.58,1.52C77.14,30.74,77.14,29.15,77.13,27.55Z"/><path class="cls-5" d="M77.13,27.55,74.55,26V22.81l2.57,1.53C77.12,25.41,77.13,26.48,77.13,27.55Z"/><path class="cls-6" d="M77.12,22.26l-2.58-1.53c0,.7,0,1.39,0,2.08l2.57,1.53Z"/><path class="cls-4" d="M88.1,34,85.52,32.5c0,1.6,0,3.2,0,4.8.86.51,1.72,1,2.59,1.52C88.11,37.23,88.11,35.63,88.1,34Z"/><path class="cls-5" d="M88.1,34,85.52,32.5c0-1.07,0-2.14,0-3.21l2.58,1.53C88.1,31.89,88.1,33,88.1,34Z"/><path class="cls-6" d="M88.09,28.74,85.5,27.21c0,.69,0,1.39,0,2.08l2.58,1.53Z"/><path class="cls-8" d="M107.18,114.36a3,3,0,0,0,.47-.24,2.65,2.65,0,0,0,.38-.3.66.66,0,0,0,.11-.16.55.55,0,0,0,0-.19h0c0-.35,0-.64.08-1l-.73-.28-.54.34.06,1.58Z"/><polygon class="cls-9" points="108.33 112.46 107.59 112 107.61 112.34 108.08 112.65 108.33 112.46"/><path class="cls-8" d="M108.26,54.53a1.55,1.55,0,0,0,0-.8.4.4,0,0,0-.29-.17.55.55,0,0,0-.24,0,.46.46,0,0,0-.17.17,2.38,2.38,0,0,0-.16.51c-.06.23-.11.52-.16.85l.79-.45Z"/><path class="cls-10" d="M107.88,54.12c.28.16.11.28-.14.43l-.16.09-.16.09a.65.65,0,0,1-.74.08c-23.47-13.63-47-27.14-70.49-40.75-.28-.16-.11-.28.15-.43l.16-.09.15-.09c.26-.15.47-.24.74-.08C60.88,27,84.41,40.48,107.88,54.12Z"/><path class="cls-10" d="M107.19,54.85l.18,4.09-.08,55-.06.15a.7.7,0,0,1-.25,0,.79.79,0,0,1-.26-.08l-.19-14.29V54.62C106.69,54.72,107,54.92,107.19,54.85Z"/><path class="cls-1" d="M108,54.28l0,59.23c0,.16-.68.52-.84.57l0-59.23A5.67,5.67,0,0,1,108,54.28Z"/><path class="cls-11" d="M36.89,13c-.26-.15-.55-.27-.73.07A3.32,3.32,0,0,0,36,14.49q35.67,20.27,71.26,40.64c.23-.64.17-1.54.93-1.45a.39.39,0,0,0-.19-.15,4.76,4.76,0,0,0-.49-.28C83.92,39.84,60.5,26.42,36.89,13Z"/><path class="cls-12" d="M108.14,53.68a.39.39,0,0,0-.19-.15,4.76,4.76,0,0,0-.49-.28Q72.18,33.15,36.89,13c-.26-.15-.55-.26-.73.07a1.42,1.42,0,0,0-.08.18Q71.82,33.61,107.52,54A.54.54,0,0,1,108.14,53.68Z"/><path class="cls-11" d="M108.26,54.53a1.55,1.55,0,0,0,0-.8.4.4,0,0,0-.29-.17.55.55,0,0,0-.24,0,.46.46,0,0,0-.17.17,2.38,2.38,0,0,0-.16.51c-.06.23-.11.52-.16.85l.28-.16c0-.25.08-.46.12-.64a2.56,2.56,0,0,1,.14-.44c.06-.09.2-.13.26,0s0,.55,0,.66v.16Z"/><path class="cls-2" d="M36.23,73v-.36l0-58.24C59.66,28,83.08,41.1,106.68,54.81l0,59.24C83.23,100.39,60,86.72,36.23,73Z"/><path class="cls-3" d="M36.24,70.44C60,84.35,83,97.45,106.4,111.16l-.12-54.68L36.2,16Z"/><path class="cls-9" d="M107.05,113.4Q72.16,93.09,37.2,72.88c-.41-.24-.84-.55-1.25-.79l.19-.09,71,41.24Z"/><path class="cls-4" d="M107.05,113.4Q71.52,92.72,36,72.09v.78a.4.4,0,0,0,.06.26h0l.11.07Q71.63,93.83,107,114.42Z"/><path class="cls-11" d="M106.92,113.32v.79a.39.39,0,0,0,.06.26h0c.06.08.15.1.29,0a2.75,2.75,0,0,0,.47-.25,3,3,0,0,0,.46-.32.69.69,0,0,0,.11-.17.5.5,0,0,0,0-.18h0v-1l-.24.17v.87a.31.31,0,0,1,0,.1l-.06.08a2.07,2.07,0,0,1-.41.28l-.41.22s0,0,0,0v-.92Z"/><path class="cls-13" d="M76.42,88.8l15.22,8.76-1,.55,1,1.75L76.41,91.1l-1-1.75,1-.55Zm25.42,8.8v2.3l1.53.88v-2.3l-1.53-.88Zm0,5.81v2.3l1.54.88v-2.3l-1.53-.88Zm1.53.28-1.53-.88v-2.3l1.53.88v2.3ZM80.17,87.44l15.22,8.75-1-1.74,1.05-.56L80.17,85.14l-1,.55,1,1.75Zm13.35,8.29L78.29,87l-1,.55,1,1.75L93.51,98l-1-1.75Z"/><path class="cls-13" d="M38.19,52.92l13.67,7.86v.15L38.19,53.07v-.15Zm0-12.67L51.9,48.11v.15L38.22,40.4v-.15Zm0,2.11v.15l13.67,7.87v-.15L38.22,42.36Zm0,2.12v.15L51.89,52.5v-.15L38.21,44.48Zm0,2v.15l13.67,7.87v-.15L38.21,46.52Zm0,2.12v.15l13.67,7.87v-.15L38.2,48.64Zm0,2.27,13.68,7.86v-.15L38.19,50.76Z"/><path class="cls-13" d="M71,73.9,37.57,54.69v-.26L70.91,73.61a1.67,1.67,0,0,0,.06.29Zm0,15.79a1.5,1.5,0,0,1-.06-.29L37.58,70.23v.25L71,89.69ZM71,87a1.67,1.67,0,0,1-.06-.29L37.58,67.54v.26L71,87Zm0-2.39a1.67,1.67,0,0,1-.06-.29L37.58,65.16v.25L71,84.62Zm0-2.71a1.67,1.67,0,0,1-.06-.29L37.58,62.45v.25L71,81.91Zm0-2.6a1.67,1.67,0,0,1-.06-.29L37.58,59.84v.26L71,79.31Zm-.06-3L37.58,57.14v.25L71,76.6A1.5,1.5,0,0,1,70.91,76.31Z"/><path class="cls-14" d="M70.51,85.91a1.13,1.13,0,0,1,.51.86c0,.31-.23.44-.51.28a1.15,1.15,0,0,1-.41-.46c0-.08-.06-.16-.08-.23a1.11,1.11,0,0,1,0-.17A.54.54,0,0,1,70,86l-.48-.87-.28-1.07,1,1.78a.54.54,0,0,1,.26.07Zm-32.3-28.5a1.08,1.08,0,0,1,.49.7.44.44,0,0,1,0,.15v0l.05,0,3.7,4,.1.51-4-4.3a.35.35,0,0,1-.39,0,1.11,1.11,0,0,1-.51-.86c0-.31.23-.43.51-.27Zm5.29,5.31a1.49,1.49,0,0,1,.55.61l5-1.58,0-.13a1.36,1.36,0,0,1,0-.2c0-.43.32-.6.71-.37a1.53,1.53,0,0,1,.71,1.19.88.88,0,0,1,0,.17.41.41,0,0,1-.17.26c.61,1.48,1.23,3,1.84,4.46l-.24.13Q50.83,65,49.9,62.71a.59.59,0,0,1-.24-.09,1.32,1.32,0,0,1-.46-.45l-5,1.59a.31.31,0,0,1,0,.1v0a.53.53,0,0,1,0,.13c0,.34-.34.46-.7.25a1.54,1.54,0,0,1-.42-.39l-.21-1.12h0c.12-.18.36-.22.63-.06Zm8.7,4.84c.94,2.25,1.87,4.51,2.81,6.76a.9.9,0,0,1,.27.1,1.53,1.53,0,0,1,.63.8l7.91.28a.76.76,0,0,1,0-.15v0a.88.88,0,0,1,0-.17c.09-.28.36-.36.69-.18a1.64,1.64,0,0,1,.68,1,1.5,1.5,0,0,1,0,.2v0a.57.57,0,0,1-.09.34q1.35,2.47,2.72,4.95l-.38-.13-2.58-4.69a.57.57,0,0,1-.38-.09,1.53,1.53,0,0,1-.56-.64l-8-.29v0s0,0,0,.06a.62.62,0,0,1,0,.16c-.1.25-.36.31-.67.13a1.5,1.5,0,0,1-.7-1.1V74.8a.48.48,0,0,1,.17-.41h0c-.93-2.23-1.85-4.46-2.78-6.7l.24-.13ZM69,84.08l-.58-1-.15-.27-.54-1,.37.13L68.7,83Z"/><path class="cls-4" d="M38.45,61.53c-.28-.16-.51,0-.51.28a1.09,1.09,0,0,0,.51.85l.14.06,3.78,9a.48.48,0,0,0-.16.4,1.56,1.56,0,0,0,.71,1.2c.36.2.65.08.71-.27l5.54-.69h0a1.29,1.29,0,0,0,.43.41.49.49,0,0,0,.47.07.2.2,0,0,0,.08,0l5.05,5,.34.34v.08a1.49,1.49,0,0,0,.7,1.19c.4.23.71.06.72-.38V79l.3.06,5.87,1.26a1.56,1.56,0,0,0,.64.84c.38.21.69.06.71-.34V80.7l5.61,1.84a1.16,1.16,0,0,0,.38.41c.28.16.51,0,.51-.28a1.07,1.07,0,0,0-.51-.85c-.28-.17-.51,0-.51.27a.19.19,0,0,0,0,.08l-5.58-1.88a1.6,1.6,0,0,0-.61-.76c-.35-.2-.64-.09-.71.25a.28.28,0,0,1,0,.09l-.24-.05-6-1.29a1.56,1.56,0,0,0-.58-.66.46.46,0,0,0-.6,0L50.5,72.74l-.2-.21s0-.06,0-.09v-.06a1.5,1.5,0,0,0-.71-1.19c-.39-.23-.71-.06-.71.38v.06a1.77,1.77,0,0,0,0,.2A.83.83,0,0,0,49,72l-5.37.69a1.59,1.59,0,0,0-.67-.94.78.78,0,0,0-.32-.1l-3.75-9a.34.34,0,0,0,.1-.28A1.1,1.1,0,0,0,38.45,61.53Z"/><path class="cls-7" d="M68.76,82.11c.57,2.16,1.13,4.32,1.7,6.49a1.08,1.08,0,0,1,.48.83c0,.32-.23.44-.51.28a1.11,1.11,0,0,1-.45-.57.66.66,0,0,1-.06-.27v0a.31.31,0,0,1,.22-.34L68.7,83l-.26-1,.32.11ZM42.85,60.68V60.5a1.54,1.54,0,0,0-.71-1.12.51.51,0,0,0-.48-.06l-2.75-3.49-.11-.14v-.1a1.08,1.08,0,0,0-.51-.83c-.28-.16-.51,0-.51.27a1.09,1.09,0,0,0,.51.86.39.39,0,0,0,.35,0l2.83,3.58a.74.74,0,0,0,0,.17.15.15,0,0,0,0,.07s0,.07,0,.11a1.55,1.55,0,0,0,.7,1.09l.08,0,.25,1.35q.8,4.16,1.57,8.33a.46.46,0,0,0-.21.44,1.09,1.09,0,0,0,0,.18l.06.22a1.61,1.61,0,0,0,.63.79c.28.16.52.12.64-.06a.94.94,0,0,0,.06-.15.88.88,0,0,0,0-.17,1.21,1.21,0,0,0-.07-.36q5.12-2.91,10.21-5.84a1.41,1.41,0,0,0,.42.39c.3.18.56.12.66-.12l9.09,7.56.29.24v0a.17.17,0,0,0,0,.07,1.53,1.53,0,0,0,.7,1.12l.06,0q.85,3.28,1.72,6.57l.33.11c-.58-2.2-1.16-4.41-1.73-6.61a.39.39,0,0,0,.33-.4v-.08a.45.45,0,0,0,0-.11,1.53,1.53,0,0,0-.7-1.08c-.26-.15-.49-.13-.61,0l-9.44-7.84a1.51,1.51,0,0,0-.7-1.11c-.39-.23-.71-.06-.71.38v0a.69.69,0,0,0,0,.2,1,1,0,0,0,0,.17L45,71.16a1.35,1.35,0,0,0-.44-.42.56.56,0,0,0-.2-.08c-.49-2.63-1-5.25-1.48-7.88l-.32-1.73A.4.4,0,0,0,42.85,60.68Z"/><polygon class="cls-7" points="45.45 46.62 45.43 46.66 44.9 48.33 44.85 48.45 44.34 50.05 44.3 50.18 43.91 51.38 45.27 57.1 42.56 55.55 46.96 58.08 48.28 58.84 47.47 55.34 47.15 53.94 47.1 53.76 46.58 51.49 46.54 51.31 46.03 49.13 45.99 48.95 45.46 46.68 45.45 46.62"/><polygon class="cls-4" points="41.9 42.96 41.47 44.23 41.42 44.36 40.87 46.01 40.83 46.14 40.29 47.72 40.25 47.85 39.69 49.5 39.65 49.63 39.09 51.27 39.05 51.4 38.5 53.05 38.45 53.18 42.56 55.55 45.27 57.1 43.91 51.38 43.51 49.72 43.47 49.55 42.95 47.36 42.9 47.18 42.36 44.9 42.32 44.72 41.9 42.96"/><polygon class="cls-15" points="49.33 45.44 49.13 46.52 49.11 46.65 48.77 48.43 48.74 48.57 48.41 50.35 48.38 50.48 48.06 52.19 48.04 52.33 47.7 54.11 47.68 54.24 47.47 55.34 48.28 58.84 46.96 58.08 51.63 60.76 51.6 60.58 51.28 58.44 51.26 58.27 50.93 56.12 50.91 55.95 50.58 53.79 50.56 53.63 50.25 51.56 50.22 51.39 49.9 49.23 49.88 49.07 49.55 46.91 49.53 46.75 49.33 45.44"/><path class="cls-13" d="M50.11,40.68l-5.5-3.16V36.28l5.49,3.16v1.24Zm0-14.65v1.25L38.28,20.46V19.21L50.15,26Zm-6-1.46v1.24l6,3.47V28l-6-3.46Zm6,10.66,0-5.2L38.27,23.21V28.4l11.86,6.83Zm0,1L38.26,29.39V31l11.87,6.82Z"/><path class="cls-13" d="M103.37,97.54l-28-16.08v-.22l28,16.09v.21Zm0-14.77v-.21l-28-16.09v.22l28,16.08Zm0,3v-.21l-28-16.09v.21l28,16.09Zm0,3v-.21l-28-16.09v.21l28,16.09Zm0,2.86v-.21l-28-16.09v.22l28,16.08Zm0,2.77-28-16.09v.22l28,16.08Z"/><path class="cls-15" d="M61.93,34.07v2.84A12,12,0,0,1,67.06,46a4.62,4.62,0,0,1-.58,2.41l2.2,2.71a6.74,6.74,0,0,0,.94-3.65C69.63,42.68,66.22,36.77,61.93,34.07Z"/><path class="cls-16" d="M55.18,43.67l-1.54.08a20,20,0,0,0,7.83,9.33c3.25,1.87,6.12,1.66,7.78-.21L67.72,51l.55.68c-1.46,1.61-4,1.79-6.8.15a17.55,17.55,0,0,1-6.84-8.12Z"/><path class="cls-4" d="M56.86,43.58l-1.68.09-.55,0a17.55,17.55,0,0,0,6.84,8.12c2.84,1.64,5.34,1.46,6.8-.15L67.72,51l-1.65-2c-1,1-2.69,1.12-4.59,0A12,12,0,0,1,56.86,43.58Z"/><path class="cls-4" d="M61.12,33.61c-4.29-2.24-7.72-.27-7.73,4.55a13.41,13.41,0,0,0,.85,4.54l.55,0,1.68-.09a9.29,9.29,0,0,1-.53-2.95c0-3.26,2.29-4.62,5.18-3.18V33.61Z"/><path class="cls-13" d="M61.13,32.35c-4.92-2.6-8.86-.36-8.88,5.16a15.41,15.41,0,0,0,1,5.24l1.54-.08-.55,0a13.41,13.41,0,0,1-.85-4.54c0-4.82,3.44-6.79,7.73-4.55V32.35Z"/><path class="cls-17" d="M61.93,32.81v1.26c4.29,2.7,7.7,8.61,7.69,13.42a6.74,6.74,0,0,1-.94,3.65l1,1.2a7.53,7.53,0,0,0,1.09-4.19C70.77,42.63,66.85,35.88,61.93,32.81Z"/><path class="cls-4" d="M73.63,48.77l3.49,2,0,7.62-3.49-2,0-7.61ZM84.1,53.43l3.49,2,0,9-3.49-2,0-9Zm-1.74-3.85,0,11.82-3.49-2,0-11.82Z"/><path class="cls-6" d="M73.65,41.7l3.49,2v3l-3.49-2v-3Zm10.47,6,3.48,2v2.18l-3.49-2V47.72Zm-1.75-1v1.13l-3.49-2V44.71Z"/><polygon class="cls-15" points="74.74 61.81 74.74 64.6 104.13 81.5 104.13 78.72 74.74 61.81"/><path class="cls-5" d="M87.6,51.91v3.52l-3.49-2V49.9l3.49,2Zm-5.23-4.06v1.73l-3.49-2V45.84l3.49,2Zm-5.25,2.92-3.49-2v-4l3.49,2Z"/><path class="cls-13" d="M105.7,74.81l-7.85-4.52V69.05l7.85,4.51v1.25Zm0-14.65v1.25l-17-9.76V50.41l17,9.75Zm-8.63-3v1.25l8.62,5V62.16l-8.63-5Zm8.61,12.15V64.16l-17-9.76v5.2l17,9.75Zm0,1-17-9.76v1.64l17,9.75Z"/><polygon class="cls-4" points="73.25 39.32 73.25 40.63 105.75 59.33 105.75 58.01 73.25 39.32"/><path class="cls-13" d="M70.68,71,62.4,66.22V65.11l8.29,4.77V71ZM61.62,54.51l9.1,5.23v1.11l-9.09-5.23V54.51Zm9.09,7L52.82,51.23l0,4.61,17.9,10.3V61.52Zm0,5.49L52.8,56.72v1.45l17.89,10.3Z"/><polygon class="cls-4" points="91.64 97.56 90.6 98.11 91.63 99.86 101.81 105.71 101.82 103.41 91.64 97.56"/><polygon class="cls-7" points="93.52 95.72 92.48 96.28 93.51 98.03 101.82 102.81 101.83 100.51 93.52 95.72"/><polygon class="cls-14" points="95.4 93.89 94.36 94.45 95.39 96.19 101.83 99.9 101.84 97.6 95.4 93.89"/><path class="cls-4" d="M101.48,86.47l.63.36v.75l.56.33v3l-.57-.32h0v.74l-.63-.36v-.76l-.57-.32v-3l.57.32v-.75ZM81.23,74.86l.63.36V76l.56.33v3L81.85,79v.75l-.63-.36v-.76l-.57-.32v-3l.57.32v-.75Zm-2,1.46.63.36v.75l.57.33v3l-.56-.32v.75l-.63-.37v-.75l-.57-.32V76.74l.57.33v-.75Zm-2-1.65v-.75l.63.36V75l.56.33v3l-.57-.33v.76l-.63-.37v-.75l-.57-.32v-3l.57.33Zm5.9-1.78.63.36V74l.57.33v3l-.57-.32v.75l-.63-.37v-.74l-.56-.33v-3l.56.33v-.75Zm2-2.06.63.36v.75l.56.33v3L85.74,75v.75l-.63-.36v-.75l-.57-.32v-3l.57.33v-.75Zm2.13,4.09.63.36V76l.57.33v3l-.57-.32v.75l-.63-.37v-.74l-.56-.33v-3l.56.32v-.75Zm2.07,4.26.63.36v.75l.57.32v3l-.57-.33v.75l-.63-.36V83l-.57-.33v-3l.57.32v-.74Zm1.93,4,.63.36v.75l.57.33v3l-.56-.33v.75l-.62-.36V87l-.57-.32v-3l.57.33v-.75ZM93.43,86l.63.36v.75l.57.33v3l-.56-.32v.75l-.63-.37v-.74l-.57-.33v-3l.57.32V86Zm2.08,2.22.63.36v.75l.56.33v3l-.56-.33v.75l-.63-.36V92l-.57-.32v-3l.57.33v-.75Zm2-.25v-.61l.63.37v.74l.56.33v3l-.57-.32v.75l-.63-.36v-.75l-.57-.33v-3l.57.32V88Zm2.62-1v.75l.56.33v3l-.57-.32v.75l-.63-.37v-.74l-.57-.33V87l.57.33v-.75Z"/><path class="cls-18" d="M110.92,137.39,96.17,129c-1.61-.74-4-1.43-5.55-.47l-4,2.46c-.81.5-3.48,2.14-1.7,3.11,5.26,2.85,10.24,6.12,15.58,9a7.44,7.44,0,0,0,4,.62,10.27,10.27,0,0,0,4.37-1.3l1.61-1c1.14-.7,1.77-1.47,1.83-2.2S111.91,137.84,110.92,137.39Z"/><path class="cls-19" d="M104.2,69.84a10.73,10.73,0,0,1-.13,3.73c-.61,4.3-.08,5.22,1.22,9.7l-6.13-5.7a20.68,20.68,0,0,1,.12-2.41L102,72.5Z"/><path class="cls-20" d="M79.05,75.87c-.47.47.41.85.68.91s1.08,0,1.19.32,2.25,0,2.23,0a2.86,2.86,0,0,0-1.61-.86,10.9,10.9,0,0,1-1.84,0C79.52,76.1,79.35,76,79.05,75.87Z"/><path class="cls-21" d="M79,76c-.23.42.62.77.86.82.63.11.58,0,.94.27.16.09.87,0,.64-.31a9,9,0,0,0-1-.15A2.21,2.21,0,0,1,79,76Z"/><path class="cls-22" d="M83.68,77.32l-.07,0c-.26-.14-.66,0-.94.43s-.52,1.12-.18,1.36S84.14,78.12,83.68,77.32Z"/><path class="cls-20" d="M84.48,78.53a15,15,0,0,0-1.28-1.45c-.71-.6-1.11-.67-2.94-.18-.45.12-.34.13-.77-.05l-1.69-.77c-.42-.12-.72-.09-.82,0a2.56,2.56,0,0,0,0,1.47c.07.17.06,0,.25.07l2.47,1.16a.57.57,0,0,0,.51.06c1.24-.37,2-.7,3.17.15a8.22,8.22,0,0,0,.73.57Z"/><path class="cls-21" d="M84.32,79.4c-.27-.18-.5-.35-.7-.5-1-.76-1.2-.91-3.6-.23L77.9,77.53c-.42-.12-.79-.19-.89-.07s.13.47.76.63L80,79.31l.11,0c2.21-.62,2.36-.51,3.17.1l.73.53Z"/><path class="cls-23" d="M89.41,86.29a1.48,1.48,0,0,0,.81.61,2.78,2.78,0,0,0,1.66-.5c1.58-.82,4.27-4.25,7-9.57-.28,0-2.26-1.07-2.49-1.13-.82-.25-1.3.33-1.71.86a19.34,19.34,0,0,0-1.46,2.81c-.5,1-1.89,2-2.64,3.33Z"/><path class="cls-23" d="M83.61,77.26a1.42,1.42,0,0,1-1.1,1.82,27,27,0,0,0,7.2,7.61,1.2,1.2,0,0,0,.89.22c.51-.07,1-.62,1.38-1.06l-1.35-3C89.57,81.39,86,79,83.61,77.26Z"/><path class="cls-23" d="M83.24,78.72a1.11,1.11,0,0,1-.73.36,27,27,0,0,0,7.2,7.61,1.2,1.2,0,0,0,.89.22l.08,0a4.33,4.33,0,0,0,1.2-.49c1.58-.82,4.27-4.25,7-9.57-.28,0-2.16-1.18-2.39-1.22-1.12-.18-1.8,1-2.25,2.71-.31,1.24-2.78,2.24-1.82,5.83-1,1.09-1.74,1.61-1.94,1.59-.36,0-1.23-1.07-2.37-2.12A48.7,48.7,0,0,1,83.24,78.72Z"/><path class="cls-24" d="M83.61,77.26a1.3,1.3,0,0,1-.16,1.18c2.33,1.42,7,4.5,7.17,7a5.06,5.06,0,0,0-.14-2.75C89.1,81,85.79,78.79,83.61,77.26Z"/><path class="cls-20" d="M98.86,96.4c.55,1.7,0,4.52-.43,7.47-.25,1.62-.66,3.29-.85,4.72,0,.23-.06.44-.09.65a13.38,13.38,0,0,0-.17,2.75c.14,1.87.93,2.27,1.22,4.7.36,3-1.19,6.34-1.08,9.59a2.06,2.06,0,0,0,.39.8c1.31,1.6,0,1.39.09,3.51,0,.19-.71,3.42-.71,3.42s-1.94.53-2.08.51-1.35-.43-1.35-.43c.09-.18.21-.61.29-.77a14.84,14.84,0,0,0,1-6.2,69.62,69.62,0,0,0-1.52-12.32A36.11,36.11,0,0,1,93,110a66.16,66.16,0,0,1,.13-13.18Z"/><path class="cls-20" d="M103.46,105.69c-.47,4.6-1.21,6.4-1,8.3.12,1.25,1.24,3.06,1.48,4.26.52,2.67-.65,7-1.05,10.82a5.66,5.66,0,0,0,.19,1.14,14.62,14.62,0,0,1,.12,2,18.19,18.19,0,0,1-.45,3.64c-.12.51-.34.73-.49,1.42l-3,.49c.3-1.13.73-3.42,1-5.33.16-1,.38-2,.39-2.56.09-3.69-.66-5.11-1.12-8.95-.19-1.59.07-2.48-.52-3.73a20.62,20.62,0,0,1-.76-2,8,8,0,0,1-.38-2.71c.06-1.5.25-3.7.66-6.67l4.87-.61Z"/><path class="cls-25" d="M103,130a5.45,5.45,0,0,1,.39,1.74c0,.81-.35,2.09-.32,3.1l0,1.61a2.45,2.45,0,0,1-1.27,2.35c-1,.71-1.9,1-2.41.74s-.67-.84-.1-2.59a31,31,0,0,0,.89-4.45,16.19,16.19,0,0,1-.51,3.59c-.11.42-.17,1.13.33,1.2,2.09.3,2.19-.26,2.37-.9A21.31,21.31,0,0,0,103,130Z"/><path class="cls-25" d="M94.34,132.73c-.2.38-.43.93-.62,1.34a8.07,8.07,0,0,0-.49,1.3.62.62,0,0,0,0,.53c.46.62,2.8-.52,3.59-1.21a2.42,2.42,0,0,0,.64-1.63c.17-1,.2-1.08.44-2.07l.26,2.7.32.15a31.76,31.76,0,0,1,.24-3.52c.07-.37.18-.8.2-1a2.13,2.13,0,0,0-1.07-2.17c.21.74-.33,2-.58,3.48s-1.14,3.35-1.84,3.49c-.29.07-.94-.3-1.29-.5C94.06,133.53,94.21,133.08,94.34,132.73Z"/><path class="cls-26" d="M93.94,136.07a7.1,7.1,0,0,0,2.93-1.38,2.42,2.42,0,0,0,.64-1.63c.17-1,.2-1.08.44-2.07l.26,2.7.32.15a31.76,31.76,0,0,1,.24-3.52c.07-.37.18-.8.2-1a2.13,2.13,0,0,0-1.07-2.17c.21.74-.33,2-.58,3.48a6.31,6.31,0,0,1-1.46,3.27A10.58,10.58,0,0,1,93.94,136.07Z"/><path class="cls-26" d="M103,130a5.45,5.45,0,0,1,.39,1.74c0,.81-.35,2.09-.32,3.1l0,1.61a2.45,2.45,0,0,1-1.27,2.35,3.64,3.64,0,0,1-2,.83,4.66,4.66,0,0,0,1.26-2.25c1.07,0,1.16-.48,1.3-1A21.31,21.31,0,0,0,103,130Z"/><path class="cls-27" d="M98.39,95.73c.47,1.79,2,1.85,1.33,4.84s-2.45,8.72-2.24,11.47c.15,1.87.77,2.22,1.06,4.65.36,3-.4,7.22-.29,10.47a2.61,2.61,0,0,1-3.39,2c-.36-2.86-.87-12.49-1.64-15.54a14.4,14.4,0,0,1-.54-4.19,87,87,0,0,1,0-12.71,12.74,12.74,0,0,1,.13-2.32Z"/><path class="cls-28" d="M99.72,100.57c-.64,3-2.45,8.72-2.24,11.47.15,1.87.77,2.22,1.06,4.65.36,3-.4,7.22-.29,10.47a2.61,2.61,0,0,1-2,2.12c.37-5.67,1-10.47-.75-15.12a5.74,5.74,0,0,1-.27-2.26,115.34,115.34,0,0,1,1.61-13.09Z"/><path class="cls-27" d="M102,93.88c.48,1.5,1.88,2.32,2.58,5,.44,1.7.07,4.33-.56,7.28-.34,1.62-.85,3.29-1.13,4.72a15.34,15.34,0,0,0-.29,2.71c0,1.64,1,3.07,1.34,4.65.52,2.67-.16,8.67-.56,12.49.37,1.08-2.07,2.81-3.63,1.56a80.25,80.25,0,0,0-.24-11.36c-.19-1.59.07-2.48-.52-3.73a18.42,18.42,0,0,1-.81-2c0-.15-.1-.3-.14-.46a6.33,6.33,0,0,1-.29-2.74l.3-10.35-.51-.53a37.35,37.35,0,0,1-4.8-5.56,3,3,0,0,1,0-.72,6,6,0,0,1,.11-.72c.25-1.23.7-2.12.89-3.09,3.27,2.15,5.78,3.1,8.18,2.49a1.75,1.75,0,0,1,0,.33Z"/><path class="cls-29" d="M100.84,102.34c-.31,2.11-.77,6.37-1,8.28a14.71,14.71,0,0,1-.51,3.25c-.33.32-.87.94-1.27-.26a25.82,25.82,0,0,1,.09-4.22c.07-1.76.17-5.88.22-7.79,0-.32-1.65-1.59-2.48-2.37-.44,2.32-1.34,12.24-1.52,12.42s-.85.74-1.24-.46c-.11-.35-.4-8.91-.23-12.82v-.61a14,14,0,0,1,.86-5.45,13.85,13.85,0,0,0,5.62,2.37c-.44,1.61-.51,1.66-2.4,1.28-.8-.16-1.41-.34-1.66,0-.61.92.52,1.86,1.24,2.38,1.42,1,2.46.92,3.67,1.85A2.25,2.25,0,0,1,100.84,102.34Z"/><path class="cls-29" d="M99,116.18l1.61.57c1.57,4.89,1.06,9.32.7,15.62-.38,0-.91,0-1.19-.24,0-2.75,0-5.17,0-7.67,0-1.29-.19-2.61-.31-4C99.52,118.14,99.85,118.68,99,116.18Z"/><path class="cls-29" d="M93.26,113.39l1.62.58c1.56,4.89,1.52,8.88,1.17,15.17a1.59,1.59,0,0,1-1.11-.16c0-2.75-.35-4.78-.45-7.28,0-1.29-.19-2.6-.31-4A10.14,10.14,0,0,0,93.26,113.39Z"/><path class="cls-28" d="M104.58,99c.44,1.7.07,4.33-.56,7.27a1.29,1.29,0,0,1,0,.19c-.34,1.53-.8,3.1-1.07,4.45a15.34,15.34,0,0,0-.29,2.71c0,1.64,1,3.07,1.34,4.65.52,2.67-.16,8.67-.56,12.49.24.69-.67,1.64-1.76,1.92.53-6.76.88-11.5-.78-16.63a5.67,5.67,0,0,1-.36-2.08c-.26-4.13,1.11-10.52,1.17-12.19.08-2.19-1.6-2.11-4-3.18s-2.94-2.78-1.08-2.18c2.31.73,3.8.13,3.68-1-.06-.56-.14-1.11-.15-1.57l-.07-.1a6.22,6.22,0,0,0,1.88-.17,3.14,3.14,0,0,0,.08.38,7.37,7.37,0,0,0,1,1.93A9.43,9.43,0,0,1,104.58,99Z"/><path class="cls-23" d="M103,89.38A8.51,8.51,0,0,0,102,93.62c-1.85,1.27-5.95-.51-8.24-2.32,0-.08,0-.16,0-.24.29-1.47-.32-2.71-.16-4.4,0-.46.09-.92.13-1.38.16-1.55.33-3.1.51-4.46.31-2.39.58-4.31.92-4.37,4.36-1.28,5.91,1.34,8,2.44,1.47.79,2.84,1.25,3,2.87C106.28,84,104,87.4,103,89.38Z"/><path class="cls-23" d="M95.3,78c1.61,1.55,5.46,3.46,7.36,4.38.55.27,1.88,3.39,2.39,2.67,3.43-4.79-3.42-7.74-7-9.26-1.45-.6-2.28-.27-2.74.39A1.28,1.28,0,0,0,95.3,78Z"/><path class="cls-22" d="M103,89.38A8.51,8.51,0,0,0,102,93.62a3,3,0,0,1-1.82.42c0-.16,0-.33,0-.5.06-1.46.75-2.54-.29-3.68a4.71,4.71,0,0,0-1.47-.68c-1.79-.66-2.19-1.68-3.11-2.12-.57-.29-1.11-.53-1.63-.77,0-1.88.83-3.76,1.42-5.52l7.27,2.8a7.56,7.56,0,0,1,2.1-4,2.63,2.63,0,0,1,1.65,2.19C106.28,84,104,87.4,103,89.38Z"/><path class="cls-23" d="M96,85.92c.69.36,1.36,1.38,2.45,2a2.69,2.69,0,0,0,3.35-.66,6.33,6.33,0,0,0,.38-1.73,8.26,8.26,0,0,1,1.66-5.19,8.63,8.63,0,0,1-2-1.36l-5-2.71-1.59.42a13.34,13.34,0,0,1-1.82,3.72,3.45,3.45,0,0,0-.56,2.81C93.2,84.77,94.71,85.29,96,85.92Z"/><path class="cls-22" d="M102.67,82.38c.55.28,1.87,3.39,2.38,2.67,1.17-1.63,1.78-3.67.08-5.17A28.6,28.6,0,0,0,98,75.79a2.36,2.36,0,0,0-2.33,0l.88.36,5.16,2.33c.77.63,1.31,1.31,2.08,2A7.14,7.14,0,0,0,102.67,82.38Z"/><path class="cls-21" d="M101.68,77.78c.08.57-.42,1.15-1.29,1.67-1.34.81-3.53,0-3.29-1a1.77,1.77,0,0,0,.11-1,6.37,6.37,0,0,0-.77-2.38l3.75-1.48,1-.42A6.33,6.33,0,0,0,101.68,77.78Z"/><path class="cls-30" d="M101.6,77.59c-1.73-1.87-3.29-1.24-4.62-1.68,0-.1-.15-.4-.18-.44-.12-.33-.17-.28-.33-.71l3.75-1.48,1-.41A6.74,6.74,0,0,0,101.6,77.59Z"/><path class="cls-24" d="M96,85.19c.93.41,1.13,1.22,2.14,1.77a2.3,2.3,0,0,0,3-.46,5.89,5.89,0,0,0,.35-1.61,6.42,6.42,0,0,1,1.36-4.43c-.32-.18-1.11-.6-1.41-.79-1.74.84-3.38,1.09-4.46.16A2.88,2.88,0,0,1,97,77.11l-1.48-1a16.13,16.13,0,0,1-2.09,4.37,2.45,2.45,0,0,0-.54,2.24C93.19,84.19,94.83,84.67,96,85.19Z"/><path class="cls-24" d="M93.75,91.3a5.65,5.65,0,0,0,0-2.31,8.36,8.36,0,0,1-.15-2.14c.57.68,1.61.53,2.25,1.29a5.48,5.48,0,0,0,2.35,1.66c1.54.57,1.67.61,1.45,1.84A8.36,8.36,0,0,0,99.53,94,14.61,14.61,0,0,1,93.75,91.3Z"/><path class="cls-23" d="M106.7,82.29a43.62,43.62,0,0,1,1.77,8.46,11.63,11.63,0,0,1,.19,1.42c-.08,1-2.33,2.08-3-.53-.36-1.53-1-2.92-1.86-5.79s-.29-5,1-5.38C105.67,80.22,106.37,81.38,106.7,82.29Z"/><path class="cls-24" d="M106.52,91.74c-.18-.25-.78-.49-1-.66-.38-1.34-1-2.72-1.72-5.23s-.43-4.37.45-5.1C104.93,83.74,106,88.48,106.52,91.74Z"/><path class="cls-23" d="M106.7,82.29a43.62,43.62,0,0,1,1.77,8.46,11.63,11.63,0,0,1,.19,1.42,1.42,1.42,0,0,1-2.64.31,3.79,3.79,0,0,0,1.11-.5c.23-.29.13-.54,0-1.08-.77-3.5-1.58-6.9-2.48-10.38l.13,0C105.67,80.22,106.37,81.38,106.7,82.29Z"/><polygon class="cls-31" points="103.92 82.94 103.26 82.57 103.26 96.08 103.92 96.45 103.92 82.94"/><polygon class="cls-32" points="103.26 82.57 95.84 86.79 95.84 100.3 103.26 96.08 103.26 82.57"/><polygon class="cls-33" points="103.25 82.79 96.12 86.83 96.16 100.04 96.8 100.4 103.25 95.7 103.88 83.15 103.25 82.79"/><polygon class="cls-4" points="103.92 82.94 96.5 87.16 96.5 100.67 103.92 96.45 103.92 82.94"/><path class="cls-34" d="M99.87,95.42l1.22-.44-.19-1.37c-.67-.4-1.17-.53-1.45-.42a.59.59,0,0,0-.14.06C98.88,93.52,99.34,95.55,99.87,95.42Z"/><path class="cls-21" d="M97.49,96.54a6.65,6.65,0,0,1-1.77-.61c-.3-.14-.39-2.25-.36-2.25.38.06,1.44.53,1.84.58l2.83-.9.46,1,.22.87a3.48,3.48,0,0,0-.78.15A12,12,0,0,1,97.49,96.54Z"/><path class="cls-20" d="M97.3,94.62a8,8,0,0,1-1.85-.88l-.09-.06c0-.06.36-.06.5,0a11,11,0,0,0,1.45.51c.49-.15,1.86-.69,2.33-.89l.41,0C99.37,93.65,98.1,94.35,97.3,94.62Z"/><path class="cls-20" d="M96.74,93.82c-.08.58.8.31,1,.2s1.87-.45,1.6-.54a2.76,2.76,0,0,0-1.37-.1c-.3.08-.31.19-.62.29A3.43,3.43,0,0,1,96.74,93.82Z"/><path class="cls-23" d="M108.57,92.59a1.65,1.65,0,0,1-.63.84,7.42,7.42,0,0,1-1.28.58c-1.87.86-3.89,1-6.8,1.41.39-.61.11-2.06-.56-2.17a37.48,37.48,0,0,1,6.25-2.12c.32.14,1,.74,1.07.72C107.19,91.73,109.08,91.12,108.57,92.59Z"/><path class="cls-24" d="M100.15,93.86c-.09-.24-.24-.65-.51-.75a35.51,35.51,0,0,1,5.62-1.91c.26,0,.75.39,1,.6Z"/><path class="cls-23" d="M108.57,92.59a1.65,1.65,0,0,1-.63.84,7.42,7.42,0,0,1-1.28.58c-1.87.86-3.89,1-6.8,1.41a1.69,1.69,0,0,0,.15-1.14c3-.86,6.85-2,7.12-2.3s.14-.52,0-1C108.05,91.22,109,91.41,108.57,92.59Z"/><path class="cls-35" d="M96.5,75.37c-2,1.53-2.62,5.16-2,8.31.22-2,1-5.15,2.75-6.18a4.43,4.43,0,0,0-.38-1.65S96.52,75.37,96.5,75.37Z"/><path class="cls-36" d="M96.57,76.07a1,1,0,0,0-.39-.18,8.89,8.89,0,0,0-1.79,5.91A10.92,10.92,0,0,1,96.57,76.07Z"/><path class="cls-19" d="M94.5,83.48c.43-3,1.13-4.75,2.72-6a4.75,4.75,0,0,0-.3-1.45C94.94,78.21,94.42,82.13,94.5,83.48Z"/><path class="cls-35" d="M96.41,72.12l1.79-.62V68.57l-.82-2.28C95,67.14,95.12,71.62,96.41,72.12Z"/><path class="cls-35" d="M101.43,75.92c1.7-.65,2.89-3.52,2.87-5.42a7.21,7.21,0,0,0-.62-2.72,3.59,3.59,0,0,0-3.43-1.93c-.55,0,1,.47.3.76l.5,4.83C100.86,73.7,100.68,73.77,101.43,75.92Z"/><path class="cls-20" d="M97.35,75.79c2.18-.39,3-1.25,3.92-3.18,1-.39,1.48-.79,1.7-1.32a4.06,4.06,0,0,0-.65-3.83,3.57,3.57,0,0,0-2.81-1.37,3.75,3.75,0,0,0-4,3,5.86,5.86,0,0,0-.06,1.57c0,.65-.21.42-.33,1.05a10.48,10.48,0,0,0,.07,2.43c.08.66,0,1.3.26,1.47A2.8,2.8,0,0,0,97.35,75.79Z"/><path class="cls-21" d="M97.35,75.79c2.19-.39,3-1.25,3.92-3.18,1-.39,1.48-.79,1.7-1.32a4.06,4.06,0,0,0-.65-3.83,3.57,3.57,0,0,0-2.81-1.37,4.08,4.08,0,0,0-3.37,1.59,7.1,7.1,0,0,0,2.43,3.48c.42.31.55.43.55.8,0,.76-.87.63-1,1s.79.59.39,1.51a6.53,6.53,0,0,1-1.33,1.37Z"/><path class="cls-35" d="M96.11,67.34c1.62,4.18,5.15,5,5.12,5.88,0,.7,1.4-.42,1.77-1a4.45,4.45,0,0,0-.69-5.38C100.5,65.05,97.18,65.61,96.11,67.34Z"/><path class="cls-19" d="M101,74.5a5.11,5.11,0,0,0,3.17-4.72.5.5,0,0,1,0,.12,2.88,2.88,0,0,0-.93-1.88,4.19,4.19,0,0,1,.53,2.76,4.37,4.37,0,0,0-.86-2.34,7.13,7.13,0,0,1,.39,2.39,4.44,4.44,0,0,0-1.09-2.11,3.44,3.44,0,0,1,.45,2.76,3.53,3.53,0,0,0-1.16-2.55,3.47,3.47,0,0,1,.54,2,4.28,4.28,0,0,0-1-1.68,4.79,4.79,0,0,1,.46,1.73c-.28-.52-.49-1-.87-1.58a6.94,6.94,0,0,1,.39,2.08,13.11,13.11,0,0,0-1.65-1.73,7.67,7.67,0,0,0,1.41,2.08c0,.14-2-.93-4.08-3.4,1,2,2.73,2.87,4.22,4.27l-.06.82A2.5,2.5,0,0,0,101,74.5Z"/><path class="cls-21" d="M101.73,71.29c.9-.21.8.8.61,1.4-.14.4-.48.34-.64.65a.81.81,0,0,1-.78.5c-.53-.07-.12-.82,0-1.13C100.89,72.19,101.16,71.42,101.73,71.29Z"/><path class="cls-30" d="M101.23,72.44c.23-.39.37-.92,1-.79C101.66,71.64,101.5,72.09,101.23,72.44Z"/><path class="cls-19" d="M104.27,70.19a7,7,0,0,1-3,6.21,5.13,5.13,0,0,1-.36-2.05C103.47,72.52,102.85,73.32,104.27,70.19Z"/><path class="cls-36" d="M96.26,67.5c.26-1.14,2.12-2,4.13-1.64a3.92,3.92,0,0,1,2.85,1.34,5.51,5.51,0,0,0-2.77-1.13A4.19,4.19,0,0,1,103,67.88a4.28,4.28,0,0,0-2.64-1.55,3.45,3.45,0,0,1,1.78,1.48A6,6,0,0,0,100,66.49,2.94,2.94,0,0,1,101.35,68c-.81-.78-.84-1.06-1.95-1.37a7.31,7.31,0,0,1,1.5,1.66,12.4,12.4,0,0,0-2-1.38,7.67,7.67,0,0,1,1.24,1.52,7.7,7.7,0,0,0-1.93-1.36A8.71,8.71,0,0,1,100,69.21a15.47,15.47,0,0,0-2.12-1.82c.47.69.8,1.09,1.28,1.77a14.55,14.55,0,0,1-2.08-1.88c.41.6,1.64,2.31,2.16,2.89a20.93,20.93,0,0,1-2.51-2.67,4.62,4.62,0,0,0,1.16,1.93A5.74,5.74,0,0,1,96.26,67.5Z"/><path class="cls-37" d="M96.93,71.2a.24.24,0,0,0-.33.22v1a.24.24,0,0,0,.15.22,8.09,8.09,0,0,0,1.48.46.24.24,0,0,0,.29-.23v-1a.23.23,0,0,0-.2-.23,8.18,8.18,0,0,1-1.39-.4Zm-1.69-1.35v1.53h0a1.29,1.29,0,0,0,.49.65.24.24,0,0,0,.39-.18v-.94a.26.26,0,0,0-.1-.19c-.38-.26-.73-.57-.78-.87Z"/><path class="cls-38" d="M96.91,71.26l-.07,0a.19.19,0,0,0-.1,0,.24.24,0,0,0-.06.08.15.15,0,0,0,0,.07v1a.3.3,0,0,0,0,.1.24.24,0,0,0,.08.06c.21.09.44.18.69.26s.5.14.78.2h0a.15.15,0,0,0,.11,0,.17.17,0,0,0,.06-.1V71.83a.15.15,0,0,0,0-.11.17.17,0,0,0-.1-.06,7.29,7.29,0,0,1-.74-.18l-.66-.22Zm.7.1q.35.11.72.18a.27.27,0,0,1,.18.1.32.32,0,0,1,.07.19v1a.13.13,0,0,1,0,.06.27.27,0,0,1-.1.17.33.33,0,0,1-.19.06h-.07c-.28-.06-.54-.13-.79-.21a5.69,5.69,0,0,1-.7-.26.3.3,0,0,1-.18-.27v-1a.5.5,0,0,1,0-.12.37.37,0,0,1,.12-.13.28.28,0,0,1,.16,0l.12,0a5.5,5.5,0,0,0,.65.22ZM95.3,70.13v1.12a.49.49,0,0,0,0,.12.71.71,0,0,0,.15.3,2.36,2.36,0,0,0,.32.31.15.15,0,0,0,.11,0H96L96,72a.15.15,0,0,0,0-.11v-.94a.31.31,0,0,0,0-.08.17.17,0,0,0-.06-.06,3.72,3.72,0,0,1-.52-.43l-.17-.21Zm.77.54a.31.31,0,0,1,.09.11.33.33,0,0,1,0,.13v.94a.32.32,0,0,1-.07.19l-.11.08a.28.28,0,0,1-.13,0,.3.3,0,0,1-.19-.07,2.18,2.18,0,0,1-.34-.34,1,1,0,0,1-.15-.26c0-.06,0-.11,0-.16V69.79h.12v0a.85.85,0,0,0,.25.42A3.65,3.65,0,0,0,96.07,70.67Z"/><path class="cls-38" d="M96.6,71.52a1,1,0,0,1-.25-.06.59.59,0,0,1-.19-.13l-.08.09a.86.86,0,0,0,.22.15,1,1,0,0,0,.29.07Z"/><polygon class="cls-38" points="98.57 72.4 101.25 71.61 101.33 71.51 101.42 71.44 98.53 72.29 98.57 72.4"/><polygon class="cls-1" points="139.21 84.89 140.3 84.25 140.24 106.95 139.14 107.59 139.21 84.89"/><polygon class="cls-2" points="114.06 70.37 115.16 69.73 140.3 84.25 139.21 84.89 114.06 70.37"/><polygon class="cls-11" points="139.21 84.89 139.14 107.59 114 93.07 114.06 70.37 139.21 84.89"/><path class="cls-39" d="M126.62,98.72c4.34,2.56,7.83.52,7.82-4.57s-3.54-11.26-7.87-13.82Q126.6,89.51,126.62,98.72Z"/><path class="cls-40" d="M121,79.74c-1.42.82-2.29,1.33-2.28,5.14s3.54,11.28,7.87,13.84l0-9.2Q123.82,84.63,121,79.74Z"/><path class="cls-7" d="M126.17,78.87c-2.17-1.28-4.13-1.41-5.55-.59q2.79,4.89,5.57,9.78h0C126.18,85,126.18,81.93,126.17,78.87Z"/><polygon class="cls-32" points="35.66 27.82 36.57 27.3 36.51 46.63 35.61 47.16 35.66 27.82"/><polygon class="cls-41" points="18.89 18.14 19.8 17.61 36.57 27.3 35.66 27.82 18.89 18.14"/><polygon class="cls-4" points="35.66 27.82 35.61 47.16 18.84 37.48 18.89 18.14 35.66 27.82"/><polygon class="cls-32" points="21.99 30.82 23.86 29.65 26.2 32.04 29.99 28.07 31.3 28.77 31.3 28.77 31.3 28.77 33.17 27.6 27.12 38.96 25.25 37.99 20.29 30.11 21.99 30.82"/><polygon class="cls-2" points="20.29 29.93 22.16 28.85 23.86 29.51 22.04 30.77 20.29 29.93"/><polygon class="cls-1" points="21.99 30.6 23.86 29.51 26.58 32.09 24.7 33.36 23.13 32.19 21.99 30.6"/><polygon class="cls-1" points="31.3 28.69 33.17 27.6 27.3 36.48 25.44 37.57 28.55 32.44 31.3 28.69"/><polygon class="cls-2" points="29.99 28.04 31.85 26.95 33.17 27.6 31.3 28.69 30.4 28.61 29.99 28.04"/><polygon class="cls-3" points="29.99 28.04 31.3 28.69 25.44 37.57 20.29 29.93 21.99 30.6 24.71 33.18 29.99 28.04"/><polygon class="cls-1" points="141 55.12 142.2 54.42 142.13 79.35 140.93 80.05 141 55.12"/><polygon class="cls-2" points="113.37 39.17 114.58 38.47 142.2 54.42 141 55.12 125.64 46.59 113.37 39.17"/><polygon class="cls-3" points="141 55.12 140.93 80.05 113.3 64.1 113.37 39.17 141 55.12"/><polygon class="cls-32" points="123.61 68.48 123.94 68.29 123.94 69.13 123.62 69.31 123.5 68.96 123.61 68.48"/><polygon class="cls-41" points="114.4 63.21 114.12 62.99 114.44 62.8 123.94 68.29 123.62 68.47 122.97 68.25 114.4 63.21"/><polygon class="cls-4" points="123.62 68.47 123.62 69.31 114.12 63.83 114.12 62.99 123.62 68.47"/><polygon class="cls-32" points="123.36 60.3 123.88 60 123.85 67.28 123.34 67.58 123.36 60.3"/><polygon class="cls-41" points="113.86 54.82 114.37 54.52 123.88 60 123.36 60.3 113.86 54.82"/><polygon class="cls-4" points="123.36 60.3 123.34 67.58 113.84 62.09 113.86 54.82 123.36 60.3"/><polygon class="cls-1" points="139.54 67.01 140.06 66.71 140.06 67.85 139.54 68.15 139.54 67.01"/><polygon class="cls-10" points="113.81 52.15 114.33 51.85 140.06 66.71 139.54 67.01 113.81 52.15"/><polygon class="cls-2" points="139.54 67.01 139.54 68.15 113.81 53.3 113.81 52.15 139.54 67.01"/><polygon class="cls-1" points="139.54 64.9 140.06 64.6 140.06 65.75 139.54 66.05 139.54 64.9"/><polygon class="cls-10" points="113.81 50.05 114.33 49.75 140.06 64.6 139.54 64.9 113.81 50.05"/><polygon class="cls-2" points="139.54 64.9 139.54 66.05 113.81 51.19 113.81 50.05 139.54 64.9"/><polygon class="cls-1" points="139.54 62.8 140.06 62.5 140.06 63.64 139.54 63.94 139.54 62.8"/><polygon class="cls-10" points="113.81 47.95 114.33 47.65 140.06 62.5 139.54 62.8 113.81 47.95"/><polygon class="cls-2" points="139.54 62.8 139.54 63.94 113.81 49.09 113.81 47.95 139.54 62.8"/><polygon class="cls-1" points="139.54 60.7 140.06 60.4 140.06 61.54 139.54 61.84 139.54 60.7"/><polygon class="cls-10" points="113.81 45.84 114.33 45.54 140.06 60.4 139.54 60.7 113.81 45.84"/><polygon class="cls-2" points="139.54 60.7 139.54 61.84 113.81 46.98 113.81 45.84 139.54 60.7"/><polygon class="cls-32" points="139.29 55.75 139.81 55.45 139.8 58.24 139.29 58.54 139.29 55.75"/><polygon class="cls-41" points="113.74 41 114.26 40.7 139.81 55.45 139.29 55.75 113.74 41"/><polygon class="cls-4" points="139.29 55.75 139.29 58.54 113.74 43.79 113.74 41 139.29 55.75"/><path class="cls-42" d="M137.52,63.56l.2,0,.38-.32a3.28,3.28,0,0,0-1.5-2.6l-.32.12L136,61A20.49,20.49,0,0,1,137.52,63.56Z"/><path class="cls-43" d="M128.76,61.84l.47-.4a1,1,0,0,1-1-.15,3,3,0,0,1-1.12-1.79c-.07-.43,0-1,.34-1.17l-.64.34c-.61.36-.5,1.53.07,2.35C127.75,62.29,128.45,62,128.76,61.84Z"/><path class="cls-42" d="M125,54.63l.58-.35a1.08,1.08,0,0,0-1.07-.11l-.58.34A1.09,1.09,0,0,1,125,54.63Z"/><path class="cls-43" d="M127.65,63.11l-.61.34c-.17.07,0,.39.09.53a13.15,13.15,0,0,0,1.84,2.2,8.44,8.44,0,0,0,1.86,1.34,3.82,3.82,0,0,0,3.09.26l.57-.38a4.26,4.26,0,0,1-4.27-1.09C129,65.26,127.54,63.62,127.65,63.11Z"/><path class="cls-43" d="M137.5,71.91a1.24,1.24,0,0,1-.44,1l.58-.34a1.06,1.06,0,0,0,.43-1Z"/><path class="cls-43" d="M134.75,64.63c-.68.36-1.57-.63-1.82-1.08s-.53-1.56,0-2l-.71.32c-.76.44-.33,1.72.32,2.52.27.33,1.09,1,1.61.67Z"/><polygon class="cls-43" points="137.5 63.57 137.48 71.92 138.07 71.57 138.1 63.22 137.5 63.57"/><polygon class="cls-44" points="125.02 54.62 125.61 54.27 136.6 60.62 136.01 60.97 125.02 54.62"/><path class="cls-45" d="M133.27,64.87c.7.41,1.28.08,1.28-.73a2.78,2.78,0,0,0-1.27-2.2c-.7-.41-1.28-.08-1.28.73a2.8,2.8,0,0,0,1.27,2.2Zm.65,2.86a3.73,3.73,0,0,1-3.35-.42,12.21,12.21,0,0,1-3.48-3.42c-.1-.16-.12-.36,0-.44s.12,0,.2,0a.6.6,0,0,1,.16.16,10.81,10.81,0,0,0,3.14,3.09,3.36,3.36,0,0,0,3,.38.18.18,0,0,1,.17,0,.56.56,0,0,1,.19.21c.09.18.08.36,0,.4Zm-6.16-9c-.7-.41-1.28-.08-1.28.73a2.84,2.84,0,0,0,1.27,2.21c.7.4,1.28.07,1.29-.73a2.83,2.83,0,0,0-1.28-2.21Zm9.76,4.81,0,8.35c0,1-.68,1.33-1.51.86l-6.8-3.93c-1.26.08-4.82.3-4.93.32a19.22,19.22,0,0,1,.8-2.7l-.06,0a3.33,3.33,0,0,1-1.5-2.6l0-8.35c0-.95.68-1.34,1.51-.86L136,61A3.3,3.3,0,0,1,137.52,63.56Z"/><path class="cls-46" d="M65.93,110.33l-.45-.26a8,8,0,0,0-7.23.27L31.1,126a3.34,3.34,0,0,0-1.94,2.72A2.58,2.58,0,0,0,30.62,131l.46.26a6.38,6.38,0,0,0,3.19.75,8.22,8.22,0,0,0,4-1l27.15-15.67a3.36,3.36,0,0,0,1.94-2.73A2.6,2.6,0,0,0,65.93,110.33Z"/><path class="cls-47" d="M66.72,112.15v-3.87a2,2,0,0,0,0-.35v0h0a2,2,0,0,0-1.11-1.45l-.45-.26a7.32,7.32,0,0,0-6.57.27L31.43,122.12A3,3,0,0,0,29.85,124h0v0a1.35,1.35,0,0,0,0,.49v3.76h0A1.86,1.86,0,0,0,31,130.18l.45.26a7.35,7.35,0,0,0,6.57-.27l27.15-15.68a2.55,2.55,0,0,0,1.58-2.34Z"/><path class="cls-48" d="M66.72,112.15v-3.87a2,2,0,0,0,0-.35v0h0a2,2,0,0,0-1.11-1.45l-.45-.26a7.32,7.32,0,0,0-6.57.27L52,110.23v11.82l13.1-7.56a2.55,2.55,0,0,0,1.58-2.34Z"/><path class="cls-49" d="M48.71,112.15l-17.28,10A3,3,0,0,0,29.85,124h0v0a1.35,1.35,0,0,0,0,.49v3.76h0A1.86,1.86,0,0,0,31,130.18l.45.26a7.35,7.35,0,0,0,6.57-.27L48.71,124Z"/><path class="cls-48" d="M31.43,122.12l27.15-15.67a7.32,7.32,0,0,1,6.57-.27l.45.26c1.68,1,1.46,2.67-.47,3.79L38,125.9a7.35,7.35,0,0,1-6.57.28l-.45-.27C29.28,125,29.49,123.24,31.43,122.12Z"/><path class="cls-50" d="M65.6,106.44l-.45-.26a7.32,7.32,0,0,0-6.57.27l-2.78,1.6,6.45,3.84,2.88-1.66C67.06,109.11,67.28,107.41,65.6,106.44Z"/><polygon class="cls-48" points="43.68 115.05 50.04 118.94 62.25 111.89 55.8 108.06 43.68 115.05"/><polygon class="cls-50" points="45.08 121.8 56.47 115.23 50.02 111.39 38.72 117.91 45.08 121.8"/><polygon class="cls-48" points="56.47 119.49 56.47 115.23 45.08 121.8 45.08 126.07 56.47 119.49"/><polygon class="cls-49" points="56.47 119.49 62.25 116.15 62.25 111.89 56.47 115.23 56.47 119.49"/><path class="cls-51" d="M13.15,113c5-2.89,11.33-3.94,14.11-2.34s1,5.26-4.05,8.15-11.33,3.94-14.11,2.34S8.14,115.85,13.15,113Z"/><path class="cls-52" d="M23.89,62.74C26.22,66.37,25,67.8,25,67.8L23.89,66S23.51,62.52,23.89,62.74Z"/><path class="cls-53" d="M15.93,59.14a10.87,10.87,0,0,1,2.14-1.21l3.11,1,1,2.46.66,2.83-2.6,1.39-2.43-1L16.07,62l-.16-1.69A9,9,0,0,0,15.93,59.14Z"/><path class="cls-54" d="M21.38,110.93c1.88,1,2.18,1.37,4.57,2.52.57.28.81,2.12,0,2.19a5.83,5.83,0,0,1-2.61-.33,9,9,0,0,1-2.66-1.44s-3.07-.46-3.58-1-.07-2.34-.07-2.34S21,110.77,21.38,110.93Z"/><path class="cls-54" d="M14.2,115.18c.17.92,2.34,3.88,2.7,4.44.15.23.37,1.23-.24,1.54a4.82,4.82,0,0,1-3.47.2c-1.1-.54-2.31-3.23-2.61-4a6.38,6.38,0,0,1-.14-2.31S14.2,114.83,14.2,115.18Z"/><path class="cls-55" d="M23,76a13.44,13.44,0,0,1-.37-2.68c0-.93-.73-5.59-.73-5.59s3.65-.75,3.61-.21c.36,2.22.74,4.39.89,4.86a16.59,16.59,0,0,1,.61,2.4Z"/><path class="cls-55" d="M27.53,83.11s1.7,1.64,1.82,2.5-1,3.54-1.68,3.2S27,86.13,27,86.13s-1.13-1-1.39-.79-.28,2.07-.94,2.19-1-2.06-.8-2.84a8.66,8.66,0,0,1,.68-1.82,7.75,7.75,0,0,1,.68-.92c.08,0,1.62.44,1.62.44Z"/><path class="cls-55" d="M27,74.49c.48,3.07,0,5.3,0,7.9l-2.22.86c-.14-2.11-1.41-5.15-1.86-7.39l1.94-1.8Z"/><path class="cls-52" d="M25.32,63.89c.19.94.59,2.32.94,3.74.46,1.81-4.12,2.74-4.52,1-.31-1.34-1.19-3.52-1.35-4.54-.13-.81-.82-3,1.81-3.57C24.56,60,25.17,63.13,25.32,63.89Z"/><path class="cls-56" d="M21.38,110.61c1.88,1,2.18,1.37,4.57,2.52.57.27.81,2.11,0,2.18a6,6,0,0,1-2.61-.32,9,9,0,0,1-2.66-1.44s-3.07-.47-3.58-1-.07-2.34-.07-2.34S21,110.44,21.38,110.61Z"/><path class="cls-56" d="M20.85,79.16s3-.9,3.35.21c1,10.53-2.36,20.95-2.36,31.44,0,1.6-5.19,2-5.11-.5.3-8.83.75-26.8,1-29.28S20.85,79.16,20.85,79.16Z"/><path class="cls-56" d="M14.2,114.85c.17.93,2.34,3.88,2.7,4.44.15.23.37,1.24-.24,1.54a4.71,4.71,0,0,1-3.47.2c-1.1-.54-2.31-3.23-2.61-3.94a6.38,6.38,0,0,1-.14-2.31S14.2,114.5,14.2,114.85Z"/><path class="cls-57" d="M13,80.2s10.89-1,11.08-.68C24.29,85.45,19,88.4,19,88.4s-4.21,18.07-3.93,26.52c.06,1.6-4.93,2.13-4.84-.34.3-8.83.95-27.24,1.19-29.72A12.46,12.46,0,0,1,13,80.2Z"/><path class="cls-58" d="M24.2,78.58a10.41,10.41,0,0,1-8.36,2.78c-2.48-.26-2.93-1.5-2.93-1.5V78.44L24.2,76.89Z"/><path class="cls-52" d="M19.11,64.27l1.49.12.52-.77a6.37,6.37,0,0,0,0-3.45c.24.12,1.17.47,1.17.47s3.25,2.63,2.68,8.15c-.43,4.1-.71,6.61-.65,7.67S19.56,80,16.66,79.82c-2.65-.2-3.91-1.22-4-2-.38-2.22-.36-3.82-.79-4.83s-.7-6.37-1.28-7.64a62.6,62.6,0,0,1,4.93-3.89C16,61.91,19.11,64.27,19.11,64.27Z"/><path class="cls-59" d="M14.6,75.15c0,.5-.76.62-.76.62l-.93-2V70l1.14-1.92A32.56,32.56,0,0,1,14.6,75.15Z"/><path class="cls-60" d="M21.77,61.38A5.41,5.41,0,0,1,23.28,63a8.2,8.2,0,0,0-2.43.74c.13-.25.48-2.16.48-2.16Z"/><path class="cls-60" d="M18.55,64l1.52.16a9.69,9.69,0,0,0-2,1.45c-3-1.79-2.7-4.21-2.7-4.21Z"/><path class="cls-61" d="M23,62.91l-1.37-1a8.73,8.73,0,0,1-.73-1.52A6.67,6.67,0,0,1,23,62.91Z"/><path class="cls-52" d="M23,62.91s-.86-.43-1.14-.52l.39-.29C22.72,62.23,23,62.91,23,62.91Z"/><path class="cls-59" d="M21.36,62.84c0-.08.2,0,.22,0a1.87,1.87,0,0,1-.46,1.24l-.18-.24,0-.23S21.37,63.1,21.36,62.84Z"/><path class="cls-52" d="M22.29,62.1A10.35,10.35,0,0,0,20.72,64s.68-1.8-.65-4.72A24.7,24.7,0,0,1,22.29,62.1Z"/><path class="cls-59" d="M18.47,63.53a8.34,8.34,0,0,0,1.39.73l.21.11,0,.26a3.43,3.43,0,0,1-1.87-.72C18.11,63.85,18.2,63.5,18.47,63.53Z"/><path class="cls-62" d="M19,63.86c-.33,0-.6,0-.6,0a2.9,2.9,0,0,1-1.63-1.15,18.37,18.37,0,0,0,3.47,1.44S19.91,64.51,19,63.86Z"/><polygon class="cls-63" points="21.12 64.09 20.97 64.61 20.63 64.81 20.03 64.64 19.86 64.26 20.97 63.62 21.12 64.09"/><path class="cls-61" d="M19,63.86a4.59,4.59,0,0,0-1,1.48s-2.37-2.25-2.71-4.23A3.48,3.48,0,0,0,15.87,60,10.6,10.6,0,0,0,19,63.86Z"/><path class="cls-59" d="M29.8,71a.21.21,0,0,1,.18,0l.28.16-.46.8V76.8a.63.63,0,0,1-.27.48l-6,3.47-.42.78-.27-.15h0a.19.19,0,0,1-.08-.17V75.36a.61.61,0,0,1,.27-.48Z"/><path class="cls-64" d="M30.07,71.11c.15-.08.27,0,.27.16v5.84a.61.61,0,0,1-.27.48l-6.8,3.92c-.15.09-.27,0-.27-.16V75.52a.6.6,0,0,1,.27-.48Z"/><path class="cls-59" d="M30.07,74.36a1,1,0,0,1-.46.8.28.28,0,0,1-.46-.27,1,1,0,0,1,.46-.79C29.86,74,30.07,74.07,30.07,74.36Z"/><path class="cls-55" d="M13.84,77.91c2.34.1,4.67.69,5.43.44s1.67-1.55,2.17-1.79a4.3,4.3,0,0,1,1.28-.28v1l1.37.13s1.66-1.1,1.93-.56-1.23,3.37-1.89,3.68-4,0-4.82.12S15.5,82,12.47,82C11,82,9.71,80.11,9.61,79.61s-.16-4.31-.16-4.31l4.4-.15S13.84,77.15,13.84,77.91Z"/><path class="cls-65" d="M13.84,77.91A7.58,7.58,0,0,0,11,79.46,2.65,2.65,0,0,1,13.84,77.91Z"/><path class="cls-52" d="M9,68.22c0-.82,0-3.1,2.72-3.14,2.41,0,2.41,3.38,2.4,4.15,0,2.11.15,4.33.1,6,0,1.46-5.14,1.38-5.11,0S8.94,69.25,9,68.22Z"/><path class="cls-55" d="M21.54,53.53a6.68,6.68,0,0,1,.83,3.29,2.82,2.82,0,0,1-.31.86,2.85,2.85,0,0,1,.06,1.06,14.55,14.55,0,0,1-.87,3.2,1.74,1.74,0,0,1-1.54.38A6,6,0,0,1,16.54,60a2.53,2.53,0,0,1-.2-1,1.55,1.55,0,0,1-1.11-1.26,2,2,0,0,1-.32-2L16.58,53l2.5-.59Z"/><path class="cls-66" d="M15.59,56.46c.87,0,1.69,1.17,1.69,1.17s.83,0,1.09-1.14a1.89,1.89,0,0,1,.88-1.14c.47-.31,1.39.29,2.68-.7,1.59-1.22-.74-4.49-4.26-3.71s-3.46,4.46-3.38,5.33a1.59,1.59,0,0,0,1,1.51S14.93,56.45,15.59,56.46Z"/></g></svg>