<svg xmlns="http://www.w3.org/2000/svg" xmlns:xlink="http://www.w3.org/1999/xlink" viewBox="0 0 150 150"><defs><style>.cls-1,.cls-82{fill:none;}.cls-2{fill:#84b0c6;}.cls-103,.cls-105,.cls-107,.cls-108,.cls-110,.cls-112,.cls-3{fill:#82cbe5;}.cls-4{fill:#4aa2b7;}.cls-5{fill:#f68638;}.cls-6{fill:#f36d21;}.cls-7{fill:#20b2e8;}.cls-8{fill:#1e809b;}.cls-9{fill:#f8d2ac;}.cls-10{fill:#f0a95b;}.cls-11{fill:#177d78;}.cls-12{fill:#cddae2;}.cls-13{fill:#034560;}.cls-14{fill:#fcc49c;}.cls-15{fill:#0599ce;}.cls-16{fill:#5b3938;}.cls-17{fill:url(#linear-gradient);}.cls-18{fill:#774b4a;}.cls-19{fill:url(#linear-gradient-2);}.cls-20{fill:#d9d9d8;}.cls-21,.cls-75,.cls-79{fill:#fff;}.cls-22{fill:#045476;}.cls-23{fill:#003952;}.cls-24{fill:#8a5c55;}.cls-25{fill:#079abc;}.cls-26{fill:#3d6dad;}.cls-27{fill:#f36e24;}.cls-28{fill:#e2edf9;}.cls-29{fill:#f89521;}.cls-30{fill:#34c5ef;}.cls-105,.cls-31{opacity:0.67;}.cls-32{fill:#c0d5db;}.cls-33{fill:#57bdec;}.cls-34{fill:#3c6cac;}.cls-35{fill:#36c2da;}.cls-36{fill:#0099cd;}.cls-37{isolation:isolate;}.cls-38{clip-path:url(#clip-path);}.cls-39{fill:#b1c5cd;}.cls-40{fill:#adc0c7;}.cls-41{fill:#a9bbc3;}.cls-42{fill:#a5b6bd;}.cls-43{fill:#a1b2b9;}.cls-44{fill:#9cadb4;}.cls-45{fill:#97a7ad;}.cls-46{fill:#94a3a9;}.cls-47{fill:#8e9ea3;}.cls-48{fill:#8b999e;}.cls-49{fill:#869499;}.cls-50{fill:#818f94;}.cls-51{fill:#7c8b90;}.cls-52{fill:#78868b;}.cls-53{fill:#748186;}.cls-54{clip-path:url(#clip-path-2);}.cls-55{fill:#33b5ca;}.cls-56{fill:#30b0c5;}.cls-57{fill:#2facc0;}.cls-58{fill:#2fa7bb;}.cls-59{fill:#2ea4b6;}.cls-60{fill:#2b9fb1;}.cls-61{fill:#2c9bad;}.cls-62{fill:#2996a8;}.cls-63{fill:#2a91a2;}.cls-64{fill:#278c9e;}.cls-65{clip-path:url(#clip-path-3);}.cls-66{clip-path:url(#clip-path-4);}.cls-67{fill:#247785;}.cls-68{fill:#227b8a;}.cls-69{fill:#25808e;}.cls-70{fill:#258494;}.cls-71{fill:#258899;}.cls-72{fill:#9edbf0;}.cls-73{fill:#f1f0f0;}.cls-74{fill:#58c2b1;}.cls-108,.cls-75{opacity:0.8;}.cls-76,.cls-93{opacity:0.3;}.cls-77,.cls-91{opacity:0.4;}.cls-78,.cls-88,.cls-92{opacity:0.5;}.cls-103,.cls-79{opacity:0.6;}.cls-80{fill:#e0e0e0;}.cls-123,.cls-81{fill:#fafbfb;stroke:#e0e0e0;}.cls-123,.cls-81,.cls-82{stroke-miterlimit:10;}.cls-82{stroke:#f36d21;stroke-width:0.25px;}.cls-83{fill:#d25727;}.cls-84{fill:#faa532;}.cls-85{fill:#c3e9fa;}.cls-86{fill:#96bee5;}.cls-87{fill:#f7f8f8;}.cls-89{fill:#ccebf4;}.cls-90,.cls-91,.cls-94{fill:#72cddf;}.cls-90{opacity:0.7;}.cls-92,.cls-93{fill:#51c4cd;}.cls-95{fill:#efb184;}.cls-96{fill:#e7a477;}.cls-97{fill:#0f434c;}.cls-98{fill:#1e292f;}.cls-99{fill:#13191c;}.cls-100{fill:#172833;}.cls-101{fill:#dc976a;}.cls-102{fill:#401f1f;}.cls-104{opacity:0.83;}.cls-106{opacity:0.67;}.cls-107{opacity:0.73;}.cls-109{opacity:0.33;}.cls-110{opacity:0.87;}.cls-111{opacity:0.17;}.cls-112{opacity:0.93;}.cls-113{opacity:0;}.cls-114{fill:#f58348;}.cls-115{fill:#d5e1f3;}.cls-116{fill:#edf4fb;}.cls-117{fill:#b5b3c5;}.cls-118{fill:#f69165;}.cls-119{fill:#f6b574;}.cls-120{fill:#dce8ed;}.cls-120,.cls-121,.cls-122,.cls-123,.cls-124,.cls-125,.cls-126,.cls-127{fill-rule:evenodd;}.cls-121{fill:#e8f2f5;}.cls-122{fill:#f3fafd;}.cls-124{fill:#e4eef2;}.cls-125{fill:#0b85c1;}.cls-126{fill:#2095d3;}.cls-127{fill:#3ca4dc;}.cls-128{fill:#dc8128;}.cls-129{fill:#ffd95a;}.cls-130{fill:#dd8732;}.cls-131{fill:#f2b427;}.cls-132{fill:#f8ac4f;}.cls-133{fill:#f36d24;}</style><linearGradient id="linear-gradient" x1="39.91" y1="103.23" x2="47.84" y2="103.23" gradientUnits="userSpaceOnUse"><stop offset="0" stop-color="#4182c3"/><stop offset="1" stop-color="#2f4a9d"/></linearGradient><linearGradient id="linear-gradient-2" x1="34.92" y1="103.47" x2="43.37" y2="103.47" xlink:href="#linear-gradient"/><clipPath id="clip-path"><path id="SVGID" class="cls-1" d="M103.78,20.64a.49.49,0,0,1,.21-.46l-3.84,2.21a.49.49,0,0,0-.21.46h0l.27-.15.14-.09.91-.52,1.29-.74,1.23-.71-3.84,2.21h0a1.52,1.52,0,0,0,.72,1.25l3.84-2.21A1.61,1.61,0,0,1,103.78,20.64Z"/></clipPath><clipPath id="clip-path-2"><path id="SVGID-2" data-name="SVGID" class="cls-1" d="M104,20.18l-.19.11-3.65,2.1a.51.51,0,0,1,.51.06l3.85-2.22A.55.55,0,0,0,104,20.18Z"/></clipPath><clipPath id="clip-path-3"><path id="SVGID-3" data-name="SVGID" class="cls-1" d="M120.7,30.9a.5.5,0,0,1-.52,0l-3.85,2.22a.57.57,0,0,0,.53,0Z"/></clipPath><clipPath id="clip-path-4"><path id="SVGID-4" data-name="SVGID" class="cls-1" d="M116.86,33.12l3.84-2.22a.5.5,0,0,0,.21-.46,1.57,1.57,0,0,0-.72-1.24l-3.85,2.21a1.57,1.57,0,0,1,.73,1.24A.54.54,0,0,1,116.86,33.12Z"/></clipPath></defs><g id="Transformation_to_a_Data-Driven_Culture" data-name="Transformation to a Data-Driven Culture"><polyline class="cls-2" points="11.5 91.16 4.26 86.98 11.5 82.81 18.74 86.98"/><polygon class="cls-2" points="22.82 85.05 15.85 81.03 22.82 77 29.8 81.03 22.82 85.05"/><polygon class="cls-2" points="34.14 78.76 26.88 74.56 34.14 70.37 41.41 74.56 34.14 78.76"/><polygon class="cls-3" points="9.95 64.92 15.55 61.68 9.95 58.45 4.35 61.68 9.95 64.92"/><polygon class="cls-3" points="15.55 61.68 15.55 82.88 9.95 86.11 9.95 64.92 15.55 61.68"/><polygon class="cls-4" points="4.35 61.68 4.35 82.88 9.95 86.11 9.95 64.92 4.35 61.68"/><polygon class="cls-5" points="22.41 56.65 28.8 52.96 22.41 49.27 16.03 52.96 22.41 56.65"/><polygon class="cls-5" points="28.8 52.96 28.8 79.44 22.41 83.12 22.41 56.65 28.8 52.96"/><polygon class="cls-6" points="16.03 52.96 16.03 79.44 22.41 83.12 22.41 56.65 16.03 52.96"/><polygon class="cls-7" points="36.32 36.07 42.7 32.38 36.32 28.7 29.93 32.38 36.32 36.07"/><polygon class="cls-7" points="42.7 32.38 42.7 70.89 36.32 74.58 36.32 36.07 42.7 32.38"/><polygon class="cls-8" points="29.93 32.38 29.93 70.89 36.32 74.58 36.32 36.07 29.93 32.38"/><polygon class="cls-9" points="43.64 49.65 35.64 53.91 37.42 55.62 30.3 65.67 26.36 61.96 9.76 85.07 15.06 83.06 26.27 67.52 30.17 71.23 39.69 57.8 41.27 59.3 43.64 49.65"/><polygon class="cls-10" points="44.69 50.51 36.69 54.77 38.46 56.48 31.35 66.53 27.4 62.83 10.81 85.93 16.11 83.93 27.32 68.38 31.22 72.09 40.74 58.66 42.32 60.16 44.69 50.51"/><polygon class="cls-9" points="10.81 85.93 9.76 85.07 26.36 61.96 27.4 62.83 10.81 85.93"/><polygon class="cls-11" points="31.22 72.09 30.17 71.23 27.26 68.46 27.32 68.38 31.22 72.09"/><polygon class="cls-9" points="44.69 50.51 43.64 49.65 35.64 53.91 36.69 54.77 44.69 50.51"/><polygon class="cls-11" points="35.64 53.91 36.69 54.77 38.46 56.48 37.42 55.62 35.64 53.91"/><polyline class="cls-11" points="42.32 60.16 40.74 58.66 40.68 58.74"/><ellipse class="cls-12" cx="41.97" cy="120.76" rx="12.51" ry="7.22"/><path class="cls-13" d="M50.68,77.47l-3.34-6.84a2.17,2.17,0,0,0-2.55-1.28h0a2.17,2.17,0,0,0-1.38,3.11l4,7.72a4.94,4.94,0,0,0,1.15,1.16,3,3,0,0,0,3.19.37l6.13-3.35-2.27-3.89Z"/><path class="cls-14" d="M59.4,74.65a2,2,0,0,0-2.94-.57,5.78,5.78,0,0,0-.45.37h0a2,2,0,0,0,2.73,3h0l.18-.15a2,2,0,0,0,.47-2.61Z"/><path class="cls-14" d="M56.31,75.4s1.2-.66,1.76-.1,1.84.59,1.21-.39c-1-1.56-1.48-1.74-2.65-1.11Z"/><path class="cls-15" d="M51.57,78.57l5.63-2a1.25,1.25,0,0,0,.68-.87l1.74-9.14c.07-.37-.12-.58-.43-.48l-5.63,2a1.22,1.22,0,0,0-.69.86l-1.74,9.14C51.06,78.46,51.26,78.68,51.57,78.57Z"/><path class="cls-16" d="M43.15,117.92s-.08,1.12.37,1.53c1.51,1.38,5.35,3.41,7.09,2.28,2.26-1.47-4.14-4.81-4.14-4.81Z"/><path class="cls-17" d="M41.05,90.53l2.1,27.39s1.59,1.47,4.38-.3l.31-28.33a32.54,32.54,0,0,1-5.52-.7c-.89-.2-1.7-.42-2.41-.63Z"/><path class="cls-18" d="M34.92,118.18s-.3,1.08.06,1.57c1.2,1.66,4.54,4.43,6.48,3.68,2.51-1-1.61-5.46-1.61-5.46Z"/><path class="cls-19" d="M36.42,90.85l.64,15.41-2.14,11.92a4.77,4.77,0,0,0,4.93-.21l2.86-11.25a4.08,4.08,0,0,0,.13-.92l.53-15.87A33.26,33.26,0,0,1,37.81,89c-.89-.24-.47-.59-1.19-.82Z"/><path class="cls-20" d="M37.49,69.23s8.95-1.47,9.3,2.15c1,10.63,1.4,20,1.4,20s-8.46,2.14-12.92-.53C35.27,90.88,36,69,37.49,69.23Z"/><path class="cls-14" d="M39.46,65,39,68.13s2.16,2.83,5,.78l-.77-3.72a1.78,1.78,0,0,0-1.43-1.49l-.93-.08A1.43,1.43,0,0,0,39.46,65Z"/><polygon class="cls-21" points="39.16 67.2 42.34 68.52 40.97 71.27 38.12 68.43 39.16 67.2"/><path class="cls-14" d="M42.77,67.49h0a4.39,4.39,0,0,1-4.36-4l-.3-2.62a3.75,3.75,0,0,1,3.39-4.36h0a4.39,4.39,0,0,1,4.37,4l.3,2.62A3.75,3.75,0,0,1,42.77,67.49Z"/><path class="cls-22" d="M40.06,71.08s.91.19.17,22.84c0,0-4.47.31-6.09-1.17,0,0-.56-15.41.67-23a9.07,9.07,0,0,1,3.31-1.35C38.62,68.44,39.77,70.5,40.06,71.08Z"/><path class="cls-22" d="M49.19,91.77c-.7,2.1-2.39.63-2.39.63s-1.29-14.84-2.27-23.31c0,0,2.23-.94,3.47,4.3C48.89,77.17,49.19,91.77,49.19,91.77Z"/><path class="cls-23" d="M39.31,69.7l-1.82,5.18,1.07,1.26-.85,2.12,2.77,4.31S41.37,71.44,39.31,69.7Z"/><path class="cls-23" d="M44.53,69.09a88.64,88.64,0,0,0,1.28,12.45l1.27-3.89-1.06-2,.88-.83Z"/><polygon class="cls-21" points="42.34 68.52 43.85 71.08 44.85 69.03 43.8 67.82 42.34 68.52"/><path class="cls-22" d="M41.16,73.05a.47.47,0,0,1-.82.1l-2.6-2.86a2.3,2.3,0,0,0-3-.64h0a2.3,2.3,0,0,0-.6,3.55l4,3.89a5.58,5.58,0,0,0,1.37,1.11,2.59,2.59,0,0,0,3.53-.68L47,69.64l-4-1.7Z"/><path class="cls-14" d="M45,64.56s-2,1-2.46,2.13,1.34,1.68,1.34,1.68Z"/><path class="cls-14" d="M46.15,64.59a2.52,2.52,0,0,0-3,2C43,67,43,67.3,43,67.3h0a2,2,0,0,0,1.6,2.63,2.47,2.47,0,0,0,2.7-2.23h0c0-.08,0-.18.07-.29a2.26,2.26,0,0,0-1.19-2.82Z"/><path class="cls-24" d="M45.8,54.19a5.27,5.27,0,0,1-3.75,1.53,4.37,4.37,0,0,0-1.19.05,2.74,2.74,0,0,0-1.14.37,4.54,4.54,0,0,0-2.5,4.46,5.42,5.42,0,0,0,1.19,2.93s.82-.37.67-2a1.64,1.64,0,0,1,.77-1.76l.4,0a1,1,0,0,1,.42.59c.47,1.35.66,1.9,1.06,1.56s.41-1.92.41-1.92a5.39,5.39,0,0,0,3.39-1.18l.13-.12h0C46.6,57.94,47,56.53,45.8,54.19Z"/><path class="cls-14" d="M58.26,73.76s-1.49.34-1.67,1,.31.58.31.58a.62.62,0,0,0-.41.63c.07.44.57.32.57.32a.62.62,0,0,0-.29.78c.22.51,2.22.35,2.58-1S58.26,73.76,58.26,73.76Z"/><ellipse class="cls-2" cx="111.56" cy="129.28" rx="20.54" ry="11.86"/><path class="cls-25" d="M130.82,123.42h0c0-2.85-1.87-5.69-5.63-7.86-7.52-4.34-19.71-4.34-27.23,0-3.76,2.17-5.63,5-5.63,7.86h0V129h0c0,2.84,1.87,5.69,5.63,7.86,7.52,4.34,19.71,4.34,27.23,0,3.76-2.17,5.63-5,5.63-7.86h0Z"/><path class="cls-26" d="M130.82,123.42h0c0-2.51-1.45-5-4.37-7.06-2.45,5.66-7.37,17.29-7.37,17.29v5.61a23.4,23.4,0,0,0,6.11-2.37c3.76-2.17,5.63-5,5.63-7.86h0Z"/><path class="cls-27" d="M100.61,138.17a31.63,31.63,0,0,0,18.46,1.09v-5.61l-18.46-1.1Z"/><ellipse class="cls-28" cx="111.56" cy="123.42" rx="19.25" ry="11.11"/><path class="cls-29" d="M100.61,132.55a31.63,31.63,0,0,0,18.46,1.1l-7.51-10.23Z"/><path class="cls-15" d="M125.18,115.56A23.81,23.81,0,0,0,118,113l-6.48,10.47,7.51,10.23a23.4,23.4,0,0,0,6.11-2.37C132.69,126.94,132.69,119.9,125.18,115.56Z"/><path class="cls-30" d="M93,120.46c-1.78,3.73-.13,7.89,4.94,10.82a19.77,19.77,0,0,0,2.66,1.27l11-9.13Z"/><g class="cls-31"><path class="cls-3" d="M142,86.87c5,2.85,5,7.47.06,10.32l-16.35,9.42c-5,2.85-13,2.84-18,0L86.49,94.48c-5-2.85-5-7.47-.06-10.32l16.35-9.42c5-2.85,13-2.85,18,0Z"/></g><polygon class="cls-32" points="126.15 101.71 130 99.49 93.63 78.69 89.78 80.9 126.15 101.71"/><path class="cls-33" d="M126.14,106.24v-4.53L130,99.49l0,4.54a2,2,0,0,1-.87,1.89l-3.84,2.22A2.08,2.08,0,0,0,126.14,106.24Z"/><path class="cls-30" d="M126.14,106.24v-4.53L89.78,80.9v4.54a6.44,6.44,0,0,0,3,5.1l30.4,17.39C124.79,108.87,126.13,108.12,126.14,106.24Z"/><polygon class="cls-34" points="126.15 101.71 130 99.49 130.17 38.48 126.32 40.69 126.15 101.71"/><polygon class="cls-35" points="126.32 40.69 130.17 38.48 93.8 17.68 89.95 19.89 126.32 40.69"/><polygon class="cls-36" points="89.95 19.89 89.78 80.9 126.15 101.71 126.32 40.69 89.95 19.89"/><g class="cls-37"><g class="cls-38"><g class="cls-37"><path class="cls-39" d="M100.66,24.1l3.84-2.21a2,2,0,0,1-.24-.19l-3.84,2.22a1.08,1.08,0,0,0,.24.18Z"/><path class="cls-40" d="M100.42,23.92l3.84-2.22-.08-.08-3.84,2.21.08.09Z"/><path class="cls-41" d="M100.34,23.83l3.84-2.21-.06-.08-3.84,2.22.06.07Z"/><path class="cls-42" d="M100.28,23.76l3.84-2.22s0,0,0-.06l-3.85,2.21a.18.18,0,0,0,0,.07Z"/><path class="cls-43" d="M100.23,23.69l3.85-2.21,0-.06-3.85,2.21,0,.06Z"/><path class="cls-44" d="M100.19,23.63,104,21.42a.21.21,0,0,1,0-.06l-3.85,2.21,0,.06Z"/><path class="cls-45" d="M100.15,23.57,104,21.36l0-.06-3.84,2.21,0,.06Z"/><path class="cls-46" d="M100.12,23.51,104,21.3l0-.06-3.85,2.21,0,.06Z"/><path class="cls-47" d="M100.08,23.45l3.85-2.21,0-.06-3.84,2.21s0,0,0,.06Z"/><path class="cls-48" d="M100.06,23.39l3.84-2.21a.25.25,0,0,1,0-.07L100,23.32l0,.07Z"/><path class="cls-49" d="M100,23.32l3.85-2.21,0-.07L100,23.26l0,.06Z"/><path class="cls-50" d="M100,23.26,103.85,21s0-.05,0-.07L100,23.18a.24.24,0,0,1,0,.08Z"/><path class="cls-51" d="M100,23.18,103.83,21a.31.31,0,0,1,0-.08L100,23.1s0,.06,0,.08Z"/><path class="cls-52" d="M100,23.1l3.85-2.21a.43.43,0,0,1,0-.11L99.94,23s0,.07,0,.1Z"/><path class="cls-53" d="M99.94,23l3.85-2.22a.66.66,0,0,1,0-.14.49.49,0,0,1,.21-.46l-3.84,2.21a.49.49,0,0,0-.21.46V23Z"/></g></g></g><g class="cls-37"><g class="cls-54"><g class="cls-37"><path class="cls-55" d="M100.66,22.45l3.85-2.22-.1-.05-3.85,2.21a.53.53,0,0,1,.1.06Z"/><path class="cls-56" d="M100.56,22.39l3.85-2.21-.09,0-3.84,2.22.08,0Z"/><path class="cls-57" d="M100.48,22.37l3.84-2.22h-.06l-3.85,2.21.07,0Z"/><path class="cls-58" d="M100.41,22.35l3.85-2.21h-.06l-3.84,2.21Z"/><path class="cls-59" d="M100.36,22.34l3.84-2.21h0l-3.84,2.22Z"/><path class="cls-60" d="M100.31,22.35l3.84-2.22h0l-3.85,2.21Z"/><path class="cls-61" d="M100.26,22.35l3.85-2.21h0l-3.85,2.21Z"/><path class="cls-62" d="M100.22,22.36l3.85-2.21h0l-3.84,2.21Z"/><path class="cls-63" d="M100.19,22.37,104,20.16l0,0-3.85,2.21,0,0Z"/><path class="cls-64" d="M100.15,22.39,104,20.18h0l-3.84,2.21Z"/></g></g></g><polygon class="cls-32" points="116.33 33.07 120.18 30.85 104.5 21.89 100.66 24.1 116.33 33.07"/><g class="cls-37"><g class="cls-65"><g class="cls-37"><polygon class="cls-48" points="116.86 33.12 120.7 30.9 120.7 30.9 116.85 33.12 116.86 33.12 116.86 33.12"/><path class="cls-47" d="M116.85,33.12l3.85-2.22,0,0-3.85,2.22,0,0Z"/><path class="cls-46" d="M116.81,33.14l3.85-2.22h0l-3.85,2.22Z"/><path class="cls-45" d="M116.77,33.15l3.85-2.22h0l-3.84,2.22Z"/><path class="cls-44" d="M116.74,33.16l3.84-2.22h0l-3.85,2.21Z"/><path class="cls-43" d="M116.69,33.16,120.54,31h-.05l-3.84,2.21a0,0,0,0,0,0,0Z"/><path class="cls-42" d="M116.65,33.16,120.49,31h0l-3.85,2.22Z"/><path class="cls-41" d="M116.59,33.16l3.85-2.22h-.07l-3.84,2.22Z"/><path class="cls-40" d="M116.53,33.15l3.84-2.22-.08,0-3.85,2.21.09,0Z"/><path class="cls-39" d="M116.44,33.11l3.85-2.21-.11,0-3.85,2.22.11,0Z"/></g></g></g><polygon class="cls-35" points="116.34 31.41 120.19 29.2 104.51 20.23 100.66 22.45 116.34 31.41"/><g class="cls-37"><g class="cls-66"><g class="cls-37"><path class="cls-67" d="M116.86,33.12l3.84-2.22a.5.5,0,0,0,.21-.46.61.61,0,0,0,0-.14l-3.84,2.21c0,.05,0,.09,0,.14a.54.54,0,0,1-.21.47Z"/><path class="cls-68" d="M117.06,32.51l3.84-2.21a.3.3,0,0,0,0-.1L117,32.41s0,.07,0,.1Z"/><path class="cls-69" d="M117,32.41l3.84-2.21a.29.29,0,0,0,0-.09L117,32.33s0,.05,0,.08Z"/><path class="cls-70" d="M117,32.33l3.84-2.22a.25.25,0,0,0,0-.07L117,32.25a.19.19,0,0,0,0,.08Z"/><path class="cls-71" d="M117,32.25,120.84,30a.14.14,0,0,0,0-.06L117,32.19l0,.06Z"/><path class="cls-64" d="M117,32.19,120.82,30l0-.07-3.85,2.21,0,.07Z"/><path class="cls-63" d="M116.94,32.12l3.85-2.21,0-.06-3.84,2.21a.14.14,0,0,1,0,.06Z"/><path class="cls-62" d="M116.92,32.06l3.84-2.21,0-.06L116.89,32l0,.06Z"/><path class="cls-61" d="M116.89,32l3.84-2.21,0-.06-3.85,2.21,0,.06Z"/><path class="cls-60" d="M116.85,31.94l3.85-2.21,0-.06-3.85,2.21,0,.06Z"/><path class="cls-59" d="M116.81,31.88l3.85-2.21a.16.16,0,0,1,0-.07l-3.85,2.22a.21.21,0,0,1,0,.06Z"/><path class="cls-58" d="M116.77,31.82l3.85-2.22s0,0-.05-.06l-3.84,2.22a.15.15,0,0,1,0,.06Z"/><path class="cls-57" d="M116.73,31.75l3.84-2.21-.06-.07-3.84,2.21a.42.42,0,0,0,.06.08Z"/><path class="cls-56" d="M116.67,31.68l3.84-2.21-.08-.09-3.85,2.22.09.08Z"/><path class="cls-55" d="M116.58,31.6l3.85-2.22-.24-.18-3.85,2.21a1.12,1.12,0,0,1,.24.19Z"/></g></g></g><path class="cls-34" d="M100.66,22.45c-.4-.23-.72-.05-.72.4a1.52,1.52,0,0,0,.72,1.25l15.67,9c.41.22.74,0,.74-.42a1.57,1.57,0,0,0-.73-1.24Z"/><path class="cls-72" d="M123.36,33a6.49,6.49,0,0,1,3,5.1v2.64L90,19.89V17.25c0-1.87,1.34-2.63,3-1.69Zm-22.7-8.85,15.67,9c.41.22.74,0,.74-.42a1.57,1.57,0,0,0-.73-1.24l-15.68-9c-.4-.23-.72-.05-.72.4a1.52,1.52,0,0,0,.72,1.25Z"/><path class="cls-34" d="M92.46,15.33l-.21-.07-.13,0-.13,0-.15,0h-.33l-.21,0h-.06l-.16.05h0l-.2.1,3.85-2.22h0l.15-.07h0l.06,0L95,13h.09l0,0h0l.18,0h.49L96,13H96l.07,0,.21.08.07,0,0,0,.38.19,30.4,17.38a4.87,4.87,0,0,1,.47.32l.07.05.43.37s0,0,0,0l.06.07a2,2,0,0,1,.2.21l.06.06,0,.06.12.14.08.1.06.08.08.1.06.08.09.14a.35.35,0,0,1,.05.08l0,0c.06.08.1.16.16.25v0l0,0a1.74,1.74,0,0,1,.1.19l0,.09,0,.08,0,.08.1.2a.08.08,0,0,0,0,0h0c0,.09.08.17.11.26s0,0,0,0l0,.1a.69.69,0,0,1,0,.13.42.42,0,0,0,0,.1.5.5,0,0,0,0,.13l0,.07,0,.14c0,.05,0,.1,0,.15a.43.43,0,0,0,0,.05.52.52,0,0,0,0,.11,2,2,0,0,1,0,.24s0,0,0,.06v.07a4.38,4.38,0,0,1,0,.51v2.64l-3.85,2.21V38.05a4.49,4.49,0,0,0,0-.51s0-.08,0-.13,0-.16,0-.24l0-.15c0-.06,0-.11,0-.16s0-.14,0-.21a.5.5,0,0,1,0-.13l-.08-.23a.36.36,0,0,0,0-.09c0-.11-.08-.22-.13-.33s0,0,0,0l-.13-.27s0-.07-.05-.1l-.14-.25,0-.06-.19-.3-.06-.09-.15-.21a.76.76,0,0,0-.08-.11l-.13-.17-.12-.14-.11-.13-.2-.21a.94.94,0,0,1-.1-.1l-.42-.37-.08-.05c-.15-.11-.31-.22-.46-.31L93,15.56l-.37-.18Z"/><g id="Spreadsheets"><polygon class="cls-73" points="139.59 51.58 81.26 17.91 81.26 20.15 134.73 51.02 134.73 80.21 139.59 83.01 139.59 51.58"/><polygon class="cls-74" points="134.73 51.02 129.87 48.22 129.87 50.46 134.73 53.27 134.73 51.02"/><polygon class="cls-74" points="134.73 68.98 129.87 66.18 129.87 68.42 134.73 71.22 134.73 68.98"/><polygon class="cls-74" points="134.73 71.22 129.87 68.42 129.87 70.66 134.73 73.47 134.73 71.22"/><polygon class="cls-75" points="134.73 71.22 129.87 68.42 129.87 70.66 134.73 73.47 134.73 71.22"/><polygon class="cls-74" points="105.57 52.14 100.71 49.34 100.71 51.58 105.57 54.39 105.57 52.14"/><polygon class="cls-76" points="105.57 52.14 100.71 49.34 100.71 51.58 105.57 54.39 105.57 52.14"/><polygon class="cls-74" points="105.57 54.39 100.71 51.58 100.71 53.82 105.57 56.63 105.57 54.39"/><polygon class="cls-77" points="105.57 54.39 100.71 51.58 100.71 53.82 105.57 56.63 105.57 54.39"/><polygon class="cls-74" points="105.57 56.63 100.71 53.83 100.71 56.07 105.57 58.88 105.57 56.63"/><polygon class="cls-78" points="105.57 56.63 100.71 53.83 100.71 56.07 105.57 58.88 105.57 56.63"/><polygon class="cls-74" points="105.57 58.88 100.71 56.08 100.71 58.31 105.57 61.12 105.57 58.88"/><polygon class="cls-76" points="105.57 58.88 100.71 56.08 100.71 58.31 105.57 61.12 105.57 58.88"/><polygon class="cls-74" points="110.42 36.99 105.57 34.19 105.57 45.41 110.42 48.22 110.42 36.99"/><polygon class="cls-74" points="110.42 50.46 105.57 47.66 105.57 63.37 110.42 66.18 110.42 50.46"/><polygon class="cls-74" points="129.87 61.68 125.02 58.88 125.02 61.12 129.87 63.93 129.87 61.68"/><polygon class="cls-76" points="129.87 61.68 125.02 58.88 125.02 61.12 129.87 63.93 129.87 61.68"/><polygon class="cls-74" points="120.14 44.85 115.29 42.04 115.29 44.28 120.14 47.09 120.14 44.85"/><polygon class="cls-79" points="120.14 44.85 115.29 42.04 115.29 44.28 120.14 47.09 120.14 44.85"/><polygon class="cls-74" points="95.84 44.29 90.98 41.48 90.98 43.72 95.84 46.53 95.84 44.29"/><polygon class="cls-75" points="95.84 44.29 90.98 41.48 90.98 43.72 95.84 46.53 95.84 44.29"/><polygon class="cls-74" points="95.84 48.78 90.98 45.97 90.98 48.21 95.84 51.02 95.84 48.78"/><path class="cls-80" d="M81.14,17.7V49.41l.06,0,58.51,33.78V51.51l-.06,0Zm.24,27.36L86,47.73v2L81.38,47Zm58.09,10.81-4.62-2.67v-2l4.62,2.67Zm-24.31-2.53v2l-4.62-2.67v-2Zm-4.62-2.94v-2l4.62,2.66v2Zm-.24,2.1-4.62-2.67v-2l4.62,2.66Zm-4.62-4.91v-2l4.62,2.67v2Zm0-2.25v-2L110.3,46v2Zm0-2.24v-2l4.62,2.67v2Zm4.86.83,4.62,2.67v2l-4.62-2.67Zm4.62,4.92v2l-4.62-2.67v-2Zm.24.14L120,51.65v2L115.4,51ZM120,53.9v2L115.4,53.2v-2Zm0,2.25v2l-4.62-2.66v-2Zm0,2.24v2l-4.62-2.67v-2Zm-4.86-.84-4.62-2.66v-2l4.62,2.66Zm0,.28v2l-4.62-2.67v-2ZM110.3,57l-4.62-2.66v-2L110.3,55Zm-4.62-4.91v-2l4.62,2.67v2Zm-.24-.14-4.62-2.67v-2L105.44,50ZM100.82,47v-2l4.62,2.67v2Zm0-2.25v-2l4.62,2.67v2Zm0-2.24v-2l4.62,2.67v2Zm0-2.25v-2L105.44,41v2Zm0-2.24v-2l4.62,2.66v2Zm4.86.83,4.62,2.67v2l-4.62-2.67Zm4.86,2.81,4.62,2.67v2l-4.62-2.67Zm4.86,2.81L120,47.16v2l-4.62-2.67ZM120,49.41v2l-4.62-2.67v-2Zm.24.14,4.63,2.67v2l-4.63-2.66Zm4.63,4.91v2l-4.63-2.67v-2Zm0,2.25v2L120.26,56V54Zm0,2.24v2l-4.63-2.67v-2Zm0,2.25v2l-4.63-2.67v-2Zm0,2.24v2l-4.63-2.67v-2ZM120,62.61l-4.62-2.67V58L120,60.64Zm0,.27v2l-4.62-2.67v-2Zm-4.86-.83-4.62-2.67v-2l4.62,2.67Zm-4.86-2.81-4.62-2.67v-2l4.62,2.67Zm-4.86-2.81-4.62-2.67v-2l4.62,2.66Zm-4.62-4.91v-2l4.62,2.67v2Zm-.24-.14L96,48.71v-2l4.62,2.67ZM96,46.47v-2l4.62,2.67v2Zm0-2.25v-2l4.62,2.67v2ZM96,42V40l4.62,2.67v2Zm0-2.25v-2l4.62,2.67v2Zm0-2.25v-2l4.62,2.66v2Zm0-2.24v-2l4.62,2.67v2ZM96,33V31l4.62,2.67v2Zm4.86.84,4.62,2.67v2l-4.62-2.67Zm4.86,2.81,4.62,2.67v2l-4.62-2.66Zm4.86,2.8,4.62,2.67v2l-4.62-2.67Zm4.86,2.81L120,44.92v2l-4.62-2.67Zm4.86,2.81,4.63,2.66v2L120.26,47ZM124.89,50v2l-4.63-2.67v-2Zm.23.14,4.63,2.67v2l-4.63-2.67ZM129.75,55v2l-4.63-2.67v-2Zm0,2.25v2l-4.63-2.67v-2Zm0,2.24v2l-4.63-2.67v-2Zm0,2.25v2l-4.63-2.67v-2Zm0,2.24v2l-4.63-2.66v-2Zm0,2.25v2l-4.63-2.67v-2Zm0,2.24v2l-4.63-2.66v-2Zm-4.86-.83L120.26,65V63l4.63,2.67Zm0,.27v2l-4.63-2.66v-2ZM120,67.1l-4.62-2.67v-2L120,65.13Zm-4.86-2.81-4.62-2.67v-2l4.62,2.67Zm-4.86-2.81-4.62-2.66v-2l4.62,2.67Zm-4.86-2.8L100.82,56V54l4.62,2.67Zm-4.86-2.81L96,53.2v-2l4.62,2.67ZM96,51V49l4.62,2.67v2Zm-.24-.14L91.1,48.15v-2l4.62,2.67ZM91.1,45.91v-2l4.62,2.67v2Zm0-2.25v-2l4.62,2.67v2Zm0-2.24v-2l4.62,2.66v2Zm0-2.25v-2l4.62,2.67v2Zm0-2.25V35l4.62,2.67v2Zm0-2.24v-2l4.62,2.67v2Zm0-2.25v-2l4.62,2.67v2Zm0-2.24v-2l4.62,2.67v2Zm0-2.25V26l4.62,2.67v2Zm4.86.84,4.62,2.67v2L96,30.75Zm4.86,2.81,4.62,2.66v2l-4.62-2.67Zm4.86,2.8,4.62,2.67v2l-4.62-2.67Zm4.86,2.81,4.62,2.67v2l-4.62-2.67ZM115.4,40,120,42.67v2L115.4,42Zm4.86,2.81,4.63,2.67v2l-4.63-2.67Zm4.86,2.81,4.63,2.67v2l-4.63-2.66Zm4.63,4.91v2l-4.63-2.67v-2Zm.24.14,4.62,2.67v2L130,52.64Zm4.62,4.91v2L130,54.88v-2Zm0,2.25v2L130,57.13v-2Zm0,2.24v2L130,59.37v-2Zm0,2.25v2L130,61.62v-2Zm0,2.24v2L130,63.87v-2Zm0,2.25v2L130,66.11v-2Zm0,2.25v2L130,68.36v-2Zm0,2.24v2L130,70.6v-2Zm0,2.25v2L130,72.85v-2Zm-4.86-.84L125.12,70v-2l4.63,2.67Zm0,.28v2l-4.63-2.67v-2Zm-4.86-.84-4.63-2.67v-2l4.63,2.67ZM120,69.34l-4.62-2.67v-2L120,67.37Zm-4.86-2.8-4.62-2.67v-2l4.62,2.67Zm-4.86-2.81-4.62-2.67v-2l4.62,2.67Zm-4.86-2.81-4.62-2.66v-2L105.44,59Zm-4.86-2.8L96,55.45v-2l4.62,2.67Zm-4.86-2.81L91.1,52.64v-2l4.62,2.67ZM91.1,50.4v-2l4.62,2.67v2Zm-.24-.14-4.62-2.67v-2l4.62,2.67Zm-4.62-4.91v-2L90.86,46v2Zm0-2.25v-2l4.62,2.67v2Zm0-2.25v-2l4.62,2.66v2Zm0-2.24v-2l4.62,2.67v2Zm0-2.25v-2l4.62,2.67v2Zm0-2.24v-2l4.62,2.67v2Zm0-2.25v-2l4.62,2.67v2Zm0-2.24v-2l4.62,2.67v2Zm0-2.25v-2l4.62,2.67v2Zm0-2.24v-2l4.62,2.66v2Zm0-2.25v-2l4.62,2.67v2Zm4.86.84,4.62,2.67v2L91.1,25.7ZM96,26.53l4.62,2.67v2L96,28.5Zm4.86,2.81L105.44,32v2l-4.62-2.67Zm4.86,2.81,4.62,2.67v2l-4.62-2.66Zm4.86,2.8,4.62,2.67v2l-4.62-2.67Zm4.86,2.81L120,40.43v2l-4.62-2.67Zm4.86,2.81,4.63,2.66v2l-4.63-2.67Zm4.86,2.8L129.75,46v2l-4.63-2.67ZM130,46.18l4.62,2.67v2L130,48.15Zm4.62,4.91v2L130,50.39v-2Zm4.86,7-4.62-2.67v-2l4.62,2.66Zm0,2.25-4.62-2.67v-2l4.62,2.67Zm0,2.24-4.62-2.66V58l4.62,2.66Zm0,2.25-4.62-2.67v-2l4.62,2.67Zm0,2.24-4.62-2.66v-2l4.62,2.67Zm0,2.25-4.62-2.67v-2l4.62,2.67Zm0,2.25-4.62-2.67V67l4.62,2.67Zm0,2.24-4.62-2.67v-2l4.62,2.67Zm0,2.25-4.62-2.67v-2l4.62,2.67Zm0,2.24-4.62-2.67v-2l4.62,2.66Zm0,2.25-4.62-2.67v-2l4.62,2.67Zm-4.86-2.81L130,75.09v-2l4.62,2.67Zm0,.28v2L130,77.33v-2Zm-4.86-.85-4.63-2.66v-2l4.63,2.67Zm-4.86-2.8-4.63-2.67v-2l4.63,2.67ZM120,71.58l-4.62-2.67V67L120,69.62Zm-4.86-2.81-4.62-2.66v-2l4.62,2.67ZM110.3,66l-4.62-2.67v-2L110.3,64Zm-4.86-2.81-4.62-2.67v-2l4.62,2.67Zm-4.86-2.8L96,57.69v-2l4.62,2.66Zm-4.86-2.81L91.1,54.88v-2l4.62,2.67Zm-4.86-2.81-4.62-2.67v-2l4.62,2.67Zm-4.62-4.9v-2l4.62,2.67v2Zm-4.86-7L86,45.48v2l-4.62-2.66Zm0-2.25L86,43.24v2l-4.62-2.67Zm0-2.24L86,41v2l-4.62-2.67Zm0-2.25L86,38.75v2l-4.62-2.67Zm0-2.25L86,36.5v2L81.38,35.8Zm0-2.24L86,34.26v2l-4.62-2.67Zm0-2.25L86,32v2l-4.62-2.67Zm0-2.24L86,29.76v2l-4.62-2.66Zm0-2.25L86,27.52v2l-4.62-2.67Zm0-2.24L86,25.27v2l-4.62-2.66Zm0-2.25L86,23v2l-4.62-2.67Zm0-2.24L86,20.78v2l-4.62-2.67Zm58.09,33.53v2L134.85,51V49Zm0,31.16-4.62-2.67v-2l4.62,2.66ZM81.38,49.27v-2L86,50v2Z"/><polygon class="cls-81" points="100.71 31.38 81.26 20.15 81.26 31.38 100.71 42.6 100.71 31.38"/><polyline class="cls-82" points="99.73 39.8 97.1 32.62 94.19 34.36 91.27 31.38 88.36 33.3 85.44 26.13 82.53 27.62"/><path class="cls-83" d="M97.1,32.28a.64.64,0,0,1,.29.51c0,.19-.13.26-.29.17a.66.66,0,0,1-.29-.51C96.81,32.26,96.94,32.19,97.1,32.28Z"/><path class="cls-83" d="M94.18,34a.63.63,0,0,1,.3.51c0,.18-.13.26-.3.17a.68.68,0,0,1-.29-.51C93.89,34,94,33.92,94.18,34Z"/><path class="cls-83" d="M91.27,31a.66.66,0,0,1,.29.51c0,.19-.13.26-.29.17a.64.64,0,0,1-.29-.51C91,31,91.11,31,91.27,31Z"/><path class="cls-83" d="M88.36,33a.64.64,0,0,1,.29.51c0,.19-.13.26-.29.17a.63.63,0,0,1-.3-.51C88.06,32.94,88.19,32.87,88.36,33Z"/><path class="cls-83" d="M85.44,25.79a.64.64,0,0,1,.29.5c0,.19-.13.27-.29.17a.64.64,0,0,1-.29-.5C85.15,25.77,85.28,25.69,85.44,25.79Z"/><path class="cls-83" d="M82.53,27.28a.64.64,0,0,1,.29.51c0,.19-.13.26-.29.17a.63.63,0,0,1-.3-.51C82.23,27.26,82.36,27.19,82.53,27.28Z"/></g><polygon class="cls-7" points="109.94 68.16 109.32 86.83 112.22 88.38 112.85 69.7 109.94 68.16"/><polygon class="cls-84" points="114.86 76.14 114.41 89.54 117.31 91.09 117.76 77.69 114.86 76.14"/><polygon class="cls-6" points="119.72 85.56 119.49 92.25 122.39 93.8 122.61 87.1 119.72 85.56"/><polygon class="cls-36" points="105.27 72.75 104.87 84.47 107.77 86.01 108.16 74.29 105.27 72.75"/><polygon class="cls-6" points="100.98 65.31 100.42 82.09 103.31 83.64 103.88 66.85 100.98 65.31"/><polygon class="cls-85" points="96.23 71.75 95.96 79.72 98.86 81.27 99.13 73.29 96.23 71.75"/><polygon class="cls-86" points="91.93 64.73 91.51 77.35 94.41 78.9 94.84 66.28 91.93 64.73"/><path class="cls-87" d="M65.72,101.66c-5.3,3-5.33,8-.06,11s13.85,3,19.16,0,5.33-8,.06-11S71,98.62,65.72,101.66Z"/><g class="cls-88"><path class="cls-87" d="M63.57,100.25C57.07,104,57,110,63.5,113.72s17,3.72,23.47,0,6.54-9.75.08-13.47S70.08,96.53,63.57,100.25Z"/></g><path class="cls-89" d="M67.6,102.18c-4.26,2.44-4.28,6.39,0,8.83a17.07,17.07,0,0,0,15.38,0c4.26-2.44,4.28-6.39,0-8.83S71.87,99.74,67.6,102.18Z"/><path class="cls-90" d="M49.16,65.94A12.86,12.86,0,0,0,56,74.63v5.1s-6.55-3.64-6.88-7.45Z"/><path class="cls-91" d="M94.62,77s7.49-3.49,8.52-11.44l.54,5.56s0,6.45-9.19,9.93Z"/><path class="cls-91" d="M85.68,59.09V61s-5-1.69-14-.93V58.43A34.58,34.58,0,0,1,85.68,59.09Z"/><path class="cls-92" d="M98.38,81.31A17.28,17.28,0,0,0,92,75,30.21,30.21,0,0,0,82,71.5l0-6.1a28,28,0,0,1,9.82,2.92C97.61,71.43,99.08,75.85,98.38,81.31Z"/><path class="cls-92" d="M53.55,82c-1.44-5.3.1-9.77,5.76-13.25a27.06,27.06,0,0,1,7.06-2.94l.21,6.68a26.91,26.91,0,0,0-7.06,2.94A16.67,16.67,0,0,0,53.55,82Z"/><path class="cls-92" d="M68.43,72.16l-.21-6.68A37.45,37.45,0,0,1,80,65.24l.21,6.68A37.45,37.45,0,0,0,68.43,72.16Z"/><path class="cls-92" d="M98.28,75.85c.87,6.87-.61,12.32-7.85,16.29a33.34,33.34,0,0,1-7,2.79v-8a33.34,33.34,0,0,0,7-2.79A21.94,21.94,0,0,0,98.28,75.85Z"/><path class="cls-92" d="M53.31,75.85A21.88,21.88,0,0,0,61.2,83.7,31.06,31.06,0,0,0,66.4,86l-.07,8a31.8,31.8,0,0,1-5.2-2.28C54,87.73,52.77,82,53.31,75.85Z"/><path class="cls-93" d="M67,97.27V87.5a58.9,58.9,0,0,0,16.49,1V98.3A58.92,58.92,0,0,1,67,97.27Z"/><path class="cls-90" d="M90.72,62s6.73,1.82,9.82,5.73V64S98,61.39,90.72,58.67Z"/><path class="cls-90" d="M69.23,61.6v3s-5.74.22-12.8,5V65.79S60.82,62.8,69.23,61.6Z"/><path class="cls-94" d="M99.15,67.68a18.27,18.27,0,0,0-1.63-1.19,36,36,0,0,0-4.68-2.57c-1-.45-2.12-.91-3.32-1.33a38.42,38.42,0,0,0-3.83-1.13,42.4,42.4,0,0,0-4.21-.77,40.32,40.32,0,0,0-4.41-.32,43.06,43.06,0,0,0-4.42.2c-.73.06-1.44.18-2.15.27s-1.4.25-2.08.37a37,37,0,0,0-3.87,1c-.62.17-1.2.38-1.76.58s-1.11.38-1.62.6c-1,.43-2,.8-2.76,1.22s-1.51.72-2.07,1l-1.77,1,1.82-.88c.57-.3,1.3-.59,2.12-1s1.77-.69,2.79-1.1c.51-.2,1.06-.35,1.62-.54a17.29,17.29,0,0,1,1.76-.53c1.2-.35,2.5-.63,3.84-.91.68-.11,1.36-.26,2.06-.35s1.4-.19,2.12-.24A39.53,39.53,0,0,1,77.06,61a36.64,36.64,0,0,1,4.34.27,38.35,38.35,0,0,1,4.16.72,41.78,41.78,0,0,1,7.14,2.26c1,.43,1.93.84,2.72,1.25s1.48.78,2,1.1C98.56,67.24,99.15,67.68,99.15,67.68Z"/><path class="cls-94" d="M95.07,83.6s-.59.37-1.69.91a38.08,38.08,0,0,1-4.66,1.92c-1,.32-2.07.66-3.23.93s-2.4.51-3.68.7a36.76,36.76,0,0,1-4,.35,35.7,35.7,0,0,1-4.13-.14l-1-.09-1-.15c-.69-.08-1.36-.22-2-.35a35.35,35.35,0,0,1-3.87-1c-1.23-.42-2.41-.85-3.5-1.34L61.42,85c-.26-.12-.51-.25-.76-.38-.5-.25-1-.47-1.45-.73-.9-.52-1.75-1-2.46-1.43s-1.36-.83-1.84-1.19c-1-.7-1.58-1.09-1.58-1.09l1.51,1.18c.47.39,1.09.8,1.78,1.29s1.52,1,2.42,1.54c.44.28.94.51,1.44.79l.76.4.81.38a33.33,33.33,0,0,0,3.51,1.43,35.69,35.69,0,0,0,3.92,1.09c.68.14,1.36.29,2.06.38l1,.15,1,.11a37.1,37.1,0,0,0,4.21.1,37.79,37.79,0,0,0,4-.4,30.7,30.7,0,0,0,3.71-.79c1.17-.31,2.25-.68,3.24-1a34.84,34.84,0,0,0,4.6-2.13A16.14,16.14,0,0,0,95.07,83.6Z"/><path class="cls-94" d="M50.43,85.93A9,9,0,0,0,51,87.16a15.47,15.47,0,0,0,.85,1.33c.17.25.37.51.58.77s.44.55.7.81l.82.84c.29.29.62.55.94.84a22.15,22.15,0,0,0,2.16,1.63l1.23.73a12.41,12.41,0,0,0,1.29.71A28.08,28.08,0,0,0,62.31,96l1.41.51c.48.16,1,.27,1.44.41l1.41.39c.47.13.94.19,1.4.29.93.17,1.81.37,2.67.45l2.41.24a16.76,16.76,0,0,0,2,.11l1.58,0H78l-1.37-.13-1.56-.14c-.61,0-1.29-.1-2-.22l-2.38-.34c-.43,0-.85-.16-1.29-.25l-1.33-.28c-.46-.1-.93-.17-1.38-.31l-1.39-.4c-.47-.14-.94-.26-1.41-.42l-1.38-.52a27,27,0,0,1-2.7-1.15,10.94,10.94,0,0,1-1.27-.67l-1.22-.7-1.12-.77c-.18-.12-.37-.24-.54-.37l-.5-.4c-.33-.26-.66-.51-1-.77l-.83-.79c-.28-.25-.49-.53-.73-.77a8.11,8.11,0,0,1-.63-.72,14.93,14.93,0,0,1-.92-1.25,9.8,9.8,0,0,1-.52-.86C50.48,86,50.43,85.93,50.43,85.93Z"/><path class="cls-95" d="M84.3,54.46a11.75,11.75,0,0,1,.9-2A3.86,3.86,0,0,1,88,50.93c.75,0,.17.7-.7,1.38a1.6,1.6,0,0,0-.85,1.3,5.59,5.59,0,0,1-.68,1.86C85.52,55.85,84.3,54.46,84.3,54.46Z"/><path class="cls-96" d="M85.81,55.4a6.88,6.88,0,0,1,1-1.65c.56-.48.1-1.12.49-1.44.68-.53,1.18-1.07,1-1.29-.48.45-1.3.08-2.13,1.56a10.91,10.91,0,0,0-.83,2.68C85.64,55.46,85.72,55.55,85.81,55.4Z"/><path class="cls-95" d="M85.27,55.2s1.65-1.31,2.09-1.79.54-1,.38-1-1.53,1.33-1.85.73C85.71,52.86,85.47,55,85.27,55.2Z"/><path class="cls-97" d="M71,59.88s-.38,2.29,2.68,2.18,8.74-1,9.72-2.21A31,31,0,0,0,86,55.09s-1.51.14-1.76-1.12L80.85,58S71.26,58.27,71,59.88Z"/><path class="cls-97" d="M71,59.88c.23-1.61,9.82-1.86,9.82-1.86L84.21,54a1.28,1.28,0,0,0,.66.9,24.1,24.1,0,0,1-2.18,4C81.7,60.05,76,60.93,73,61a3.18,3.18,0,0,1-1.88-.4A1.87,1.87,0,0,1,71,59.88Z"/><path class="cls-96" d="M75.73,77s-2.89,1.57-2.33,6.52.95,4.81.26,6.21c-.52,1-2.08,3.13-2.32,5.12-.19,1.58-.09,2.53-.2,5.1-.13,3.27-.1,2.58-.77,3.85C69.62,105.2,72.12,107,73,107s-.92-1-.3-3.63,3.45-10,4.5-11.59,3.86-10,4.14-12.75A6.67,6.67,0,0,1,75.73,77Z"/><path class="cls-98" d="M72.85,108h0Z"/><polygon class="cls-99" points="70.77 105.09 69.9 107.74 69.65 108.09 70.45 105.03 70.77 105.09"/><path class="cls-98" d="M70.67,103.23c.36.09.6.62,1,1.92.16.53.68,1.92,1.47,1.61.1,0-.08-.4-.08-.4s1.14,0,1.2.31A2,2,0,0,1,72.1,108c-1.09-.35-1.1-1.62-1.26-2.13-.31-1-.54.93-.9-1.06A1.6,1.6,0,0,1,70.67,103.23Z"/><path class="cls-99" d="M72.1,108a1.3,1.3,0,0,0,.73,0c-.27.09-.87-.5-1.17-1.44A3.38,3.38,0,0,0,70.45,105l-.24.17c.08.49.22-.32.63.68C71.05,106.37,71,107.66,72.1,108Z"/><polygon class="cls-98" points="70.05 104.37 69.62 108.39 70.32 108.19 71.15 104.14 70.05 104.37"/><path class="cls-99" d="M69.62,108.39l-.37-.39s.37-3.51.88-4.22.54-.55.54-.55Z"/><path class="cls-100" d="M73.77,73.44a6.38,6.38,0,0,0-1.84,5.65c.74,3.26,2.28,7.47,1.62,9.53s-2.22,3.85-2.4,6.16C71,96.6,71,101.35,71,101.35s.21.89,2,1c0,0,4.49-8.84,5.31-11.27s.32-16.18.32-16.18S75.06,74.74,73.77,73.44Z"/><path class="cls-96" d="M76.81,76.69s-2.21,2.82-.54,7.51,2,4.48,1.67,6c-.27,1.14-1.32,3.51-1.1,5.5.17,1.58.48,2.49,1,5,.61,3.22.48,2.53.11,3.92-.41,1.56,2.44,2.77,3.32,2.59s-1.11-.77-1.11-3.47,1.09-10.56,1.75-12.3.85-12.37.5-15.06A4.5,4.5,0,0,1,76.81,76.69Z"/><path class="cls-98" d="M81.3,108.22h0Z"/><polygon class="cls-99" points="78.61 105.83 78.36 108.62 78.21 109.01 78.29 105.85 78.61 105.83"/><path class="cls-98" d="M78.1,104.05c.37,0,.72.47,1.39,1.65.28.48,1.11,1.72,1.8,1.24.09-.06-.17-.37-.17-.37s1.11-.29,1.24,0-.64,1.88-1.79,1.79-1.43-1.34-1.7-1.8c-.55-.92-.32,1-1.12-.84A1.57,1.57,0,0,1,78.1,104.05Z"/><path class="cls-99" d="M80.57,108.39a1.34,1.34,0,0,0,.72-.16c-.25.15-1-.29-1.47-1.14a3.5,3.5,0,0,0-1.53-1.24l-.19.22c.18.46.14-.36.77.52C79.17,107,79.42,108.29,80.57,108.39Z"/><polygon class="cls-98" points="77.75 105.3 78.25 109.31 78.88 108.96 78.77 104.83 77.75 105.3"/><path class="cls-99" d="M78.25,109.31l-.46-.3s-.43-3.5-.09-4.3.4-.66.4-.66Z"/><path class="cls-100" d="M73.6,73.69A11.45,11.45,0,0,1,74.9,77c.25,1.21-.12,2.79.49,4.9,1,3.63,2.73,7.58,2.36,8.57-.64,1.64-2,3.6-.54,8.47l.41,2.69a3.88,3.88,0,0,0,3.14.52s.93-9.39,1.79-12.9a30.6,30.6,0,0,0-.07-13.88l-.19-.43S75.83,74.27,73.6,73.69Z"/><path class="cls-97" d="M80.43,61.71s-7.17-5.17-9-3.09c0,0-1.69,1.73-.16,6.6s2.57,6,1.79,9.17c0,0,3.52,4.09,9.44,1,0,0-.79-4.53,0-5.89s1.06-5.38-.63-6.59C79.34,61,80.43,61.71,80.43,61.71Z"/><path class="cls-96" d="M79,58.67,79.34,61a3.31,3.31,0,0,1-3.54.22l-.36-2.36A8.47,8.47,0,0,0,79,58.67Z"/><path class="cls-96" d="M78.44,51A5.79,5.79,0,0,1,80.1,54.2c.11,1.84.43,2.16.44,3a2,2,0,0,1-.24,1.26c-.48.62-1.62,1-3.27.65-2-.41-4.41-2.71-3.94-5.16S75.29,49.51,78.44,51Z"/><path class="cls-96" d="M73.55,56.44a32.74,32.74,0,0,1,1.93-5.14,5.78,5.78,0,0,1,1.2-1.09,4.38,4.38,0,0,1,2.24.45,10.09,10.09,0,0,1,.58,1.2c-.38.57-1.21,1.28-1.29,1.73a5.56,5.56,0,0,0,.64,3.18c.4.63-.67,1.79-.32,2.35a.24.24,0,0,1,0,.08A5.94,5.94,0,0,1,77,59.09,5.56,5.56,0,0,1,73.55,56.44Z"/><path class="cls-95" d="M92.43,67.63s1.46-.44,1.8-1.19a7.19,7.19,0,0,0,.88-2.22c0-.62-.17-.8-.6-.56a8.55,8.55,0,0,0-1.93,2.1c-.47.74-.63.7-.84.84S91.58,67.53,92.43,67.63Z"/><path class="cls-101" d="M91.74,66.6c.21-.14.37-.1.84-.84a8.55,8.55,0,0,1,1.93-2.1l.17-.08c-.26.49-.71,1.3-1.12,2a4.69,4.69,0,0,1-1.84,1.59A.52.52,0,0,1,91.74,66.6Z"/><path class="cls-97" d="M79.05,63c.47-.55,1.61-1.06,2.91.37s4.89,5.46,4.89,5.46,4.68-2.34,5.26-2.52a1,1,0,0,0,.36,1.46s-4,4.18-5.74,3.89S77.11,65.3,79.05,63Z"/><path class="cls-102" d="M77.4,50.1c1,.16,3.3.78,2.82,2.74s-4,5-.79,8.73c1.91,2.25-8.23,4.48-8.36-.49s-.14-5,.57-7.23C72.2,52.07,74.49,49.62,77.4,50.1Z"/><path class="cls-103" d="M86.73,100.52c5.55,3.2,5.53,8.31.06,11.47s-14.4,3.2-20,0-5.54-8.3-.06-11.47S81.21,97.37,86.73,100.52Z"/><g class="cls-104"><path class="cls-105" d="M86.73,92.51c5.55,3.19,5.53,8.3.06,11.46s-14.4,3.2-20,0-5.54-8.3-.06-11.46S81.21,89.35,86.73,92.51Z"/></g><g class="cls-106"><path class="cls-107" d="M86.73,84.49c5.55,3.2,5.53,8.31.06,11.47s-14.4,3.19-20,0-5.54-8.3-.06-11.47S81.21,81.33,86.73,84.49Z"/></g><g class="cls-88"><path class="cls-108" d="M86.73,76.48c5.55,3.19,5.53,8.3.06,11.46s-14.4,3.2-20,0-5.54-8.3-.06-11.46S81.21,73.32,86.73,76.48Z"/></g><g class="cls-109"><path class="cls-110" d="M86.73,68.46c5.55,3.19,5.53,8.31.06,11.47s-14.4,3.19-20,0-5.54-8.3-.06-11.47S81.21,65.3,86.73,68.46Z"/></g><g class="cls-111"><path class="cls-112" d="M86.73,60.45c5.55,3.19,5.53,8.3.06,11.46s-14.4,3.19-20,0-5.54-8.3-.06-11.46S81.21,57.29,86.73,60.45Z"/></g><g class="cls-113"><path class="cls-3" d="M86.73,52.43c5.55,3.19,5.53,8.31.06,11.47s-14.4,3.19-20,0-5.54-8.3-.06-11.47S81.21,49.27,86.73,52.43Z"/></g><g class="cls-37"><polygon class="cls-10" points="131.13 57.74 131.63 57.45 120.83 51.22 120.34 51.51 131.13 57.74"/><polygon class="cls-114" points="137.86 76.28 138.36 75.99 138.4 59.74 137.91 60.03 137.86 76.28"/><polygon class="cls-10" points="137.91 60.03 138.4 59.74 132.34 56.24 131.84 56.53 137.91 60.03"/><polygon class="cls-6" points="131.84 56.53 131.13 57.74 120.34 51.51 120.3 66.14 137.86 76.28 137.91 60.03 131.84 56.53"/></g><g class="cls-37"><polygon class="cls-115" points="136.21 76.51 137.53 75.74 137.56 62.33 136.24 63.09 136.21 76.51"/><polygon class="cls-116" points="136.24 63.09 137.56 62.33 120.78 52.63 119.45 53.4 136.24 63.09"/><polygon class="cls-117" points="119.45 53.4 119.42 66.82 136.21 76.51 136.24 63.09 119.45 53.4"/></g><polygon class="cls-118" points="137.87 74.58 137.87 75.08 137.87 75.08 137.87 75.29 138.36 75.29 138.36 75.6 136.23 76.83 136.22 75.56 137.87 74.58"/><g class="cls-37"><polygon class="cls-114" points="136.23 77.22 136.72 76.93 136.76 63.3 136.26 63.59 136.23 77.22"/><polygon class="cls-119" points="136.26 63.59 136.76 63.3 119.2 53.16 118.7 53.45 136.26 63.59"/><polygon class="cls-10" points="118.7 53.45 118.67 67.08 136.23 77.22 136.26 63.59 118.7 53.45"/></g><polygon class="cls-6" points="136.23 77.22 138.36 75.99 138.36 74.67 136.22 75.95 136.23 77.22"/><path class="cls-116" d="M123.9,62.64a.79.79,0,0,1-.15-.12.91.91,0,0,1-.29-.85,1.85,1.85,0,0,1,2.43-1.22c1.68.46,3.41,2.42,4.1,4.65.1.34,0,.59-.24.58a.89.89,0,0,1-.62-.64,5.17,5.17,0,0,0-3-3.41,1.35,1.35,0,0,0-1.78.9C124.28,62.72,124.1,62.75,123.9,62.64Z"/><polygon class="cls-116" points="122.83 61.1 124.03 64.11 125.17 62.41 122.83 61.1"/><path class="cls-116" d="M126.89,69.4a7.77,7.77,0,0,1-3.13-4c-.12-.33,0-.61.2-.61s.51.26.63.6a5.19,5.19,0,0,0,2.93,3.2,1.36,1.36,0,0,0,1.8-.93c.08-.24.34-.25.59,0a.91.91,0,0,1,.3.85,1.84,1.84,0,0,1-2.45,1.27A3.61,3.61,0,0,1,126.89,69.4Z"/><polygon class="cls-116" points="130.83 69.18 129.81 66.16 128.5 67.64 130.83 69.18"/><path class="cls-120" d="M66.13,36.15a9.37,9.37,0,0,1-.63,1.48l.88-.51a1.66,1.66,0,0,0,.68-1.48Z"/><path class="cls-121" d="M66.21,23.37l.21,0,.67-.48a5.22,5.22,0,0,0-2.3-4l-1.17.54C64.28,20.45,65.66,22.24,66.21,23.37Z"/><path class="cls-121" d="M47.17,9.91,48,9.17A1.69,1.69,0,0,0,46.34,9l-.88.51A8,8,0,0,1,47.17,9.91Z"/><polygon class="cls-120" points="66.21 23.37 66.11 23.58 66.18 36.15 67.06 35.64 67.09 22.87 66.21 23.37"/><polygon class="cls-122" points="47.98 9.17 47.1 9.69 56.63 15.54 63.92 19.39 64.79 18.88 47.98 9.17"/><path class="cls-123" d="M63.92,19.4,47.1,9.69C45.83,9,44.79,9.55,44.78,11l0,12.78a5.08,5.08,0,0,0,2.3,4l.09,0A33.16,33.16,0,0,0,45.91,32c.18,0,5.62-.37,7.55-.48l10.41,6c1.26.73,2.3.14,2.31-1.32l0-12.78A5.07,5.07,0,0,0,63.92,19.4Z"/><path class="cls-124" d="M65,36.66,52.23,29.1v-1L65,35.66v1Zm0-11.68v1L47.19,15.5v-1L65.07,25ZM51.83,18.77v1l13.23,7.81v-1l-13.23-7.8ZM65.05,32.31V28.17L47.18,17.69v4.14L65.05,32.31Zm0,.78L47.17,22.61v1.31L65,34.4Z"/><polygon class="cls-125" points="64.23 22.29 65.18 21.77 65.17 24.4 64.22 24.92 63.67 23.34 64.23 22.29"/><polygon class="cls-126" points="44.7 10.97 45.65 10.45 65.18 21.77 64.23 22.29 59.37 20.11 44.7 10.97"/><polygon class="cls-127" points="64.23 22.29 64.22 24.92 44.69 13.6 44.7 10.97 64.23 22.29"/><path class="cls-128" d="M72.44,30.13l-.13-.08-.1-.08-.11-.1L72,29.78a.69.69,0,0,1-.11-.13c0-.06-.09-.12-.13-.19l0,0c0-.07-.07-.15-.11-.23s0,0,0,0-.06-.17-.09-.27,0-.12-.05-.18a1,1,0,0,0,0-.17l0-.2a1.5,1.5,0,0,1,0-.22,4.1,4.1,0,0,1,0-.5c0-.05,0-.1,0-.15a2.69,2.69,0,0,1,0-.4s0-.1,0-.14a2.34,2.34,0,0,1,0-.26l0-.19a2.5,2.5,0,0,1,.07-.26,1.16,1.16,0,0,1,0-.18c0-.18.1-.35.16-.53l.06-.15L72,25l.09-.19a1.63,1.63,0,0,1,.11-.23,1.86,1.86,0,0,1,.1-.2,2.12,2.12,0,0,1,.11-.21l.11-.19.13-.21.12-.18.15-.21.12-.16.19-.24.11-.13a4.68,4.68,0,0,1,.38-.39l.19-.17.1-.09a3.33,3.33,0,0,1,.32-.24,2.42,2.42,0,0,1,2.39-.44L75.48,21a2.39,2.39,0,0,0-2.39.44l-.32.23-.09.09-.19.16,0,0a4.59,4.59,0,0,0-.37.39l0,0-.08.1-.2.23a.18.18,0,0,1-.05.07l-.07.1-.15.21s0,.05,0,.08l-.06.1a1.37,1.37,0,0,0-.13.2l-.06.1,0,.09-.12.22A1.17,1.17,0,0,0,71,24,.56.56,0,0,0,71,24a2.56,2.56,0,0,1-.11.24s0,.08,0,.12l0,.07-.12.3a.61.61,0,0,1,0,.12s0,0,0,0a5.34,5.34,0,0,0-.16.53s0,0,0,0,0,.1,0,.15l-.06.27,0,.19c0,.08,0,.17,0,.25v.06a.22.22,0,0,0,0,.08,2.83,2.83,0,0,0,0,.41.71.71,0,0,0,0,.14c0,.18,0,.35,0,.51a.17.17,0,0,1,0,.07.77.77,0,0,1,0,.15l0,.2c0,.06,0,.11,0,.17s0,.12,0,.18a.06.06,0,0,0,0,0,2.09,2.09,0,0,0,.08.23l0,0,.06.13a.31.31,0,0,0,0,.1l0,0,.1.17,0,0,.1.13a.46.46,0,0,0,.07.07l0,0,.11.1.08.07h0l.13.08.08.05,0,0,1.2.57Z"/><path class="cls-129" d="M72.31,30.05l-.1-.08-.11-.1L72,29.78a.69.69,0,0,1-.11-.13c0-.06-.09-.12-.13-.19l0,0c0-.07-.07-.15-.11-.23s0,0,0,0-.06-.17-.09-.27,0-.12-.05-.18a1,1,0,0,0,0-.17l0-.2a1.5,1.5,0,0,1,0-.22,4.1,4.1,0,0,1,0-.5c0-.05,0-.1,0-.15a2.69,2.69,0,0,1,0-.4s0-.1,0-.14a2.34,2.34,0,0,1,0-.26l0-.19a2.5,2.5,0,0,1,.07-.26,1.16,1.16,0,0,1,0-.18c0-.18.1-.35.16-.53l.06-.15L72,25l.09-.19a1.63,1.63,0,0,1,.11-.23,1.86,1.86,0,0,1,.1-.2,2.12,2.12,0,0,1,.11-.21l.11-.19.13-.21.12-.18.15-.21.12-.16.19-.24.11-.13a4.68,4.68,0,0,1,.38-.39l.19-.17.1-.09a3.33,3.33,0,0,1,.32-.24,2.42,2.42,0,0,1,2.39-.44l-.8-.37a2.4,2.4,0,0,0-2.37.43l-.32.24L73.1,22a1.37,1.37,0,0,0-.18.16l0,0a4.68,4.68,0,0,0-.38.39l0,0-.08.1a2.11,2.11,0,0,0-.19.23l0,.07a.36.36,0,0,0-.07.1l-.15.21-.06.08-.06.1-.13.2-.06.1,0,.09a2.26,2.26,0,0,0-.11.22l-.06.11a.2.2,0,0,0,0,.08,2.56,2.56,0,0,0-.11.24l-.06.12,0,.07-.12.3,0,.12,0,0c-.06.18-.11.35-.16.52v0a.83.83,0,0,1,0,.15l-.06.27,0,.19a2.17,2.17,0,0,0,0,.25.11.11,0,0,0,0,.05.31.31,0,0,0,0,.09,2.83,2.83,0,0,0,0,.41c0,.05,0,.1,0,.14a4.18,4.18,0,0,0,0,.51v.07a.77.77,0,0,1,0,.15l0,.2c0,.06,0,.11,0,.17s0,.12.05.18v0a2.09,2.09,0,0,0,.08.23l0,0,.06.13s0,.07,0,.1l0,0a1.63,1.63,0,0,0,.11.17s0,0,0,0l.11.13.06.07,0,0,.11.1.08.07h0l.13.08.08,0,0,0,.77.36a.6.6,0,0,1-.11-.06Z"/><path class="cls-130" d="M72.31,30.05l-.1-.08-.11-.1L72,29.78a.69.69,0,0,1-.11-.13c0-.06-.09-.12-.13-.19l0,0c0-.07-.07-.15-.11-.23s0,0,0,0-.06-.17-.09-.27,0-.12-.05-.18a1,1,0,0,0,0-.17l0-.2a1.5,1.5,0,0,1,0-.22,4.1,4.1,0,0,1,0-.5c0-.05,0-.1,0-.15a2.69,2.69,0,0,1,0-.4s0-.1,0-.14a2.34,2.34,0,0,1,0-.26l0-.19a2.5,2.5,0,0,1,.07-.26,1.16,1.16,0,0,1,0-.18c0-.18.1-.35.16-.53l.06-.15L72,25l.09-.19a1.63,1.63,0,0,1,.11-.23,1.86,1.86,0,0,1,.1-.2,2.12,2.12,0,0,1,.11-.21l.11-.19.13-.21.12-.18.15-.21.12-.16.19-.24.11-.13a4.68,4.68,0,0,1,.38-.39l.19-.17.1-.09a3.33,3.33,0,0,1,.32-.24,2.42,2.42,0,0,1,2.39-.44l-.8-.37a2.4,2.4,0,0,0-2.37.43l-.32.24L73.1,22a1.37,1.37,0,0,0-.18.16l0,0a4.68,4.68,0,0,0-.38.39l0,0-.08.1a2.11,2.11,0,0,0-.19.23l0,.07a.36.36,0,0,0-.07.1l-.15.21-.06.08-.06.1-.13.2-.06.1,0,.09a2.26,2.26,0,0,0-.11.22l-.06.11a.2.2,0,0,0,0,.08,2.56,2.56,0,0,0-.11.24l-.06.12,0,.07-.12.3,0,.12,0,0c-.06.18-.11.35-.16.52v0a.83.83,0,0,1,0,.15l-.06.27,0,.19a2.17,2.17,0,0,0,0,.25.11.11,0,0,0,0,.05.31.31,0,0,0,0,.09,2.83,2.83,0,0,0,0,.41c0,.05,0,.1,0,.14a4.18,4.18,0,0,0,0,.51v.07a.77.77,0,0,1,0,.15l0,.2c0,.06,0,.11,0,.17s0,.12.05.18v0a2.09,2.09,0,0,0,.08.23l0,0,.06.13s0,.07,0,.1l0,0a1.63,1.63,0,0,0,.11.17s0,0,0,0l.11.13.06.07,0,0,.11.1.08.07h0l.13.08.08,0,0,0,.77.36a.6.6,0,0,1-.11-.06Z"/><path class="cls-131" d="M75,29.77c-1.78,1.23-3.37.49-3.55-1.66A7.42,7.42,0,0,1,74.29,22c1.78-1.23,3.37-.49,3.55,1.65A7.46,7.46,0,0,1,75,29.77Z"/><path class="cls-129" d="M75,29.77c-1.78,1.23-3.37.49-3.55-1.66A7.42,7.42,0,0,1,74.29,22c1.78-1.23,3.37-.49,3.55,1.65A7.46,7.46,0,0,1,75,29.77Z"/><path class="cls-84" d="M74.74,29.67c-1.78,1.23-3.16.59-3.34-1.56A7.42,7.42,0,0,1,74.29,22c1.78-1.23,3.16-.59,3.34,1.55A7.46,7.46,0,0,1,74.74,29.67Z"/><path class="cls-132" d="M77.63,23.55a7.46,7.46,0,0,1-2.89,6.12,2.44,2.44,0,0,1-2.17.53A2.24,2.24,0,0,0,75,29.77a7.46,7.46,0,0,0,2.89-6.12c-.09-1.13-.53-1.84-1.17-2.08A2.38,2.38,0,0,1,77.63,23.55Z"/><path class="cls-128" d="M74.88,29c-1.41,1-2.66.39-2.81-1.31a5.89,5.89,0,0,1,2.29-4.83c1.41-1,2.66-.39,2.81,1.31A5.88,5.88,0,0,1,74.88,29Z"/><path class="cls-84" d="M74.79,28.8c-1.37.92-2.62.34-2.78-1.3a5.49,5.49,0,0,1,2.2-4.65c1.37-.92,2.62-.34,2.78,1.3A5.52,5.52,0,0,1,74.79,28.8Z"/><path class="cls-133" d="M74.66,28.57l0-.6a1.13,1.13,0,0,1-.68.23l.08-.49a1,1,0,0,0,.67-.23,1.06,1.06,0,0,0,.5-.91c0-.32-.23-.35-.7-.27s-.84,0-.89-.57a2.13,2.13,0,0,1,.73-1.62l-.06-.64.32-.22.06.62a1.29,1.29,0,0,1,.8-.27l-.09.51a1.13,1.13,0,0,0-.75.23,1.24,1.24,0,0,0-.57,1c0,.35.25.42.65.34s.89-.06.94.48a2,2,0,0,1-.69,1.53l0,.62Z"/></g></svg>