<?xml version="1.0" encoding="utf-8"?>
<!-- Generator: Adobe Illustrator 24.3.0, SVG Export Plug-In . SVG Version: 6.00 Build 0)  -->
<svg version="1.1" id="Layer_1" xmlns="http://www.w3.org/2000/svg" xmlns:xlink="http://www.w3.org/1999/xlink" x="0px" y="0px"
	 viewBox="0 0 150 150" style="enable-background:new 0 0 150 150;" xml:space="preserve">
<style type="text/css">
	.st0{opacity:0.7;}
	.st1{fill:#9BC9EC;}
	.st2{fill:#ACD8F3;}
	.st3{fill:#C7C7E4;}
	.st4{fill:#B8D4D8;}
	.st5{opacity:0.5;}
	.st6{fill:#FFFFFF;}
	.st7{fill:#D7D8DF;}
	.st8{fill:#B9BCC9;}
	.st9{fill:#9DA3B5;}
	.st10{fill:#848DA3;}
	.st11{fill:#6E7993;}
	.st12{fill:#586884;}
	.st13{fill:#425977;}
	.st14{fill:#294C6C;}
	.st15{fill:#063F61;}
	.st16{fill:#F0F2F4;}
	.st17{fill:#E4E9EC;}
	.st18{fill:#D9E0E5;}
	.st19{fill:#CED8DE;}
	.st20{fill:#C3D0D7;}
	.st21{fill:#B8C8D1;}
	.st22{fill:#AEC0CB;}
	.st23{fill:#A4B9C5;}
	.st24{fill:#99B2C0;}
	.st25{fill:#C7EAF7;}
	.st26{fill:#3E6DAC;}
	.st27{fill:#0598CD;}
	.st28{fill:#315384;}
	.st29{fill:url(#SVGID_1_);}
	.st30{fill:#03293A;}
	.st31{fill:url(#SVGID_2_);}
	.st32{fill:#72AECC;}
	.st33{fill:#749EC1;}
	.st34{fill:#F36D24;}
	.st35{fill:#EFA859;}
	.st36{opacity:0.26;fill:#F6B980;enable-background:new    ;}
	.st37{opacity:0.4;fill:#87A0C4;}
	.st38{opacity:0.57;fill:#87A0C4;}
	.st39{fill:url(#SVGID_3_);}
	.st40{fill:url(#SVGID_4_);}
	.st41{fill:url(#SVGID_5_);}
	.st42{fill:url(#SVGID_6_);}
	.st43{fill:url(#SVGID_7_);}
	.st44{fill:url(#SVGID_8_);}
	.st45{fill:url(#SVGID_9_);}
	.st46{fill:#88382A;}
	.st47{fill:url(#SVGID_10_);}
	.st48{fill:url(#SVGID_11_);}
	.st49{fill:#87A0C4;}
	.st50{fill:url(#SVGID_12_);}
	.st51{fill:url(#SVGID_13_);}
	.st52{fill:url(#SVGID_14_);}
	.st53{fill:url(#SVGID_15_);}
	.st54{fill:url(#SVGID_16_);}
	.st55{fill:#2BAAE2;}
	.st56{fill:url(#SVGID_17_);}
	.st57{fill:url(#SVGID_18_);}
</style>
<g>
	<g id="Data_Encryption_and_Protection">
		<g class="st0">
			<path class="st1" d="M114,61.9c-5.3-3-11-5.2-17-6.5c-12.7-2.9-25.9-2.9-38.6,0c-5.9,1.3-11.6,3.5-16.9,6.5
				c-4.4,2.4-8.2,5.8-11.2,9.8c-2.4,3.2-3.7,7.2-3.7,11.2c0.1,4,1.4,7.9,3.8,11.2c3,4.1,6.9,7.4,11.3,9.8c5.3,3,11,5.2,17,6.5
				c12.7,2.9,25.9,2.9,38.6,0c5.9-1.3,11.6-3.5,16.9-6.5c4.4-2.4,8.2-5.8,11.2-9.8c5-6.6,4.9-15.8-0.1-22.4
				C122.3,67.7,118.5,64.3,114,61.9z M113.3,103.4c-19.4,11.3-51.1,11.3-70.6,0s-19.6-29.6-0.2-40.9s51-11.3,70.6,0
				S132.7,92.1,113.3,103.4L113.3,103.4z"/>
			<path class="st2" d="M118.8,59.2c-6-3.4-12.5-5.9-19.2-7.4c-14.4-3.3-29.3-3.3-43.6,0c-6.7,1.5-13.2,4-19.1,7.4
				c-5,2.7-9.3,6.5-12.7,11.1c-2.7,3.7-4.1,8.1-4.2,12.6c0.1,4.6,1.6,9,4.3,12.6c3.4,4.6,7.8,8.4,12.8,11.1c6,3.4,12.5,5.8,19.2,7.3
				c7.2,1.7,14.5,2.5,21.8,2.5c7.3,0,14.7-0.8,21.8-2.5c6.7-1.5,13.1-4,19.1-7.3c5-2.7,9.3-6.5,12.7-11.1c5.6-7.5,5.6-17.8-0.1-25.3
				C128.1,65.7,123.8,61.9,118.8,59.2z M117.5,105.8c-21.7,12.6-57.1,12.6-78.9,0s-22-33.1-0.3-45.7s57.1-12.6,78.9,0
				S139.2,93.2,117.5,105.8z"/>
			<path class="st1" d="M110.3,64.1c-8.7-5-20.3-7.8-32.5-7.8S54,59.1,45.3,64.1S31.9,75.8,31.9,82.9s4.9,13.8,13.6,18.8
				s20.3,7.8,32.5,7.8s23.8-2.8,32.5-7.8s13.4-11.7,13.3-18.8S119,69.1,110.3,64.1z M108.5,100.6c-16.8,9.8-44.2,9.8-61.1,0
				s-17-25.6-0.2-35.4s44.2-9.8,61.1,0S125.3,90.9,108.5,100.6z"/>
			<path class="st1" d="M104.6,67.4C97.4,63.2,87.9,61,77.8,61S58.1,63.2,51,67.4s-11,9.7-11,15.5s4,11.4,11.2,15.5
				s16.7,6.4,26.8,6.4s19.6-2.3,26.8-6.4s11-9.7,11-15.5S111.8,71.5,104.6,67.4z M103.8,97.9c-14.2,8.2-37.3,8.2-51.6,0
				S37.8,76.2,52,68s37.3-8.2,51.6,0S118,89.6,103.8,97.9z"/>
			<path class="st1" d="M140.7,68.1c-3.4-4.9-8.4-9.2-14.9-13l0,0h-0.1c-7-3.9-14.6-6.8-22.4-8.6c-16.8-3.8-34.3-3.8-51.1,0
				c-7.8,1.8-15.4,4.7-22.4,8.6l0,0l0,0c-6.4,3.8-11.4,8.1-14.8,13C8.5,76.9,8.5,89,15.2,97.7c3.4,4.9,8.5,9.2,15,13
				c3.4,1.9,6.9,3.6,10.5,5c3.9,1.5,7.9,2.7,12,3.7c8.4,1.9,17,2.9,25.5,2.9c8.6,0,17.2-0.9,25.5-2.9c7.8-1.8,15.4-4.7,22.4-8.6
				c6.5-3.8,11.5-8.1,14.8-13c3.1-4.3,4.9-9.5,4.9-14.8C145.8,77.6,143.9,72.4,140.7,68.1z M125.5,110.4c-26.1,15.2-68.7,15.2-95,0
				s-26.4-39.8-0.3-55s68.7-15.2,95,0S151.6,95.3,125.5,110.4z"/>
		</g>
		<g>
			<polygon class="st3" points="34.7,115 34.5,114.9 14.9,103.6 15.1,103.2 34.7,114.5 59.1,100.4 59.3,100.8 			"/>
		</g>
		<g>
			<polygon class="st3" points="49.3,146.1 24.4,131.7 68,105.9 68.2,106.3 25.3,131.7 49.5,145.7 			"/>
		</g>
		<g>
			<polygon class="st3" points="79,146.2 44.1,126.1 73.8,108.6 74.1,109 44.9,126.1 79.2,145.9 			"/>
		</g>
		<g>
			<rect x="21.9" y="114.6" transform="matrix(0.866 -0.5 0.5 0.866 -51.4394 37.5645)" class="st3" width="45" height="0.4"/>
		</g>
		<circle class="st3" cx="20.3" cy="106.1" r="2.3"/>
		<circle class="st3" cx="41.8" cy="116.2" r="2.3"/>
		<circle class="st3" cx="59.3" cy="134.4" r="2.3"/>
		<circle class="st3" cx="24.8" cy="131.4" r="2.3"/>
		<g>
			<polygon class="st4" points="112.3,35 112.4,35.1 132.1,46.5 131.9,46.8 112.3,35.5 87.9,49.6 87.7,49.2 			"/>
		</g>
		<g>
			<polygon class="st4" points="97.7,3.9 122.6,18.3 79,44 78.8,43.7 121.7,18.3 97.5,4.3 			"/>
		</g>
		<g>
			<polygon class="st4" points="68,3.8 102.9,24 73.2,41.4 72.9,41 102.1,24 67.8,4.1 			"/>
		</g>
		<g>
			<rect x="80.1" y="35" transform="matrix(0.866 -0.5 0.5 0.866 -3.8712 56.0214)" class="st4" width="45" height="0.4"/>
		</g>
		<circle class="st4" cx="126.7" cy="43.9" r="2.3"/>
		<circle class="st4" cx="105.2" cy="33.8" r="2.3"/>
		<circle class="st4" cx="87.7" cy="15.6" r="2.3"/>
		<circle class="st4" cx="122.2" cy="18.6" r="2.3"/>
		<g class="st5">
			<path class="st6" d="M29.5,92.4L29.5,92.4L29.5,92.4L29.5,92.4v0.3l0,0l0,0l0,0l0,0l0,0l0,0l0,0l0,0l0,0l0,0l0,0l0,0l0,0l0,0l0,0
				l0,0l0,0h0.1l52.7,30.6c0,0,0.1,0.1,0.1,0.1l0,0h0.1l0,0h0.1l0,0h0.2l0,0h0.1H83h0.1h0.6h0.2l0,0H84h0.1h0.1h0.1h0.1h0.1l0,0
				l0.1-0.1l0,0l0.1-0.1l29.9-17.2h0.1l0,0l0,0l0,0l0,0l0,0l0,0l0,0l0,0l0,0l0,0l0,0l0,0l0,0l0,0l0,0l0,0l0,0l0,0l0,0l0,0l0,0l0,0
				l0,0l0,0l0,0v-0.1l0,0l0,0l0,0l0,0l0,0c0-0.4-0.2-0.7-0.6-0.8L62.4,74.3c-0.8-0.4-1.8-0.4-2.7,0L30,91.6
				C29.7,91.7,29.5,92,29.5,92.4L29.5,92.4L29.5,92.4z"/>
			<path class="st7" d="M59.9,74.5c0.1,0,0.1-0.1,0.2-0.1l0.2-0.1c0.7-0.2,1.5-0.1,2.2,0.3l51.7,29.9c0.3,0.2,0.4,0.4,0.4,0.8l0,0
				l0,0l0,0l0,0l0,0l0,0l0,0l0,0l0,0l0,0l0,0l0,0l0,0l0,0l0,0l0,0l0,0l0,0l0,0l0,0l0,0l0,0l0,0l0,0l0,0l0,0l0,0l0,0l0,0l0,0h-0.1
				L84.9,123l-0.1,0.1l0,0h-0.1l0,0h-0.1h-0.1h-0.1h-0.1h-0.1l0,0h-0.1l0,0H84h-0.3c0,0-0.1,0-0.1,0H83h-0.2l0,0h-0.1h-0.4l-51.9-30
				h-0.1l0,0l0,0l0,0l0,0l0,0l0,0l0,0l0,0l0,0l0,0l0,0l0,0l0,0l0,0l0,0l0,0l0,0v-0.1l0,0v-0.1l0,0l0,0c0.1-0.3,0.3-0.6,0.6-0.7
				L59.9,74.5z"/>
			<path class="st8" d="M60,74.8l0.2-0.1l0.2-0.1c0.7-0.1,1.5,0,2.2,0.4l51.3,29.6c0.2,0.2,0.3,0.4,0.3,0.7l0,0l0,0l0,0l0,0l0,0l0,0
				l0,0l0,0l0,0l0,0l0,0l0,0l0,0l0,0l0,0l0,0l0,0l0,0l0,0l0,0l0,0l0,0l0,0l0,0l0,0l0,0l0,0l0,0l0,0l0,0l0,0h-0.1L85,122.6l-0.1,0.1
				l0,0l-0.1,0.1l0,0h-0.1h-0.1h-0.1h-0.1h-0.1h-0.1l0,0L84,123h-0.6c0,0-0.1,0-0.1,0c0,0-0.1,0-0.1,0h-0.8L30.7,93h0l0,0l0,0l0,0
				l0,0l0,0l0,0l0,0l0,0l0,0l0,0l0,0l0,0l0,0l0,0v-0.1l0,0l0,0l0,0l0,0l0,0l0,0l0,0v-0.1l0,0l0,0c0-0.2,0.3-0.5,0.6-0.7L60,74.8z"/>
			<path class="st9" d="M60.1,75c0.1,0,0.1-0.1,0.2-0.1h0.2c0.7,0,1.4,0.1,2.1,0.5l50.9,29.4c0.2,0.2,0.1,0.5,0.1,0.7l0,0l0,0l0,0
				l0,0l0,0l0,0l0,0l0,0l0,0l0,0l0,0l0,0l0,0l0,0l0,0l0,0l0,0l0,0l0,0h-0.1l0,0l0,0l0,0l0,0l0,0L85,122.3l-0.1,0.1l0,0h-0.1l0,0
				h-0.1h-0.1h-0.1h-0.1h-0.1l0,0h-0.1l0,0h-0.1l0,0H84h-0.2c0,0-0.1,0-0.1,0s-0.1,0-0.1,0s-0.1,0-0.1,0h-0.2c0,0-0.1,0-0.1,0l0,0
				c-0.1,0-0.1,0-0.2,0l0,0c0,0-0.1,0-0.1,0h-0.4L31.1,92.9l0,0l0,0l0,0l0,0l0,0l0,0l0,0l0,0l0,0l0,0l0,0l0,0l0,0l0,0l0,0l0,0l0,0
				v-0.1l0,0l0,0l0,0l0,0l0,0l0,0c0-0.2,0.4-0.5,0.6-0.7L60.1,75z"/>
			<path class="st10" d="M60.3,75.2l0.2-0.1h0.2c0.7,0,1.4,0.2,2,0.6l50.5,29.1c0.2,0.1,0,0.5,0,0.6l0,0l0,0l0,0l0,0l0,0l0,0l0,0
				l0,0l0,0l0,0l0,0l0,0l0,0l0,0l0,0l0,0l0,0l0,0L85.1,122l-0.1,0.1l0,0h-0.1l0,0c0,0-0.1,0-0.1,0h-0.1l0,0h-0.1h-0.1l0,0h-0.1l0,0
				h-0.1l0,0h-0.1H84h-0.1h-0.1c0,0-0.1,0-0.1,0h-0.1c0,0-0.1,0-0.1,0h-0.1c0,0-0.1,0-0.1,0l0,0h-0.2l0,0c0,0-0.1,0-0.1,0H83l0,0
				h-0.2l0,0l0,0L31.4,92.8l0,0l0,0l0,0l0,0l0,0l0,0l0,0l0,0l0,0l0,0l0,0l0,0l0,0l0,0l0,0l0,0l0,0l0,0l0,0l0,0l0,0l0,0l0,0l0,0
				c0-0.2,0.4-0.5,0.6-0.6L60.3,75.2z"/>
			<path class="st11" d="M60.4,75.4c0.1,0,0.1-0.1,0.2-0.1c0.1,0,0.2,0,0.2,0c0.7,0.1,1.4,0.3,2,0.7l50,28.9
				c0.2,0.1-0.1,0.4-0.2,0.6l0,0l0,0l0,0l0,0l0,0l0,0h-0.1l0,0l-27.4,16.2c0,0-0.1,0-0.1,0.1l0,0h-0.1l0,0h-0.1h-0.1h-0.1h-0.1h-0.1
				h-0.1l0,0h-0.1l0,0h-0.1h-0.1h-0.1H84H84c0,0-0.1,0-0.1,0h-0.1h-0.1c0,0-0.1,0-0.1,0l0,0h-0.2l0,0c0,0-0.1,0-0.1,0l0,0l0,0H83
				L32,92.3l0,0l0,0l0,0l0,0l0,0l0,0l0,0l0,0l0,0h-0.1l0,0l0,0l0,0l0,0c0-0.1,0.5-0.5,0.7-0.6L60.4,75.4z"/>
			<path class="st12" d="M60.5,75.6c0.1,0,0.1-0.1,0.2-0.1H61c0.7,0.2,1.3,0.4,2,0.8l49.6,28.7c0.1,0.1-0.3,0.4-0.3,0.5h-0.2l0,0
				l-26.9,15.8c0,0-0.1,0-0.1,0l0,0H85l0,0h-0.1h-0.1l0,0h-0.1l0,0l0,0h-0.1l0,0l-0.1,0.1l0,0h-0.1h-0.1h-0.1h-0.1h-0.1h-0.1H84
				c0,0-0.1,0-0.1,0h-0.1l0,0c0,0-0.1,0-0.2,0l0,0h-0.1h-0.1l0,0h-0.3L32.1,92.6l0,0H32c0-0.1,0.6-0.5,0.7-0.5L60.5,75.6z"/>
			<path class="st13" d="M60.6,75.8h0.2c0.1,0,0.2,0,0.2,0c0.7,0.2,1.3,0.5,1.9,0.9l49.2,28.3c0.1,0-0.4,0.4-0.4,0.5h-0.1l0,0
				L85.2,121h-0.1l0,0h-0.1l0,0H85h-0.1l0,0h-0.1l0,0l0,0h-0.1l0,0h-0.1l0,0h-0.1h-0.1h-0.1h-0.1h-0.1c0,0-0.1,0-0.1,0h-0.1H84h-0.1
				l0,0l-0.2,0.1l0,0c0,0-0.1,0.1-0.1,0h-0.4L32.5,92.5l0,0h-0.1c0.2-0.2,0.4-0.4,0.7-0.5L60.6,75.8z"/>
			<path class="st14" d="M60.8,76.1c0.1,0,0.2,0,0.2-0.1h0.2c0.1,0,1.8,0.9,1.9,1l48.7,28.2c0,0-0.6,0.4-0.6,0.4h-0.1l-25.9,15h-0.1
				l0,0h-0.1l0,0h-0.1l0,0l0,0l0,0l0,0H85l0,0l-0.1,0.1l0,0h-0.1h-0.1h-0.1h-0.1h-0.1h-0.1h-0.1h-0.1h-0.1l0,0l-0.2,0.1l0,0h-0.1
				h-0.5L32.8,92.5l0,0l0,0c0.2-0.2,0.5-0.3,0.7-0.5L60.8,76.1z"/>
			<path class="st15" d="M83.5,121.3h-0.2l-50.1-29l27.7-16.1c0.1,0,0.2,0,0.2,0c0.1,0,0.2,0,0.2,0l50.1,28.9l-27.7,16.1L83.5,121.3
				L83.5,121.3z"/>
		</g>
		<g class="st5">
			<path class="st6" d="M141.7,119.2L141.7,119.2L141.7,119.2v0.2l0,0l0,0l0,0l0,0l0,0l0,0l0,0l0,0l0,0l0,0l0,0h-0.1h-0.1l0,0h-0.1
				l0,0l0,0l0,0h-0.1l-31.7,18.5h-0.1l0,0h-0.1l0,0h-0.1l0,0h-0.1l0,0h-0.1l0,0h-0.1h-0.1l0,0h-0.1l0,0H109H109l0,0h-0.2l0,0h-0.1
				h-1h-0.1l0,0h-0.1h-0.2h-0.1l0,0h-0.1H107l0,0h-0.1l0,0h-0.1l0,0h-0.1h-0.1l0,0l0,0h-0.1l0,0h-0.1l-15.8-9.1h-0.1l0,0l0,0l0,0
				l0,0l0,0l0,0l0,0l0,0l0,0l0,0l0,0l0,0l0,0l0,0l0,0l0,0l0,0l0,0l0,0l0,0l0,0v-0.2c0-0.2,0.2-0.5,0.6-0.7l31.7-18.5
				c1.2-0.6,2.6-0.6,3.8,0l15.8,9.1C141.5,118.7,141.7,119,141.7,119.2z"/>
			<path class="st16" d="M121.7,109.6c0.3-0.2,0.6-0.3,0.9-0.3c0.3-0.1,0.6-0.1,0.9-0.1c0.6,0,1.3,0.2,1.8,0.5l15.4,8.9
				c0.3,0.1,0.4,0.4,0.4,0.7v0.1l0,0v0.1l0,0l0,0l0,0l0,0l0,0l0,0l0,0l0,0l0,0l0,0h-0.1c0,0,0,0-0.1,0l0,0l0,0l0,0l0,0H141
				L109.5,138h-0.1l0,0h-0.1l0,0c0,0-0.1,0-0.1,0l0,0h-0.1l0,0h-0.1l0,0h-0.1H109l0,0H109l0,0h-0.1h-0.1h-0.1h-0.2l0,0h-0.1h-1.3
				H107l0,0H107l0,0h-0.1h-0.1l0,0h-0.1l0,0h-0.1l0,0h-0.1l0,0l0,0l0,0h-0.1l0,0h-0.1l0,0l0,0l0,0l-15.5-9h-0.1l0,0l0,0l0,0l0,0l0,0
				l0,0l0,0l0,0l0,0l0,0l0,0l0,0l0,0l0,0l0,0l0,0l0,0l0,0v-0.1l0,0v-0.2c0-0.2,0.3-0.5,0.6-0.6L121.7,109.6z"/>
			<path class="st17" d="M121.8,109.8c0.3-0.2,0.6-0.3,0.9-0.3c0.3,0,0.6,0,0.9,0c0.6,0,1.2,0.2,1.8,0.5l15,8.7
				c0.2,0.1,0.3,0.4,0.3,0.6v0.1l0,0l0,0l0,0l0,0l0,0l0,0l0,0l0,0l0,0l0,0l0,0l0,0l0,0h-0.1l0,0l0,0l0,0l0,0h-0.1l-30.9,18.2h-0.1
				l0,0h-0.1l0,0h-0.1l0,0h-0.1l0,0h-0.1l0,0l0,0h-0.1l0,0h-0.1H109l0,0h-0.1h-0.2l0,0h-0.1l0,0h-0.1l0,0h-0.1h-0.6c0,0-0.1,0-0.1,0
				l0,0c0,0-0.1,0-0.2,0l0,0l0,0l0,0c0,0,0,0-0.1,0h-0.4h-0.1l0,0H107l0,0H107l0,0h-0.1l0,0l0,0l0,0h-0.1l0,0h-0.1h-0.1l-15.3-8.8
				h-0.1l0,0h-0.8l0,0l0,0l0,0l0,0l0,0l0,0l0,0l0,0l0,0l0,0l0,0l0,0l0,0l0,0l0,0v-0.1c0-0.2,0.3-0.4,0.6-0.6L121.8,109.8z"/>
			<path class="st18" d="M122,110.1c0.3-0.1,0.6-0.2,0.8-0.3c0.3,0,0.6,0,0.9,0c0.6,0.1,1.2,0.3,1.7,0.6l14.6,8.4
				c0.2,0.2,0.2,0.4,0.2,0.6v0.1l0,0l0,0l0,0l0,0l0,0l0,0l0,0l0,0l0,0l0,0l0,0l0,0l0,0l0,0l0,0l0,0l0,0l0,0h-0.1L110,137h-0.1l0,0
				h-0.1l0,0h-0.1l0,0h-0.1l0,0h-0.1l0,0l0,0l0,0l0,0l0,0l0,0h-0.1h-0.1h-0.1l0,0h-0.1H109h-0.1h-0.2h-0.1h-0.2h-0.1h-0.1
				c0,0-0.1,0-0.1,0l0,0c0,0-0.1,0-0.2,0h-0.5h-0.1h-0.1h-0.1l0,0h-0.1h-0.1l0,0l0,0l0,0h-0.1l0,0h-0.1l0,0l0,0H107l-16-8l0,0h-0.1
				l0,0l0,0l0,0l0,0l0,0l0,0l0,0l0,0l0,0l0,0l0,0l0,0l0,0l0,0v-0.1c0-0.1,0.4-0.4,0.6-0.6L122,110.1z"/>
			<path class="st19" d="M122.1,110.3c0.3-0.1,0.5-0.2,0.8-0.2c0.3,0,0.6,0,0.9,0c0.6,0.1,1.1,0.3,1.6,0.6l14.3,8.2
				c0.2,0.1,0,0.4,0,0.6l0,0l0,0l0,0l0,0l0,0l0,0l0,0l0,0l0,0l0,0l0,0l0,0l0,0l0,0l0,0l0,0h-0.1L109.8,137l0,0l0,0h-0.1l0,0h-0.1
				l0,0l0,0l0,0h-0.1l0,0l0,0l0,0l0,0h-0.1h-0.1l0,0l0,0l0,0c0,0-0.1,0-0.1,0l0,0h-0.1l0,0h-0.1l0,0H109l0,0h-0.1l0,0h-0.1h-0.1
				h-0.1h-0.1l0,0h-0.1h-0.1c0,0-0.1,0-0.1,0l0,0l-0.2,0.1h-0.7h-0.1h-0.2l0,0l0,0h-0.1l0,0h-0.1h-0.2l-14.8-8.6l0,0H92l0,0l0,0l0,0
				l0,0l0,0l0,0v-0.1l0,0l0,0c0-0.1,0.4-0.4,0.6-0.6L122.1,110.3z"/>
			<path class="st20" d="M122.2,110.5c0.3-0.1,0.5-0.2,0.8-0.2c0.3,0,0.6,0,0.8,0c0.5,0.1,1.1,0.3,1.6,0.6l13.9,8
				c0.2,0.1-0.1,0.4-0.1,0.5l0,0l0,0l0,0l0,0l0,0l0,0h-0.1l0,0l0,0l0,0l0,0l0,0l0,0l-29.1,17l0,0l0,0l0,0l0,0l0,0l0,0H110l0,0h-0.1
				l0,0l0,0l0,0h-0.1l0,0h-0.1l0,0l0,0h-0.1l0,0h-0.1l0,0h-0.1l0,0h-0.1l0,0h-0.1l0,0h-0.1h-0.1h-0.1H109h-0.1h-0.1c0,0-0.1,0-0.1,0
				l0,0l-0.2,0.1h-1h-0.1l0,0h-0.1l0,0h-0.1h-0.1l-14.6-8.4l0,0h-0.2l0,0l0,0l0,0l0,0l0,0l0,0c0-0.1,0.5-0.4,0.6-0.5L122.2,110.5z"
				/>
			<path class="st21" d="M122.3,110.7c0.2-0.1,0.5-0.2,0.8-0.2c0.3,0,0.6,0,0.8,0.1c0.5,0.2,1,0.4,1.5,0.7l13.5,7.8
				c0.1,0.1-0.2,0.4-0.2,0.5l0,0l0,0l0,0l0,0l0,0l0,0l0,0h-0.1l0,0l-28.7,16.9h-0.1l0,0l0,0l0,0l0,0l0,0l0,0l0,0h-0.1l0,0l0,0h-0.1
				l0,0h-0.1l0,0h-0.1l-0.1,0.1l0,0l-0.1,0.1l0,0h-0.1l0,0h-0.1l0,0h-0.1l0,0H109H109h-0.1l0,0l0,0h-0.1h-0.1h-0.1l0,0
				c0,0-0.2,0.1-0.2,0.1h-1h-0.1l0,0h-0.1H107l-14.3-8.3l0,0h-0.2l0,0c0.2-0.2,0.4-0.4,0.6-0.5L122.3,110.7z"/>
			<path class="st22" d="M122.4,110.9c0.2-0.1,0.5-0.2,0.8-0.2c0.3,0,0.5,0,0.8,0.1c0.5,0.2,1,0.4,1.4,0.7l13.1,7.6
				c0.1,0.1-0.4,0.4-0.4,0.5h-0.1l0,0l0,0l0,0l0,0l-28,16.3l0,0l0,0l0,0l0,0l0,0l0,0h-0.1H110l0,0l0,0l0,0l0,0l0,0l0,0l-0.1,0.1l0,0
				l-0.1,0.1l0,0h-0.1l0,0h-0.1l0,0h-0.1l0,0h-0.1h-0.1h-0.1h-0.1l0,0h-0.1h-0.1l-0.1,0.1l0,0l-0.2,0.1H108h-0.1h-0.8l0,0l0,0h-0.1
				l0,0H107l0,0h-0.1h-0.2L92.6,128l0,0h-0.1c0.2-0.2,0.4-0.3,0.7-0.5L122.4,110.9z"/>
			<path class="st23" d="M122.6,111.1c0.2-0.1,0.5-0.2,0.8-0.2c0.3,0,0.5,0,0.8,0.1c0.1,0,1.3,0.7,1.4,0.7l12.7,7.3
				c0,0-0.5,0.4-0.5,0.4l0,0l0,0l0,0l0,0l-27.5,16H110l0,0l0,0l0,0l0,0h-0.1l0,0l0,0h-0.1l0,0l0,0l0,0l0,0l-0.1,0.1l0,0l-0.1,0.1
				l0,0h-0.1l0,0h-0.1l0,0h-0.1l0,0h-0.1h-0.1h-0.1l0,0l0,0h-0.1l-0.1,0.1l-0.1,0.1l0,0l-0.2,0.1l0,0l0,0h-0.1h-0.9h-0.1h-0.3
				l-13.9-8l0,0h-0.5c0,0,0.6-0.4,0.7-0.4L122.6,111.1z"/>
			<path class="st24" d="M107.5,136.6h-0.3h-0.1l0,0h-0.1h-0.2l-13.7-8l29.5-17.2c0.2-0.1,0.5-0.1,0.8-0.1c0.3,0,0.5,0,0.8,0.1
				l13.6,7.9l-29.5,17.2h-0.1h-0.1h-0.1H108h-0.5V136.6z"/>
		</g>
		<path class="st2" d="M47.9,57.7c-1.9-1.1-4-1.9-6.2-2.4c-4.6-1-9.4-1-13.9,0c-2.1,0.5-4.2,1.3-6.1,2.4c-1.6,0.9-3,2.1-4,3.5
			c-1.8,2.4-1.8,5.7,0,8.1c1.1,1.5,2.5,2.7,4.1,3.6c1.9,1.1,4,1.9,6.1,2.4c4.6,1,9.4,1,13.9,0c2.1-0.5,4.2-1.3,6.1-2.4
			c1.6-0.9,2.9-2.1,4-3.6c1.8-2.4,1.8-5.7,0-8.1C50.9,59.8,49.5,58.6,47.9,57.7z M47.6,72.7c-7,4.1-18.5,4.1-25.5,0
			S15.1,62,22.1,57.9s18.4-4.1,25.5,0S54.7,68.6,47.6,72.7L47.6,72.7z"/>
		<path class="st2" d="M49.6,56.7c-2.2-1.2-4.5-2.1-7-2.7c-5.2-1.2-10.6-1.2-15.8,0c-2.4,0.5-4.8,1.4-6.9,2.7c-1.8,1-3.4,2.4-4.6,4
			c-1,1.3-1.5,2.9-1.5,4.6c0,1.6,0.6,3.2,1.6,4.6c1.2,1.7,2.8,3,4.6,4c2.2,1.2,4.5,2.1,6.9,2.7c5.2,1.2,10.6,1.2,15.8,0
			c2.4-0.5,4.8-1.4,6.9-2.7c1.8-1,3.4-2.3,4.6-4c1-1.3,1.5-2.9,1.5-4.6c0-1.6-0.6-3.2-1.6-4.6C53,59.1,51.4,57.7,49.6,56.7z
			 M49.2,73.6c-7.8,4.6-20.6,4.6-28.5,0s-7.9-12-0.1-16.5s20.6-4.6,28.5,0S57,69,49.2,73.6z"/>
		<path class="st2" d="M46.6,58.5c-3.6-1.9-7.7-2.9-11.8-2.8c-4.1-0.1-8.1,0.9-11.7,2.8c-3.1,1.8-4.8,4.2-4.8,6.8s1.8,5,4.9,6.8
			c3.6,1.9,7.7,2.9,11.7,2.8C39,75,43,74,46.6,72.1c3.1-1.8,4.8-4.2,4.8-6.8S49.7,60.3,46.6,58.5z M45.9,71.7
			c-6.1,3.5-16,3.5-22.1,0s-6.1-9.3-0.1-12.8s16-3.5,22.1,0S52,68.2,45.9,71.7z"/>
		<path class="st2" d="M44.5,59.7c-3-1.6-6.3-2.4-9.7-2.3c-3.4-0.1-6.7,0.7-9.7,2.3c-2.6,1.5-4,3.5-4,5.6s1.5,4.1,4,5.6
			c3,1.6,6.3,2.4,9.7,2.3c3.4,0.1,6.7-0.7,9.7-2.3c2.6-1.5,4-3.5,4-5.6S47.1,61.2,44.5,59.7z M44.2,70.7c-5.1,3-13.5,3-18.6,0
			s-5.2-7.8-0.1-10.8s13.5-3,18.7,0S49.3,67.7,44.2,70.7L44.2,70.7z"/>
		<path class="st2" d="M57.5,60c-1.4-1.9-3.3-3.5-5.4-4.7l0,0l0,0c-2.5-1.4-5.3-2.5-8.1-3.1c-6.1-1.4-12.4-1.4-18.5,0
			c-2.8,0.6-5.6,1.7-8.1,3.1l0,0c-2.1,1.1-4,2.7-5.4,4.7c-1.1,1.6-1.7,3.4-1.8,5.3c0,1.9,0.7,3.8,1.8,5.3c1.4,1.9,3.3,3.5,5.4,4.7
			c1.2,0.7,2.5,1.3,3.8,1.8c1.4,0.5,2.9,1,4.3,1.3c6.1,1.4,12.4,1.4,18.5,0c2.8-0.6,5.6-1.7,8.1-3.1c2.1-1.2,3.9-2.8,5.4-4.7
			C60,67.5,60,63.1,57.5,60z M52.1,75.2c-9.4,5.5-24.8,5.5-34.3,0s-9.5-14.4-0.1-19.9s24.8-5.5,34.3,0S61.5,69.8,52.1,75.2z"/>
		<path class="st25" d="M93.9,120.4v0.3l0,0l0,0l0,0l0,0l0,0l0,0l0,0l0,0l0,0l0,0l0,0l0,0l0,0l0,0l0,0l0,0l0,0l0,0h0.1l0,0H94
			l13.3,7.7h0.1l0,0h0.1l0,0h0.1l0,0h0.1l0,0h0.1l0,0h0.1l0,0h0.1h0.1l0,0h0.1h0.2h0.1l0,0h0.1h1h0.1l0,0h0.2l0,0h0.1h0.1h0.1h1.1
			h0.1h0.1h0.1l0,0h0.1l0,0h0.1l0,0h0.1l0,0c0,0,0.1,0,0.1,0l0,0h0.1l26.6-15.5l0.1-0.1l0,0h0.1l0,0l0,0l0,0l0,0h0.1l0,0l0,0l0,0
			l0,0l0,0l0,0l0,0l0,0l0,0l0,0l0,0l0,0l0,0l0,0l0,0l0,0l0,0l0,0l0,0l0,0l0,0l0,0v-0.2l0,0v-0.1c0-0.5-0.3-0.9-0.8-1.1l-12.7-7.6
			c-1.2-0.6-2.6-0.6-3.7,0l-26.6,15.5C94.2,119.5,93.9,119.9,93.9,120.4C93.9,120.3,93.9,120.4,93.9,120.4z"/>
		<path class="st26" d="M138.5,112.5L138.5,112.5L138.5,112.5L138.5,112.5L138.5,112.5L138.5,112.5L138.5,112.5L138.5,112.5
			L138.5,112.5L138.5,112.5L138.5,112.5L138.5,112.5L138.5,112.5L138.5,112.5L138.5,112.5L138.5,112.5L138.5,112.5L138.5,112.5
			L138.5,112.5L138.5,112.5L138.5,112.5L138.5,112.5l-26.7,15.6h-0.1l0,0h-0.1l0,0h-0.1l0,0h-0.1l0,0h-0.1h-0.1h-0.1l0,0h-0.1H111
			h-0.1h-1h-0.1H109h-0.1l0,0h-0.1h-0.1h-0.1l0,0h-0.1l0,0l0,0l0,0l0,0l0,0l0,0l0,0h-0.1L95,120.9h-0.1l0,0l0,0l0,0l0,0l0,0l0,0l0,0
			l0,0l0,0l0,0l0,0l0,0l0,0l0,0l0,0l0,0l0,0l0,0l0,0l0,0l0,0v-0.2c0-0.2,0.2-0.4,0.5-0.6l26.6-15.5c1-0.5,2.2-0.5,3.2,0l12.8,7.2
			C138.3,112.1,138.5,112.3,138.5,112.5z"/>
		<g>
			<path class="st25" d="M124.6,109.2h0.2H124.6z"/>
			<path class="st25" d="M125.4,109.1L125.4,109.1z"/>
			<path class="st25" d="M125.6,109.1L125.6,109.1L125.6,109.1z"/>
			<path class="st25" d="M125.6,109.1l0.1,0.1L125.6,109.1z"/>
			<path class="st25" d="M125.9,109.2c0.1,0,0.1,0.1,0.2,0.1C126,109.3,125.9,109.3,125.9,109.2l-0.1-0.1L125.9,109.2z"/>
			<path class="st25" d="M126.1,109.8C126.1,109.8,126.1,109.8,126.1,109.8C126.1,109.9,126.1,109.8,126.1,109.8z"/>
			<path class="st25" d="M124.3,108.4c0,0.2-0.1,0.3-0.3,0.4c-0.2,0.1-0.4,0.2-0.6,0.2c-0.2,0-0.6,0.1-0.9,0.1l-1.6,0.1l0,0l1.4,0.8
				l-0.1,0.1l-1.6-0.9l0.1-0.1l1.9-0.1c0.3,0,0.5,0,0.8-0.1c0.2,0,0.3-0.1,0.5-0.2c0.2-0.1,0.3-0.2,0.3-0.3s-0.1-0.2-0.3-0.4
				c-0.4-0.2-0.9-0.2-1.3,0h-0.1l0,0l0,0c0.2-0.1,0.4-0.2,0.7-0.2l0,0h0.3l0,0h0.2h0.1h0.1l0.1,0.1C124,108,124.2,108.2,124.3,108.4
				z"/>
			<path class="st25" d="M126,109.2c-0.2-0.1-0.5-0.2-0.8-0.2h-0.1c-0.3,0-0.6,0.1-0.9,0.3l-0.8,0.4c-0.3,0.2-0.5,0.3-0.5,0.5
				s0.1,0.3,0.3,0.5c0.3,0.1,0.5,0.2,0.8,0.2c0.3,0,0.6-0.1,0.9-0.3l0.8-0.4c0.3-0.2,0.5-0.3,0.5-0.5S126.2,109.3,126,109.2z
				 M126.2,109.7C126.2,109.7,126.2,109.7,126.2,109.7L126.2,109.7L126.2,109.7L126.2,109.7L126.2,109.7l-0.1,0.1l0,0l0,0l0,0
				l-0.2,0.1l-0.8,0.4c-0.1,0.1-0.2,0.1-0.3,0.2l0,0h-0.1l0,0h-0.1h-0.1h-0.2c-0.2,0-0.5,0-0.7-0.2l-0.1-0.1l0,0l0,0l0,0l0,0
				c0-0.1,0-0.1,0-0.2l0,0c0-0.1,0.1-0.2,0.2-0.3l0,0l0,0l0,0l0,0l0.2-0.1l0.8-0.4l0.2-0.1h0.1l0,0h0.1h0.1c0.1,0,0.2-0.1,0.4-0.1
				c0.1,0,0.2,0,0.3,0h0.1h0.1h0.1l0.1,0.1l0,0l0.1,0.1c0.1,0,0.1,0.1,0.2,0.1l0,0C126.4,109.5,126.3,109.6,126.2,109.7L126.2,109.7
				z"/>
			<polygon class="st25" points="125,111.4 124.7,111.6 124.6,111.5 124.8,111.3 			"/>
			<polygon class="st25" points="126.7,110.4 126.4,110.6 126.3,110.5 126.5,110.3 			"/>
			<path class="st25" d="M128.6,110.7c-0.2-0.1-0.5-0.2-0.7-0.2h-0.1c-0.3,0-0.6,0.1-0.9,0.3l-0.8,0.4c-0.3,0.2-0.5,0.4-0.5,0.5
				s0.1,0.3,0.3,0.5l0,0l0,0c0.3,0.1,0.5,0.2,0.8,0.2c0.3,0,0.6-0.1,0.9-0.3l0.8-0.4c0.3-0.2,0.5-0.3,0.5-0.5
				S128.9,110.9,128.6,110.7z M128.8,111.2c0,0.2-0.2,0.3-0.4,0.5l-0.8,0.4c-0.2,0.1-0.5,0.2-0.8,0.3c-0.3,0-0.5,0-0.8-0.2
				c-0.2-0.1-0.3-0.3-0.3-0.4s0.2-0.3,0.4-0.5l0.8-0.4c0.2-0.1,0.5-0.2,0.8-0.3c0.3,0,0.5,0,0.8,0.2
				C128.8,110.9,128.9,111.1,128.8,111.2z"/>
			<path class="st25" d="M130.7,111.9L130.7,111.9c-0.3-0.1-0.6-0.2-0.9-0.2c-0.3,0-0.6,0.1-0.9,0.3l-0.8,0.4
				c-0.3,0.2-0.5,0.4-0.5,0.5s0.1,0.3,0.3,0.5l0,0c0.3,0.1,0.5,0.2,0.8,0.2c0.3,0,0.6-0.1,0.9-0.3l0,0l0.6-0.3l0.2-0.1
				c0.3-0.2,0.5-0.3,0.5-0.5S130.9,112.1,130.7,111.9z M130.9,112.4c0,0.2-0.2,0.3-0.4,0.5l-0.8,0.4c-0.2,0.1-0.5,0.2-0.8,0.3
				c-0.3,0-0.5,0-0.8-0.2c-0.2-0.1-0.3-0.3-0.3-0.4s0.2-0.3,0.4-0.5l0.8-0.4c0.2-0.1,0.5-0.2,0.8-0.3c0.3,0,0.5,0,0.8,0.2
				C130.8,112.1,130.9,112.2,130.9,112.4z"/>
		</g>
		<path class="st27" d="M138.4,112.7L138.4,112.7L138.4,112.7L138.4,112.7L138.4,112.7L138.4,112.7L138.4,112.7L138.4,112.7
			L138.4,112.7L138.4,112.7L138.4,112.7L138.4,112.7L138.4,112.7L138.4,112.7L138.4,112.7L138.4,112.7L138.4,112.7L138.4,112.7
			l-26.7,15.5h-0.1l0,0h-0.1l0,0h-0.1l0,0h-0.1l0,0h-0.1h-0.1h-0.1l0,0h-0.1H111h-0.1h-1h-0.1H109h-0.1l0,0h-0.1h-0.1h-0.1l0,0h-0.1
			l0,0l0,0l0,0l0,0l0,0l0,0l0,0h-0.1L95,120.9h-0.1l0,0l0,0l0,0l0,0L138.4,112.7z"/>
		<path class="st25" d="M133.9,109.5l-1.4-0.8l-1.2-0.7L133.9,109.5l-1.4-0.8l-1.8-1l0.5,0.3l-0.5-0.3l-0.4-0.2l-0.3-0.2l-1.7-1
			l1.6,1l-1.6-1l-0.5,0.8c-0.2,0.3-0.1,0.6,0.3,0.8l0.8,0.4l2.2,1.3l0.7,0.4l0,0c0.4,0.2,0.9,0.3,1.3,0.2l1.4-0.3L133.9,109.5z"/>
		<path class="st28" d="M139.1,112.5v0.6l0,0v0.6l0,0l0,0v0.1l0,0v0.2l0,0l0,0l0,0v0.1l0,0l0,0l0,0l0,0c0,0,0,0,0,0.1l0,0l0,0l0,0
			l-0.1,0.1l0,0l-0.1,0.1l0,0l0,0l0,0l0,0l0,0l0,0l0,0l0,0l0,0l0,0l0,0l0,0l-26.6,15.5h-0.1l0,0h-0.1l0,0h-0.1l0,0H112l0,0h-0.1
			h-0.1h-0.1l0,0h-0.1l0,0h-0.1h-0.1h-0.1h-0.2l0,0h-0.1h-1H110l0,0h-0.1h-0.2h-0.1h-0.1h-0.1l0,0l0,0l0,0h-0.1l0,0h-0.1h-0.1l0,0
			l0,0h-0.1l0,0h-0.1l0,0l-0.1-0.1L95.8,122c-0.4-0.2-0.7-0.6-0.8-1c0,0,0,0,0-0.1v-1.2l0,0v0.1l0,0v0.1l0,0v0.1l0,0l0,0l0,0l0,0
			l0,0l0,0l0,0l0,0l0,0l0,0l0,0l0,0l0,0l0,0l0,0l0,0l0,0l0,0h0.1l0,0h0.1l13.3,7.7h0.1l0,0h0.1l0,0h0.1l0,0h0.1l0,0h0.1l0,0h0.1l0,0
			h0.1h0.1l0,0h0.1h0.2h0.1l0,0h0.1h1h0.1l0,0h0.2l0,0h0.1h0.1h0.1H111h0.1h0.1h0.1l0,0h0.1l0,0h0.1l0,0h0.1l0,0c0,0,0.1,0,0.1,0
			l0,0h0.1l26.6-15.5l0.1-0.1l0,0h0.1l0,0l0,0l0,0l0,0h0.1l0,0l0,0l0,0l0,0l0,0l0,0l0,0l0,0l0,0l0,0l0,0l0,0l0,0l0,0l0,0l0,0l0,0
			l0,0l0,0l0,0l0,0l0,0l0,0V112l0,0v-0.1l0,0L139.1,112.5z"/>
		
			<linearGradient id="SVGID_1_" gradientUnits="userSpaceOnUse" x1="100.35" y1="23.505" x2="102.76" y2="23.505" gradientTransform="matrix(1 0 0 -1 0 150)">
			<stop  offset="0" style="stop-color:#C7EAF7"/>
			<stop  offset="0.33" style="stop-color:#2BAAE2"/>
			<stop  offset="0.57" style="stop-color:#C7EAF7"/>
			<stop  offset="1" style="stop-color:#2BAAE2"/>
		</linearGradient>
		<path class="st29" d="M102.8,126.8L102.8,126.8c0,0,0,0.1,0,0.2c-0.1,0.1-0.2,0.1-0.3,0c0,0,0,0,0,0l0,0l-1.4-0.8l-0.4-0.2
			l-0.1-0.1l0,0l0,0h-0.1l0,0l0,0l0,0l0,0l0,0l0,0l0,0l0,0l0,0l0,0l0,0l0,0l0,0l0,0l0,0l0,0l0,0l0,0h0.3l0.2,0.1l1.5,0.9l0,0l0,0
			l0.1,0.1l0,0l0.1,0.1l0,0l0.1,0.1l0,0v0.1c0,0,0,0.1,0,0.1l0,0C102.6,127.1,102.6,126.9,102.8,126.8
			C102.7,126.8,102.7,126.8,102.8,126.8z"/>
		<path class="st30" d="M102.8,126.8L102.8,126.8c0,0,0,0.1,0,0.2c-0.1,0-0.1,0-0.2,0l0,0l-1.4-0.8l-0.4-0.2l-0.1-0.1l0,0l0,0h-0.1
			l0,0l0,0l0,0l0,0l0,0l0,0l0,0l0,0l0,0l0,0l0,0l0,0l0,0l0,0h0.2l0.2,0.1l1.5,0.9l0,0l0,0l0.1,0.1l0,0l0.1,0.1l0,0l0.1,0.1l0,0v0.1
			c0,0,0,0.1,0,0.1l0,0C102.7,127.1,102.6,126.9,102.8,126.8C102.7,126.8,102.7,126.8,102.8,126.8z"/>
		<path class="st15" d="M132.9,109.8c-0.1,0.1-0.3,0.1-0.4,0l-3-1.7c-0.1,0-0.1-0.1-0.1-0.2c0,0,0-0.1,0.1-0.1
			c0.1-0.1,0.3-0.1,0.4,0l3,1.7C132.9,109.5,133,109.6,132.9,109.8C132.9,109.7,132.9,109.8,132.9,109.8z"/>
		<path class="st15" d="M129.2,107.7c-0.1,0.1-0.3,0.1-0.4,0h-0.1l0,0c0,0-0.1-0.1-0.1-0.1l0,0l0,0l0,0l0,0l0,0
			c0.1-0.1,0.3-0.1,0.4,0h0.1l0,0C129.2,107.6,129.2,107.6,129.2,107.7z"/>
		
			<linearGradient id="SVGID_2_" gradientUnits="userSpaceOnUse" x1="128.66" y1="42.4029" x2="129.21" y2="42.4029" gradientTransform="matrix(1 0 0 -1 0 150)">
			<stop  offset="4.000000e-02" style="stop-color:#2BAAE2"/>
			<stop  offset="0.48" style="stop-color:#C7EAF7"/>
			<stop  offset="1" style="stop-color:#063F61"/>
		</linearGradient>
		<path class="st31" d="M129,107.7c-0.1,0-0.1,0-0.2-0.1h-0.1l0,0c0,0-0.1,0,0-0.1l0,0l0,0l0,0c0.1,0,0.1,0,0.2,0c0.1,0,0.1,0,0.2,0
			h0.1l0,0c0,0,0.1,0.1,0.1,0.1s0,0-0.1,0.1C129.1,107.7,129.1,107.7,129,107.7z"/>
		<path class="st2" d="M16.5,83.9L16.5,83.9V84l0,0v0.2l0,0l0,0l0,0l0,0l0,0l0,0l0,0l0,0l0,0l0,0l0,0l0,0l0,0l0,0l0,0l0,0l0,0h0l0,0
			h0.1L81.7,122l0.2,0.1h0.1l0.1,0.1l0,0h0.2l0,0h0.2l0,0h0.1h0.1h0.8h0.2l0,0h0.2l0,0h0.1H84h0.1h0.1l0.2-0.1l0,0l0.2-0.1l0,0
			l0.5,0l36.8-21.4l0.1-0.1l0,0l0,0l0,0l0,0l0,0l0,0l0,0l0,0l0,0l0,0l0,0l0,0l0,0l0,0l0,0l0,0l0,0l0,0l0,0l0,0l0,0l0,0l0,0l0,0l0,0
			V100l0,0l0,0l0,0v-0.1l0,0l0,0l0,0v-0.1l0,0c0-0.4-0.3-0.8-0.7-1l-64-37.4c-1-0.5-2.3-0.5-3.3,0L17.1,82.8
			C16.7,83,16.5,83.4,16.5,83.9L16.5,83.9L16.5,83.9z"/>
		<path class="st32" d="M122.5,99.7L122.5,99.7L122.5,99.7L122.5,99.7L122.5,99.7L122.5,99.7v0.1l0,0l0,0l0,0v0.2l0,0l0,0l0,0l0,0
			l0,0l0,0l0,0l0,0l0,0l0,0l0,0l0,0l0,0l0,0l0,0l0,0l0,0l0,0l0,0l0,0l0,0l0,0l0,0l0,0l0,0l-0.1,0.1L85,122l-0.2,0.1l0,0l-0.2,0.1
			l0,0l-0.2,0.1h-0.1h-0.1h-0.1h-0.1l0,0h-0.2l0,0h-0.2h-0.8h-0.1h-0.1l0,0h-0.2l0,0h-0.2l0,0l-0.1-0.1h-0.1l-0.2-0.1L17.1,84.8
			h-0.1l0,0h0l0,0l0,0l0,0l0,0l0,0l0,0l0,0l0,0l0,0l0,0l0,0l0,0l0,0l0,0l0,0l0,0l0,0l0,0l0,0v-0.1l0,0l0,0l0,0v-0.1l0,0v-0.1l0,0v1
			c0,0.4,0.3,0.8,0.7,1l64.5,37.3l0.2,0.1h0.1h0.1h0.1l0.1,0.1h0.1l0,0H83l0,0H83h0.1h0.1h0.1h0.1h0.9h0.2h0.1h0.1h0.1h0.1l0,0h0.1
			l0,0l0.2-0.1l0,0c0.1,0,0.1,0,0.2-0.1l36.8-21.4l0,0l0,0l0,0l0,0l0,0l0,0l0,0l0,0l0,0l0,0v-0.1l0,0l0.1-0.1l0,0l0,0l0,0l0,0l0,0
			l0,0l0,0l0,0l0,0l0,0v-0.1l0,0v-0.1l0,0v-1L122.5,99.7z"/>
		<path class="st28" d="M122.7,98.4L122.7,98.4L122.7,98.4L122.7,98.4L122.7,98.4L122.7,98.4L122.7,98.4L122.7,98.4L122.7,98.4
			L122.7,98.4C122.7,98.4,122.8,98.3,122.7,98.4L122.7,98.4l0.1-0.2l0,0l0,0v-0.1l0,0l0,0v-0.1l0,0l0,0l0,0V98l0,0c0,0,0,0,0-0.1
			l0,0c0,0,0,0,0-0.1l0,0l0,0c0,0,0-0.1,0-0.1l0,0l0,0l0,0c0,0,0-0.1,0-0.1l0,0l0,0c0,0,0-0.1,0-0.1l4.7-37.3c0-0.1,0-0.1,0-0.2
			v-0.4c0-0.1,0-0.1,0-0.2l0,0c0,0,0-0.1,0-0.1l0,0c0,0,0-0.1,0-0.1l0,0v-0.2l0,0c0,0,0-0.1,0-0.1v-0.1v-0.1l0,0c0-0.1,0-0.1,0-0.2
			l0,0c0,0,0-0.1,0-0.2v-0.1v-0.1l0,0c0-0.1,0-0.1-0.1-0.2l0,0c0,0-0.1-0.1-0.1-0.2l0,0l-0.1-0.1v-0.1l-0.1-0.1v-0.1l0,0
			c0-0.1-0.1-0.1-0.1-0.2v-0.1l-0.1-0.1c0,0,0-0.1,0-0.1l-0.1-0.1v-0.1l-0.2-0.2l-0.1-0.2l0,0l-0.1-0.1v0l-0.1-0.1v0l-0.1-0.1l0,0
			l-0.1-0.1l0,0l-0.1-0.1l0,0l-0.1-0.1l0,0L126,56H126l-0.1-0.1h-0.1l-0.1-0.1l0,0l-0.2-0.1L63.2,18.6L63,18.6l0,0l0,0h-0.1l0,0l0,0
			h-0.1l0,0h-0.1h-0.1h-0.1h-0.1h-0.1h-0.7h-0.1h-0.2h-0.1l0,0l0,0l0,0l0,0l0,0c-0.5,0.3-0.8,0.8-0.8,1.4l-5,37.1
			c-0.1,2.1,1,4.1,2.8,5.3l62.2,35.9C121.2,98.7,121.9,98.7,122.7,98.4L122.7,98.4L122.7,98.4z"/>
		<path class="st27" d="M59.4,60.6c-1.1-0.7-1.8-2-1.8-3.3l4.7-36.9l62,35.8h0.1l0,0h0.1l0,0h0.1l0,0h0.1l0,0l0,0l0,0l0,0l0,0l0,0
			h0.1l0,0v0.1l0,0v0.1l0,0c0,0,0,0.1,0.1,0.1l0,0l0.1,0.1c0,0.1,0.1,0.1,0.1,0.2l0,0v0.1v0.1v0.1V57l0.1,0.1l0,0l0,0v0.1l0,0
			c0,0,0,0.1,0,0.1l0,0v0.1l0,0c0,0,0,0.1,0,0.1l0,0v0.1l0,0v0.1l0,0v0.1l0,0c0,0,0,0.1,0,0.1l0,0c0,0,0,0,0,0.1l0,0
			c0,0,0,0.1,0,0.1l0,0c0,0,0,0.1,0,0.1l0,0c0,0,0,0,0,0.1l0,0l0,0v0.3l0,0l-4.6,36.9L59.4,60.6z"/>
		<path class="st25" d="M129,58.9v-0.1l0,0v-0.2c0,0,0-0.1,0-0.1v-0.1c0,0,0-0.1,0-0.1l0,0l0,0c0,0,0-0.1,0-0.2V58c0,0,0-0.1,0-0.1
			l0,0v-0.1l0,0c0,0,0,0,0-0.1v-0.1c0,0,0-0.1,0-0.2l0,0l0,0c0,0,0-0.1,0-0.1l0,0v-0.1v-0.1v-0.1v0l0,0l-0.1-0.1l0,0
			c0,0,0-0.1-0.1-0.1l0,0v0l0,0v-0.1v-0.1l0,0c0,0,0-0.1-0.1-0.1l0,0l0,0l0,0c0-0.1-0.1-0.1-0.1-0.2l0,0l0,0l-0.1-0.1
			c0,0,0-0.1,0-0.1l-0.1-0.1v0l0,0l-0.2-0.2l0,0l-0.1-0.2l0,0l0,0l-0.1-0.1l0,0l0,0l-0.1-0.1l0,0l0,0l0,0l0,0l0,0l0,0l-0.1-0.1l0,0
			l0,0l-0.1-0.1l0,0l-0.1-0.1l0,0l0,0l-0.1-0.1l0,0l0,0l0,0l0,0l0,0l0,0l-0.1-0.1l0,0l-0.1-0.1l0,0L64.1,18.1L64,18l0,0l0,0l0,0h0
			l0,0l0,0l-0.1,0l0,0h-0.1l0,0l0,0h-0.1l0,0l0,0h-0.7h-0.1l0,0h-0.1l0,0h-0.1h-0.1l0,0l-0.1,0.1l-0.9,0.5l0,0l0,0l0,0l0,0l0,0l0,0
			h0.1h0.2h0.1h0.7h0.1h0.1h0.1h0.1h0.1l0,0H63l0,0l0,0h0.1l0,0l0,0l0.1,0.1l62.2,35.9l0.2,0.1l0,0l0.1,0.1h0.1l0.1,0.1h0.1l0.1,0.1
			l0,0l0.1,0.1l0,0l0.1,0.1l0,0l0.1,0.1l0,0l0.1,0.1v0l0.1,0.1v0l0.1,0.1l0,0l0.1,0.2l0.2,0.2v0.1l0.1,0.1c0,0,0,0.1,0,0.1l0.1,0.1
			v0.1c0,0.1,0.1,0.1,0.1,0.2l0,0v0.1l0.1,0.1v0.1l0.1,0.1l0,0c0,0.1,0,0.1,0.1,0.2l0,0c0,0.1,0.1,0.1,0.1,0.2l0,0v0.1v0.1
			c0,0,0,0.1,0,0.2l0,0c0,0,0,0.1,0,0.2l0,0v0.1V58c0,0,0,0.1,0,0.1l0,0v0.2l0,0c0,0,0,0.1,0,0.1l0,0c0,0,0,0.1,0,0.1l0,0
			c0,0.1,0,0.1,0,0.2V59c0,0.1,0,0.1,0,0.2l-3.9,37.9c0,0,0,0.1,0,0.1l0,0l0,0c0,0,0,0.1,0,0.1l0,0l0,0l0,0c0,0,0,0.1,0,0.1l0,0l0,0
			c0,0,0,0,0,0.1l0,0c0,0,0,0,0,0.1l0,0v0.1l0,0l0,0l0,0v0.1l0,0l0,0v0.1l0,0l0,0l-0.1,0.1l0,0c0,0,0,0.1-0.1,0.1l0,0l0,0l0,0l0,0
			l0,0l0,0l0,0l0,0l0,0l0,0l0,0l0,0l0.9-0.5h0.1l0,0l0,0l0,0l0,0l0,0l0,0l0,0l0,0l0,0l0,0l0,0l0,0l0,0l0,0l0,0l0,0l0,0l0,0l0,0l0,0
			l0.1-0.2l0,0c0,0,0-0.1,0-0.1l0,0l0,0c0,0,0-0.1,0-0.1l0,0l0,0c0,0,0-0.1,0-0.1l0,0l0,0c0,0,0-0.1,0-0.1l4.7-37.4l0,0
			c0,0,0-0.1,0-0.1C129,59.1,129,58.9,129,58.9z"/>
		<polygon class="st33" points="56.5,68.3 107.3,98.6 86.3,111.6 36.4,81.1 		"/>
		<polygon class="st26" points="51.5,83.2 52.8,84 53.9,84.7 56.7,83 54.3,81.5 53.9,81.3 51.1,83 51.1,83 51.1,83 		"/>
		<polygon class="st26" points="56.6,86.3 56.7,86.4 58,87.2 59.5,86.2 60.8,85.4 60.8,85.4 60.8,85.4 59.4,84.6 58.5,84.1 58,83.8 
			56.8,84.5 55.2,85.4 55.2,85.4 55.2,85.4 		"/>
		<polygon class="st26" points="45.7,76.3 42.9,78 45.7,79.7 48.5,78 		"/>
		<polygon class="st26" points="52.6,80.5 49.8,78.8 47,80.5 49.8,82.2 		"/>
		<polygon class="st26" points="41.6,79 38.8,80.7 41.6,82.3 44.4,80.7 		"/>
		<polygon class="st26" points="48.5,83.2 45.7,81.4 42.9,83.2 45.7,84.8 		"/>
		<polygon class="st26" points="64.9,87.9 62.1,86.2 59.3,87.9 62.1,89.6 		"/>
		<polygon class="st26" points="66.2,92.1 68.9,90.4 66.6,89 66.2,88.7 63.4,90.4 63.8,90.7 		"/>
		<polygon class="st26" points="73.1,92.9 70.3,91.2 67.5,92.9 70.3,94.6 		"/>
		<polygon class="st26" points="74.4,97.1 77.1,95.4 74.5,93.8 74.3,93.7 71.6,95.4 71.7,95.5 		"/>
		<polygon class="st26" points="81.2,97.9 78.4,96.2 75.7,97.9 78.5,99.6 		"/>
		<polygon class="st26" points="82.7,98.8 82.5,98.7 79.8,100.4 82.6,102.1 85.3,100.4 		"/>
		<polygon class="st26" points="87.8,101.9 86.6,101.2 83.9,102.9 85,103.6 86.7,104.6 89.4,102.9 		"/>
		<polygon class="st26" points="88,105.4 90.8,107.1 93.5,105.4 90.7,103.7 		"/>
		<polygon class="st26" points="83.4,104.4 82.2,103.7 79.5,105.4 80.6,106.1 82.3,107.1 85,105.4 		"/>
		<polygon class="st26" points="83.6,107.9 86.4,109.6 89.1,107.9 86.3,106.2 		"/>
		<polygon class="st26" points="49.3,87.2 76.7,103.9 79.5,102.2 52.1,85.5 		"/>
		<polygon class="st26" points="52.1,75.7 49.3,74 46.6,75.7 49.4,77.4 		"/>
		<polygon class="st26" points="50.7,78.2 53.5,79.9 56.2,78.2 53.4,76.5 		"/>
		<polygon class="st26" points="57.5,79 54.8,80.7 55.2,80.9 57.5,82.3 60.3,80.7 58,79.2 		"/>
		<polygon class="st26" points="61.7,84.8 64.4,83.2 62.1,81.8 61.6,81.4 58.9,83.2 60.4,84.1 		"/>
		<polygon class="st26" points="68.5,85.6 65.7,83.9 63,85.6 65.7,87.3 		"/>
		<polygon class="st26" points="69.8,89.8 72.6,88.1 70.2,86.7 69.8,86.4 67.1,88.1 67.5,88.4 		"/>
		<polygon class="st26" points="76.7,90.6 73.9,88.9 71.1,90.6 73.9,92.3 		"/>
		<polygon class="st26" points="78,94.8 80.8,93.1 78.2,91.5 78,91.4 75.2,93.1 75.4,93.2 		"/>
		<polygon class="st26" points="84.9,95.6 82.1,93.9 79.3,95.6 82.1,97.3 		"/>
		<polygon class="st26" points="89,98.1 86.4,96.5 86.2,96.4 83.4,98.1 86.2,99.8 		"/>
		<polygon class="st26" points="90.3,102.3 93.1,100.6 91.4,99.6 90.3,98.9 87.5,100.6 88.7,101.3 		"/>
		<polygon class="st26" points="94.4,101.4 91.6,103.1 94.4,104.8 97.2,103.1 94.4,101.4 		"/>
		<polygon class="st26" points="55.5,73.6 52.7,71.9 49.9,73.6 52.7,75.3 		"/>
		<polygon class="st26" points="54,76.1 56.8,77.8 59.6,76.1 56.8,74.4 		"/>
		<polygon class="st26" points="60.9,76.9 58.1,78.6 58.5,78.9 60.9,80.3 63.7,78.6 61.3,77.2 		"/>
		<polygon class="st26" points="65,79.4 62.2,81.1 63.8,82 65,82.8 67.8,81.1 65.5,79.7 		"/>
		<polygon class="st26" points="66.3,83.6 69.1,85.3 71.9,83.6 69.1,81.9 		"/>
		<polygon class="st26" points="73.2,84.4 70.4,86.1 70.8,86.3 73.2,87.8 76,86.1 73.6,84.7 		"/>
		<polygon class="st26" points="74.5,88.6 77.3,90.3 80.1,88.6 77.3,86.9 		"/>
		<polygon class="st26" points="81.4,89.4 78.6,91.1 78.8,91.2 81.4,92.8 84.2,91.1 81.5,89.5 		"/>
		<polygon class="st26" points="82.7,93.6 85.5,95.2 88.2,93.6 85.5,91.9 		"/>
		<polygon class="st26" points="92.3,96.1 89.8,94.5 89.6,94.4 86.8,96.1 89.6,97.8 		"/>
		<polygon class="st26" points="93.7,100.2 96.4,98.5 94.8,97.5 93.7,96.8 90.9,98.5 92,99.2 		"/>
		<polygon class="st26" points="95,101 97.8,102.7 100.5,101 97.8,99.3 		"/>
		<polygon class="st26" points="61.9,76.7 64.3,78.2 67.1,76.5 64.7,75 64.3,74.8 61.5,76.5 		"/>
		<polygon class="st26" points="58.9,71.5 56.1,69.8 53.3,71.5 56.1,73.2 		"/>
		<polygon class="st26" points="60.2,75.7 63,74 60.2,72.3 57.4,74 		"/>
		<polygon class="st26" points="67.1,79.9 68.4,80.7 71.1,79 68.8,77.6 68.4,77.3 65.6,79 		"/>
		<polygon class="st26" points="72.5,83.2 75.2,81.4 72.4,79.8 69.7,81.4 		"/>
		<polygon class="st26" points="74.2,84.2 76.6,85.6 79.3,83.9 77,82.5 76.6,82.2 73.8,83.9 		"/>
		<polygon class="st26" points="80.7,88.1 83.4,86.4 80.6,84.7 77.9,86.4 		"/>
		<polygon class="st26" points="82.1,89 84.8,90.6 87.5,88.9 84.9,87.3 84.7,87.2 82,88.9 		"/>
		<polygon class="st26" points="88.8,93.1 91.6,91.4 88.8,89.7 86.1,91.4 		"/>
		<polygon class="st26" points="92.9,95.6 95.7,93.9 93.1,92.3 92.9,92.2 90.2,93.9 		"/>
		<polygon class="st26" points="95.4,97.1 97,98.1 99.8,96.4 98.2,95.4 97,94.7 94.2,96.4 		"/>
		<polygon class="st26" points="101.1,97.2 101.1,97.2 98.3,98.9 101.1,100.6 103.9,98.9 		"/>
		<path class="st26" d="M55.4,103.4l0.2,0.1L55.4,103.4z"/>
		<path class="st26" d="M55.8,103.5l0.2,0.1L55.8,103.5z"/>
		<path class="st26" d="M56.5,103.7L56.5,103.7z"/>
		<path class="st26" d="M57.7,103.6h0.2H57.7z"/>
		<path class="st26" d="M58.1,103.5l0.2-0.1L58.1,103.5z"/>
		<path class="st26" d="M58.3,103.4l0.2-0.1L58.3,103.4z"/>
		<path class="st26" d="M63.1,100.8L63.1,100.8l-4.3,2.5l-0.2,0.1l-0.2,0.1l-0.2,0.1l-0.2,0.1h-0.2h-0.2h-0.2h-0.7h-0.2h-0.1H56
			l-0.2-0.1l0,0h-0.1h-0.1l-0.2-0.1l0,0l-0.2-0.1l0,0l-8.9-5.1l0,0l0,0l0,0l0,0l0,0l0,0l0,0l0,0L46,97.8l0,0
			c-0.1-0.1-0.1-0.1-0.2-0.2l0,0l0,0l0,0l0,0c0-0.1,0-0.1,0-0.2l0,0l0,0v-0.1c0-0.1,0-0.1,0-0.2l0,0l0,0l0,0c0,0,0-0.1,0-0.1l0,0
			l0.1-0.1l0,0c0-0.1,0.1-0.1,0.2-0.2l0,0l0.1-0.1l0,0l0.1-0.1l0,0l1.7-1l2.6-1.5c1.1-0.6,2.4-0.6,3.5,0l8.9,4.6
			C64,99.3,64,100.2,63.1,100.8z"/>
		<polygon class="st2" points="99,52.3 91.9,48.2 94.7,49.8 		"/>
		<polygon class="st2" points="73.9,37.8 81.8,42.4 66.4,33.5 73,37.3 		"/>
		<polygon class="st2" points="84.3,43.8 84.3,45.4 73.9,39.4 73,38.9 66.4,35 66.4,33.5 73,37.3 73.9,37.8 81.8,42.4 		"/>
		<polygon class="st2" points="105.1,55.8 105.1,57.4 94.7,51.4 89.6,48.4 87.2,47 87.2,45.5 91.9,48.2 94.7,49.8 99,52.3 		"/>
		<polygon class="st34" points="115.5,61.8 115.5,63.4 107.9,59 107.9,57.5 		"/>
		<polygon class="st2" points="73.9,43.9 73.9,45.4 66.3,41.1 66.3,41 66.3,39.6 		"/>
		<polygon class="st2" points="105.1,61.9 105.1,63.4 100.1,60.6 97.5,59.1 84.2,51.4 81.1,49.6 76.7,47.1 76.8,45.6 81.1,48.1 
			84.3,49.9 97.5,57.6 100.1,59 		"/>
		<polygon class="st34" points="115.4,67.9 115.4,69.4 107.9,65.1 107.9,63.6 		"/>
		<polygon class="st2" points="73.8,50 73.8,51.5 66.3,47.1 66.3,45.6 		"/>
		<polygon class="st2" points="84.2,56 84.2,57.5 76.7,53.1 76.7,51.6 		"/>
		<polygon class="st2" points="94.6,62 94.6,63.5 87.1,59.1 87.1,57.6 		"/>
		<polygon class="st2" points="105,67.9 105,69.5 97.5,65.1 97.5,63.6 		"/>
		<polygon class="st34" points="115.4,73.9 115.4,75.5 107.9,71.1 107.9,69.6 		"/>
		<polygon class="st2" points="73.8,56 73.8,57.5 66.3,53.2 66.3,51.7 		"/>
		<polygon class="st2" points="84.2,62 84.2,63.5 76.7,59.2 76.7,57.7 		"/>
		<polygon class="st2" points="105,74 105,75.5 95,69.7 90.4,67.1 87.1,65.2 87.1,63.7 91.2,66 94.6,68 		"/>
		<polygon class="st34" points="115.4,80 115.4,81.5 107.9,77.2 107.9,75.7 		"/>
		<polygon class="st2" points="79,43.8 79,45.3 71.5,41 71.5,39.5 		"/>
		<polygon class="st2" points="99.8,55.8 99.8,57.3 89.4,51.3 86.9,49.9 81.9,47 81.9,45.5 86.9,48.4 89.4,49.8 		"/>
		<polygon class="st34" points="110.2,61.8 110.2,63.3 102.7,59 102.7,57.5 		"/>
		<polygon class="st2" points="79,49.9 79,51.4 71.4,47 71.5,45.5 		"/>
		<polygon class="st2" points="89.4,55.9 89.4,57.4 81.8,53 81.8,51.5 		"/>
		<polygon class="st35" points="110.2,67.9 110.2,69.4 104.1,65.9 102.6,65.1 92.2,59 92.2,57.5 102.6,63.5 104.1,64.4 		"/>
		<polygon class="st2" points="89.3,61.9 89.3,63.4 83.1,59.8 81.8,59.1 71.4,53.1 71.4,51.6 81.8,57.6 83.1,58.3 		"/>
		<polygon class="st2" points="99.7,67.9 99.7,69.4 92.2,65.1 92.2,63.6 		"/>
		<polygon class="st34" points="110.1,73.9 110.1,75.4 102.6,71.1 102.6,69.6 		"/>
		<ellipse class="st36" cx="74.4" cy="93.3" rx="32.8" ry="14.8"/>
		<path class="st37" d="M94,67L94,67L94,67L94,67v0.2v0.1v0.1l0,0l0,0v0.1l0,0c0,0,0,0,0,0.1v0.1l0,0l0,0l0,0l0,0l0,0v0.1l0,0l0,0
			l0,0l0,0v0.1l0,0l0,0l0,0l0,0l0,0l0,0l0,0l0,0l0,0l0,0l0,0l0,0l-0.1,0.1l0,0l0,0l-0.1,0.1l0,0l-0.1,0.1L93.7,68h-0.1l0,0l0,0
			l-0.1,0.1l0,0l-0.1,0.1l0,0l0,0l0,0l-0.1,0.1l-0.1,0.1l-0.1,0.1L93,68.5l-0.1,0.1l0,0l-0.1,0.1h-0.1l-0.1,0.1l0,0h-0.1l-0.1,0.1
			l-0.3,0.1L92,69l-0.3,0.1l-0.2,0.1l0,0h-0.1h-0.2l-0.2,0.1h-0.2h-0.1l-0.3,0.1l0,0h-0.1h-0.1h-0.1H90h-0.1h-0.1h-0.2h-0.1h-0.1
			h-0.1l-0.6,0.1h-1h-0.2h-0.2H87h-0.6c-0.1,0-0.3,0-0.4,0h-0.4h-0.4h-0.4h-0.2h-0.2L84.1,71l-0.4-0.1h-0.2h-0.1h-0.1h-0.1l0,0H83
			h-0.2h-0.1l-0.2-0.1h-0.1l0,0l-0.2-0.1H82l-0.1-0.1h-0.1h-0.1l-0.3-0.1h-0.1l0,0h-0.1l0,0h-0.1c-0.2-0.1-0.4-0.2-0.6-0.3
			L55.8,55.5l0,0l-0.1-0.1l-0.1-0.1l0,0h-0.1c-0.1,0-0.1-0.1-0.2-0.1h0l-0.1-0.1L55,55l0,0l-0.1-0.1l-0.1-0.1l0,0l-0.1-0.1l-0.1-0.1
			l0,0l-0.1-0.1l0,0l-0.1,0l0,0l0,0l0,0l-0.1-0.1l0-0.1l0,0l0,0l-0.1-0.1v-0.1l0,0v-0.1l0,0l0,0l0,0l0,0l0,0l0,0l0,0l0,0v-0.1l0,0
			v-0.1V54v-0.1c0,0,0,0,0-0.1l0,0l0,0l0,0v-0.1l0,0l0,0l0,0l0,0V53l0,0v-0.1l0,0v-0.1c0,0,0,0,0-0.1v-0.1c0,0,0,0,0,0l0,0
			c0-1.1,0.8-2.1,2.2-2.9c1.2-0.7,2.5-1.1,3.9-1.2v7.1c0,0.2,0.1,0.5,0.3,0.6l2.2,1.3c0.1,0.1,0.2,0.1,0.3,0.1h0.1h0.1h0.1h0.1l0,0
			l0,0l3.1-1.8c0.2-0.1,0.3-0.3,0.3-0.6v-5.8c0.3,0.1,0.6,0.3,0.9,0.4l13.5,8.1v10.2c0,0.2,0.1,0.5,0.3,0.6l2.2,1.3
			c0.1,0.1,0.2,0.1,0.3,0.1h0.1h0.1h0.1h0.1l0,0l0,0l3.1-1.8c0.2-0.1,0.3-0.3,0.3-0.6v-6l3.9,2.2C93.3,64.8,94.1,65.8,94,67z"/>
		<path class="st38" d="M94,69.8l-0.1,30.9v0.1c0,0,0,0.1,0,0.1c0,0,0,0.1,0,0.1c0,0,0,0.1,0,0.1v0.1v0.1c0,0,0,0.1,0,0.1v0.1v0.1
			c0,0,0,0.1,0,0.1c0,0,0,0,0,0.1v0.1l0,0l0,0l0,0l-0.1,0.1l0,0l0,0c0,0.1-0.1,0.1-0.1,0.1l0,0l0,0c0,0-0.1,0.1-0.2,0.2l-0.1,0.1
			c0,0.1-0.1,0.1-0.2,0.2l-0.1,0.1l-0.1,0.1c0,0-0.1,0.1-0.1,0.1l-0.1,0.1l-0.1,0.1l-0.1,0.1l-0.1,0.1l-0.1,0.1l-0.1,0.1l0,0
			c-0.2,0.1-0.3,0.2-0.5,0.3l-0.1,0.1c-0.2,0.1-0.3,0.2-0.5,0.2H91c-0.2,0.1-0.3,0.1-0.5,0.2h-0.1l0,0l-0.4,0.1h-0.1l-0.2,0.1
			l-0.4,0.1h-0.2H89h-0.2l-0.6,0.1h-0.5h-0.6h-1.7h-0.4H85h-0.1h-0.1h-0.4h-0.1h-0.1H84l-0.4-0.1h-0.2h-0.1h-0.1l-0.5-0.1h-0.1h-0.2
			h-0.1l0,0h-0.1l0,0l-0.5-0.2h-0.1h-0.1l0,0l-0.4-0.2h-0.1h-0.1l-0.6-0.3L55.7,89.3c-1.4-0.8-2.2-1.9-2.2-2.9l0.1-30.9l0.1,0.1
			c0,0,0,0,0.1,0.1l0,0l0,0l0,0l0,0l0.1,0.1l0,0l0,0l0.1,0.1H54l0.1,0.1l0.1,0.1l0.1,0.1l0.1,0.1l0,0l0.2,0.1l0,0l0,0l0,0l0,0h0.1
			l0,0l0.1,0.1l0,0l0.2,0.1l25,14.6c0.2,0.1,0.4,0.2,0.7,0.3l0.2,0.1h0.1l0,0h0.1l0.4,0.2h0.1l0,0l0.3,0.1l0.2,0.1H82h0.1l0.3,0.1
			h0.1h0.1h0.1h0.1h0.1H83l0.4,0.1l0.5,0.1l0,0h0.3l0,0h0.2h0.2h0.2h0.2h2.5h0.2H88h0.3h0.2h0.1l0,0h0.1H89h0.2l0,0l0.2-0.1h0.2h0.2
			h0.1H90l0.2-0.1l0.2-0.1h0.1l0,0l0.2-0.1l0,0h0.2l0.2-0.1h0.1l0.3-0.1l0.3-0.1l0.2-0.1l0.2-0.1c0,0,0.1,0,0.1,0
			c0.1,0,0.1,0,0.2-0.1l0.2-0.1l0.2-0.1h0.1h0.1l0,0l0,0l0,0l0.1-0.1l0,0l0.1-0.1l0,0l0,0l0,0h0.1h0.1l0,0h0.1l0,0l0,0l0,0l0,0
			l0.1-0.1l0.1-0.1v-0.1l0.1-0.1c0,0,0.1-0.1,0.1-0.1L94,69.8z"/>
		<g>
			
				<linearGradient id="SVGID_3_" gradientUnits="userSpaceOnUse" x1="52.18" y1="81.865" x2="95.38" y2="81.865" gradientTransform="matrix(1 0 0 -1 0 150)">
				<stop  offset="0" style="stop-color:#29AAE1"/>
				<stop  offset="0.5" style="stop-color:#FFFFFF"/>
				<stop  offset="0.98" style="stop-color:#2BACE2"/>
			</linearGradient>
			<path class="st39" d="M95.4,66.8L95.4,66.8c0-0.1,0-0.3,0-0.4l0,0c0-0.1,0-0.1,0-0.2v-0.1l0,0V66c0,0,0-0.1-0.1-0.2v-0.1
				l-0.1-0.2l-0.1-0.1c0,0,0-0.1-0.1-0.1l-0.1-0.1c-0.1-0.1-0.2-0.3-0.3-0.4l-0.1-0.1l0,0l-0.1-0.1c0,0-0.1-0.1-0.1-0.1l-0.1-0.1
				c-0.2-0.2-0.4-0.4-0.6-0.6l-0.1-0.1l-0.3-0.2l-0.1-0.1L92.8,63l-0.1-0.1l-0.2-0.1L88,60.2v-6.8l0,0c0-0.2,0-0.4,0-0.5
				c0,0,0-0.1,0-0.1l0,0c0-0.1,0-0.2,0-0.2v-0.1c0-0.1,0-0.1,0-0.2s0-0.1,0-0.2v0c0-0.1,0-0.2,0-0.2l0,0c0,0,0-0.1,0-0.1
				c0-0.1,0-0.1,0-0.2v-0.3l0,0V51c0-0.2-0.1-0.4-0.1-0.6l0,0l0,0v-0.1l-0.1-0.5c0,0,0,0,0-0.1l0,0c0-0.1,0-0.2,0-0.2v-0.1
				c0-0.1,0-0.2,0-0.2s0-0.1,0-0.1V49l0,0l-0.1-0.3l0,0c0-0.1,0-0.1,0-0.2c0-0.1,0-0.1-0.1-0.2l-0.1-0.3l0,0l0,0c0,0,0,0,0-0.1
				l-0.1-0.3v-0.2c0,0,0-0.1,0-0.1v-0.1c-0.1-0.2-0.1-0.4-0.2-0.7l0,0v-0.1l-0.2-0.5L87,45.7c0-0.1,0-0.1-0.1-0.2l-0.1-0.2v-0.1
				c0-0.1-0.1-0.1-0.1-0.2l0,0c0,0,0-0.1,0-0.1l-0.1-0.2L86,44.3c0,0,0-0.1,0-0.1v-0.1l0,0l-0.3-0.6l0,0c0,0,0-0.1,0-0.1v-0.1
				l-0.2-0.5v0l0,0l0,0l-0.1-0.2l-0.1-0.2L85,42.3l-0.1-0.2l0,0v-0.1c-0.2-0.3-0.3-0.6-0.5-0.9l0,0v-0.1l-0.1-0.1l-0.1-0.1l-0.1-0.1
				c-0.1-0.1-0.1-0.2-0.2-0.3l-0.1-0.2l-0.1-0.1l0,0l-0.2-0.4l-0.1-0.1l0,0v-0.1l0,0l-0.7-1l0,0l0,0l0,0L82.4,38l0,0l0,0l0,0
				L82,37.5l0,0l-0.1-0.1l0,0c-0.2-0.2-0.3-0.4-0.5-0.5l0,0l-0.1-0.1l0,0c-0.1-0.1-0.2-0.2-0.3-0.3L81,36.4l-0.1-0.1l-0.1-0.1
				l-0.1-0.1l-0.2-0.2l-0.1-0.1l0,0l-0.2-0.2l-0.1-0.1l-0.1-0.1l-0.1-0.1L79.6,35l0,0l-0.2-0.2l0,0c0,0-0.1-0.1-0.1-0.1l-0.1-0.1
				L79,34.5l0,0l-0.2-0.2l-0.2-0.1l0,0L78.4,34l0,0l-0.3-0.2l0,0L78,33.6l-0.2-0.1h-0.1l-0.1-0.1l-0.1-0.1l-0.1-0.1l-0.2-0.2
				L77.1,33L77,32.9l0,0l0,0l-0.5-0.3l0,0l0,0L76,32.2l-0.1-0.1l-0.4-0.2l-0.1-0.1l0,0l-0.2-0.1L75,31.7l-0.2-0.1h-0.1l-0.1-0.1l0,0
				h-0.1L74,31.3l0,0L73.4,31h-0.1h-0.1h-0.1l-0.2-0.1h-0.1l0,0l-0.2,0h-0.1h-0.1h-0.1l0,0l-0.2,0l0,0h-0.1h-0.2l0,0h-0.3h-0.1H71
				h-0.3h-0.6c-0.2,0-0.3,0-0.5,0h-0.3h-0.1h-0.2l-0.5,0.1l0,0h-0.1L68.1,31L68,30.7h-0.1l-0.2,0.1l0,0l0,0l-0.3,0.1l0,0l-0.1,0
				c-0.2,0.1-0.3,0.2-0.5,0.3l-3,1.7L63.7,33l0,0l0,0l0,0c-2.4,1.4-3.8,4.3-3.8,8.2V47c-1.6,0.2-3.2,0.6-4.6,1.4
				c-1.6,0.7-2.7,2.3-2.8,4l0,0l0,0l-0.1,29.2v4.7c0,1.6,1,3,2.8,4.1L80,104.6c0.2,0.1,0.4,0.2,0.7,0.3l0.2,0.1h0.1l0.4,0.2h0.1h0.1
				l0,0l0.6,0.2l0,0h0.2h0.1l0,0h0.2h0.1l0.6,0.1h0.1l0,0h0.2l0.5,0.1H84h0.1h0.1h0.4H85h0.5h1.3h0.6h0.4h0.1l0,0l0.6-0.1l0,0h0.1
				h0.1h0.2H89l0.4-0.1l0.3-0.1h0.1l0.4-0.1h0.1l0,0l0.6-0.2h0.1l0,0c0.2-0.1,0.4-0.2,0.6-0.2l0.2-0.1c0.2-0.1,0.4-0.2,0.6-0.3h0.1
				l0,0l0.1-0.1l0.2-0.1l0.2-0.1l0.2-0.1l0.1-0.1l0.2-0.1l0.1-0.1l0.1-0.1l0.1-0.1c0.1-0.1,0.2-0.1,0.2-0.2l0,0c0,0,0,0,0-0.1
				c0.1-0.1,0.2-0.2,0.2-0.3l0,0l0,0l0,0l0.1-0.2l0.1-0.1l0,0l0.1-0.2l0.1-0.1l0.1-0.2c0,0,0.1-0.1,0.1-0.1l0.1-0.2c0,0,0,0,0-0.1
				l0,0l0,0l0,0v-0.2c0,0,0-0.1,0-0.1s0-0.1,0-0.2c0,0,0-0.1,0-0.1l0,0c0,0,0-0.1,0-0.2s0-0.1,0-0.1s0-0.1,0-0.2l0,0
				c0-0.1,0-0.1,0-0.1l0,0l0.1-19V66.8H95.4z M67.7,32.2L67.7,32.2l0.4-0.1h0.1h0.1h0.1l0,0h0.1l0.3-0.1l0,0l0,0l0,0l0.4-0.1h0.5
				c0.1,0,0.2,0,0.3,0h0.5h0.2H71h0.2h0.1h0.1h0.1l0.2,0.1h0.1H72h0.1h0.1h0.2h0.1h0.1h0.1h0.1h0.1h0.1l0.4,0.2h0.1l0.4,0.2h0.1H74
				l0.1,0l0.2,0.1l0.2,0.1l0.2,0.1h0.1h0.1l0.3,0.2l0.1,0.1l0.4,0.3l0,0l0,0l0.4,0.3h0.1l0.1,0.1l0.2,0.1l0.2,0.2l0.1,0.1l0.1,0.1
				c0,0,0.1,0,0.1,0.1H77l0.1,0.1l0,0l0.1,0.1l0.2,0.2l0,0l0.1,0.1l0.1,0.1l0.2,0.2l0.1,0.1l0.1,0l0.1,0.1l0.1,0.1l0,0l0.2,0.2
				l0.1,0.1l0,0l0.1,0.1l0.1,0.1v0l0.2,0.2l0.1,0.1l0,0c0.1,0.1,0.1,0.1,0.2,0.2l0.1,0.1l0.1,0.1l0.1,0.1v0.1
				c0.1,0.1,0.2,0.2,0.3,0.3l0.1,0.1l0.1,0.1l0,0l0,0l0.4,0.5l0,0l0.1,0.1l0,0l0.3,0.4l0,0l0.4,0.5l0.1,0.1l0,0l0,0
				c0.2,0.3,0.4,0.6,0.7,0.9v0.1l0,0l0.1,0.1l0.2,0.3l0.1,0.1l0.1,0.2l0.2,0.2l0.1,0.1l0.1,0.1l0.1,0.1l0,0v0.1l0.2,0.3l0.3,0.6l0,0
				l0.1,0.2l0.1,0.1l0.1,0.2l0.1,0.2v0.1l0,0c0.1,0.1,0.1,0.3,0.2,0.4V43v0.1l0,0l0,0l0.2,0.6l0,0l0,0v0.1l0.1,0.2l0.1,0.2v0.1v0.1
				l0,0l0.1,0.2v0.1c0,0,0,0.1,0,0.2c0,0.1,0.1,0.1,0.1,0.2l0.2,0.4c0.1,0.2,0.1,0.3,0.2,0.5v0.1l0,0c0.1,0.2,0.1,0.4,0.2,0.6l0,0
				l0,0c0,0,0,0.1,0,0.1v0.2c0,0.1,0,0.2,0.1,0.3l0,0v0.1l0.1,0.3c0,0.1,0,0.1,0,0.2v0.2l0,0L85,48c0,0,0,0.1,0,0.1v0.1
				c0,0.1,0,0.1,0,0.2v0.1c0,0.1,0,0.2,0,0.2s0,0,0,0.1l0,0l0,0c0,0.2,0.1,0.3,0.1,0.5v0.1l0,0c0,0.2,0,0.3,0.1,0.5c0,0,0,0,0,0.1
				v0.2v0.2c0,0.1,0,0.1,0,0.2c0,0,0,0.1,0,0.1v0.1c0,0.1,0,0.1,0,0.2v0.1c0,0,0,0.1,0,0.1v0.2l0,0c0,0.1,0,0.1,0,0.2v0.1
				c0,0.2,0,0.3,0,0.5v6.1V62l0,0v5.2l-1.8,1v-8.3v-2.3l0,0v-2.5l0,0v-0.2c0-0.1,0-0.1,0-0.2l0,0v-0.5v-0.5v-0.1c0,0,0-0.1,0-0.2
				l0,0l0,0l0,0l0,0l0,0l0,0c0,0,0-0.1,0-0.1c0-0.1,0-0.2,0-0.2l0,0V53l0,0c0,0,0-0.1,0-0.1v-0.1v-0.2l0,0c0,0,0-0.1,0-0.2v-0.2
				c0,0,0-0.1,0-0.1c0-0.2-0.1-0.4-0.1-0.6v-0.2v-0.1c0-0.1,0-0.1-0.1-0.2l0,0c0,0,0-0.1,0-0.1v-0.1v-0.1l0,0c0,0,0-0.1,0-0.1
				c0,0,0,0,0-0.1v-0.1l0,0c0-0.1-0.1-0.3-0.1-0.4s0,0,0-0.1s0,0,0-0.1l0,0v-0.1l0,0l0,0l0,0c0,0,0-0.1,0-0.2v-0.1l0.9-0.5l0,0V49
				l-0.1-0.3c-0.1-0.2-0.1-0.4-0.2-0.6s-0.1-0.2-0.1-0.3l0,0v-0.1c0,0,0,0,0-0.1c0-0.1-0.1-0.2-0.1-0.3v-0.1l0,0L83.3,47l0,0l0,0
				v-0.1l-0.1-0.1l0,0v0c0-0.1-0.1-0.2-0.1-0.3l0,0c0-0.1-0.1-0.3-0.2-0.4l0,0c-0.1-0.3-0.2-0.5-0.3-0.8l0,0l0,0
				c0-0.1-0.1-0.2-0.2-0.3l-0.1-0.2l0,0l0,0c-0.1-0.2-0.2-0.3-0.2-0.5L81.9,44l-0.1-0.1l0,0l0,0l-0.1-0.2l-0.1-0.2l-0.1-0.2L81.3,43
				c0,0,0,0,0-0.1l0,0l0,0c-0.1-0.2-0.2-0.4-0.3-0.5l0,0l0,0l-0.1-0.1l-0.1-0.1v-0.1l0,0V42V42l0,0c-0.1-0.1-0.2-0.2-0.2-0.3l0,0
				l0,0c-0.2-0.2-0.3-0.5-0.5-0.7l-0.1-0.1L80,40.7l0,0l0,0l0,0l-0.1-0.1l0,0l-0.1-0.1L79.3,40c0,0,0-0.1,0-0.1l0,0v-0.1L79,39.6
				l-0.4-0.5l0,0l0,0l0,0l0,0v-0.1l0,0l-0.2-0.3l-0.1-0.1c0,0-0.1-0.1-0.1-0.1l0,0l0,0l0,0l-0.3-0.3L77.7,38l0,0l0,0l-0.1-0.1l0,0
				l-0.1-0.1l0,0l-0.1-0.1l0,0L77,37.3l0,0l-0.1-0.1l0,0l-0.1-0.1L76.6,37l-0.2-0.2l0,0l0,0l0,0l0,0l0,0l0,0
				c-0.3-0.2-0.5-0.5-0.8-0.7l-0.3-0.3h-0.1l-0.2-0.1l0,0l-0.3-0.3h-0.1l0,0l-0.2-0.1l0,0l-0.3-0.3l0,0L74.1,35l0,0
				c-0.4-0.3-0.8-0.5-1.2-0.8L72.5,34l0,0l-0.1-0.1L72,33.5l0,0h-0.1l-0.3-0.1l0,0h-0.1l0,0l0,0h-0.1l-0.1,0L71,33h-0.1l0,0l0,0l0,0
				l0,0l0,0l-0.3-0.1h-0.1h-0.1l0,0h-0.1l0,0l0,0l-0.2-0.1h-0.2l0,0h-0.1h-0.1h-0.1h-0.1h-0.2h-0.1l0,0h-0.1h-0.1h-0.1l0,0h-0.2
				h-0.1h-0.2h-0.1l0,0h-0.3l0,0L67.7,32.2z M61,41.3c0-3.4,1.1-5.9,3.2-7.1l0.2-0.1l0,0l0.2-0.1l0,0l0,0h0.1h0.1
				c0.1,0,0.2-0.1,0.2-0.1l0.2-0.1h0.1l0,0l0,0l0.3-0.1h0.6h0.2h1.1h0.2l0,0h0.2h0.1H68h0.2h0.2l0,0h0.1l0,0l0.3,0.1h0.1h0.1H69l0,0
				h0.1l0,0h0.1l0,0h0.1h0.1h0.1l0,0l0,0l0.3,0.1l0.2,0.1l0,0H70l0.2,0.1l0.2,0.1l0,0l0,0l0,0l0,0h0.1l0,0l0,0l0.1,0.1h0.1l0.1,0
				h0.1l0.1,0.1l0.1,0.1l0,0l0.4,0.2c0.4,0.2,0.8,0.5,1.1,0.7l0,0l0.1,0.1l0.1,0.1l0.4,0.3l0.2,0.1h0.1l0.3,0.3l0.2,0.2l0.3,0.2
				l0.2,0.2l0.3,0.3l0.2,0.2l0,0l0,0l0,0l0.3,0.2l0.1,0.1l0.1,0.1l0.2,0.2l0,0l0,0l0,0l0.1,0.1l0,0l0,0l0.1,0.1l0,0l0.3,0.4l0.1,0.1
				l0,0l0.2,0.3l0.2,0.3l0,0l0,0l0,0l0,0c0.1,0.2,0.2,0.3,0.4,0.5l0.2,0.2l0.2,0.3v0.1l0,0l0,0l0,0v0.1l0.1,0.1v0l0.5,0.7l0.1,0.1
				l0,0l0.1,0.1l0,0l0.2,0.3l0.1,0.1l0,0l0,0c0.1,0.1,0.1,0.2,0.2,0.3l0,0l0,0l0,0l0.1,0.2v0.1l0.1,0.2l0,0l0.1,0.2l0.1,0.1l0,0
				l0.1,0.2l0,0l0,0l0.1,0.1l0.1,0.2l0,0l0,0c0,0.1,0.1,0.2,0.1,0.2l0.1,0.2l0.1,0.3l0,0l0.2,0.5v0.1c0.1,0.2,0.2,0.5,0.3,0.7
				l0.1,0.2l0,0v0.1l0.1,0.2c0,0,0,0.1,0,0.1l0.1,0.1v0l0,0l0.1,0.1v0.1l0,0l0,0l0,0l0,0c0,0.1,0,0.1,0.1,0.2c0,0,0,0.1,0,0.1l0,0
				l0.1,0.2c0,0,0,0.1,0,0.2V47c0.1,0.4,0.2,0.7,0.4,1.1l0.1,0.2l0.1,0.3c0,0,0,0.1,0,0.1l0,0l0,0l0,0l0,0c0,0,0,0,0,0.1l0,0v0.1
				c0,0.1,0,0.2,0.1,0.3v0l0.1,0.2l0,0v0.1v0.2l0,0V50v0.1l0,0c0,0,0,0,0,0.1s0,0,0,0.1c0,0.2,0.1,0.4,0.1,0.6l0,0l0,0l0,0
				c0,0,0,0.1,0,0.2v0.2l0,0c0,0,0,0.1,0,0.1l0,0v0.2c0,0,0,0.1,0,0.2l0,0l0,0c0,0.1,0,0.2,0,0.3l0,0l0,0V52c0,0.1,0,0.1,0,0.2l0,0
				v0.4v0.3l0,0v0.2l0,0c0,0.1,0,0.2,0,0.3v5v8.1L80.5,66V57v-3.1c-0.1-3.4-1.1-6.8-2.9-9.8c-0.4-0.7-0.8-1.3-1.2-2
				c-1.6-2.3-3.6-4.3-6-5.7c-1.7-1.1-3.6-1.6-5.6-1.4l0,0c-0.7,0.1-1.4,0.3-2,0.7l-0.1,0.1l0,0l-0.2,0.1L62.4,36h0h-0.1l-0.1,0.1
				l0,0l0,0l0,0l-0.1,0.1L62,36.3l0,0l0,0l-0.1,0.1l-0.1,0.1l0,0l0,0l-0.1,0.1l0,0l-0.2,0.2l0,0c0,0-0.1,0-0.1,0.1l0,0
				c0,0-0.1,0.1-0.1,0.1c-0.1,0.1-0.1,0.2-0.2,0.3l1.8,0.6l0,0c0,0,0,0.1-0.1,0.1l0,0l0,0l0,0l-0.1,0.2l0,0c0,0,0,0.1-0.1,0.1l0,0
				l0,0l0,0l-0.1,0.1c0,0,0,0.1,0,0.1l-0.1,0.1l-0.1,0.2l0,0c0,0,0,0,0,0l0,0l0,0c0,0.1-0.1,0.2-0.1,0.4s0,0,0,0l0,0c0,0,0,0,0,0
				v0.1l0,0c0,0.1-0.1,0.2-0.1,0.3l0,0c0,0,0,0.1,0,0.2l0,0l0,0l0,0c0,0.1,0,0.2-0.1,0.3l0,0l0,0c0,0,0,0,0,0.1l0,0l0,0l0,0l0,0l0,0
				C62.2,40.4,62,40.7,62,41l0,0l0,0v0.1l0,0l0,0l0,0c0,0,0,0,0,0l0,0l0,0c0,0.1,0,0.1,0,0.2l0,0l0,0l0,0v0.2l0,0l0,0l0,0
				c0,0.1,0,0.1,0,0.2V42l0,0v0.2c0,0.1,0,0.2,0,0.4v5.8l0,0v7.3l-1-0.5v-6.9l0,0V41.3L61,41.3z M63.2,48.4v-0.7l0,0v-5.1
				c0-0.1,0-0.2,0-0.3l0,0v-0.1l0,0l0,0l0,0v-0.2l0,0c0,0,0-0.1,0-0.1l0,0v-0.1v-0.1v-0.3c0-0.1,0-0.1,0-0.2c0,0,0,0,0-0.1l0,0v-0.1
				l0,0v-0.1c0-0.1,0-0.2,0-0.2c0,0,0,0,0,0l0,0v-0.1l0,0c0-0.1,0-0.2,0.1-0.3V40l0,0l0,0l0,0v-0.1l0,0l0.1-0.3l0,0v-0.1l0,0l0,0
				l0,0l0,0c0-0.1,0.1-0.2,0.1-0.2v-0.1v-0.1l0,0l0,0v-0.1l0,0c0,0,0-0.1,0.1-0.1l0,0l0,0c0,0,0-0.1,0-0.1v-0.1l0.1-0.1
				c0,0,0-0.1,0-0.1l0,0l0.1-0.1v-0.1c0,0,0,0,0-0.1l0,0l0.1-0.1l0,0l0.1-0.1l0,0l0,0l0.1-0.1L64,38l0,0l0.2-0.2l0,0l0,0l0,0l0,0
				l0,0h0.1l0,0l0,0l0,0l0.1-0.1l0,0c0,0.1-0.1,0.1-0.1,0.2c0,0,0,0.1,0,0.1v0.1c0,0.1-0.1,0.2-0.1,0.3c0,0.1-0.1,0.1-0.1,0.2
				c0,0.1,0,0.2-0.1,0.3L64,39.2c0,0.1,0,0.2,0,0.2c0,0.1,0,0.2,0,0.3v0.2c0,0.1,0,0.2,0,0.3c0,0.1,0,0.1,0,0.2c0,0.1,0,0.2,0,0.4
				V41c0,0.2,0,0.3,0,0.6v13.1l-1.8,1L63.2,48.4z M66.3,44.1v-3.3c0-0.2,0-0.4,0-0.5v-0.1c0-0.1,0-0.2,0-0.3c0-0.1,0-0.1,0-0.2v-0.3
				v-0.2c0-0.1,0-0.2,0-0.2s0-0.2,0-0.2s0-0.2,0-0.2l0.1-0.2l0,0c0-0.1,0-0.1,0-0.2l0.1-0.3v-0.1c0,0,0-0.1,0-0.1
				c0-0.2,0.1-0.3,0.2-0.4c0-0.1,0.1-0.2,0.2-0.3l0,0c0-0.1,0.1-0.2,0.2-0.3l0,0l0,0l0.1-0.1c1.7-0.2,3.5,0.2,5,1.1
				c1.9,1.2,3.6,2.7,5,4.5c0.5,0.6,0.9,1.3,1.3,2c1.9,2.9,2.9,6.3,3.1,9.8v2.5l-13.6-7.9c-0.5-0.3-1-0.5-1.6-0.7L66.3,44.1z
				 M53.6,52.6c0-1.1,0.8-2.1,2.2-2.9c1.2-0.7,2.5-1.1,3.9-1.2v7.1c0,0.2,0.1,0.5,0.3,0.6l2.2,1.3c0.1,0.1,0.2,0.1,0.3,0.1h0.1h0.1
				h0.1h0.1l0,0l0,0l3.1-1.8c0.2-0.1,0.3-0.3,0.3-0.6v-5.8c0.3,0.1,0.6,0.3,0.9,0.4l14.2,8.1v10.2c0,0.2,0.1,0.5,0.3,0.6l2.2,1.3
				c0.1,0.1,0.2,0.1,0.3,0.1h0.1h0.1h0.1h0.1l0,0l0,0l3.1-1.8c0.2-0.1,0.3-0.3,0.3-0.6v-6l3.9,2.2c1.4,0.8,2.2,1.9,2.2,3V67l0,0l0,0
				v0.2v0.1v0.1l0,0l0,0v0.1l0,0c0,0,0,0,0,0.1v0.1l0,0l0,0l0,0l0,0l0,0v0.1l0,0l0,0l0,0l0,0v0.1l0,0l0,0l0,0l0,0l0,0l0,0l0,0l0,0
				l0,0l0,0l0,0l0,0l-0.1,0.1l0,0l0,0l-0.1,0.1l0,0l-0.1,0.1L93.7,68h-0.1l0,0l0,0l-0.1,0.1l0,0l-0.1,0.1l0,0l0,0l0,0l-0.1,0.1
				l-0.1,0.1l-0.1,0.1L93,68.5l-0.1,0.1l0,0l-0.1,0.1h-0.1l-0.1,0.1l0,0h-0.1l-0.1,0.1l-0.3,0.1L92,69l-0.3,0.1l-0.2,0.1l0,0h-0.1
				h-0.2L91,69.3h-0.2h-0.1l-0.3,0.1l0,0h-0.1h-0.1h-0.1H90h-0.1h-0.1h-0.2h-0.1h-0.1h-0.1l-0.6,0.1h-1h-0.2h-0.2H87h-0.6
				c-0.1,0-0.3,0-0.4,0h-0.4h-0.4h-0.4h-0.2h-0.2L84.1,71l-0.4-0.1h-0.2h-0.1h-0.1h-0.1l0,0H83h-0.2h-0.1l-0.2-0.1h-0.1l0,0
				l-0.2-0.1H82l-0.1-0.1h-0.1h-0.1l-0.3-0.1h-0.1l0,0h-0.1l0,0h-0.1c-0.2-0.1-0.4-0.2-0.6-0.3L55.8,55.5l0,0l-0.1-0.1l-0.1-0.1l0,0
				h-0.1c-0.1,0-0.1-0.1-0.2-0.1h0l-0.1-0.1L55,55l0,0l-0.1-0.1l-0.1-0.1l0,0l-0.1-0.1l-0.1-0.1l0,0l-0.1-0.1l0,0l-0.1,0l0,0l0,0
				l0,0l-0.1-0.1l0-0.1l0,0l0,0l-0.1-0.1v-0.1l0,0v-0.1l0,0l0,0l0,0l0,0l0,0l0,0l0,0l0,0v-0.1l0,0v-0.1V54v-0.1c0,0,0,0,0-0.1l0,0
				l0,0l0,0v-0.1l0,0l0,0l0,0l0,0V53l0,0v-0.1l0,0v-0.1c0,0,0,0,0-0.1v-0.1c0,0,0,0,0,0L53.6,52.6z M94,81.7l-0.1,18.9v0.1
				c0,0,0,0.1,0,0.1c0,0,0,0.1,0,0.1c0,0,0,0.1,0,0.1v0.1v0.1c0,0,0,0.1,0,0.1v0.1v0.1c0,0,0,0.1,0,0.1c0,0,0,0,0,0.1v0.1l0,0l0,0
				l0,0l-0.1,0.1l0,0l0,0c0,0.1-0.1,0.1-0.1,0.1l0,0l0,0c0,0-0.1,0.1-0.2,0.2l-0.1,0.1c0,0.1-0.1,0.1-0.2,0.2l-0.1,0.1l-0.1,0.1
				c0,0-0.1,0.1-0.1,0.1l-0.1,0.1l-0.1,0.1l-0.1,0.1l-0.1,0.1l-0.1,0.1l-0.1,0.1l0,0c-0.2,0.1-0.3,0.2-0.5,0.3l-0.1,0.1
				c-0.2,0.1-0.3,0.2-0.5,0.2H91c-0.2,0.1-0.3,0.1-0.5,0.2h-0.1l0,0l-0.4,0.1H90l-0.2,0.1l-0.4,0.1h-0.2h-0.2h-0.2l-0.6,0.1h-0.5
				h-0.6h-1.7h-0.4H85h-0.1h-0.1h-0.4h-0.1h-0.1H84l-0.4-0.1h-0.2h-0.1h-0.1l-0.5-0.1h-0.1h-0.2h-0.1l0,0h-0.1l0,0l-0.5-0.2h-0.1
				h-0.1l0,0l-0.4-0.2h-0.1h-0.1l-0.6-0.3L55.7,89.3c-1.4-0.8-2.2-1.9-2.2-2.9v-4.7l0.1-26.2l0.1,0.1c0,0,0,0,0.1,0.1l0,0l0,0l0,0
				l0,0l0.1,0.1l0,0l0,0l0.1,0.1H54l0.1,0.1l0.1,0.1l0.1,0.1l0.1,0.1l0,0l0.2,0.1l0,0l0,0l0,0l0,0h0.1l0,0l0.1,0.1l0,0l0.2,0.1
				l25,14.6c0.2,0.1,0.4,0.2,0.7,0.3l0.2,0.1h0.1l0,0h0.1l0.4,0.2h0.1l0,0l0.3,0.1l0.2,0.1H82h0.1l0.3,0.1h0.1h0.1h0.1h0.1h0.1H83
				l0.4,0.1l0.5,0.1l0,0h0.3l0,0h0.2h0.2h0.2h0.2h2.5h0.2H88h0.3h0.2h0.1l0,0h0.1H89h0.2l0,0l0.2-0.1h0.2h0.2h0.1H90l0.2-0.1
				l0.2-0.1h0.1l0,0l0.2-0.1l0,0h0.2l0.2-0.1h0.1l0.3-0.1l0.3-0.1l0.2-0.1l0.2-0.1c0,0,0.1,0,0.1,0c0.1,0,0.1,0,0.2-0.1l0.2-0.1
				l0.2-0.1h0.1h0.1l0,0l0,0l0,0l0.1-0.1l0,0l0.1-0.1l0,0l0,0l0,0h0.1h0.1l0,0h0.1l0,0l0,0l0,0l0,0l0.1-0.1l0.1-0.1v-0.1l0.1-0.1
				c0,0,0.1-0.1,0.1-0.1l0,0l0,0L94,81.7z"/>
			
				<linearGradient id="SVGID_4_" gradientUnits="userSpaceOnUse" x1="61.12" y1="69.55" x2="73.22" y2="69.55" gradientTransform="matrix(1 0 0 -1 0 150)">
				<stop  offset="0" style="stop-color:#29AAE1"/>
				<stop  offset="0.5" style="stop-color:#FFFFFF"/>
				<stop  offset="0.98" style="stop-color:#2BACE2"/>
			</linearGradient>
			<path class="st40" d="M73.2,77.6L73.2,77.6c-0.2-3.3-1.6-6.3-4-8.5l0,0c-0.5-0.5-1.1-0.9-1.7-1.3l0,0h-0.1
				c-1.7-1.4-4.2-1.1-5.5,0.6c-0.7,0.9-1,2-0.8,3.1l0,0c0.1,2.2,0.8,4.3,2,6.1l-1.6,10c0,0.3,0.1,0.5,0.3,0.7l2.7,1.6l0,0l0,0
				l7.1,4.1C71.7,94,71.9,94,72,94c0.1,0,0.3,0,0.4-0.1c0.2-0.1,0.3-0.4,0.3-0.6l-1.4-11.6C72.6,80.8,73.4,79.2,73.2,77.6z
				 M64.4,88.2L63,87.3l1.5-9.9c0-0.2,0-0.3-0.1-0.5c-1.1-1.6-1.8-3.6-1.9-5.6l0,0c-0.1-1.1,0.3-2.2,1.2-2.9c0.9-0.4,2-0.3,2.9,0.2
				c-0.4,0.1-0.8,0.3-1.1,0.5c-1.1,0.9-1.8,2.4-1.7,3.9l0,0c0.1,2.2,0.8,4.3,2,6.1L64.4,88.2z M71.9,77.6c0,1.6-0.6,2.7-1.6,3
				c-0.3,0.1-0.5,0.4-0.4,0.7l1.3,10.8l-5.5-3.2l1.5-9.8c0-0.2,0-0.3-0.1-0.5c-1.1-1.6-1.8-3.6-1.9-5.6l0,0c-0.1-1,0.3-2.1,1.1-2.8
				c0.6-0.4,1.5-0.5,2.2-0.2l0,0l0.1,0.1l0.1,0.1l0.2,0.2v0.1l0.1,0.1l0,0l0.2,0.2l0,0l0.1,0.2l0.2,0.3l0.1,0.2l0,0l0.1,0.2L70,72
				l0.2,0.3c0,0.1,0.1,0.1,0.1,0.2l0,0l0.1,0.2l0.2,0.3l0.1,0.2c0,0.1,0.1,0.2,0.1,0.2c0,0.1,0.1,0.2,0.1,0.2v0.1l0.1,0.2l0.1,0.3
				c0,0.1,0.1,0.1,0.1,0.2l0.1,0.2c0,0,0,0.1,0,0.1v0.2c0.1,0.2,0.2,0.5,0.2,0.7s0,0.2,0,0.2V76v0.2c0,0.1,0,0.2,0,0.2
				c0,0.2,0.1,0.5,0.1,0.7c0,0.1,0,0.1,0,0.2c0,0.1,0,0.2,0,0.3L71.9,77.6z"/>
		</g>
		<path class="st35" d="M43.4,32L43.4,32L43.4,32z"/>
		<path class="st35" d="M43.4,32L43.4,32c-0.6-0.3-0.8,0.1-0.8,0.9c-0.1,0.7,0.2,1.4,0.8,1.8c0.6,0.3,0.8-0.1,0.8-0.9
			C44.3,33.1,44,32.4,43.4,32z M43.4,34.3c-0.4-0.3-0.5-0.8-0.5-1.3s0.1-1,0.5-0.7s0.5,0.8,0.5,1.3S43.8,34.6,43.4,34.3L43.4,34.3z"
			/>
		<polygon class="st35" points="45,33 45,35.6 44.8,35.4 44.8,33.2 44.5,33 44.5,32.7 		"/>
		<path class="st35" d="M46.3,33.7c-0.1-0.1-0.2-0.1-0.4-0.1c-0.3,0-0.4,0.4-0.4,1c-0.1,0.7,0.2,1.4,0.8,1.8
			c0.6,0.4,0.8-0.1,0.8-0.9C47.2,34.8,46.9,34.1,46.3,33.7z M46.3,36c-0.4-0.2-0.5-0.8-0.5-1.3s0.1-1,0.5-0.7s0.5,0.8,0.5,1.3
			S46.7,36.3,46.3,36L46.3,36z"/>
		<polygon class="st35" points="48,34.7 48,37.3 47.7,37.1 47.7,34.9 47.4,34.7 47.4,34.4 		"/>
		<path class="st35" d="M49.2,35.4c-0.1-0.1-0.2-0.1-0.4-0.1c-0.3,0-0.4,0.4-0.4,1c-0.1,0.7,0.2,1.3,0.8,1.7
			c0.6,0.3,0.8-0.1,0.8-0.9C50.1,36.5,49.8,35.8,49.2,35.4z M49.2,37.7c-0.4-0.2-0.5-0.7-0.5-1.3s0.1-1,0.5-0.7s0.5,0.8,0.5,1.3
			S49.7,38,49.2,37.7L49.2,37.7z"/>
		<polygon class="st35" points="50.9,36.4 50.9,39 50.6,38.8 50.6,36.5 50.3,36.4 50.3,36.1 		"/>
		<polygon class="st35" points="52.7,37.5 52.7,40 52.4,39.8 52.4,37.6 52.1,37.4 52.1,37.1 		"/>
		<polygon class="st35" points="41,35 41,37.5 40.7,37.4 40.7,35.1 40.4,34.9 40.4,34.6 		"/>
		<polygon class="st35" points="42,35.5 42,38.1 41.7,37.9 41.7,35.7 41.4,35.5 41.4,35.2 		"/>
		<path class="st35" d="M44.1,36.7c-0.6-0.3-0.8,0.1-0.8,0.8c-0.1,0.7,0.2,1.4,0.8,1.8c0.6,0.3,0.8-0.1,0.8-0.9
			C44.9,37.8,44.6,37.1,44.1,36.7z M44.1,39c-0.4-0.2-0.5-0.7-0.5-1.3s0.1-1,0.5-0.7s0.5,0.8,0.5,1.3S44.5,39.2,44.1,39L44.1,39z"/>
		<polygon class="st35" points="48.2,39.1 48.2,41.7 47.9,41.5 47.9,39.2 47.6,39.1 47.6,38.8 		"/>
		<polygon class="st35" points="49.2,39.7 49.2,42.2 48.9,42.1 48.9,39.8 48.6,39.6 48.6,39.3 		"/>
		<polygon class="st35" points="50.2,40.2 50.2,42.8 49.9,42.7 49.9,40.4 49.6,40.2 49.6,39.9 		"/>
		<polygon class="st35" points="52.8,41.8 52.8,44.3 52.5,44.2 52.5,41.9 52.2,41.7 52.2,41.4 		"/>
		<polygon class="st35" points="53.8,42.3 53.8,44.9 53.5,44.7 53.5,42.5 53.2,42.3 53.2,42 		"/>
		<polygon class="st35" points="54.8,42.9 54.8,45.5 54.5,45.3 54.5,43 54.2,42.9 54.2,42.6 		"/>
		<polygon class="st35" points="40.2,38.8 40.2,41.3 40,41.2 40,38.9 39.7,38.7 39.7,38.6 39.7,38.4 		"/>
		<polygon class="st35" points="42.1,39.8 42,42.4 41.8,42.2 41.8,40 41.5,39.8 41.5,39.5 		"/>
		<path class="st35" d="M43.3,40.5c-0.6-0.4-0.8,0.1-0.8,0.8c-0.1,0.7,0.2,1.4,0.8,1.8c0.6,0.4,0.8-0.1,0.8-0.9
			C44.2,41.6,43.9,40.9,43.3,40.5z M43.3,42.8c-0.4-0.3-0.5-0.8-0.5-1.3s0.1-1,0.5-0.7s0.5,0.8,0.5,1.3S43.7,43.1,43.3,42.8z"/>
		<polygon class="st35" points="45.8,42 45.8,44.5 45.5,44.4 45.5,42.1 45.2,41.9 45.2,41.7 		"/>
		<polygon class="st35" points="46.8,42.5 46.8,45.1 46.5,44.9 46.5,42.7 46.2,42.5 46.2,42.2 		"/>
		<polygon class="st35" points="47.8,43.1 47.8,45.7 47.5,45.5 47.5,43.2 47.2,43.1 47.2,42.8 		"/>
		<path class="st35" d="M49.8,44.3c-0.6-0.4-0.8,0.1-0.8,0.8c-0.1,0.7,0.2,1.4,0.8,1.8c0.6,0.4,0.8-0.1,0.8-0.9
			C50.7,45.3,50.4,44.7,49.8,44.3z M49.8,46.6c-0.4-0.2-0.5-0.8-0.5-1.3s0.1-1,0.5-0.7s0.5,0.8,0.5,1.3S50.3,46.8,49.8,46.6
			L49.8,46.6z"/>
		<path class="st35" d="M51.8,45.4C51.2,45,51,45.5,51,46.2c-0.1,0.7,0.2,1.4,0.8,1.8c0.6,0.3,0.8-0.1,0.8-0.9
			C52.6,46.5,52.3,45.8,51.8,45.4z M51.8,47.7c-0.4-0.3-0.5-0.8-0.5-1.3s0.1-1,0.5-0.7s0.5,0.8,0.5,1.3S52.2,48,51.8,47.7L51.8,47.7
			z"/>
		<path class="st35" d="M53.7,46.5c-0.6-0.4-0.8,0.1-0.8,0.8c-0.1,0.7,0.2,1.4,0.8,1.8c0.6,0.3,0.8-0.1,0.8-0.9
			C54.6,47.6,54.3,46.9,53.7,46.5z M53.7,48.8c-0.4-0.2-0.5-0.8-0.5-1.3s0.1-1,0.5-0.7c0.4,0.3,0.6,0.8,0.5,1.3
			C54.2,48.6,54.1,49.1,53.7,48.8z"/>
		<path class="st35" d="M55.6,47.6c-0.6-0.4-0.8,0.1-0.8,0.8c-0.1,0.7,0.2,1.4,0.8,1.8c0.6,0.3,0.8-0.1,0.8-0.9l0,0
			C56.5,48.7,56.2,48,55.6,47.6z M55.6,49.9c-0.4-0.3-0.5-0.8-0.5-1.3s0.1-1,0.5-0.7s0.5,0.8,0.5,1.3S56.1,50.2,55.6,49.9z"/>
		<polygon class="st35" points="42,44 42,46.6 41.7,46.5 41.7,44.2 41.5,44 41.5,43.7 		"/>
		<polygon class="st35" points="43,44.6 43,47.2 42.7,47 42.7,44.8 42.4,44.6 42.4,44.3 		"/>
		<polygon class="st35" points="44,45.2 44,47.8 43.7,47.6 43.7,45.3 43.4,45.2 43.4,44.9 		"/>
		<polygon class="st35" points="45,45.8 45,48.3 44.7,48.2 44.7,45.9 44.4,45.7 44.4,45.4 		"/>
		<path class="st35" d="M46.2,46.5c-0.6-0.4-0.8,0.1-0.8,0.8c-0.1,0.7,0.2,1.3,0.8,1.7c0.6,0.4,0.8-0.1,0.8-0.9
			C47.1,47.5,46.8,46.8,46.2,46.5z M46.2,48.8c-0.4-0.3-0.5-0.8-0.5-1.3s0.1-1,0.5-0.7s0.5,0.8,0.5,1.3S46.7,49,46.2,48.8L46.2,48.8
			z"/>
		<path class="st35" d="M48.2,47.6c-0.6-0.3-0.8,0.1-0.8,0.8c-0.1,0.7,0.2,1.4,0.8,1.8c0.6,0.3,0.8-0.1,0.8-0.9
			C49,48.6,48.7,48,48.2,47.6z M48.2,49.9c-0.4-0.2-0.5-0.7-0.5-1.3s0.1-1,0.5-0.7s0.5,0.8,0.5,1.3S48.6,50.1,48.2,49.9L48.2,49.9z"
			/>
		<path class="st35" d="M50.1,48.7c-0.6-0.4-0.8,0.1-0.8,0.8c-0.1,0.7,0.2,1.4,0.8,1.8c0.6,0.4,0.8-0.1,0.8-0.9
			C51,49.7,50.7,49.1,50.1,48.7z M50.1,51c-0.4-0.2-0.5-0.8-0.5-1.3s0.1-1,0.5-0.7s0.5,0.8,0.5,1.3S50.5,51.2,50.1,51L50.1,51z"/>
		<polygon class="st35" points="51.8,49.7 51.8,52.2 51.5,52.1 51.5,49.8 51.2,49.6 51.2,49.3 		"/>
		<path class="st35" d="M53,50.4c-0.6-0.3-0.8,0.1-0.8,0.8c-0.1,0.7,0.2,1.4,0.8,1.8c0.6,0.3,0.8-0.1,0.8-0.9
			C53.9,51.4,53.6,50.8,53,50.4z M53,52.7c-0.4-0.3-0.5-0.8-0.5-1.3s0.1-1,0.5-0.7s0.5,0.8,0.5,1.3S53.5,52.9,53,52.7z"/>
		<polygon class="st35" points="41.1,47.8 41.1,50.3 40.8,50.2 40.8,47.9 40.5,47.8 40.5,47.5 		"/>
		<path class="st35" d="M42.4,48.5c-0.6-0.3-0.8,0.1-0.8,0.8c-0.1,0.7,0.2,1.4,0.8,1.8c0.1,0.1,0.2,0.1,0.4,0.1c0.3,0,0.4-0.4,0.4-1
			C43.2,49.5,42.9,48.9,42.4,48.5z M42.4,50.8c-0.4-0.3-0.5-0.8-0.5-1.3s0.1-1,0.5-0.7s0.5,0.8,0.5,1.3S42.8,51,42.4,50.8L42.4,50.8
			z"/>
		<polygon class="st35" points="44,49.5 44,52 43.8,51.9 43.8,49.6 43.5,49.4 43.5,49.1 		"/>
		<path class="st35" d="M45.3,50.2c-0.6-0.4-0.8,0.1-0.8,0.8c-0.1,0.7,0.2,1.4,0.8,1.8c0.1,0.1,0.2,0.1,0.4,0.1c0.3,0,0.4-0.4,0.4-1
			C46.2,51.2,45.9,50.5,45.3,50.2z M45.3,52.5c-0.4-0.2-0.5-0.8-0.5-1.3s0.1-1,0.5-0.7s0.5,0.8,0.5,1.3S45.7,52.7,45.3,52.5z"/>
		<polygon class="st35" points="47,51.2 47,53.7 46.7,53.5 46.7,51.3 46.4,51.1 46.4,50.8 		"/>
		<path class="st35" d="M48.2,51.8c-0.6-0.3-0.8,0.1-0.8,0.8c-0.1,0.7,0.2,1.4,0.8,1.8c0.1,0.1,0.2,0.1,0.4,0.1c0.3,0,0.4-0.4,0.4-1
			C49.1,52.9,48.8,52.2,48.2,51.8z M48.2,54.2c-0.4-0.3-0.5-0.8-0.5-1.3s0.1-1,0.5-0.7s0.5,0.8,0.5,1.3S48.7,54.4,48.2,54.2z"/>
		<polygon class="st35" points="49.9,52.8 49.9,55.4 49.8,55.3 49.6,55.2 49.6,55.2 49.6,53 49.3,52.8 49.3,52.5 		"/>
		<path class="st35" d="M52,54c-0.6-0.3-0.8,0.1-0.8,0.8c-0.1,0.7,0.2,1.4,0.8,1.8c0.1,0.1,0.2,0.1,0.4,0.1c0.3,0,0.4-0.4,0.4-1
			C52.9,55,52.6,54.4,52,54z M52,56.3c-0.4-0.3-0.5-0.8-0.5-1.3s0.1-1,0.5-0.7s0.5,0.8,0.5,1.3S52.4,56.6,52,56.3z"/>
		<path class="st35" d="M53.9,55.1c-0.6-0.4-0.8,0.1-0.8,0.8c-0.1,0.7,0.2,1.4,0.8,1.8c0.6,0.4,0.8-0.1,0.8-0.8
			C54.8,56.2,54.5,55.5,53.9,55.1z M53.9,57.4c-0.4-0.2-0.5-0.8-0.5-1.3s0.1-1,0.5-0.7s0.5,0.8,0.5,1.3S54.3,57.7,53.9,57.4z"/>
		<path class="st34" d="M104,82.8L104,82.8L104,82.8z"/>
		<path class="st34" d="M104.1,82.8L104.1,82.8c-0.6-0.3-0.8,0.1-0.8,0.8c-0.1,0.7,0.2,1.4,0.8,1.8c0.6,0.3,0.8-0.1,0.8-0.9
			C104.9,83.9,104.6,83.2,104.1,82.8z M104.1,85.1c-0.4-0.2-0.5-0.7-0.5-1.3s0.1-1,0.5-0.7s0.5,0.8,0.5,1.3S104.5,85.4,104.1,85.1
			L104.1,85.1z"/>
		<polygon class="st34" points="105.7,83.8 105.7,86.4 105.4,86.2 105.4,84 105.1,83.8 105.1,83.5 		"/>
		<path class="st34" d="M107,84.5c-0.1-0.1-0.2-0.1-0.4-0.1c-0.3,0-0.4,0.4-0.4,1c-0.1,0.7,0.2,1.4,0.8,1.8c0.6,0.4,0.8-0.1,0.8-0.9
			C107.9,85.6,107.6,84.9,107,84.5z M107,86.8c-0.4-0.2-0.5-0.8-0.5-1.3s0.1-1,0.5-0.7s0.5,0.8,0.5,1.3S107.4,87.1,107,86.8z"/>
		<polygon class="st34" points="108.6,85.5 108.6,88.1 108.3,87.9 108.3,85.7 108,85.5 108,85.2 		"/>
		<path class="st34" d="M109.9,86.2c-0.1-0.1-0.2-0.1-0.4-0.1c-0.3,0-0.4,0.4-0.4,1c-0.1,0.7,0.2,1.4,0.8,1.8
			c0.6,0.3,0.8-0.1,0.8-0.9C110.8,87.3,110.5,86.6,109.9,86.2z M109.9,88.5c-0.4-0.2-0.5-0.7-0.5-1.3s0.1-1,0.5-0.7s0.5,0.8,0.5,1.3
			S110.3,88.8,109.9,88.5L109.9,88.5z"/>
		<polygon class="st34" points="111.5,87.2 111.5,89.8 111.2,89.6 111.2,87.3 111,87.2 111,86.9 		"/>
		<polygon class="st34" points="113.3,88.2 113.3,90.8 113.1,90.7 113.1,88.4 112.8,88.2 112.8,87.9 		"/>
		<polygon class="st34" points="101.7,85.8 101.7,88.3 101.4,88.2 101.4,85.9 101.1,85.7 101.1,85.4 		"/>
		<polygon class="st34" points="102.7,86.3 102.6,88.9 102.4,88.7 102.4,86.5 102.1,86.3 102.1,86 		"/>
		<path class="st34" d="M104.7,87.5c-0.6-0.3-0.8,0.1-0.8,0.8c-0.1,0.7,0.2,1.4,0.8,1.8c0.6,0.3,0.8-0.1,0.8-0.9
			C105.6,88.6,105.3,87.9,104.7,87.5z M104.7,89.8c-0.4-0.2-0.5-0.7-0.5-1.3s0.1-1,0.5-0.7s0.5,0.8,0.5,1.3S105.2,90.1,104.7,89.8
			L104.7,89.8z"/>
		<polygon class="st34" points="108.9,89.9 108.8,92.5 108.6,92.3 108.6,90 108.3,89.9 108.3,89.6 		"/>
		<polygon class="st34" points="109.8,90.5 109.8,93 109.6,92.9 109.6,90.6 109.3,90.4 109.3,90.2 		"/>
		<polygon class="st34" points="110.8,91.1 110.8,93.6 110.5,93.4 110.5,91.2 110.2,91 110.2,90.7 		"/>
		<polygon class="st34" points="113.4,92.6 113.4,95.1 113.2,95 113.2,92.7 112.9,92.5 112.9,92.2 		"/>
		<polygon class="st34" points="114.4,93.1 114.4,95.7 114.2,95.5 114.2,93.3 113.9,93.1 113.9,92.8 		"/>
		<polygon class="st34" points="115.4,93.7 115.4,96.3 115.1,96.1 115.1,93.8 114.8,93.7 114.8,93.4 		"/>
		<polygon class="st34" points="100.9,89.6 100.9,92.1 100.6,92 100.6,89.7 100.3,89.5 100.3,89.4 100.3,89.2 		"/>
		<polygon class="st34" points="102.7,90.6 102.7,93.2 102.4,93 102.4,90.8 102.1,90.6 102.1,90.3 		"/>
		<path class="st34" d="M104,91.3c-0.6-0.4-0.8,0.1-0.8,0.8c-0.1,0.7,0.2,1.4,0.8,1.8c0.6,0.4,0.8-0.1,0.8-0.9
			C104.9,92.4,104.6,91.7,104,91.3z M104,93.6c-0.4-0.3-0.5-0.8-0.5-1.3s0.1-1,0.5-0.7s0.5,0.8,0.5,1.3S104.4,93.9,104,93.6z"/>
		<polygon class="st34" points="106.4,92.8 106.4,95.3 106.2,95.2 106.2,92.9 105.9,92.7 105.9,92.4 		"/>
		<polygon class="st34" points="107.4,93.3 107.4,95.9 107.2,95.7 107.2,93.5 106.9,93.3 106.9,93 		"/>
		<polygon class="st34" points="108.4,93.9 108.4,96.5 108.1,96.3 108.1,94.1 107.8,93.9 107.8,93.6 		"/>
		<path class="st34" d="M110.5,95.1c-0.6-0.4-0.8,0.1-0.8,0.8c-0.1,0.7,0.2,1.4,0.8,1.8c0.6,0.4,0.8-0.1,0.8-0.9
			C111.4,96.1,111.1,95.5,110.5,95.1z M110.5,97.4c-0.4-0.2-0.5-0.8-0.5-1.3s0.1-1,0.5-0.7s0.5,0.8,0.5,1.3S110.9,97.6,110.5,97.4z"
			/>
		<path class="st34" d="M112.4,96.2c-0.6-0.3-0.8,0.1-0.8,0.8c-0.1,0.7,0.2,1.4,0.8,1.8c0.6,0.3,0.8-0.1,0.8-0.9
			C113.3,97.3,113,96.6,112.4,96.2z M112.4,98.5c-0.4-0.3-0.5-0.8-0.5-1.3s0.1-1,0.5-0.7s0.5,0.8,0.5,1.3S112.9,98.8,112.4,98.5
			L112.4,98.5z"/>
		<path class="st34" d="M114.4,97.3c-0.6-0.4-0.8,0.1-0.8,0.8c-0.1,0.7,0.2,1.4,0.8,1.8c0.6,0.3,0.8-0.1,0.8-0.9
			C115.2,98.4,114.9,97.7,114.4,97.3z M114.4,99.6c-0.4-0.2-0.5-0.8-0.5-1.3s0.1-1,0.5-0.7s0.5,0.8,0.5,1.3S114.8,99.9,114.4,99.6
			L114.4,99.6z"/>
		<path class="st34" d="M116.3,98.4c-0.6-0.4-0.8,0.1-0.8,0.8c-0.1,0.7,0.2,1.4,0.8,1.8c0.6,0.3,0.8-0.1,0.8-0.9l0,0
			C117.2,99.5,116.9,98.8,116.3,98.4z M116.3,100.7c-0.4-0.3-0.5-0.8-0.5-1.3s0.1-1,0.5-0.7s0.5,0.8,0.5,1.3S116.7,101,116.3,100.7
			L116.3,100.7z"/>
		<polygon class="st34" points="102.7,94.8 102.7,97.4 102.4,97.2 102.4,95 102.1,94.8 102.1,94.5 		"/>
		<polygon class="st34" points="103.7,95.4 103.7,98 103.4,97.8 103.4,95.6 103.1,95.4 103.1,95.1 		"/>
		<polygon class="st34" points="104.7,96 104.7,98.6 104.4,98.4 104.4,96.1 104.1,95.9 104.1,95.7 		"/>
		<polygon class="st34" points="105.6,96.6 105.6,99.1 105.3,98.9 105.3,96.7 105.1,96.5 105.1,96.2 		"/>
		<path class="st34" d="M106.9,97.2c-0.6-0.4-0.8,0.1-0.8,0.8c-0.1,0.7,0.2,1.4,0.8,1.8c0.6,0.4,0.8-0.1,0.8-0.9
			C107.8,98.3,107.5,97.6,106.9,97.2z M106.9,99.6c-0.4-0.3-0.5-0.8-0.5-1.3s0.1-1,0.5-0.7s0.5,0.8,0.5,1.3S107.3,99.8,106.9,99.6z"
			/>
		<path class="st34" d="M108.8,98.4c-0.6-0.3-0.8,0.1-0.8,0.8c-0.1,0.7,0.2,1.4,0.8,1.8c0.6,0.3,0.8-0.1,0.8-0.9
			C109.7,99.4,109.4,98.8,108.8,98.4z M108.8,100.7c-0.4-0.2-0.5-0.7-0.5-1.3s0.1-1,0.5-0.7s0.5,0.8,0.5,1.3
			S109.3,100.9,108.8,100.7L108.8,100.7z"/>
		<path class="st34" d="M110.8,99.5c-0.6-0.4-0.8,0.1-0.8,0.8c-0.1,0.7,0.2,1.4,0.8,1.8c0.6,0.4,0.8-0.1,0.8-0.9
			C111.6,100.5,111.3,99.9,110.8,99.5z M110.8,101.8c-0.4-0.2-0.5-0.8-0.5-1.3s0.1-1,0.5-0.7s0.5,0.8,0.5,1.3S111.2,102,110.8,101.8
			L110.8,101.8z"/>
		<polygon class="st34" points="112.4,100.5 112.4,103 112.1,102.9 112.1,100.6 111.8,100.4 111.8,100.1 		"/>
		<path class="st34" d="M113.7,101.2c-0.6-0.3-0.8,0.1-0.8,0.8c-0.1,0.7,0.2,1.4,0.8,1.8c0.6,0.3,0.8-0.1,0.8-0.9
			C114.5,102.2,114.2,101.6,113.7,101.2z M113.7,103.5c-0.4-0.3-0.5-0.8-0.5-1.3s0.1-1,0.5-0.7s0.5,0.8,0.5,1.3
			S114.1,103.7,113.7,103.5L113.7,103.5z"/>
		<polygon class="st34" points="101.8,98.6 101.8,101.1 101.5,101 101.5,98.7 101.2,98.6 101.2,98.2 		"/>
		<path class="st34" d="M103,99.3c-0.6-0.3-0.8,0.1-0.8,0.8c-0.1,0.7,0.2,1.4,0.8,1.8c0.1,0.1,0.2,0.1,0.3,0.1c0.3,0,0.4-0.4,0.4-1
			C103.9,100.3,103.6,99.7,103,99.3z M103,101.6c-0.4-0.3-0.5-0.8-0.5-1.3s0.1-1,0.5-0.7s0.5,0.8,0.5,1.3S103.5,101.8,103,101.6z"/>
		<polygon class="st34" points="104.7,100.3 104.7,102.8 104.4,102.7 104.4,100.4 104.1,100.2 104.1,99.9 		"/>
		<path class="st34" d="M106,101c-0.6-0.4-0.8,0.1-0.8,0.8c-0.1,0.7,0.2,1.4,0.8,1.8c0.1,0.1,0.2,0.1,0.4,0.1c0.3,0,0.4-0.4,0.4-1
			C106.9,102,106.6,101.4,106,101z M106,103.3c-0.4-0.2-0.5-0.8-0.5-1.3s0.1-1,0.5-0.7s0.5,0.8,0.5,1.3S106.4,103.5,106,103.3
			L106,103.3z"/>
		<polygon class="st34" points="107.6,102 107.6,104.5 107.3,104.3 107.3,102.1 107,101.9 107,101.6 		"/>
		<path class="st34" d="M108.9,102.6c-0.6-0.3-0.8,0.1-0.8,0.8c-0.1,0.7,0.2,1.4,0.8,1.8c0.1,0.1,0.2,0.1,0.4,0.1
			c0.3,0,0.4-0.4,0.4-1C109.7,103.7,109.4,103,108.9,102.6z M108.9,104.9c-0.4-0.3-0.5-0.8-0.5-1.3s0.1-1,0.5-0.7s0.5,0.8,0.5,1.3
			S109.3,105.2,108.9,104.9L108.9,104.9z"/>
		<polygon class="st34" points="110.5,103.6 110.5,106.2 110.4,106.1 110.2,106 110.2,106 110.3,103.8 110,103.6 110,103.3 		"/>
		<path class="st34" d="M112.6,104.8c-0.6-0.3-0.8,0.1-0.8,0.8c-0.1,0.7,0.2,1.4,0.8,1.8c0.1,0.1,0.2,0.1,0.4,0.1
			c0.3,0,0.4-0.4,0.4-1C113.5,105.8,113.2,105.2,112.6,104.8z M112.6,107.1c-0.4-0.3-0.5-0.8-0.5-1.3s0.1-1,0.5-0.7s0.5,0.8,0.5,1.3
			S113.1,107.4,112.6,107.1L112.6,107.1z"/>
		<path class="st34" d="M114.6,105.9c-0.6-0.4-0.8,0.1-0.8,0.8c-0.1,0.7,0.2,1.4,0.8,1.8c0.6,0.4,0.8-0.1,0.8-0.8
			C115.4,107,115.1,106.3,114.6,105.9z M114.6,108.2c-0.4-0.2-0.5-0.8-0.5-1.3s0.1-1,0.5-0.7s0.5,0.8,0.5,1.3S115,108.5,114.6,108.2
			z"/>
		<g>
			
				<linearGradient id="SVGID_5_" gradientUnits="userSpaceOnUse" x1="116.23" y1="40.025" x2="118.92" y2="40.025" gradientTransform="matrix(1 0 0 -1 0 150)">
				<stop  offset="0" style="stop-color:#2BAAE2"/>
				<stop  offset="0.33" style="stop-color:#063F61"/>
				<stop  offset="1" style="stop-color:#56558F"/>
			</linearGradient>
			<path class="st41" d="M116.2,110.4L116.2,110.4L116.2,110.4L116.2,110.4L116.2,110.4v-0.2l0,0l0,0l0,0l0,0l0,0l0,0l0,0l0,0l0,0
				l0,0l0,0l0,0l0,0l0,0h0.1l0,0l0,0l0,0h0.1l0,0h0.1h1.3h0.1l0,0h0.1h0.1l0,0l0,0l0,0c0.2,0.1,0.3,0.2,0.4,0.4c0,0.1,0,0.1,0,0.2
				v-1.1c0-0.2-0.2-0.5-0.4-0.6l0,0h-0.1l0,0h-0.1h-0.1l0,0h-0.1h-1.3h-0.1l0,0h-0.1l0,0h-0.1l0,0h-0.1h-0.1l0,0l0,0l0,0l0,0l0,0
				l0,0l0,0l0,0l0,0l0,0l0,0l0,0l0,0l0,0l0,0v0.1l0,0l0,0l0,0l0,0l0,0v0.1l0,0v1.1L116.2,110.4z"/>
			
				<linearGradient id="SVGID_6_" gradientUnits="userSpaceOnUse" x1="110.28" y1="38.36" x2="110.76" y2="38.36" gradientTransform="matrix(1 0 0 -1 0 150)">
				<stop  offset="0" style="stop-color:#2BAAE2"/>
				<stop  offset="0.33" style="stop-color:#063F61"/>
				<stop  offset="1" style="stop-color:#56558F"/>
			</linearGradient>
			<path class="st42" d="M110.6,112.6C110.6,112.6,110.6,112.7,110.6,112.6l0.2,0.2v-1.2c-0.3-0.4-0.5-0.8-0.5-1.3l0,0v1.1
				c0,0.3,0.1,0.6,0.2,0.8C110.5,112.5,110.6,112.5,110.6,112.6z"/>
			
				<linearGradient id="SVGID_7_" gradientUnits="userSpaceOnUse" x1="99.59" y1="35.095" x2="121.15" y2="35.095" gradientTransform="matrix(1 0 0 -1 0 150)">
				<stop  offset="0" style="stop-color:#2BAAE2"/>
				<stop  offset="0.33" style="stop-color:#063F61"/>
				<stop  offset="1" style="stop-color:#56558F"/>
			</linearGradient>
			<path class="st43" d="M121.2,110.5v0.5l0,0l0,0c0,0,0,0,0,0.1l0,0v0.1l0,0v0.1l0,0l0,0l0,0l0,0l0,0l0,0l0,0l0,0l0,0l0,0l0,0
				l-0.1,0.1l0,0l-0.1,0.1l0,0l-0.1,0.1l0,0l-0.1,0.1l0,0l0,0l0,0l0,0l0,0l0,0l0,0l0,0l0,0l0,0l0,0l0,0l0,0l0,0l0,0l0,0h-0.1
				l-0.1,0.1h-0.1h-0.1h-0.1h-0.1h-0.1h-0.1h-0.1h-0.1H120h-0.1h-0.1h-0.1h-0.1h-0.1l0,0h-0.2l0,0h-0.1l0,0h-0.2l0,0h-0.2l0,0h-0.1
				l0,0h-0.1h-0.1h-0.2l0,0h-0.2h-2.1H116l0,0h-0.1l0,0h-0.2l0,0h-0.1l0,0h-0.2l-11.2,6.5l-2.8-0.1l-0.2-1.6v1.1l0.2,1.6l2.8,0.1
				l11.2-6.5h0.1H114h0.1l0,0h0.2h0.2h0.2l0,0h0.2h1.9h0.2l0,0h0.2h0.1h0.1h0.1h0.1l0,0h0.2l0,0h0.1l0,0h0.1l0,0h0.2l0,0h0.1l0,0
				h0.1h0.1h0.1h0.1h0.1h0.1h0.1h0.1h0.1l0.1-0.1h0.1h0.1l0,0l0.2-0.1h0.1l0,0l0,0l0,0h0.1l0,0l0,0h0.1l0,0l0,0l0,0l0,0l0,0l0,0l0,0
				l0,0l0,0l0,0l0,0l0.1-0.1l0,0l0.1-0.1l0,0l0.1-0.1l0,0c0,0,0.1,0,0.1-0.1l0,0l0,0l0,0l0,0l0,0l0,0l0,0l0,0l0,0l0,0l0,0l0,0l0,0
				l0,0l0,0v-0.1l0,0v-0.1l0,0l0,0l0,0V112l0,0v-1.4L121.2,110.5z"/>
			
				<linearGradient id="SVGID_8_" gradientUnits="userSpaceOnUse" x1="106.26" y1="35.85" x2="106.28" y2="35.85" gradientTransform="matrix(1 0 0 -1 0 150)">
				<stop  offset="0" style="stop-color:#2BAAE2"/>
				<stop  offset="0.33" style="stop-color:#063F61"/>
				<stop  offset="1" style="stop-color:#56558F"/>
			</linearGradient>
			<polygon class="st44" points="106.3,114.3 106.3,112.8 106.3,114 106.3,115.5 			"/>
			
				<linearGradient id="SVGID_9_" gradientUnits="userSpaceOnUse" x1="100.31" y1="32.44" x2="100.32" y2="32.44" gradientTransform="matrix(1 0 0 -1 0 150)">
				<stop  offset="0" style="stop-color:#2BAAE2"/>
				<stop  offset="0.33" style="stop-color:#063F61"/>
				<stop  offset="1" style="stop-color:#56558F"/>
			</linearGradient>
			<polygon class="st45" points="100.3,117.8 100.3,116.2 100.3,117.3 100.3,118.9 			"/>
			<path class="st2" d="M119.5,108.2c2.1,1.2,2.1,3.2,0,4.4c-1.8,0.9-3.8,1.2-5.8,0.7l-11.2,6.5l-2.8-0.1l-0.2-1.6l0.7-0.4v-1.6h2.7
				v-1.8h3l0.2-0.1v-1.5h2.6l1.9-1.1c-0.9-1.2-0.5-2.6,1.1-3.5C114.2,107,117.1,107,119.5,108.2z M116.6,109.9
				c0.6,0.3,1.3,0.3,1.9,0c0.3-0.1,0.5-0.4,0.4-0.7c-0.1-0.2-0.2-0.3-0.4-0.4c-0.6-0.3-1.3-0.3-1.9,0c-0.3,0.1-0.5,0.4-0.4,0.7
				C116.3,109.7,116.5,109.9,116.6,109.9"/>
		</g>
		<g class="st5">
			<path class="st6" d="M41.5,60.4L41.5,60.4L41.5,60.4L41.5,60.4c-4.7-2.6-12.1-2.6-16.6,0c-0.9,0.5-1.6,1.1-2.3,1.9l-0.1,0.2
				c-0.2,0.2-0.4,0.5-0.5,0.8c-0.1,0.1-0.1,0.2-0.1,0.3c0,0.1-0.1,0.1-0.1,0.2l-0.1,0.2c-0.3,0.9-0.3,1.9,0.1,2.8l0.1,0.2l0.1,0.2
				l0.1,0.2c0.1,0.1,0.1,0.2,0.2,0.3l0.1,0.2c0.2,0.4,0.5,0.7,0.8,1l0.3,0.3l0.2,0.1l0.2,0.1c0.3,0.3,0.7,0.5,1.1,0.7
				c4.6,2.7,12,2.7,16.6,0l0,0C46,67.3,46,63.1,41.5,60.4z"/>
			<path class="st16" d="M22.9,62.2c0.6-0.7,1.4-1.3,2.2-1.8c2-1.1,4.3-1.7,6.6-1.8c3.3-0.3,6.6,0.4,9.5,1.9h0.1l0,0
				c2.2,1.3,3.3,3,3.3,4.6s-1.1,3.3-3.3,4.6l0,0c-2.6,1.4-5.6,2.1-8.6,2c-2.7,0-5.3-0.7-7.7-1.9c-0.3-0.2-0.5-0.3-0.8-0.5
				c-0.1-0.1-0.2-0.1-0.3-0.2L23.8,69l-0.2-0.1l-0.3-0.3l-0.2-0.2L23,68.3L22.7,68c-0.1-0.1-0.2-0.2-0.3-0.3l-0.1-0.2
				c-0.1-0.1-0.1-0.2-0.2-0.3l-0.1-0.1l0,0V67l0,0L22,66.8v-0.1l0,0c0,0,0-0.1,0-0.1c0-0.1-0.1-0.1-0.1-0.2c0,0,0-0.1,0-0.1
				c-0.1-0.4-0.2-0.7-0.2-1.1c0-0.2,0-0.4,0-0.6c0,0,0-0.1,0-0.1v-0.1l0,0c0-0.1,0-0.1,0-0.2c0-0.1,0.1-0.3,0.1-0.4v-0.1v-0.1v-0.1
				l0.1-0.2l0.2-0.3c0.2-0.3,0.4-0.5,0.6-0.8L22.9,62.2z"/>
			<path class="st17" d="M23.3,62.1c0.7-0.7,1.4-1.2,2.2-1.7c2-1,4.2-1.6,6.5-1.7c3.2-0.3,6.4,0.4,9.2,1.9l0,0l0,0l0,0l0,0
				c2.1,1.2,3.2,2.9,3.2,4.5s-1.1,3.2-3.2,4.4l0,0c-2.6,1.4-5.5,2-8.4,1.9c-2.6,0-5.3-0.6-7.6-1.8c-0.3-0.2-0.5-0.3-0.8-0.5L24.2,69
				L24,68.9l-0.2-0.1l-0.3-0.3l-0.2-0.2l-0.1-0.2L23,67.9c-0.1-0.1-0.2-0.2-0.3-0.3l-0.1-0.1c-0.1-0.1-0.1-0.2-0.2-0.3L22.4,67l0,0
				v-0.1l0,0c0-0.1,0-0.1-0.1-0.1s0-0.1,0-0.1l0,0c0,0,0-0.1,0-0.1c0-0.1,0-0.1-0.1-0.2v-0.1c-0.1-0.3-0.2-0.7-0.2-1.1
				c0-0.2,0-0.4,0.1-0.6c0,0,0-0.1,0-0.1c0,0,0-0.1,0-0.1l0,0c0-0.1,0-0.1,0-0.2c0-0.1,0.1-0.3,0.1-0.4l0,0c0,0,0-0.1,0-0.1l0-0.1
				c0,0,0-0.1,0.1-0.2s0.1-0.2,0.2-0.3c0.2-0.3,0.4-0.5,0.6-0.8L23.3,62.1z"/>
			<path class="st18" d="M23.6,62.1c0.7-0.6,1.4-1.1,2.2-1.5c2-0.9,4.1-1.5,6.3-1.5c3.1-0.2,6.2,0.4,9,1.9l0,0l0,0h0.1
				c2,1.2,3.1,2.8,3.1,4.3c0,1.5-1.1,3-3.1,4.2l0,0c-2.6,1.4-5.4,2-8.3,1.9c-2.6,0-5.2-0.6-7.5-1.8c-0.3-0.1-0.5-0.3-0.7-0.4
				l-0.3-0.2l-0.2-0.1L24,68.7l-0.3-0.3l-0.2-0.1l-0.1-0.2c-0.1-0.1-0.2-0.2-0.3-0.3c-0.1-0.1-0.2-0.2-0.3-0.3l-0.1-0.1
				c-0.1-0.1-0.1-0.2-0.2-0.3c0,0,0-0.1-0.1-0.1l0,0v-0.1l0,0l-0.1-0.1l-0.1-0.1l0,0c0,0,0-0.1,0-0.1c0-0.1-0.1-0.1-0.1-0.2
				c0,0,0-0.1,0-0.1c-0.1-0.3-0.2-0.7-0.2-1c0-0.2,0-0.4,0.1-0.6v-0.1c0,0,0,0,0-0.1l0,0l0.1-0.2c0-0.1,0.1-0.3,0.2-0.4v-0.1
				l0.1-0.1c0,0,0,0,0-0.1l0.1-0.2l0.2-0.3c0.2-0.3,0.4-0.5,0.7-0.8L23.6,62.1z"/>
			<path class="st19" d="M24,62c0.7-0.6,1.4-1.1,2.2-1.4c1.9-0.9,4-1.4,6.1-1.5c3-0.2,6,0.4,8.7,1.8l0,0l0,0l0,0l0,0
				c2,1.2,3,2.7,3,4.1c0,1.5-1,2.9-3,4.1l0,0c-2.5,1.3-5.2,2-8,2c-2.6,0-5.1-0.6-7.4-1.7c-0.3-0.1-0.5-0.3-0.7-0.4l-0.3-0.2
				l-0.2-0.1l-0.2-0.1c-0.1-0.1-0.2-0.2-0.3-0.2l-0.1-0.1l-0.1-0.1l-0.3-0.3c-0.1-0.1-0.2-0.2-0.3-0.3L23,67.3l-0.2-0.3l-0.1-0.1
				l0,0v-0.1l0,0c0,0-0.1-0.1-0.1-0.1l0-0.1l0,0v-0.1c0-0.1-0.1-0.1-0.1-0.2c0,0,0-0.1,0-0.1c-0.1-0.3-0.2-0.7-0.2-1
				c0-0.2,0-0.4,0.1-0.6v-0.1c0,0,0-0.1,0-0.1l0,0l0.1-0.2c0.1-0.1,0.1-0.3,0.2-0.4v-0.1l0.1-0.1c0,0,0-0.1,0-0.1
				c0-0.1,0.1-0.1,0.1-0.2s0.1-0.2,0.2-0.3c0.2-0.3,0.5-0.5,0.7-0.8L24,62z"/>
			<path class="st20" d="M24.3,62c0.7-0.5,1.4-1,2.1-1.3c1.9-0.8,3.9-1.3,6-1.3c2.9-0.2,5.9,0.5,8.5,1.8l0,0l0,0l0,0
				c1.9,1.1,2.9,2.6,2.9,4s-1,2.8-2.9,3.9l0,0c-2.4,1.3-5.2,2-7.9,1.9c-2.5,0-5-0.6-7.2-1.7c-0.2-0.1-0.5-0.3-0.7-0.4l-0.3-0.2
				l-0.2-0.1l-0.2-0.1c-0.1-0.1-0.2-0.2-0.3-0.2L24,68.1L23.8,68l-0.2-0.3c-0.1-0.1-0.2-0.2-0.3-0.3c0,0-0.1-0.1-0.1-0.1L23,67
				c0,0,0-0.1-0.1-0.1l0,0l0-0.1l0,0l-0.1-0.1l-0.1-0.1l0,0l0-0.1c0-0.1,0-0.1-0.1-0.2s0-0.1,0-0.1c-0.1-0.3-0.2-0.7-0.2-1
				c0-0.2,0-0.5,0.1-0.7c0,0,0-0.1,0-0.1c0,0,0-0.1,0-0.1l0,0l0.1-0.2c0.1-0.1,0.1-0.3,0.2-0.4v-0.1l0.1-0.1l0.1-0.1l0.1-0.2
				l0.2-0.3c0.2-0.3,0.5-0.5,0.8-0.8L24.3,62z"/>
			<path class="st21" d="M24.7,62c0.7-0.5,1.4-0.9,2.1-1.2c1.9-0.8,3.8-1.2,5.8-1.2c2.8-0.1,5.7,0.5,8.2,1.8h0.1l0,0l0,0
				c1.8,1.1,2.8,2.5,2.8,3.8c0,1.3-1,2.7-2.8,3.8l0,0c-2.4,1.3-5.1,1.9-7.8,1.8c-2.5,0-4.9-0.5-7.1-1.6c-0.2-0.1-0.5-0.3-0.7-0.4
				l-0.3-0.2l-0.2-0.1l-0.2-0.1l-0.3-0.2L24.1,68L24,67.9c-0.1-0.1-0.2-0.2-0.3-0.2c-0.1-0.1-0.2-0.2-0.3-0.3l-0.1-0.1
				c-0.1-0.1-0.1-0.2-0.2-0.3l-0.1-0.1l0,0l0-0.1l0,0c0,0-0.1-0.1-0.1-0.1l-0.1-0.1l0,0v-0.1c0-0.1-0.1-0.1-0.1-0.2c0,0,0-0.1,0-0.1
				c-0.1-0.3-0.2-0.7-0.2-1c0-0.2,0-0.5,0.1-0.7c0,0,0-0.1,0-0.1v-0.1l0,0c0-0.1,0-0.1,0.1-0.2c0.1-0.1,0.1-0.3,0.2-0.4v-0.1
				l0.1-0.1l0.1-0.1l0.1-0.2c0.1-0.1,0.2-0.2,0.3-0.3c0.3-0.3,0.5-0.5,0.9-0.8L24.7,62z"/>
			<path class="st22" d="M25,61.9c0.7-0.4,1.4-0.8,2.1-1.1c1.8-0.7,3.7-1.1,5.7-1.1c2.8-0.1,5.5,0.5,7.9,1.8l0,0l0,0l0,0l0,0
				c1.8,1,2.7,2.3,2.7,3.6s-1,2.6-2.7,3.6l0,0c-2.4,1.3-5,1.9-7.7,1.8c-2.4,0-4.8-0.5-7-1.5c-0.2-0.1-0.5-0.2-0.7-0.4L25,68.4
				l-0.2-0.1l-0.2-0.1l-0.3-0.2l-0.1-0.1l-0.1-0.1L24,67.6c-0.1-0.1-0.2-0.2-0.3-0.3c0,0-0.1-0.1-0.1-0.1l-0.2-0.3l-0.1-0.1l0,0
				c0,0,0-0.1,0-0.1l0,0l-0.1-0.1l-0.1-0.1l0,0c0,0,0-0.1,0-0.1L23,66.2c0,0,0-0.1,0-0.1c-0.1-0.3-0.2-0.7-0.2-1
				c0-0.2,0-0.5,0.1-0.7c0-0.1,0-0.1,0-0.1v-0.1l0,0c0-0.1,0-0.1,0.1-0.2c0.1-0.2,0.2-0.3,0.2-0.4v-0.1l0.1-0.1l0.1-0.1
				c0-0.1,0.1-0.1,0.1-0.2c0.1-0.1,0.2-0.2,0.3-0.3c0.3-0.3,0.6-0.5,0.9-0.8L25,61.9z"/>
			<path class="st23" d="M25.4,61.9c0.7-0.4,1.3-0.7,2.1-1c1.8-0.6,3.6-1,5.5-1c2.7-0.1,5.3,0.5,7.7,1.8l0,0l0,0l0,0
				c1.7,1,2.6,2.2,2.6,3.5s-0.9,2.4-2.6,3.4h0c-2.3,1.2-4.9,1.8-7.6,1.8c-2.3,0.1-4.6-0.4-6.8-1.3c-0.2-0.1-0.5-0.2-0.7-0.4
				l-0.3-0.2l-0.2-0.1L25,68.2L24.7,68l-0.1-0.1l-0.1-0.1l-0.2-0.2l-0.3-0.3l-0.1-0.1l-0.2-0.2l-0.1-0.1l0,0l0-0.1l0,0
				c0,0-0.1-0.1-0.1-0.1l-0.1-0.1l0,0c0,0,0-0.1,0-0.1c0-0.1-0.1-0.1-0.1-0.2v-0.1c-0.1-0.3-0.2-0.6-0.2-0.9c0-0.2,0-0.5,0.1-0.7
				c0-0.1,0-0.1,0-0.2v-0.1l0,0c0-0.1,0.1-0.1,0.1-0.2c0.1-0.2,0.2-0.3,0.3-0.5v-0.1l0.1-0.1l0.1-0.1l0.1-0.2l0.3-0.3
				c0.3-0.3,0.6-0.5,1-0.8L25.4,61.9z"/>
			<path class="st24" d="M33.2,70.2c-2.6,0.1-5.2-0.6-7.5-1.8c-0.3-0.2-0.6-0.4-0.9-0.6l-0.1-0.1l-0.1-0.1l-0.2-0.2
				c-0.2-0.2-0.4-0.5-0.6-0.7c0,0,0-0.1-0.1-0.1l0,0l-0.1-0.2l-0.1-0.1c0,0-0.1-0.1-0.1-0.2L23.3,66c-0.1-0.3-0.2-0.6-0.2-0.9
				c0-0.3,0-0.5,0.1-0.8l0.1-0.2c0,0,0-0.1,0-0.1l0,0l0.1-0.2c0.1-0.2,0.2-0.4,0.3-0.5l0.1-0.1c0.5-0.6,1.1-1.1,1.8-1.5
				c2.3-1.2,4.8-1.8,7.4-1.8c2.6-0.1,5.1,0.5,7.4,1.7l0,0l0,0l0,0l0,0l0,0l0,0c1.6,1,2.5,2.2,2.5,3.3c0,1.2-0.9,2.3-2.5,3.3h-0.1
				C38.2,69.6,35.7,70.2,33.2,70.2z"/>
		</g>
		<path class="st46" d="M25.9,43.7l0.2,0.1h0.1l0.2,0.1l0,0l0.2,0.1h0h0.1h0.1H27H27h0.1l0,0h0.1l0,0l0.2,0l0,0h0.1l0,0l0.2,0.1l0,0
			H28l0,0h0.2h0h0.2l0,0h0.2l0,0h0.2l0,0H29h1.4h0.2l0,0h0.2l0,0h0.2h0.3h0.1l0,0h0.1l0,0h0.1l0,0h0.1l0,0h0.1l0,0h0.1l0,0h0.1l0,0
			h0.1l0,0H32l0,0h0.1l0,0h0.1l0,0l0,0l0,0h0.1l0,0h0h0.2l0,0l0,0l0,0l0,0l0,0v0.1l0,0l0,0l0,0l0,0l0,0l0,0l0,0l0,0l0,0l0,0l0,0l0,0
			v0.1l0,0v0.1l0,0v0.1l0,0v0.1l0,0v0.1l0,0v0.1l0,0l0.1,0.1l0,0v0.1l0,0l0.1,0.1l0,0l0.1,0.1l0,0l0,0l0,0l0.1,0.1l0,0l0.1,0.2l0,0
			c0,0.1,0.1,0.1,0.1,0.1v0l0.1,0.1v0.1l0.1,0.1v0l0.1,0.2l0,0l0.1,0.2V46l0.1,0.1l0,0l0,0l0.1,0.1v0.1l0.1,0.1l0,0.1l0.1,0.1l0,0
			c0,0,0.1,0.1,0.1,0.2l0,0l0.1,0.1l0,0.1l0.1,0.1l0,0.1l0.1,0.1l0.1,0.1l0.1,0.1l0,0l0,0l0.1,0.1l0,0.1l0.1,0.2l0,0l0.2,0.2V48
			l0.1,0.1l0.1,0.1l0.1,0.1l0.1,0.1l0.1,0.1l0.1,0.1l0.1,0.1l0.1,0.1l0.2,0.2l0,0l0,0l0,0L38,50l0.1,0.1l0.1,0.1l0.1,0.1l0.1,0.1
			l0.1,0.1l0.1,0.1l0.1,0.1l0.1,0.1l0.1,0.1l0.1,0.1l0.1,0.1l0.1,0.1l0,0.1l0.1,0.1l0.1,0.1l0.1,0.1l0.1,0.1l0.1,0.1l0.1,0.1
			l0.1,0.1l0.1,0.1l0.1,0.1l0.1,0.1l0.1,0.1l0.1,0.1l0.1,0.1h0.1l0.2,0.1v7.5v0.4c0,0.1,0,0.1,0,0.2v0.1c0,0.1,0,0.1,0,0.2v0.1
			c0,0.1,0,0.2,0,0.2l0,0c0,0.1,0,0.1,0,0.2v0.1v0.2v0.1c0,0.1,0,0.1,0,0.2v0.1c0,0.1,0,0.1-0.1,0.2l0,0l-0.1,0.2v0.1L40,62v0.1
			l-0.1,0.1l0,0l-0.1,0.2l0,0l-0.1,0.1v0.1l-0.1,0.1l0,0l-0.1,0.1l0,0L39.5,63l0,0l-0.1,0.1l0,0c0,0,0,0.1-0.1,0.1l0,0l-0.1,0.1l0,0
			l-0.1,0.1l0,0L39,63.5l0,0l-0.1,0.1l0,0l-0.1,0.1l0,0l-0.1,0.1h0l-0.1,0.1h0c-1.5,0.8-3.2,1-4.9,0.8c-0.4-0.4-7.2-7.4-7.2-14
			L25.9,43.7z"/>
		<path class="st35" d="M27.7,42.6l0.2,0.1H28l0.2,0.1l0,0l0.2,0.1l0,0h0.1h0.1h0.1h0.1h0.1h0h0.1l0,0h0.2l0,0h0.1l0.2,0.1l0,0h0.2
			l0,0H30h0h0.2l0,0h0.2h0h0.2h1.4h0.2l0,0h0.2l0,0h0.2l0,0h0.2l0,0H33l0,0H33h0.2h0.1l0,0h0.1l0,0h0.1l0,0h0.1h0.1h0.1l0,0h0.1l0,0
			h0.1l0,0h0.1l0,0H34l0,0h0l0,0h0.1l0,0l0,0H35l0,0l0,0l0,0l0,0l0,0v0l0,0l0,0l0,0l0,0l0,0l0,0l0,0l0,0l0,0l0,0l0,0v0.1l0,0v0.1
			l0,0v0.1l0,0l0.1,0.1l0,0v0.1l0,0l0,0.1l0,0l0.1,0.1l0,0v0.1l0,0l0.1,0.1l0,0l0.1,0.1l0,0v0.1l0.1,0.1l0,0c0,0.1,0.1,0.1,0.1,0.2
			l0,0c0,0.1,0.1,0.1,0.1,0.2v0l0.1,0.1l0,0l0.1,0.1l0,0l0.1,0.2l0,0l0.1,0.2v0l0.1,0.1v0.1l0.1,0.1v0.1l0.1,0.1l0,0
			c0,0,0.1,0.1,0.1,0.1l0,0l0.1,0.2v0l0.1,0.1V46l0.1,0.1l0,0.1l0.1,0.1l0.1,0.1l0.1,0.1l0.1,0.1l0.1,0.1l0,0.1l0.1,0.2l0,0l0.2,0.2
			h0l0.1,0.1l0.1,0.1l0.1,0.1l0.1,0.1l0.1,0.1l0.1,0.1l0.1,0.1l0.1,0.1l0.2,0.2l0,0l0,0l0.1,0.1l0.1,0.1l0.1,0.1l0.1,0.1l0.1,0.1
			l0.1,0.1l0.1,0.1l0.1,0.1l0.1,0.1l0.1,0.1l0.1,0.1l0.1,0.1l0.1,0.1l0.1,0.1l0.1,0.1l0.1,0.1l0.1,0.1l0.1,0.1l0.1,0.1l0.1,0.1
			c0,0,0.1,0.1,0.1,0.1l0.1,0.1l0.1,0.1h0.1l0.1,0.1l0.1,0l0.1,0.1h0.1l0.2,0.1v7.5c0,2.6-1.1,4-2.4,4.8l-1.8,1l0,0h0l0.1-0.1h0
			l0.1-0.1l0,0l0.1-0.1l0,0l0.1-0.1l0,0l0.1-0.1l0,0l0.1-0.1l0,0l0.1-0.1l0,0c0,0,0.1-0.1,0.1-0.1l0,0l0.1-0.1l0,0l0.1-0.2l0,0
			l0.1-0.1l0,0l0.1-0.1v-0.1l0.1-0.1l0,0l0.1-0.2l0,0l0.1-0.1L40,62v-0.1v-0.1l0.1-0.2l0,0c0-0.1,0.1-0.1,0.1-0.2v-0.1
			c0,0,0-0.1,0-0.2v-0.1V61v-0.1c0-0.1,0-0.1,0-0.2l0,0c0-0.1,0-0.2,0-0.2v-0.1c0-0.1,0-0.1,0-0.2V60c0-0.1,0-0.1,0-0.2v-0.4V52
			L40,51.9h-0.1l-0.1-0.1l0.2-0.1l-0.1-0.1l-0.1-0.1l-0.1-0.1l-0.1-0.1l-0.1-0.1l-0.1-0.1l-0.1-0.1l-0.1-0.1l-0.1-0.1L39.1,51H39
			l-0.1-0.1l-0.1-0.1l-0.1-0.1l-0.1-0.1l-0.1-0.1l-0.1-0.1l-0.1-0.1l-0.1-0.1l-0.1-0.1l-0.1-0.1l-0.1-0.1L38,50.1l0-0.1l-0.1-0.1
			l0,0l0,0l0,0l-0.2-0.2l-0.1-0.1l-0.1-0.1l-0.1-0.1l-0.1-0.1l-0.1-0.1l-0.1-0.1l-0.1-0.1L37,49V49l-0.2-0.2l0,0l-0.1-0.2l0-0.1
			l-0.1-0.1l0,0l0,0l-0.1-0.1l-0.1-0.1L36.1,48l0-0.1L36,47.8l0-0.1l-0.1-0.1l0,0c0-0.1-0.1-0.1-0.1-0.2l0,0l-0.1-0.1l0-0.1
			l-0.1-0.1v-0.1L35.4,47l0,0l0,0l-0.1-0.1v-0.1l-0.1-0.2l0,0L35,46.5v0l-0.1-0.1v-0.1L34.6,46v0c0,0-0.1-0.1-0.1-0.1l0,0l-0.1-0.2
			l0,0l-0.1-0.1l0,0l0,0l0,0l-0.1-0.1l0,0L34,45.2l0,0v-0.1l0,0L33.8,45l0,0v-0.1l0,0v-0.1l0,0v-0.1l0,0v-0.1l0,0v-0.1l0,0v-0.1l0,0
			l0,0l0,0l0,0l0,0l0,0l0,0l0,0l0,0l0,0l0,0l0,0v-0.1l0,0l0,0l0,0l0,0l0,0H33h0l0,0h-0.1l0,0l0,0l0,0h-0.1l0,0h-0.1l0,0h-0.1l0,0
			h-0.1l0,0h-0.1l0,0h-0.1l0,0h-0.1l0,0h-0.1l0,0h-0.1l0,0h-0.1l0,0h-0.1h-0.3h-0.2l0,0h-0.2l0,0h-0.2h-1.8h-0.2l0,0H29l0,0h-0.2
			l0,0h-0.2h0h-0.2l0,0h-0.2l0,0l-0.2-0.1l0,0h-0.1l0,0l-0.2,0l0,0h-0.1l0,0h-0.1h-0.1h-0.1h-0.1H27h0l-0.2-0.1l0,0l-0.2-0.1h-0.1
			l-0.2-0.1L27.7,42.6z"/>
		<path class="st34" d="M36.8,49.7l-0.2-0.3c-0.4-0.4-0.7-0.8-1-1.2s-0.6-0.8-0.9-1.1c-0.1-0.1-0.1-0.2-0.2-0.2l-0.2-0.2
			c-0.3-0.4-0.6-0.8-0.9-1.2l-0.1-0.1c-0.1-0.2-0.2-0.3-0.3-0.5c-2.2,0.7-4.5,0.6-6.7-0.3v6.9c0,2.7,1.3,5.5,2.8,7.9
			c1.1,1.8,2.4,3.4,3.8,4.9c1.1,0.1,2.2,0,3.3-0.4c0.9-0.3,1.7-0.8,2.4-1.5c0.7-1,1.1-2.1,1-3.3v-6.8C38.6,51.4,37.7,50.6,36.8,49.7
			z"/>
		<g>
			
				<radialGradient id="SVGID_10_" cx="30.4" cy="97.66" r="12.25" gradientTransform="matrix(1 0 0 -1 0 150)" gradientUnits="userSpaceOnUse">
				<stop  offset="0" style="stop-color:#3DB54A"/>
				<stop  offset="1" style="stop-color:#046938"/>
			</radialGradient>
			<path class="st47" d="M38.9,53.1L38.9,53.1L38.9,53.1L38.9,53.1L38.9,53.1L38.9,53.1L38.9,53.1L38.9,53.1L38.9,53.1L38.9,53.1
				L38.9,53.1L38.9,53.1L38.9,53.1L38.9,53.1L38.9,53.1L38.9,53.1L38.9,53.1L38.9,53.1L38.9,53.1L38.9,53.1L38.9,53.1L38.9,53.1
				L38.9,53.1L38.9,53.1L38.9,53.1L38.9,53.1L38.9,53.1h-0.4L31.9,56l-1.6-3.7l0,0l0,0l0,0l0,0l0,0l0,0l0,0l0,0l0,0l0,0l0,0l0,0l0,0
				l0,0h-0.4l0,0l-0.4,0.2l0,0h0.2h0.1l0,0l0,0l0,0l0,0l0,0l0,0l0,0l0,0l0,0l0,0l0,0l0,0l0,0l0,0l0,0l0,0l0,0l0,0l0,0l0,0l0,0l0,0
				l1.6,3.7l6.3-3.6l0,0H38l0,0l0,0l0,0l0,0l0,0l0,0l0,0l0,0l0,0l0,0l0,0l0,0l0,0l0,0l0,0l0,0c0,0,0,0,0,0l0,0l0,0l0,0l0,0l0,0l0,0
				l0,0l0,0l0,0l0,0l0,0l0,0l0,0l0,0l0,0l0,0l0,0l0,0l0,0l0,0l0,0l0,0l0,0l0,0l0,0l0,0l0,0l0,0l0,0l0,0l0.4-0.2l0,0l0,0l0,0l0,0l0,0
				l0,0l0,0l0,0l0,0l0,0l0,0l0,0l0,0l0,0l0,0L38.9,53.1z"/>
			<path class="st6" d="M38.2,52.6c0.1,0.1,0.2,0.2,0.3,0.3c0.2,0.3,0.2,0.5,0,0.6l-6.7,3.8c-0.1,0-0.2,0-0.3,0l0,0
				c-0.1-0.1-0.2-0.2-0.3-0.3l-1.9-4.4c-0.1-0.3-0.1-0.5,0.1-0.5c0.1,0,0.1,0,0.2,0c0.1,0.1,0.2,0.2,0.3,0.4l1.6,3.7l6.3-3.6
				C38,52.5,38.1,52.6,38.2,52.6z"/>
		</g>
		<g>
			
				<linearGradient id="SVGID_11_" gradientUnits="userSpaceOnUse" x1="76.7512" y1="23.9504" x2="77.3012" y2="22.3104" gradientTransform="matrix(1 0 0 -1 0 150)">
				<stop  offset="0" style="stop-color:#C7EAF7"/>
				<stop  offset="1" style="stop-color:#2BAAE2"/>
			</linearGradient>
			<polygon class="st48" points="78.5,125 78.5,127.4 75.6,129.1 75.6,126.7 			"/>
			<polygon class="st49" points="75.6,126.7 75.6,129.1 72.7,127.4 72.8,125 			"/>
			<polygon class="st6" points="78.5,125 75.6,126.7 72.8,125 75.6,123.3 			"/>
		</g>
		<g>
			
				<linearGradient id="SVGID_12_" gradientUnits="userSpaceOnUse" x1="80.4112" y1="119.7604" x2="80.9612" y2="118.1204" gradientTransform="matrix(1 0 0 -1 0 150)">
				<stop  offset="0" style="stop-color:#C7EAF7"/>
				<stop  offset="1" style="stop-color:#2BAAE2"/>
			</linearGradient>
			<polygon class="st50" points="82.2,29.2 82.2,31.6 79.3,33.3 79.3,30.9 			"/>
			
				<linearGradient id="SVGID_13_" gradientUnits="userSpaceOnUse" x1="78.3046" y1="119.7579" x2="77.5046" y2="118.0179" gradientTransform="matrix(1 0 0 -1 0 150)">
				<stop  offset="0" style="stop-color:#03293A"/>
				<stop  offset="1" style="stop-color:#51518D"/>
			</linearGradient>
			<polygon class="st51" points="79.3,30.9 79.3,33.3 76.4,31.6 76.4,29.2 			"/>
			<polygon class="st6" points="82.2,29.2 79.3,30.9 76.4,29.2 79.3,27.5 			"/>
		</g>
		<g>
			
				<linearGradient id="SVGID_14_" gradientUnits="userSpaceOnUse" x1="137.4712" y1="108.4704" x2="138.0212" y2="106.8304" gradientTransform="matrix(1 0 0 -1 0 150)">
				<stop  offset="0" style="stop-color:#C7EAF7"/>
				<stop  offset="1" style="stop-color:#2BAAE2"/>
			</linearGradient>
			<polygon class="st52" points="139.2,40.5 139.2,42.9 136.4,44.5 136.4,42.1 			"/>
			<polygon class="st49" points="136.4,42.1 136.4,44.5 133.5,42.9 133.5,40.5 			"/>
			<polygon class="st2" points="139.2,40.5 136.4,42.1 133.5,40.5 136.4,38.8 			"/>
		</g>
		<g>
			<g>
				<polygon class="st49" points="18.1,46.6 18.1,49 15.2,50.7 15.2,48.2 				"/>
			</g>
			<g>
				<polygon class="st49" points="15.2,48.2 15.2,50.7 12.4,49 12.4,46.6 				"/>
			</g>
			<polygon class="st2" points="18.1,46.6 15.2,48.2 12.4,46.6 15.2,44.9 			"/>
		</g>
		<g>
			
				<linearGradient id="SVGID_15_" gradientUnits="userSpaceOnUse" x1="13.2212" y1="50.0004" x2="13.7712" y2="48.3604" gradientTransform="matrix(1 0 0 -1 0 150)">
				<stop  offset="0" style="stop-color:#C7EAF7"/>
				<stop  offset="1" style="stop-color:#2BAAE2"/>
			</linearGradient>
			<polygon class="st53" points="15,98.9 15,101.3 12.1,103 12.1,100.6 			"/>
			<polygon class="st49" points="12.1,100.6 12.1,103 9.2,101.3 9.2,98.9 			"/>
			<polygon class="st6" points="15,98.9 12.1,100.6 9.2,98.9 12.1,97.3 			"/>
		</g>
		
			<linearGradient id="SVGID_16_" gradientUnits="userSpaceOnUse" x1="3" y1="68.2607" x2="18.51" y2="68.2607" gradientTransform="matrix(1 0 0 -1 0 150)">
			<stop  offset="0" style="stop-color:#2BAAE2"/>
			<stop  offset="1" style="stop-color:#70CDDD"/>
		</linearGradient>
		<path class="st54" d="M3,82L3,82L3,82L3,82L3,82L3,82L3,82v0.1l0,0l0,0l0,0l0,0l0,0l0,0l0,0l0,0l0,0l0,0l0,0l0,0l0,0l0,0l0,0h0
			l6.4,3.4h0.1l0,0h0.1l0,0h0.1l0,0h0.1h1h0.1h0.1H11h0.1l0,0h0.1l0,0h0.1l6.3-3.4h0l0,0l0,0l0,0l0,0l0,0l0,0l0,0l0,0l0,0l0,0l0,0
			l0,0l0,0l0,0l0,0l0,0l0,0l0,0l0,0l0,0l0,0l0,0l0,0l0,0l0,0l0,0c0-0.2-0.1-0.4-0.4-0.5l-6.4-3.4c-0.6-0.3-1.4-0.3-2,0l-5.5,3.2
			C3.2,81.5,3,81.7,3,82L3,82z"/>
		<path class="st55" d="M18.5,82L18.5,82L18.5,82L18.5,82L18.5,82L18.5,82L18.5,82L18.5,82L18.5,82L18.5,82L18.5,82L18.5,82L18.5,82
			L18.5,82L18.5,82L18.5,82L18.5,82L18.5,82L18.5,82L18.5,82L18.5,82L18.5,82L18.5,82L18.5,82L18.5,82L18.5,82L18.5,82L18.5,82
			l-6.4,3.4H12l0,0h-0.1l0,0h-0.1h-0.1h-0.1h-0.1h-1h-0.1l0,0h-0.1l0,0h-0.1l0,0h-0.1L3.8,82h0l0,0l0,0l0,0l0,0l0,0l0,0l0,0l0,0l0,0
			l0,0l0,0l0,0l0,0l0,0l0,0v-0.1l0,0l0,0H3V82l0,0l0,0l0,0v0.3c0,0.2,0.2,0.4,0.4,0.5l6.4,3.3h0.1l0,0H10l0,0h0.1h0.1h0.1h1.1h0.1
			h0.1h0.1l0,0h0.1l0,0h0.1l6.4-3.4h0.1l0,0l0,0l0,0l0,0l0,0l0,0l0,0l0,0l0,0l0,0l0,0l0,0l0,0v-0.1l0,0l0,0l0,0v-0.1l0,0V82H18.5z"
			/>
		<path class="st2" d="M131.5,98.7L131.5,98.7L131.5,98.7V99l0,0l0,0l0,0l0,0l0,0l0,0l0,0l0,0l0,0l0,0l0,0l0,0l0,0l0,0l0,0h0.1
			l6.4,3.7h0.1l0,0h0.1l0,0h0.1l0,0h0.1h0.1h0.1h0.6h0.1h0.1h0.1l0,0h0.1h0.1l0,0h0.1l0,0h0.1l6.4-3.7h0.1l0,0l0,0l0,0l0,0l0,0l0,0
			l0,0l0,0l0,0l0,0l0,0l0,0l0,0l0,0l0,0l0,0l0,0l0,0l0,0l0,0l0,0l0,0l0,0l0,0l0,0l0,0l0,0l0,0l0,0c0-0.3-0.2-0.5-0.4-0.6l-6.4-3.7
			c-0.6-0.3-1.4-0.3-2,0l-6.4,3.7c-0.2,0.1-0.4,0.3-0.4,0.6l0,0L131.5,98.7z"/>
		<path class="st55" d="M147,98.7L147,98.7L147,98.7L147,98.7L147,98.7L147,98.7L147,98.7L147,98.7L147,98.7L147,98.7L147,98.7
			L147,98.7L147,98.7L147,98.7L147,98.7L147,98.7L147,98.7L147,98.7L147,98.7L147,98.7L147,98.7L147,98.7L147,98.7L147,98.7
			L147,98.7L147,98.7L147,98.7L147,98.7L147,98.7L147,98.7L147,98.7l-6.4,3.7h-0.1l0,0h-0.1l0,0h-0.1h-0.1l0,0h-0.1h-0.1H140h-0.6
			h-0.1h-0.1h-0.1l0,0H139l0,0h-0.1l0,0h-0.1l-6.4-3.7h-0.1l0,0l0,0l0,0l0,0l0,0l0,0l0,0l0,0l0,0l0,0l0,0l0,0l0,0l0,0l0,0v-0.1l0,0
			v-0.1l0,0V99c0,0.2,0.2,0.5,0.4,0.6l6.4,3.7l0.1,0.1l0,0h0.1l0,0h0.1l0,0h0.1h1.1l0,0h0.1l0,0h0.1l0,0h0.1l0,0h0.1l6.4-3.7h0.1
			l0,0l0,0l0,0l0,0l0,0l0,0l0,0l0,0l0,0l0,0l0,0l0,0l0,0l0,0l0,0v-0.1l0,0v-0.1l0,0V99l0,0v-0.3L147,98.7z"/>
		<path class="st2" d="M116.8,136v0.1l0,0v0.1l0,0l0,0l0,0l0,0l0,0l0,0l0,0l0,0l0,0l0,0l0,0l0,0l0,0l0,0h0.1l6.4,3.7l0.1,0.1l0,0
			h0.1l0,0h0.1l0,0h0.1l0,0h0.1h0.9h0.1l0,0h0.1h0.1l0,0h0.1l0,0l0.1-0.1l6.4-3.7l0,0l0,0l0,0h0.1l0,0l0,0l0,0l0,0l0,0l0,0l0,0l0,0
			l0,0l0,0l0,0l0,0l0,0l0,0l0,0l0,0l0,0l0,0l0,0l0,0c0-0.3-0.2-0.5-0.4-0.6l-6.4-3.7c-0.6-0.3-1.4-0.3-2,0l-6.4,3.7
			c-0.2,0.1-0.4,0.3-0.4,0.6l0,0L116.8,136z"/>
		<path class="st55" d="M132.4,136L132.4,136L132.4,136L132.4,136L132.4,136L132.4,136L132.4,136L132.4,136L132.4,136L132.4,136
			L132.4,136L132.4,136L132.4,136L132.4,136L132.4,136L132.4,136L132.4,136L132.4,136L132.4,136L132.4,136L132.4,136L132.4,136
			L132.4,136L132.4,136L132.4,136l-6.4,3.7l-0.1,0.1l0,0h-0.1l0,0h-0.1h-0.1l0,0h-0.1h-0.9h-0.1l0,0h-0.1l0,0h-0.1l0,0h-0.1l0,0
			l-0.1-0.1l-6.4-3.7h-0.1l0,0l0,0l0,0l0,0l0,0l0,0l0,0l0,0l0,0l0,0l0,0l0,0l0,0l0,0v-0.1l0,0v0.1l0,0v0.3c0,0.3,0.2,0.5,0.4,0.6
			l6.4,3.7l0.1,0.1l0,0h0.1l0,0h0.1l0,0h0.1h1.1l0,0h0.1l0,0h0.1l0,0h0.1l0,0h0.1l6.3-3.7H132l0,0l0,0l0,0l0,0l0,0l0,0l0,0l0,0l0,0
			l0,0l0,0l0,0l0,0l0,0l0,0v-0.1l0,0v-0.1l0,0l0,0l0,0l0,0l0,0V136H132.4z"/>
		
			<linearGradient id="SVGID_17_" gradientUnits="userSpaceOnUse" x1="19.25" y1="115.3783" x2="34.76" y2="115.3783" gradientTransform="matrix(1 0 0 -1 0 150)">
			<stop  offset="0" style="stop-color:#2BAAE2"/>
			<stop  offset="1" style="stop-color:#70CDDD"/>
		</linearGradient>
		<path class="st56" d="M19.3,34.9L19.3,34.9L19.3,34.9v0.2l0,0l0,0l0,0l0,0l0,0l0,0l0,0l0,0l0,0l0,0l0,0l0,0l0,0l0,0l0,0l0,0
			l6.4,3.7l0.1,0.1l0,0h0.1l0,0h0.1l0,0H26l0,0h0.1H27H27h0h0.1h0.1l0,0c0,0,0.1,0,0.1,0l0,0h0.1l6.4-3.7h0l0,0l0,0h0.1l0,0l0,0l0,0
			l0,0l0,0l0,0l0,0l0,0l0,0l0,0l0,0l0,0l0,0l0,0l0,0l0,0l0,0l0,0l0,0l0,0c0-0.3-0.2-0.5-0.4-0.6l-5.5-4c-0.6-0.3-1.4-0.3-2,0
			l-6.4,3.7C19.4,34.4,19.3,34.6,19.3,34.9L19.3,34.9L19.3,34.9z"/>
		<path class="st55" d="M34.8,34.9L34.8,34.9L34.8,34.9L34.8,34.9L34.8,34.9L34.8,34.9L34.8,34.9L34.8,34.9L34.8,34.9L34.8,34.9
			L34.8,34.9L34.8,34.9L34.8,34.9L34.8,34.9L34.8,34.9L34.8,34.9L34.8,34.9L34.8,34.9L34.8,34.9L34.8,34.9L34.8,34.9L34.8,34.9
			L34.8,34.9L34.8,34.9h-0.1L28,39.1h-0.1l0,0c0,0-0.1,0-0.1,0l0,0h-0.1h-0.1h0h-0.1h-0.9h-0.1l0,0h-0.1l0,0h-0.1l0,0h-0.1l0,0
			l-0.1-0.1l-6.4-3.7l0,0l0,0l0,0l0,0l0,0l0,0l0,0l0,0l0,0l0,0l0,0l0,0l0,0l0,0l0,0l0,0V35l0,0v-0.2l0,0v0.3c0,0.2,0.2,0.5,0.4,0.6
			l6.4,3.7l0.1,0l0,0h0.1l0,0h0.1h0H27H28h0h0.1l0,0h0.1l0,0h0.1l0,0h0.1l6.4-3.7h0l0,0l0,0l0,0l0,0l0,0l0,0l0,0l0,0l0,0l0,0l0,0
			l0,0l0,0l0,0l0,0v-0.1l0,0v-0.1l0,0l0,0l0,0l0,0l0,0L34.8,34.9L34.8,34.9z"/>
		
			<linearGradient id="SVGID_18_" gradientUnits="userSpaceOnUse" x1="103.9" y1="107.9527" x2="119.41" y2="107.9527" gradientTransform="matrix(1 0 0 -1 0 150)">
			<stop  offset="0" style="stop-color:#2BAAE2"/>
			<stop  offset="1" style="stop-color:#70CDDD"/>
		</linearGradient>
		<path class="st57" d="M103.9,42.1L103.9,42.1L103.9,42.1v0.2l0,0l0,0l0,0l0,0l0,0l0,0l0,0l0,0l0,0l0,0l0,0l0,0l0,0l0,0l0,0l0,0
			l0,0l6.4,3.7h0.1l0,0h0.1l0,0h0.1l0,0h0.1h0.1h0.1h1.2h0.1h0.1h0.1h0.1h0.1h0.1l0,0h0.1l0,0h0.1l6.3-3.4l0,0h0.1l0,0l0,0l0,0l0,0
			l0,0l0,0l0,0l0,0l0,0l0,0l0,0l0,0l0,0l0,0l0,0l0,0l0,0l0,0l0,0l0,0l0,0l0,0l0,0l0,0c0-0.3-0.2-0.5-0.4-0.6l-6.4-3.7
			c-0.6-0.3-1.4-0.3-2,0L103.9,42.1c-0.2,0-0.4,0.3-0.4,0.5l0,0L103.9,42.1z"/>
		<path class="st55" d="M119.4,42.1L119.4,42.1L119.4,42.1L119.4,42.1L119.4,42.1L119.4,42.1L119.4,42.1L119.4,42.1L119.4,42.1
			L119.4,42.1L119.4,42.1L119.4,42.1L119.4,42.1L119.4,42.1L119.4,42.1L119.4,42.1L119.4,42.1L119.4,42.1L119.4,42.1L119.4,42.1
			L119.4,42.1L119.4,42.1L119.4,42.1L119.4,42.1L119.4,42.1L119.4,42.1L119.4,42.1l-6.4,3.7h-0.1l0,0h-0.1l0,0h-0.1h-0.1h-0.1h-0.1
			h-0.1h-0.1h-0.6h-0.1h-0.1h-0.1l0,0h-0.1l0,0h-0.1l0,0h-0.1l-6.4-3.7l0,0l0,0l0,0l0,0l0,0l0,0l0,0l0,0l0,0l0,0l0,0l0,0l0,0l0,0
			l0,0l0,0l0,0v-0.1l0,0v-0.1l0,0v0.3c0,0.3,0.2,0.5,0.4,0.6l6.4,3.7l0.1,0.1l0,0h0.1l0,0h0.1l0,0h0.1h1.1h0.1h0.1l0,0h0.1l0,0h0.1
			l0,0l0.1,0l5.6-3.5l0,0l0,0l0,0l0,0l0,0l0,0l0,0l0,0l0,0l0,0l0,0l0,0l0,0l0,0l0,0l0,0l0,0v-0.1l0,0v-0.1l0,0v-0.1l0,0v-0.3
			L119.4,42.1z"/>
	</g>
</g>
</svg>
