<svg xmlns="http://www.w3.org/2000/svg" version="1.1" xmlns:xlink="http://www.w3.org/1999/xlink" xmlns:svgjs="http://svgjs.dev/svgjs" width="1000" height="1000" viewBox="0 0 1000 1000"><rect width="1000" height="1000" fill="#ffffff"></rect><g transform="matrix(0.7,0,0,0.7,149.575758996417,334.13269125746996)"><svg viewBox="0 0 396 188" data-background-color="#ffffff" preserveAspectRatio="xMidYMid meet" height="474" width="1000" xmlns="http://www.w3.org/2000/svg" xmlns:xlink="http://www.w3.org/1999/xlink"><g id="tight-bounds" transform="matrix(1,0,0,1,0.23999919631268085,-0.01852307535969544)"><svg viewBox="0 0 395.52 188.0370461507194" height="188.0370461507194" width="395.52"><g><svg viewBox="0 0 685.1611931127912 325.7374769671114" height="188.0370461507194" width="395.52"><g><svg viewBox="0 0 685.1611931127912 325.7374769671114" height="325.7374769671114" width="685.1611931127912"><g><svg viewBox="0 0 685.1611931127912 325.7374769671114" height="325.7374769671114" width="685.1611931127912"><g><svg viewBox="0 0 685.1611931127912 245.672304" height="245.672304" width="685.1611931127912"><g><svg><g></g><g></g></svg></g><g><svg><g><svg></svg></g><g></g></svg></g><g id="text-0"><svg viewBox="0 0 685.1611931127912 245.672304" height="245.672304" width="685.1611931127912"><g transform="matrix(1,0,0,1,0,65.98636264462809)"><svg width="245.672304" viewBox="3.299999952316284 -35.70000076293945 78.63999938964844 36.400001525878906" height="113.69957871074381" data-palette-color="#9f0ebb"><path d="M3.3 0L3.3-35 8.95-35 21.8-11.05 21.8-35 27-35 27 0 22.3 0 8.55-25.4 8.55 0 3.3 0ZM47.85 0.7Q43 0.7 39.37-1.6 35.75-3.9 33.77-8.03 31.8-12.15 31.8-17.5L31.8-17.5Q31.8-22.95 33.87-27.08 35.95-31.2 39.62-33.45 43.3-35.7 47.9-35.7L47.9-35.7Q52.25-35.7 55.85-34.15L55.85-34.15 55.25-29.05Q53.55-29.85 51.97-30.25 50.4-30.65 48.5-30.65L48.5-30.65Q43.35-30.65 40.47-27.03 37.6-23.4 37.6-17.5L37.6-17.5Q37.6-11.45 40.32-7.9 43.05-4.35 48.25-4.35L48.25-4.35Q50.1-4.35 51.6-4.9L51.6-4.9 51.6-12.75 47.35-12.75 47.35-17.55 56.85-17.55 56.85-1.7Q55.15-0.6 52.8 0.05 50.45 0.7 47.85 0.7L47.85 0.7ZM68.14 0L68.14-30.2 59.55-30.2 59.55-35 81.94-35 81.94-30.2 73.34-30.2 73.34 0 68.14 0Z" opacity="1" transform="matrix(1,0,0,1,0,0)" fill="#9f0ebb" class="undefined-k-0"></path></svg></g><g><svg xmlns="http://www.w3.org/2000/svg" xmlns:xlink="http://www.w3.org/1999/xlink" version="1.1" x="259.577104" y="0" viewBox="7 7 114 114" style="enable-background:new 0 0 128 128;" xml:space="preserve" height="245.672304" width="245.672304" class="icon-s-0" data-fill-palette-color="accent" id="s-0"><g fill="#6f2e78" data-fill-palette-color="accent"><g fill="#6f2e78" data-fill-palette-color="accent"><path d="M85.1 70.1v-9.8h-4.3c-0.4-1.4-0.9-2.7-1.6-4l3-3-6.9-6.9-3 3.1c-1.3-0.7-2.6-1.3-4-1.6v-4.3h-9.8v4.3c-1.4 0.4-2.7 0.9-4 1.6l-3-3-6.9 6.9 3 3c-0.7 1.3-1.3 2.6-1.6 4h-4.3v9.8h4.3c0.4 1.4 0.9 2.7 1.6 4l-3 3 6.9 6.9 3-3c1.3 0.7 2.6 1.3 4 1.6V87h9.8v-4.3c1.4-0.4 2.7-0.9 4-1.6l3 3 6.9-6.9-3-3c0.7-1.3 1.3-2.6 1.6-4H85.1zM63.4 77.3c-6.6 0-12-5.4-12-12 0-6.6 5.4-12 12-12s12 5.4 12 12C75.4 71.9 70 77.3 63.4 77.3z" fill="#6f2e78" data-fill-palette-color="accent"></path><path d="M34.7 75.4c-0.6 0-1.1-0.4-1.2-0.9-0.9-3-1.4-6.1-1.4-9.2 0-15.4 11-28.3 26.1-30.8 0.7-0.1 1.4 0.4 1.5 1.1 0.1 0.7-0.4 1.4-1.1 1.5-13.9 2.3-24 14.2-24 28.3 0 2.9 0.4 5.7 1.3 8.4 0.2 0.7-0.2 1.4-0.9 1.6C35 75.3 34.9 75.4 34.7 75.4z" fill="#6f2e78" data-fill-palette-color="accent"></path><path d="M63.4 96.5c-9.2 0-18-4.1-23.9-11.1-0.5-0.5-0.4-1.4 0.2-1.8 0.5-0.5 1.4-0.4 1.8 0.2 5.5 6.5 13.5 10.2 21.9 10.2 8.3 0 16.3-3.6 21.7-9.9 0.5-0.5 1.3-0.6 1.8-0.1 0.5 0.5 0.6 1.3 0.1 1.8C81.1 92.5 72.5 96.5 63.4 96.5z" fill="#6f2e78" data-fill-palette-color="accent"></path><path d="M91.4 77.3c-0.2 0-0.3 0-0.5-0.1-0.7-0.3-1-1-0.7-1.7 1.3-3.3 1.9-6.7 1.9-10.3 0-14-10-25.9-23.8-28.3-0.7-0.1-1.2-0.8-1.1-1.5 0.1-0.7 0.8-1.2 1.5-1.1C83.7 37 94.6 50 94.6 65.2c0 3.9-0.7 7.6-2.1 11.2C92.4 76.9 91.9 77.3 91.4 77.3z" fill="#6f2e78" data-fill-palette-color="accent"></path><path d="M58.6 39.9c-0.3 0-0.7-0.1-0.9-0.4-0.5-0.5-0.5-1.3 0-1.8l1.9-1.9-2-2c-0.5-0.5-0.5-1.3 0-1.8 0.5-0.5 1.3-0.5 1.8 0l3.9 3.9-3.7 3.7C59.3 39.7 58.9 39.9 58.6 39.9z" fill="#6f2e78" data-fill-palette-color="accent"></path><path d="M90 79.5l-2-4.9c-0.3-0.7 0.1-1.4 0.7-1.7 0.7-0.3 1.4 0.1 1.7 0.7l1 2.5 2.7-1.1c0.7-0.3 1.4 0.1 1.7 0.7 0.3 0.7-0.1 1.4-0.7 1.7L90 79.5z" fill="#6f2e78" data-fill-palette-color="accent"></path><path d="M38.3 87.3c-0.1 0-0.2 0-0.3 0-0.7-0.2-1.1-0.8-1-1.5l1.1-5.3 5.2 1.1c0.7 0.2 1.1 0.8 1 1.5-0.1 0.7-0.8 1.1-1.5 1l-2.6-0.6-0.6 2.8C39.4 86.9 38.9 87.3 38.3 87.3z" fill="#6f2e78" data-fill-palette-color="accent"></path></g><path d="M64 121C32.6 121 7 95.4 7 64S32.6 7 64 7s57 25.6 57 57S95.4 121 64 121zM64 9.9C34.2 9.9 9.9 34.2 9.9 64s24.3 54.1 54.1 54.1 54.1-24.3 54.1-54.1S93.8 9.9 64 9.9z" fill="#6f2e78" data-fill-palette-color="accent"></path></g></svg></g><g transform="matrix(1,0,0,1,519.154208,46.923410063999995)"><svg width="166.0069851127912" viewBox="3.4000000953674316 -35.70000076293945 39.79999923706055 36.400001525878906" height="151.825483872" data-palette-color="#9f0ebb"><path d="M3.4 0L3.4-35 8.65-35 8.65 0 3.4 0ZM43.2-17.5Q43.2-10.45 40.05-5.65L40.05-5.65 43.15-2.55 39.8 0.7 36.9-2.2Q33.3 0.7 28.4 0.7L28.4 0.7Q24.1 0.7 20.72-1.55 17.35-3.8 15.45-7.93 13.55-12.05 13.55-17.5L13.55-17.5Q13.55-22.95 15.45-27.08 17.35-31.2 20.72-33.45 24.1-35.7 28.4-35.7L28.4-35.7Q32.7-35.7 36.05-33.45 39.4-31.2 41.3-27.08 43.2-22.95 43.2-17.5L43.2-17.5ZM28.4-4.55Q31.1-4.55 33.1-5.95L33.1-5.95 29.05-10 32.4-13.25 36.1-9.6Q37.65-12.75 37.65-17.5L37.65-17.5Q37.65-23.25 35.25-26.85 32.85-30.45 28.4-30.45L28.4-30.45Q23.95-30.45 21.55-26.85 19.15-23.25 19.15-17.5L19.15-17.5Q19.15-11.75 21.55-8.15 23.95-4.55 28.4-4.55L28.4-4.55Z" opacity="1" transform="matrix(1,0,0,1,0,0)" fill="#9f0ebb" class="undefined-k-1"></path></svg></g></svg></g></svg></g><g transform="matrix(1,0,0,1,130.86578788454312,272.51404574371753)"><svg viewBox="0 0 423.429617343705 53.22343122339382" height="53.22343122339382" width="423.429617343705"><g transform="matrix(1,0,0,1,0,0)"><svg width="423.429617343705" viewBox="2.5399999618530273 -39.040000915527344 390.16998291015625 49.05000305175781" height="53.22343122339382" data-palette-color="#70709c"><path d="M35.79-16.6L35.79 0 29.15 0 29.15-16.6Q29.15-17.29 28.89-17.9 28.64-18.51 28.17-18.97 27.71-19.43 27.1-19.69 26.49-19.95 25.81-19.95L25.81-19.95Q25.12-19.95 24.52-19.69 23.93-19.43 23.47-18.97 23.02-18.51 22.77-17.9 22.51-17.29 22.51-16.6L22.51-16.6 22.51 0 15.84 0 15.84-16.6Q15.84-17.29 15.59-17.9 15.33-18.51 14.87-18.97 14.4-19.43 13.79-19.69 13.18-19.95 12.5-19.95L12.5-19.95Q11.82-19.95 11.22-19.69 10.62-19.43 10.17-18.97 9.72-18.51 9.46-17.9 9.2-17.29 9.2-16.6L9.2-16.6 9.2 0 2.54 0 2.54-26.15 4.15-26.15 5.96-24.15Q7.35-25.32 9.02-25.96 10.69-26.61 12.5-26.61L12.5-26.61Q14.33-26.61 16.08-25.93 17.82-25.24 19.14-23.56L19.14-23.56Q19.75-24.39 20.53-24.98 21.31-25.56 22.18-25.93 23.05-26.29 23.97-26.45 24.9-26.61 25.81-26.61L25.81-26.61Q27.88-26.61 29.7-25.83 31.52-25.05 32.87-23.69 34.23-22.34 35.01-20.51 35.79-18.68 35.79-16.6L35.79-16.6ZM65.96-26.1L65.96 0 64.35 0 61.77-3.59Q60.81-2.73 59.75-1.99 58.69-1.25 57.52-0.7 56.35-0.15 55.11 0.17 53.88 0.49 52.61 0.49L52.61 0.49Q49.85 0.49 47.42-0.44 44.99-1.37 43.17-3.14 41.35-4.91 40.31-7.47 39.26-10.03 39.26-13.31L39.26-13.31Q39.26-16.36 40.31-18.91 41.35-21.46 43.17-23.29 44.99-25.12 47.42-26.14 49.85-27.15 52.61-27.15L52.61-27.15Q53.88-27.15 55.12-26.83 56.37-26.51 57.54-25.95 58.71-25.39 59.78-24.63 60.84-23.88 61.77-23L61.77-23 64.35-26.1 65.96-26.1ZM59.25-13.31L59.25-13.31Q59.25-14.67 58.73-15.95 58.2-17.24 57.3-18.23 56.39-19.21 55.19-19.81 53.98-20.41 52.61-20.41L52.61-20.41Q51.24-20.41 50.03-19.95 48.83-19.48 47.93-18.58 47.04-17.68 46.53-16.35 46.02-15.01 46.02-13.31L46.02-13.31Q46.02-11.6 46.53-10.27 47.04-8.94 47.93-8.03 48.83-7.13 50.03-6.67 51.24-6.2 52.61-6.2L52.61-6.2Q53.98-6.2 55.19-6.8 56.39-7.4 57.3-8.39 58.2-9.38 58.73-10.66 59.25-11.94 59.25-13.31ZM85.4 0L85.4 0 70.16 0 70.16-6.64 85.4-6.64Q86.08-6.64 86.57-7.13 87.06-7.62 87.06-8.3L87.06-8.3Q87.06-9.01 86.57-9.23 86.08-9.45 85.4-9.45L85.4-9.45 78.46-9.45Q76.73-9.45 75.21-10.11 73.7-10.77 72.58-11.9 71.45-13.04 70.81-14.55 70.16-16.06 70.16-17.8L70.16-17.8Q70.16-19.53 70.81-21.04 71.45-22.56 72.58-23.68 73.7-24.8 75.21-25.45 76.73-26.1 78.46-26.1L78.46-26.1 91.96-26.1 91.96-19.46 78.46-19.46Q77.78-19.46 77.29-18.97 76.8-18.48 76.8-17.8L76.8-17.8Q76.8-17.09 77.29-16.59 77.78-16.09 78.46-16.09L78.46-16.09 85.4-16.09Q87.1-16.09 88.62-15.52 90.13-14.94 91.25-13.92 92.38-12.89 93.04-11.45 93.7-10.01 93.7-8.3L93.7-8.3Q93.7-6.57 93.04-5.07 92.38-3.56 91.25-2.43 90.13-1.29 88.62-0.65 87.1 0 85.4 0ZM115.4 0L110.34 0Q107.93 0 105.8-0.92 103.68-1.83 102.08-3.43 100.48-5.03 99.57-7.15 98.65-9.28 98.65-11.69L98.65-11.69 98.65-19.46 95.4-19.46 95.4-26.1 98.65-26.1 98.65-36.55 105.29-36.55 105.29-26.1 115.4-26.1 115.4-19.46 105.29-19.46 105.29-11.69Q105.29-10.64 105.68-9.73 106.07-8.81 106.76-8.13 107.44-7.45 108.37-7.04 109.29-6.64 110.34-6.64L110.34-6.64 115.4-6.64 115.4 0ZM142.03-21.46L129.53-6.4Q129.92-6.27 130.31-6.24 130.7-6.2 131.09-6.2L131.09-6.2Q132.07-6.2 132.97-6.47 133.88-6.74 134.67-7.24 135.46-7.74 136.09-8.46 136.71-9.18 137.1-10.06L137.1-10.06 141.98-5.15Q141.05-3.83 139.85-2.78 138.64-1.73 137.23-1 135.83-0.27 134.28 0.11 132.73 0.49 131.09 0.49L131.09 0.49Q128.33 0.49 125.91-0.54 123.48-1.56 121.66-3.39 119.84-5.22 118.79-7.75 117.74-10.28 117.74-13.31L117.74-13.31Q117.74-16.41 118.79-18.97 119.84-21.53 121.66-23.34 123.48-25.15 125.91-26.15 128.33-27.15 131.09-27.15L131.09-27.15Q132.73-27.15 134.29-26.76 135.85-26.37 137.26-25.63 138.66-24.9 139.88-23.84 141.1-22.78 142.03-21.46L142.03-21.46ZM125.19-9.84L132.95-20.14Q132.49-20.31 132.03-20.36 131.58-20.41 131.09-20.41L131.09-20.41Q129.73-20.41 128.52-19.91 127.31-19.41 126.42-18.48 125.53-17.55 125.01-16.25 124.5-14.94 124.5-13.31L124.5-13.31Q124.5-12.94 124.54-12.48 124.57-12.01 124.66-11.54 124.75-11.06 124.87-10.62 124.99-10.18 125.19-9.84L125.19-9.84ZM152.04-14.4L152.04 0 145.37 0 145.37-26.15 146.98-26.15 149.18-23.05Q150.79-24.51 152.84-25.31 154.89-26.1 157.09-26.1L157.09-26.1 162.98-26.1 162.98-19.46 157.09-19.46Q156.04-19.46 155.11-19.07 154.19-18.68 153.5-17.99 152.82-17.31 152.43-16.38 152.04-15.45 152.04-14.4L152.04-14.4ZM205.33-13.31L205.33-13.31Q205.33-10.38 204.28-7.85 203.23-5.32 201.42-3.48 199.62-1.64 197.19-0.57 194.76 0.49 191.97 0.49L191.97 0.49Q189.22 0.49 186.79-0.57 184.36-1.64 182.54-3.48 180.72-5.32 179.67-7.85 178.62-10.38 178.62-13.31L178.62-13.31Q178.62-16.28 179.67-18.82 180.72-21.36 182.54-23.21 184.36-25.05 186.79-26.1 189.22-27.15 191.97-27.15L191.97-27.15Q194.76-27.15 197.19-26.16 199.62-25.17 201.42-23.35 203.23-21.53 204.28-18.98 205.33-16.43 205.33-13.31ZM198.62-13.31L198.62-13.31Q198.62-14.92 198.09-16.22 197.57-17.53 196.66-18.47 195.76-19.41 194.55-19.91 193.34-20.41 191.97-20.41L191.97-20.41Q190.61-20.41 189.4-19.91 188.19-19.41 187.3-18.47 186.41-17.53 185.9-16.22 185.38-14.92 185.38-13.31L185.38-13.31Q185.38-11.79 185.9-10.5 186.41-9.2 187.3-8.25 188.19-7.3 189.4-6.75 190.61-6.2 191.97-6.2L191.97-6.2Q193.34-6.2 194.55-6.71 195.76-7.23 196.66-8.15 197.57-9.08 198.09-10.4 198.62-11.72 198.62-13.31ZM217.19-19.51L217.19 0 210.53 0 210.53-19.51 207.28-19.51 207.28-26.15 210.53-26.15 210.53-27.39Q210.53-29.81 211.44-31.93 212.36-34.06 213.96-35.63 215.56-37.21 217.68-38.12 219.8-39.04 222.22-39.04L222.22-39.04 227.23-39.04 227.23-32.4 222.22-32.4Q221.15-32.4 220.23-32.02 219.32-31.64 218.64-30.97 217.97-30.3 217.58-29.38 217.19-28.47 217.19-27.39L217.19-27.39 217.19-26.15 225.37-26.15 225.37-19.51 217.19-19.51ZM265.36-20.95L265.36-20.95 260.47-16.04Q260.11-17.07 259.47-17.88 258.84-18.7 258.04-19.26 257.25-19.82 256.32-20.12 255.39-20.41 254.42-20.41L254.42-20.41Q253.05-20.41 251.84-19.85 250.63-19.29 249.74-18.27 248.85-17.26 248.34-15.87 247.83-14.48 247.83-12.79L247.83-12.79Q247.83-11.43 248.34-10.23 248.85-9.03 249.74-8.13 250.63-7.23 251.84-6.71 253.05-6.2 254.42-6.2L254.42-6.2Q255.39-6.2 256.3-6.47 257.2-6.74 258-7.24 258.79-7.74 259.41-8.46 260.03-9.18 260.42-10.06L260.42-10.06 265.31-5.15Q264.38-3.83 263.17-2.78 261.96-1.73 260.56-1 259.15-0.27 257.6 0.11 256.05 0.49 254.42 0.49L254.42 0.49Q251.66 0.49 249.23-0.55 246.8-1.59 244.98-3.39 243.16-5.2 242.11-7.62 241.06-10.03 241.06-12.79L241.06-12.79Q241.06-15.8 242.11-18.41 243.16-21.02 244.98-22.96 246.8-24.9 249.23-26.03 251.66-27.15 254.42-27.15L254.42-27.15Q256.05-27.15 257.63-26.73 259.2-26.32 260.63-25.52 262.06-24.73 263.27-23.58 264.48-22.44 265.36-20.95ZM293.48-13.31L293.48-13.31Q293.48-10.38 292.43-7.85 291.38-5.32 289.57-3.48 287.77-1.64 285.34-0.57 282.91 0.49 280.12 0.49L280.12 0.49Q277.37 0.49 274.94-0.57 272.51-1.64 270.69-3.48 268.87-5.32 267.82-7.85 266.77-10.38 266.77-13.31L266.77-13.31Q266.77-16.28 267.82-18.82 268.87-21.36 270.69-23.21 272.51-25.05 274.94-26.1 277.37-27.15 280.12-27.15L280.12-27.15Q282.91-27.15 285.34-26.16 287.77-25.17 289.57-23.35 291.38-21.53 292.43-18.98 293.48-16.43 293.48-13.31ZM286.76-13.31L286.76-13.31Q286.76-14.92 286.24-16.22 285.71-17.53 284.81-18.47 283.91-19.41 282.7-19.91 281.49-20.41 280.12-20.41L280.12-20.41Q278.76-20.41 277.55-19.91 276.34-19.41 275.45-18.47 274.56-17.53 274.04-16.22 273.53-14.92 273.53-13.31L273.53-13.31Q273.53-11.79 274.04-10.5 274.56-9.2 275.45-8.25 276.34-7.3 277.55-6.75 278.76-6.2 280.12-6.2L280.12-6.2Q281.49-6.2 282.7-6.71 283.91-7.23 284.81-8.15 285.71-9.08 286.24-10.4 286.76-11.72 286.76-13.31ZM322.43-36.55L322.43 0 320.82 0 318.23-3.59Q317.28-2.73 316.22-1.99 315.16-1.25 313.98-0.7 312.81-0.15 311.58 0.17 310.35 0.49 309.08 0.49L309.08 0.49Q306.32 0.49 303.89-0.55 301.46-1.59 299.64-3.43 297.82-5.27 296.77-7.8 295.72-10.33 295.72-13.31L295.72-13.31Q295.72-16.26 296.77-18.8 297.82-21.34 299.64-23.19 301.46-25.05 303.89-26.1 306.32-27.15 309.08-27.15L309.08-27.15Q309.96-27.15 310.9-27 311.84-26.86 312.73-26.53 313.62-26.2 314.4-25.66 315.18-25.12 315.72-24.34L315.72-24.34 315.72-36.55 322.43-36.55ZM315.72-13.31L315.72-13.31Q315.72-14.67 315.19-15.95 314.67-17.24 313.76-18.23 312.86-19.21 311.65-19.81 310.44-20.41 309.08-20.41L309.08-20.41Q307.71-20.41 306.5-19.92 305.29-19.43 304.4-18.52 303.51-17.6 303-16.28 302.48-14.97 302.48-13.31L302.48-13.31Q302.48-11.87 303-10.57 303.51-9.28 304.4-8.3 305.29-7.32 306.5-6.76 307.71-6.2 309.08-6.2L309.08-6.2Q310.44-6.2 311.65-6.8 312.86-7.4 313.76-8.39 314.67-9.38 315.19-10.66 315.72-11.94 315.72-13.31ZM335.37-33.25L335.37-33.25Q335.37-32.32 335.01-31.52 334.66-30.71 334.05-30.11 333.44-29.52 332.62-29.16 331.8-28.81 330.88-28.81L330.88-28.81Q329.95-28.81 329.13-29.16 328.31-29.52 327.71-30.11 327.12-30.71 326.76-31.52 326.41-32.32 326.41-33.25L326.41-33.25Q326.41-34.16 326.76-34.97 327.12-35.79 327.71-36.39 328.31-36.99 329.13-37.34 329.95-37.7 330.88-37.7L330.88-37.7Q331.8-37.7 332.62-37.34 333.44-36.99 334.05-36.39 334.66-35.79 335.01-34.97 335.37-34.16 335.37-33.25ZM334.22-26.15L334.22 0 327.51 0 327.51-26.15 334.22-26.15ZM345.96-14.94L345.96 0 339.3 0 339.3-26.15 340.91-26.15 343.1-23.61Q344.72-25.07 346.75-25.87 348.79-26.66 351.01-26.66L351.01-26.66Q353.41-26.66 355.53-25.74 357.66-24.83 359.24-23.23 360.83-21.63 361.74-19.49 362.66-17.36 362.66-14.94L362.66-14.94 362.66 0 356 0 356-14.94Q356-15.97 355.6-16.88 355.21-17.8 354.53-18.48 353.85-19.17 352.94-19.56 352.04-19.95 351.01-19.95L351.01-19.95Q349.97-19.95 349.04-19.56 348.11-19.17 347.43-18.48 346.74-17.8 346.35-16.88 345.96-15.97 345.96-14.94L345.96-14.94ZM386-13.31L386-13.31Q386-14.67 385.47-15.95 384.95-17.24 384.04-18.23 383.14-19.21 381.93-19.81 380.72-20.41 379.36-20.41L379.36-20.41Q377.99-20.41 376.78-19.95 375.57-19.48 374.68-18.58 373.79-17.68 373.28-16.35 372.77-15.01 372.77-13.31L372.77-13.31Q372.77-11.67 373.28-10.36 373.79-9.06 374.68-8.13 375.57-7.2 376.78-6.7 377.99-6.2 379.36-6.2L379.36-6.2Q380.72-6.2 381.93-6.8 383.14-7.4 384.04-8.39 384.95-9.38 385.47-10.66 386-11.94 386-13.31ZM392.71-26.1L392.71-3.3Q392.71-0.54 391.66 1.88 390.61 4.3 388.79 6.1 386.97 7.91 384.55 8.96 382.12 10.01 379.36 10.01L379.36 10.01 376.01 9.96 376.01 3.3 379.31 3.34Q380.87 3.34 381.97 2.94 383.07 2.54 383.82 1.84 384.58 1.15 385.03 0.24 385.48-0.66 385.75-1.66L385.75-1.66Q385.36-1.03 384.63-0.62 383.9-0.22 383.01 0.04 382.12 0.29 381.15 0.39 380.19 0.49 379.36 0.49L379.36 0.49Q376.6 0.49 374.17-0.46 371.74-1.42 369.92-3.19 368.1-4.96 367.05-7.52 366-10.08 366-13.31L366-13.31Q366-16.26 367.05-18.8 368.1-21.34 369.92-23.19 371.74-25.05 374.17-26.1 376.6-27.15 379.36-27.15L379.36-27.15Q380.63-27.15 381.87-26.83 383.12-26.51 384.29-25.95 385.46-25.39 386.52-24.63 387.58-23.88 388.51-23L388.51-23 391.1-26.1 392.71-26.1Z" opacity="1" transform="matrix(1,0,0,1,0,0)" fill="#70709c" class="undefined-text-1" data-fill-palette-color="secondary" id="text-1"></path></svg></g></svg></g></svg></g></svg></g><g></g></svg></g><defs></defs></svg><rect width="395.52" height="188.0370461507194" fill="none" stroke="none" visibility="hidden"></rect></g></svg></g></svg>