<?xml version="1.0" encoding="utf-8"?>
<!-- Generator: Adobe Illustrator 24.2.1, SVG Export Plug-In . SVG Version: 6.00 Build 0)  -->
<svg version="1.1" id="Layer_1" xmlns="http://www.w3.org/2000/svg" xmlns:xlink="http://www.w3.org/1999/xlink" x="0px" y="0px"
	 viewBox="0 0 150 150" style="enable-background:new 0 0 150 150;" xml:space="preserve">
<style type="text/css">
	.st0{fill:#3C6CAB;}
	.st1{fill:url(#SVGID_1_);}
	.st2{fill:#CACAC9;}
	.st3{fill:#86B4E0;}
	.st4{fill:#FFFFFF;}
	.st5{fill:#57738B;}
	.st6{opacity:0.3;}
	.st7{opacity:0.5;fill:#929497;}
	.st8{fill:#929497;}
	.st9{fill-rule:evenodd;clip-rule:evenodd;fill:#CACAC9;}
	.st10{fill-rule:evenodd;clip-rule:evenodd;fill:#184560;}
	.st11{fill-rule:evenodd;clip-rule:evenodd;fill:#5891CC;}
	.st12{fill-rule:evenodd;clip-rule:evenodd;fill:url(#SVGID_2_);}
	.st13{fill-rule:evenodd;clip-rule:evenodd;fill:#C9E6E8;}
	.st14{fill-rule:evenodd;clip-rule:evenodd;fill:#D25827;}
	.st15{fill-rule:evenodd;clip-rule:evenodd;fill:#F26C21;}
	.st16{fill-rule:evenodd;clip-rule:evenodd;fill:#0098CC;}
	.st17{fill-rule:evenodd;clip-rule:evenodd;fill:#5CBFD8;}
	.st18{fill-rule:evenodd;clip-rule:evenodd;fill:#DD8732;}
	.st19{fill-rule:evenodd;clip-rule:evenodd;fill:#3C6CAB;}
	.st20{fill-rule:evenodd;clip-rule:evenodd;fill:#703624;}
	.st21{enable-background:new    ;}
	.st22{fill:#E6E7E8;}
	.st23{fill:#D0DFE9;}
	.st24{fill:#DD8732;}
	.st25{fill:#F26C21;}
	.st26{fill:#D25827;}
	.st27{fill:#BACDDF;}
	.st28{fill:#0098CC;}
	.st29{fill:#9BC9EC;}
	.st30{fill:#A6BBCD;}
	.st31{fill:#F3F5FA;}
	.st32{fill:#5CBFD8;}
	.st33{fill:#EFCDC8;}
	.st34{fill:#FFFAEF;}
	.st35{fill:#F4DCD6;}
	.st36{fill:#F7C22B;}
	.st37{fill:#EE9C26;}
	.st38{fill:#FAC0AF;}
	.st39{fill:#E5E6E6;}
	.st40{fill:#3D5566;}
	.st41{fill:#20232E;}
	.st42{fill:#263C49;}
	.st43{fill:#D3D5D7;}
	.st44{fill:#E99B91;}
	.st45{fill:#5B2F1A;}
	.st46{opacity:0.2;fill:#044EA0;}
	.st47{fill:#21456E;}
	.st48{fill:#C3DCEE;}
	.st49{fill-rule:evenodd;clip-rule:evenodd;fill:#0D0D0E;}
	.st50{fill-rule:evenodd;clip-rule:evenodd;fill:#404041;}
	.st51{fill-rule:evenodd;clip-rule:evenodd;fill:#D0D2D3;}
	.st52{fill-rule:evenodd;clip-rule:evenodd;fill:#A6A8AB;}
	.st53{fill-rule:evenodd;clip-rule:evenodd;fill:#FFFFFF;}
	.st54{fill-rule:evenodd;clip-rule:evenodd;fill:#0A7A98;}
	.st55{fill-rule:evenodd;clip-rule:evenodd;fill:#81C9E4;}
	.st56{fill-rule:evenodd;clip-rule:evenodd;fill:#808184;}
	.st57{fill-rule:evenodd;clip-rule:evenodd;fill:#FAC0AF;}
	.st58{fill-rule:evenodd;clip-rule:evenodd;fill:#E7A376;}
	.st59{fill-rule:evenodd;clip-rule:evenodd;fill:#E99B91;}
	.st60{fill-rule:evenodd;clip-rule:evenodd;fill:#57738B;}
	.st61{fill-rule:evenodd;clip-rule:evenodd;fill:#3D5566;}
	.st62{fill-rule:evenodd;clip-rule:evenodd;fill:#121415;}
	.st63{fill-rule:evenodd;clip-rule:evenodd;}
	.st64{fill-rule:evenodd;clip-rule:evenodd;fill:#20232E;}
	.st65{fill-rule:evenodd;clip-rule:evenodd;fill:#425D71;}
	.st66{fill-rule:evenodd;clip-rule:evenodd;fill:#263C49;}
	.st67{fill-rule:evenodd;clip-rule:evenodd;fill:#DA9569;}
	.st68{fill-rule:evenodd;clip-rule:evenodd;fill:#6D3F26;}
	.st69{fill-rule:evenodd;clip-rule:evenodd;fill:#5B2F1A;}
	.st70{fill-rule:evenodd;clip-rule:evenodd;fill:#4A6A7D;}
	.st71{fill-rule:evenodd;clip-rule:evenodd;fill:#E8F6FD;}
	.st72{fill-rule:evenodd;clip-rule:evenodd;fill:#C9C8C9;}
	.st73{fill-rule:evenodd;clip-rule:evenodd;fill:#BCDAF2;}
	.st74{fill-rule:evenodd;clip-rule:evenodd;fill:#E6E7E8;}
	.st75{fill-rule:evenodd;clip-rule:evenodd;fill:#C1CBE7;}
	.st76{fill-rule:evenodd;clip-rule:evenodd;fill:#E7F4FA;}
</style>
<g>
	<g>
		<path class="st0" d="M120,135l-11.9-8.2c-0.3-0.2-0.8-0.2-1.1-0.1l-9.1,4.3c-0.3,0.2-0.4,0.4-0.1,0.7l11.9,8.2
			c0.3,0.2,0.8,0.2,1.1,0.1l9.1-4.3C120.3,135.5,120.3,135.2,120,135z"/>
		
			<linearGradient id="SVGID_1_" gradientUnits="userSpaceOnUse" x1="-25.3678" y1="-180.1431" x2="3.4844" y2="-180.1431" gradientTransform="matrix(0.997 7.703388e-02 -7.703388e-02 0.997 110.0012 312.833)">
			<stop  offset="0" style="stop-color:#FFFFFF"/>
			<stop  offset="0.398" style="stop-color:#F3F1F6"/>
			<stop  offset="1" style="stop-color:#E5E1EA"/>
		</linearGradient>
		<path class="st1" d="M120.1,133.7l-11.9-8.2c-0.3-0.2-0.8-0.2-1.1-0.1l-9.1,4.3c-0.3,0.2-0.4,0.4-0.1,0.7l11.9,8.2
			c0.3,0.2,0.8,0.2,1.1,0.1l9.1-4.3C120.4,134.2,120.4,133.9,120.1,133.7z"/>
		<path class="st2" d="M120.3,134.1c0,0.1-0.1,0.2-0.3,0.3l-9.1,4.3c-0.1,0-0.2,0.1-0.3,0.1c0,0,0,0,0,0c-0.1,0-0.2,0-0.3,0
			c0,0,0,0,0,0c-0.1,0-0.2,0-0.3-0.1c0,0,0,0,0,0c-0.1,0-0.2-0.1-0.2-0.1L98,130.4c0,0,0,0,0,0c0,0,0,0-0.1,0c0,0,0,0-0.1-0.1
			c0,0,0,0,0,0c0,0,0-0.1,0-0.1c0,0,0,0,0,0c0,0,0-0.1,0-0.1l0,0.2c0,0,0,0,0,0c0,0,0,0,0,0c0,0,0,0,0,0c0,0,0,0,0,0c0,0,0,0,0,0
			c0,0,0,0,0,0c0,0,0,0,0,0c0,0,0,0,0,0c0,0,0,0,0,0c0,0,0,0,0,0.1c0,0,0,0,0,0c0,0,0,0,0.1,0c0,0,0,0,0,0c0,0,0,0,0,0l11.9,8.2
			c0.1,0,0.1,0.1,0.2,0.1c0,0,0,0,0.1,0c0,0,0,0,0,0c0,0,0,0,0,0c0,0,0.1,0,0.1,0c0,0,0.1,0,0.1,0c0,0,0,0,0,0c0,0,0,0,0,0
			c0,0,0,0,0,0c0,0,0.1,0,0.1,0c0,0,0.1,0,0.1,0c0,0,0.1,0,0.1,0c0,0,0,0,0,0c0,0,0,0,0,0c0,0,0,0,0,0c0,0,0.1,0,0.1,0
			c0,0,0.1,0,0.1,0l9.1-4.3c0.2-0.1,0.3-0.2,0.3-0.3L120.3,134.1z"/>
		<g>
			<g>
				<path class="st3" d="M108.8,133.1l4.6-2.3c0.1-0.1,0.3,0,0.4,0c0.1,0.1,0.1,0.2,0,0.2l-4.6,2.3c-0.1,0.1-0.3,0-0.4,0
					C108.6,133.2,108.7,133.1,108.8,133.1z M109.6,133.9c0.1,0.1,0.3,0.1,0.4,0l3.1-1.6c0.1-0.1,0.1-0.2,0-0.2
					c-0.1-0.1-0.3-0.1-0.4,0l-3.1,1.6C109.5,133.7,109.5,133.8,109.6,133.9z M108.7,133.9c-0.4-0.2-0.9-0.3-1.3-0.1l-0.5,0.2
					c-0.4,0.2-0.4,0.5-0.1,0.8c0.4,0.2,0.9,0.3,1.3,0.1l0.5-0.2C109,134.5,109.1,134.2,108.7,133.9z"/>
				<g>
					<path class="st4" d="M107.9,134C107.9,134,107.9,134,107.9,134c-0.2,0-0.2,0-0.2,0l0,0.5l-0.2,0c-0.1,0-0.1,0-0.1,0.1
						c0,0,0,0,0,0.1c0,0,0.1,0,0.1,0l0.3,0c0,0,0.1,0,0.1,0c0,0,0,0,0-0.1L107.9,134C108,134,108,134,107.9,134L107.9,134z"/>
				</g>
			</g>
			<g>
				<path class="st3" d="M105.9,131.1l4.6-2.3c0.1-0.1,0.3,0,0.4,0c0.1,0.1,0.1,0.2,0,0.2l-4.6,2.3c-0.1,0.1-0.3,0-0.4,0
					C105.8,131.2,105.8,131.1,105.9,131.1z M106.7,131.9c0.1,0.1,0.3,0.1,0.4,0l3.1-1.6c0.1-0.1,0.1-0.2,0-0.2
					c-0.1-0.1-0.3-0.1-0.4,0l-3.1,1.6C106.6,131.7,106.6,131.8,106.7,131.9z M105.8,131.9c-0.4-0.2-0.9-0.3-1.3-0.1l-0.5,0.2
					c-0.4,0.2-0.4,0.5-0.1,0.8c0.4,0.2,0.9,0.3,1.3,0.1l0.5-0.2C106.1,132.5,106.2,132.2,105.8,131.9z"/>
				<g>
					<path class="st4" d="M105,132C105,132,105,132,105,132c-0.2,0-0.2,0-0.2,0l0,0.5l-0.2,0c-0.1,0-0.1,0-0.1,0.1c0,0,0,0,0,0.1
						c0,0,0.1,0,0.1,0l0.3,0c0,0,0.1,0,0.1,0c0,0,0,0,0-0.1L105,132C105.1,132,105.1,132,105,132L105,132z"/>
				</g>
			</g>
			<g>
				<path class="st3" d="M103,129.1l4.6-2.3c0.1-0.1,0.3,0,0.4,0c0.1,0.1,0.1,0.2,0,0.2l-4.6,2.3c-0.1,0.1-0.3,0-0.4,0
					C102.9,129.2,102.9,129.1,103,129.1z M103.8,129.9c0.1,0.1,0.3,0.1,0.4,0l3.1-1.6c0.1-0.1,0.1-0.2,0-0.2c-0.1-0.1-0.3-0.1-0.4,0
					l-3.1,1.6C103.7,129.7,103.7,129.8,103.8,129.9z M102.9,129.9c-0.4-0.2-0.9-0.3-1.3-0.1l-0.5,0.2c-0.4,0.2-0.4,0.5-0.1,0.8
					c0.4,0.2,0.9,0.3,1.3,0.1l0.5-0.2C103.2,130.5,103.3,130.2,102.9,129.9z"/>
				<g>
					<path class="st4" d="M102.1,130C102.1,130,102.1,130,102.1,130c-0.2,0-0.2,0-0.2,0l0,0.5l-0.2,0c-0.1,0-0.1,0-0.1,0.1
						c0,0,0,0,0,0.1c0,0,0.1,0,0.1,0l0.3,0c0,0,0.1,0,0.1,0c0,0,0,0,0-0.1L102.1,130C102.2,130,102.2,130,102.1,130L102.1,130z"/>
				</g>
			</g>
		</g>
		<path class="st2" d="M117.7,133.3c-0.4-0.2-0.9-0.3-1.3-0.1l-2.8,1.4c-0.4,0.2-0.4,0.5-0.1,0.8c0.4,0.2,0.9,0.3,1.3,0.1l2.8-1.4
			C118,133.9,118,133.5,117.7,133.3z"/>
		<path class="st5" d="M118.2,133.3C118.2,133.3,118.2,133.3,118.2,133.3C118.2,133.3,118.1,133.3,118.2,133.3
			c-0.3,0.1-0.5,0.3-0.7,0.4c0,0,0,0-0.1,0c0,0,0,0,0,0c0,0,0,0,0,0c-0.1-0.1-0.2,0-0.3,0.1l0,0c-0.1,0.1-0.2,0.2-0.2,0.2
			c0,0-0.1,0.1-0.1,0.1c0,0.1-0.1,0.1-0.2,0.2c0,0-0.1,0-0.1,0c0,0,0,0,0,0l0,0c0-0.1,0.1-0.1,0.1-0.2c0-0.1,0-0.2,0-0.2
			c0,0,0,0,0,0c0,0-0.1,0-0.1,0c-0.1,0-0.1,0-0.2,0c-0.1,0.1-0.1,0.2-0.1,0.2c0,0,0,0.1,0.1,0.1l0,0c0,0,0,0.1,0.1,0.1l0,0
			c0,0.1-0.1,0.1-0.2,0.2l0,0c0,0-0.1,0.1-0.1,0.1c-0.1,0-0.1,0-0.2-0.1c0,0,0,0,0,0c0,0,0,0-0.1-0.1c0.1-0.1,0.2-0.3,0.2-0.4
			c0,0,0-0.1,0-0.1c0,0,0,0,0,0c0,0-0.1,0-0.1,0c0,0-0.1,0-0.1,0c-0.2,0.2-0.2,0.4,0,0.6l0,0c-0.1,0.2-0.3,0.3-0.4,0.3c0,0,0,0,0,0
			c0,0,0,0,0,0c0,0,0,0,0,0c0,0,0,0,0,0c0,0,0,0,0,0c0,0,0,0,0,0c0,0,0,0-0.1,0c0,0-0.1,0.1-0.1,0.1c0,0,0,0,0,0c0,0,0,0,0,0
			c0,0,0,0,0,0c0-0.1,0.1-0.1,0.1-0.2c0,0,0,0,0-0.1c0,0,0,0,0,0c0,0,0,0,0,0c0,0,0,0,0,0c0,0-0.1,0-0.1,0c0,0-0.1,0.1-0.1,0.1
			c0,0,0,0.1,0,0.1c0,0,0,0,0,0c-0.1,0.1-0.1,0.2-0.2,0.3c-0.1,0.1-0.1,0.1-0.1,0l0,0c0.1-0.1,0.2-0.3,0-0.5c0,0,0,0,0,0
			c0,0,0,0-0.1,0c0,0-0.1,0-0.1,0c-0.1,0.1-0.1,0.2-0.1,0.3c0,0,0,0.1,0.1,0.1c0,0,0,0.1,0.1,0.1c-0.1,0.1-0.1,0.1-0.2,0.2
			c-0.1,0.1-0.2,0.1-0.3,0.1c0,0-0.1,0-0.1,0c0,0,0-0.1,0-0.1c0.1-0.2,0.2-0.4,0.2-0.6c0-0.2,0-0.3,0-0.5c0,0,0,0,0-0.1c0,0,0,0,0,0
			c0,0-0.1,0-0.2,0c-0.1,0-0.1,0.1-0.1,0.1c-0.3,0.3-0.3,0.6-0.2,0.9c0,0.1,0.1,0.2,0.2,0.2c-0.1,0.1-0.2,0.3-0.3,0.4c0,0,0,0,0,0
			c0,0,0,0,0,0c0,0,0.1,0,0.1,0c0.1-0.1,0.2-0.3,0.3-0.4c0,0,0.1,0,0.1,0c0.2,0,0.3-0.1,0.4-0.1c0.1-0.1,0.1-0.1,0.2-0.2l0,0
			c0.1,0,0.2,0,0.2-0.1c0.1-0.1,0.2-0.2,0.2-0.3c0,0,0,0,0,0c0,0,0,0,0.1,0c0,0,0.1,0,0.1,0c0,0,0.1,0,0.1,0l0,0c0,0,0.1,0,0.1,0
			c0.2,0,0.3-0.3,0.4-0.3c0,0,0,0,0,0c0,0,0,0,0,0c0.1,0,0.2,0.1,0.3,0.1c0,0,0.1,0,0.1,0c0,0,0.1,0,0.1-0.1l0,0
			c0.1-0.1,0.1-0.1,0.2-0.2c0,0,0.1,0,0.1,0c0.1,0,0.1,0,0.1-0.1c0.1-0.1,0.1-0.1,0.2-0.2c0,0,0-0.1,0.1-0.1
			c0.1-0.1,0.1-0.2,0.2-0.2l0,0c0.1,0,0.1-0.1,0.2-0.1c0,0,0,0,0,0c0,0,0,0,0.1,0c0.1,0,0.1,0,0.1,0
			C117.8,133.6,118,133.4,118.2,133.3C118.2,133.3,118.2,133.3,118.2,133.3z M113.7,135.3C113.7,135.3,113.7,135.3,113.7,135.3
			c-0.1,0-0.1-0.1-0.2-0.1c-0.2-0.3-0.1-0.6,0.2-0.8c0,0,0.1,0,0.1-0.1l0,0c0,0,0,0,0,0c0,0,0,0,0,0c0,0,0,0,0,0c0,0.1,0,0.3,0,0.5
			C113.9,134.9,113.8,135.1,113.7,135.3z M114.4,135.1C114.4,135.1,114.4,135,114.4,135.1c-0.1-0.1-0.1-0.1-0.1-0.1
			c0-0.1,0-0.2,0-0.3c0,0,0,0,0,0l0,0c0,0,0,0,0,0c0,0,0,0,0,0C114.6,134.8,114.4,135,114.4,135.1z M115.7,134.3
			c-0.1-0.2-0.2-0.3,0-0.5c0,0,0,0,0,0c0,0,0,0,0,0c0,0,0,0,0,0c0,0,0,0,0,0c0,0,0,0.1,0,0.1C115.8,134.1,115.7,134.2,115.7,134.3z
			 M116.4,134.2C116.3,134.2,116.3,134.2,116.4,134.2L116.4,134.2c-0.1-0.1-0.1-0.1-0.1-0.2c0,0,0-0.1,0-0.2l0,0c0,0,0.1,0,0.1,0
			c0,0,0,0,0,0c0,0,0,0,0,0c0,0,0,0.1,0,0.2C116.4,134.1,116.4,134.1,116.4,134.2z"/>
	</g>
	<g>
		<g class="st6">
			<polygon class="st7" points="44.3,61.7 57.4,69.5 44.2,77.4 31.1,69.5 			"/>
			<polygon class="st7" points="48.6,69 61.7,76.8 48.6,84.7 35.5,76.8 			"/>
			<polygon class="st7" points="42.1,71.2 55.2,79 42.1,86.9 29,79 			"/>
			<polygon class="st7" points="46.5,78.5 59.5,86.3 46.4,94.2 33.3,86.3 			"/>
			<polygon class="st7" points="63.9,60.3 77,68.2 63.8,76 50.8,68.2 			"/>
			<polygon class="st7" points="68.3,67.6 81.3,75.5 68.2,83.3 55.1,75.5 			"/>
			<polygon class="st7" points="61.8,69.8 74.8,77.7 61.7,85.5 48.6,77.7 			"/>
			<polygon class="st7" points="66.1,77.1 79.2,85 66,92.8 52.9,85 			"/>
			<polygon class="st7" points="54.1,80.1 67.1,88 54,95.9 40.9,88 			"/>
			<polygon class="st7" points="58.4,87.5 71.5,95.3 58.3,103.2 45.2,95.3 			"/>
			<polygon class="st7" points="51.9,89.6 65,97.5 51.8,105.3 38.7,97.5 			"/>
			<polygon class="st8" points="56.2,96.9 69.3,104.8 56.1,112.7 43.1,104.8 			"/>
			<polygon class="st8" points="76,71.9 89,79.8 75.9,87.7 62.8,79.8 			"/>
			<polygon class="st7" points="80.3,79.3 93.4,87.1 80.2,95 67.1,87.1 			"/>
			<polygon class="st7" points="73.8,81.4 86.9,89.3 73.7,97.1 60.6,89.3 			"/>
			<polygon class="st7" points="78.1,88.7 91.2,96.6 78,104.5 65,96.6 			"/>
			<polygon class="st7" points="96.5,60.6 109.6,68.5 96.4,76.3 83.4,68.5 			"/>
			<polygon class="st7" points="100.8,67.9 113.9,75.8 100.8,83.6 87.7,75.8 			"/>
			<polygon class="st7" points="94.3,70.1 107.4,78 94.3,85.8 81.2,78 			"/>
			<polygon class="st7" points="98.7,77.4 111.7,85.3 98.6,93.1 85.5,85.3 			"/>
			<polygon class="st7" points="99.8,75.6 112.8,83.5 99.7,91.3 86.6,83.5 			"/>
			<polygon class="st7" points="104.1,82.9 117.2,90.8 104,98.6 90.9,90.8 			"/>
			<polygon class="st7" points="97.6,85.1 110.7,93 97.5,100.8 84.4,93 			"/>
			<polygon class="st7" points="101.9,92.4 115,100.3 101.8,108.1 88.8,100.3 			"/>
			<polygon class="st7" points="80.3,91.9 93.4,99.7 80.2,107.6 67.1,99.7 			"/>
			<polygon class="st7" points="84.6,99.2 97.7,107 84.5,114.9 71.5,107 			"/>
			<polygon class="st7" points="78.1,101.4 91.2,109.2 78,117.1 65,109.2 			"/>
			<polygon class="st7" points="82.5,108.7 95.5,116.5 82.4,124.4 69.3,116.5 			"/>
			<polygon class="st7" points="78.1,111.5 91.2,119.4 78,127.2 65,119.4 			"/>
			<polygon class="st7" points="82.5,118.8 95.5,126.7 82.4,134.5 69.3,126.7 			"/>
			<polygon class="st7" points="76,121 89,128.8 75.9,136.7 62.8,128.8 			"/>
			<polygon class="st7" points="42,100.8 55.1,108.7 41.9,116.5 28.9,108.7 			"/>
			<polygon class="st7" points="46.4,108.1 59.4,116 46.3,123.8 33.2,116 			"/>
			<polygon class="st7" points="39.9,110.3 52.9,118.2 39.8,126 26.7,118.2 			"/>
			<polygon class="st7" points="44.2,117.6 57.3,125.5 44.1,133.3 31,125.5 			"/>
			<polygon class="st7" points="32.3,76.1 45.3,84 32.2,91.9 19.1,84 			"/>
			<polygon class="st7" points="36.6,83.5 49.7,91.3 36.5,99.2 23.5,91.3 			"/>
			<polygon class="st7" points="30.1,85.6 43.2,93.5 30,101.4 17,93.5 			"/>
			<polygon class="st7" points="34.4,92.9 47.5,100.8 34.4,108.7 21.3,100.8 			"/>
			<g>
				<polygon class="st7" points="56.6,58.6 61.8,61.8 56.6,64.9 51.4,61.8 				"/>
				<polygon class="st7" points="58.3,61.5 63.5,64.7 58.3,67.8 53.1,64.7 				"/>
				<polygon class="st7" points="51.8,66.8 57,70 51.8,73.1 46.6,70 				"/>
				<polygon class="st7" points="53.5,69.8 58.7,72.9 53.5,76 48.3,72.9 				"/>
				<polygon class="st7" points="47.9,57 53.1,60.2 47.9,63.3 42.7,60.2 				"/>
				<polygon class="st7" points="49.7,59.9 54.9,63.1 49.6,66.2 44.4,63.1 				"/>
			</g>
			<g>
				<polygon class="st7" points="135.1,95.3 140.3,98.4 135,101.5 129.8,98.4 				"/>
				<polygon class="st7" points="136.8,98.2 142,101.3 136.8,104.4 131.6,101.3 				"/>
				<polygon class="st7" points="130.3,103.5 135.5,106.6 130.2,109.7 125,106.6 				"/>
				<polygon class="st7" points="132,106.4 137.2,109.5 132,112.7 126.8,109.5 				"/>
				<polygon class="st7" points="126.4,93.7 131.6,96.8 126.4,99.9 121.2,96.8 				"/>
				<polygon class="st7" points="128.1,96.6 133.3,99.7 128.1,102.8 122.9,99.7 				"/>
			</g>
			<g>
				<path class="st7" d="M146.8,132.1"/>
				<polygon class="st7" points="141.2,119.4 146.4,122.5 141.1,125.6 135.9,122.5 				"/>
			</g>
			<g>
				<polygon class="st7" points="99,120.6 104.2,123.8 99,126.9 93.8,123.8 				"/>
				<polygon class="st7" points="100.8,123.5 106,126.7 100.7,129.8 95.5,126.7 				"/>
				<polygon class="st7" points="94.3,128.9 99.4,132 94.2,135.1 89,132 				"/>
				<polygon class="st7" points="96,131.8 101.2,134.9 95.9,138 90.7,134.9 				"/>
				<polygon class="st7" points="90.4,119.1 95.6,122.2 90.3,125.3 85.1,122.2 				"/>
				<polygon class="st7" points="92.1,122 97.3,125.1 92.1,128.2 86.9,125.1 				"/>
			</g>
			<g>
				<polygon class="st7" points="14.4,82.5 19.6,85.6 14.3,88.7 9.1,85.6 				"/>
				<polygon class="st7" points="16.1,85.4 21.3,88.5 16.1,91.6 10.9,88.5 				"/>
			</g>
			<g>
				<polygon class="st7" points="24.8,58 30,61.2 24.7,64.3 19.5,61.2 				"/>
				<polygon class="st7" points="26.5,60.9 31.7,64.1 26.5,67.2 21.3,64.1 				"/>
				<polygon class="st7" points="20,66.2 25.2,69.4 20,72.5 14.8,69.4 				"/>
				<polygon class="st7" points="21.7,69.2 26.9,72.3 21.7,75.4 16.5,72.3 				"/>
				<polygon class="st7" points="16.1,56.4 21.3,59.6 16.1,62.7 10.9,59.6 				"/>
				<polygon class="st7" points="17.8,59.3 23,62.5 17.8,65.6 12.6,62.5 				"/>
			</g>
			<g>
				<polygon class="st7" points="59.1,44 64.3,47.1 59,50.3 53.8,47.1 				"/>
				<polygon class="st7" points="60.8,46.9 66,50 60.8,53.2 55.6,50 				"/>
				<polygon class="st7" points="54.3,52.2 59.5,55.3 54.3,58.5 49.1,55.3 				"/>
				<polygon class="st7" points="56,55.1 61.2,58.3 56,61.4 50.8,58.3 				"/>
				<polygon class="st8" points="50.4,42.4 55.6,45.5 50.4,48.7 45.2,45.5 				"/>
				<polygon class="st8" points="52.1,45.3 57.3,48.4 52.1,51.6 46.9,48.4 				"/>
			</g>
			<g>
				<polygon class="st7" points="103.7,64.7 108.9,67.8 103.7,71 98.5,67.8 				"/>
				<polygon class="st7" points="105.4,67.6 110.6,70.7 105.4,73.9 100.2,70.7 				"/>
				<polygon class="st7" points="98.9,72.9 104.1,76 98.9,79.2 93.7,76 				"/>
				<polygon class="st7" points="100.7,75.8 105.8,79 100.6,82.1 95.4,79 				"/>
				<polygon class="st7" points="95,63.1 100.2,66.2 95,69.4 89.8,66.2 				"/>
				<polygon class="st7" points="96.8,66 102,69.1 96.7,72.3 91.5,69.1 				"/>
			</g>
			<polygon class="st7" points="77,40.5 90.1,48.3 77,56.2 63.9,48.3 			"/>
			<polygon class="st7" points="81.4,47.8 94.4,55.6 81.3,63.5 68.2,55.6 			"/>
			<polygon class="st7" points="74.9,50 87.9,57.8 74.8,65.7 61.7,57.8 			"/>
			<polygon class="st7" points="79.2,57.3 92.3,65.1 79.1,73 66,65.1 			"/>
			<polygon class="st7" points="128.9,58.1 142,65.9 128.9,73.8 115.8,65.9 			"/>
			<polygon class="st7" points="133.3,65.4 146.4,73.2 133.2,81.1 120.1,73.2 			"/>
			<polygon class="st7" points="126.8,67.5 139.8,75.4 126.7,83.3 113.6,75.4 			"/>
			<polygon class="st7" points="131.1,74.9 144.2,82.7 131,90.6 118,82.7 			"/>
			<polygon class="st7" points="120.3,85.2 133.4,93.1 120.3,101 107.2,93.1 			"/>
			<polygon class="st7" points="124.7,92.5 137.7,100.4 124.6,108.3 111.5,100.4 			"/>
			<polygon class="st7" points="118.2,94.7 131.2,102.6 118.1,110.4 105,102.6 			"/>
			<polygon class="st7" points="122.5,102 135.6,109.9 122.4,117.7 109.4,109.9 			"/>
			<polygon class="st7" points="120.7,109.6 133.7,117.5 120.6,125.3 107.5,117.5 			"/>
			<polygon class="st7" points="125,116.9 138.1,124.8 124.9,132.6 111.9,124.8 			"/>
			<polygon class="st7" points="118.5,119.1 131.6,126.9 118.4,134.8 105.3,126.9 			"/>
		</g>
	</g>
	<g>
		<path class="st9" d="M38.1,59.7L3.9,79.4v0c-0.7,0.4-1.2,1-1.2,1.7c0,0.7,0.5,1.3,1.2,1.7v0l15.7,9.1h0.1c0.6,0.3,1.4,0.4,2.2,0.4
			c0.8,0,1.6-0.2,2.2-0.4h0l0.2-0.1c0.1-0.1,0.2-0.1,0.3-0.2L58.4,72v0c0.7-0.4,1.2-1,1.2-1.7c0-0.7-0.5-1.3-1.2-1.7l-15.2-8.8
			c-0.1-0.1-0.2-0.2-0.4-0.2l-0.1,0h0c-0.6-0.3-1.4-0.5-2.3-0.5C39.6,59.2,38.7,59.4,38.1,59.7L38.1,59.7z"/>
		<path class="st10" d="M36.6,61.2L9.1,77.1V76l-3,0.3l0,2.3c0,0.6,0.4,1.1,1,1.4v0l13.5,7.8h0.1c0.5,0.2,1.2,0.4,1.9,0.4
			c0.7,0,1.4-0.1,1.9-0.4h0l0.1-0.1c0.1-0.1,0.2-0.1,0.3-0.2l29.2-16.8v0c0.6-0.4,1-0.9,1-1.4v-2.3l-3-0.3L51,67.3l-10-5.8
			c-0.1-0.1-0.2-0.1-0.3-0.2l0,0h0c-0.6-0.3-1.2-0.4-2-0.4C37.9,60.8,37.2,61,36.6,61.2L36.6,61.2z"/>
		<path class="st11" d="M36.6,57.8l-29.5,17v0c-0.6,0.4-1,0.9-1,1.4c0,0.6,0.4,1.1,1,1.4v0l13.5,7.8h0.1c0.5,0.2,1.2,0.4,1.9,0.4
			c0.7,0,1.4-0.1,1.9-0.4h0l0.1-0.1c0.1-0.1,0.2-0.1,0.3-0.2l29.2-16.8v0c0.6-0.4,1-0.9,1-1.4c0-0.6-0.4-1.1-1-1.4L41,58
			c-0.1-0.1-0.2-0.1-0.3-0.2l0,0h0c-0.6-0.3-1.2-0.4-2-0.4C37.9,57.4,37.2,57.6,36.6,57.8L36.6,57.8z"/>
		
			<linearGradient id="SVGID_2_" gradientUnits="userSpaceOnUse" x1="1130.1158" y1="71.1182" x2="1172.2045" y2="71.1182" gradientTransform="matrix(-1 0 0 1 1182.7672 0)">
			<stop  offset="0" style="stop-color:#4655A4"/>
			<stop  offset="1" style="stop-color:#6FC8C4"/>
		</linearGradient>
		<polygon class="st12" points="36.6,59 52.7,68.2 26.6,83.3 10.6,74 		"/>
		<polygon class="st13" points="36.5,59.4 51.9,68.3 26.7,82.8 11.4,73.9 		"/>
		<path class="st10" d="M15.1,78.3c0.7,0,1.3,0.5,1.3,1.1c0,0.6-0.6,1.1-1.3,1.1c-0.7,0-1.3-0.5-1.3-1.1
			C13.8,78.8,14.4,78.3,15.1,78.3"/>
		<polygon class="st14" points="30.7,55 29.4,54.2 34.2,46 35.6,46.8 		"/>
		<polygon class="st14" points="34.1,46 32.7,45.2 38,40.5 39.4,41.3 		"/>
		<polygon class="st14" points="24.2,55.7 22.8,54.9 29.4,54.2 30.8,55.1 		"/>
		<polygon class="st14" points="15.1,71.2 13.7,70.4 22.8,54.9 24.3,55.7 		"/>
		<polygon class="st15" points="34.1,46 39.4,41.3 38,48.2 36.5,47.4 31.1,56.7 24.5,57.4 16,71.8 15.1,71.2 24.2,55.7 30.7,55 
			35.5,46.8 		"/>
		<path class="st16" d="M39.8,69.9l-4.2-2.4l0.1-15.2c1.4,0.6,2.9,1.5,4.1,2.4L39.8,69.9z"/>
		<path class="st17" d="M39.8,54.7c-1.4-0.8-2.7-1.6-4.1-2.4l4.4-2.5l4.1,2.4L39.8,54.7z"/>
		<path class="st17" d="M44.2,52.2l-0.1,15.2l-4.4,2.5l0.1-15.2C41.2,53.7,42.7,52.9,44.2,52.2"/>
		<polygon class="st15" points="34.1,73.1 30,70.7 30.1,61.4 34.1,63.8 		"/>
		<polygon class="st18" points="34.1,63.9 30.1,61.5 34.5,58.9 38.6,61.4 		"/>
		<polygon class="st18" points="38.6,61.4 38.5,70.6 34.1,73.1 34.1,63.8 		"/>
		<polygon class="st19" points="28.5,76.3 24.4,73.9 24.5,62.1 28.5,64.5 		"/>
		<polygon class="st16" points="28.6,64.6 24.5,62.1 28.9,59.7 32.9,62 		"/>
		<polygon class="st16" points="32.9,62 32.9,73.8 28.4,76.3 28.5,64.5 		"/>
		<polygon class="st14" points="22.9,79.4 18.8,77 18.9,70.6 22.9,72.9 		"/>
		<path class="st15" d="M22.9,73c-1.4-0.8-2.7-1.5-4.1-2.4l4.4-2.4l4,2.4L22.9,73z"/>
		<polygon class="st15" points="27.2,70.5 27.2,76.9 22.7,79.4 22.8,72.9 		"/>
		<path class="st20" d="M18.4,76.5C18.4,76.5,18.4,76.5,18.4,76.5C18.4,76.5,18.4,76.5,18.4,76.5"/>
		<path class="st20" d="M18.7,76.3C18.7,76.3,18.7,76.3,18.7,76.3C18.7,76.3,18.7,76.3,18.7,76.3"/>
	</g>
	<g>
		<g>
			<g class="st21">
				<g>
					<path class="st22" d="M73.4,15.5c0.4-0.2,0.9-0.3,1.4-0.2c0.3,0.1,0.7,0.2,1,0.4c0.3,0.2,0.7,0.5,1,0.8l-1.6,0.9
						c-0.3-0.3-0.7-0.6-1-0.8c-0.4-0.2-0.7-0.3-1-0.4c-0.5-0.1-1,0-1.4,0.2L73.4,15.5z"/>
					<path class="st22" d="M78,14.6c0.4-0.3,1-0.3,1.6-0.2c0.4,0.1,0.8,0.2,1.2,0.5c0.7,0.4,1.4,1,1.9,1.7c1.1,1.3,1.8,2.9,2,4.5
						c0.3,0.1,0.7,0.2,1,0.4c0.6,0.3,1.2,0.9,1.7,1.5c1.1,1.3,1.8,3,1.8,4.5c0,1.1-0.4,1.9-1,2.2l-1.6,0.9c0.6-0.4,1-1.1,1-2.2
						c0-1.5-0.7-3.2-1.8-4.5c-0.5-0.6-1.1-1.1-1.7-1.5c-0.3-0.2-0.7-0.3-1-0.4c-0.2-1.5-0.9-3.2-2-4.5c-0.6-0.7-1.2-1.3-1.9-1.7
						c-0.4-0.2-0.8-0.4-1.2-0.5c-0.6-0.1-1.2-0.1-1.6,0.2L78,14.6z"/>
				</g>
				<g>
					<path class="st23" d="M79.3,15.8c-2-1.2-3.7-0.4-4,1.6c-0.3-0.3-0.7-0.6-1-0.8c-1.9-1.1-3.5-0.2-3.5,2c0,2.2,1.5,4.9,3.4,6
						l9.9,5.7c1.9,1.1,3.5,0.2,3.5-2c0-2.2-1.5-4.9-3.4-6c-0.3-0.2-0.7-0.3-1-0.4C83,19.6,81.3,16.9,79.3,15.8z"/>
				</g>
			</g>
		</g>
		<polygon class="st23" points="81.4,29.9 94.9,37.7 94.3,38 80.8,30.2 		"/>
		<path class="st23" d="M70.6,23.9c-0.1,0.2-0.2,0.3-0.3,0.5l5.9,3.4l0.6-0.3L70.6,23.9z"/>
	</g>
	<g>
		<g>
			<path class="st24" d="M4.7,60.2c0.8-0.2,1.8-0.5,1.8,0.8c0,0.9-0.6,2.1-1.8,2.9l0,0.7l-0.5,0.3l0-0.7c-1,0.5-1.8,0.3-1.8-0.8
				l1.4-0.8c0,0.3,0.2,0.5,0.4,0.4l0-1.4c-0.8,0.2-1.8,0.5-1.8-0.8c0-1.1,0.8-2.2,1.8-2.8l0-0.7l0.5-0.3l0,0.7
				c1-0.5,1.7-0.3,1.8,0.8l-1.4,0.8c0-0.3-0.2-0.4-0.4-0.4L4.7,60.2z M4.7,62.7c0.3-0.2,0.5-0.6,0.5-0.9c0-0.3-0.2-0.4-0.5-0.3
				L4.7,62.7 M4.2,60.3l0-1.2c-0.3,0.2-0.5,0.5-0.5,0.8C3.8,60.2,3.9,60.3,4.2,60.3"/>
		</g>
		<g>
			<path class="st25" d="M28.9,27.9c0.8-0.2,1.8-0.5,1.8,0.8c0,0.9-0.6,2.1-1.8,2.9l0,0.7l-0.5,0.3l0-0.7c-1,0.5-1.8,0.3-1.8-0.8
				l1.4-0.8c0,0.3,0.2,0.5,0.4,0.4l0-1.4c-0.8,0.2-1.8,0.5-1.8-0.8c0-1.1,0.8-2.2,1.8-2.8l0-0.7l0.5-0.3l0,0.7
				c1-0.5,1.7-0.3,1.8,0.8l-1.4,0.8c0-0.3-0.2-0.4-0.4-0.4L28.9,27.9z M28.9,30.4c0.3-0.2,0.5-0.6,0.5-0.9c0-0.3-0.2-0.4-0.5-0.3
				L28.9,30.4 M28.4,28l0-1.2c-0.3,0.2-0.5,0.5-0.5,0.8C27.9,27.9,28.1,28,28.4,28"/>
		</g>
		<g>
			<path class="st26" d="M14.9,42.4c0.6-0.2,1.4-0.4,1.4,0.6c0,0.7-0.5,1.7-1.4,2.2l0,0.5L14.6,46l0-0.6c-0.8,0.4-1.4,0.2-1.4-0.6
				l1.1-0.6c0,0.3,0.1,0.4,0.3,0.3l0-1.1c-0.6,0.2-1.4,0.4-1.4-0.6c0-0.8,0.6-1.7,1.4-2.2l0-0.5l0.4-0.2l0,0.5
				c0.8-0.4,1.3-0.2,1.4,0.6l-1.1,0.6c0-0.2-0.1-0.3-0.3-0.3L14.9,42.4z M14.9,44.4c0.2-0.2,0.4-0.4,0.4-0.7c0-0.2-0.2-0.3-0.4-0.3
				L14.9,44.4 M14.6,42.5l0-0.9c-0.2,0.2-0.4,0.4-0.3,0.7C14.2,42.5,14.4,42.5,14.6,42.5"/>
		</g>
		<g>
			<path class="st24" d="M6.7,26.2c0.6-0.2,1.4-0.4,1.4,0.6c0,0.7-0.5,1.7-1.4,2.2l0,0.5l-0.4,0.2l0-0.6c-0.8,0.4-1.4,0.2-1.4-0.6
				L6,28c0,0.3,0.1,0.4,0.3,0.3l0-1.1c-0.6,0.2-1.4,0.4-1.4-0.6c0-0.8,0.6-1.7,1.4-2.2l0-0.5l0.4-0.2l0,0.5C7.5,23.9,8,24,8.1,24.9
				L7,25.5c0-0.2-0.1-0.3-0.3-0.3L6.7,26.2z M6.7,28.2c0.2-0.2,0.4-0.4,0.4-0.7c0-0.2-0.2-0.3-0.4-0.3L6.7,28.2 M6.3,26.3l0-0.9
				C6.1,25.5,6,25.7,6,26C6,26.2,6.1,26.3,6.3,26.3"/>
		</g>
		<g>
			<path class="st27" d="M70.1,78.5l10.4-6c0.4-0.3,1-0.3,1.4,0l24.6,14.2c0.4,0.2,0.4,0.8,0,1.1l-10.2,5.9c-0.5,0.3-1.2,0.3-1.7,0
				L70.1,79.4C69.7,79.2,69.7,78.7,70.1,78.5z"/>
			<path class="st3" d="M70.1,79.4l24.6,14.2c0.5,0.3,1.2,0.3,1.7,0l10.2-5.9c0.2-0.1,0.3-0.3,0.3-0.5v1.3c0,0,0,0,0,0v0l0,0
				c0,0.2-0.1,0.4-0.3,0.5l-10.2,5.9c-0.5,0.3-1.2,0.3-1.7,0L70.1,80.7c-0.2-0.1-0.3-0.3-0.3-0.5l0,0v-1.3
				C69.8,79.1,69.9,79.3,70.1,79.4z"/>
			<path class="st3" d="M70.1,79.4l24.6,14.2c0.2,0.1,0.5,0.2,0.8,0.2v1.3c-0.3,0-0.5-0.1-0.8-0.2L70.1,80.7
				c-0.2-0.1-0.3-0.3-0.3-0.5l0,0v-1.3C69.8,79.1,69.9,79.3,70.1,79.4z"/>
		</g>
		<g>
			<g>
				<polygon class="st28" points="58.1,23.2 116.3,57 116.3,99.8 58.1,65.9 				"/>
				<polygon class="st3" points="116.3,57 118.2,55.8 118.2,98.6 116.3,99.8 				"/>
				<polygon class="st29" points="58.1,23.2 60,22 118.2,55.8 116.3,57 				"/>
			</g>
			<path class="st0" d="M58.1,23.2l0,42.7l58.2,33.9l0-42.9L58.1,23.2z M114.9,97.4L59.4,65.1l0-39.5l55.5,32.2L114.9,97.4z"/>
		</g>
		<g>
			<g>
				<g>
					<polygon class="st27" points="124,37.4 146,50 146,76.3 124,63.6 					"/>
					<polygon class="st30" points="146,50 147.6,49.1 147.6,75.3 146,76.3 					"/>
					<polygon class="st4" points="124,37.4 125.7,36.5 147.6,49.1 146,50 					"/>
				</g>
			</g>
			<polygon class="st31" points="125.9,40.7 144.1,51.2 144.1,73 125.9,62.4 			"/>
			<polygon class="st32" points="127.2,55.5 127.2,61.4 130.5,63.3 130.5,57.4 			"/>
			<g>
				<polygon class="st32" points="125.5,59.9 125.5,60.5 126.6,61.1 126.6,60.5 				"/>
				<polygon class="st27" points="125.5,57.7 125.5,58.3 126.6,58.9 126.6,58.3 				"/>
				<polygon class="st27" points="125.5,55.5 125.5,56.1 126.6,56.7 126.6,56.1 				"/>
				<polygon class="st27" points="125.5,53.3 125.5,53.9 126.6,54.5 126.6,53.9 				"/>
				<polygon class="st27" points="125.5,51.1 125.5,51.7 126.6,52.3 126.6,51.7 				"/>
				<polygon class="st27" points="125.5,49 125.5,49.5 126.6,50.1 126.6,49.5 				"/>
				<polygon class="st27" points="125.5,46.8 125.5,47.3 126.6,47.9 126.6,47.4 				"/>
				<polygon class="st27" points="125.5,44.6 125.5,45.1 126.6,45.7 126.6,45.2 				"/>
			</g>
			<polygon class="st28" points="131.3,52.9 131.3,63.8 134.6,65.7 134.6,54.8 			"/>
			<polygon class="st25" points="135.4,56.8 135.4,66.1 138.7,68.1 138.7,58.7 			"/>
			<polygon class="st25" points="139.5,53.5 139.5,68.5 142.8,70.4 142.8,55.4 			"/>
		</g>
		<g>
			<g>
				<g>
					<polygon class="st27" points="97.2,10.9 119.1,23.5 119.1,49.7 97.2,37 					"/>
					<polygon class="st30" points="119.1,23.5 120.8,22.5 120.8,48.7 119.1,49.7 					"/>
					<polygon class="st4" points="97.2,10.9 98.9,9.9 120.8,22.5 119.1,23.5 					"/>
				</g>
			</g>
			<polygon class="st31" points="99.1,14.1 117.3,24.6 117.3,46.4 99.1,35.8 			"/>
			<g>
				<polygon class="st27" points="98.7,33.3 98.7,33.9 99.8,34.5 99.8,33.9 				"/>
				<polygon class="st27" points="98.7,31.1 98.7,31.7 99.8,32.3 99.8,31.7 				"/>
				<polygon class="st27" points="98.7,28.9 98.7,29.5 99.8,30.1 99.8,29.5 				"/>
				<polygon class="st27" points="98.7,26.8 98.7,27.3 99.8,27.9 99.8,27.3 				"/>
				<polygon class="st27" points="98.7,24.6 98.7,25.1 99.8,25.7 99.8,25.2 				"/>
				<polygon class="st27" points="98.7,22.4 98.7,22.9 99.8,23.5 99.8,23 				"/>
				<polygon class="st27" points="98.7,20.2 98.7,20.8 99.8,21.4 99.8,20.8 				"/>
				<polygon class="st27" points="98.7,18 98.7,18.6 99.8,19.2 99.8,18.6 				"/>
			</g>
		</g>
		<g>
			<polygon class="st0" points="107.7,116.3 72.8,136 50.5,123.2 85.4,103.4 			"/>
			<g>
				<polygon class="st33" points="79.6,135.6 79.6,136.3 114.5,116.4 114.5,115.8 				"/>
				<polygon class="st34" points="114.5,115.8 79.6,135.6 57.4,122.7 92.3,102.9 				"/>
				<polygon class="st35" points="79.6,135.6 79.6,136.3 57.4,123.5 57.4,122.7 				"/>
			</g>
			<polygon class="st3" points="92,105 105.5,112.8 104.9,113.1 91.4,105.4 			"/>
			<polygon class="st3" points="90.6,105.8 104.1,113.6 103.5,113.9 90,106.2 			"/>
			<polygon class="st3" points="87.4,107.7 105.9,118.3 105.3,118.7 86.8,108 			"/>
			<polygon class="st3" points="86.1,108.4 104.6,119.1 104,119.4 85.5,108.7 			"/>
			<polygon class="st3" points="84.8,109.1 103.3,119.8 102.7,120.1 84.2,109.5 			"/>
			<polygon class="st3" points="83.5,109.8 102,120.5 101.5,120.9 83,110.2 			"/>
			<polygon class="st3" points="82.3,110.6 100.8,121.3 100.2,121.6 81.7,110.9 			"/>
			<polygon class="st3" points="81,111.3 99.5,122 98.9,122.3 80.4,111.6 			"/>
			<polygon class="st3" points="79.7,112 98.2,122.7 97.6,123 79.1,112.4 			"/>
			<polygon class="st3" points="78.4,112.8 96.9,123.4 96.3,123.8 77.8,113.1 			"/>
			<polygon class="st3" points="77.1,113.5 95.6,124.2 95,124.5 76.5,113.8 			"/>
			<polygon class="st3" points="75.9,114.2 94.4,124.9 93.8,125.2 75.3,114.5 			"/>
			<polygon class="st3" points="74.6,114.9 93.1,125.6 92.5,125.9 74,115.3 			"/>
			<polygon class="st3" points="73.3,115.7 91.8,126.3 91.2,126.7 72.7,116 			"/>
			<polygon class="st3" points="72,116.4 90.5,127.1 89.9,127.4 71.4,116.7 			"/>
			<polygon class="st3" points="70.7,117.1 89.2,127.8 88.6,128.1 70.1,117.4 			"/>
			<polygon class="st3" points="69.5,117.8 88,128.5 87.4,128.9 68.9,118.2 			"/>
			<g>
				<path class="st25" d="M84.4,125.6c-1.7-1-4.5-1-6.2,0c-0.5,0.3-0.9,0.7-1.1,1.1l-6.1,1.2l1,0.2l1.6,0.4l-0.9,0.8l-0.5,0.5
					l5.5-1.1c0.2,0.1,0.3,0.3,0.5,0.4c0.2,0.1,0.4,0.2,0.7,0.3l-1.8,3.2l0.9-0.3l1.5-0.5l0.7,0.9l0.4,0.6l2-3.5
					c0.7-0.1,1.3-0.3,1.9-0.6C86.1,128.1,86.1,126.5,84.4,125.6z"/>
				<path class="st26" d="M78.6,127.2c0,0.9,1.3,1.6,2.8,1.6c1.5,0,2.8-0.7,2.8-1.6c0-0.9-1.3-1.6-2.8-1.6
					C79.8,125.7,78.6,126.4,78.6,127.2z"/>
			</g>
		</g>
		<g>
			<g>
				<g>
					<path class="st3" d="M79.4,102.4v1.1c0,1.5-2.3,2.8-5.2,2.8c-2.8,0-5.2-1.3-5.2-2.8v-1.1L79.4,102.4z"/>
					<path class="st0" d="M69.1,102.4c0,1.5,2.3,2.8,5.2,2.8c2.8,0,5.2-1.3,5.2-2.8c0-1.5-2.3-2.8-5.2-2.8
						C71.4,99.6,69.1,100.9,69.1,102.4z"/>
					<path class="st36" d="M70.3,102.4c0,1.2,1.8,2.1,4,2.1c2.2,0,4-0.9,4-2.1s-1.8-2.1-4-2.1C72,100.3,70.3,101.2,70.3,102.4z"/>
					<path class="st37" d="M76,101.5l0.4-0.2l-0.3-0.2l-0.4,0.2c-0.7-0.3-1.5-0.4-2-0.1c-0.7,0.4-0.2,0.8,0.1,1.2l-0.7,0.4
						c-0.1-0.1-0.1-0.2,0.1-0.4l-0.8-0.5c-0.6,0.3-0.4,0.8,0.1,1.2l-0.4,0.2l0.3,0.2l0.4-0.2c0.7,0.4,1.6,0.4,2,0.1
						c0.7-0.4,0.2-0.8-0.1-1.2l0.7-0.4c0.1,0.1,0.1,0.2-0.1,0.3l0.8,0.5C76.6,102.3,76.5,101.9,76,101.5z M74,103
						c-0.2,0.1-0.4,0.1-0.6,0l0.6-0.4C74.1,102.8,74.1,103,74,103z M74.5,102.1c-0.1-0.1-0.1-0.3,0.1-0.3c0.2-0.1,0.4-0.1,0.6,0
						L74.5,102.1z"/>
				</g>
				<g>
					<path class="st3" d="M79.4,101v1.1c0,1.5-2.3,2.8-5.2,2.8c-2.8,0-5.2-1.3-5.2-2.8V101L79.4,101z"/>
					<path class="st0" d="M69.1,101c0,1.5,2.3,2.8,5.2,2.8c2.8,0,5.2-1.3,5.2-2.8c0-1.5-2.3-2.8-5.2-2.8
						C71.4,98.2,69.1,99.4,69.1,101z"/>
					<path class="st36" d="M70.3,100.9c0,1.2,1.8,2.1,4,2.1c2.2,0,4-0.9,4-2.1c0-1.2-1.8-2.1-4-2.1C72,98.8,70.3,99.8,70.3,100.9z"
						/>
					<path class="st37" d="M76,100.1l0.4-0.2l-0.3-0.2l-0.4,0.2c-0.7-0.3-1.5-0.4-2-0.1c-0.7,0.4-0.2,0.8,0.1,1.2l-0.7,0.4
						c-0.1-0.1-0.1-0.2,0.1-0.4l-0.8-0.5c-0.6,0.3-0.4,0.8,0.1,1.2l-0.4,0.2l0.3,0.2l0.4-0.2c0.7,0.4,1.6,0.4,2,0.1
						c0.7-0.4,0.2-0.8-0.1-1.2l0.7-0.4c0.1,0.1,0.1,0.2-0.1,0.3l0.8,0.5C76.6,100.9,76.5,100.5,76,100.1z M74,101.6
						c-0.2,0.1-0.4,0.1-0.6,0l0.6-0.4C74.1,101.4,74.1,101.5,74,101.6z M74.5,100.6c-0.1-0.1-0.1-0.3,0.1-0.3c0.2-0.1,0.4-0.1,0.6,0
						L74.5,100.6z"/>
				</g>
				<g>
					<path class="st3" d="M79.4,99.5v1.1c0,1.5-2.3,2.8-5.2,2.8c-2.8,0-5.2-1.3-5.2-2.8v-1.1H79.4z"/>
					<path class="st0" d="M69.1,99.5c0,1.5,2.3,2.8,5.2,2.8c2.8,0,5.2-1.3,5.2-2.8c0-1.5-2.3-2.8-5.2-2.8
						C71.4,96.7,69.1,97.9,69.1,99.5z"/>
					<path class="st36" d="M70.3,99.4c0,1.2,1.8,2.1,4,2.1c2.2,0,4-0.9,4-2.1s-1.8-2.1-4-2.1C72,97.3,70.3,98.3,70.3,99.4z"/>
					<path class="st37" d="M76,98.6l0.4-0.2l-0.3-0.2l-0.4,0.2c-0.7-0.3-1.5-0.4-2-0.1c-0.7,0.4-0.2,0.8,0.1,1.2l-0.7,0.4
						c-0.1-0.1-0.1-0.2,0.1-0.4l-0.8-0.5c-0.6,0.3-0.4,0.8,0.1,1.2l-0.4,0.2l0.3,0.2l0.4-0.2c0.7,0.4,1.6,0.4,2,0.1
						c0.7-0.4,0.2-0.8-0.1-1.2l0.7-0.4c0.1,0.1,0.1,0.2-0.1,0.3l0.8,0.5C76.6,99.4,76.5,99,76,98.6z M74,100.1
						c-0.2,0.1-0.4,0.1-0.6,0l0.6-0.4C74.1,99.9,74.1,100,74,100.1z M74.5,99.1c-0.1-0.1-0.1-0.3,0.1-0.3c0.2-0.1,0.4-0.1,0.6,0
						L74.5,99.1z"/>
				</g>
				<g>
					<path class="st3" d="M79.4,98v1.1c0,1.5-2.3,2.8-5.2,2.8c-2.8,0-5.2-1.3-5.2-2.8V98H79.4z"/>
					<path class="st29" d="M69.1,98c0,1.5,2.3,2.8,5.2,2.8c2.8,0,5.2-1.3,5.2-2.8c0-1.5-2.3-2.8-5.2-2.8
						C71.4,95.2,69.1,96.5,69.1,98z"/>
					<path class="st3" d="M70.3,98c0,1.2,1.8,2.1,4,2.1c2.2,0,4-0.9,4-2.1c0-1.2-1.8-2.1-4-2.1C72,95.9,70.3,96.8,70.3,98z"/>
					<path class="st26" d="M76,97.1l0.4-0.2l-0.3-0.2L75.7,97c-0.7-0.3-1.5-0.4-2-0.1c-0.7,0.4-0.2,0.8,0.1,1.2l-0.7,0.4
						c-0.1-0.1-0.1-0.2,0.1-0.4l-0.8-0.5c-0.6,0.3-0.4,0.8,0.1,1.2L72.1,99l0.3,0.2l0.4-0.2c0.7,0.4,1.6,0.4,2,0.1
						c0.7-0.4,0.2-0.8-0.1-1.2l0.7-0.4c0.1,0.1,0.1,0.2-0.1,0.3l0.8,0.5C76.6,97.9,76.5,97.5,76,97.1z M74,98.6
						c-0.2,0.1-0.4,0.1-0.6,0l0.6-0.4C74.1,98.4,74.1,98.5,74,98.6z M74.5,97.7c-0.1-0.1-0.1-0.3,0.1-0.3c0.2-0.1,0.4-0.1,0.6,0
						L74.5,97.7z"/>
					<path class="st25" d="M76,96.8l0.4-0.2l-0.3-0.2l-0.4,0.2c-0.7-0.3-1.5-0.4-2-0.1c-0.7,0.4-0.2,0.8,0.1,1.2l-0.7,0.4
						C73,98,73,97.9,73.2,97.8l-0.8-0.5c-0.6,0.3-0.4,0.8,0.1,1.2l-0.4,0.2l0.3,0.2l0.4-0.2c0.7,0.4,1.6,0.4,2,0.1
						c0.7-0.4,0.2-0.8-0.1-1.2l0.7-0.4c0.1,0.1,0.1,0.2-0.1,0.3l0.8,0.5C76.6,97.6,76.5,97.2,76,96.8z M74,98.3
						c-0.2,0.1-0.4,0.1-0.6,0L74,98C74.1,98.1,74.1,98.2,74,98.3z M74.5,97.4c-0.1-0.1-0.1-0.3,0.1-0.3c0.2-0.1,0.4-0.1,0.6,0
						L74.5,97.4z"/>
				</g>
			</g>
			<g>
				<g>
					<path class="st36" d="M61,107.8c0,1.2,1.8,2.1,4,2.1c2.2,0,4-0.9,4-2.1s-1.8-2.1-4-2.1C62.7,105.7,61,106.6,61,107.8z"/>
					<path class="st37" d="M66.7,106.9l0.4-0.2l-0.3-0.2l-0.4,0.2c-0.7-0.3-1.5-0.4-2-0.1c-0.7,0.4-0.2,0.8,0.1,1.2l-0.7,0.4
						c-0.1-0.1-0.1-0.2,0.1-0.4l-0.8-0.5c-0.6,0.3-0.4,0.8,0.1,1.2l-0.4,0.2l0.3,0.2l0.4-0.2c0.7,0.4,1.6,0.4,2,0.1
						c0.7-0.4,0.2-0.8-0.1-1.2l0.7-0.4c0.1,0.1,0.1,0.2-0.1,0.3l0.8,0.5C67.3,107.7,67.3,107.3,66.7,106.9z M64.7,108.4
						c-0.2,0.1-0.4,0.1-0.6,0l0.6-0.4C64.8,108.2,64.8,108.3,64.7,108.4z M65.2,107.5c-0.1-0.1-0.1-0.3,0.1-0.3
						c0.2-0.1,0.4-0.1,0.6,0L65.2,107.5z"/>
				</g>
				<g>
					<path class="st3" d="M70.1,106.3v1.1c0,1.5-2.3,2.8-5.2,2.8c-2.8,0-5.2-1.3-5.2-2.8v-1.1L70.1,106.3z"/>
					<path class="st0" d="M59.8,106.3c0,1.5,2.3,2.8,5.2,2.8c2.8,0,5.2-1.3,5.2-2.8c0-1.5-2.3-2.8-5.2-2.8
						C62.1,103.5,59.8,104.8,59.8,106.3z"/>
					<path class="st36" d="M61,106.3c0,1.2,1.8,2.1,4,2.1c2.2,0,4-0.9,4-2.1c0-1.2-1.8-2.1-4-2.1C62.7,104.2,61,105.1,61,106.3z"/>
					<path class="st37" d="M66.7,105.5l0.4-0.2l-0.3-0.2l-0.4,0.2c-0.7-0.3-1.5-0.4-2-0.1c-0.7,0.4-0.2,0.8,0.1,1.2l-0.7,0.4
						c-0.1-0.1-0.1-0.2,0.1-0.4l-0.8-0.5c-0.6,0.3-0.4,0.8,0.1,1.2l-0.4,0.2l0.3,0.2l0.4-0.2c0.7,0.4,1.6,0.4,2,0.1
						c0.7-0.4,0.2-0.8-0.1-1.2l0.7-0.4c0.1,0.1,0.1,0.2-0.1,0.3l0.8,0.5C67.3,106.3,67.3,105.8,66.7,105.5z M64.7,107
						c-0.2,0.1-0.4,0.1-0.6,0l0.6-0.4C64.8,106.7,64.8,106.9,64.7,107z M65.2,106c-0.1-0.1-0.1-0.3,0.1-0.3c0.2-0.1,0.4-0.1,0.6,0
						L65.2,106z"/>
				</g>
				<g>
					<path class="st3" d="M70.1,104.9v1.1c0,1.5-2.3,2.8-5.2,2.8c-2.8,0-5.2-1.3-5.2-2.8v-1.1H70.1z"/>
					<path class="st0" d="M59.8,104.9c0,1.5,2.3,2.8,5.2,2.8c2.8,0,5.2-1.3,5.2-2.8c0-1.5-2.3-2.8-5.2-2.8
						C62.1,102.1,59.8,103.3,59.8,104.9z"/>
					<path class="st36" d="M61,104.8c0,1.2,1.8,2.1,4,2.1c2.2,0,4-0.9,4-2.1s-1.8-2.1-4-2.1C62.7,102.7,61,103.7,61,104.8z"/>
					<path class="st37" d="M66.7,104l0.4-0.2l-0.3-0.2l-0.4,0.2c-0.7-0.3-1.5-0.4-2-0.1c-0.7,0.4-0.2,0.8,0.1,1.2l-0.7,0.4
						c-0.1-0.1-0.1-0.2,0.1-0.4l-0.8-0.5c-0.6,0.3-0.4,0.8,0.1,1.2l-0.4,0.2l0.3,0.2l0.4-0.2c0.7,0.4,1.6,0.4,2,0.1
						c0.7-0.4,0.2-0.8-0.1-1.2l0.7-0.4c0.1,0.1,0.1,0.2-0.1,0.3l0.8,0.5C67.3,104.8,67.3,104.4,66.7,104z M64.7,105.5
						c-0.2,0.1-0.4,0.1-0.6,0l0.6-0.4C64.8,105.3,64.8,105.4,64.7,105.5z M65.2,104.5c-0.1-0.1-0.1-0.3,0.1-0.3
						c0.2-0.1,0.4-0.1,0.6,0L65.2,104.5z"/>
				</g>
				<g>
					<path class="st3" d="M70.1,103.4v1.1c0,1.5-2.3,2.8-5.2,2.8c-2.8,0-5.2-1.3-5.2-2.8v-1.1H70.1z"/>
					<path class="st29" d="M59.8,103.4c0,1.5,2.3,2.8,5.2,2.8c2.8,0,5.2-1.3,5.2-2.8c0-1.5-2.3-2.8-5.2-2.8
						C62.1,100.6,59.8,101.8,59.8,103.4z"/>
					<path class="st3" d="M61,103.4c0,1.2,1.8,2.1,4,2.1c2.2,0,4-0.9,4-2.1c0-1.2-1.8-2.1-4-2.1C62.7,101.3,61,102.2,61,103.4z"/>
					<path class="st26" d="M66.7,102.5l0.4-0.2l-0.3-0.2l-0.4,0.2c-0.7-0.3-1.5-0.4-2-0.1c-0.7,0.4-0.2,0.8,0.1,1.2l-0.7,0.4
						c-0.1-0.1-0.1-0.2,0.1-0.4l-0.8-0.5c-0.6,0.3-0.4,0.8,0.1,1.2l-0.4,0.2l0.3,0.2l0.4-0.2c0.7,0.4,1.6,0.4,2,0.1
						c0.7-0.4,0.2-0.8-0.1-1.2l0.7-0.4c0.1,0.1,0.1,0.2-0.1,0.3l0.8,0.5C67.3,103.3,67.3,102.9,66.7,102.5z M64.7,104
						c-0.2,0.1-0.4,0.1-0.6,0l0.6-0.4C64.8,103.8,64.8,103.9,64.7,104z M65.2,103c-0.1-0.1-0.1-0.3,0.1-0.3c0.2-0.1,0.4-0.1,0.6,0
						L65.2,103z"/>
					<path class="st25" d="M66.7,102.2l0.4-0.2l-0.3-0.2l-0.4,0.2c-0.7-0.3-1.5-0.4-2-0.1c-0.7,0.4-0.2,0.8,0.1,1.2l-0.7,0.4
						c-0.1-0.1-0.1-0.2,0.1-0.4l-0.8-0.5c-0.6,0.3-0.4,0.8,0.1,1.2l-0.4,0.2l0.3,0.2l0.4-0.2c0.7,0.4,1.6,0.4,2,0.1
						c0.7-0.4,0.2-0.8-0.1-1.2l0.7-0.4c0.1,0.1,0.1,0.2-0.1,0.3l0.8,0.5C67.3,103,67.3,102.6,66.7,102.2z M64.7,103.7
						c-0.2,0.1-0.4,0.1-0.6,0l0.6-0.4C64.8,103.5,64.8,103.6,64.7,103.7z M65.2,102.7c-0.1-0.1-0.1-0.3,0.1-0.3
						c0.2-0.1,0.4-0.1,0.6,0L65.2,102.7z"/>
				</g>
			</g>
			<g>
				<g>
					<path class="st37" d="M55.8,113.9c-0.2,0.1-0.4,0.1-0.6,0l0.6-0.4C56,113.7,56,113.9,55.8,113.9z M56.3,113
						c-0.1-0.1-0.1-0.3,0.1-0.3c0.2-0.1,0.4-0.1,0.6,0L56.3,113z"/>
				</g>
				<g>
					<path class="st36" d="M52.1,111.8c0,1.2,1.8,2.1,4,2.1c2.2,0,4-0.9,4-2.1c0-1.2-1.8-2.1-4-2.1
						C53.9,109.7,52.1,110.7,52.1,111.8z"/>
					<path class="st37" d="M57.8,111l0.4-0.2l-0.3-0.2l-0.4,0.2c-0.7-0.3-1.5-0.4-2-0.1c-0.7,0.4-0.2,0.8,0.1,1.2l-0.7,0.4
						c-0.1-0.1-0.1-0.2,0.1-0.4l-0.8-0.5c-0.6,0.3-0.4,0.8,0.1,1.2l-0.4,0.2l0.3,0.2l0.4-0.2c0.7,0.4,1.6,0.4,2,0.1
						c0.7-0.4,0.2-0.8-0.1-1.2l0.7-0.4c0.1,0.1,0.1,0.2-0.1,0.3l0.8,0.5C58.5,111.8,58.4,111.4,57.8,111z M55.8,112.5
						c-0.2,0.1-0.4,0.1-0.6,0l0.6-0.4C56,112.3,56,112.4,55.8,112.5z M56.3,111.5c-0.1-0.1-0.1-0.3,0.1-0.3c0.2-0.1,0.4-0.1,0.6,0
						L56.3,111.5z"/>
				</g>
				<g>
					<path class="st3" d="M61.2,110.4v1.1c0,1.5-2.3,2.8-5.2,2.8c-2.8,0-5.2-1.3-5.2-2.8v-1.1L61.2,110.4z"/>
					<path class="st0" d="M50.9,110.4c0,1.5,2.3,2.8,5.2,2.8c2.8,0,5.2-1.3,5.2-2.8c0-1.5-2.3-2.8-5.2-2.8
						C53.2,107.6,50.9,108.8,50.9,110.4z"/>
					<path class="st36" d="M52.1,110.3c0,1.2,1.8,2.1,4,2.1c2.2,0,4-0.9,4-2.1s-1.8-2.1-4-2.1C53.9,108.2,52.1,109.2,52.1,110.3z"/>
					<path class="st37" d="M57.8,109.5l0.4-0.2l-0.3-0.2l-0.4,0.2c-0.7-0.3-1.5-0.4-2-0.1c-0.7,0.4-0.2,0.8,0.1,1.2l-0.7,0.4
						c-0.1-0.1-0.1-0.2,0.1-0.4l-0.8-0.5c-0.6,0.3-0.4,0.8,0.1,1.2l-0.4,0.2l0.3,0.2l0.4-0.2c0.7,0.4,1.6,0.4,2,0.1
						c0.7-0.4,0.2-0.8-0.1-1.2l0.7-0.4c0.1,0.1,0.1,0.2-0.1,0.3l0.8,0.5C58.5,110.3,58.4,109.9,57.8,109.5z M55.8,111
						c-0.2,0.1-0.4,0.1-0.6,0l0.6-0.4C56,110.8,56,110.9,55.8,111z M56.3,110c-0.1-0.1-0.1-0.3,0.1-0.3c0.2-0.1,0.4-0.1,0.6,0
						L56.3,110z"/>
				</g>
				<g>
					<path class="st3" d="M61.2,108.9v1.1c0,1.5-2.3,2.8-5.2,2.8c-2.8,0-5.2-1.3-5.2-2.8v-1.1L61.2,108.9z"/>
					<path class="st29" d="M50.9,108.9c0,1.5,2.3,2.8,5.2,2.8c2.8,0,5.2-1.3,5.2-2.8c0-1.5-2.3-2.8-5.2-2.8
						C53.2,106.1,50.9,107.4,50.9,108.9z"/>
					<path class="st3" d="M52.1,108.9c0,1.2,1.8,2.1,4,2.1c2.2,0,4-0.9,4-2.1c0-1.2-1.8-2.1-4-2.1C53.9,106.8,52.1,107.7,52.1,108.9
						z"/>
					<path class="st26" d="M57.8,108l0.4-0.2l-0.3-0.2l-0.4,0.2c-0.7-0.3-1.5-0.4-2-0.1c-0.7,0.4-0.2,0.8,0.1,1.2l-0.7,0.4
						c-0.1-0.1-0.1-0.2,0.1-0.4l-0.8-0.5c-0.6,0.3-0.4,0.8,0.1,1.2l-0.4,0.2l0.3,0.2l0.4-0.2c0.7,0.4,1.6,0.4,2,0.1
						c0.7-0.4,0.2-0.8-0.1-1.2l0.7-0.4c0.1,0.1,0.1,0.2-0.1,0.3l0.8,0.5C58.5,108.8,58.4,108.4,57.8,108z M55.8,109.5
						c-0.2,0.1-0.4,0.1-0.6,0l0.6-0.4C56,109.3,56,109.4,55.8,109.5z M56.3,108.6c-0.1-0.1-0.1-0.3,0.1-0.3c0.2-0.1,0.4-0.1,0.6,0
						L56.3,108.6z"/>
					<path class="st25" d="M57.8,107.7l0.4-0.2l-0.3-0.2l-0.4,0.2c-0.7-0.3-1.5-0.4-2-0.1c-0.7,0.4-0.2,0.8,0.1,1.2l-0.7,0.4
						c-0.1-0.1-0.1-0.2,0.1-0.4l-0.8-0.5c-0.6,0.3-0.4,0.8,0.1,1.2l-0.4,0.2l0.3,0.2l0.4-0.2c0.7,0.4,1.6,0.4,2,0.1
						c0.7-0.4,0.2-0.8-0.1-1.2l0.7-0.4c0.1,0.1,0.1,0.2-0.1,0.3l0.8,0.5C58.5,108.5,58.4,108.1,57.8,107.7z M55.8,109.2
						c-0.2,0.1-0.4,0.1-0.6,0l0.6-0.4C56,109,56,109.1,55.8,109.2z M56.3,108.3c-0.1-0.1-0.1-0.3,0.1-0.3c0.2-0.1,0.4-0.1,0.6,0
						L56.3,108.3z"/>
				</g>
			</g>
			<g>
				<g>
					<path class="st37" d="M46.7,117.2c-0.2,0.1-0.4,0.1-0.6,0l0.6-0.4C46.8,117,46.9,117.1,46.7,117.2z M47.2,116.2
						c-0.1-0.1-0.1-0.3,0.1-0.3c0.2-0.1,0.4-0.1,0.6,0L47.2,116.2z"/>
				</g>
				<g>
					<path class="st36" d="M43,115.1c0,1.2,1.8,2.1,4,2.1c2.2,0,4-0.9,4-2.1s-1.8-2.1-4-2.1C44.8,113,43,113.9,43,115.1z"/>
					<path class="st37" d="M48.7,114.2l0.4-0.2l-0.3-0.2l-0.4,0.2c-0.7-0.3-1.5-0.4-2-0.1c-0.7,0.4-0.2,0.8,0.1,1.2l-0.7,0.4
						c-0.1-0.1-0.1-0.2,0.1-0.4l-0.8-0.5c-0.6,0.3-0.4,0.8,0.1,1.2l-0.4,0.2l0.3,0.2l0.4-0.2c0.7,0.4,1.6,0.4,2,0.1
						c0.7-0.4,0.2-0.8-0.1-1.2l0.7-0.4c0.1,0.1,0.1,0.2-0.1,0.3l0.8,0.5C49.4,115,49.3,114.6,48.7,114.2z M46.7,115.7
						c-0.2,0.1-0.4,0.1-0.6,0l0.6-0.4C46.8,115.5,46.9,115.6,46.7,115.7z M47.2,114.8c-0.1-0.1-0.1-0.3,0.1-0.3
						c0.2-0.1,0.4-0.1,0.6,0L47.2,114.8z"/>
				</g>
				<g>
					<path class="st3" d="M52.1,113.6v1.1c0,1.5-2.3,2.8-5.2,2.8c-2.8,0-5.2-1.3-5.2-2.8v-1.1L52.1,113.6z"/>
					<path class="st29" d="M41.8,113.6c0,1.5,2.3,2.8,5.2,2.8c2.8,0,5.2-1.3,5.2-2.8c0-1.5-2.3-2.8-5.2-2.8
						C44.1,110.8,41.8,112.1,41.8,113.6z"/>
					<path class="st3" d="M43,113.6c0,1.2,1.8,2.1,4,2.1c2.2,0,4-0.9,4-2.1c0-1.2-1.8-2.1-4-2.1C44.8,111.5,43,112.4,43,113.6z"/>
					<path class="st26" d="M48.7,112.7l0.4-0.2l-0.3-0.2l-0.4,0.2c-0.7-0.3-1.5-0.4-2-0.1c-0.7,0.4-0.2,0.8,0.1,1.2l-0.7,0.4
						c-0.1-0.1-0.1-0.2,0.1-0.4l-0.8-0.5c-0.6,0.3-0.4,0.8,0.1,1.2l-0.4,0.2l0.3,0.2l0.4-0.2c0.7,0.4,1.6,0.4,2,0.1
						c0.7-0.4,0.2-0.8-0.1-1.2l0.7-0.4c0.1,0.1,0.1,0.2-0.1,0.3l0.8,0.5C49.4,113.5,49.3,113.1,48.7,112.7z M46.7,114.2
						c-0.2,0.1-0.4,0.1-0.6,0l0.6-0.4C46.8,114,46.9,114.2,46.7,114.2z M47.2,113.3c-0.1-0.1-0.1-0.3,0.1-0.3c0.2-0.1,0.4-0.1,0.6,0
						L47.2,113.3z"/>
					<path class="st25" d="M48.7,112.4l0.4-0.2l-0.3-0.2l-0.4,0.2c-0.7-0.3-1.5-0.4-2-0.1c-0.7,0.4-0.2,0.8,0.1,1.2l-0.7,0.4
						c-0.1-0.1-0.1-0.2,0.1-0.4l-0.8-0.5c-0.6,0.3-0.4,0.8,0.1,1.2l-0.4,0.2l0.3,0.2l0.4-0.2c0.7,0.4,1.6,0.4,2,0.1
						c0.7-0.4,0.2-0.8-0.1-1.2l0.7-0.4c0.1,0.1,0.1,0.2-0.1,0.3l0.8,0.5C49.4,113.2,49.3,112.8,48.7,112.4z M46.7,113.9
						c-0.2,0.1-0.4,0.1-0.6,0l0.6-0.4C46.8,113.7,46.9,113.8,46.7,113.9z M47.2,113c-0.1-0.1-0.1-0.3,0.1-0.3c0.2-0.1,0.4-0.1,0.6,0
						L47.2,113z"/>
				</g>
			</g>
		</g>
		<g>
			<polygon class="st27" points="135.6,93.5 129,89.6 129,97.4 135.6,101.2 			"/>
			<polygon class="st4" points="135.8,85.7 129,89.6 135.6,93.5 142.4,89.5 			"/>
			<polygon class="st30" points="142.4,89.5 135.6,93.5 135.6,101.2 142.4,97.2 			"/>
		</g>
		<path class="st25" d="M114.1,28c-0.7-0.4-1.3-0.1-1.3,0.7c0,0.4,0.1,0.8,0.3,1.2l-5.1,4.8c-0.2-0.2-0.4-0.5-0.7-0.6
			c-0.4-0.2-0.7-0.2-0.9-0.1l-2.8-3.6c0-0.1,0-0.2,0-0.3c0-0.8-0.6-1.8-1.3-2.2c-0.7-0.4-1.3-0.1-1.3,0.7c0,0.8,0.6,1.8,1.3,2.2
			c0.3,0.2,0.6,0.2,0.8,0.1l2.8,3.7c0,0.1,0,0.1,0,0.2c0,0.8,0.6,1.8,1.3,2.2c0.7,0.4,1.3,0.1,1.3-0.7c0-0.3-0.1-0.7-0.3-1l5.1-4.8
			c0.2,0.2,0.4,0.4,0.6,0.5c0.7,0.4,1.3,0.1,1.3-0.7C115.4,29.3,114.8,28.4,114.1,28z"/>
		<g>
			<g>
				<g>
					<g>
						<polygon class="st27" points="54.9,22.9 41.8,30.4 41.8,46 54.9,38.5 						"/>
						<polygon class="st30" points="41.8,30.4 40.8,29.8 40.8,45.4 41.8,46 						"/>
						<polygon class="st4" points="54.9,22.9 53.9,22.3 40.8,29.8 41.8,30.4 						"/>
					</g>
				</g>
				<polygon class="st31" points="53.8,24.9 42.9,31.1 42.9,44.1 53.8,37.8 				"/>
				<g>
					<polygon class="st27" points="43.3,42.3 43.3,42.7 42.7,43 42.7,42.7 					"/>
					<polygon class="st27" points="43.3,41 43.3,41.4 42.7,41.7 42.7,41.4 					"/>
					<polygon class="st27" points="43.3,39.7 43.3,40.1 42.7,40.4 42.7,40.1 					"/>
					<polygon class="st27" points="43.3,38.4 43.3,38.8 42.7,39.1 42.7,38.8 					"/>
					<polygon class="st27" points="43.3,37.1 43.3,37.5 42.7,37.8 42.7,37.5 					"/>
					<polygon class="st27" points="43.3,35.8 43.3,36.2 42.7,36.5 42.7,36.2 					"/>
					<polygon class="st27" points="43.3,34.5 43.3,34.9 42.7,35.2 42.7,34.9 					"/>
					<polygon class="st27" points="43.3,33.2 43.3,33.6 42.7,33.9 42.7,33.6 					"/>
				</g>
			</g>
			<polygon class="st25" points="43.9,42.4 53,37.1 53,29.5 			"/>
			<polygon class="st25" points="45.4,30.8 45.4,33.4 43.9,34.2 43.9,31.6 			"/>
			<polygon class="st28" points="43.9,42.4 53,29.5 53,26.4 			"/>
		</g>
		<g>
			<g>
				<path class="st0" d="M47.8,126.5L47.8,126.5l0-0.7l-0.2,0c-0.1-0.1-0.2-0.3-0.4-0.4l-14.1-8.2c-0.8-0.4-1.7-0.4-2.5,0L9.2,129.6
					c-0.1,0.1-0.2,0.1-0.3,0.2l-0.3,0v0.8h0c0,0.4,0.2,0.8,0.6,1l14.1,8.2c0.9,0.5,1.9,0.5,2.8,0l21.1-12.2
					C47.6,127.3,47.8,126.9,47.8,126.5z"/>
				<path class="st27" d="M47.2,124.7l-14.1-8.2c-0.8-0.4-1.7-0.4-2.5,0L9.2,128.8c-0.8,0.4-0.8,1.6,0,2l14.1,8.2
					c0.9,0.5,1.9,0.5,2.8,0l21.1-12.2C48,126.3,48,125.1,47.2,124.7z"/>
				<path class="st0" d="M47.2,126.8L26.1,139c-0.4,0.3-0.9,0.4-1.4,0.4v0.8c0.5,0,1-0.1,1.4-0.4l21.1-12.2c0.4-0.2,0.6-0.7,0.6-1.1
					l0,0v-0.7h0C47.8,126.2,47.6,126.6,47.2,126.8z"/>
			</g>
			<path class="st28" d="M41.2,125.8c0,0.7,1,1.2,2.3,1.2s2.3-0.6,2.3-1.2s-1-1.2-2.3-1.2C42.2,124.6,41.2,125.1,41.2,125.8z"/>
			<path class="st25" d="M38.7,127.3c0,0.7,1,1.2,2.3,1.2c1.3,0,2.3-0.6,2.3-1.2c0-0.7-1-1.2-2.3-1.2
				C39.7,126,38.7,126.6,38.7,127.3z"/>
			<path class="st24" d="M18.2,128.7l-2.7-1.6c-0.1-0.1-0.3-0.1-0.5,0l-4.1,2.3c-0.1,0.1-0.1,0.3,0,0.4l2.7,1.6
				c0.2,0.1,0.4,0.1,0.5,0l4-2.3C18.4,129.1,18.4,128.8,18.2,128.7z"/>
			<polygon class="st0" points="37.9,121.1 16.7,133.3 17.6,133.8 38.8,121.6 			"/>
			<polygon class="st0" points="39.6,122.1 18.4,134.3 19.4,134.8 40.6,122.6 			"/>
		</g>
		<polygon class="st31" points="69.7,33.4 60.9,28.3 60.9,29.1 69.7,34.3 		"/>
		<polygon class="st31" points="69.7,34.9 60.9,29.7 60.9,30.6 69.7,35.7 		"/>
		<g>
			<polygon class="st31" points="113.4,91.9 104.6,86.8 104.6,87.6 113.4,92.8 			"/>
			<polygon class="st31" points="113.4,93.4 104.6,88.2 104.6,89.1 113.4,94.2 			"/>
		</g>
		<g>
			<polygon class="st31" points="103.2,86 94.3,80.9 94.3,81.7 103.2,86.9 			"/>
			<polygon class="st31" points="103.2,87.4 94.3,82.3 94.3,83.2 103.2,88.3 			"/>
		</g>
		<g>
			<polygon class="st31" points="93,80.1 84.1,74.9 84.1,75.8 93,80.9 			"/>
			<polygon class="st31" points="93,81.5 84.1,76.4 84.1,77.3 93,82.4 			"/>
		</g>
		<g>
			<polygon class="st31" points="82.8,74.2 73.9,69 73.9,69.9 82.8,75 			"/>
			<polygon class="st31" points="82.8,75.6 73.9,70.5 73.9,71.3 82.8,76.5 			"/>
		</g>
		<polygon class="st31" points="69.7,36.3 60.9,31.2 60.9,32.1 69.7,37.2 		"/>
		<polygon class="st31" points="69.7,37.8 60.9,32.6 60.9,33.5 69.7,38.6 		"/>
		<polygon class="st31" points="69.7,39.2 60.9,34.1 60.9,35 69.7,40.1 		"/>
		<polygon class="st31" points="69.7,40.7 60.9,35.6 60.9,36.4 69.7,41.6 		"/>
		<polygon class="st31" points="69.7,42.2 60.9,37 60.9,37.9 69.7,43 		"/>
		<polygon class="st31" points="69.7,43.6 60.9,38.5 60.9,39.3 69.7,44.5 		"/>
		<polygon class="st31" points="69.7,45.1 60.9,39.9 60.9,40.8 69.7,45.9 		"/>
		<polygon class="st31" points="69.7,46.5 60.9,41.4 60.9,42.2 69.7,47.4 		"/>
		<polygon class="st31" points="69.7,48 60.9,42.8 60.9,43.7 69.7,48.8 		"/>
		<polygon class="st31" points="69.7,49.4 60.9,44.3 60.9,45.1 69.7,50.3 		"/>
		<polygon class="st31" points="69.7,50.9 60.9,45.7 60.9,46.6 69.7,51.7 		"/>
		<polygon class="st31" points="69.7,52.3 60.9,47.2 60.9,48.1 69.7,53.2 		"/>
		<polygon class="st31" points="69.7,53.8 60.9,48.6 60.9,49.5 69.7,54.7 		"/>
		<polygon class="st31" points="69.7,55.2 60.9,50.1 60.9,51 69.7,56.1 		"/>
		<polygon class="st31" points="69.7,56.7 60.9,51.6 60.9,52.4 69.7,57.6 		"/>
		<g>
			<polygon class="st31" points="71.4,34.4 113.4,58.8 113.4,89.7 71.4,65.2 			"/>
			<polygon class="st27" points="72.4,63.5 72.4,63.9 112.1,87 112.1,86.6 			"/>
			<polygon class="st27" points="72.4,59.9 72.4,60.2 112.1,83.3 112.1,83 			"/>
			<polygon class="st27" points="72.4,56.3 72.4,56.6 112.1,79.7 112.1,79.4 			"/>
			<polygon class="st27" points="72.4,52.7 72.4,53 112.1,76.1 112.1,75.8 			"/>
			<polygon class="st27" points="72.4,49 72.4,49.4 112.1,72.5 112.1,72.1 			"/>
			<polygon class="st27" points="72.4,45.4 72.4,45.8 112.1,68.9 112.1,68.5 			"/>
			<polygon class="st27" points="72.4,41.8 72.4,42.1 112.1,65.2 112.1,64.9 			"/>
			<polygon class="st27" points="72.4,38.4 72.4,63.5 72.7,63.7 72.7,38.6 			"/>
			<polygon class="st27" points="76.2,40.6 76.2,65.7 76.6,65.9 76.6,40.8 			"/>
			<polygon class="st27" points="80.1,42.8 80.1,68 80.4,68.2 80.4,43 			"/>
			<polygon class="st27" points="83.9,45.1 83.9,70.2 84.2,70.4 84.2,45.2 			"/>
			<polygon class="st27" points="87.7,47.3 87.7,72.4 88,72.6 88,47.5 			"/>
			<polygon class="st27" points="91.5,49.5 91.5,74.7 91.8,74.8 91.8,49.7 			"/>
			<polygon class="st27" points="95.3,51.8 95.3,76.9 95.6,77.1 95.6,51.9 			"/>
			<polygon class="st27" points="99.1,54 99.1,79.1 99.5,79.3 99.5,54.2 			"/>
			<polygon class="st27" points="103,56.2 103,81.3 103.3,81.5 103.3,56.4 			"/>
			<polygon class="st27" points="106.8,58.4 106.8,83.6 107.1,83.8 107.1,58.6 			"/>
			<polygon class="st27" points="110.6,60.7 110.6,85.8 110.9,86 110.9,60.8 			"/>
			<g>
				<path class="st28" d="M80.2,60.1c0.4,0.2,0.8,0.8,0.8,1.3c0,0.5-0.3,0.7-0.8,0.4c-0.4-0.2-0.8-0.8-0.8-1.3
					C79.4,60,79.8,59.8,80.2,60.1z"/>
			</g>
			<g>
				<path class="st25" d="M80.2,56.4c0.4,0.2,0.8,0.8,0.8,1.3c0,0.5-0.3,0.7-0.8,0.4c-0.4-0.2-0.8-0.8-0.8-1.3
					C79.4,56.3,79.8,56.1,80.2,56.4z"/>
			</g>
			<g>
				<path class="st25" d="M87.9,64.7c0.4,0.2,0.8,0.8,0.8,1.3c0,0.5-0.3,0.7-0.8,0.4c-0.4-0.2-0.8-0.8-0.8-1.3
					C87.1,64.6,87.4,64.4,87.9,64.7z"/>
			</g>
			<g>
				<path class="st25" d="M91.7,59.5c0.4,0.2,0.8,0.8,0.8,1.3c0,0.5-0.4,0.7-0.8,0.4c-0.4-0.2-0.8-0.8-0.8-1.3
					C90.9,59.4,91.2,59.2,91.7,59.5z"/>
			</g>
			<g>
				<path class="st25" d="M95.5,58.1c0.4,0.2,0.8,0.8,0.8,1.3c0,0.5-0.3,0.7-0.8,0.4c-0.4-0.2-0.8-0.8-0.8-1.3
					C94.7,58,95,57.8,95.5,58.1z"/>
			</g>
			<g>
				<path class="st25" d="M103.1,66.2c0.4,0.2,0.8,0.8,0.8,1.3c0,0.5-0.3,0.7-0.8,0.4c-0.4-0.2-0.8-0.8-0.8-1.3
					C102.3,66.2,102.7,66,103.1,66.2z"/>
			</g>
			<g>
				<path class="st25" d="M99.3,71.2c0.4,0.2,0.8,0.8,0.8,1.3c0,0.5-0.3,0.7-0.8,0.4c-0.4-0.2-0.8-0.8-0.8-1.3
					C98.5,71.2,98.9,71,99.3,71.2z"/>
			</g>
			<g>
				<path class="st25" d="M106.9,64.5c0.4,0.2,0.8,0.8,0.8,1.3c0,0.5-0.4,0.7-0.8,0.4c-0.4-0.2-0.8-0.8-0.8-1.3
					C106.2,64.5,106.5,64.3,106.9,64.5z"/>
			</g>
			<g>
				<path class="st28" d="M84,64.3c0.4,0.2,0.8,0.8,0.8,1.3c0,0.5-0.3,0.7-0.8,0.4c-0.4-0.2-0.8-0.8-0.8-1.3
					C83.3,64.3,83.6,64.1,84,64.3z"/>
			</g>
			<g>
				<path class="st28" d="M87.9,61.1c0.4,0.2,0.8,0.8,0.8,1.3c0,0.5-0.3,0.7-0.8,0.4c-0.4-0.2-0.8-0.8-0.8-1.3
					C87.1,61,87.4,60.8,87.9,61.1z"/>
			</g>
			<g>
				<path class="st28" d="M95.5,67.3c0.4,0.2,0.8,0.8,0.8,1.3c0,0.5-0.3,0.7-0.8,0.4c-0.4-0.2-0.8-0.8-0.8-1.3
					C94.7,67.2,95,67,95.5,67.3z"/>
			</g>
			<g>
				<path class="st28" d="M99.3,62.8c0.4,0.2,0.8,0.8,0.8,1.3c0,0.5-0.3,0.7-0.8,0.4c-0.4-0.2-0.8-0.8-0.8-1.3
					C98.5,62.8,98.9,62.6,99.3,62.8z"/>
			</g>
			<g>
				<path class="st28" d="M106.9,61.3c0.4,0.2,0.8,0.8,0.8,1.3c0,0.5-0.4,0.7-0.8,0.4c-0.4-0.2-0.8-0.8-0.8-1.3
					C106.2,61.2,106.5,61,106.9,61.3z"/>
			</g>
			<polygon class="st28" points="106.9,62 99.2,63.6 95.4,67.9 87.8,61.8 84,65 80.3,60.8 76.3,62.3 76.5,62.6 80.2,61.1 84,65.5 
				87.9,62.1 95.5,68.4 99.4,63.8 107,62.3 			"/>
			<polygon class="st25" points="106.9,65.4 103,67 99.4,71.8 95.6,58.9 95.6,58.8 91.6,60.3 87.8,65.3 80.2,57 76.2,62.4 
				76.4,62.6 80.2,57.5 87.7,65.7 87.9,65.8 91.8,60.5 95.4,59.2 99.2,72.5 103.2,67.2 107,65.6 			"/>
			<g>
				<path class="st28" d="M76.4,61.5c0.4,0.2,0.8,0.8,0.8,1.3c0,0.5-0.3,0.7-0.8,0.4c-0.4-0.2-0.8-0.8-0.8-1.3
					C75.6,61.5,76,61.3,76.4,61.5z"/>
			</g>
		</g>
		<g>
			<path class="st38" d="M34.7,71.5c0,0-0.7,0.1-0.9,0.1c-0.2,0.1-1.1,0.2-1.4,0.4c-0.3,0.2,0.4,0.2,0.6,0.3
				c0.2,0.1-0.3,0.3-0.6,0.5c-0.3,0.2-0.5,0.4-0.6,1c-0.1,0.4,1.3,1.5,1.7,0.9c0.4-0.6,0.4-0.6,1-1c0.7-0.4,1.2-0.9,1.4-1.1
				L34.7,71.5z"/>
			<path class="st39" d="M34.7,71.1l-0.6,0.4c0,0,0.7,1.1,1.2,1.8l0.6-0.4L34.7,71.1z"/>
			<polygon class="st40" points="39.8,68 34.6,71.1 35.8,73.1 41.8,69.8 43.3,67.5 43.5,61.2 			"/>
			<path class="st41" d="M46,95.1L43.7,95c0,0-0.2,0.4-1,0.6c-0.8,0.2-2.4,1.2-2.1,1.9c0.3,0.8,1.7,0.8,2.4,0.4
				c0.7-0.3,1.7-0.5,1.7-0.5l0.2,0.3l1.5-0.4l0.1-2.1L46,95.1z"/>
			<path class="st41" d="M47.5,96.1c0,0-0.4,0.8-0.7,1.1c-0.4,0.3-1.4,1.9-1.1,2.5c0.3,0.5,1,0.7,1.4,0.6c0.4-0.1,1.5-0.6,1.8-1.3
				l0.3-0.6c0,0,0.1,0.3,0.2,0.2c0,0,1-0.5,1.1-0.7c0,0-0.1-1.6-0.2-2.4L47.5,96.1z"/>
			<path class="st42" d="M46.2,74.5l-3.1,0C43,74.6,43,82.1,43,83.4c0,1.2,0.4,11.7,0.4,11.7s1.3,1,3.1,0.4l0.3-13.1L46.2,74.5z"/>
			<path class="st42" d="M50.1,73.6c0,0,0.1,3.9,0,5.2c0,1.3,0.4,6.8,0.4,6.9c0,0.1,0.2,10.1,0.2,10.1S49.5,97,47,96.5
				c0,0-0.7-13.6-1-15.7c-0.3-2.1-0.6-6.5-0.6-6.5L50.1,73.6z"/>
			<path class="st40" d="M48.9,60.4L45,60.6l-1.5,0.6c0,0-0.6,1.2-0.9,3.6c-0.3,2.4,0.3,9.5,0.3,9.5c1.5,0.7,6.4,0.5,6.4,0.5
				c0.9-2.3,1.8-12.9,1.8-12.9L48.9,60.4z"/>
			<path class="st43" d="M46,60.5l-1.4,1.2c-0.6,3.4-0.5,10.1-0.5,13c0.5,0.1,1.1,0.1,1.6,0.2c0.1-7.1,2.5-13.9,2.7-14.4L46,60.5z"
				/>
			<path class="st41" d="M44.8,62.2l0.3,1.1c0,0-0.5,6.6-0.7,9.4l0.6,1.2l0.7-1l0.1-9.1l0.7-1.3C46.4,62.4,45.7,61.8,44.8,62.2z"/>
			<polygon class="st39" points="45.6,62.1 44.3,62.6 44.8,60.6 45.5,60.1 			"/>
			<polygon class="st44" points="48.3,59.6 45.3,60 45.6,62.1 48.5,60.4 			"/>
			<path class="st38" d="M49.3,57.2c0,1.8-2.1,3.2-3.8,3.2s-2.1-1.4-2.1-3.3s1.2-3.3,2.8-3.3S49.3,55.3,49.3,57.2z"/>
			<path class="st45" d="M46.5,56.9c0,0-0.4,1.9,0.5,1.9c1,0,0.6,0.3,0.9,0.7c0.3,0.4,1,0.1,1.4-0.8c0.5-0.9,1.1-3,0.5-4.1
				c-0.9-1.6-2.4-1.8-3.4-1.7c-1.2,0.1-3,1.5-3.2,2.3C43,56.8,46.5,56.9,46.5,56.9z"/>
			<polygon class="st27" points="49.6,74.3 45.8,74.2 45.7,76.3 49.8,76.9 			"/>
			<path class="st38" d="M48.9,76.5c0,0-0.4,0.6-0.5,0.8c-0.1,0.2-0.6,1-0.6,1.4c0,0.4,0.4-0.2,0.6-0.3c0.2-0.1,0.5,0,0.4,0.4
				c0,0.4-0.4,1.1-0.5,1.6c-0.1,0.4,1.4,0.1,1.8-0.6c0.4-0.6,0.5-1.2,0.5-1.9c-0.1-0.7-0.4-1.2-0.4-1.5L48.9,76.5z"/>
			<polygon class="st39" points="48.6,76 48.4,76.8 50.7,77.5 51,76.7 			"/>
			<path class="st40" d="M51.1,62c0,0-1.7,0.1-1.4,2.9c0.2,2.8,0.2,4.7,0.2,4.7l-1.4,6.6l2.5,0.7c0,0,1.7-6.7,1.7-7
				c0-0.2-0.4-6-0.4-6S52.1,62.5,51.1,62z"/>
			<path class="st27" d="M42.8,72.8l0,2.6c0,0.2,0.1,0.4,0.3,0.4l1.1,0.3l0-1.7L42.8,72.8z"/>
			<polygon class="st39" points="48.5,60 45.6,62.1 46.9,63.4 48.9,60.4 			"/>
		</g>
		<g>
			<path class="st46" d="M24.7,110.1c-2.5,1.3-6.6,1.3-9.1,0c-2.5-1.3-2.5-3.3,0-4.6c2.5-1.3,6.6-1.3,9.1,0
				C27.2,106.8,27.2,108.8,24.7,110.1z"/>
			<path class="st38" d="M22,61.9c0,0,0.4,0.6,1.1,2.6c0.7,2,0.2,3.6-1.3,4C20.8,68.8,22,61.9,22,61.9z"/>
			<path class="st38" d="M18.2,104.1c-0.1-2,0.3-5.9,0.3-5.9l0.2-4.2l0.7-8.2c0,0,0,0.2,0.1,0.5c0-0.3,0.1-0.6,0.1-0.8
				c0.2-0.8,0.4-1.7,0.8-2.4l-5.4,0c0,0.7,0.1,1.3,0.3,1.8c0.8,1.6,1,5.3,1,7.1s-0.6,3.1-0.6,4.7c0,1.6,0.3,3.5,0.5,4.6
				c0.2,1.1,0,3.2-0.1,3.8c-0.1,0.6,6.2,3.5,3.8,0.9C19.9,105.8,18.2,104.1,18.2,104.1z"/>
			<g>
				<path class="st47" d="M20.1,105.9c0,0,1.6,0.1,1.1,0.6c-0.5,0.5-1.2,1.2-2.1,1.2c-0.9,0.1-1.7-0.8-2.4-1.1c-0.6-0.3-1-0.5-0.9-1
					c0.1-0.5,0-1.3,1.1-0.9c0.9,0.3,0.8,1.2,1,1.3C18.7,106.4,21.2,107.1,20.1,105.9z"/>
				<path class="st47" d="M15.8,106.1c0,0,0.3,0.1,0.4,0.8s0,1.4,0,1.4H17v-2L15.8,106.1z"/>
			</g>
			<path class="st38" d="M23.3,107.8c-0.3,0-1.4-2-1.4-2l0.4-7.1c0,0,0.2-3.5,0.5-4.5c3.1-8.8,0.1-14.8-0.2-16.3
				c-0.2-1.5,0.9-2.4,1.1-4.1c0.3-1.6-1.5-3.5-1.5-3.5s-3.8-2.1-6.4-1.8s-0.6,4.6,0,5.6c0.5,1,1.2,3.1,0.9,4.5
				c-1.4,1.4-2.1,4.5-1.4,6.1c0.5,1.1,0.8,3.1,0.9,4.9h2.5V90h0.3l0.4-4.2c0,0,0.6,6.5,0.5,7.5c0,0.9-0.6,3.5-0.6,5s0.4,3.2,0.4,4.1
				c0,0.9,0.1,2.6,0.1,2.6l-0.2,2.4c0,0,1-0.2,1.1,0.1c0.1,0.2,0.8,1.5,0.8,1.5h1.2c0,0,0.9-0.9,1.3-0.9
				C24.6,108.1,23.6,107.7,23.3,107.8z"/>
			<path class="st42" d="M14.7,69.5c0,0,0.1-0.9,1-0.7c1,0.2,1.8,1.4,1.7,3.7c0,2.3-0.2,4.6-0.3,4.7c-0.1,0.2-1.5,2.4-1.9,0.1
				C14.9,75.1,14.2,71.3,14.7,69.5z"/>
			<path class="st48" d="M16.4,82.2c0,0-0.1,0.5,0.1,1.4s0.5,1.2,1,1.4c0.6,0.2,0.7-0.3,0.5-0.6C18,83.9,18,83.8,18,83.8
				s0.2,0.2,0.4,0.1c0.1-0.1,0.1-0.1-0.3-0.7c-0.4-0.5-0.6-0.8-0.6-0.8L16.4,82.2z"/>
			<path class="st42" d="M17.4,77.5l0.4,5.6c0,0-0.3,0.6-1.2,0.1c-0.9-0.6-1.4-6.1-1.4-6.1S16.9,75.4,17.4,77.5z"/>
			<path class="st40" d="M15.9,68.6c2.6-0.3,6.4,1.8,6.4,1.8s1.7,1.9,1.5,3.5c-0.3,1.6-1.4,2.6-1.1,4.1c0.1,0.6,0.6,1.8,1,3.6
				l-8.3,0c0.3-1.1,0.8-2.2,1.4-2.8c0.3-1.4-0.4-3.6-0.9-4.5C15.3,73.2,13.2,68.9,15.9,68.6z"/>
			<path class="st5" d="M23,79.5c0,0-0.4,1.1-2.3,1c-1.9-0.1-4-1.7-4-1.7s-1.9,1.6-1.8,4.2c0,1.9,1.7,6.5,1.2,9.5
				c1,1.2,3.1,2.1,4.8,2.2c1.7,0.1,2.8-1.2,2.8-1.2s1.3-4.6,1-8.5C24.4,81.1,23.3,80.3,23,79.5z"/>
			<g>
				<path class="st47" d="M23.2,107.7c0,0,1.6,0.1,1.1,0.6c-0.5,0.5-1.2,1.2-2.1,1.2c-0.9,0.1-1.7-0.8-2.4-1.1c-0.6-0.3-1-0.5-0.9-1
					c0.1-0.5,0.2-1.1,1.1-0.9c0.9,0.2,0.8,1.2,1,1.3C21.8,108.2,24.4,108.9,23.2,107.7z"/>
				<path class="st47" d="M19,107.9c0,0,0.3,0.1,0.4,0.8c0.1,0.7,0,1.4,0,1.4h0.8v-2L19,107.9z"/>
			</g>
			<path class="st45" d="M22.7,62.4c0,0-1.4-1-3.2-1c-1.8,0-3.8,0.8-4,3.8c-0.2,3,0.6,4.1,0.6,4.1s0.7,1.5,3.9,1.3
				c1.6-0.1,2.7-0.7,2.7-0.7S21.1,65.4,22.7,62.4z"/>
			<g>
				<g>
					<path class="st42" d="M20.9,71.7c0,0-0.5-0.8,0.4-1.1c0.9-0.4,2.3,0.2,3.7,2.1c1.4,1.9,2.6,3.8,2.6,4c0,0.2,0.5,1.9-1.5,1.1
						C23.9,76.8,21.6,73.3,20.9,71.7z"/>
					<path class="st38" d="M32,74.8c0,0,0.6-0.1,1.3-0.8c0.7-0.7,0.9-1,0.8-1.6c-0.2-0.6-0.6-0.4-0.9-0.2c-0.3,0.3-0.4,0.3-0.4,0.3
						s0.1-0.3-0.1-0.4s-0.2,0-0.5,0.6c-0.3,0.6-0.5,0.9-0.5,0.9L32,74.8z"/>
					<path class="st42" d="M26.4,76.2l5.3-2.6c0,0,1.3,0.2,0.6,0.9c-2.3,2.7-5.1,3.3-5.1,3.3S25.9,76.7,26.4,76.2z"/>
				</g>
			</g>
		</g>
	</g>
	<g>
		<g>
			<path class="st49" d="M138.7,72.6c-0.8-0.5-1.4-0.9-2.2-1.4c-0.8-0.5-1.5-0.9-2.3-1.4c-0.2-0.1-0.5-0.1-0.6,0.1
				c-0.6,0.5-1.3,1.1-1.9,1.6c-0.6,0.5-1.3,1.1-1.9,1.6c-0.2,0.1-0.2,0.4,0,0.5c0.8,0.5,1.5,1,2.3,1.4c0.8,0.5,1.5,1,2.3,1.5
				c0.2,0.1,0.5,0.1,0.6-0.1c0.6-0.5,1.3-1.1,1.9-1.6c0.6-0.5,1.3-1.1,1.9-1.6c0.1-0.1,0.1-0.1,0.1-0.2l0-0.2L138.7,72.6z"/>
			<path class="st49" d="M131.6,71.5c-0.6,0.5-1.3,1.1-1.9,1.6c-0.2,0.1-0.2,0.4,0,0.5c0.8,0.5,1.5,1,2.3,1.4l2.3,1.5l-0.1-0.9
				L131.6,71.5z"/>
			<path class="st50" d="M138.8,72.5c-0.8-0.5-1.6-1-2.3-1.4c-0.8-0.5-1.5-0.9-2.3-1.4c-0.2-0.1-0.5-0.1-0.6,0.1
				c-0.6,0.5-1.3,1.1-1.9,1.6c-0.6,0.5-1.3,1.1-1.9,1.6c-0.2,0.1-0.2,0.4,0,0.5c0.8,0.5,1.5,1,2.3,1.4c0.8,0.5,1.5,1,2.3,1.5
				c0.2,0.1,0.5,0.1,0.6-0.1c0.6-0.5,1.3-1.1,1.9-1.6c0.6-0.5,1.3-1.1,1.9-1.6C138.9,72.8,138.9,72.6,138.8,72.5z"/>
			<path class="st51" d="M138.5,72.7c-0.6,0.5-1.2,1.1-1.9,1.6c-0.6,0.5-1.3,1.1-1.9,1.6c0,0-0.2,0.1-0.2,0.1
				c-0.8-0.5-1.6-1-2.3-1.5c-0.7-0.5-1.4-0.9-2.2-1.4c0.6-0.5,1.2-1,1.9-1.6c0.6-0.5,1.3-1.1,1.9-1.6c0,0,0.2-0.1,0.2-0.1
				c0.8,0.5,1.5,0.9,2.3,1.4C137,71.8,137.7,72.3,138.5,72.7z"/>
			<g>
				<path class="st52" d="M135.6,74.2c-0.2-0.1-0.3-0.2-0.5-0.3c-0.3,0.2-0.5,0.4-0.7,0.6c-0.2,0.2-0.5,0.4-0.7,0.6
					c0.2,0.1,0.3,0.2,0.5,0.3c0.2-0.2,0.5-0.4,0.7-0.6C135.1,74.6,135.3,74.4,135.6,74.2z"/>
				<path class="st16" d="M135.6,73.5c-0.2-0.1-0.3-0.2-0.5-0.3c-0.3,0.3-0.7,0.5-1,0.8c-0.3,0.3-0.6,0.5-1,0.8
					c0.2,0.1,0.3,0.2,0.5,0.3c0.3-0.3,0.6-0.5,1-0.8C134.9,74.1,135.2,73.8,135.6,73.5z"/>
				<path class="st53" d="M135.6,72.7c-0.2-0.1-0.3-0.2-0.5-0.3c-0.4,0.4-0.8,0.7-1.3,1.1c-0.4,0.4-0.8,0.7-1.3,1.1
					c0.2,0.1,0.3,0.2,0.5,0.3c0.4-0.4,0.8-0.7,1.3-1.1C134.8,73.4,135.2,73.1,135.6,72.7z"/>
				<path class="st54" d="M134.8,72.7c-0.2-0.1-0.3-0.2-0.5-0.3c-0.4,0.3-0.7,0.6-1.1,0.9c-0.4,0.3-0.7,0.6-1.1,0.9
					c0.2,0.1,0.3,0.2,0.5,0.3c0.4-0.3,0.7-0.6,1.1-0.9C134.1,73.3,134.4,73,134.8,72.7z"/>
				<path class="st55" d="M133.6,73c-0.2-0.1-0.3-0.2-0.5-0.3c-0.2,0.2-0.5,0.4-0.7,0.6c-0.2,0.2-0.5,0.4-0.7,0.6
					c0.2,0.1,0.3,0.2,0.5,0.3c0.2-0.2,0.5-0.4,0.7-0.6C133.1,73.4,133.4,73.2,133.6,73z"/>
				<path class="st15" d="M132.9,72.9c-0.2-0.1-0.3-0.2-0.5-0.3c-0.2,0.2-0.4,0.4-0.6,0.5c-0.2,0.2-0.4,0.4-0.6,0.5
					c0.2,0.1,0.3,0.2,0.5,0.3c0.2-0.2,0.4-0.3,0.6-0.5C132.5,73.3,132.7,73.1,132.9,72.9z"/>
				<path class="st56" d="M135.8,74.7c-0.2-0.1-0.3-0.2-0.5-0.3c-0.2,0.2-0.4,0.4-0.6,0.5c-0.2,0.2-0.4,0.4-0.6,0.5
					c0.2,0.1,0.3,0.2,0.5,0.3c0.2-0.2,0.4-0.4,0.6-0.5C135.4,75,135.6,74.9,135.8,74.7z"/>
				<path class="st15" d="M135.9,72.1c0,0.4,0.1,0.8,0.1,1.2c0,0.4,0.1,0.8,0.1,1.2c0,0-0.1,0-0.1,0c0-0.4-0.1-0.8-0.1-1.1
					c0-0.4-0.1-0.8-0.1-1.1c-0.5,0.1-1,0.1-1.5,0.2c-0.5,0.1-1,0.1-1.5,0.2c0-0.4,0-0.7,0-1.1c-0.1,0-0.2,0-0.3,0
					c0.1-0.2,0.2-0.4,0.4-0.6c0.1,0.1,0.3,0.3,0.4,0.4c-0.1,0-0.2,0-0.3,0c0,0.3,0,0.7,0,1c0.5-0.1,1-0.1,1.5-0.2
					C134.9,72.2,135.4,72.1,135.9,72.1C135.9,72.1,135.9,72.1,135.9,72.1z"/>
				<path class="st15" d="M132.6,72.4c-0.2-0.1-0.3-0.2-0.5-0.3c-0.2,0.2-0.5,0.4-0.7,0.6c-0.2,0.2-0.5,0.4-0.7,0.6
					c0.2,0.1,0.3,0.2,0.5,0.3c0.2-0.2,0.5-0.4,0.7-0.6C132.2,72.8,132.4,72.6,132.6,72.4z"/>
				<path class="st53" d="M132.6,71.8c-0.2-0.1-0.3-0.2-0.5-0.3c-0.3,0.3-0.6,0.5-0.9,0.8c-0.3,0.3-0.6,0.5-0.9,0.8
					c0.2,0.1,0.3,0.2,0.5,0.3c0.3-0.3,0.6-0.5,0.9-0.8C132,72.3,132.3,72,132.6,71.8z"/>
			</g>
		</g>
		<path class="st46" d="M130.8,104.9c-2.5,1.1-6.8,0.6-9.6-1c-2.8-1.6-3.1-3.8-0.6-4.8c2.5-1.1,6.8-0.6,9.6,1
			C133,101.6,133.2,103.8,130.8,104.9z"/>
		<path class="st57" d="M134.7,77.6c0.5-0.5,2.2-1,2.3-1.5l0.4-1.8c-0.3,0.2-0.7,0.6-0.9,0.8l-1,0.7L136,75c0.1-0.3,0.1-0.3,0-0.4
			c0,0-0.1,0-0.1-0.1c-0.1-0.1-0.3,0.1-0.5,0.3c-0.5,0.5-0.5,0.4-0.9,0.6c-0.4,0.3-0.5,0.7-0.8,1.5L134.7,77.6z"/>
		<path class="st58" d="M135.5,75.7l0.3-0.5c0.1-0.1,0.1-0.2,0.2-0.4c0-0.1,0-0.2,0-0.2c0,0.1,0,0.1-0.2,0.4
			c-0.2,0.3-0.5,0.8-0.6,0.9C135.3,75.9,135.4,75.8,135.5,75.7z"/>
		<path class="st59" d="M134.7,77.6c0.5-0.5,2.2-1,2.3-1.5l0.3-1.2c-1,0.9-2.5,1.4-3.4,2l-0.1-0.1l0,0.1L134.7,77.6z"/>
		<path class="st60" d="M124.1,68.9c0.4,0.3,0.8,0.6,0.4,1l0.3,2l-1.2,4.7l1.3,4.3c-0.1,0.3-0.2,0.7-0.4,0.9
			c-0.4,0.3-1.2,0.6-1.4,0.1l-2-5.4c-0.2-0.5-0.1-0.7,0-1.3c0.3-1.1,0.7-3.5,1-4.2C122.5,69.9,122.9,69.1,124.1,68.9z"/>
		<path class="st61" d="M124.1,69c0.4,0.3,0.8,0.6,0.4,0.9l0.3,2l-1.2,4.7l1.3,4.3c-0.1,0.3-0.2,0.7-0.4,0.9
			c-0.4,0.3-0.9,0.6-1.1,0.1c-0.1-1.3,0-2.5-0.3-3.7c-0.4-1.7-1.3-6.1-0.8-7.4C122.6,69.8,122.9,69.1,124.1,69z"/>
		<g>
			<path class="st62" d="M125.5,101.2c-0.2,0.2-0.4,0.3-0.8,0.5v0.4c-0.4,0.8-0.8,1.1-1.4,0.9c-0.8-0.2-1-0.4-1-1
				c-0.1-0.9-0.1-1.1,0.1-1.8c0.8-0.5,1.1-0.6,1.6-0.8c0.4-0.1,1.1-0.5,1.7-0.7c0.4-0.1,0.6,0.2,0.6,0.5
				C126.5,99.9,126,100.7,125.5,101.2z"/>
			<path class="st63" d="M125.5,101.2c-0.2,0.2-0.4,0.3-0.8,0.5v0.4c-0.4,0.8-0.8,1.1-1.4,0.9c-0.8-0.2-1-0.4-1-1
				c0-0.5-0.1-0.8,0-1.1c1,0.5,1.9,0.5,2.8-0.5c0.3-0.3,1.1-1,1.2-1.6c0.1,0.1,0.2,0.2,0.2,0.4C126.5,99.9,126,100.7,125.5,101.2z"
				/>
		</g>
		<g>
			<path class="st62" d="M127.2,102.8c0.2-0.1,0.8-0.9,1.5-0.7c0.9,0.2,2-0.3,2.8-0.3c0.1,0,0.3,0,0.4,0c0.4,0.3,0.4,0.6,0.1,1
				c-0.3,0.3-0.7,0.7-1.1,0.9c-0.4,0.3-0.7,0.5-1.2,0.7c-0.4,0.2-0.6,0.1-1,0.3l0,0.3c-0.3,0.2-0.6,0.4-0.8,0.4
				c-0.5,0-1-0.3-1.4-0.7c0-0.5-0.2-1,0-1.7L127.2,102.8z"/>
			<path class="st63" d="M132.2,102c0.2,0.2,0.1,0.5-0.1,0.8c-0.3,0.3-0.7,0.7-1.1,0.9c-0.4,0.3-0.7,0.5-1.2,0.7
				c-0.4,0.2-0.6,0.1-1,0.3l0,0.3c-0.3,0.2-0.6,0.4-0.8,0.4c-0.5,0-1-0.3-1.4-0.7c0-0.4-0.1-0.7-0.1-1.2c1,0.8,1.7,0.3,2,0.2
				c0.6,0,1.4,0,2.7-0.9C131.6,102.5,131.9,102.2,132.2,102z"/>
			<path class="st64" d="M129.3,103c0.2-0.4,0.2-0.7,0.2-0.8l1.6-0.3c0.8-0.2,1,0,0.8,0.2C131.1,102.7,130.2,102.8,129.3,103z"/>
		</g>
		<path class="st65" d="M127.6,83.9c-0.2,1.9-0.7,7.3-1.3,8.9c-0.9,2.4-1.2,4.7-1.7,7.4c-0.1,0.3-0.3,0.7-0.8,0.9
			c-0.6,0.3-1.5,0.4-1.7-0.1c0.1-2.5,0.1-5,0.3-6.4c0.2-1.1,0.3-2.2,0.8-3.1c0.1-1.1,0-3.8,0-5.9c0-1.8,0-3,0.5-4.2L127.6,83.9z"/>
		<path class="st66" d="M127.6,83.9c-0.2,1.9-0.7,7.3-1.3,8.9c-0.9,2.4-1.2,4.7-1.7,7.4c-0.1,0.3-0.3,0.7-0.8,0.9
			c-0.1,0.1-0.3,0.1-0.4,0.2c0.2-1.9,0.5-5.2,1-7.4c0.2-1,0.2-1.2,0.7-1.8c0.1-3.5,0.1-6-0.7-9.5l-1.1,0.5c0.1-0.6,0.2-1.1,0.4-1.6
			L127.6,83.9z"/>
		<path class="st65" d="M130.7,84.7c0.7,3.5-0.5,7.1-0.9,9.6c-0.5,2.9-0.4,5.3-0.7,8.2c-0.2,0.8-2.1,1.6-2.9,0.8
			c-0.1-2.5-0.4-4.5-0.3-5.8c0.1-1.1,0.1-1.8,0.5-2.8c0-1.1,0-4-0.2-6c-0.1-1.7-0.8-2.1,0.1-4.2l2.9,1L130.7,84.7z"/>
		<path class="st66" d="M130.7,84.7c0.7,3.5-0.5,7.1-0.9,9.6c-0.5,2.9-0.4,5.3-0.7,8.2c-0.1,0.4-0.6,0.8-1.2,1
			c-0.1-2.5-0.2-4.4,0-6.3c0.1-0.8,0.3-1.4,0.5-2.3c0.1-3,0.4-6.5,0.5-9.6l0.4,0.1L130.7,84.7z"/>
		<path class="st60" d="M123.8,69c-0.8,0.3-1.3,0.9-1.4,1.7c-0.5,2.3,1.1,5.6,1.3,8.2c0.1,1.7-1,3.1-0.4,5.9c0.2,0.7,1.5,1.3,2,1.7
			c0.2-0.7,0-1.6,0-2.8c0.1,1.2,0.3,1.8,0.5,3c1.4,0.8,4.3,1.7,5.4,0c-0.3-2.3-1.1-4-1.1-5.8c0.1-3.1,1.5-5.8,1.2-7.3
			c-0.1-0.7-0.6-1.2-1.1-1.6C129,70.9,125.2,68.4,123.8,69z"/>
		<path class="st61" d="M129.7,87.6c0.6-0.1,1.1-0.4,1.5-0.9c-0.3-2.3-1-4.5-1-6.3c0.1-3.1,1.4-5.2,1.1-6.8
			c-0.1-0.7-0.6-1.2-1.1-1.6c-0.5-0.4-1.4-1-2.5-1.5l0,0.3c0.8,0.5,1.1,0.8,1.8,1.5c-2,1.9-0.9,6.7-0.6,8.9
			C129,81.8,129.5,84.4,129.7,87.6z"/>
		<g>
			<path class="st57" d="M129.5,69.2c-0.2,0.1-1.4-0.1-1.4,0.1c0,0.6,0.3,1,0.2,2.1c-1.4,1-3.3-0.2-3.1-0.9c0-0.5,0.2-1.8,0-2.2
				c-0.3-0.4-0.8-0.9-1-1.6c-0.2-0.7-0.2-1.5,0.1-2.1c0.2-0.3,0.4-0.7,0.7-0.9c1.6-1.2,4.1-0.4,4.7,1.7c0.1,0.4-0.2,0.6-0.2,1
				c0,0.1,0.1,0.1,0.2,0.3C129.8,66.9,129.8,69.1,129.5,69.2z"/>
			<path class="st59" d="M129.5,69.2c-0.2,0.1-1.4,0-1.4,0.1c0,0.6,0.3,1,0.2,2.1c-0.8-1.2-1.1-1.8-3-2.5c0-0.2,0-0.4-0.1-0.6
				c-0.3-0.4-0.8-0.9-1-1.6c-0.2-0.7-0.2-1.5,0.1-2.1c0.2-0.3,0.4-0.7,0.7-0.9c1.7-1.2,4.1-0.4,4.7,1.7c0.1,0.4-0.2,0.6-0.2,1
				c0,0.1,0.1,0.1,0.2,0.3C129.8,66.9,129.8,69.1,129.5,69.2z"/>
			<path class="st59" d="M129.5,69.2c-0.1,0.1-0.6,0-1-0.1c-0.2-0.1-0.4-0.3-0.4-0.3c-0.2-0.1-0.5-0.6,0-1.3
				c0.5-0.8-2.6,1.2-2.8,0.9c-0.3-0.4-0.8-0.9-1-1.6c-0.2-0.7-0.2-1.5,0.1-2.2c0.2-0.3,0.4-0.6,0.7-0.9c1.8-1.2,4.1-0.4,4.7,1.7
				c0.1,0.4-0.2,0.6-0.2,1c0,0.1,0.1,0.1,0.2,0.3C129.8,66.9,129.7,69.1,129.5,69.2z"/>
			<path class="st57" d="M129.5,69.2c0,0-0.3,0-0.5,0c-0.2-0.2-0.3-0.5-0.3-0.7c0-0.7,0.4-1.3,0.4-1.5c0-0.6-0.2-0.3,0-0.9
				c0.2-0.5-0.1-0.6-0.2-1c0.3-0.1,0.4-0.3,0.4-0.4c0.2,0.3,0.3,0.5,0.4,0.8c0.1,0.4-0.2,0.6-0.2,1c0,0.1,0.1,0.1,0.2,0.3
				C129.8,66.9,129.8,69,129.5,69.2z"/>
			<path class="st59" d="M128.2,67.5c-0.6-0.6-1.3,1.3-0.2,1.3C127.5,68.3,127.8,67.7,128.2,67.5z"/>
			<path class="st57" d="M128.2,67.8c0.1-0.3,0-0.4-0.1-0.3c-0.1,0-0.3,0.2-0.4,0.5c-0.2,0.5,0.1,1,0.5,0.8c-0.4,0-0.3-0.4-0.2-0.7
				C128,67.8,128.1,67.7,128.2,67.8z"/>
			<path class="st67" d="M128,67.9c0.1,0.2,0.1,0.3,0.1,0.4c0,0-0.1,0.1-0.2,0C127.9,68.1,127.9,68,128,67.9z"/>
			<path class="st68" d="M125.2,68.8c-0.1-0.7-0.8-1.3-1-2.1c-0.3-1-0.2-2.1,0.8-2.9c1.4-1.1,3.1-0.5,4,0.7c0,0.1-0.1,0.5-0.3,0.6
				c0.2,0.6,0.2,0.8,0.1,1c-0.4,0.5-0.4,0.6-0.4,1.5l-0.2,0.2c-0.1-0.7-0.4-0.6-0.7-0.4c-0.5,0.4-0.3,1.8-1.4,1.8
				C125.8,69.1,125.4,69,125.2,68.8z"/>
			<path class="st69" d="M125.2,68.8c-0.1-0.7-0.8-1.3-1-2.1c-0.1-0.3-0.1-0.5-0.1-0.8c1,0.8,2.9,0.8,4.7-0.1c0,0.1,0,0.2-0.1,0.3
				c-0.4,0.5-0.4,0.6-0.4,1.5l-0.2,0.2c-0.1-0.7-0.4-0.6-0.7-0.4c-0.5,0.4-0.3,1.8-1.4,1.8C125.8,69.1,125.4,69,125.2,68.8z"/>
			<path class="st69" d="M125.2,68.8c0-0.3-0.2-0.5-0.3-0.8c0.5,0.5,1.2,0.7,2.1,0.2c-0.2,0.5-0.4,0.9-1,0.9
				C125.8,69.1,125.4,69,125.2,68.8z"/>
			<path class="st68" d="M125.2,65.4c0.9,0.3,2.5,0,3.4-0.5c0.8-0.5,0.7-1,0.5-1.3c-0.2-0.3-0.8-0.5-1.7-0.5c0.1,0,0.2,0,0.3-0.1
				c-1-0.2-1.7-0.1-2.5,0.4c0-0.1,0.1-0.1,0.1-0.1c-0.4,0.1-1.3,0.9-1.1,1.4C124.3,65,124.7,65.3,125.2,65.4z"/>
			<path class="st69" d="M128.7,63.3c-0.3-0.1-0.7-0.2-1.2-0.2c0.1,0,0.2,0,0.3-0.1c-1-0.2-1.7-0.1-2.5,0.4c0-0.1,0.1-0.1,0.1-0.1
				c-0.2,0.1-0.7,0.4-0.9,0.8c0.7-0.5,1.2-0.5,2.6-0.5c-0.2,0-0.3-0.1-0.4-0.1C127.2,63.5,128.1,63.3,128.7,63.3L128.7,63.3z"/>
			<path class="st68" d="M125.2,65.4c0.9,0.3,2.5,0,3.4-0.5c0.7-0.4,0.9-1.2,0.2-1.5c0.1,0.3-0.1,0.9-0.8,1.2c-0.1,0,0-0.1,0-0.2
				c-0.4,0.1-0.9,0.6-1.3,0.7c0.2-0.1,0.2-0.1,0.3-0.3c-0.7,0.2-1.1,0.1-1.8,0.3c0.1-0.1,0.2-0.1,0.3-0.2c-0.6,0.1-1,0-1.3-0.1
				c0,0,0,0,0,0.1C124.3,65,124.7,65.3,125.2,65.4z"/>
		</g>
		<path class="st60" d="M130.8,72.5c0.9,0.8,0.9,4.3,0.9,6.9c0,0-0.8,2.5-2.4,1.1c-0.1-1.3-0.2-2.7-0.2-3.9c0-1.2-0.1-3.4,1-4
			C130.2,72.4,130.6,72.3,130.8,72.5z"/>
		<path class="st60" d="M129.9,78.3l3.9-2.1c1-0.3,1.6,1.3,1.1,1.9l-4,2.6c-0.6,0.2-1.2,0.2-1.4,0c-0.3-0.3-0.4-0.8-0.3-1.3
			C129.3,79,129.5,78.7,129.9,78.3z"/>
		<path class="st61" d="M134.8,76.8c0.2,0.5,0.3,1,0.1,1.3l-4,2.6c-0.6,0.2-1.2,0.2-1.4,0c-0.1-0.1-0.2-0.2-0.2-0.3
			C130.2,80.6,133.5,78.4,134.8,76.8z"/>
		<path class="st60" d="M124,69.3c-0.1,1.9,2.3,2.9,4.9,2.8c-1.3,2.2-0.9,5.7-0.4,8.9c0.3,2.2,0.9,4.4,0.9,6.3
			c-1.1,0.2-2.2-0.3-3.2-0.7c-1.3-4.4-0.9-5.1-0.4-7.2c-0.9,2.3-0.8,3.7-0.7,6.8c-0.8-0.5-1-0.6-1.6-1.3c-0.6-3,0.8-5.6,0.6-6.4
			C123,74.2,121.1,70.3,124,69.3z"/>
		<path class="st70" d="M126.5,87.5l1.4,0.7c0,2.3-0.1,4.9-0.3,7.3c-0.6,1.5-0.4,6-0.3,8c-0.4,0-0.5,0-0.9-0.3
			c-0.1-3.8-0.5-6.9,0.3-8.1C126.9,92.3,126.8,90.4,126.5,87.5z"/>
		<path class="st60" d="M124.7,86.5c0,1.7-0.1,3.8-0.1,5.5c-0.6,0.8-0.8,1.7-1,2.7c-0.4,2.2-0.4,4.2-0.5,6.4c-0.4,0.1-0.5,0-0.9-0.2
			c0.1-2.2,0.2-4.4,0.5-6.6c0.1-0.9,0.3-1.7,0.9-2.8c0-2-0.1-3.9-0.1-5.9C124.1,86.1,124.2,86.2,124.7,86.5z"/>
		<path class="st60" d="M125.3,69.1c-0.2,0-0.3-0.1-0.5-0.1c-0.4,0.1-0.4,1-0.3,1.4c0.3,0.7,1.1,1.2,2.3,1.5c1.4,0.2,3,0,3.4,0.2
			c0.1,0-1.2-0.9-1.3-1C127.6,70.7,125.1,70.2,125.3,69.1z"/>
		<path class="st71" d="M125.4,69.1c0,0.7,1.9,1.2,3,0.8c0.3,0.1,0.6,0.8,0.6,1.1c-1.3,0.3-3.3,0.2-3.9-0.9
			C124.9,69.9,125.1,69.3,125.4,69.1z"/>
		<path class="st61" d="M130.9,72.5c0.8,0.7,0.8,2.8,0.8,4.9c-0.3,0.7-0.5,1.2-1.2,1.8c0.8-1.7,0.1-5.7-0.3-6.9
			C130.4,72.3,130.6,72.3,130.9,72.5z"/>
		<path class="st60" d="M130.2,72.6c0.1,0.8,0.8,4.6,0.1,6.9c-0.1,0.4-0.5,0.6-0.8,0.6C129.4,76.5,129,73.4,130.2,72.6z"/>
	</g>
	<g>
		<polygon class="st72" points="142.2,121.8 142.3,121.9 131.9,115.9 116.8,124.7 116.1,124.1 115.6,124 115.6,125.4 127.6,132.3 
			143.8,122.8 143.8,121.5 		"/>
		<polygon class="st53" points="143.8,121.5 127.6,130.9 115.6,124 131.9,114.6 		"/>
		<polygon class="st73" points="128.9,129.1 118.8,123.2 118,123.7 128.2,129.5 		"/>
		<polygon class="st73" points="130.5,128.2 120.3,122.3 119.6,122.8 129.8,128.6 		"/>
		<polygon class="st73" points="132.1,127.3 121.9,121.4 121.2,121.9 131.3,127.7 		"/>
		<polygon class="st73" points="133.6,126.4 123.5,120.5 122.7,120.9 132.9,126.8 		"/>
		<polygon class="st73" points="135.2,125.5 125,119.6 124.3,120 134.5,125.9 		"/>
		<polygon class="st73" points="136.7,124.6 126.6,118.7 125.9,119.1 136,125 		"/>
		<polygon class="st73" points="138.3,123.7 128.1,117.8 127.4,118.2 137.6,124.1 		"/>
		<polygon class="st73" points="139.9,122.8 129.7,116.9 129,117.3 139.1,123.2 		"/>
		<polygon class="st73" points="140.7,122.3 141.4,121.8 131.3,116 130.5,116.4 		"/>
		<polygon class="st60" points="142.2,119.7 142.3,119.8 131.9,113.8 116.8,122.6 116.1,122 115.6,121.9 115.6,123.3 127.6,130.2 
			143.8,120.7 143.8,119.4 		"/>
		<polygon class="st53" points="143.8,119.4 127.6,128.8 115.6,121.9 131.9,112.5 		"/>
		<polygon class="st73" points="128.9,127 118.8,121.2 118,121.6 128.2,127.5 		"/>
		<polygon class="st73" points="130.5,126.1 120.3,120.3 119.6,120.7 129.8,126.5 		"/>
		<polygon class="st73" points="132.1,125.2 121.9,119.3 121.2,119.8 131.3,125.6 		"/>
		<polygon class="st73" points="133.6,124.3 123.5,118.4 122.7,118.9 132.9,124.7 		"/>
		<polygon class="st73" points="135.2,123.4 125,117.5 124.3,118 134.5,123.8 		"/>
		<polygon class="st73" points="136.7,122.5 126.6,116.6 125.9,117 136,122.9 		"/>
		<polygon class="st73" points="138.3,121.6 128.1,115.7 127.4,116.1 137.6,122 		"/>
		<polygon class="st73" points="139.9,120.7 129.7,114.8 129,115.2 139.1,121.1 		"/>
		<polygon class="st73" points="140.7,120.2 141.4,119.8 131.3,113.9 130.5,114.3 		"/>
		<polygon class="st60" points="142.2,117.6 142.3,117.7 131.9,111.7 116.8,120.5 116.1,119.9 115.6,119.8 115.6,121.2 127.6,128.1 
			143.8,118.7 143.8,117.3 		"/>
		<polygon class="st53" points="143.8,117.3 127.6,126.8 115.6,119.9 131.9,110.4 		"/>
		<polygon class="st73" points="128.9,124.9 118.8,119.1 118,119.5 128.2,125.4 		"/>
		<polygon class="st73" points="130.5,124 120.3,118.2 119.6,118.6 129.8,124.5 		"/>
		<polygon class="st73" points="132.1,123.1 121.9,117.3 121.2,117.7 131.3,123.6 		"/>
		<polygon class="st73" points="133.6,122.2 123.5,116.4 122.7,116.8 132.9,122.6 		"/>
		<polygon class="st73" points="135.2,121.3 125,115.4 124.3,115.9 134.5,121.7 		"/>
		<polygon class="st73" points="136.7,120.4 126.6,114.5 125.9,115 136,120.8 		"/>
		<polygon class="st73" points="138.3,119.5 128.1,113.6 127.4,114 137.6,119.9 		"/>
		<polygon class="st73" points="139.9,118.6 129.7,112.7 129,113.1 139.1,119 		"/>
		<polygon class="st73" points="140.7,118.1 141.4,117.7 131.3,111.8 130.5,112.2 		"/>
		<polygon class="st60" points="142.2,115.5 142.3,115.7 131.9,109.7 116.8,118.4 116.1,117.8 115.6,117.7 115.6,119.1 127.6,126 
			143.8,116.6 143.8,115.2 		"/>
		<polygon class="st53" points="143.8,115.2 127.6,124.7 115.6,117.8 131.9,108.3 		"/>
		<polygon class="st73" points="128.9,122.9 118.8,117 118,117.4 128.2,123.3 		"/>
		<polygon class="st73" points="130.5,122 120.3,116.1 119.6,116.5 129.8,122.4 		"/>
		<polygon class="st73" points="132.1,121 121.9,115.2 121.2,115.6 131.3,121.5 		"/>
		<polygon class="st73" points="133.6,120.1 123.5,114.3 122.7,114.7 132.9,120.6 		"/>
		<polygon class="st73" points="135.2,119.2 125,113.4 124.3,113.8 134.5,119.7 		"/>
		<polygon class="st73" points="136.7,118.3 126.6,112.5 125.9,112.9 136,118.7 		"/>
		<polygon class="st73" points="138.3,117.4 128.1,111.5 127.4,112 137.6,117.8 		"/>
		<polygon class="st73" points="139.9,116.5 129.7,110.6 129,111.1 139.1,116.9 		"/>
		<polygon class="st73" points="140.7,116 141.4,115.6 131.3,109.7 130.5,110.1 		"/>
		<polygon class="st60" points="142.2,113.5 142.3,113.6 131.9,107.6 116.8,116.4 116.1,115.8 115.6,115.6 115.6,117 127.6,123.9 
			143.8,114.5 143.8,113.2 		"/>
		<polygon class="st53" points="143.8,113.2 127.6,122.6 115.6,115.7 131.9,106.3 		"/>
		<polygon class="st73" points="128.9,120.8 118.8,114.9 118,115.3 128.2,121.2 		"/>
		<polygon class="st73" points="130.5,119.9 120.3,114 119.6,114.4 129.8,120.3 		"/>
		<polygon class="st73" points="132.1,119 121.9,113.1 121.2,113.5 131.3,119.4 		"/>
		<polygon class="st73" points="133.6,118.1 123.5,112.2 122.7,112.6 132.9,118.5 		"/>
		<polygon class="st73" points="135.2,117.1 125,111.3 124.3,111.7 134.5,117.6 		"/>
		<polygon class="st73" points="136.7,116.2 126.6,110.4 125.9,110.8 136,116.7 		"/>
		<polygon class="st73" points="138.3,115.3 128.1,109.5 127.4,109.9 137.6,115.8 		"/>
		<polygon class="st73" points="139.9,114.4 129.7,108.6 129,109 139.1,114.8 		"/>
		<polygon class="st73" points="140.7,113.9 141.4,113.5 131.3,107.6 130.5,108.1 		"/>
		<polygon class="st60" points="142.2,111.4 142.3,111.5 131.9,105.5 116.8,114.3 116.1,113.7 115.6,113.6 115.6,114.9 127.6,121.8 
			143.8,112.4 143.8,111.1 		"/>
		<polygon class="st74" points="143.8,111.1 127.6,120.5 115.6,113.6 131.9,104.2 		"/>
		<polygon class="st75" points="128.9,118.7 118.8,112.8 118,113.3 128.2,119.1 		"/>
		<polygon class="st75" points="130.5,117.8 120.3,111.9 119.6,112.3 129.8,118.2 		"/>
		<polygon class="st75" points="132.1,116.9 121.9,111 121.2,111.4 131.3,117.3 		"/>
		<polygon class="st75" points="133.6,116 123.5,110.1 122.7,110.5 132.9,116.4 		"/>
		<polygon class="st75" points="135.2,115.1 125,109.2 124.3,109.6 134.5,115.5 		"/>
		<polygon class="st75" points="136.7,114.2 126.6,108.3 125.9,108.7 136,114.6 		"/>
		<polygon class="st75" points="138.3,113.2 128.1,107.4 127.4,107.8 137.6,113.7 		"/>
		<polygon class="st75" points="139.9,112.3 129.7,106.5 129,106.9 139.1,112.8 		"/>
		<polygon class="st75" points="140.7,111.8 141.4,111.4 131.3,105.6 130.5,106 		"/>
		<path class="st75" d="M132,111.9c0,0.1,0,0.3,0,0.4c0,0.1,0,0.3,0,0.4h1l0-0.8H132z"/>
		<polygon class="st66" points="132,112.8 132,113.8 133,113.8 133,112.8 		"/>
		<polygon class="st10" points="133,113 133,114 143.8,114 143.8,113 		"/>
		<polygon class="st11" points="133,111.7 133,111.9 133,112.8 133,113 143.8,113 143.8,111.7 		"/>
		<path class="st14" d="M126.8,115.4c1.5,0,2.8-0.3,3.7-0.9c0.8-0.5,1.3-1.1,1.5-1.8c0-0.1,0-0.3,0-0.4c0,0,0,0,0,0l0,1c0,0,0,0,0,0
			c0,0.1,0,0.3-0.1,0.4c-0.2,0.7-0.7,1.3-1.5,1.8c-1,0.6-2.3,0.9-3.7,0.9c-2.9,0-5.3-1.4-5.3-3.1l0-1
			C121.5,114,123.8,115.4,126.8,115.4"/>
		<path class="st76" d="M123.7,110.6c-0.8,0.5-1.3,1.1-1.3,1.8c0,0.7,0.5,1.3,1.3,1.8c0.8,0.5,1.9,0.7,3.1,0.7
			c1.2,0,2.3-0.3,3.1-0.7c0.8-0.5,1.3-1.1,1.3-1.8c0-0.7-0.5-1.3-1.3-1.8c-0.8-0.5-1.9-0.7-3.1-0.7
			C125.6,109.8,124.5,110.1,123.7,110.6"/>
		<path class="st15" d="M121.5,112.3c0,1.7,2.3,3.1,5.3,3.1c1.5,0,2.8-0.3,3.7-0.9c0.8-0.5,1.3-1.1,1.5-1.8c0-0.1,0-0.3,0-0.4
			c0-0.1,0-0.3,0-0.4c-0.3-1.5-2.5-2.6-5.2-2.6c-1.5,0-2.8,0.3-3.7,0.9C122.1,110.7,121.5,111.5,121.5,112.3 M122.4,112.3
			c0-0.7,0.5-1.3,1.3-1.8c0.8-0.5,1.9-0.7,3.1-0.7c1.2,0,2.3,0.3,3.1,0.7c0.8,0.5,1.3,1.1,1.3,1.8c0,0.7-0.5,1.3-1.3,1.8
			c-0.8,0.5-1.9,0.7-3.1,0.7c-1.2,0-2.3-0.3-3.1-0.7C122.9,113.7,122.4,113,122.4,112.3z"/>
		<path class="st53" d="M126.6,114.9c-0.8,0-1.5-0.1-2.1-0.4l6-3.5c0.4,0.4,0.6,0.8,0.6,1.2L126.6,114.9z"/>
		<path class="st53" d="M128.1,109.9c0.7,0.1,1.3,0.3,1.8,0.6l-6.2,3.6c-0.5-0.3-0.8-0.6-1-1L128.1,109.9z"/>
	</g>
</g>
</svg>
