<?xml version="1.0" encoding="utf-8"?>
<!-- Generator: Adobe Illustrator 27.5.0, SVG Export Plug-In . SVG Version: 6.00 Build 0)  -->
<svg version="1.1" xmlns="http://www.w3.org/2000/svg" xmlns:xlink="http://www.w3.org/1999/xlink" x="0px" y="0px"
	 viewBox="0 0 200 90" style="enable-background:new 0 0 200 90;" xml:space="preserve">
<style type="text/css">
	.st0{fill:#0098CC;}
	.st1{fill:#595A5A;}
	.st2{fill:#F26C21;}
	.st3{fill:#595A5A;stroke:#595A5A;stroke-width:0.25;stroke-miterlimit:10;}
	.st4{display:none;}
	.st5{display:inline;}
	.st6{fill:#58595B;}
	.st7{fill:#F26D24;}
	.st8{clip-path:url(#SVGID_00000166654010166835456360000009847764484249184644_);}
</style>
<g id="Concierto">
	<g>
		<g>
			<path class="st0" d="M56.4,61.5c-0.9,0.1-1.7-0.2-2.5-0.8c-0.8-0.6-1.1-1.5-1.1-2.8V36.8H49v21.1c0,0.9,0.2,1.7,0.7,2.4
				c0.4,0.7,1,1.3,1.7,1.8c0.7,0.5,1.5,0.9,2.4,1.1c0.9,0.2,1.8,0.4,2.7,0.4h0.4v-2.1L56.4,61.5L56.4,61.5z"/>
			<path class="st0" d="M108.7,45.5v10.7c0,1.8-0.6,3.1-1.7,3.9c-1.2,0.9-2.5,1.3-4,1.3s-2.8-0.4-4-1.3c-1.2-0.9-1.7-2.1-1.7-3.9
				V45.5h-3.8v10.7c0,1.6,0.5,3,1.5,4.1c0.9,1.1,2.1,1.9,3.5,2.4c1.4,0.5,2.9,0.8,4.5,0.8c1.6,0,3.1-0.3,4.5-0.8
				c1.4-0.5,2.6-1.3,3.5-2.4c1-1.1,1.5-2.5,1.5-4.1V45.5L108.7,45.5L108.7,45.5z"/>
			<path class="st0" d="M134.2,36.8h-3.4v19.5c0,1.8-0.6,3.1-1.7,3.9c-1.2,0.9-2.5,1.3-4,1.3s-2.8-0.4-4-1.3
				c-1.2-0.9-1.7-2.1-1.7-3.9v-3.9c0-1.2,0.3-2.3,0.9-3.1c0.6-0.8,1.4-1.4,2.3-1.8c0.9-0.4,2-0.5,3-0.4c1.1,0.1,2,0.4,2.9,0.9
				l0.7,0.4v-2.8l-0.3-0.1c-1.4-0.4-2.9-0.6-4.4-0.5c-1.5,0.1-3,0.4-4.2,0.9c-1.3,0.5-2.4,1.3-3.3,2.4c-0.9,1.1-1.3,2.4-1.3,3.9v3.9
				c0,1.6,0.5,3,1.5,4.1c0.9,1.1,2.1,1.9,3.5,2.4c1.4,0.5,2.9,0.8,4.5,0.8c1.6,0,3.1-0.3,4.5-0.8c1.4-0.5,2.6-1.3,3.5-2.4
				c1-1.1,1.5-2.5,1.5-4.1V36.8H134.2L134.2,36.8z"/>
			<path class="st1" d="M40.7,33.8l-2-1.7l-0.3,0.1c-0.9,0.5-1.9,0.7-3,0.7h-0.9c-1.5,0-2.8-0.4-4-1.3c-1.2-0.8-1.7-2.1-1.7-3.8
				v-3.8c0-1.7,0.6-3,1.7-3.9c1.2-0.9,2.6-1.3,4-1.3h0.9c1.1,0,2.1,0.2,3,0.7l0.3,0.1l1.9-1.8l-0.6-0.2c-0.7-0.3-1.5-0.5-2.3-0.6
				c-0.8-0.1-1.6-0.2-2.3-0.2h-0.9c-1.2,0-2.3,0.1-3.5,0.4c-1.1,0.3-2.1,0.7-3,1.3c-0.9,0.6-1.6,1.3-2.2,2.2c-0.6,0.9-0.9,2-0.9,3.2
				v3.8c0,1.2,0.3,2.3,0.9,3.1c0.6,0.9,1.3,1.6,2.2,2.2c0.9,0.6,1.9,1,3,1.3c1.1,0.3,2.3,0.4,3.5,0.4h0.9c1.6,0,3.1-0.3,4.6-0.8
				L40.7,33.8L40.7,33.8z"/>
			<path class="st1" d="M56.9,18.5c-0.9-0.6-1.9-1-3-1.3c-2.3-0.6-4.7-0.6-6.9,0c-1.1,0.3-2.1,0.7-3,1.3c-0.9,0.6-1.6,1.3-2.2,2.2
				c-0.6,0.9-0.9,2-0.9,3.2v3.8c0,1.2,0.3,2.3,0.9,3.1c0.6,0.9,1.3,1.6,2.2,2.2c0.9,0.6,1.9,1,3,1.3c1.1,0.3,2.3,0.4,3.5,0.4
				c1.2,0,2.3-0.1,3.4-0.4c1.1-0.3,2.2-0.7,3-1.3c0.9-0.6,1.6-1.3,2.2-2.2c0.6-0.9,0.9-1.9,0.9-3.1v-3.8c0-1.2-0.3-2.3-0.9-3.2
				C58.5,19.8,57.8,19.1,56.9,18.5L56.9,18.5z M56.2,27.7c0,1.7-0.6,3-1.7,3.8c-1.2,0.9-2.5,1.3-3.9,1.3c-1.4,0-2.8-0.4-4-1.3
				c-1.2-0.8-1.7-2.1-1.7-3.8v-3.8c0-1.7,0.6-3,1.7-3.9c1.2-0.9,2.6-1.3,4-1.3c1.5,0,2.7,0.4,3.9,1.3c1.2,0.9,1.7,2.1,1.7,3.9
				L56.2,27.7L56.2,27.7z"/>
			<path class="st1" d="M62.3,32.2v2.1h3.8V23.9c0-1.7,0.6-3,1.7-3.9c1.2-0.9,2.5-1.3,4-1.3s2.8,0.4,4,1.3c1.2,0.9,1.7,2.1,1.7,3.9
				v10.4h3.8V23.9c0-1.6-0.5-2.9-1.5-4c-0.9-1-2.1-1.8-3.5-2.3c-1.4-0.5-2.9-0.8-4.5-0.8c-1.6,0-3.1,0.2-4.5,0.8
				c-1.4,0.5-2.6,1.3-3.5,2.3c-1,1.1-1.5,2.4-1.5,4L62.3,32.2L62.3,32.2z"/>
			<path class="st1" d="M98.8,34l0.7-0.2l-2-1.7l-0.3,0.1c-0.9,0.5-1.9,0.7-3,0.7h-0.9c-1.5,0-2.8-0.4-4-1.3
				c-1.2-0.8-1.7-2.1-1.7-3.8v-3.8c0-1.7,0.6-3,1.7-3.9c1.2-0.9,2.6-1.3,4-1.3h0.9c1.1,0,2.1,0.2,3,0.7l0.3,0.1l1.9-1.8l-0.6-0.2
				c-0.7-0.3-1.5-0.5-2.3-0.6c-0.8-0.1-1.6-0.2-2.3-0.2h-0.9c-1.2,0-2.3,0.1-3.5,0.4c-1.1,0.3-2.1,0.7-3,1.3
				c-0.9,0.6-1.6,1.3-2.2,2.2c-0.6,0.9-0.9,2-0.9,3.2v3.8c0,1.2,0.3,2.3,0.9,3.1c0.6,0.9,1.3,1.6,2.2,2.2c0.9,0.6,1.9,1,3,1.3
				c1.1,0.3,2.3,0.4,3.5,0.4h0.9C95.8,34.8,97.3,34.5,98.8,34L98.8,34z"/>
			<rect x="102.2" y="17.4" class="st1" width="3.8" height="16.9"/>
			<path class="st1" d="M102.4,14.6c0.5,0.5,1,0.7,1.6,0.7c0.6,0,1.2-0.2,1.7-0.7c0.5-0.5,0.8-1.1,0.8-1.7c0-0.7-0.3-1.3-0.8-1.8
				c-0.5-0.5-1-0.7-1.7-0.7c-0.6,0-1.1,0.2-1.6,0.7c-0.5,0.5-0.8,1.1-0.8,1.8C101.7,13.5,102,14.1,102.4,14.6L102.4,14.6z"/>
			<path class="st1" d="M119.8,34.8c1.6,0,3.1-0.3,4.6-0.8l0.7-0.2l-2-1.7l-0.3,0.1c-0.9,0.5-1.9,0.7-3.1,0.7h-0.9
				c-1.5,0-2.8-0.4-4-1.3c-1.2-0.8-1.7-2.1-1.7-3.8v-3.8c0-1.7,0.6-3,1.7-3.9c1.2-0.9,2.5-1.3,4-1.3s2.8,0.4,4,1.3
				c1.2,0.9,1.7,2.1,1.7,3.9v0.9h-9.8v2h13.6v-2.9c0-1.6-0.5-2.9-1.5-4c-0.9-1-2.1-1.8-3.5-2.3c-1.4-0.5-2.9-0.8-4.5-0.8
				c-1.6,0-3.1,0.2-4.5,0.8c-1.4,0.5-2.6,1.3-3.5,2.3c-1,1.1-1.5,2.4-1.5,4v3.8c0,1.2,0.3,2.3,0.9,3.1c0.6,0.9,1.3,1.6,2.2,2.2
				c0.9,0.6,1.9,1,3,1.3c1.1,0.3,2.3,0.4,3.5,0.4H119.8L119.8,34.8z"/>
			<path class="st1" d="M174.1,20.7c-0.6-0.9-1.3-1.6-2.2-2.2c-0.9-0.6-1.9-1-3-1.3c-2.3-0.6-4.7-0.6-6.9,0c-1.1,0.3-2.1,0.7-3,1.3
				c-0.9,0.6-1.6,1.3-2.2,2.2c-0.6,0.9-0.9,2-0.9,3.2v3.8c0,1.2,0.3,2.3,0.9,3.1c0.6,0.9,1.3,1.6,2.2,2.2c0.9,0.6,1.9,1,3,1.3
				c1.1,0.3,2.3,0.4,3.5,0.4s2.3-0.1,3.4-0.4c1.1-0.3,2.2-0.7,3-1.3c0.9-0.6,1.6-1.3,2.2-2.2c0.6-0.9,0.9-2,0.9-3.1v-3.8
				C175,22.7,174.7,21.6,174.1,20.7L174.1,20.7z M171.2,27.7c0,1.7-0.6,3-1.7,3.8c-1.2,0.9-2.5,1.3-3.9,1.3c-1.4,0-2.8-0.4-4-1.3
				c-1.2-0.8-1.7-2.1-1.7-3.8v-3.8c0-1.7,0.6-3,1.7-3.9c1.2-0.9,2.6-1.3,4-1.3s2.7,0.4,3.9,1.3c1.2,0.9,1.7,2.1,1.7,3.9V27.7z"/>
			<g>
				<path class="st0" d="M44.1,60.7l-0.3,0.1c-0.9,0.5-1.9,0.7-3,0.7h-0.9c-1.5,0-2.8-0.4-4-1.3c-1.2-0.9-1.7-2.1-1.7-3.9v-3.9
					c0-1.8,0.6-3.1,1.7-4c1.2-0.9,2.5-1.3,4-1.3h0.9c1.1,0,2.1,0.2,3,0.8l0.3,0.1l1.9-1.8l-0.6-0.2c-0.7-0.3-1.5-0.5-2.3-0.6
					c-0.8-0.1-1.6-0.2-2.3-0.2h-0.9c-1.2,0-2.3,0.1-3.5,0.4c-1.1,0.3-2.1,0.7-3,1.3c-0.9,0.6-1.6,1.3-2.2,2.3
					c-0.6,0.9-0.9,2-0.9,3.2v3.9c0,1.2,0.3,2.3,0.9,3.2c0.6,0.9,1.3,1.7,2.2,2.3c0.9,0.6,1.9,1.1,3,1.3c1.1,0.3,2.3,0.4,3.5,0.4h0.9
					c1.6,0,3.1-0.3,4.6-0.8l0.6-0.2L44.1,60.7L44.1,60.7z"/>
				<path class="st0" d="M28.5,60.1c-0.4-0.4-0.9-0.5-1.4-0.5c-0.5,0-1,0.2-1.4,0.5C25.2,60.5,25,61,25,61.6c0,0.5,0.2,1,0.6,1.4
					c0.4,0.4,0.9,0.5,1.4,0.5c0.5,0,1-0.2,1.4-0.5c0.4-0.4,0.6-0.9,0.6-1.4C29.1,61,28.9,60.5,28.5,60.1z"/>
			</g>
			<path class="st1" d="M134.7,16.8c1.1,1.4,2.7,2,3.5,2.5c1.1,0.8,2.6,1.5,3,3.8c0.4,2.3-0.6,4.3-1,5.1c-0.1,0.2-0.4,0.3-0.6,0.2
				l0,0c-0.2-0.1-0.3-0.3-0.2-0.6c0.3-0.9,1.1-1.4,0.6-3.5c-0.7-3.4-5.2-3.4-5.2-3.4l0,0v13.5h-3.8V16.8H134.7L134.7,16.8z"/>
			<path class="st1" d="M153.9,32.4c-0.6,0.3-1.3,0.5-2.1,0.5c-1,0-2-0.3-2.8-0.9c-0.8-0.6-1.2-1.4-1.2-2.6V19.3h5.7v-2h-5.7V10H144
				v19.1c0,1,0.2,1.9,0.7,2.6c0.4,0.7,1,1.3,1.8,1.8c0.7,0.5,1.6,0.8,2.5,1.1c0.9,0.2,1.9,0.4,2.8,0.4c1.1,0,2.1-0.1,3.1-0.4
				l0.5-0.1l-1-2.2L153.9,32.4L153.9,32.4z"/>
			<g>
				<path class="st2" d="M83.5,51c0,1.2-0.3,2.4-0.9,3.4c-0.2,0.4-0.1,0.9,0.2,1.1h0c0.5,0.4,1.1,0.3,1.4-0.2
					c0.7-1.3,1.1-2.8,1.1-4.3c0-5-4.2-9.1-9.4-9.1c-3.5,0-6.7,1.9-8.3,4.9c-0.1,0.2-0.1,0.5-0.1,0.7c0.1,0.2,0.2,0.4,0.4,0.5
					c0.5,0.2,1,0.1,1.2-0.4c1.3-2.4,3.9-3.9,6.7-3.9C80.2,43.7,83.5,47,83.5,51L83.5,51z"/>
				<path class="st0" d="M90,53.6c-0.8-1-2-1.7-3.2-2c-0.2,0-0.5,0-0.7,0.1c-0.2,0.1-0.4,0.3-0.4,0.6s0,0.5,0.1,0.7
					c0.1,0.2,0.3,0.4,0.6,0.4c1.8,0.4,3,2.1,3,3.9c0,2.3-1.8,4.3-3.9,4.3H65.9c-3.1,0-5.5-2.6-5.5-5.7s2.5-5.7,5.5-5.7
					c1.1,0,2.2,0.4,3,0.9c0.4,0.3,0.9,0.2,1.2-0.2v0c0.4-0.4,0.3-1-0.2-1.3c-1.2-0.8-2.5-1.2-4-1.2c-4.1,0-7.4,3.4-7.4,7.6
					s3.3,7.6,7.4,7.6h19.7c1.5,0,3-0.7,4.1-1.9c1-1.2,1.6-2.7,1.6-4.3C91.3,56,90.9,54.7,90,53.6L90,53.6z"/>
				<path class="st0" d="M79.6,52.8c0.5-0.1,1.3-0.2,2.4-0.1c0.5,0,1-0.3,1-0.8c0-0.2,0-0.5-0.2-0.7c-0.2-0.2-0.4-0.3-0.6-0.3
					c-1.5-0.2-2.6,0-3.3,0.1c-0.5-0.7-1.3-1.1-2.2-1.1c-1.5,0-2.8,1.3-2.8,2.8s1.3,2.8,2.8,2.8C78.3,55.7,79.6,54.4,79.6,52.8
					L79.6,52.8z M76.8,54.1c-0.7,0-1.3-0.6-1.3-1.3c0-0.7,0.6-1.3,1.3-1.3c0.7,0,1.3,0.6,1.3,1.3C78.1,53.6,77.5,54.1,76.8,54.1z"/>
			</g>
		</g>
		<g>
			<path class="st3" d="M28.7,78h-0.7l-1.7-3.6V79H25v-6.8h1.2l2,4.2l2.1-4.2h1.3V79h-1.2v-4.6L28.7,78z"/>
			<path class="st3" d="M33.5,79v-6.8h1.3V79H33.5z"/>
			<path class="st3" d="M41.5,77.6c0,1-0.9,1.4-2.3,1.4H39c-1.4,0-2.3-0.4-2.3-1.4v-4.1c0-1,0.9-1.4,2.3-1.4h0.1
				c1.4,0,2.3,0.5,2.3,1.4v0.9h-1.3v-0.8c0-0.6-0.4-0.8-1.1-0.8S38,73.1,38,73.7v3.7c0,0.6,0.4,0.8,1.1,0.8s1.1-0.2,1.1-0.8v-1.1H39
				v-0.8h2.4V77.6z"/>
			<path class="st3" d="M47,79l-1.3-2.8h0h-1.1V79h-1.3v-6.8h2.4c1.4,0,2.3,0.4,2.3,1.4v1.1c0,0.7-0.4,1.1-1.1,1.3l1.4,2.9H47z
				 M44.5,75.4h1.1c0.7,0,1.1-0.2,1.1-0.8v-0.8c0-0.6-0.4-0.8-1.1-0.8h-1.1V75.4z"/>
			<path class="st3" d="M52.9,77.4h-2L50.4,79h-1.2l1.9-6.8h1.6l1.9,6.8h-1.3L52.9,77.4z M52.7,76.6l-0.8-3.3L51,76.6H52.7z"/>
			<path class="st3" d="M59.3,73h-1.7v6h-1.3v-6h-1.7v-0.8h4.6V73z"/>
			<path class="st3" d="M60.6,79v-6.8h4V73h-2.7v2.1h2.3V76h-2.3v2.2h2.8V79H60.6z"/>
			<path class="st2" d="M71.5,80H71v-8.7h0.5V80z"/>
			<path class="st3" d="M81.7,78H81l-1.7-3.6V79H78v-6.8h1.2l2,4.2l2.1-4.2h1.3V79h-1.2v-4.6L81.7,78z"/>
			<path class="st3" d="M89.6,77.4h-2L87.2,79h-1.2l1.9-6.8h1.6l1.9,6.8H90L89.6,77.4z M89.4,76.6l-0.8-3.3l-0.8,3.3H89.4z"/>
			<path class="st3" d="M92.6,79v-6.8h1.3l2.4,4.7v-4.7h1.2V79h-1.2l-2.5-4.9V79H92.6z"/>
			<path class="st3" d="M102.5,77.4h-2l-0.4,1.6h-1.2l1.9-6.8h1.6l1.9,6.8h-1.3L102.5,77.4z M102.3,76.6l-0.8-3.3l-0.8,3.3H102.3z"
				/>
			<path class="st3" d="M110.1,77.6c0,1-0.9,1.4-2.3,1.4h-0.1c-1.4,0-2.3-0.4-2.3-1.4v-4.1c0-1,0.9-1.4,2.3-1.4h0.1
				c1.4,0,2.3,0.5,2.3,1.4v0.9h-1.3v-0.8c0-0.6-0.4-0.8-1.1-0.8c-0.7,0-1.1,0.2-1.1,0.8v3.7c0,0.6,0.4,0.8,1.1,0.8
				c0.7,0,1.1-0.2,1.1-0.8v-1.1h-1.1v-0.8h2.4V77.6z"/>
			<path class="st3" d="M111.9,79v-6.8h4V73h-2.7v2.1h2.3V76h-2.3v2.2h2.8V79H111.9z"/>
			<path class="st2" d="M122.9,80h-0.5v-8.7h0.5V80z"/>
			<path class="st3" d="M133,78h-0.7l-1.7-3.6V79h-1.2v-6.8h1.2l2,4.2l2.1-4.2h1.3V79h-1.2v-4.6L133,78z"/>
			<path class="st3" d="M141,77.4h-2l-0.4,1.6h-1.2l1.9-6.8h1.6l1.9,6.8h-1.3L141,77.4z M140.8,76.6l-0.8-3.3l-0.8,3.3H140.8z"/>
			<path class="st3" d="M146.8,75.5l1.9,3.5h-1.3l-1.4-2.7l-1.3,2.7h-1.3l2-3.5l-1.8-3.3h1.4l1.2,2.5l1.1-2.5h1.3L146.8,75.5z"/>
			<path class="st3" d="M150.1,79v-6.8h1.3V79H150.1z"/>
			<path class="st3" d="M156.9,78h-0.7l-1.7-3.6V79h-1.2v-6.8h1.2l2,4.2l2.1-4.2h1.3V79h-1.2v-4.6L156.9,78z"/>
			<path class="st3" d="M161.8,79v-6.8h1.3V79H161.8z"/>
			<path class="st3" d="M169,79h-4.4v-0.6l3-5.4h-2.8v-0.8h4.2v0.6l-3,5.4h3.1V79z"/>
			<path class="st3" d="M170.4,79v-6.8h4V73h-2.7v2.1h2.3V76h-2.3v2.2h2.8V79H170.4z"/>
		</g>
	</g>
</g>
<g id="Pulse" class="st4">
	<g class="st5">
		<g>
			<g>
				<path class="st2" d="M168.1,58c-13.2,0-24-10.8-24-24s10.8-24,24-24c13.2,0,24,10.8,24,24S181.3,58,168.1,58z M168.1,11.8
					c-12.2,0-22.2,10-22.2,22.2s10,22.2,22.2,22.2s22.2-10,22.2-22.2S180.3,11.8,168.1,11.8z"/>
				<g>
					<path class="st0" d="M185.9,35.7h-5.4v-2.5c0-2.3-1.8-4.1-4.1-4.1c-2.3,0-4.1,1.8-4.1,4.1v14.4c0,0.5-0.4,1-1,1s-1-0.4-1-1
						V25.9c0-2.3-1.8-4.1-4.1-4.1c-2.3,0-4.1,1.8-4.1,4.1v14.2c0,0.5-0.4,1-1,1c-0.5,0-1-0.4-1-1v-7c0-2.3-1.8-4.1-4.1-4.1
						c-2.3,0-4.1,1.8-4.1,4.1v2.6H131c-0.9,0-1.6,0.7-1.6,1.6s0.7,1.6,1.6,1.6h22.5c0.9,0,1.6-0.7,1.6-1.6v-4.2c0-0.5,0.4-1,1-1
						c0.5,0,1,0.4,1,1v7c0,2.3,1.8,4.1,4.1,4.1c2.3,0,4.1-1.8,4.1-4.1V25.9c0-0.5,0.4-1,1-1c0.5,0,1,0.4,1,1v21.7
						c0,2.3,1.8,4.1,4.1,4.1c2.3,0,4.1-1.8,4.1-4.1V33.2c0-0.5,0.4-1,1-1c0.5,0,1,0.4,1,1v4.1c0,0.9,0.7,1.6,1.6,1.6h7
						c0.9,0,1.6-0.7,1.6-1.6S186.7,35.7,185.9,35.7L185.9,35.7z"/>
					<path class="st0" d="M166.3,20.2c1.6,0,2.9-1.3,2.9-2.9c0-1.6-1.3-2.9-2.9-2.9s-2.9,1.3-2.9,2.9
						C163.3,18.9,164.6,20.2,166.3,20.2z"/>
					<path class="st0" d="M176.3,27.7c1.6,0,2.9-1.3,2.9-2.9s-1.3-2.9-2.9-2.9s-2.9,1.3-2.9,2.9S174.7,27.7,176.3,27.7z"/>
					<path class="st0" d="M155.9,27.7c1.6,0,2.9-1.3,2.9-2.9s-1.3-2.9-2.9-2.9s-2.9,1.3-2.9,2.9S154.3,27.7,155.9,27.7z"/>
				</g>
			</g>
			<g>
				<path class="st1" d="M10.7,16.8h10.2c4.4,0,7.5,1.3,9.3,3.9c1.4,1.6,2.1,3.5,2.1,5.7l0,2c0,3.8-2.1,6.8-6.2,8.8
					c-1.2,0.4-2.3,0.6-3.3,0.6h-6.4c-1.2,0-1.8-0.7-1.8-2v-0.1c0.2-1.2,0.7-1.7,1.5-1.7h4.9c3.1,0,5.1-0.9,6.1-2.6
					c0.7-0.8,1.1-1.9,1.1-3l0-1.8c0-2.7-1.6-4.6-4.8-5.6c-1.1-0.1-1.8-0.1-2.3-0.1H12v33.5c-0.1,1.2-0.7,1.7-1.8,1.7H9.7
					c-1.2,0-1.8-0.7-1.8-2V18.6C7.9,17.4,8.8,16.8,10.7,16.8L10.7,16.8z"/>
				<path class="st1" d="M39.4,16.7c1.4,0,2.1,0.7,2.1,2.1v27.5c0,1.6,0.7,3,2,4.2c1,1,2.6,1.5,4.9,1.5c0.1,0,0.3,0,0.8-0.1
					c0.1,0.1,0.3,0.1,0.4,0.1c0.1,0,0.1,0,0.1-0.1l0.5,0.1h0.2c3.2,0,5.3-1,6.3-2.9c0.3-0.4,0.6-1.1,0.8-2.1
					c-0.1-7.6-0.1-13.4-0.1-17.4v-9.8c0-1.8,0.3-2.7,1.1-2.7c0-0.1,0.3-0.2,1.1-0.3c1.3,0.1,2,0.6,2,1.5c0.1,0.4,0.1,0.8,0.1,1.2v27
					c0,3.3-1.6,6-4.8,8.1c-1.3,1-3.5,1.4-6.5,1.4h-0.8c-0.2,0-0.4,0-0.5-0.1c-0.3,0.1-0.5,0.1-0.7,0.1c-5.1,0-8.6-2.2-10.4-6.5
					c-0.3-1-0.5-2-0.5-3V18.7C37.4,17.4,38,16.7,39.4,16.7L39.4,16.7z"/>
				<path class="st1" d="M69.3,16.8c1.4,0,2.1,0.8,2.1,2.5v32.7h13.8c1.6,0,2.4,0.7,2.4,2c0,1.1-0.6,1.8-1.7,1.9H68.9
					c-1.2,0-1.8-1-1.8-2.8V19.8c0-1.9,0.6-2.8,1.7-2.8C68.9,16.9,69,16.9,69.3,16.8L69.3,16.8z"/>
				<path class="st1" d="M104,16.8h8.2c1.8,0,2.7,0.6,2.7,1.8v0.4c-0.1,1.2-0.7,1.7-1.7,1.7h-9.2c-3.1,0-5.1,0.7-6.1,2.2
					c-0.9,1-1.4,2.2-1.4,3.6c0,2.9,1.7,5,5.1,6.1c6.6,3.3,10.4,5.2,11.5,5.9c2.5,2,3.8,4.5,3.8,7.5c0,4.3-2.2,7.4-6.7,9.4
					c-1.2,0.3-2.3,0.5-3.3,0.5H94.3c-1,0-1.6-0.6-1.7-1.7v-0.2c0-1.4,0.9-2,2.6-2H107c2.6,0,4.5-1.4,5.7-4.3c0-0.1,0.1-0.7,0.2-1.5
					c0-2.8-1.6-4.8-4.9-6c-6.9-3.4-10.8-5.4-11.9-6.1c-2.3-2-3.5-4.4-3.5-7.3v-0.3c0-4.1,2.2-7.1,6.6-9.2
					C100.4,17,102,16.8,104,16.8L104,16.8z"/>
				<path class="st1" d="M139.9,16.8c1.8,0,2.6,0.5,2.6,1.5c0.1,0,0.1,0.2,0.1,0.6c-0.1,1.2-0.7,1.8-1.6,1.8h-14.6v31.3h14
					c1.5,0,2.2,0.6,2.2,1.8V54c0,1.4-0.6,2-1.8,2h-16.7c-1.2-0.1-1.8-0.7-1.8-1.7V18.9c0-1.4,0.9-2,2.6-2L139.9,16.8L139.9,16.8z"/>
			</g>
		</g>
		<g>
			<path class="st6" d="M14.4,65.5c0.9,0.4,1.5,1.1,2,1.9c0.5,0.8,0.7,1.8,0.7,2.9c0,1.1-0.2,2.1-0.7,2.9c-0.5,0.8-1.1,1.5-2,1.9
				c-0.9,0.4-1.9,0.7-3.1,0.7H7.9v-11h3.4C12.5,64.8,13.5,65,14.4,65.5z M14.6,73.5c0.7-0.7,1.1-1.8,1.1-3.2c0-1.4-0.4-2.4-1.1-3.2
				c-0.7-0.8-1.8-1.1-3.2-1.1h-2v8.6h2C12.7,74.6,13.8,74.2,14.6,73.5z"/>
			<path class="st6" d="M19.1,65.5c-0.2-0.2-0.3-0.4-0.3-0.7s0.1-0.5,0.3-0.7s0.4-0.3,0.7-0.3c0.3,0,0.5,0.1,0.7,0.3
				c0.2,0.2,0.3,0.4,0.3,0.7s-0.1,0.5-0.3,0.7c-0.2,0.2-0.4,0.3-0.7,0.3C19.5,65.7,19.3,65.7,19.1,65.5z M20.5,67.1v8.6H19v-8.6
				H20.5z"/>
			<path class="st6" d="M28.4,67.5c0.6,0.3,1,0.7,1.2,1.2v-1.6h1.4v8.8c0,0.8-0.2,1.5-0.5,2.1c-0.3,0.6-0.8,1.1-1.4,1.4
				C28.5,79.8,27.8,80,27,80c-1.1,0-2.1-0.3-2.8-0.8c-0.8-0.5-1.2-1.3-1.3-2.2h1.4c0.2,0.5,0.5,0.9,1,1.3c0.5,0.3,1.1,0.5,1.8,0.5
				c0.8,0,1.4-0.2,1.9-0.7c0.5-0.5,0.7-1.2,0.7-2.1v-1.8c-0.3,0.5-0.7,0.9-1.3,1.3c-0.6,0.3-1.2,0.5-1.9,0.5c-0.8,0-1.5-0.2-2.1-0.6
				s-1.1-0.9-1.5-1.6c-0.4-0.7-0.5-1.5-0.5-2.3c0-0.9,0.2-1.7,0.5-2.3c0.4-0.7,0.8-1.2,1.5-1.5c0.6-0.4,1.3-0.5,2.1-0.5
				C27.2,67,27.8,67.2,28.4,67.5z M29.3,69.7c-0.3-0.5-0.6-0.9-1.1-1.1c-0.4-0.3-0.9-0.4-1.5-0.4c-0.5,0-1,0.1-1.5,0.4
				c-0.4,0.3-0.8,0.6-1.1,1.1c-0.3,0.5-0.4,1-0.4,1.7c0,0.7,0.1,1.2,0.4,1.7c0.3,0.5,0.6,0.9,1.1,1.1c0.4,0.3,0.9,0.4,1.5,0.4
				c0.5,0,1-0.1,1.5-0.4c0.4-0.3,0.8-0.6,1.1-1.1c0.3-0.5,0.4-1.1,0.4-1.7C29.6,70.8,29.5,70.2,29.3,69.7z"/>
			<path class="st6" d="M33.6,65.5c-0.2-0.2-0.3-0.4-0.3-0.7s0.1-0.5,0.3-0.7c0.2-0.2,0.4-0.3,0.7-0.3c0.3,0,0.5,0.1,0.7,0.3
				c0.2,0.2,0.3,0.4,0.3,0.7s-0.1,0.5-0.3,0.7c-0.2,0.2-0.4,0.3-0.7,0.3C34,65.7,33.7,65.7,33.6,65.5z M34.9,67.1v8.6h-1.4v-8.6
				H34.9z"/>
			<path class="st6" d="M39.1,68.3v5.1c0,0.4,0.1,0.7,0.3,0.9c0.2,0.2,0.5,0.3,0.9,0.3h1.1v1.2h-1.3c-0.8,0-1.4-0.2-1.8-0.5
				c-0.4-0.4-0.6-1-0.6-1.8v-5.1h-1.1v-1.2h1.1V65h1.4v2.2h2.2v1.2H39.1z"/>
			<path class="st6" d="M43.1,69.1c0.4-0.7,0.8-1.2,1.5-1.5c0.6-0.4,1.3-0.5,2.1-0.5c0.8,0,1.4,0.2,2,0.5c0.6,0.3,1,0.7,1.2,1.2
				v-1.6h1.4v8.6h-1.4v-1.6c-0.3,0.5-0.7,0.9-1.3,1.2c-0.6,0.3-1.2,0.5-2,0.5c-0.8,0-1.5-0.2-2.1-0.6c-0.6-0.4-1.1-0.9-1.5-1.6
				c-0.4-0.7-0.5-1.5-0.5-2.3C42.6,70.5,42.7,69.8,43.1,69.1z M49.5,69.7c-0.3-0.5-0.6-0.9-1.1-1.1c-0.4-0.3-0.9-0.4-1.5-0.4
				c-0.5,0-1,0.1-1.5,0.4c-0.4,0.3-0.8,0.6-1.1,1.1c-0.3,0.5-0.4,1-0.4,1.7c0,0.7,0.1,1.2,0.4,1.7c0.3,0.5,0.6,0.9,1.1,1.1
				c0.4,0.3,0.9,0.4,1.5,0.4c0.5,0,1-0.1,1.5-0.4c0.4-0.3,0.8-0.6,1.1-1.1c0.3-0.5,0.4-1.1,0.4-1.7C49.9,70.8,49.7,70.2,49.5,69.7z"
				/>
			<path class="st6" d="M55.2,64.1v11.6h-1.4V64.1H55.2z"/>
			<path class="st6" d="M75.6,64.8l-3.2,11h-1.6l-2.5-8.8l-2.6,8.8l-1.6,0l-3.1-11h1.5l2.4,9.3l2.6-9.3h1.6l2.5,9.3l2.4-9.3H75.6z"
				/>
			<path class="st6" d="M78.7,75.3c-0.7-0.4-1.2-0.9-1.5-1.6c-0.4-0.7-0.6-1.5-0.6-2.3c0-0.9,0.2-1.7,0.6-2.3
				c0.4-0.7,0.9-1.2,1.6-1.6c0.7-0.4,1.4-0.5,2.2-0.5c0.8,0,1.6,0.2,2.2,0.5c0.7,0.4,1.2,0.9,1.6,1.5c0.4,0.7,0.6,1.5,0.6,2.3
				s-0.2,1.7-0.6,2.3c-0.4,0.7-0.9,1.2-1.6,1.6c-0.7,0.4-1.4,0.5-2.2,0.5C80.1,75.9,79.3,75.7,78.7,75.3z M82.3,74.3
				c0.5-0.2,0.8-0.6,1.1-1.1c0.3-0.5,0.4-1.1,0.4-1.8c0-0.7-0.1-1.3-0.4-1.8c-0.3-0.5-0.6-0.8-1.1-1.1c-0.4-0.2-0.9-0.4-1.4-0.4
				c-0.5,0-1,0.1-1.4,0.4c-0.4,0.2-0.8,0.6-1,1.1c-0.3,0.5-0.4,1.1-0.4,1.8c0,0.7,0.1,1.3,0.4,1.8c0.3,0.5,0.6,0.8,1,1.1
				c0.4,0.2,0.9,0.4,1.4,0.4S81.9,74.5,82.3,74.3z"/>
			<path class="st6" d="M89.7,67.4c0.5-0.3,1-0.4,1.7-0.4v1.5H91c-1.6,0-2.4,0.9-2.4,2.6v4.7h-1.4v-8.6h1.4v1.4
				C88.9,68.1,89.2,67.7,89.7,67.4z"/>
			<path class="st6" d="M97.9,75.8L94.5,72v3.8H93V64.1h1.4V71l3.3-3.8h2l-4.1,4.3l4.1,4.3H97.9z"/>
			<path class="st6" d="M103.8,67.5c0.6-0.3,1.2-0.5,2-0.5c0.8,0,1.5,0.2,2.1,0.5c0.6,0.4,1.1,0.9,1.5,1.5c0.4,0.7,0.5,1.4,0.5,2.3
				c0,0.9-0.2,1.6-0.5,2.3c-0.4,0.7-0.8,1.2-1.5,1.6c-0.6,0.4-1.3,0.6-2.1,0.6c-0.7,0-1.4-0.2-1.9-0.5c-0.6-0.3-1-0.7-1.3-1.2v5.7
				h-1.4V67.1h1.4v1.6C102.9,68.2,103.3,67.8,103.8,67.5z M108,69.7c-0.3-0.5-0.6-0.8-1.1-1.1c-0.4-0.3-0.9-0.4-1.5-0.4
				c-0.5,0-1,0.1-1.5,0.4c-0.4,0.3-0.8,0.6-1.1,1.1c-0.3,0.5-0.4,1.1-0.4,1.7c0,0.6,0.1,1.2,0.4,1.7c0.3,0.5,0.6,0.9,1.1,1.1
				c0.4,0.3,0.9,0.4,1.5,0.4c0.5,0,1-0.1,1.5-0.4c0.4-0.3,0.8-0.6,1.1-1.1c0.3-0.5,0.4-1.1,0.4-1.7C108.4,70.8,108.3,70.2,108,69.7z
				"/>
			<path class="st6" d="M113.2,64.1v11.6h-1.4V64.1H113.2z"/>
			<path class="st6" d="M115.6,69.1c0.4-0.7,0.8-1.2,1.5-1.5c0.6-0.4,1.3-0.5,2.1-0.5c0.8,0,1.4,0.2,2,0.5c0.6,0.3,1,0.7,1.2,1.2
				v-1.6h1.4v8.6h-1.4v-1.6c-0.3,0.5-0.7,0.9-1.3,1.2c-0.6,0.3-1.2,0.5-2,0.5c-0.8,0-1.5-0.2-2.1-0.6c-0.6-0.4-1.1-0.9-1.5-1.6
				c-0.4-0.7-0.5-1.5-0.5-2.3C115.1,70.5,115.3,69.8,115.6,69.1z M122,69.7c-0.3-0.5-0.6-0.9-1.1-1.1c-0.4-0.3-0.9-0.4-1.5-0.4
				c-0.5,0-1,0.1-1.5,0.4c-0.4,0.3-0.8,0.6-1.1,1.1c-0.3,0.5-0.4,1-0.4,1.7c0,0.7,0.1,1.2,0.4,1.7c0.3,0.5,0.6,0.9,1.1,1.1
				c0.4,0.3,0.9,0.4,1.5,0.4c0.5,0,1-0.1,1.5-0.4c0.4-0.3,0.8-0.6,1.1-1.1c0.3-0.5,0.4-1.1,0.4-1.7C122.4,70.8,122.3,70.2,122,69.7z
				"/>
			<path class="st6" d="M126.3,69.1c0.4-0.7,0.9-1.2,1.5-1.5c0.6-0.4,1.4-0.5,2.2-0.5c1.1,0,1.9,0.3,2.6,0.8
				c0.7,0.5,1.1,1.2,1.4,2.1h-1.5c-0.1-0.5-0.4-0.9-0.9-1.2c-0.4-0.3-1-0.5-1.6-0.5c-0.8,0-1.5,0.3-2,0.8c-0.5,0.6-0.8,1.4-0.8,2.4
				c0,1,0.3,1.8,0.8,2.4c0.5,0.6,1.2,0.8,2,0.8c0.6,0,1.2-0.1,1.6-0.4c0.4-0.3,0.7-0.7,0.9-1.3h1.5c-0.2,0.9-0.7,1.6-1.4,2.1
				c-0.7,0.5-1.6,0.8-2.6,0.8c-0.8,0-1.5-0.2-2.2-0.5c-0.6-0.4-1.1-0.9-1.5-1.6c-0.4-0.7-0.5-1.5-0.5-2.4
				C125.7,70.5,125.9,69.8,126.3,69.1z"/>
			<path class="st6" d="M143.6,72h-6.9c0.1,0.8,0.3,1.5,0.9,2c0.5,0.5,1.2,0.7,1.9,0.7c0.6,0,1.1-0.1,1.5-0.4
				c0.4-0.3,0.7-0.7,0.9-1.2h1.5c-0.2,0.8-0.7,1.5-1.4,2c-0.7,0.5-1.6,0.8-2.6,0.8c-0.8,0-1.5-0.2-2.2-0.5c-0.6-0.4-1.2-0.9-1.5-1.6
				c-0.4-0.7-0.5-1.5-0.5-2.3s0.2-1.7,0.5-2.3s0.9-1.2,1.5-1.5c0.6-0.4,1.4-0.5,2.2-0.5c0.8,0,1.5,0.2,2.2,0.5
				c0.6,0.4,1.1,0.8,1.5,1.5c0.3,0.6,0.5,1.3,0.5,2.1C143.6,71.4,143.6,71.7,143.6,72z M141.8,69.4c-0.2-0.4-0.6-0.7-1-0.9
				c-0.4-0.2-0.9-0.3-1.4-0.3c-0.7,0-1.3,0.2-1.8,0.7c-0.5,0.5-0.8,1.1-0.9,1.9h5.4C142.2,70.3,142.1,69.8,141.8,69.4z"/>
		</g>
	</g>
</g>
<g id="Extrica" class="st4">
	<g class="st5">
		<g>
			<path class="st1" d="M11,72.1v-1.4c0-0.8-0.7-1.1-1.9-1.1S7.2,70,7.2,70.8v0.7c0,0.6,0.4,0.8,1.4,1.2l2.3,0.7
				c1.5,0.5,2.5,0.9,2.5,2v1.4c0,1.5-1.5,2.1-4.2,2.1H9.1c-2.7,0-4.2-0.6-4.2-2.1V75h2.3v1.5c0,0.8,0.7,1.2,1.9,1.2
				c1.3,0,1.9-0.4,1.9-1.2v-0.8c0-0.6-0.4-0.8-1.4-1.2l-2.3-0.7c-1.6-0.5-2.5-0.9-2.5-1.9v-1.3c0-1.4,1.8-2.1,4.2-2.1h0.1
				c2.4,0,4.2,0.6,4.2,2.1v1.6L11,72.1L11,72.1z"/>
			<path class="st1" d="M16.1,78.6v-8.1h6.1v0.9H18V74h3.5v0.9H18v2.7h4.2v0.9L16.1,78.6L16.1,78.6z"/>
			<path class="st1" d="M29.2,76.7h-3.1l-0.6,1.9h-1.8l2.8-8.1h2.4l2.9,8.1h-2L29.2,76.7z M28.9,75.8l-1.2-3.9l-1.3,3.9H28.9z"/>
			<path class="st1" d="M39.3,78.6l-2-3.3l0,0h-1.6v3.3h-2v-8.1h3.6c2.2,0,3.5,0.5,3.5,1.7v1.4c0,0.8-0.6,1.3-1.7,1.6l2.2,3.5
				L39.3,78.6L39.3,78.6z M35.6,74.4h1.6c1.1,0,1.6-0.3,1.6-0.9v-0.9c0-0.7-0.6-0.9-1.6-0.9h-1.6V74.4z"/>
			<path class="st1" d="M50.4,77c0,1.2-1.3,1.7-3.5,1.7h-0.1c-2.2,0-3.5-0.5-3.5-1.7v-4.9c0-1.2,1.3-1.7,3.5-1.7h0.1
				c2.2,0,3.5,0.5,3.5,1.7v1.5h-2v-1.3c0-0.7-0.5-0.9-1.6-0.9s-1.6,0.3-1.6,0.9v4.5c0,0.7,0.5,0.9,1.6,0.9s1.6-0.3,1.6-0.9v-1.4h2
				V77z"/>
			<path class="st1" d="M54.8,70.5V74h3.4v-3.5h2v8.1h-2V75h-3.4v3.6h-2v-8.1C52.9,70.5,54.8,70.5,54.8,70.5z"/>
			<path class="st2" d="M68.2,80V67.9h1.2V80H68.2z"/>
			<path class="st1" d="M83.5,72.1v-1.4c0-0.8-0.7-1.1-1.9-1.1s-1.9,0.3-1.9,1.1v0.7c0,0.6,0.4,0.8,1.4,1.2l2.3,0.7
				c1.5,0.5,2.5,0.9,2.5,2v1.4c0,1.5-1.5,2.1-4.2,2.1h-0.1c-2.7,0-4.2-0.6-4.2-2.1V75h2.3v1.5c0,0.8,0.7,1.2,1.9,1.2
				c1.3,0,1.9-0.4,1.9-1.2v-0.8c0-0.6-0.4-0.8-1.4-1.2l-2.3-0.7c-1.6-0.5-2.5-0.9-2.5-1.9v-1.3c0-1.4,1.8-2.1,4.2-2.1h0.1
				c2.4,0,4.2,0.6,4.2,2.1v1.6L83.5,72.1L83.5,72.1z"/>
			<path class="st1" d="M88.7,78.6v-8.1h6.1v0.9h-4.1V74h3.5v0.9h-3.5v2.7h4.2v0.9L88.7,78.6L88.7,78.6z"/>
			<path class="st1" d="M104,77c0,1.2-1.3,1.7-3.5,1.7h-0.1c-2.2,0-3.5-0.5-3.5-1.7v-4.9c0-1.2,1.3-1.7,3.5-1.7h0.1
				c2.2,0,3.5,0.5,3.5,1.7v1.5h-2v-1.3c0-0.7-0.5-0.9-1.6-0.9c-1.1,0-1.6,0.3-1.6,0.9v4.5c0,0.7,0.5,0.9,1.6,0.9
				c1.1,0,1.6-0.3,1.6-0.9v-1.4h2V77z"/>
			<path class="st1" d="M113.6,77c0,1.2-1.3,1.7-3.4,1.7H110c-2.2,0-3.4-0.5-3.4-1.7v-6.5h2v6.3c0,0.7,0.5,0.9,1.6,0.9
				s1.6-0.3,1.6-0.9v-6.3h2V77H113.6z"/>
			<path class="st1" d="M121.8,78.6l-2-3.3l0,0h-1.6v3.3h-2v-8.1h3.6c2.2,0,3.5,0.5,3.5,1.7v1.4c0,0.8-0.6,1.3-1.7,1.6l2.2,3.5
				L121.8,78.6L121.8,78.6z M118.2,74.4h1.6c1.1,0,1.6-0.3,1.6-0.9v-0.9c0-0.7-0.6-0.9-1.6-0.9h-1.6V74.4z"/>
			<path class="st1" d="M126,78.6v-8.1h6.1v0.9h-4.1V74h3.5v0.9h-3.5v2.7h4.2v0.9L126,78.6L126,78.6z"/>
			<path class="st2" d="M139.7,80V67.9h1.2V80H139.7z"/>
			<path class="st1" d="M155,72.1v-1.4c0-0.8-0.7-1.1-1.9-1.1s-1.9,0.3-1.9,1.1v0.7c0,0.6,0.4,0.8,1.4,1.2l2.3,0.7
				c1.5,0.5,2.5,0.9,2.5,2v1.4c0,1.5-1.5,2.1-4.2,2.1h-0.1c-2.7,0-4.2-0.6-4.2-2.1V75h2.3v1.5c0,0.8,0.7,1.2,1.9,1.2
				c1.3,0,1.9-0.4,1.9-1.2v-0.8c0-0.6-0.4-0.8-1.4-1.2l-2.3-0.7c-1.6-0.5-2.5-0.9-2.5-1.9v-1.3c0-1.4,1.8-2.1,4.2-2.1h0.1
				c2.4,0,4.2,0.6,4.2,2.1v1.6L155,72.1L155,72.1z"/>
			<path class="st1" d="M162,70.5V74h3.4v-3.5h2v8.1h-2V75H162v3.6h-1.9v-8.1C160.1,70.5,162,70.5,162,70.5z"/>
			<path class="st1" d="M174.8,76.7h-3.1l-0.6,1.9h-1.8l2.8-8.1h2.4l2.9,8.1h-2L174.8,76.7z M174.5,75.8l-1.2-3.9l-1.3,3.9H174.5z"
				/>
			<path class="st1" d="M184.9,78.6l-2-3.3l0,0h-1.6v3.3h-2v-8.1h3.6c2.2,0,3.5,0.5,3.5,1.7v1.4c0,0.8-0.6,1.3-1.7,1.6l2.2,3.5
				L184.9,78.6L184.9,78.6z M181.2,74.4h1.6c1.1,0,1.6-0.3,1.6-0.9v-0.9c0-0.7-0.6-0.9-1.6-0.9h-1.6V74.4z"/>
			<path class="st1" d="M189,78.6v-8.1h6.1v0.9h-4.1V74h3.5v0.9h-3.5v2.7h4.2v0.9L189,78.6L189,78.6z"/>
		</g>
		<g id="extrica_00000067221346617024020060000010174444507229682840_">
			<g id="Layer_13_00000008868105473420165480000000985800647161652098_">
				<path class="st7" d="M171.4,29.2v-7.8l-4.1-2.4c-0.4-0.2-0.5-0.6-0.3-1c0.1-0.2,0.2-0.3,0.3-0.3l11.4-6.6v1.7l-9.7,5.6l3.4,2
					l0,0c0.2,0.2,0.4,0.4,0.4,0.6v7.3L171.4,29.2L171.4,29.2z M174.9,18c0.2,0,0.4,0.1,0.6,0.2l4.7-2.7v-4.7c0-0.4,0.3-0.7,0.7-0.7
					c0.2,0,0.3,0.1,0.4,0.2l9.4,5.4c0.1,0,0.1-0.1,0.1-0.1c0.6-0.4,1.5-0.2,1.8,0.5c0.4,0.6,0.2,1.5-0.5,1.8
					c-0.6,0.4-1.5,0.2-1.8-0.5c-0.1-0.1-0.1-0.3-0.2-0.4l-8.5-5v3.9l0,0c0,0.3-0.2,0.5-0.4,0.6l-5.2,3c-0.1,0.7-0.7,1.3-1.5,1.2
					c-0.7-0.1-1.3-0.7-1.2-1.5C173.6,18.5,174.2,18,174.9,18L174.9,18L174.9,18z M184,41.5c-0.7,0-1.4-0.6-1.4-1.4
					c0-0.8,0.6-1.4,1.4-1.4c0.2,0,0.3,0,0.4,0.1l8.5-5l-3.4-2l0,0l-4.1-2.4l-4.1,2.4c-0.2,0.2-0.5,0.2-0.7,0l-4.4-2.5
					c-0.3-0.1-0.4-0.4-0.4-0.7v-5.2l0,0c0-0.3,0.2-0.5,0.4-0.6l4.4-2.6c0.2-0.2,0.5-0.2,0.7,0l4.1,2.4l3-1.7l-5.2-3v-1.7l6.7,3.9
					l4.1-2.4c0.4-0.2,0.8-0.1,1,0.3c0.1,0.2,0.1,0.3,0.1,0.4v13.2l-1.5-0.8v-11l-3.4,2l0,0l-4.4,2.6c-0.3,0.2-0.5,0.2-0.8,0L181,22
					l-3.7,2.2v4.3l3.7,2.2l4.1-2.4c0.2-0.2,0.5-0.2,0.7,0l0,0l3.4,2v-4.6c-0.6-0.4-0.7-1.3-0.3-1.9c0.4-0.6,1.3-0.7,1.9-0.3
					s0.7,1.3,0.3,1.9c-0.1,0.2-0.3,0.3-0.4,0.4v5.5l4.1,2.4c0.4,0.2,0.5,0.6,0.3,1c-0.1,0.2-0.2,0.3-0.3,0.3l-9.4,5.4
					c0,0.1,0,0.1,0,0.1C185.3,40.9,184.7,41.5,184,41.5L184,41.5L184,41.5z M166.3,21.1c0.4-0.6,1.2-0.8,1.8-0.4
					c0.6,0.4,0.8,1.2,0.5,1.8c-0.1,0.1-0.2,0.2-0.3,0.3v9.9l3.4-2l0,0c0.2-0.2,0.5-0.2,0.7,0l5.2,3c0.7-0.3,1.5,0,1.8,0.7
					c0.3,0.7,0,1.5-0.7,1.8c-0.7,0.3-1.5,0-1.8-0.7c-0.1-0.2-0.1-0.4-0.1-0.5l-4.7-2.7l-4.1,2.4c-0.4,0.2-0.8,0.1-1-0.3
					c-0.1-0.2-0.1-0.3-0.1-0.4V23c-0.1,0-0.1-0.1-0.1-0.1C166.1,22.6,165.9,21.7,166.3,21.1L166.3,21.1L166.3,21.1z M188.5,33.1
					l-6.7,3.9v4.7c0,0.4-0.3,0.7-0.7,0.7c-0.2,0-0.3-0.1-0.4-0.2l-11.4-6.6l1.5-0.8l9.7,5.6v-3.9l0,0c0-0.3,0.2-0.5,0.4-0.6l6.3-3.6
					L188.5,33.1L188.5,33.1z"/>
				<g>
					<g>
						<path id="SVGID_1_" class="st7" d="M171.4,29.2v-7.8l-4.1-2.4c-0.4-0.2-0.5-0.6-0.3-1c0.1-0.2,0.2-0.3,0.3-0.3l11.4-6.6v1.7
							l-9.7,5.6l3.4,2l0,0c0.2,0.2,0.4,0.4,0.4,0.6v7.3L171.4,29.2L171.4,29.2z M174.9,18c0.2,0,0.4,0.1,0.6,0.2l4.7-2.7v-4.7
							c0-0.4,0.3-0.7,0.7-0.7c0.2,0,0.3,0.1,0.4,0.2l9.4,5.4c0.1,0,0.1-0.1,0.1-0.1c0.6-0.4,1.5-0.2,1.8,0.5
							c0.4,0.6,0.2,1.5-0.5,1.8c-0.6,0.4-1.5,0.2-1.8-0.5c-0.1-0.1-0.1-0.3-0.2-0.4l-8.5-5v3.9l0,0c0,0.3-0.2,0.5-0.4,0.6l-5.2,3
							c-0.1,0.7-0.7,1.3-1.5,1.2c-0.7-0.1-1.3-0.7-1.2-1.5C173.6,18.5,174.2,18,174.9,18L174.9,18L174.9,18z M184,41.5
							c-0.7,0-1.4-0.6-1.4-1.4c0-0.8,0.6-1.4,1.4-1.4c0.2,0,0.3,0,0.4,0.1l8.5-5l-3.4-2l0,0l-4.1-2.4l-4.1,2.4
							c-0.2,0.2-0.5,0.2-0.7,0l-4.4-2.5c-0.3-0.1-0.4-0.4-0.4-0.7v-5.2l0,0c0-0.3,0.2-0.5,0.4-0.6l4.4-2.6c0.2-0.2,0.5-0.2,0.7,0
							l4.1,2.4l3-1.7l-5.2-3v-1.7l6.7,3.9l4.1-2.4c0.4-0.2,0.8-0.1,1,0.3c0.1,0.2,0.1,0.3,0.1,0.4v13.2l-1.5-0.8v-11l-3.4,2l0,0
							l-4.4,2.6c-0.3,0.2-0.5,0.2-0.8,0L181,22l-3.7,2.2v4.3l3.7,2.2l4.1-2.4c0.2-0.2,0.5-0.2,0.7,0l0,0l3.4,2v-4.6
							c-0.6-0.4-0.7-1.3-0.3-1.9c0.4-0.6,1.3-0.7,1.9-0.3s0.7,1.3,0.3,1.9c-0.1,0.2-0.3,0.3-0.4,0.4v5.5l4.1,2.4
							c0.4,0.2,0.5,0.6,0.3,1c-0.1,0.2-0.2,0.3-0.3,0.3l-9.4,5.4c0,0.1,0,0.1,0,0.1C185.3,40.9,184.7,41.5,184,41.5L184,41.5
							L184,41.5z M166.3,21.1c0.4-0.6,1.2-0.8,1.8-0.4c0.6,0.4,0.8,1.2,0.5,1.8c-0.1,0.1-0.2,0.2-0.3,0.3v9.9l3.4-2l0,0
							c0.2-0.2,0.5-0.2,0.7,0l5.2,3c0.7-0.3,1.5,0,1.8,0.7c0.3,0.7,0,1.5-0.7,1.8c-0.7,0.3-1.5,0-1.8-0.7c-0.1-0.2-0.1-0.4-0.1-0.5
							l-4.7-2.7l-4.1,2.4c-0.4,0.2-0.8,0.1-1-0.3c-0.1-0.2-0.1-0.3-0.1-0.4V23c-0.1,0-0.1-0.1-0.1-0.1
							C166.1,22.6,165.9,21.7,166.3,21.1L166.3,21.1L166.3,21.1z M188.5,33.1l-6.7,3.9v4.7c0,0.4-0.3,0.7-0.7,0.7
							c-0.2,0-0.3-0.1-0.4-0.2l-11.4-6.6l1.5-0.8l9.7,5.6v-3.9l0,0c0-0.3,0.2-0.5,0.4-0.6l6.3-3.6L188.5,33.1L188.5,33.1z"/>
					</g>
					<g>
						<defs>
							<path id="SVGID_00000091001726030966997220000008870501794322391702_" d="M171.4,29.2v-7.8l-4.1-2.4c-0.4-0.2-0.5-0.6-0.3-1
								c0.1-0.2,0.2-0.3,0.3-0.3l11.4-6.6v1.7l-9.7,5.6l3.4,2l0,0c0.2,0.2,0.4,0.4,0.4,0.6v7.3L171.4,29.2L171.4,29.2z M174.9,18
								c0.2,0,0.4,0.1,0.6,0.2l4.7-2.7v-4.7c0-0.4,0.3-0.7,0.7-0.7c0.2,0,0.3,0.1,0.4,0.2l9.4,5.4c0.1,0,0.1-0.1,0.1-0.1
								c0.6-0.4,1.5-0.2,1.8,0.5c0.4,0.6,0.2,1.5-0.5,1.8c-0.6,0.4-1.5,0.2-1.8-0.5c-0.1-0.1-0.1-0.3-0.2-0.4l-8.5-5v3.9l0,0
								c0,0.3-0.2,0.5-0.4,0.6l-5.2,3c-0.1,0.7-0.7,1.3-1.5,1.2c-0.7-0.1-1.3-0.7-1.2-1.5C173.6,18.5,174.2,18,174.9,18L174.9,18
								L174.9,18z M184,41.5c-0.7,0-1.4-0.6-1.4-1.4c0-0.8,0.6-1.4,1.4-1.4c0.2,0,0.3,0,0.4,0.1l8.5-5l-3.4-2l0,0l-4.1-2.4l-4.1,2.4
								c-0.2,0.2-0.5,0.2-0.7,0l-4.4-2.5c-0.3-0.1-0.4-0.4-0.4-0.7v-5.2l0,0c0-0.3,0.2-0.5,0.4-0.6l4.4-2.6c0.2-0.2,0.5-0.2,0.7,0
								l4.1,2.4l3-1.7l-5.2-3v-1.7l6.7,3.9l4.1-2.4c0.4-0.2,0.8-0.1,1,0.3c0.1,0.2,0.1,0.3,0.1,0.4v13.2l-1.5-0.8v-11l-3.4,2l0,0
								l-4.4,2.6c-0.3,0.2-0.5,0.2-0.8,0L181,22l-3.7,2.2v4.3l3.7,2.2l4.1-2.4c0.2-0.2,0.5-0.2,0.7,0l0,0l3.4,2v-4.6
								c-0.6-0.4-0.7-1.3-0.3-1.9c0.4-0.6,1.3-0.7,1.9-0.3s0.7,1.3,0.3,1.9c-0.1,0.2-0.3,0.3-0.4,0.4v5.5l4.1,2.4
								c0.4,0.2,0.5,0.6,0.3,1c-0.1,0.2-0.2,0.3-0.3,0.3l-9.4,5.4c0,0.1,0,0.1,0,0.1C185.3,40.9,184.7,41.5,184,41.5L184,41.5
								L184,41.5z M166.3,21.1c0.4-0.6,1.2-0.8,1.8-0.4c0.6,0.4,0.8,1.2,0.5,1.8c-0.1,0.1-0.2,0.2-0.3,0.3v9.9l3.4-2l0,0
								c0.2-0.2,0.5-0.2,0.7,0l5.2,3c0.7-0.3,1.5,0,1.8,0.7c0.3,0.7,0,1.5-0.7,1.8c-0.7,0.3-1.5,0-1.8-0.7c-0.1-0.2-0.1-0.4-0.1-0.5
								l-4.7-2.7l-4.1,2.4c-0.4,0.2-0.8,0.1-1-0.3c-0.1-0.2-0.1-0.3-0.1-0.4V23c-0.1,0-0.1-0.1-0.1-0.1
								C166.1,22.6,165.9,21.7,166.3,21.1L166.3,21.1L166.3,21.1z M188.5,33.1l-6.7,3.9v4.7c0,0.4-0.3,0.7-0.7,0.7
								c-0.2,0-0.3-0.1-0.4-0.2l-11.4-6.6l1.5-0.8l9.7,5.6v-3.9l0,0c0-0.3,0.2-0.5,0.4-0.6l6.3-3.6L188.5,33.1L188.5,33.1z"/>
						</defs>
						<clipPath id="SVGID_00000062875237147210380380000017396728114175366306_">
							<use xlink:href="#SVGID_00000091001726030966997220000008870501794322391702_"  style="overflow:visible;"/>
						</clipPath>
						<g style="clip-path:url(#SVGID_00000062875237147210380380000017396728114175366306_);">
							<rect x="165.9" y="10" class="st7" width="29.3" height="32.4"/>
						</g>
					</g>
				</g>
			</g>
			<g>
				<path class="st0" d="M25.4,28.3H10.8c0.3,2.2,0.9,3.7,1.9,4.7c0.9,0.9,2.4,1.4,4.3,1.4h8.8v4.3H15.5c-3.5,0-6.1-1.1-8-3.2
					s-2.7-5.2-2.7-9.3s0.9-7.1,2.7-9.3s4.5-3.2,8-3.2h10.2V18H17c-0.6,0-1.2,0.1-1.9,0.2c-0.6,0.1-1.3,0.4-1.8,0.8
					c-0.6,0.4-1.1,1-1.5,1.8c-0.4,0.8-0.7,2-0.9,3.4h14.5v4.1H25.4z"/>
				<path class="st0" d="M33.8,13.7l5.6,8.6l5.5-8.6h6.5l-9.3,12.5l9.3,12.4H45L39.4,30l-5.6,8.6h-6.4l9.2-12.5l-9.2-12.4H33.8z"/>
				<path class="st0" d="M74.9,13.7V18h-8.7v20.7h-5.4V18h-8.7v-4.3H74.9L74.9,13.7z"/>
				<path class="st0" d="M82.3,28.8v9.9h-5.4v-25h14.7c1.2,0,2.2,0.2,3.1,0.4c0.9,0.3,1.7,0.7,2.4,1.4c0.7,0.6,1.2,1.4,1.6,2.3
					c0.4,0.9,0.5,2.1,0.5,3.4c0,1.4-0.2,2.6-0.6,3.5c-0.4,0.9-0.8,1.6-1.4,2.2c-0.5,0.5-1.1,0.9-1.6,1.2c-0.5,0.2-1,0.4-1.3,0.5
					l5.5,10.1h-6.5l-5.2-9.8L82.3,28.8L82.3,28.8z M82.3,24.9h6.4c0.6,0,1.1-0.1,1.6-0.2c0.5-0.1,0.9-0.3,1.3-0.6
					c0.4-0.3,0.6-0.6,0.8-1.1s0.3-1,0.3-1.7s-0.1-1.2-0.3-1.7c-0.2-0.4-0.5-0.8-0.8-1.1c-0.4-0.3-0.8-0.5-1.3-0.6
					c-0.5-0.1-1-0.2-1.6-0.2h-6.4V24.9L82.3,24.9z"/>
				<path class="st0" d="M102.6,38.7v-25h5.4v25L102.6,38.7L102.6,38.7z"/>
				<path class="st0" d="M131.9,18h-9.3c-2.2,0-3.9,0.7-4.8,2.1c-0.9,1.4-1.5,3.4-1.5,6.1s0.5,4.7,1.5,6.1c0.9,1.4,2.6,2.1,4.8,2.1
					h9.3v4.3H121c-3.5,0-6.1-1.1-8-3.2c-1.8-2.2-2.7-5.2-2.7-9.3s0.9-7.1,2.7-9.3c1.8-2.2,4.5-3.2,8-3.2h10.9V18z"/>
				<path class="st0" d="M144.4,13.7h5.5l10.9,25H155l-2.5-6.1h-10.6l-2.5,6.1h-5.8L144.4,13.7L144.4,13.7z M143.5,28.7h7.4
					l-3.7-8.9L143.5,28.7z"/>
			</g>
		</g>
		<g>
			<g>
				<path class="st1" d="M52.8,60.1c-1.3,0-2.5-0.1-3.6-0.1V47.2c1-0.1,2.6-0.1,4.1-0.1c4,0,6.5,1.7,6.5,6.3
					C59.9,57.8,57,60.1,52.8,60.1z M53.2,49.2c-0.6,0-1.1,0-1.5,0.1v8.7C52,58,52.6,58,53.1,58c2.4,0,4.2-1.4,4.2-4.4
					C57.2,50.8,56.1,49.2,53.2,49.2z"/>
				<path class="st1" d="M70,60l-0.9-2.6h-4.9L63.4,60H61l4.5-12.8h2.8L72.8,60C72.8,60,70,60,70,60z M67.3,52.1
					c-0.3-0.7-0.4-1.3-0.6-2.1l0,0c-0.2,0.7-0.4,1.4-0.6,2.2L65,55.5h3.6L67.3,52.1z"/>
				<path class="st1" d="M78.5,49.3V60H76V49.3h-3.3v-2.1h9.1v2.1H78.5z"/>
				<path class="st1" d="M90.8,60l-0.9-2.6h-4.9L84.2,60h-2.5l4.5-12.8H89L93.6,60C93.6,60,90.8,60,90.8,60z M88.1,52.1
					c-0.3-0.7-0.4-1.3-0.6-2.1l0,0c-0.2,0.7-0.4,1.4-0.6,2.2l-1.2,3.3h3.6L88.1,52.1z"/>
				<path class="st1" d="M113.1,60l-0.9-6.1c-0.2-1.2-0.3-2.2-0.4-3.1h-0.1c-0.2,0.8-0.4,1.7-0.7,2.7L109,60h-2.4l-2-6
					c-0.3-1.1-0.7-2.2-0.8-3.2h-0.1c-0.1,1.2-0.2,2.2-0.4,3.3l-0.7,5.9h-2.5l2-12.8h2.9l2.2,6.6c0.3,0.9,0.5,1.8,0.7,2.7h0.1
					c0.2-1,0.4-1.7,0.7-2.6l2.2-6.6h2.8l2,12.8C115.7,60,113.1,60,113.1,60z"/>
				<path class="st1" d="M118.6,60V47.2h7v2.1h-4.5v3.2h4.3v2h-4.3v3.5h4.5V60H118.6z"/>
				<path class="st1" d="M131.3,60.2c-0.9,0-1.8-0.1-2.6-0.3l0.2-2.3c0.7,0.3,1.7,0.5,2.7,0.5c1.3,0,2.2-0.5,2.2-1.7
					c0-2.4-5.4-1.3-5.4-5.5c0-2.3,1.8-3.9,4.9-3.9c0.7,0,1.6,0.1,2.3,0.2l-0.2,2.2c-0.7-0.2-1.5-0.3-2.3-0.3c-1.4,0-2.2,0.6-2.2,1.6
					c0,2.3,5.4,1.4,5.4,5.4C136.4,58.5,134.4,60.2,131.3,60.2z"/>
				<path class="st1" d="M147.3,60v-5.5h-5.4V60h-2.5V47.2h2.5v5.1h5.4v-5.1h2.5V60C149.8,60,147.3,60,147.3,60z"/>
			</g>
		</g>
	</g>
</g>
</svg>
