<?xml version="1.0" encoding="utf-8"?>
<!-- Generator: Adobe Illustrator 27.5.0, SVG Export Plug-In . SVG Version: 6.00 Build 0)  -->
<svg version="1.1" xmlns="http://www.w3.org/2000/svg" xmlns:xlink="http://www.w3.org/1999/xlink" x="0px" y="0px"
	 viewBox="0 0 100 100" style="enable-background:new 0 0 100 100;" xml:space="preserve">
<style type="text/css">
	.st0{display:none;}
	.st1{display:inline;}
	.st2{clip-path:url(#SVGID_00000183247164082225003250000013729043319506396344_);}
	.st3{fill:none;}
	.st4{fill:#007399;}
	.st5{fill:#BC4A01;}
	.st6{clip-path:url(#SVGID_00000061444719252121714010000000429404012284314550_);}
	.st7{clip-path:url(#SVGID_00000031179451864525649210000006619054737160859825_);}
	.st8{clip-path:url(#SVGID_00000173153027361448169340000007682352112184227742_);}
	.st9{fill:#BC4A01;stroke:#BC4A01;stroke-width:2;stroke-miterlimit:10;}
	.st10{fill:#007399;stroke:#007399;stroke-width:2;stroke-miterlimit:10;}
	.st11{clip-path:url(#SVGID_00000017478554968095682340000009823133633011869613_);}
	.st12{clip-path:url(#SVGID_00000145021944793975560740000003716933976678117778_);}
	.st13{fill:#BC4A01;stroke:#BC4A01;stroke-width:1.5;stroke-miterlimit:10;}
	.st14{clip-path:url(#SVGID_00000042739100340490690050000006176999333167125633_);}
</style>
<g id="App_and_experience" class="st0">
	<g class="st1">
		<defs>
			<rect id="SVGID_1_" x="0.3" y="0.1" width="100" height="100"/>
		</defs>
		<clipPath id="SVGID_00000079485697596231604300000010108816029653047231_">
			<use xlink:href="#SVGID_1_"  style="overflow:visible;"/>
		</clipPath>
		<g style="clip-path:url(#SVGID_00000079485697596231604300000010108816029653047231_);">
			<rect x="7.6" y="69.9" class="st3" width="9.2" height="9.2"/>
			<rect x="7.6" y="22.6" class="st3" width="9.2" height="9.2"/>
			<rect x="58.5" y="50.5" transform="matrix(0.5787 -0.8155 0.8155 0.5787 -9.039 83.5123)" class="st3" width="35.6" height="0"/>
			<path class="st3" d="M73.3,66.1V34.6l-8.5,5.3c1.5,2.5,2.4,5.5,2.4,8.7c0,4-1.4,7.6-3.7,10.5L73.3,66.1z"/>
			<path class="st3" d="M50.3,62.3c7.6,0,13.8-6.2,13.8-13.8c0-7.6-6.2-13.8-13.8-13.8S36.6,41,36.6,48.6
				C36.6,56.1,42.8,62.3,50.3,62.3z M52.3,43.5c-0.6-0.6-0.6-1.6,0-2.2c0.6-0.6,1.6-0.6,2.2,0l6.1,6.1c0.6,0.6,0.6,1.6,0,2.2
				l-6.1,6.1c-0.3,0.3-0.7,0.4-1.1,0.4c-0.4,0-0.8-0.1-1.1-0.4c-0.6-0.6-0.6-1.6,0-2.2l5-5L52.3,43.5z M40.1,47.5l6.1-6.1
				c0.6-0.6,1.6-0.6,2.2,0c0.6,0.6,0.6,1.6,0,2.2l-5,5l5,5c0.6,0.6,0.6,1.6,0,2.2c-0.3,0.3-0.7,0.4-1.1,0.4c-0.4,0-0.8-0.1-1.1-0.4
				l-6.1-6.1C39.5,49,39.5,48.1,40.1,47.5z"/>
			<path class="st3" d="M50.3,31.8c5,0,9.5,2.2,12.6,5.6L73.3,31V16.5H27.4V31l10.4,6.4C40.9,33.9,45.4,31.8,50.3,31.8z"/>
			<polygon class="st3" points="24.4,32.7 24.4,32.7 24.4,68.3 			"/>
			<path class="st3" d="M73.3,10.3c0-1.7-1.3-3-3-3H30.4c-1.7,0-3,1.3-3,3v3.1h45.8V10.3z M44.2,11.9h-1.5c-0.8,0-1.5-0.7-1.5-1.5
				c0-0.8,0.7-1.5,1.5-1.5h1.5c0.8,0,1.5,0.7,1.5,1.5C45.8,11.2,45.1,11.9,44.2,11.9z M56.5,11.9h-7.6c-0.8,0-1.5-0.7-1.5-1.5
				c0-0.8,0.7-1.5,1.5-1.5h7.6c0.8,0,1.5,0.7,1.5,1.5C58,11.2,57.3,11.9,56.5,11.9z"/>
			<path class="st3" d="M27.4,34.6v31.5l1.7-1.2v0l8.1-5.8c-2.3-2.9-3.7-6.5-3.7-10.5c0-3.2,0.9-6.2,2.4-8.7l-5.2-3.2v0L27.4,34.6z"
				/>
			<circle class="st3" cx="50.3" cy="88.3" r="3.1"/>
			<path class="st3" d="M56.5,88.3c0,1.8-0.8,3.5-2.1,4.6h15.9c1.7,0,3-1.3,3-3v-6.2H54.4C55.7,84.8,56.5,86.5,56.5,88.3z"/>
			<path class="st3" d="M73.3,69.9l-12-8.6c-2.9,2.5-6.8,4.1-10.9,4.1c-4.2,0-8-1.5-10.9-4.1l-12,8.6v10.8h45.8V69.9z"/>
			<path class="st3" d="M46.3,83.7H27.4v6.2c0,1.7,1.3,3,3,3h15.9c-1.3-1.1-2.1-2.8-2.1-4.6C44.2,86.5,45,84.8,46.3,83.7z"/>
			<path class="st4" d="M56.5,8.8h-7.6c-0.8,0-1.5,0.7-1.5,1.5c0,0.8,0.7,1.5,1.5,1.5h7.6c0.8,0,1.5-0.7,1.5-1.5
				C58,9.5,57.3,8.8,56.5,8.8z"/>
			<path class="st4" d="M44.2,8.8h-1.5c-0.8,0-1.5,0.7-1.5,1.5c0,0.8,0.7,1.5,1.5,1.5h1.5c0.8,0,1.5-0.7,1.5-1.5
				C45.8,9.5,45.1,8.8,44.2,8.8z"/>
			<polygon class="st4" points="24.4,32.7 24.4,68.3 27.4,66.1 27.4,34.6 			"/>
			<path class="st4" d="M47.3,56.2c0.4,0,0.8-0.1,1.1-0.4c0.6-0.6,0.6-1.6,0-2.2l-5-5l5-5c0.6-0.6,0.6-1.6,0-2.2
				c-0.6-0.6-1.6-0.6-2.2,0l-6.1,6.1c-0.6,0.6-0.6,1.6,0,2.2l6.1,6.1C46.5,56,46.9,56.2,47.3,56.2z"/>
			<path class="st4" d="M52.3,55.7c0.3,0.3,0.7,0.4,1.1,0.4c0.4,0,0.8-0.1,1.1-0.4l6.1-6.1c0.6-0.6,0.6-1.6,0-2.2l-6.1-6.1
				c-0.6-0.6-1.6-0.6-2.2,0c-0.6,0.6-0.6,1.6,0,2.2l5,5l-5,5C51.7,54.2,51.7,55.2,52.3,55.7z"/>
			<rect x="24.4" y="32.7" transform="matrix(0.5243 -0.8515 0.8515 0.5243 -16.2734 36.3125)" width="0" height="0"/>
			<polygon points="27.4,34.6 30.7,36.7 30.7,36.6 27.4,34.6 			"/>
			<rect x="27.2" y="65.5" width="2.1" height="0"/>
			<g>
				<path class="st3" d="M73.3,10.3c0-1.7-1.3-3-3-3H30.4c-1.7,0-3,1.3-3,3v3.1h45.8V10.3z"/>
				<path class="st3" d="M46.3,83.7H27.4v6.2c0,1.7,1.3,3,3,3h15.9c-1.3-1.1-2.1-2.8-2.1-4.6C44.2,86.5,45,84.8,46.3,83.7z"/>
				<rect x="73.3" y="34.6" class="st3" width="0" height="31.5"/>
				<circle class="st3" cx="50.3" cy="88.3" r="3.1"/>
				<path class="st3" d="M56.5,88.3c0,1.8-0.8,3.5-2.1,4.6h15.9c1.7,0,3-1.3,3-3v-6.2H54.4C55.7,84.8,56.5,86.5,56.5,88.3z"/>
				<path class="st4" d="M76.3,32.7v-3.6l0,0V10.3c0-3.3-2.7-6.1-6.1-6.1H30.4c-3.3,0-6.1,2.7-6.1,6.1v4.6c0,0,0,0,0,0c0,0,0,0,0,0
					v14.2l0,0v0l3.1,1.9v-6.6h0v-7.9h45.8V31l0,0v3.6l0,0v31.5l0,0v3.8l0,0v10.8h0h0H27.4v-5.2h0v-5.6L24.4,72v0l0,0v10.1
					c0,0,0,0,0,0c0,0,0,0,0,0v7.7c0,3.3,2.7,6.1,6.1,6.1h39.8c3.3,0,6.1-2.7,6.1-6.1V72l0,0v-3.8l0,0L76.3,32.7L76.3,32.7z
					 M27.4,13.4v-3.1c0-1.7,1.3-3,3-3h39.8c1.7,0,3,1.3,3,3v3.1H27.4z M46.3,92.9H30.4c-1.7,0-3-1.3-3-3v-6.2h18.9
					c-1.3,1.1-2.1,2.8-2.1,4.6C44.2,90.1,45,91.7,46.3,92.9z M50.3,91.3c-1.7,0-3.1-1.4-3.1-3.1c0-1.7,1.4-3.1,3.1-3.1
					c1.7,0,3.1,1.4,3.1,3.1S52,91.3,50.3,91.3z M73.3,89.9c0,1.7-1.3,3-3,3H54.4c1.3-1.1,2.1-2.8,2.1-4.6s-0.8-3.5-2.1-4.6h18.9
					V89.9z"/>
				<path class="st5" d="M82.4,34.8h12.2c0.8,0,1.5-0.7,1.5-1.5V21.1c0-0.8-0.7-1.5-1.5-1.5H82.4c-0.8,0-1.5,0.7-1.5,1.5v5.3
					l-8.4,5.2v0l-9.6,5.9c-3.1-3.5-7.6-5.6-12.6-5.6s-9.5,2.2-12.6,5.6L27.4,31v-6.6h0V31l-3.1-1.9l-4.6-2.8v-5.3
					c0-0.8-0.7-1.5-1.5-1.5H6c-0.8,0-1.5,0.7-1.5,1.5v12.2c0,0.8,0.7,1.5,1.5,1.5h12.2c0.8,0,1.5-0.7,1.5-1.5v-3.4l4.6,2.8v0l0,0v0
					l3.1,1.9v0l3.3,2l5.2,3.2c-1.5,2.5-2.4,5.5-2.4,8.7c0,4,1.4,7.6,3.7,10.5l-6.6,4.7v0l-10.9,7.8v-3.1c0-0.8-0.7-1.5-1.5-1.5H6
					c-0.8,0-1.5,0.7-1.5,1.5v12.2c0,0.8,0.7,1.5,1.5,1.5h12.2c0.8,0,1.5-0.7,1.5-1.5v-5.3l9.4-6.7v0l-1.7,1.2v5.6h0v-5.6l12-8.6
					c2.9,2.5,6.8,4.1,10.9,4.1c4.2,0,8-1.5,10.9-4.1l10,7.1v0l9.6,6.9v5.3c0,0.8,0.7,1.5,1.5,1.5h12.2c0.8,0,1.5-0.7,1.5-1.5V68.4
					c0-0.8-0.7-1.5-1.5-1.5H82.4c-0.8,0-1.5,0.7-1.5,1.5v3.1l-7.6-5.5v0l-9.8-7c2.3-2.9,3.7-6.5,3.7-10.5c0-3.2-0.9-6.2-2.4-8.7
					l8.5-5.3v0l7.6-4.7v3.4C80.9,34.1,81.6,34.8,82.4,34.8z M84,22.6h9.2v9.2H84V22.6z M16.7,31.8H7.6v-9.2h9.2V31.8z M16.7,79.1
					H7.6v-9.2h9.2V79.1z M84,69.9h9.2v9.2H84V69.9z M50.3,62.3c-7.6,0-13.8-6.2-13.8-13.8c0-7.6,6.2-13.8,13.8-13.8
					S64.1,41,64.1,48.6C64.1,56.1,57.9,62.3,50.3,62.3z"/>
			</g>
		</g>
	</g>
</g>
<g id="Data_and_Analtytics" class="st0">
	<g class="st1">
		<defs>
			<rect id="SVGID_00000026144905968391528410000004455798336581293482_" y="0" width="100" height="100"/>
		</defs>
		<clipPath id="SVGID_00000088846786296662462780000003716556090159060878_">
			<use xlink:href="#SVGID_00000026144905968391528410000004455798336581293482_"  style="overflow:visible;"/>
		</clipPath>
		<g style="clip-path:url(#SVGID_00000088846786296662462780000003716556090159060878_);">
			<path class="st4" d="M17.4,44.4H7.7c-0.9,0-1.5,0.6-1.5,1.5v48.5c0,0.9,0.6,1.5,1.5,1.5h9.7c0.9,0,1.5-0.6,1.5-1.5V45.8
				C18.8,45.1,18.1,44.4,17.4,44.4L17.4,44.4z M15.9,92.9H9.1V47.3h6.8V92.9z"/>
			<path class="st4" d="M39.2,56.1h-9.7c-0.9,0-1.5,0.6-1.5,1.5v36.8c0,0.9,0.6,1.5,1.5,1.5h9.7c0.9,0,1.5-0.6,1.5-1.5V57.6
				C40.7,56.9,40,56.1,39.2,56.1z M37.8,92.9H31V59.1h6.8V92.9z"/>
			<path class="st4" d="M61.1,67.9h-9.7c-0.9,0-1.5,0.6-1.5,1.5v25c0,0.9,0.6,1.5,1.5,1.5h9.7c0.9,0,1.5-0.6,1.5-1.5v-25
				C62.5,68.6,62,67.9,61.1,67.9z M59.6,92.9h-6.8V70.8h6.8V92.9z"/>
			<path class="st4" d="M82.9,76.7h-9.7c-0.9,0-1.5,0.6-1.5,1.5v16.2c0,0.9,0.6,1.5,1.5,1.5h9.7c0.9,0,1.5-0.6,1.5-1.5V78.2
				C84.4,77.4,83.7,76.7,82.9,76.7z M81.4,92.9h-6.8V79.7h6.8V92.9z"/>
			<g>
				<path class="st5" d="M86.4,33.6H64.4V11.5c0-0.9-0.6-1.5-1.5-1.5c-13.8,0-25,11.2-25,25s11.2,25,25,25s25-11.2,25-25
					C87.9,34.3,87.2,33.6,86.4,33.6L86.4,33.6z M62.9,57.1c-12.2,0-22.1-9.9-22.1-22.1c0-11.6,9.1-21.3,20.6-22.1v22.1
					c0,0.9,0.6,1.5,1.5,1.5H85C84.1,48,74.5,57.1,62.9,57.1z"/>
				<path class="st5" d="M68.8,30.6h23.5c0.9,0,1.5-0.6,1.5-1.5c0-13.8-11.2-25-25-25c-0.9,0-1.5,0.6-1.5,1.5v23.5
					C67.3,30.1,67.9,30.6,68.8,30.6z M70.3,7.3c11,0.7,19.9,9.6,20.6,20.6H70.3V7.3z"/>
			</g>
		</g>
	</g>
</g>
<g id="Hybrid_cloud" class="st0">
	<g class="st1">
		<defs>
			<rect id="SVGID_00000023991027897181967780000012768787495813323691_" y="0" width="100" height="100"/>
		</defs>
		<clipPath id="SVGID_00000183229194941541766660000003207610375425833345_">
			<use xlink:href="#SVGID_00000023991027897181967780000012768787495813323691_"  style="overflow:visible;"/>
		</clipPath>
		<g style="clip-path:url(#SVGID_00000183229194941541766660000003207610375425833345_);">
			<path class="st4" d="M95.8,64.9c0-0.7-0.1-1.3-0.1-2v3.9c0.1-0.5,0.1-1,0.1-1.5V64.9z"/>
			<path class="st4" d="M17.7,75.6c-5.9,0-10.8-4.7-10.9-10.5v-0.4c0-8,6.2-14.8,14.2-15.5c0.8,0,1.1-0.6,1.2-1
				c0.6-4.7,3.8-8.5,8.1-9.9v-2.6C25,37,20.8,41.3,19.7,46.8l0,0.1l-0.1,0c-8.8,1.3-15.4,9-15.4,18v0.4c0.1,7.1,6.2,12.9,13.5,12.9
				h12.6v-2.6H17.7z"/>
			<path class="st4" d="M80.7,47.1l-0.1,0l0-0.1c0.1-1.2,0.3-2.4,0.3-3.6c0-8.2-4.6-15.3-11.4-19v2.9c5.3,3.4,8.8,9.3,8.8,16
				c0,1.5-0.3,3.1-0.6,4.5c0,0.4,0,0.8,0.2,1c0.3,0.3,0.5,0.5,0.9,0.5c8.1,0.6,14.4,7.4,14.4,15.5v0.4c-0.1,5.8-5,10.5-10.9,10.5
				H69.5v2.6h12.8c6.8,0,12.5-5,13.4-11.5v-3.9C94.8,55,88.7,48.4,80.7,47.1z"/>
			<path class="st5" d="M39.4,38.7c0.3,0.1,0.7,0.1,1,0c0.3-0.1,0.5-0.4,0.6-0.8c2.3-8.1,9.8-13.7,18.2-13.7c1.2,0,2.5,0.1,3.6,0.4
				v-2.5c-1.2-0.2-2.4-0.3-3.6-0.3c-9,0-17.1,5.7-20.3,14.1l0,0.1l-0.1,0c-0.7-0.3-1.4-0.4-2.1-0.6v2.4C37.7,38,38.6,38.3,39.4,38.7
				z"/>
			<rect x="36.8" y="75.6" class="st5" width="26.2" height="2.6"/>
		</g>
	</g>
</g>
<g id="Security">
	<g>
		<defs>
			<rect id="SVGID_00000139974094816818205140000015990020820264373153_" width="100" height="100"/>
		</defs>
		<clipPath id="SVGID_00000090974761379455746660000000512660804764036006_">
			<use xlink:href="#SVGID_00000139974094816818205140000015990020820264373153_"  style="overflow:visible;"/>
		</clipPath>
		<g style="clip-path:url(#SVGID_00000090974761379455746660000000512660804764036006_);">
			<path class="st9" d="M76.6,14.1c0.4-0.5,0.2-1.3-0.3-1.6C68.6,7,59.5,4.2,50,4.2c-5.9,0-11.7,1.1-17.2,3.3
				c-0.6,0.2-0.9,0.9-0.6,1.5c0.2,0.6,0.9,0.9,1.5,0.6C38.9,7.6,44.4,6.5,50,6.5c9,0,17.7,2.7,25,7.9c0.2,0.1,0.4,0.2,0.7,0.2
				C76.1,14.6,76.4,14.4,76.6,14.1z"/>
			<path class="st9" d="M95.8,50c0-9.2-2.7-18-7.8-25.6c-0.4-0.5-1.1-0.7-1.6-0.3c-0.5,0.4-0.7,1.1-0.3,1.6
				c4.8,7.2,7.4,15.6,7.4,24.3c0,9.4-3,18.4-8.6,25.9c-0.9-0.5-1.9-0.8-3-0.8c-3.4,0-6.2,2.8-6.2,6.2c0,3.4,2.8,6.2,6.2,6.2
				c3.4,0,6.2-2.8,6.2-6.2c0-1.5-0.5-2.9-1.4-4C92.7,69.4,95.8,60,95.8,50z M81.9,85.3c-2.2,0-3.9-1.8-3.9-3.9s1.8-3.9,3.9-3.9
				s3.9,1.8,3.9,3.9S84.1,85.3,81.9,85.3z"/>
			<path class="st9" d="M66.3,90.3c-5.2,2.1-10.7,3.2-16.3,3.2C26,93.5,6.5,74,6.5,50c0-9.4,3-18.4,8.6-25.9c0.9,0.5,1.9,0.8,3,0.8
				c3.4,0,6.2-2.8,6.2-6.2s-2.8-6.2-6.2-6.2s-6.2,2.8-6.2,6.2c0,1.5,0.5,2.9,1.4,4C7.3,30.6,4.2,40,4.2,50
				c0,25.3,20.6,45.8,45.8,45.8c5.9,0,11.7-1.1,17.2-3.3c0.6-0.2,0.9-0.9,0.6-1.5C67.6,90.4,66.9,90.1,66.3,90.3z M18.1,14.7
				c2.2,0,3.9,1.8,3.9,3.9s-1.8,3.9-3.9,3.9s-3.9-1.8-3.9-3.9S15.9,14.7,18.1,14.7z"/>
			<path class="st10" d="M50,46.6c-3.5,0-6.3,2.8-6.3,6.3c0,1.5,0.5,3,1.5,4.1v5.7c0,2.6,2.2,4.8,4.8,4.8s4.8-2.2,4.8-4.8V57
				c1-1.1,1.5-2.6,1.5-4.1C56.3,49.4,53.5,46.6,50,46.6z M52.8,55.7c-0.2,0.2-0.3,0.5-0.3,0.8v6.1c0,1.4-1.1,2.5-2.5,2.5
				c-1.4,0-2.5-1.1-2.5-2.5v-6.1c0-0.3-0.1-0.6-0.3-0.8C46.4,55,46,54,46,52.9c0-2.2,1.8-4,4-4c2.2,0,4,1.8,4,4
				C54,54,53.6,55,52.8,55.7z"/>
			<path class="st10" d="M66,39.5v-4.2c0-8.8-7.2-16-16-16c-8.8,0-16,7.2-16,16v4.2c-2.3,0.8-4,3-4,5.6V69c0,3.3,2.7,5.9,5.9,5.9
				h28.3c3.3,0,5.9-2.7,5.9-5.9V45.1C70,42.5,68.4,40.3,66,39.5z M36.3,35.3c0-7.6,6.2-13.7,13.7-13.7s13.7,6.2,13.7,13.7v3.9h-5.1
				v-3.9c0-4.7-3.9-8.6-8.6-8.6s-8.6,3.9-8.6,8.6v3.9h-5.1V35.3z M43.7,39.2v-3.9c0-3.5,2.8-6.3,6.3-6.3c3.5,0,6.3,2.8,6.3,6.3v3.9
				H43.7z M67.7,69c0,2-1.6,3.6-3.6,3.6H35.9c-2,0-3.6-1.6-3.6-3.6V45.1c0-2,1.6-3.6,3.6-3.6h6.7h14.9h6.7c2,0,3.6,1.6,3.6,3.6V69z"
				/>
			<path class="st9" d="M81.9,19.9c0.3,0,0.6-0.1,0.8-0.3c0.2-0.2,0.3-0.5,0.3-0.8c0-0.3-0.1-0.6-0.3-0.8c-0.1,0-0.1-0.1-0.2-0.1
				c-0.1,0-0.1-0.1-0.2-0.1c-0.1,0-0.1,0-0.2-0.1c-0.4-0.1-0.8,0-1.1,0.3c-0.2,0.2-0.3,0.5-0.3,0.8c0,0.3,0.1,0.6,0.3,0.8
				C81.3,19.8,81.6,19.9,81.9,19.9z"/>
		</g>
	</g>
</g>
<g id="Digital-Services" class="st0">
	<g class="st1">
		<defs>
			<rect id="SVGID_00000114074858520496276960000012309487440156076172_" x="0.1" y="0.6" width="100" height="100"/>
		</defs>
		<clipPath id="SVGID_00000101089522224460664440000018352106149923341444_">
			<use xlink:href="#SVGID_00000114074858520496276960000012309487440156076172_"  style="overflow:visible;"/>
		</clipPath>
		<g style="clip-path:url(#SVGID_00000101089522224460664440000018352106149923341444_);">
			<path class="st4" d="M86.7,68.5c-0.2-0.5-0.7-0.8-1.2-0.8H67.3v2.6h17.3l0.1,0.1l8,18.8H7.6l8.1-18.9H33v-2.6H14.8
				c-0.5,0-1,0.3-1.2,0.8L4.4,90c-0.3,0.7,0,1.4,0.7,1.7c0.2,0.1,0.3,0.1,0.5,0.1h89.1c0.7,0,1.3-0.6,1.3-1.3c0-0.2,0-0.3-0.1-0.5
				L86.7,68.5z"/>
			<g>
				<rect x="45.8" y="47.9" class="st5" width="2.6" height="13.6"/>
				<rect x="45.8" y="65.1" class="st4" width="2.6" height="2.6"/>
				<line class="st5" x1="48.4" y1="65.1" x2="48.4" y2="67.7"/>
				<rect x="45.8" y="71.3" class="st5" width="2.6" height="10.5"/>
				<rect x="51.9" y="47.9" class="st4" width="2.6" height="15.2"/>
				<rect x="51.9" y="66.6" class="st5" width="2.6" height="15.1"/>
				<rect x="58.1" y="51" class="st5" width="2.6" height="18.2"/>
				<rect x="39.6" y="72.8" class="st5" width="2.6" height="2.6"/>
				<rect x="39.6" y="49.5" class="st4" width="2.6" height="19.8"/>
				<rect x="58.1" y="72.8" class="st4" width="2.6" height="2.6"/>
			</g>
			<path class="st4" d="M18.8,74.9h11.1v-2.6h-12c-0.5,0-1,0.3-1.2,0.8l-4.6,12.3c-0.1,0.3-0.1,0.7,0,1c0.1,0.3,0.4,0.6,0.7,0.7
				c0.1,0.1,0.3,0.1,0.5,0.1H87c0.7,0,1.3-0.6,1.3-1.3c0-0.2,0-0.3-0.1-0.5l-4.6-12.3c-0.2-0.5-0.7-0.8-1.2-0.8h-12v2.6h11.1
				l0.1,0.2l3.6,9.5h-70L18.8,74.9z"/>
			<path class="st5" d="M61.7,19.7v-3.1l0.2-0.1c0.9-0.3,1.7-1,2.1-1.9c0.4-0.9,0.5-1.9,0.1-2.8c-0.7-1.9-2.8-2.9-4.7-2.3
				c-1.5,0.5-2.5,1.9-2.5,3.5c0,1.6,1,3,2.5,3.5l0.2,0.1v2.5l-3.5,2.3c-0.3,0.2-0.5,0.5-0.5,0.9v17.2h2.2V22.9l3.5-2.3
				C61.6,20.4,61.7,20.1,61.7,19.7z M60.7,14.7c-0.9,0-1.6-0.7-1.6-1.6c0-0.9,0.7-1.6,1.6-1.6c0.9,0,1.6,0.7,1.6,1.6v0
				C62.2,14,61.5,14.7,60.7,14.7z"/>
			<path class="st5" d="M48.9,16.8l0.2,0.1v26.8h2.2V16.9l0.2-0.1c1.5-0.5,2.5-1.9,2.5-3.5c0-2.1-1.7-3.7-3.7-3.7c0,0,0,0,0,0
				c-1,0-1.9,0.4-2.6,1.1c-0.7,0.7-1.1,1.6-1.1,2.6C46.4,14.9,47.4,16.3,48.9,16.8z M50.1,11.8c0.9,0,1.6,0.7,1.6,1.6
				c0,0.9-0.7,1.6-1.6,1.6c-0.9,0-1.6-0.7-1.6-1.6C48.5,12.5,49.2,11.8,50.1,11.8z"/>
			<path class="st5" d="M38.3,16.6l0.2,0.1v3.1c0,0.4,0.2,0.7,0.5,0.9l3.5,2.3v16.6h2.2V22.3c0-0.4-0.2-0.7-0.5-0.9l-3.5-2.3v-2.5
				l0.2-0.1c0.9-0.3,1.7-1,2.1-1.9c0.4-0.9,0.5-1.9,0.1-2.8c-0.7-1.9-2.8-2.9-4.7-2.3c-1.5,0.5-2.5,1.9-2.5,3.5
				C35.8,14.7,36.8,16.1,38.3,16.6z M39.5,11.5c0.9,0,1.6,0.7,1.6,1.6v0c0,0.9-0.7,1.6-1.6,1.6S38,14,38,13.1
				C38,12.2,38.7,11.5,39.5,11.5z"/>
			<rect x="55.6" y="42.6" class="st5" width="2.2" height="2.2"/>
			<rect x="42.4" y="42.6" class="st5" width="2.2" height="2.2"/>
		</g>
	</g>
</g>
<g id="Enterprise_Services" class="st0">
	<g class="st1">
		<defs>
			<rect id="SVGID_00000178199067910468800020000012719770185947560088_" y="0" width="100" height="100"/>
		</defs>
		<clipPath id="SVGID_00000072976807015503168800000000051610267728666537_">
			<use xlink:href="#SVGID_00000178199067910468800020000012719770185947560088_"  style="overflow:visible;"/>
		</clipPath>
		<g style="clip-path:url(#SVGID_00000072976807015503168800000000051610267728666537_);">
			<path class="st10" d="M85.9,58H70.4V38.1c0-0.4-0.3-0.8-0.7-1L60,34.3v-8.2c0-0.6-0.5-1-1-1H41c-0.6,0-1,0.5-1,1v8.2l-9.7,2.8
				c-0.4,0.1-0.7,0.5-0.7,1V58H14.2c-0.6,0-1,0.5-1,1c0,2.4,0.2,4.8,0.7,7.1c0.1,0.5,0.5,0.8,1,0.8h2.3c1.1,0,2,0.8,2.3,1.8
				c0.5,1.7,1.2,3.4,2.1,5c0.5,0.9,0.4,2.1-0.4,2.9l-1.7,1.7c-0.3,0.3-0.4,0.9-0.1,1.3c2.7,4,6.1,7.4,10,10c0.4,0.3,0.9,0.2,1.3-0.1
				l1.7-1.7c0.5-0.4,1.1-0.7,1.7-0.7c0.4,0,0.8,0.1,1.2,0.3c1.6,0.8,3.3,1.5,5,2.1c1,0.3,1.8,1.2,1.8,2.3v2.3c0,0.5,0.3,0.9,0.8,1
				c4.7,0.9,9.5,0.9,14.2,0c0.5-0.1,0.8-0.5,0.8-1v-2.3c0-1.1,0.8-2,1.8-2.3c1.7-0.5,3.4-1.2,5-2.1c0.9-0.5,2.1-0.4,2.9,0.3l1.7,1.7
				c0.3,0.3,0.9,0.4,1.3,0.1c4-2.7,7.4-6.1,10-10c0.3-0.4,0.2-0.9-0.1-1.3l-1.7-1.7c-0.7-0.8-0.9-2-0.3-2.9c0.8-1.6,1.5-3.3,2.1-5
				c0.3-1,1.2-1.8,2.3-1.8h2.3c0.5,0,0.9-0.3,1-0.8c0.5-2.3,0.7-4.7,0.7-7.1C86.9,58.4,86.4,58,85.9,58z M60,36.4l8.4,2.4V58H60
				V36.4z M42.1,27.1H58V58h-4v-6.5c0-0.3-0.1-0.5-0.3-0.7c-0.2-0.2-0.4-0.3-0.7-0.3h-6h0c-0.6,0-1,0.5-1,1V58h-4V27.1z M52,52.5V58
				h-4v-5.4H52z M31.6,38.8l8.4-2.4V58h-8.4V38.8z M71.1,60l0,0.5C70.3,71.6,61,80.1,50,80.1c-0.5,0-1,0-1.5-0.1
				C38.1,79.3,29.7,70.9,29,60.5l0-0.5H71.1z M84.8,60.5c-0.1,1.3-0.2,2.7-0.4,4l-0.1,0.4h-1.5c-2,0-3.7,1.3-4.2,3.2l0,0
				c-0.5,1.6-1.2,3.2-2,4.7c-0.9,1.7-0.6,3.9,0.7,5.3l1.1,1.1l-0.2,0.3c-2.2,3-4.8,5.6-7.8,7.8l-0.3,0.2l-1.1-1.1
				c-1.4-1.4-3.5-1.7-5.2-0.7c-1.5,0.8-3.1,1.4-4.7,2c-1.9,0.6-3.2,2.3-3.2,4.2v1.5l-0.4,0.1c-1.8,0.3-3.7,0.4-5.5,0.4
				c-1.8,0-3.7-0.1-5.5-0.4l-0.4-0.1v-1.5c0-2-1.3-3.7-3.2-4.2c-1.6-0.5-3.2-1.2-4.7-2c-1.7-0.9-3.9-0.6-5.3,0.7l-1.1,1.1l-0.3-0.2
				c-3-2.2-5.6-4.8-7.8-7.8l-0.2-0.3l1.1-1.1c1.4-1.4,1.7-3.5,0.7-5.2c-0.8-1.5-1.4-3.1-2-4.7c-0.6-1.9-2.3-3.2-4.2-3.2h-1.5
				l-0.1-0.4c-0.2-1.3-0.3-2.6-0.4-4l0-0.5h11.7l0,0.5c0.8,12.7,11.8,22.4,24.5,21.6c11.6-0.7,20.9-10,21.6-21.6l0-0.5h11.7
				L84.8,60.5z"/>
			<path class="st13" d="M48.7,11.9L49,12v10.6h2V12l0.3-0.1c2.1-0.7,3.2-3,2.4-5.1c-0.7-2.1-3-3.2-5.1-2.4c-1,0.4-1.8,1.1-2.3,2
				c-0.5,1-0.5,2-0.2,3.1C46.6,10.6,47.5,11.5,48.7,11.9z M50,6.2L50,6.2c1.1,0,2,0.9,2,2s-0.9,2-2,2c-1.1,0-2-0.9-2-2
				C48,7.1,48.9,6.2,50,6.2z"/>
			<path class="st13" d="M72.4,21.1c2.2,0,4-1.8,4-4s-1.8-4-4-4s-4,1.8-4,4c0,0.6,0.1,1.2,0.4,1.7l0.2,0.3l-3.2,3.2
				c-0.2,0.2-0.3,0.4-0.3,0.7v10h2v-9.6l2.9-2.9l0.3,0.2C71.2,21,71.8,21.1,72.4,21.1z M72.4,15.2L72.4,15.2c1.1,0,2,0.9,2,2
				c0,1.1-0.9,2-2,2c-1.1,0-2-0.9-2-2C70.4,16.1,71.3,15.2,72.4,15.2z"/>
			<path class="st13" d="M27.6,21.1c0.6,0,1.2-0.1,1.7-0.4l0.3-0.2l2.9,2.9v9.6h2v-10c0-0.3-0.1-0.5-0.3-0.7L31,19.2l0.2-0.3
				c0.3-0.5,0.4-1.1,0.4-1.7c0-2.2-1.8-4-4-4c-2.2,0-4,1.8-4,4C23.6,19.4,25.4,21.1,27.6,21.1z M27.6,15.2c1.1,0,2,0.9,2,2
				c0,1.1-0.9,2-2,2h0c-1.1,0-2-0.9-2-2C25.6,16.1,26.5,15.2,27.6,15.2z"/>
			<path class="st13" d="M12.7,37.6c1,0,2-0.4,2.8-1.1l0.2-0.2l4.9,2.5v10.8h2V38.1c0-0.4-0.2-0.7-0.6-0.9l-5.5-2.8l0.1-0.4
				c0-0.2,0-0.3,0-0.5c0-2.2-1.8-4-4-4h0c0,0,0,0,0,0c-1.1,0-2.1,0.4-2.8,1.2c-0.8,0.8-1.2,1.8-1.2,2.8s0.4,2.1,1.2,2.8
				C10.6,37.2,11.6,37.6,12.7,37.6C12.6,37.6,12.6,37.6,12.7,37.6z M10.7,33.6c0-1.1,0.9-2,2-2s2,0.9,2,2c0,1.1-0.9,2-2,2h0
				C11.6,35.6,10.7,34.7,10.7,33.6z"/>
			<rect x="20.6" y="53.5" class="st5" width="2" height="2"/>
			<path class="st13" d="M87.3,29.6c-2.2,0-4,1.8-4,4c0,0.1,0,0.3,0,0.5l0.1,0.4l-5.5,2.8c-0.3,0.2-0.6,0.5-0.6,0.9v11.5h2V38.7
				l4.9-2.5l0.2,0.2c0.8,0.7,1.7,1.1,2.8,1.1c0,0,0,0,0.1,0c1.1,0,2.1-0.4,2.8-1.2c0.7-0.8,1.1-1.7,1.1-2.8v0
				C91.3,31.4,89.6,29.6,87.3,29.6z M87.3,35.6c-1.1,0-2-0.9-2-2v0c0-1.1,0.9-2,2-2c1.1,0,2,0.9,2,2C89.3,34.7,88.4,35.6,87.3,35.6z
				"/>
			<rect x="77.4" y="53.5" class="st13" width="2" height="2"/>
			<rect x="46" y="32.6" class="st4" width="8" height="2"/>
			<rect x="46" y="38.5" class="st4" width="8" height="2"/>
			<rect x="46" y="44.5" class="st4" width="8" height="2"/>
			<rect x="62.4" y="41.5" class="st4" width="3.5" height="2"/>
			<rect x="62.4" y="47.5" class="st4" width="3.5" height="2"/>
			<rect x="34.1" y="41.5" class="st4" width="3.5" height="2"/>
			<rect x="34.1" y="47.5" class="st4" width="3.5" height="2"/>
		</g>
	</g>
</g>
<g id="Product-and-Digital-Services" class="st0">
	<g class="st1">
		<defs>
			<rect id="SVGID_00000164486795278719217590000016760769415843390653_" y="0" width="100" height="100"/>
		</defs>
		<clipPath id="SVGID_00000053517214477877601280000017843400283981745586_">
			<use xlink:href="#SVGID_00000164486795278719217590000016760769415843390653_"  style="overflow:visible;"/>
		</clipPath>
		<g style="clip-path:url(#SVGID_00000053517214477877601280000017843400283981745586_);">
			<g>
				<g>
					<path class="st4" d="M19.5,46.2h2.4v2.4h-2.4V46.2z"/>
					<path class="st4" d="M24.2,46.2h2.4v2.4h-2.4V46.2z"/>
					<path class="st4" d="M28.9,46.2h2.4v2.4h-2.4V46.2z"/>
					<path class="st4" d="M64.4,90.5h16.2V78.4H64.4V90.5z M70.4,80.4h4v2h-4V80.4z M66.4,80.4h2v4h8.1v-4h2v8.1H66.4V80.4z"/>
					<path class="st4" d="M64.4,74.6h16.2V62.4H64.4V74.6z M70.4,64.5h4v2h-4V64.5z M66.4,64.5h2v4h8.1v-4h2v8.1H66.4V64.5z"/>
					<path class="st4" d="M68.7,55.6h2.4V58h-2.4V55.6z"/>
					<path class="st4" d="M73.4,55.6h2.4V58h-2.4V55.6z"/>
					<path class="st4" d="M78.2,55.6h2.4V58h-2.4V55.6z"/>
					<path class="st4" d="M19.5,68.1h17v2.4h-17V68.1z"/>
					<path class="st4" d="M19.5,74.3h17v2.4h-17V74.3z"/>
					<path class="st4" d="M38.9,68.1h14.4v2.4H38.9V68.1z"/>
					<path class="st4" d="M38.9,74.3h14.4v2.4H38.9V74.3z"/>
					<g>
						<rect x="17.1" y="43.8" class="st3" width="65.8" height="7.1"/>
						<path class="st4" d="M14.7,41.4v54.4h0v0h70.5V41.4H14.7z M82.9,93.5H17.1V53.3h65.8V93.5z M82.9,50.9H17.1v-7.1h65.8V50.9z"
							/>
					</g>
				</g>
			</g>
			<g>
				<path class="st5" d="M62.9,15.6v-3.4l0.2-0.1c1-0.4,1.9-1.1,2.3-2.1s0.5-2.1,0.2-3.2c-0.8-2.1-3.1-3.3-5.3-2.5
					c-1.6,0.6-2.7,2.1-2.7,3.9c0,1.7,1.1,3.3,2.8,3.9l0.2,0.1V15l-3.9,2.6c-0.3,0.2-0.5,0.6-0.5,1v16.2h2.4V19.2l3.9-2.6
					C62.7,16.4,62.9,16,62.9,15.6z M61.7,10c-1,0-1.7-0.8-1.7-1.7s0.8-1.7,1.7-1.7c1,0,1.7,0.8,1.7,1.7v0C63.5,9.3,62.7,10,61.7,10z
					"/>
				<path class="st5" d="M48.6,12.4l0.2,0.1v26.9h2.4V12.5l0.2-0.1c1.6-0.6,2.7-2.1,2.8-3.9c0-2.3-1.8-4.1-4.1-4.1c0,0,0,0,0,0
					c-1.1,0-2.1,0.4-2.9,1.2c-0.8,0.8-1.2,1.8-1.2,2.9C45.9,10.2,47,11.8,48.6,12.4z M50,6.8c1,0,1.7,0.8,1.7,1.7S51,10.3,50,10.3
					c-1,0-1.7-0.8-1.7-1.7C48.3,7.6,49.1,6.8,50,6.8z"/>
				<path class="st5" d="M36.9,12.2l0.2,0.1v3.4c0,0.4,0.2,0.8,0.5,1l3.9,2.6v15.5h2.4V18.6c0-0.4-0.2-0.8-0.5-1L39.5,15v-2.7
					l0.2-0.1c1-0.4,1.9-1.1,2.3-2.1c0.5-1,0.5-2.1,0.2-3.2c-0.8-2.1-3.1-3.3-5.3-2.5c-1.6,0.6-2.7,2.1-2.7,3.9
					C34.2,10,35.3,11.6,36.9,12.2z M38.3,6.6c1,0,1.7,0.8,1.7,1.7v0c0,1-0.8,1.7-1.7,1.7c-1,0-1.7-0.8-1.7-1.7S37.3,6.6,38.3,6.6z"
					/>
				<rect x="56.1" y="38.2" class="st5" width="2.4" height="2.4"/>
				<rect x="41.5" y="38.2" class="st5" width="2.4" height="2.4"/>
			</g>
		</g>
	</g>
</g>
</svg>
