<?xml version="1.0" encoding="utf-8"?>
<!-- Generator: Adobe Illustrator 27.5.0, SVG Export Plug-In . SVG Version: 6.00 Build 0)  -->
<svg version="1.1" xmlns="http://www.w3.org/2000/svg" xmlns:xlink="http://www.w3.org/1999/xlink" x="0px" y="0px"
	 viewBox="0 0 100 100" style="enable-background:new 0 0 100 100;" xml:space="preserve">
<style type="text/css">
	.st0{display:none;}
	.st1{display:inline;}
	.st2{clip-path:url(#SVGID_00000109707806620996794140000010561135577611817374_);}
	.st3{fill:none;}
	.st4{fill:#007399;}
	.st5{fill:#007399;stroke:#007399;stroke-width:1.5;stroke-miterlimit:10;}
	.st6{fill:#BC4A01;stroke:#BC4A01;stroke-width:1.5;stroke-miterlimit:10;}
	.st7{clip-path:url(#SVGID_00000046299061347262164740000007743686289141184394_);}
	.st8{clip-path:url(#SVGID_00000005262301617208183350000015053123284236701603_);}
	.st9{clip-path:url(#SVGID_00000148655637057187555560000011723045365709804672_);}
	.st10{fill:#BC4A01;stroke:#BC4A01;stroke-width:1.3;stroke-miterlimit:10;}
	.st11{fill:#007399;stroke:#007399;stroke-width:1.3;stroke-miterlimit:10;}
	.st12{display:inline;fill:#BC4A01;stroke:#BC4A01;stroke-width:1.3;stroke-miterlimit:10;}
	.st13{display:inline;fill:#007399;stroke:#007399;stroke-width:1.22;stroke-miterlimit:10;}
	.st14{display:inline;fill:#BC4A01;stroke:#BC4A01;stroke-width:1.5;stroke-miterlimit:10;}
	.st15{fill:#007399;stroke:#007399;stroke-width:1.22;stroke-miterlimit:10;}
	.st16{clip-path:url(#SVGID_00000021087160484136763040000002092353348366925463_);}
	.st17{fill:#BC4A01;}
	.st18{clip-path:url(#SVGID_00000073699377503021162210000004067328221618659248_);}
	.st19{clip-path:url(#SVGID_00000182514387191414794390000002342270823098585249_);}
	.st20{fill:#BC4A01;stroke:#BC4A01;stroke-width:2;stroke-miterlimit:10;}
	.st21{fill:#007399;stroke:#007399;stroke-width:2;stroke-miterlimit:10;}
	.st22{clip-path:url(#SVGID_00000032611810683341715800000002128006727649278342_);}
	.st23{clip-path:url(#SVGID_00000005255296631860809110000013176778404805591475_);}
	.st24{clip-path:url(#SVGID_00000023969066583095299300000014161701175615643548_);}
	.st25{fill:none;stroke:#000000;stroke-width:4;stroke-linecap:round;stroke-linejoin:round;stroke-miterlimit:13.3333;}
	.st26{stroke:#000000;stroke-width:1.5;stroke-miterlimit:10;}
	.st27{clip-path:url(#SVGID_00000155847534366279828820000004650749668877308855_);}
	.st28{clip-path:url(#SVGID_00000132089500058723439500000010423653954875387792_);}
</style>
<g id="App_and_experience" class="st0">
	<g class="st1">
		<defs>
			<rect id="SVGID_1_" x="0.3" y="0.1" width="100" height="100"/>
		</defs>
		<clipPath id="SVGID_00000107581610438476406510000008988724154692590256_">
			<use xlink:href="#SVGID_1_"  style="overflow:visible;"/>
		</clipPath>
		<g style="clip-path:url(#SVGID_00000107581610438476406510000008988724154692590256_);">
			<rect x="7.6" y="69.9" class="st3" width="9.2" height="9.2"/>
			<rect x="7.6" y="22.6" class="st3" width="9.2" height="9.2"/>
			<rect x="58.5" y="50.5" transform="matrix(0.5787 -0.8155 0.8155 0.5787 -9.039 83.5123)" class="st3" width="35.6" height="0"/>
			<path class="st3" d="M73.3,66.1V34.6l-8.5,5.3c1.5,2.5,2.4,5.5,2.4,8.7c0,4-1.4,7.6-3.7,10.5L73.3,66.1z"/>
			<path class="st3" d="M50.3,62.3c7.6,0,13.8-6.2,13.8-13.8c0-7.6-6.2-13.8-13.8-13.8S36.6,41,36.6,48.6
				C36.6,56.1,42.8,62.3,50.3,62.3z M52.3,43.5c-0.6-0.6-0.6-1.6,0-2.2c0.6-0.6,1.6-0.6,2.2,0l6.1,6.1c0.6,0.6,0.6,1.6,0,2.2
				l-6.1,6.1c-0.3,0.3-0.7,0.4-1.1,0.4c-0.4,0-0.8-0.1-1.1-0.4c-0.6-0.6-0.6-1.6,0-2.2l5-5L52.3,43.5z M40.1,47.5l6.1-6.1
				c0.6-0.6,1.6-0.6,2.2,0c0.6,0.6,0.6,1.6,0,2.2l-5,5l5,5c0.6,0.6,0.6,1.6,0,2.2c-0.3,0.3-0.7,0.4-1.1,0.4c-0.4,0-0.8-0.1-1.1-0.4
				l-6.1-6.1C39.5,49,39.5,48.1,40.1,47.5z"/>
			<path class="st3" d="M50.3,31.8c5,0,9.5,2.2,12.6,5.6L73.3,31V16.5H27.4V31l10.4,6.4C40.9,33.9,45.4,31.8,50.3,31.8z"/>
			<polygon class="st3" points="24.4,32.7 24.4,32.7 24.4,68.3 			"/>
			<path class="st3" d="M73.3,10.3c0-1.7-1.3-3-3-3H30.4c-1.7,0-3,1.3-3,3v3.1h45.8V10.3z M44.2,11.9h-1.5c-0.8,0-1.5-0.7-1.5-1.5
				c0-0.8,0.7-1.5,1.5-1.5h1.5c0.8,0,1.5,0.7,1.5,1.5C45.8,11.2,45.1,11.9,44.2,11.9z M56.5,11.9h-7.6c-0.8,0-1.5-0.7-1.5-1.5
				c0-0.8,0.7-1.5,1.5-1.5h7.6c0.8,0,1.5,0.7,1.5,1.5C58,11.2,57.3,11.9,56.5,11.9z"/>
			<path class="st3" d="M27.4,34.6v31.5l1.7-1.2v0l8.1-5.8c-2.3-2.9-3.7-6.5-3.7-10.5c0-3.2,0.9-6.2,2.4-8.7l-5.2-3.2v0L27.4,34.6z"
				/>
			<circle class="st3" cx="50.3" cy="88.3" r="3.1"/>
			<path class="st3" d="M56.5,88.3c0,1.8-0.8,3.5-2.1,4.6h15.9c1.7,0,3-1.3,3-3v-6.2H54.4C55.7,84.8,56.5,86.5,56.5,88.3z"/>
			<path class="st3" d="M73.3,69.9l-12-8.6c-2.9,2.5-6.8,4.1-10.9,4.1c-4.2,0-8-1.5-10.9-4.1l-12,8.6v10.8h45.8V69.9z"/>
			<path class="st3" d="M46.3,83.7H27.4v6.2c0,1.7,1.3,3,3,3h15.9c-1.3-1.1-2.1-2.8-2.1-4.6C44.2,86.5,45,84.8,46.3,83.7z"/>
			<path class="st4" d="M56.5,8.8h-7.6c-0.8,0-1.5,0.7-1.5,1.5c0,0.8,0.7,1.5,1.5,1.5h7.6c0.8,0,1.5-0.7,1.5-1.5
				C58,9.5,57.3,8.8,56.5,8.8z"/>
			<path class="st4" d="M44.2,8.8h-1.5c-0.8,0-1.5,0.7-1.5,1.5c0,0.8,0.7,1.5,1.5,1.5h1.5c0.8,0,1.5-0.7,1.5-1.5
				C45.8,9.5,45.1,8.8,44.2,8.8z"/>
			<polygon class="st5" points="24.4,32.7 24.4,68.3 27.4,66.1 27.4,34.6 			"/>
			<path class="st4" d="M47.3,56.2c0.4,0,0.8-0.1,1.1-0.4c0.6-0.6,0.6-1.6,0-2.2l-5-5l5-5c0.6-0.6,0.6-1.6,0-2.2
				c-0.6-0.6-1.6-0.6-2.2,0l-6.1,6.1c-0.6,0.6-0.6,1.6,0,2.2l6.1,6.1C46.5,56,46.9,56.2,47.3,56.2z"/>
			<path class="st4" d="M52.3,55.7c0.3,0.3,0.7,0.4,1.1,0.4c0.4,0,0.8-0.1,1.1-0.4l6.1-6.1c0.6-0.6,0.6-1.6,0-2.2l-6.1-6.1
				c-0.6-0.6-1.6-0.6-2.2,0c-0.6,0.6-0.6,1.6,0,2.2l5,5l-5,5C51.7,54.2,51.7,55.2,52.3,55.7z"/>
			<rect x="24.4" y="32.7" transform="matrix(0.5243 -0.8515 0.8515 0.5243 -16.2734 36.3125)" width="0" height="0"/>
			<polygon points="27.4,34.6 30.7,36.7 30.7,36.6 27.4,34.6 			"/>
			<rect x="27.2" y="65.5" width="2.1" height="0"/>
			<g>
				<path class="st3" d="M73.3,10.3c0-1.7-1.3-3-3-3H30.4c-1.7,0-3,1.3-3,3v3.1h45.8V10.3z"/>
				<path class="st3" d="M46.3,83.7H27.4v6.2c0,1.7,1.3,3,3,3h15.9c-1.3-1.1-2.1-2.8-2.1-4.6C44.2,86.5,45,84.8,46.3,83.7z"/>
				<rect x="73.3" y="34.6" class="st3" width="0" height="31.5"/>
				<circle class="st3" cx="50.3" cy="88.3" r="3.1"/>
				<path class="st3" d="M56.5,88.3c0,1.8-0.8,3.5-2.1,4.6h15.9c1.7,0,3-1.3,3-3v-6.2H54.4C55.7,84.8,56.5,86.5,56.5,88.3z"/>
				<path class="st5" d="M76.3,32.7v-3.6l0,0V10.3c0-3.3-2.7-6.1-6.1-6.1H30.4c-3.3,0-6.1,2.7-6.1,6.1v4.6c0,0,0,0,0,0c0,0,0,0,0,0
					v14.2l0,0v0l3.1,1.9l0-14.5h45.8V31l0,0v3.6l0,0v31.5l0,0v3.8l0,0v10.8h0h0H27.4l0-5.2v-5.6L24.4,72v0l0,0v10.1c0,0,0,0,0,0
					c0,0,0,0,0,0v7.7c0,3.3,2.7,6.1,6.1,6.1h39.8c3.3,0,6.1-2.7,6.1-6.1V72l0,0v-3.8l0,0L76.3,32.7L76.3,32.7z M27.4,13.4v-3.1
					c0-1.7,1.3-3,3-3h39.8c1.7,0,3,1.3,3,3v3.1H27.4z M46.3,92.9H30.4c-1.7,0-3-1.3-3-3v-6.2h18.9c-1.3,1.1-2.1,2.8-2.1,4.6
					C44.2,90.1,45,91.7,46.3,92.9z M50.3,91.3c-1.7,0-3.1-1.4-3.1-3.1c0-1.7,1.4-3.1,3.1-3.1c1.7,0,3.1,1.4,3.1,3.1
					S52,91.3,50.3,91.3z M73.3,89.9c0,1.7-1.3,3-3,3H54.4c1.3-1.1,2.1-2.8,2.1-4.6s-0.8-3.5-2.1-4.6h18.9V89.9z"/>
				<path class="st6" d="M82.4,34.8h12.2c0.8,0,1.5-0.7,1.5-1.5V21.1c0-0.8-0.7-1.5-1.5-1.5H82.4c-0.8,0-1.5,0.7-1.5,1.5v5.3
					l-8.4,5.2v0l-9.6,5.9c-3.1-3.5-7.6-5.6-12.6-5.6s-9.5,2.2-12.6,5.6L27.4,31l-3.1-1.9l-4.6-2.8v-5.3c0-0.8-0.7-1.5-1.5-1.5H6
					c-0.8,0-1.5,0.7-1.5,1.5v12.2c0,0.8,0.7,1.5,1.5,1.5h12.2c0.8,0,1.5-0.7,1.5-1.5v-3.4l4.6,2.8v0l0,0v0l3.1,1.9v0l3.3,2l5.2,3.2
					c-1.5,2.5-2.4,5.5-2.4,8.7c0,4,1.4,7.6,3.7,10.5l-6.6,4.7v0l-10.9,7.8v-3.1c0-0.8-0.7-1.5-1.5-1.5H6c-0.8,0-1.5,0.7-1.5,1.5
					v12.2c0,0.8,0.7,1.5,1.5,1.5h12.2c0.8,0,1.5-0.7,1.5-1.5v-5.3l9.4-6.7v0l-1.7,1.2l0,0l12-8.6c2.9,2.5,6.8,4.1,10.9,4.1
					c4.2,0,8-1.5,10.9-4.1l10,7.1v0l9.6,6.9v5.3c0,0.8,0.7,1.5,1.5,1.5h12.2c0.8,0,1.5-0.7,1.5-1.5V68.4c0-0.8-0.7-1.5-1.5-1.5H82.4
					c-0.8,0-1.5,0.7-1.5,1.5v3.1l-7.6-5.5v0l-9.8-7c2.3-2.9,3.7-6.5,3.7-10.5c0-3.2-0.9-6.2-2.4-8.7l8.5-5.3v0l7.6-4.7v3.4
					C80.9,34.1,81.6,34.8,82.4,34.8z M84,22.6h9.2v9.2H84V22.6z M16.7,31.8H7.6v-9.2h9.2V31.8z M16.7,79.1H7.6v-9.2h9.2V79.1z
					 M84,69.9h9.2v9.2H84V69.9z M50.3,62.3c-7.6,0-13.8-6.2-13.8-13.8c0-7.6,6.2-13.8,13.8-13.8S64.1,41,64.1,48.6
					C64.1,56.1,57.9,62.3,50.3,62.3z"/>
			</g>
		</g>
	</g>
</g>
<g id="Data_and_Analtytics" class="st0">
	<g class="st1">
		<defs>
			<rect id="SVGID_00000039101886459200912990000012433752980222619039_" y="0" width="100" height="100"/>
		</defs>
		<clipPath id="SVGID_00000071522984893843551850000015200899054458454944_">
			<use xlink:href="#SVGID_00000039101886459200912990000012433752980222619039_"  style="overflow:visible;"/>
		</clipPath>
		<g style="clip-path:url(#SVGID_00000071522984893843551850000015200899054458454944_);">
			<path class="st5" d="M17.4,44.4H7.7c-0.9,0-1.5,0.6-1.5,1.5v48.5c0,0.9,0.6,1.5,1.5,1.5h9.7c0.9,0,1.5-0.6,1.5-1.5V45.8
				C18.8,45.1,18.1,44.4,17.4,44.4L17.4,44.4z M15.9,92.9H9.1V47.3h6.8V92.9z"/>
			<path class="st5" d="M43.3,56.1h-9.7c-0.9,0-1.5,0.6-1.5,1.5v36.8c0,0.9,0.6,1.5,1.5,1.5h9.7c0.9,0,1.5-0.6,1.5-1.5V57.6
				C44.8,56.9,44.1,56.1,43.3,56.1z M41.9,92.9h-6.8V59.1h6.8V92.9z"/>
			<path class="st5" d="M69.3,67.9h-9.7c-0.9,0-1.5,0.6-1.5,1.5v25c0,0.9,0.6,1.5,1.5,1.5h9.7c0.9,0,1.5-0.6,1.5-1.5v-25
				C70.7,68.6,70.2,67.9,69.3,67.9z M67.8,92.9H61V70.8h6.8V92.9z"/>
			<g>
				<path class="st6" d="M86.7,35.6H64.7V13.5c0-0.9-0.6-1.5-1.5-1.5c-13.8,0-25,11.2-25,25s11.2,25,25,25s25-11.2,25-25
					C88.2,36.3,87.5,35.6,86.7,35.6L86.7,35.6z M63.2,59.1C51,59.1,41.1,49.2,41.1,37c0-11.6,9.1-21.3,20.6-22.1V37
					c0,0.9,0.6,1.5,1.5,1.5h22.1C84.4,50,74.8,59.1,63.2,59.1z"/>
				<path class="st6" d="M71.9,29.8h23.5c0.9,0,1.5-0.6,1.5-1.5c0-13.8-11.2-25-25-25c-0.9,0-1.5,0.6-1.5,1.5v23.5
					C70.4,29.2,71,29.8,71.9,29.8z M73.4,6.4C84.4,7.1,93.2,16,94,27H73.4V6.4z"/>
			</g>
		</g>
	</g>
</g>
<g id="Hybrid_cloud" class="st0">
	<g class="st1">
		<defs>
			<rect id="SVGID_00000106131314183712485890000006981469297208214963_" y="0" width="100" height="100"/>
		</defs>
		<clipPath id="SVGID_00000015327446888067139580000013918529578219972517_">
			<use xlink:href="#SVGID_00000106131314183712485890000006981469297208214963_"  style="overflow:visible;"/>
		</clipPath>
		<g style="clip-path:url(#SVGID_00000015327446888067139580000013918529578219972517_);">
			<path class="st4" d="M95.8,64.9c0-0.7-0.1-1.3-0.1-2v3.9c0.1-0.5,0.1-1,0.1-1.5V64.9z"/>
			<path class="st5" d="M17.7,75.6c-5.9,0-10.8-4.7-10.9-10.5v-0.4c0-8,6.2-14.8,14.2-15.5c0.8,0,1.1-0.6,1.2-1
				c0.6-4.7,3.8-8.5,8.1-9.9v-2.6C25,37,20.8,41.3,19.7,46.8l0,0.1l-0.1,0c-8.8,1.3-15.4,9-15.4,18v0.4c0.1,7.1,6.2,12.9,13.5,12.9
				h12.6v-2.6H17.7z"/>
			<path class="st5" d="M80.7,47.1l-0.1,0l0-0.1c0.1-1.2,0.3-2.4,0.3-3.6c0-8.2-4.6-15.3-11.4-19v2.9c5.3,3.4,8.8,9.3,8.8,16
				c0,1.5-0.3,3.1-0.6,4.5c0,0.4,0,0.8,0.2,1c0.3,0.3,0.5,0.5,0.9,0.5c8.1,0.6,14.4,7.4,14.4,15.5v0.4c-0.1,5.8-5,10.5-10.9,10.5
				H69.5v2.6h12.8c6.8,0,12.5-5,13.4-11.5v-3.9C94.8,55,88.7,48.4,80.7,47.1z"/>
			<path class="st6" d="M39.4,38.7c0.3,0.1,0.7,0.1,1,0c0.3-0.1,0.5-0.4,0.6-0.8c2.3-8.1,9.8-13.7,18.2-13.7c1.2,0,2.5,0.1,3.6,0.4
				v-2.5c-1.2-0.2-2.4-0.3-3.6-0.3c-9,0-17.1,5.7-20.3,14.1l0,0.1l-0.1,0c-0.7-0.3-1.4-0.4-2.1-0.6v2.4C37.7,38,38.6,38.3,39.4,38.7
				z"/>
			<rect x="36.8" y="75.6" class="st6" width="26.2" height="2.6"/>
		</g>
	</g>
</g>
<g id="Layer_8" class="st0">
	<g class="st1">
		<defs>
			<rect id="SVGID_00000037666263150849340350000008658132258897650852_" y="-2.3" width="100" height="100"/>
		</defs>
		<clipPath id="SVGID_00000042706842667955340860000016277663506133041839_">
			<use xlink:href="#SVGID_00000037666263150849340350000008658132258897650852_"  style="overflow:visible;"/>
		</clipPath>
		<g style="clip-path:url(#SVGID_00000042706842667955340860000016277663506133041839_);">
			<path class="st10" d="M7.1,95.8h85.8c0.8,0,1.5-0.7,1.5-1.5c0-0.2,0-0.4-0.1-0.6l-8.9-21.8C85.1,71.4,84.6,71,84,71H66.3v3H83
				l7.6,18.9H9.4L17,74h16.8v-3H16c-0.6,0-1.1,0.4-1.4,0.9L5.8,93.8c-0.3,0.8,0,1.6,0.8,1.9C6.7,95.8,6.9,95.8,7.1,95.8L7.1,95.8z"
				/>
			<path class="st11" d="M45.6,58.9h3v8.9h-3V58.9z"/>
			<path class="st11" d="M45.6,70.7h3v3h-3V70.7z"/>
			<path class="st11" d="M45.6,76.6h3V84h-3V76.6z"/>
			<path class="st11" d="M51.5,58.9h3v10.3h-3V58.9z"/>
			<path class="st11" d="M51.5,72.2h3V84h-3V72.2z"/>
			<path class="st11" d="M57.4,61.8h3v13.3h-3V61.8z"/>
			<path class="st11" d="M39.7,78.1h3v3h-3V78.1z"/>
			<path class="st11" d="M39.7,60.3h3v14.8h-3V60.3z"/>
			<path class="st11" d="M57.4,78.1h3v3h-3V78.1z"/>
			<path class="st4" d="M77,11.8c-0.8,0-1.5,0.7-1.5,1.5v8.9c0,0.8,0.7,1.5,1.5,1.5h4.4v3h-3c-0.8,0-1.5,0.7-1.5,1.5v7.4
				c0,0.8,0.7,1.5,1.5,1.5h7.4c0.8,0,1.5-0.7,1.5-1.5v-3h7.4c0.8,0,1.5-0.7,1.5-1.5V19.2c0-0.8-0.7-1.5-1.5-1.5h-7.4v-4.4
				c0-0.8-0.7-1.5-1.5-1.5H77z M78.5,20.7v-5.9h5.9v3h-1.5c-0.8,0-1.5,0.7-1.5,1.5v1.5H78.5z M84.4,34H80v-4.4h1.5V31
				c0,0.8,0.7,1.5,1.5,1.5h1.5V34z M93.3,20.7v8.9h-8.9v-8.9H93.3z"/>
			<path class="st4" d="M5.4,57.5h8.9c0.8,0,1.5-0.7,1.5-1.5v-4.4h7.4c0.8,0,1.5-0.7,1.5-1.5V38.2c0-0.8-0.7-1.5-1.5-1.5H11.3
				c-0.8,0-1.5,0.7-1.5,1.5v7.4H5.4c-0.8,0-1.5,0.7-1.5,1.5V56C3.9,56.8,4.6,57.5,5.4,57.5z M12.8,39.7h8.9v8.9h-8.9V39.7z
				 M6.9,48.6h3v1.5c0,0.8,0.7,1.5,1.5,1.5h1.5v3H6.9V48.6z"/>
			<path class="st10" d="M22.1,79.9h10v-2.7h-11c-0.6,0-1.1,0.4-1.3,0.9l-3.8,9.6c-0.3,0.7,0.1,1.5,0.8,1.8c0.2,0.1,0.3,0.1,0.5,0.1
				h65c0.8,0,1.4-0.6,1.4-1.4c0-0.2,0-0.3-0.1-0.5L80.1,78c-0.2-0.5-0.7-0.9-1.3-0.9h-11v2.7h10l2.5,6.8h-61L22.1,79.9z"/>
		</g>
	</g>
	<g class="st1">
		<path class="st6" d="M65,18.2v-3.9l0.2-0.1c1.2-0.4,2.2-1.3,2.7-2.5c0.5-1.2,0.6-2.5,0.2-3.7c-0.9-2.5-3.6-3.8-6.1-2.9
			c-1.9,0.7-3.2,2.5-3.2,4.5c0,2,1.3,3.8,3.2,4.5l0.2,0.1v3.2l-4.5,3c-0.4,0.3-0.6,0.7-0.6,1.2v22.2h2.8V22.4l4.5-3
			C64.8,19.1,65,18.7,65,18.2z M63.7,11.7c-1.1,0-2-0.9-2-2s0.9-2,2-2c1.1,0,2,0.9,2,2v0C65.7,10.8,64.8,11.7,63.7,11.7z"/>
		<path class="st6" d="M48.4,14.5l0.2,0.1v34.6h2.8V14.6l0.2-0.1c1.9-0.7,3.2-2.5,3.2-4.5c0-2.7-2.1-4.8-4.8-4.8c0,0,0,0,0,0
			c-1.3,0-2.5,0.5-3.4,1.4c-0.9,0.9-1.4,2.1-1.4,3.4C45.2,12,46.5,13.8,48.4,14.5z M50,8c1.1,0,2,0.9,2,2s-0.9,2-2,2
			c-1.1,0-2-0.9-2-2C48,8.9,48.9,8,50,8z"/>
		<path class="st6" d="M34.8,14.2l0.2,0.1v3.9c0,0.5,0.2,0.9,0.6,1.2l4.5,3v21.4h2.8V21.7c0-0.5-0.2-0.9-0.6-1.2l-4.5-3v-3.2
			l0.2-0.1c1.2-0.4,2.2-1.3,2.7-2.5c0.5-1.2,0.6-2.5,0.2-3.7c-0.9-2.5-3.6-3.8-6.1-2.9c-1.9,0.7-3.2,2.5-3.2,4.5
			C31.6,11.7,32.9,13.6,34.8,14.2z M36.4,7.7c1.1,0,2,0.9,2,2v0c0,1.1-0.9,2-2,2s-2-0.9-2-2S35.3,7.7,36.4,7.7z"/>
		<rect x="57.1" y="47.9" class="st6" width="2.8" height="2.8"/>
		<rect x="40.1" y="47.9" class="st6" width="2.8" height="2.8"/>
	</g>
</g>
<g id="Layer_8_copy" class="st0">
	<path class="st12" d="M5.4,96.6h89.2c0.8,0,1.5-0.7,1.5-1.5c0-0.2,0-0.4-0.1-0.6l-9.2-22.7c-0.2-0.6-0.8-0.9-1.4-0.9H66.9v3.1h17.4
		l7.9,19.6H7.7l7.9-19.6h17.4v-3.1H14.6c-0.6,0-1.2,0.4-1.4,0.9L4,94.4c-0.3,0.8,0,1.7,0.8,2C5,96.5,5.2,96.6,5.4,96.6L5.4,96.6z"/>
	<path class="st13" d="M59.8,54h3.1v10.8h-3.1V54z"/>
	<path class="st13" d="M59.8,67.8h3.1v12.3h-3.1V67.8z"/>
	<path class="st13" d="M38.3,73.7h3.1v6.5h-3.1V73.7z"/>
	<path class="st13" d="M38.3,54.2h3.1v16.8h-3.1V54.2z"/>
	<path class="st12" d="M21,80h12.2v-2.9H20c-0.6,0-1.1,0.4-1.3,0.9l-4,9.9c-0.3,0.7,0.1,1.6,0.8,1.8c0.2,0.1,0.3,0.1,0.5,0.1h67.6
		c0.8,0,1.4-0.6,1.4-1.4c0-0.2,0-0.3-0.1-0.5l-3.7-9.9c-0.2-0.6-0.7-0.9-1.3-0.9H66.8V80H79l2.6,7.1H18.1L21,80z"/>
	<path class="st14" d="M67.9,19.6v-3.9l0.2-0.1c1.2-0.4,2.2-1.3,2.7-2.5c0.5-1.2,0.6-2.5,0.2-3.7c-0.9-2.5-3.6-3.8-6.1-2.9
		C63,7.2,61.7,9,61.7,11.1c0,2,1.3,3.8,3.2,4.5l0.2,0.1v3.2l-4.5,3C60.2,22.1,60,22.5,60,23v19.4h2.8V23.7l4.5-3
		C67.6,20.5,67.9,20,67.9,19.6z M66.5,13.1c-1.1,0-2-0.9-2-2s0.9-2,2-2c1.1,0,2,0.9,2,2v0C68.5,12.2,67.6,13.1,66.5,13.1z"/>
	<path class="st13" d="M49.1,54h3.1v9.2h-3.1V54z"/>
	<path class="st13" d="M49.1,66.3h3.1v3.1h-3.1V66.3z"/>
	<path class="st13" d="M49.1,72.4h3.1v7.7h-3.1V72.4z"/>
	<path class="st14" d="M49,20.2l0.2,0.1v29H52v-29l0.2-0.1c1.9-0.7,3.2-2.5,3.2-4.5c0-2.7-2.1-4.8-4.8-4.8c0,0,0,0,0,0
		c-1.3,0-2.5,0.5-3.4,1.4c-0.9,0.9-1.4,2.1-1.4,3.4C45.8,17.7,47.1,19.5,49,20.2z M50.6,13.7c1.1,0,2,0.9,2,2s-0.9,2-2,2
		c-1.1,0-2-0.9-2-2C48.6,14.6,49.5,13.7,50.6,13.7z"/>
	<path class="st14" d="M33.2,14.4l0.2,0.1v3.9c0,0.5,0.2,0.9,0.6,1.2l4.5,3v19.7h2.8V21.9c0-0.5-0.2-0.9-0.6-1.2l-4.5-3v-3.2
		l0.2-0.1c1.2-0.4,2.2-1.3,2.7-2.5c0.5-1.2,0.6-2.5,0.2-3.7c-0.9-2.5-3.6-3.8-6.1-2.9C31.2,6.1,30,7.9,30,9.9
		C30,11.9,31.3,13.8,33.2,14.4z M34.8,7.9c1.1,0,2,0.9,2,2v0c0,1.1-0.9,2-2,2c-1.1,0-2-0.9-2-2S33.7,7.9,34.8,7.9z"/>
	<rect x="60" y="46.4" class="st14" width="2.8" height="2.8"/>
	<rect x="38.5" y="46.4" class="st14" width="2.8" height="2.8"/>
</g>
<g id="Layer_8_copy_2" class="st0">
	<g class="st1">
		<path class="st15" d="M59.2,67.1h3.1v3.7h-3.1V67.1z"/>
		<g>
			<path class="st10" d="M3.6,97.1h92.8c0.9,0,1.6-0.8,1.6-1.9c0-0.3,0-0.5-0.1-0.7l-8.2-30.2c-0.3-0.7-0.8-1.1-1.5-1.1H69.9v3.7
				h17.1L94,93.4H6l9.6-26.4h16.6v-3.7H14.6c-0.6,0-1.2,0.4-1.5,1.1L2.2,94.5c-0.3,0.9,0,2,0.8,2.4C3.2,97,3.4,97.1,3.6,97.1
				L3.6,97.1z"/>
			<path class="st10" d="M21,77.2h11.2v-3.3H20c-0.6,0-1.1,0.4-1.3,1.1l-4,11.6c-0.3,0.9,0.1,1.8,0.8,2.1c0.2,0.1,0.3,0.1,0.5,0.1
				h67.6c0.8,0,1.4-0.7,1.4-1.7c0-0.2,0-0.4-0.1-0.6l-2.2-11.8c-0.2-0.6-0.7-1.1-1.3-1.1H70.3V77h10.2l1.2,8.5H18.1L21,77.2z"/>
		</g>
		<g>
			<path class="st15" d="M59.2,54h3.1v10.6h-3.1V54z"/>
			<path class="st15" d="M37.7,59.7h3.1v11.5h-3.1V59.7z"/>
			<path class="st15" d="M37.7,54.2h3.1v2.8h-3.1V54.2z"/>
			<path class="st15" d="M67.3,25.6v-3.9l0.2-0.1c1.2-0.4,2.2-1.3,2.7-2.5s0.6-2.5,0.2-3.7c-0.9-2.5-3.6-3.8-6.1-2.9
				c-1.9,0.7-3.2,2.5-3.2,4.5c0,2,1.3,3.8,3.2,4.5l0.2,0.1v3.2l-4.5,3c-0.4,0.3-0.6,0.7-0.6,1.2v13.4h2.8V29.7l4.5-3
				C67,26.5,67.3,26,67.3,25.6z M65.9,19.1c-1.1,0-2-0.9-2-2c0-1.1,0.9-2,2-2c1.1,0,2,0.9,2,2v0C67.9,18.2,67,19.1,65.9,19.1z"/>
			<path class="st15" d="M48.5,54h3.1v8.3h-3.1V54z"/>
			<path class="st15" d="M48.5,65.3h3.1V71h-3.1V65.3z"/>
			<path class="st15" d="M48.4,26.2l0.2,0.1v24.2h2.8V26.3l0.2-0.1c1.9-0.7,3.2-2.5,3.2-4.5c0-2.7-2.1-4.8-4.8-4.8c0,0,0,0,0,0
				c-1.3,0-2.5,0.5-3.4,1.4c-0.9,0.9-1.4,2.1-1.4,3.4C45.2,23.7,46.5,25.5,48.4,26.2z M50,19.7c1.1,0,2,0.9,2,2c0,1.1-0.9,2-2,2
				c-1.1,0-2-0.9-2-2C48,20.6,48.9,19.7,50,19.7z"/>
			<path class="st15" d="M32.5,20.4l0.2,0.1v3.9c0,0.5,0.2,0.9,0.6,1.2l4.5,3v13.7h2.8V27.9c0-0.5-0.2-0.9-0.6-1.2l-4.5-3v-3.2
				l0.2-0.1c1.2-0.4,2.2-1.3,2.7-2.5c0.5-1.2,0.6-2.5,0.2-3.7c-0.9-2.5-3.6-3.8-6.1-2.9c-1.9,0.7-3.2,2.5-3.2,4.5
				C29.3,17.9,30.6,19.8,32.5,20.4z M34.1,13.9c1.1,0,2,0.9,2,2v0c0,1.1-0.9,2-2,2s-2-0.9-2-2S33,13.9,34.1,13.9z"/>
			<rect x="59.4" y="46.4" class="st15" width="2.8" height="4"/>
			<rect x="37.9" y="46.4" class="st15" width="2.8" height="4"/>
		</g>
	</g>
</g>
<g id="Layer_11" class="st0">
	<g class="st1">
		<defs>
			<rect id="SVGID_00000103975765186781534960000002490650236700905632_" width="100" height="100"/>
		</defs>
		<clipPath id="SVGID_00000181045285831862713210000013101138812271457705_">
			<use xlink:href="#SVGID_00000103975765186781534960000002490650236700905632_"  style="overflow:visible;"/>
		</clipPath>
		<g style="clip-path:url(#SVGID_00000181045285831862713210000013101138812271457705_);">
			<rect x="58.1" y="61.7" class="st4" width="4" height="4.6"/>
			<g>
				<g>
					<path class="st17" d="M95.7,87.9l-7.8-28.5c-0.3-0.9-1.1-1.5-2-1.5c0,0,0,0,0,0H68.2v4.7h16.3l6.2,23.7H9.4L18,62.7h15.9V58
						H16.6c0,0,0,0,0,0c-0.9,0-1.6,0.6-2,1.5L4.3,87.8c-0.4,1.2,0,2.5,1.1,3.1C5.7,91,6,91.1,6.3,91.1h87.4c1.2,0,2.1-1.1,2.1-2.4
						C95.8,88.4,95.8,88.1,95.7,87.9z"/>
					<path class="st17" d="M33.9,72.4V68H21.8c-0.8,0-1.6,0.6-1.8,1.4l-3.8,10.9c-0.4,1.1,0.1,2.3,1.1,2.8c0.2,0.1,0.5,0.2,0.7,0.2
						h63.7c1.1,0,2-1,2-2.2c0-0.3,0-0.5-0.1-0.7l-2.1-11.2c-0.3-0.9-1-1.4-1.8-1.4H68.5v4.4h9.7l0.9,6.7H20.8l2.3-6.5H33.9z"/>
				</g>
				<g>
					<rect x="58.1" y="49.3" class="st4" width="4" height="11.1"/>
					<rect x="37.9" y="54.7" class="st4" width="4" height="12"/>
					<rect x="37.9" y="49.5" class="st4" width="4" height="3.7"/>
					<path class="st4" d="M69.7,13.3c-0.9-2.6-3.9-4-6.5-3.1c-2,0.7-3.4,2.7-3.4,4.8c0,2.1,1.3,4,3.2,4.7v2.3l-4,2.7
						c-0.5,0.4-0.8,0.9-0.8,1.6v13.2H62V27.3l4-2.7c0.5-0.4,0.8-0.9,0.8-1.6v-3.3c1.2-0.5,2.2-1.4,2.7-2.5
						C70.1,16,70.2,14.6,69.7,13.3z M66.3,15.1c0,0.7-0.6,1.3-1.3,1.3s-1.3-0.6-1.3-1.3c0-0.7,0.6-1.3,1.3-1.3
						C65.7,13.7,66.3,14.3,66.3,15.1z"/>
					<rect x="48" y="49.3" class="st4" width="4" height="9"/>
					<rect x="48" y="60" class="st4" width="4" height="6.4"/>
					<path class="st4" d="M50,14.3c-1.4,0-2.6,0.5-3.6,1.5c-1,1-1.5,2.2-1.5,3.6c0,2.1,1.3,4,3.2,4.8v23h3.8v-23
						c1.9-0.8,3.2-2.6,3.2-4.7C55.1,16.6,52.9,14.3,50,14.3z M51.4,19.4c0,0.7-0.6,1.3-1.3,1.3c-0.7,0-1.3-0.6-1.3-1.3
						c0-0.7,0.6-1.3,1.3-1.3C50.8,18.1,51.4,18.7,51.4,19.4z"/>
					<path class="st4" d="M38,39.5h3.8V25.2c0-0.6-0.3-1.2-0.8-1.6l-4-2.7v-2.3c1.2-0.5,2.2-1.4,2.7-2.5c0.6-1.2,0.7-2.6,0.2-3.9
						c-0.5-1.3-1.4-2.3-2.6-2.9c-1.2-0.6-2.6-0.7-3.9-0.2c-2,0.7-3.4,2.7-3.4,4.8c0,2.1,1.3,4,3.2,4.7V22c0,0.6,0.3,1.2,0.8,1.6
						l4,2.7V39.5z M35.1,15.3c-0.7,0-1.3-0.6-1.3-1.3c0-0.7,0.6-1.3,1.3-1.3c0.7,0,1.3,0.6,1.3,1.3C36.4,14.7,35.8,15.3,35.1,15.3z"
						/>
					<rect x="58.2" y="42.1" class="st4" width="3.8" height="4.9"/>
					<rect x="38" y="42.1" class="st4" width="3.8" height="4.9"/>
				</g>
			</g>
		</g>
	</g>
</g>
<g id="Layer_11_copy" class="st0">
	<g class="st1">
		<defs>
			<rect id="SVGID_00000119826375119251763010000007697665118259705504_" width="100" height="100"/>
		</defs>
		<clipPath id="SVGID_00000035488398428759333350000013349868927490216334_">
			<use xlink:href="#SVGID_00000119826375119251763010000007697665118259705504_"  style="overflow:visible;"/>
		</clipPath>
		<g style="clip-path:url(#SVGID_00000035488398428759333350000013349868927490216334_);">
			<rect x="58.1" y="57.9" class="st4" width="4" height="12.3"/>
			<g>
				<g>
					<path class="st17" d="M95.8,87.9L88,59.4c-0.3-0.9-1.1-1.5-2-1.5c0,0,0,0,0,0H67.1v4.7h17.5l6.2,23.7H9.5l8.6-23.7H33V58H16.7
						c0,0,0,0,0,0c-0.9,0-1.6,0.6-2,1.5L4.4,87.8c-0.4,1.2,0,2.5,1.1,3.1c0.3,0.1,0.6,0.2,0.9,0.2h87.4c1.2,0,2.1-1.1,2.1-2.4
						C95.9,88.4,95.9,88.1,95.8,87.9z"/>
				</g>
				<g>
					<rect x="58.1" y="49.3" class="st4" width="4" height="7.3"/>
					<rect x="37.9" y="54.7" class="st4" width="4" height="15.5"/>
					<rect x="37.9" y="49.5" class="st4" width="4" height="3.7"/>
					<path class="st4" d="M69.7,13.3c-0.9-2.6-3.9-4-6.5-3.1c-2,0.7-3.4,2.7-3.4,4.8c0,2.1,1.3,4,3.2,4.7v2.3l-4,2.7
						c-0.5,0.4-0.8,0.9-0.8,1.6v13.2H62V27.3l4-2.7c0.5-0.4,0.8-0.9,0.8-1.6v-3.3c1.2-0.5,2.2-1.4,2.7-2.5
						C70.1,16,70.2,14.6,69.7,13.3z M66.3,15.1c0,0.7-0.6,1.3-1.3,1.3s-1.3-0.6-1.3-1.3c0-0.7,0.6-1.3,1.3-1.3
						C65.7,13.7,66.3,14.3,66.3,15.1z"/>
					<rect x="48" y="49.3" class="st4" width="4" height="10.1"/>
					<rect x="48" y="61.2" class="st4" width="4" height="9.1"/>
					<path class="st4" d="M50,14.3c-1.4,0-2.6,0.5-3.6,1.5c-1,1-1.5,2.2-1.5,3.6c0,2.1,1.3,4,3.2,4.8v23h3.8v-23
						c1.9-0.8,3.2-2.6,3.2-4.7C55.1,16.6,52.9,14.3,50,14.3z M51.4,19.4c0,0.7-0.6,1.3-1.3,1.3c-0.7,0-1.3-0.6-1.3-1.3
						c0-0.7,0.6-1.3,1.3-1.3C50.8,18.1,51.4,18.7,51.4,19.4z"/>
					<path class="st4" d="M38,39.5h3.8V25.2c0-0.6-0.3-1.2-0.8-1.6l-4-2.7v-2.3c1.2-0.5,2.2-1.4,2.7-2.5c0.6-1.2,0.7-2.6,0.2-3.9
						c-0.5-1.3-1.4-2.3-2.6-2.9c-1.2-0.6-2.6-0.7-3.9-0.2c-2,0.7-3.4,2.7-3.4,4.8c0,2.1,1.3,4,3.2,4.7V22c0,0.6,0.3,1.2,0.8,1.6
						l4,2.7V39.5z M35.1,15.3c-0.7,0-1.3-0.6-1.3-1.3c0-0.7,0.6-1.3,1.3-1.3c0.7,0,1.3,0.6,1.3,1.3C36.4,14.7,35.8,15.3,35.1,15.3z"
						/>
					<rect x="58.2" y="42.1" class="st4" width="3.8" height="4.9"/>
					<rect x="38" y="42.1" class="st4" width="3.8" height="4.9"/>
				</g>
			</g>
		</g>
	</g>
</g>
<g id="Security" class="st0">
	<g class="st1">
		<defs>
			<rect id="SVGID_00000080199748309822049250000011578338291810887871_" width="100" height="100"/>
		</defs>
		<clipPath id="SVGID_00000118388730845435341870000000554986561214083204_">
			<use xlink:href="#SVGID_00000080199748309822049250000011578338291810887871_"  style="overflow:visible;"/>
		</clipPath>
		<g style="clip-path:url(#SVGID_00000118388730845435341870000000554986561214083204_);">
			<path class="st20" d="M76.6,14.1c0.4-0.5,0.2-1.3-0.3-1.6C68.6,7,59.5,4.2,50,4.2c-5.9,0-11.7,1.1-17.2,3.3
				c-0.6,0.2-0.9,0.9-0.6,1.5c0.2,0.6,0.9,0.9,1.5,0.6C38.9,7.6,44.4,6.5,50,6.5c9,0,17.7,2.7,25,7.9c0.2,0.1,0.4,0.2,0.7,0.2
				C76.1,14.6,76.4,14.4,76.6,14.1z"/>
			<path class="st20" d="M95.8,50c0-9.2-2.7-18-7.8-25.6c-0.4-0.5-1.1-0.7-1.6-0.3c-0.5,0.4-0.7,1.1-0.3,1.6
				c4.8,7.2,7.4,15.6,7.4,24.3c0,9.4-3,18.4-8.6,25.9c-0.9-0.5-1.9-0.8-3-0.8c-3.4,0-6.2,2.8-6.2,6.2c0,3.4,2.8,6.2,6.2,6.2
				c3.4,0,6.2-2.8,6.2-6.2c0-1.5-0.5-2.9-1.4-4C92.7,69.4,95.8,60,95.8,50z M81.9,85.3c-2.2,0-3.9-1.8-3.9-3.9s1.8-3.9,3.9-3.9
				s3.9,1.8,3.9,3.9S84.1,85.3,81.9,85.3z"/>
			<path class="st20" d="M66.3,90.3c-5.2,2.1-10.7,3.2-16.3,3.2C26,93.5,6.5,74,6.5,50c0-9.4,3-18.4,8.6-25.9c0.9,0.5,1.9,0.8,3,0.8
				c3.4,0,6.2-2.8,6.2-6.2s-2.8-6.2-6.2-6.2s-6.2,2.8-6.2,6.2c0,1.5,0.5,2.9,1.4,4C7.3,30.6,4.2,40,4.2,50
				c0,25.3,20.6,45.8,45.8,45.8c5.9,0,11.7-1.1,17.2-3.3c0.6-0.2,0.9-0.9,0.6-1.5C67.6,90.4,66.9,90.1,66.3,90.3z M18.1,14.7
				c2.2,0,3.9,1.8,3.9,3.9s-1.8,3.9-3.9,3.9s-3.9-1.8-3.9-3.9S15.9,14.7,18.1,14.7z"/>
			<path class="st21" d="M50,46.6c-3.5,0-6.3,2.8-6.3,6.3c0,1.5,0.5,3,1.5,4.1v5.7c0,2.6,2.2,4.8,4.8,4.8s4.8-2.2,4.8-4.8V57
				c1-1.1,1.5-2.6,1.5-4.1C56.3,49.4,53.5,46.6,50,46.6z M52.8,55.7c-0.2,0.2-0.3,0.5-0.3,0.8v6.1c0,1.4-1.1,2.5-2.5,2.5
				c-1.4,0-2.5-1.1-2.5-2.5v-6.1c0-0.3-0.1-0.6-0.3-0.8C46.4,55,46,54,46,52.9c0-2.2,1.8-4,4-4c2.2,0,4,1.8,4,4
				C54,54,53.6,55,52.8,55.7z"/>
			<path class="st21" d="M66,39.5v-4.2c0-8.8-7.2-16-16-16c-8.8,0-16,7.2-16,16v4.2c-2.3,0.8-4,3-4,5.6V69c0,3.3,2.7,5.9,5.9,5.9
				h28.3c3.3,0,5.9-2.7,5.9-5.9V45.1C70,42.5,68.4,40.3,66,39.5z M36.3,35.3c0-7.6,6.2-13.7,13.7-13.7s13.7,6.2,13.7,13.7v3.9h-5.1
				v-3.9c0-4.7-3.9-8.6-8.6-8.6s-8.6,3.9-8.6,8.6v3.9h-5.1V35.3z M43.7,39.2v-3.9c0-3.5,2.8-6.3,6.3-6.3c3.5,0,6.3,2.8,6.3,6.3v3.9
				H43.7z M67.7,69c0,2-1.6,3.6-3.6,3.6H35.9c-2,0-3.6-1.6-3.6-3.6V45.1c0-2,1.6-3.6,3.6-3.6h6.7h14.9h6.7c2,0,3.6,1.6,3.6,3.6V69z"
				/>
			<path class="st20" d="M81.9,19.9c0.3,0,0.6-0.1,0.8-0.3c0.2-0.2,0.3-0.5,0.3-0.8c0-0.3-0.1-0.6-0.3-0.8c-0.1,0-0.1-0.1-0.2-0.1
				c-0.1,0-0.1-0.1-0.2-0.1c-0.1,0-0.1,0-0.2-0.1c-0.4-0.1-0.8,0-1.1,0.3c-0.2,0.2-0.3,0.5-0.3,0.8c0,0.3,0.1,0.6,0.3,0.8
				C81.3,19.8,81.6,19.9,81.9,19.9z"/>
		</g>
	</g>
</g>
<g id="Digital-Services" class="st0">
	<g class="st1">
		<defs>
			<rect id="SVGID_00000135683595287323909740000002828890078440084927_" x="0.1" y="0.6" width="100" height="100"/>
		</defs>
		<clipPath id="SVGID_00000037684835397896586600000010961199957830934946_">
			<use xlink:href="#SVGID_00000135683595287323909740000002828890078440084927_"  style="overflow:visible;"/>
		</clipPath>
		<g style="clip-path:url(#SVGID_00000037684835397896586600000010961199957830934946_);">
			<path class="st4" d="M86.7,68.5c-0.2-0.5-0.7-0.8-1.2-0.8H67.3v2.6h17.3l0.1,0.1l8,18.8H7.6l8.1-18.9H33v-2.6H14.8
				c-0.5,0-1,0.3-1.2,0.8L4.4,90c-0.3,0.7,0,1.4,0.7,1.7c0.2,0.1,0.3,0.1,0.5,0.1h89.1c0.7,0,1.3-0.6,1.3-1.3c0-0.2,0-0.3-0.1-0.5
				L86.7,68.5z"/>
			<g>
				<rect x="45.8" y="47.9" class="st17" width="2.6" height="13.6"/>
				<rect x="45.8" y="65.1" class="st4" width="2.6" height="2.6"/>
				<line class="st17" x1="48.4" y1="65.1" x2="48.4" y2="67.7"/>
				<rect x="45.8" y="71.3" class="st17" width="2.6" height="10.5"/>
				<rect x="51.9" y="47.9" class="st4" width="2.6" height="15.2"/>
				<rect x="51.9" y="66.6" class="st17" width="2.6" height="15.1"/>
				<rect x="58.1" y="51" class="st17" width="2.6" height="18.2"/>
				<rect x="39.6" y="72.8" class="st17" width="2.6" height="2.6"/>
				<rect x="39.6" y="49.5" class="st4" width="2.6" height="19.8"/>
				<rect x="58.1" y="72.8" class="st4" width="2.6" height="2.6"/>
			</g>
			<path class="st4" d="M18.8,74.9h11.1v-2.6h-12c-0.5,0-1,0.3-1.2,0.8l-4.6,12.3c-0.1,0.3-0.1,0.7,0,1c0.1,0.3,0.4,0.6,0.7,0.7
				c0.1,0.1,0.3,0.1,0.5,0.1H87c0.7,0,1.3-0.6,1.3-1.3c0-0.2,0-0.3-0.1-0.5l-4.6-12.3c-0.2-0.5-0.7-0.8-1.2-0.8h-12v2.6h11.1
				l0.1,0.2l3.6,9.5h-70L18.8,74.9z"/>
			<path class="st17" d="M61.7,19.7v-3.1l0.2-0.1c0.9-0.3,1.7-1,2.1-1.9c0.4-0.9,0.5-1.9,0.1-2.8c-0.7-1.9-2.8-2.9-4.7-2.3
				c-1.5,0.5-2.5,1.9-2.5,3.5c0,1.6,1,3,2.5,3.5l0.2,0.1v2.5l-3.5,2.3c-0.3,0.2-0.5,0.5-0.5,0.9v17.2h2.2V22.9l3.5-2.3
				C61.6,20.4,61.7,20.1,61.7,19.7z M60.7,14.7c-0.9,0-1.6-0.7-1.6-1.6c0-0.9,0.7-1.6,1.6-1.6c0.9,0,1.6,0.7,1.6,1.6v0
				C62.2,14,61.5,14.7,60.7,14.7z"/>
			<path class="st17" d="M48.9,16.8l0.2,0.1v26.8h2.2V16.9l0.2-0.1c1.5-0.5,2.5-1.9,2.5-3.5c0-2.1-1.7-3.7-3.7-3.7c0,0,0,0,0,0
				c-1,0-1.9,0.4-2.6,1.1c-0.7,0.7-1.1,1.6-1.1,2.6C46.4,14.9,47.4,16.3,48.9,16.8z M50.1,11.8c0.9,0,1.6,0.7,1.6,1.6
				c0,0.9-0.7,1.6-1.6,1.6c-0.9,0-1.6-0.7-1.6-1.6C48.5,12.5,49.2,11.8,50.1,11.8z"/>
			<path class="st17" d="M38.3,16.6l0.2,0.1v3.1c0,0.4,0.2,0.7,0.5,0.9l3.5,2.3v16.6h2.2V22.3c0-0.4-0.2-0.7-0.5-0.9l-3.5-2.3v-2.5
				l0.2-0.1c0.9-0.3,1.7-1,2.1-1.9c0.4-0.9,0.5-1.9,0.1-2.8c-0.7-1.9-2.8-2.9-4.7-2.3c-1.5,0.5-2.5,1.9-2.5,3.5
				C35.8,14.7,36.8,16.1,38.3,16.6z M39.5,11.5c0.9,0,1.6,0.7,1.6,1.6v0c0,0.9-0.7,1.6-1.6,1.6S38,14,38,13.1
				C38,12.2,38.7,11.5,39.5,11.5z"/>
			<rect x="55.6" y="42.6" class="st17" width="2.2" height="2.2"/>
			<rect x="42.4" y="42.6" class="st17" width="2.2" height="2.2"/>
		</g>
	</g>
</g>
<g id="Enterprise_Services" class="st0">
	<g class="st1">
		<defs>
			<rect id="SVGID_00000101806782782760201290000010446451893988519296_" y="0" width="100" height="100"/>
		</defs>
		<clipPath id="SVGID_00000051377937849563721710000003137358280725761212_">
			<use xlink:href="#SVGID_00000101806782782760201290000010446451893988519296_"  style="overflow:visible;"/>
		</clipPath>
		<g style="clip-path:url(#SVGID_00000051377937849563721710000003137358280725761212_);">
			<path class="st21" d="M85.9,58H70.4V38.1c0-0.4-0.3-0.8-0.7-1L60,34.3v-8.2c0-0.6-0.5-1-1-1H41c-0.6,0-1,0.5-1,1v8.2l-9.7,2.8
				c-0.4,0.1-0.7,0.5-0.7,1V58H14.2c-0.6,0-1,0.5-1,1c0,2.4,0.2,4.8,0.7,7.1c0.1,0.5,0.5,0.8,1,0.8h2.3c1.1,0,2,0.8,2.3,1.8
				c0.5,1.7,1.2,3.4,2.1,5c0.5,0.9,0.4,2.1-0.4,2.9l-1.7,1.7c-0.3,0.3-0.4,0.9-0.1,1.3c2.7,4,6.1,7.4,10,10c0.4,0.3,0.9,0.2,1.3-0.1
				l1.7-1.7c0.5-0.4,1.1-0.7,1.7-0.7c0.4,0,0.8,0.1,1.2,0.3c1.6,0.8,3.3,1.5,5,2.1c1,0.3,1.8,1.2,1.8,2.3v2.3c0,0.5,0.3,0.9,0.8,1
				c4.7,0.9,9.5,0.9,14.2,0c0.5-0.1,0.8-0.5,0.8-1v-2.3c0-1.1,0.8-2,1.8-2.3c1.7-0.5,3.4-1.2,5-2.1c0.9-0.5,2.1-0.4,2.9,0.3l1.7,1.7
				c0.3,0.3,0.9,0.4,1.3,0.1c4-2.7,7.4-6.1,10-10c0.3-0.4,0.2-0.9-0.1-1.3l-1.7-1.7c-0.7-0.8-0.9-2-0.3-2.9c0.8-1.6,1.5-3.3,2.1-5
				c0.3-1,1.2-1.8,2.3-1.8h2.3c0.5,0,0.9-0.3,1-0.8c0.5-2.3,0.7-4.7,0.7-7.1C86.9,58.4,86.4,58,85.9,58z M60,36.4l8.4,2.4V58H60
				V36.4z M42.1,27.1H58V58h-4v-6.5c0-0.3-0.1-0.5-0.3-0.7c-0.2-0.2-0.4-0.3-0.7-0.3h-6h0c-0.6,0-1,0.5-1,1V58h-4V27.1z M52,52.5V58
				h-4v-5.4H52z M31.6,38.8l8.4-2.4V58h-8.4V38.8z M71.1,60l0,0.5C70.3,71.6,61,80.1,50,80.1c-0.5,0-1,0-1.5-0.1
				C38.1,79.3,29.7,70.9,29,60.5l0-0.5H71.1z M84.8,60.5c-0.1,1.3-0.2,2.7-0.4,4l-0.1,0.4h-1.5c-2,0-3.7,1.3-4.2,3.2l0,0
				c-0.5,1.6-1.2,3.2-2,4.7c-0.9,1.7-0.6,3.9,0.7,5.3l1.1,1.1l-0.2,0.3c-2.2,3-4.8,5.6-7.8,7.8l-0.3,0.2l-1.1-1.1
				c-1.4-1.4-3.5-1.7-5.2-0.7c-1.5,0.8-3.1,1.4-4.7,2c-1.9,0.6-3.2,2.3-3.2,4.2v1.5l-0.4,0.1c-1.8,0.3-3.7,0.4-5.5,0.4
				c-1.8,0-3.7-0.1-5.5-0.4l-0.4-0.1v-1.5c0-2-1.3-3.7-3.2-4.2c-1.6-0.5-3.2-1.2-4.7-2c-1.7-0.9-3.9-0.6-5.3,0.7l-1.1,1.1l-0.3-0.2
				c-3-2.2-5.6-4.8-7.8-7.8l-0.2-0.3l1.1-1.1c1.4-1.4,1.7-3.5,0.7-5.2c-0.8-1.5-1.4-3.1-2-4.7c-0.6-1.9-2.3-3.2-4.2-3.2h-1.5
				l-0.1-0.4c-0.2-1.3-0.3-2.6-0.4-4l0-0.5h11.7l0,0.5c0.8,12.7,11.8,22.4,24.5,21.6c11.6-0.7,20.9-10,21.6-21.6l0-0.5h11.7
				L84.8,60.5z"/>
			<path class="st6" d="M48.7,11.9L49,12v10.6h2V12l0.3-0.1c2.1-0.7,3.2-3,2.4-5.1c-0.7-2.1-3-3.2-5.1-2.4c-1,0.4-1.8,1.1-2.3,2
				c-0.5,1-0.5,2-0.2,3.1C46.6,10.6,47.5,11.5,48.7,11.9z M50,6.2L50,6.2c1.1,0,2,0.9,2,2s-0.9,2-2,2c-1.1,0-2-0.9-2-2
				C48,7.1,48.9,6.2,50,6.2z"/>
			<path class="st6" d="M72.4,21.1c2.2,0,4-1.8,4-4s-1.8-4-4-4s-4,1.8-4,4c0,0.6,0.1,1.2,0.4,1.7l0.2,0.3l-3.2,3.2
				c-0.2,0.2-0.3,0.4-0.3,0.7v10h2v-9.6l2.9-2.9l0.3,0.2C71.2,21,71.8,21.1,72.4,21.1z M72.4,15.2L72.4,15.2c1.1,0,2,0.9,2,2
				c0,1.1-0.9,2-2,2c-1.1,0-2-0.9-2-2C70.4,16.1,71.3,15.2,72.4,15.2z"/>
			<path class="st6" d="M27.6,21.1c0.6,0,1.2-0.1,1.7-0.4l0.3-0.2l2.9,2.9v9.6h2v-10c0-0.3-0.1-0.5-0.3-0.7L31,19.2l0.2-0.3
				c0.3-0.5,0.4-1.1,0.4-1.7c0-2.2-1.8-4-4-4c-2.2,0-4,1.8-4,4C23.6,19.4,25.4,21.1,27.6,21.1z M27.6,15.2c1.1,0,2,0.9,2,2
				c0,1.1-0.9,2-2,2h0c-1.1,0-2-0.9-2-2C25.6,16.1,26.5,15.2,27.6,15.2z"/>
			<path class="st6" d="M12.7,37.6c1,0,2-0.4,2.8-1.1l0.2-0.2l4.9,2.5v10.8h2V38.1c0-0.4-0.2-0.7-0.6-0.9l-5.5-2.8l0.1-0.4
				c0-0.2,0-0.3,0-0.5c0-2.2-1.8-4-4-4h0c0,0,0,0,0,0c-1.1,0-2.1,0.4-2.8,1.2c-0.8,0.8-1.2,1.8-1.2,2.8s0.4,2.1,1.2,2.8
				C10.6,37.2,11.6,37.6,12.7,37.6C12.6,37.6,12.6,37.6,12.7,37.6z M10.7,33.6c0-1.1,0.9-2,2-2s2,0.9,2,2c0,1.1-0.9,2-2,2h0
				C11.6,35.6,10.7,34.7,10.7,33.6z"/>
			<rect x="20.6" y="53.5" class="st17" width="2" height="2"/>
			<path class="st6" d="M87.3,29.6c-2.2,0-4,1.8-4,4c0,0.1,0,0.3,0,0.5l0.1,0.4l-5.5,2.8c-0.3,0.2-0.6,0.5-0.6,0.9v11.5h2V38.7
				l4.9-2.5l0.2,0.2c0.8,0.7,1.7,1.1,2.8,1.1c0,0,0,0,0.1,0c1.1,0,2.1-0.4,2.8-1.2c0.7-0.8,1.1-1.7,1.1-2.8v0
				C91.3,31.4,89.6,29.6,87.3,29.6z M87.3,35.6c-1.1,0-2-0.9-2-2v0c0-1.1,0.9-2,2-2c1.1,0,2,0.9,2,2C89.3,34.7,88.4,35.6,87.3,35.6z
				"/>
			<rect x="77.4" y="53.5" class="st6" width="2" height="2"/>
			<rect x="46" y="32.6" class="st4" width="8" height="2"/>
			<rect x="46" y="38.5" class="st4" width="8" height="2"/>
			<rect x="46" y="44.5" class="st4" width="8" height="2"/>
			<rect x="62.4" y="41.5" class="st4" width="3.5" height="2"/>
			<rect x="62.4" y="47.5" class="st4" width="3.5" height="2"/>
			<rect x="34.1" y="41.5" class="st4" width="3.5" height="2"/>
			<rect x="34.1" y="47.5" class="st4" width="3.5" height="2"/>
		</g>
	</g>
</g>
<g id="Enterprise_Services_copy" class="st0">
	<g class="st1">
		<defs>
			<rect id="SVGID_00000162324063087425707800000012047826304433180574_" y="0" width="100" height="100"/>
		</defs>
		<clipPath id="SVGID_00000061445284794956839990000016814535217501671843_">
			<use xlink:href="#SVGID_00000162324063087425707800000012047826304433180574_"  style="overflow:visible;"/>
		</clipPath>
		<g style="clip-path:url(#SVGID_00000061445284794956839990000016814535217501671843_);">
			<g>
				<path class="st4" d="M85.9,58H70.4V38.1c0-0.4-0.3-0.8-0.7-1L60,34.3v-8.2c0-0.6-0.5-1-1-1H41c-0.6,0-1,0.5-1,1v8.2l-9.7,2.8
					c-0.4,0.1-0.7,0.5-0.7,1V58H14.2c-0.6,0-1,0.5-1,1c0,2.4,0.2,4.8,0.7,7.1c0.1,0.5,0.5,0.8,1,0.8h2.3c1.1,0,2,0.8,2.3,1.8
					c0.5,1.7,1.2,3.4,2.1,5c0.5,0.9,0.4,2.1-0.4,2.9l-1.7,1.7c-0.3,0.3-0.4,0.9-0.1,1.3c2.7,4,6.1,7.4,10,10
					c0.4,0.3,0.9,0.2,1.3-0.1l1.7-1.7c0.5-0.4,1.1-0.7,1.7-0.7c0.4,0,0.8,0.1,1.2,0.3c1.6,0.8,3.3,1.5,5,2.1c1,0.3,1.8,1.2,1.8,2.3
					v2.3c0,0.5,0.3,0.9,0.8,1c4.7,0.9,9.5,0.9,14.2,0c0.5-0.1,0.8-0.5,0.8-1v-2.3c0-1.1,0.8-2,1.8-2.3c1.7-0.5,3.4-1.2,5-2.1
					c0.9-0.5,2.1-0.4,2.9,0.3l1.7,1.7c0.3,0.3,0.9,0.4,1.3,0.1c4-2.7,7.4-6.1,10-10c0.3-0.4,0.2-0.9-0.1-1.3l-1.7-1.7
					c-0.7-0.8-0.9-2-0.3-2.9c0.8-1.6,1.5-3.3,2.1-5c0.3-1,1.2-1.8,2.3-1.8h2.3c0.5,0,0.9-0.3,1-0.8c0.5-2.3,0.7-4.7,0.7-7.1
					C86.9,58.4,86.4,58,85.9,58z M60,36.4l8.4,2.4V58H60V36.4z M42.1,27.1H58V58h-4v-6.5c0-0.3-0.1-0.5-0.3-0.7
					c-0.2-0.2-0.4-0.3-0.7-0.3h-6h0c-0.6,0-1,0.5-1,1V58h-4V27.1z M52,52.5V58h-4v-5.4H52z M31.6,38.8l8.4-2.4V58h-8.4V38.8z
					 M71.1,60l0,0.5C70.3,71.6,61,80.1,50,80.1c-0.5,0-1,0-1.5-0.1C38.1,79.3,29.7,70.9,29,60.5l0-0.5H71.1z M84.8,60.5
					c-0.1,1.3-0.2,2.7-0.4,4l-0.1,0.4h-1.5c-2,0-3.7,1.3-4.2,3.2l0,0c-0.5,1.6-1.2,3.2-2,4.7c-0.9,1.7-0.6,3.9,0.7,5.3l1.1,1.1
					l-0.2,0.3c-2.2,3-4.8,5.6-7.8,7.8l-0.3,0.2l-1.1-1.1c-1.4-1.4-3.5-1.7-5.2-0.7c-1.5,0.8-3.1,1.4-4.7,2c-1.9,0.6-3.2,2.3-3.2,4.2
					v1.5l-0.4,0.1c-1.8,0.3-3.7,0.4-5.5,0.4c-1.8,0-3.7-0.1-5.5-0.4l-0.4-0.1v-1.5c0-2-1.3-3.7-3.2-4.2c-1.6-0.5-3.2-1.2-4.7-2
					c-1.7-0.9-3.9-0.6-5.3,0.7l-1.1,1.1l-0.3-0.2c-3-2.2-5.6-4.8-7.8-7.8l-0.2-0.3l1.1-1.1c1.4-1.4,1.7-3.5,0.7-5.2
					c-0.8-1.5-1.4-3.1-2-4.7c-0.6-1.9-2.3-3.2-4.2-3.2h-1.5l-0.1-0.4c-0.2-1.3-0.3-2.6-0.4-4l0-0.5h11.7l0,0.5
					c0.8,12.7,11.8,22.4,24.5,21.6c11.6-0.7,20.9-10,21.6-21.6l0-0.5h11.7L84.8,60.5z"/>
				<path class="st4" d="M50,96.8c-2.4,0-4.9-0.2-7.3-0.7c-0.9-0.2-1.6-1-1.6-2v-2.3c0-0.6-0.5-1.2-1-1.3c-1.8-0.6-3.6-1.3-5.2-2.2
					c-0.6-0.4-1.3-0.2-1.8,0.2l-1.6,1.6c-0.7,0.7-1.7,0.8-2.5,0.2c-4.1-2.8-7.6-6.2-10.3-10.3c-0.5-0.8-0.4-1.9,0.2-2.5l1.7-1.7
					c0.4-0.4,0.5-1.1,0.2-1.7c-0.9-1.7-1.6-3.4-2.2-5.2c-0.2-0.7-0.7-1.1-1.4-1.1h-2.3c-1,0-1.8-0.7-2-1.6c-0.5-2.4-0.7-4.8-0.7-7.3
					c0-1.1,0.9-2,2-2h14.4V38.1c0-0.9,0.6-1.7,1.5-1.9l9-2.6v-7.4c0-1.1,0.9-2,2-2H59c1.1,0,2,0.9,2,2v7.4l9,2.6
					c0.9,0.2,1.5,1,1.5,1.9V57h14.4c1.1,0,2,0.9,2,2c0,2.4-0.2,4.9-0.7,7.3c-0.2,0.9-1,1.6-2,1.6h-2.3c-0.6,0-1.2,0.5-1.3,1.1
					c-0.6,1.8-1.3,3.6-2.2,5.2c-0.3,0.6-0.3,1.3,0.2,1.8l1.6,1.6c0.7,0.7,0.8,1.8,0.2,2.5c-2.7,4.1-6.2,7.6-10.3,10.3
					c-0.8,0.5-1.9,0.4-2.5-0.2l-1.7-1.7c-0.4-0.4-1.1-0.5-1.7-0.2c-1.7,0.9-3.4,1.6-5.2,2.2c-0.7,0.2-1.1,0.7-1.1,1.4v2.3
					c0,1-0.7,1.8-1.6,2C54.9,96.6,52.4,96.8,50,96.8z M43.4,94.2c4.5,0.9,9.1,0.9,13.5,0l0-2.3c0-1.5,1.1-2.9,2.5-3.3
					c1.6-0.5,3.2-1.2,4.8-2c1.3-0.7,2.9-0.5,4,0.5l1.7,1.7c0,0,0,0,0,0l-1.7-1.7c-1.1-1.1-2.7-1.3-4.1-0.6c-1.6,0.8-3.2,1.5-4.9,2
					c-1.5,0.4-2.5,1.8-2.5,3.3v2.3l-1.2,0.2c-3.7,0.6-7.5,0.6-11.3,0L43.4,94.2z M34.1,86.1c0.6,0,1.2,0.2,1.7,0.5
					c1.5,0.8,3.1,1.5,4.8,2c1.4,0.4,2.4,1.7,2.5,3.2l0,2.4c0,0,0,0,0,0v-2.3c0-1.5-1-2.8-2.5-3.3c-1.7-0.5-3.3-1.2-4.9-2
					c-1.4-0.7-3-0.5-4.1,0.6L30,88.7L29,88c-3.1-2.2-5.8-4.9-8-8l-0.6-0.8c2.6,3.8,5.8,7,9.6,9.6l1.7-1.7
					C32.4,86.4,33.2,86.1,34.1,86.1z M45.1,92.4c3.2,0.5,6.5,0.5,9.8,0v-0.6c0-2.4,1.6-4.5,3.9-5.2c1.5-0.5,3.1-1.1,4.5-1.9
					c2.1-1.1,4.7-0.8,6.4,0.9l0.5,0.5c2.6-2,5-4.3,6.9-6.9l-0.5-0.5c-1.7-1.7-2.1-4.3-0.9-6.4c0.7-1.4,1.4-3,1.9-4.5
					c0.7-2.3,2.8-3.9,5.2-3.9h0.6c0.1-1,0.2-1.9,0.3-2.9H74c-1,11.9-10.6,21.4-22.5,22.1C38.4,83.9,27,74,26,61h-9.7
					c0.1,1,0.2,1.9,0.3,2.9h0.6c2.4,0,4.5,1.6,5.2,3.9c0.5,1.5,1.1,3.1,1.9,4.5c1.1,2.1,0.8,4.7-0.9,6.4l-0.5,0.5
					c2,2.6,4.3,5,6.9,6.9l0.5-0.5c1.7-1.7,4.3-2.1,6.4-0.9c1.4,0.8,3,1.4,4.5,1.9c2.3,0.7,3.9,2.8,3.9,5.2V92.4z M82.8,65.9
					c-1.5,0-2.8,1-3.3,2.5c-0.5,1.7-1.2,3.3-2,4.9c-0.7,1.4-0.5,3,0.6,4.1l1.7,1.7L79,80c-2.2,3.1-4.9,5.8-8,8l-0.8,0.6
					c3.8-2.6,7-5.8,9.5-9.6l-1.7-1.7c-1.1-1.1-1.3-2.8-0.5-4.1c0.8-1.5,1.5-3.1,2-4.8C80,67,81.3,65.9,82.8,65.9l2.3,0c0,0,0,0,0,0
					H82.8z M14.2,59h13.7l0.1,1.4c0.8,12.2,11.3,21.5,23.5,20.7c11.1-0.7,20-9.6,20.7-20.7l0.1-1.4h13.7c0,0,0,0,0,0l0,0H69.4V38.1
					l-10.5-3v-9l-17.9,0l0,9l-10.4,3l0,20.9L14.2,59C14.2,59,14.2,59,14.2,59z M14.2,59.7c0,2.1,0.3,4.2,0.7,6.2l2.3,0
					c1.5,0,2.9,1.1,3.3,2.6c0.5,1.6,1.2,3.2,2,4.8c0.7,1.3,0.5,2.9-0.5,4L20.2,79c0,0,0,0,0,0l1.7-1.7c1.1-1.1,1.3-2.7,0.6-4.1
					c-0.8-1.6-1.5-3.2-2-4.9c-0.4-1.5-1.8-2.5-3.3-2.5h-2.3l-0.2-1.2c-0.2-1.4-0.4-2.7-0.4-4.1L14.2,59.7z M85.9,59.3l-0.1,1.2
					c-0.1,1.4-0.2,2.7-0.4,4.1l-0.2,1.1C85.6,63.6,85.8,61.5,85.9,59.3z M50,81.1c-0.5,0-1.1,0-1.6-0.1C37.5,80.3,28.7,71.5,28,60.6
					L27.8,59h44.3l-0.1,1.6C71.2,72.1,61.6,81.1,50,81.1z M30,61c1,9.7,8.9,17.4,18.6,18.1C59.5,79.8,69,71.7,70,61H30z M69.4,59H59
					V35.1l10.4,3V59z M61,57h6.4V39.6L61,37.7V57z M59,59h-6v-7.5l-6,0l0,7.5h-6V26.1H59V59z M55,57h2V28.1H43.1V57h2v-5.5
					c0-1.1,0.9-2,2-2h6c0.5,0,1,0.2,1.4,0.6c0.4,0.4,0.6,0.9,0.6,1.4V57z M53,59h-6v-7.4h6V59z M49,57h2v-3.4h-2V57z M41,59H30.6
					V38.1l10.4-3V59z M32.6,57H39V37.7l-6.4,1.8V57z"/>
			</g>
			<g>
				<path class="st17" d="M48.7,11.9L49,12v10.6h2V12l0.3-0.1c2.1-0.7,3.2-3,2.4-5.1c-0.7-2.1-3-3.2-5.1-2.4c-1,0.4-1.8,1.1-2.3,2
					c-0.5,1-0.5,2-0.2,3.1C46.6,10.6,47.5,11.5,48.7,11.9z M50,6.2L50,6.2c1.1,0,2,0.9,2,2s-0.9,2-2,2c-1.1,0-2-0.9-2-2
					C48,7.1,48.9,6.2,50,6.2z"/>
				<path class="st17" d="M51.8,23.4h-3.5V12.6C47,12.1,46,11,45.5,9.7c-0.4-1.2-0.4-2.5,0.2-3.6c0.5-1.1,1.5-2,2.7-2.4
					c2.5-0.9,5.2,0.4,6.1,2.9c0.4,1.2,0.4,2.5-0.2,3.6c-0.5,1.1-1.4,1.9-2.5,2.4V23.4z M49.7,21.9h0.5V11.5l0.8-0.3
					c0.8-0.3,1.5-0.9,1.8-1.7c0.4-0.8,0.4-1.7,0.1-2.5c-0.6-1.7-2.5-2.6-4.1-2c-0.8,0.3-1.5,0.9-1.8,1.7c-0.4,0.8-0.4,1.7-0.1,2.5
					c0.3,0.9,1.1,1.7,2,2l0.8,0.3V21.9z M50,10.9c-1.5,0-2.7-1.2-2.7-2.7c0-1.5,1.2-2.7,2.7-2.7h0c1.5,0,2.7,1.2,2.7,2.7
					C52.7,9.7,51.5,10.9,50,10.9z M50,7c-0.7,0-1.2,0.6-1.2,1.2c0,0.7,0.5,1.2,1.2,1.2s1.2-0.5,1.2-1.2S50.7,7,50,7z"/>
			</g>
			<g>
				<path class="st17" d="M72.4,21.1c2.2,0,4-1.8,4-4s-1.8-4-4-4s-4,1.8-4,4c0,0.6,0.1,1.2,0.4,1.7l0.2,0.3l-3.2,3.2
					c-0.2,0.2-0.3,0.4-0.3,0.7v10h2v-9.6l2.9-2.9l0.3,0.2C71.2,21,71.8,21.1,72.4,21.1z M72.4,15.2L72.4,15.2c1.1,0,2,0.9,2,2
					c0,1.1-0.9,2-2,2c-1.1,0-2-0.9-2-2C70.4,16.1,71.3,15.2,72.4,15.2z"/>
				<path class="st17" d="M68.2,33.8h-3.5V23.1c0-0.5,0.2-0.9,0.5-1.2l2.9-2.9c-0.3-0.6-0.4-1.2-0.4-1.9c0-2.6,2.1-4.8,4.7-4.8
					s4.7,2.1,4.7,4.7s-2.1,4.7-4.7,4.7h0c-0.6,0-1.3-0.1-1.9-0.4l-2.4,2.4V33.8z M66.2,32.3h0.5v-9.1l3.5-3.5l0.8,0.4
					c0.4,0.2,0.9,0.3,1.4,0.3c1.8,0,3.2-1.5,3.2-3.2c0-1.8-1.5-3.2-3.2-3.2c-1.8,0-3.2,1.5-3.2,3.2c0,0.5,0.1,1,0.3,1.4l0.4,0.8
					l-3.6,3.6c0,0-0.1,0.1-0.1,0.2V32.3z M72.4,19.9c-1.5,0-2.7-1.2-2.7-2.7c0-1.5,1.2-2.7,2.7-2.7h0c1.5,0,2.7,1.2,2.7,2.7
					C75.1,18.6,73.9,19.9,72.4,19.9z M72.4,15.9c-0.7,0-1.2,0.6-1.2,1.2c0,0.7,0.6,1.2,1.2,1.2c0.7,0,1.2-0.6,1.2-1.2
					C73.6,16.5,73.1,15.9,72.4,15.9L72.4,15.9z"/>
			</g>
			<g>
				<path class="st17" d="M27.6,21.1c0.6,0,1.2-0.1,1.7-0.4l0.3-0.2l2.9,2.9v9.6h2v-10c0-0.3-0.1-0.5-0.3-0.7L31,19.2l0.2-0.3
					c0.3-0.5,0.4-1.1,0.4-1.7c0-2.2-1.8-4-4-4c-2.2,0-4,1.8-4,4C23.6,19.4,25.4,21.1,27.6,21.1z M27.6,15.2c1.1,0,2,0.9,2,2
					c0,1.1-0.9,2-2,2h0c-1.1,0-2-0.9-2-2C25.6,16.1,26.5,15.2,27.6,15.2z"/>
				<path class="st17" d="M35.3,33.8h-3.5v-10l-2.4-2.4c-0.6,0.3-1.2,0.4-1.9,0.4h0c-2.6,0-4.7-2.1-4.7-4.7s2.1-4.7,4.7-4.7
					c2.6,0,4.7,2.1,4.7,4.7c0,0.6-0.1,1.3-0.4,1.9l2.9,2.9c0.3,0.3,0.5,0.8,0.5,1.2V33.8z M33.3,32.3h0.5v-9.2c0-0.1,0-0.1-0.1-0.2
					l-3.6-3.6l0.4-0.8c0.2-0.4,0.3-0.9,0.3-1.4c0-1.8-1.5-3.2-3.2-3.2c-1.8,0-3.2,1.5-3.2,3.2c0,1.8,1.5,3.2,3.2,3.2
					c0.5,0,1-0.1,1.4-0.3l0.8-0.4l3.5,3.5V32.3z M27.6,19.9c-1.5,0-2.7-1.2-2.7-2.7c0-1.5,1.2-2.7,2.7-2.7s2.7,1.2,2.7,2.7
					C30.3,18.6,29.1,19.9,27.6,19.9z M27.6,15.9c-0.7,0-1.2,0.5-1.2,1.2s0.5,1.2,1.2,1.2c0.7,0,1.2-0.6,1.2-1.2
					C28.8,16.5,28.3,15.9,27.6,15.9z"/>
			</g>
			<g>
				<path class="st17" d="M12.7,37.6c1,0,2-0.4,2.8-1.1l0.2-0.2l4.9,2.5v10.8h2V38.1c0-0.4-0.2-0.7-0.6-0.9l-5.5-2.8l0.1-0.4
					c0-0.2,0-0.3,0-0.5c0-2.2-1.8-4-4-4h0c0,0,0,0,0,0c-1.1,0-2.1,0.4-2.8,1.2c-0.8,0.8-1.2,1.8-1.2,2.8s0.4,2.1,1.2,2.8
					C10.6,37.2,11.6,37.6,12.7,37.6C12.6,37.6,12.6,37.6,12.7,37.6z M10.7,33.6c0-1.1,0.9-2,2-2s2,0.9,2,2c0,1.1-0.9,2-2,2h0
					C11.6,35.6,10.7,34.7,10.7,33.6z"/>
				<path class="st17" d="M23.4,50.3h-3.5V39.1l-4-2c-0.9,0.8-2,1.2-3.2,1.2h0c-1.3,0-2.5-0.5-3.4-1.4c-0.9-0.9-1.4-2.1-1.4-3.4
					s0.5-2.5,1.4-3.4c0.9-0.9,2.1-1.4,3.3-1.4c2.6,0,4.8,2.1,4.8,4.7c0,0.1,0,0.3,0,0.4l5,2.5c0.6,0.3,1,0.9,1,1.6V50.3z M21.4,48.8
					h0.5V38.1c0-0.1-0.1-0.2-0.1-0.2l-6-3l0.1-0.9c0-0.1,0-0.3,0-0.4c0-1.7-1.5-3.2-3.3-3.2c-0.9,0-1.7,0.3-2.3,0.9
					c-0.6,0.6-1,1.4-1,2.3c0,0.9,0.3,1.7,0.9,2.3c0.6,0.6,1.4,1,2.3,1l0,0.8v-0.8c0.8,0,1.7-0.3,2.3-0.9l0.6-0.6l5.8,2.9V48.8z
					 M12.7,36.3c-1.5,0-2.7-1.2-2.7-2.7s1.2-2.7,2.7-2.7c1.5,0,2.7,1.2,2.7,2.7C15.4,35.1,14.2,36.3,12.7,36.3z M12.7,32.4
					c-0.7,0-1.2,0.5-1.2,1.2s0.6,1.2,1.2,1.2c0.7,0,1.2-0.6,1.2-1.2C13.9,32.9,13.3,32.4,12.7,32.4z"/>
			</g>
			<g>
				<path class="st17" d="M87.3,29.6c-2.2,0-4,1.8-4,4c0,0.1,0,0.3,0,0.5l0.1,0.4l-5.5,2.8c-0.3,0.2-0.6,0.5-0.6,0.9v11.5h2V38.7
					l4.9-2.5l0.2,0.2c0.8,0.7,1.7,1.1,2.8,1.1c0,0,0,0,0.1,0c1.1,0,2.1-0.4,2.8-1.2c0.7-0.8,1.1-1.7,1.1-2.8v0
					C91.3,31.4,89.6,29.6,87.3,29.6z M87.3,35.6c-1.1,0-2-0.9-2-2v0c0-1.1,0.9-2,2-2c1.1,0,2,0.9,2,2C89.3,34.7,88.4,35.6,87.3,35.6
					z"/>
				<path class="st17" d="M80.1,50.3h-3.5V38.1c0-0.7,0.4-1.3,1-1.6l5-2.5c0-0.1,0-0.2,0-0.3c0-2.7,2.1-4.8,4.7-4.8s4.7,2.1,4.7,4.7
					c0,1.2-0.5,2.4-1.3,3.3c-0.9,0.9-2.1,1.4-3.3,1.4c0,0,0,0,0,0c-1.2,0-2.4-0.4-3.2-1.2l-4,2V50.3z M78.1,48.8h0.5V38.2l5.8-2.9
					l0.6,0.6c0.6,0.6,1.4,0.9,2.3,0.9c0.9,0,1.7-0.4,2.3-1c0.6-0.6,0.9-1.4,0.9-2.3c0-1.8-1.5-3.3-3.2-3.3c-1.8,0-3.2,1.5-3.2,3.2
					c0,0.1,0,0.2,0,0.3l0.1,0.9l-6,3c-0.1,0-0.1,0.1-0.1,0.2V48.8z M87.3,36.3L87.3,36.3c-1.5,0-2.7-1.2-2.7-2.7
					c0-1.5,1.2-2.7,2.7-2.7c1.5,0,2.7,1.2,2.7,2.7S88.9,36.3,87.3,36.3z M87.3,32.4c-0.7,0-1.2,0.5-1.2,1.2c0,0.7,0.6,1.2,1.2,1.2
					l0,0c0.7,0,1.2-0.5,1.2-1.2S88,32.4,87.3,32.4z"/>
			</g>
			<g>
				<rect x="77.4" y="53.5" class="st17" width="2" height="2"/>
				<path class="st17" d="M80.1,56.2h-3.5v-3.5h3.5V56.2z M78.1,54.8h0.5v-0.5h-0.5V54.8z"/>
			</g>
			<g>
				<rect x="46" y="34.1" class="st4" width="8" height="2"/>
			</g>
			<g>
				<rect x="46" y="41.2" class="st4" width="8" height="2"/>
			</g>
			<g>
				<rect x="62.4" y="46" class="st4" width="3.5" height="2"/>
			</g>
			<g>
				<rect x="34.1" y="46" class="st4" width="3.5" height="2"/>
			</g>
			<g>
				<rect x="20.5" y="53.5" class="st17" width="2" height="2"/>
				<path class="st17" d="M23.3,56.2h-3.5v-3.5h3.5V56.2z M21.2,54.8h0.5v-0.5h-0.5V54.8z"/>
			</g>
		</g>
	</g>
</g>
<g id="Layer_14" class="st0">
	<g class="st1">
		<g id="g15" transform="matrix(1.3333333,0,0,-1.3333333,0,682.66667)">
			<g id="g17">
				<g>
					<g id="g19">
						<g id="g25" transform="translate(504.5,218.5)">
							<path id="path27" class="st25" d="M-437.9,251.6v8.8l-5.4,2.2c-0.5,2-1.3,3.8-2.3,5.6l2.3,5.4l-6.2,6.2l-5.4-2.3
								c-1.7,1-3.6,1.8-5.6,2.3l-2.2,5.4h-8.8l-2.2-5.4c-2-0.5-3.8-1.3-5.6-2.3l-5.4,2.3l-6.2-6.2l2.3-5.4c-1-1.7-1.8-3.6-2.3-5.6
								l-5.4-2.2v-8.8l5.4-2.2c0.5-2,1.3-3.8,2.3-5.6l-2.3-5.4l6.2-6.2l5.4,2.3c1.7-1,3.6-1.8,5.6-2.3l2.2-5.4h8.8l2.2,5.4
								c2,0.5,3.8,1.3,5.6,2.3l5.4-2.3l6.2,6.2l-2.3,5.4c1,1.7,1.8,3.6,2.3,5.6L-437.9,251.6z"/>
						</g>
						<g id="g29" transform="translate(413.4999,256)">
							<path id="path31" class="st25" d="M-359.3,218.5c0-9.2-7.5-16.7-16.7-16.7s-16.7,7.5-16.7,16.7s7.5,16.7,16.7,16.7
								S-359.3,227.7-359.3,218.5z"/>
						</g>
					</g>
				</g>
			</g>
		</g>
		<g>
			<path class="st26" d="M54.2,40.3c-0.6-0.3-1.3,0-1.6,0.6l-7.4,17.2c-0.3,0.6,0,1.3,0.6,1.6c0.6,0.3,1.3,0,1.6-0.6l7.4-17.2
				C55.1,41.3,54.8,40.5,54.2,40.3L54.2,40.3z"/>
			<path class="st26" d="M43.6,44.3c-0.4-0.5-1.2-0.6-1.7-0.2L35.7,49c-0.6,0.5-0.6,1.4,0,1.9l6.1,4.9c0.5,0.4,1.3,0.3,1.7-0.2
				c0.4-0.5,0.3-1.3-0.2-1.7l-4.9-4l4.9-4C43.9,45.6,44,44.9,43.6,44.3L43.6,44.3z"/>
			<path class="st26" d="M64.3,49l-6.1-4.9c-0.5-0.4-1.3-0.3-1.7,0.2c-0.4,0.5-0.3,1.3,0.2,1.7l4.9,4l-4.9,4
				c-0.5,0.4-0.6,1.2-0.2,1.7c0.4,0.5,1.2,0.6,1.7,0.2l6.1-4.9C64.9,50.5,64.9,49.5,64.3,49z"/>
		</g>
	</g>
</g>
<g id="Layer_14_copy">
	<g>
		<defs>
			<rect id="SVGID_00000090993323180905295000000012752135623615520191_" width="100" height="100"/>
		</defs>
		<clipPath id="SVGID_00000164503820143034682710000012389081811156351399_">
			<use xlink:href="#SVGID_00000090993323180905295000000012752135623615520191_"  style="overflow:visible;"/>
		</clipPath>
		<g style="clip-path:url(#SVGID_00000164503820143034682710000012389081811156351399_);">
			<g id="g15_00000077320839969402588200000005452913834707693461_" transform="matrix(1.3333333,0,0,-1.3333333,0,682.66667)">
				<g id="g17_00000008130739404051233710000003228746001785579421_">
					<g>
						<g id="g19_00000090260474798563955330000009066108765368383872_">
							<g id="g25_00000103960774847488135910000010835063504441738662_" transform="translate(504.5,218.5)">
								<g id="path27_00000143585767504430977010000014407242811124009129_">
									<path class="st4" d="M-462.1,221.6h-9.9c-0.7,0-1.3,0.4-1.6,1.1l-2.1,5.3c-1.8,0.5-3.5,1.3-5.1,2.1l-5.3-2.3
										c-0.6-0.3-1.4-0.1-1.9,0.4l-7,7c-0.5,0.5-0.6,1.2-0.4,1.9l2.3,5.3c-0.9,1.6-1.6,3.3-2.1,5.1l-5.3,2.1
										c-0.6,0.3-1.1,0.9-1.1,1.6v9.9c0,0.7,0.4,1.3,1.1,1.6l5.3,2.1c0.5,1.8,1.3,3.5,2.1,5.1l-2.3,5.3c-0.3,0.6-0.1,1.4,0.4,1.9
										l7,7c0.5,0.5,1.2,0.6,1.9,0.4l5.3-2.3c1.6,0.9,3.3,1.6,5.1,2.1l2.1,5.3c0.3,0.6,0.9,1.1,1.6,1.1h9.9c0.7,0,1.3-0.4,1.6-1.1
										l2.1-5.3c1.8-0.5,3.5-1.3,5.1-2.1l5.3,2.3c0.6,0.3,1.4,0.1,1.9-0.4l7-7c0.5-0.5,0.6-1.2,0.4-1.9l-2.3-5.3
										c0.9-1.6,1.6-3.3,2.1-5.1l5.3-2.1c0.6-0.3,1.1-0.9,1.1-1.6v-9.9c0-0.7-0.4-1.3-1.1-1.6l-5.3-2.1c-0.5-1.8-1.3-3.5-2.1-5.1
										l2.3-5.3c0.3-0.6,0.1-1.4-0.4-1.9l-7-7c-0.5-0.5-1.2-0.6-1.9-0.4l-5.3,2.3c-1.6-0.9-3.3-1.6-5.1-2.1l-2.1-5.3
										C-460.8,222-461.4,221.6-462.1,221.6z M-470.8,225h7.6l2,5c0.2,0.5,0.6,0.9,1.1,1c2,0.6,4,1.4,5.9,2.4
										c0.5,0.3,1,0.3,1.5,0.1l5-2.1l5.4,5.4l-2.1,5c-0.2,0.5-0.2,1,0.1,1.5c1.1,1.8,1.9,3.8,2.4,5.9c0.1,0.5,0.5,0.9,1,1.1l5,2
										v7.6l-5,2c-0.5,0.2-0.9,0.6-1,1.1c-0.6,2-1.4,4-2.4,5.9c-0.3,0.5-0.3,1-0.1,1.5l2.1,5l-5.4,5.4l-5-2.1
										c-0.5-0.2-1-0.2-1.5,0.1c-1.8,1.1-3.8,1.9-5.9,2.4c-0.5,0.1-0.9,0.5-1.1,1l-2,5h-7.6l-2-5c-0.2-0.5-0.6-0.9-1.1-1
										c-2-0.6-4-1.4-5.9-2.4c-0.5-0.3-1-0.3-1.5-0.1l-5,2.1l-5.4-5.4l2.1-5c0.2-0.5,0.2-1-0.1-1.5c-1.1-1.9-1.9-3.8-2.4-5.9
										c-0.1-0.5-0.5-0.9-1-1.1l-5-2v-7.6l5-2c0.5-0.2,0.9-0.6,1-1.1c0.6-2,1.4-4,2.4-5.9c0.3-0.5,0.3-1,0.1-1.5l-2.1-5l5.4-5.4
										l5,2.1c0.5,0.2,1,0.2,1.5-0.1c1.9-1.1,3.8-1.9,5.9-2.4c0.5-0.1,0.9-0.5,1.1-1L-470.8,225z M-434.3,251.1L-434.3,251.1
										L-434.3,251.1z"/>
								</g>
							</g>
							<g id="g29_00000031166578710423820960000011917386435043039402_" transform="translate(413.4999,256)">
								<g id="path31_00000093861223255158312830000007595350253484622979_">
									<path class="st4" d="M-376,198c-11.3,0-20.5,9.2-20.5,20.5s9.2,20.5,20.5,20.5c11.3,0,20.5-9.2,20.5-20.5
										S-364.7,198-376,198z M-376,235.6c-9.4,0-17.1-7.7-17.1-17.1c0-9.4,7.7-17.1,17.1-17.1c9.4,0,17.1,7.7,17.1,17.1
										C-358.9,227.9-366.6,235.6-376,235.6z"/>
								</g>
							</g>
						</g>
					</g>
				</g>
			</g>
			<g>
				<path class="st17" d="M55,38.3c-1.1-0.5-2.4,0-2.9,1.2l-8.3,19.3c-0.2,0.5-0.2,1.1,0,1.7c0.2,0.6,0.6,1,1.2,1.2
					c0.3,0.1,0.6,0.2,0.9,0.2c0.3,0,0.6-0.1,0.8-0.2c0.6-0.2,1-0.6,1.2-1.2l8.3-19.3C56.7,40.1,56.1,38.8,55,38.3z"/>
				<path class="st17" d="M43.1,53.8L38.4,50l4.7-3.8c1-0.8,1.1-2.2,0.3-3.1l0,0c-0.8-1-2.2-1.1-3.1-0.3l-6.9,5.5
					c-0.5,0.4-0.8,1.1-0.8,1.7c0,0.7,0.3,1.3,0.8,1.7l6.9,5.5c0.4,0.3,0.9,0.5,1.4,0.5c0.1,0,0.2,0,0.2,0c0.6-0.1,1.1-0.4,1.5-0.8
					C44.2,55.9,44.1,54.5,43.1,53.8z"/>
				<path class="st17" d="M66.5,48.3l-6.9-5.5c-0.5-0.4-1-0.5-1.6-0.5c-0.6,0.1-1.1,0.4-1.5,0.8c-0.4,0.5-0.5,1-0.5,1.6
					c0.1,0.6,0.4,1.1,0.8,1.5l4.7,3.8l-4.7,3.8c-1,0.8-1.1,2.2-0.3,3.1c0.4,0.5,1.1,0.8,1.7,0.8c0.5,0,1-0.2,1.4-0.5l6.9-5.5
					c0.5-0.4,0.8-1.1,0.8-1.7C67.4,49.3,67.1,48.7,66.5,48.3z"/>
			</g>
		</g>
	</g>
</g>
<g id="Layer_15">
</g>
<g id="Product-and-Digital-Services" class="st0">
	<g class="st1">
		<defs>
			<rect id="SVGID_00000047774401016848896380000015558674525301683638_" y="0" width="100" height="100"/>
		</defs>
		<clipPath id="SVGID_00000078032354296377808970000003543276798960794261_">
			<use xlink:href="#SVGID_00000047774401016848896380000015558674525301683638_"  style="overflow:visible;"/>
		</clipPath>
		<g style="clip-path:url(#SVGID_00000078032354296377808970000003543276798960794261_);">
			<g>
				<g>
					<path class="st4" d="M19.5,46.2h2.4v2.4h-2.4V46.2z"/>
					<path class="st4" d="M24.2,46.2h2.4v2.4h-2.4V46.2z"/>
					<path class="st4" d="M28.9,46.2h2.4v2.4h-2.4V46.2z"/>
					<path class="st4" d="M64.4,90.5h16.2V78.4H64.4V90.5z M70.4,80.4h4v2h-4V80.4z M66.4,80.4h2v4h8.1v-4h2v8.1H66.4V80.4z"/>
					<path class="st4" d="M64.4,74.6h16.2V62.4H64.4V74.6z M70.4,64.5h4v2h-4V64.5z M66.4,64.5h2v4h8.1v-4h2v8.1H66.4V64.5z"/>
					<path class="st4" d="M68.7,55.6h2.4V58h-2.4V55.6z"/>
					<path class="st4" d="M73.4,55.6h2.4V58h-2.4V55.6z"/>
					<path class="st4" d="M78.2,55.6h2.4V58h-2.4V55.6z"/>
					<path class="st4" d="M19.5,68.1h17v2.4h-17V68.1z"/>
					<path class="st4" d="M19.5,74.3h17v2.4h-17V74.3z"/>
					<path class="st4" d="M38.9,68.1h14.4v2.4H38.9V68.1z"/>
					<path class="st4" d="M38.9,74.3h14.4v2.4H38.9V74.3z"/>
					<g>
						<rect x="17.1" y="43.8" class="st3" width="65.8" height="7.1"/>
						<path class="st4" d="M14.7,41.4v54.4h0v0h70.5V41.4H14.7z M82.9,93.5H17.1V53.3h65.8V93.5z M82.9,50.9H17.1v-7.1h65.8V50.9z"
							/>
					</g>
				</g>
			</g>
			<g>
				<path class="st17" d="M62.9,15.6v-3.4l0.2-0.1c1-0.4,1.9-1.1,2.3-2.1s0.5-2.1,0.2-3.2c-0.8-2.1-3.1-3.3-5.3-2.5
					c-1.6,0.6-2.7,2.1-2.7,3.9c0,1.7,1.1,3.3,2.8,3.9l0.2,0.1V15l-3.9,2.6c-0.3,0.2-0.5,0.6-0.5,1v16.2h2.4V19.2l3.9-2.6
					C62.7,16.4,62.9,16,62.9,15.6z M61.7,10c-1,0-1.7-0.8-1.7-1.7s0.8-1.7,1.7-1.7c1,0,1.7,0.8,1.7,1.7v0C63.5,9.3,62.7,10,61.7,10z
					"/>
				<path class="st17" d="M48.6,12.4l0.2,0.1v26.9h2.4V12.5l0.2-0.1c1.6-0.6,2.7-2.1,2.8-3.9c0-2.3-1.8-4.1-4.1-4.1c0,0,0,0,0,0
					c-1.1,0-2.1,0.4-2.9,1.2c-0.8,0.8-1.2,1.8-1.2,2.9C45.9,10.2,47,11.8,48.6,12.4z M50,6.8c1,0,1.7,0.8,1.7,1.7S51,10.3,50,10.3
					c-1,0-1.7-0.8-1.7-1.7C48.3,7.6,49.1,6.8,50,6.8z"/>
				<path class="st17" d="M36.9,12.2l0.2,0.1v3.4c0,0.4,0.2,0.8,0.5,1l3.9,2.6v15.5h2.4V18.6c0-0.4-0.2-0.8-0.5-1L39.5,15v-2.7
					l0.2-0.1c1-0.4,1.9-1.1,2.3-2.1c0.5-1,0.5-2.1,0.2-3.2c-0.8-2.1-3.1-3.3-5.3-2.5c-1.6,0.6-2.7,2.1-2.7,3.9
					C34.2,10,35.3,11.6,36.9,12.2z M38.3,6.6c1,0,1.7,0.8,1.7,1.7v0c0,1-0.8,1.7-1.7,1.7c-1,0-1.7-0.8-1.7-1.7S37.3,6.6,38.3,6.6z"
					/>
				<rect x="56.1" y="38.2" class="st17" width="2.4" height="2.4"/>
				<rect x="41.5" y="38.2" class="st17" width="2.4" height="2.4"/>
			</g>
		</g>
	</g>
</g>
</svg>
