<svg xmlns="http://www.w3.org/2000/svg" version="1.1" xmlns:xlink="http://www.w3.org/1999/xlink" xmlns:svgjs="http://svgjs.dev/svgjs" width="1000" height="1000" viewBox="0 0 1000 1000"><rect width="1000" height="1000" fill="#ffffff"></rect><g transform="matrix(0.7,0,0,0.7,150.0000000000001,106.25)"><svg viewBox="0 0 320 360" data-background-color="#ffffff" preserveAspectRatio="xMidYMid meet" height="1125" width="1000" xmlns="http://www.w3.org/2000/svg" xmlns:xlink="http://www.w3.org/1999/xlink"><g id="tight-bounds" transform="matrix(1,0,0,1,0,0)"><svg viewBox="0 0 320 360" height="360" width="320"><g><svg></svg></g><g><svg viewBox="0 0 320 360" height="360" width="320"><g><path xmlns="http://www.w3.org/2000/svg" d="M20.961 227.22l3.726 4.658-1.863-6.056c-0.466-2.795-3.726 0.466-1.863 1.398M25.153 224.425c1.397 2.329 2.795 4.658 2.795 6.987 0 3.261 2.795 4.658 5.123 5.589-3.261-3.726-5.124-13.974-7.918-12.576M204.017 26.929c7.918 0 15.371-0.932 23.756 0.931 20.495 5.124 37.729 15.371 49.374 29.811l32.606 52.169c1.397 13.042 4.192 27.482 3.726 43.319 3.261 0 2.795-4.658 6.521-5.59-3.726 9.316-5.59 20.961-6.521 34.469-2.329-7.453 0-18.632 0.466-24.687-3.261 5.124-5.124 1.397-5.124-0.932 0.466-3.726-1.397-3.261-2.795-4.658-5.124-4.658-8.384-9.782-12.11-17.7 2.329-6.055 2.795-14.905-4.658-19.563-2.329-1.397-5.124-3.726-6.521-7.453-1.863-5.124-5.124-11.179-4.193-19.097 0.466-2.329-6.987 5.124-11.179 1.863-18.166-12.576-36.332-27.016-58.224-39.127-11.645 0-20.029-4.192-24.221-9.316-3.726-4.658-0.932-10.713 4.658-11.179 3.261 0 6.987-0.932 9.782 0.932 0.466-1.863 2.329-4.192 4.657-4.192M157.904 16.215l0.932 0.466c4.658 0.932 6.987 7.453 12.11 5.124 0 3.261 0.466 6.521-0.466 8.85-1.397 3.726-5.59 3.726-8.85 3.726-31.208-1.863-49.374 11.179-68.471 22.358-5.124 3.261-10.713 5.59-14.906 9.782-20.029 18.632-41.921 35.866-47.045 70.335l-4.192 38.195c-0.466 4.192-5.124 8.384-4.192 13.508l3.26 22.824c-3.261-3.261-5.124 0.932-4.192 2.795 0.466 1.397 2.329 6.055 5.124 1.863 3.726 6.987 7.453 20.495 12.576 26.55 15.837 18.632 36.332 35.4 53.101 52.169 4.192-0.932 7.453-0.932 8.384-3.727 1.397 2.795-1.397 5.59-3.726 6.056 7.453 4.658 15.837 8.85 27.016 9.781 14.44 0.932 27.948 3.261 40.524 6.522 6.521-1.863 13.042-2.795 20.029-3.261 2.329 0 3.726-3.726 6.521-4.658l0.466-4.658c2.795 4.192 2.329-1.397 0.466-4.192 3.261 2.795 4.192 5.124 5.589 6.987 0-1.397 3.726-6.521 3.727-0.466l0.931-6.055c1.397-0.932 1.863 5.124 3.261 0.931 1.397-4.192 4.192-0.932 6.987-2.329-0.932 1.863-0.466 5.59 2.794 3.261l3.727-3.261c2.329 5.59 6.055 3.261 7.918 2.329 20.495-13.042 40.99-28.413 60.553-43.784l-0.466 6.055 2.329-7.453c2.329 2.329 4.192 0.466 5.124-0.931 2.795-4.658 6.521-9.316 12.577-13.508-7.453 20.029-16.303 35.866-27.482 48.908l-4.658 5.59c0 3.261-0.932 7.453-4.658 7.918-1.863 0.466-5.59-0.932-8.384 1.863-1.397 1.863 3.261 5.59-0.466 2.795-3.261-2.329-6.521 0-10.248 0.932-2.795 0.932 1.863 3.726 2.795 5.589 0.932 1.863 1.863 3.726 1.398 6.056l-5.124-5.59c-6.055 3.261-9.782 9.316-14.906 13.974-2.329 1.863-1.397 5.124-1.397 7.918-3.261 0-6.987-0.932-8.85 0.932-1.397 1.863-0.932 4.658-0.932 7.453-4.658-0.466-5.124-7.453-9.315-6.056-4.192 0.932-8.85 1.397-12.577 3.727 2.795 5.59-4.658 2.329-3.726 3.26-6.987-4.192-13.042-7.453-20.495-4.658-15.837-5.124-35.4-2.795-49.84-0.931 0-2.329 0.466-4.658-0.466-5.124-0.932 2.329-3.726 1.397-3.26 1.397-8.85-6.055-17.7-9.782-27.016-14.905-8.384 0.932-16.303-3.261-18.632-5.59-6.521-6.055-13.974-2.795-20.029-4.192-13.042-3.261-17.7-16.769-19.098-26.084-0.932-4.658-4.658-6.521-6.055-6.056-6.055-19.563-15.371-37.263-22.824-55.429-1.863-4.658-1.397-9.316-1.397-14.44 2.329 0.932 4.658 0.466 4.192-2.794-2.329-15.371-7.918-27.016-13.974-38.195 3.261-15.837 3.726-34.469 11.179-48.443 6.521-12.576 18.632-19.098 27.016-29.811 2.795-3.726 2.795-8.85 5.59-12.11 9.316-9.316 18.632-19.098 28.879-27.482 4.658-3.726 10.247 0 17.234-1.397 2.329-8.384 11.645-15.837 20.495-13.508 3.726 0.932 11.179-8.85 13.508-9.782 3.726-1.397 1.863 3.726 1.863 6.987 8.85-6.987 20.961-10.713 32.14-14.906" fill="#7a26c1" fill-rule="nonzero" stroke="none" stroke-width="1" stroke-linecap="butt" stroke-linejoin="miter" stroke-miterlimit="10" stroke-dasharray="" stroke-dashoffset="0" font-family="none" font-weight="none" font-size="none" text-anchor="none" style="mix-blend-mode: normal" data-fill-palette-color="tertiary"></path></g><g transform="matrix(1,0,0,1,64,125.21086150234265)"><svg viewBox="0 0 192 109.57827699531468" height="109.57827699531468" width="192"><g><svg viewBox="0 0 192 109.57827699531468" height="109.57827699531468" width="192"><g><svg viewBox="0 0 192 109.57827699531468" height="109.57827699531468" width="192"><g><svg viewBox="0 0 192 109.57827699531468" height="109.57827699531468" width="192"><g><svg viewBox="0 0 192 109.57827699531468" height="109.57827699531468" width="192"><g><svg viewBox="0 0 192 73.86428195686482" height="73.86428195686482" width="192"><g transform="matrix(1,0,0,1,0,0)"><svg width="192" viewBox="5.440000057220459 -41.939998626708984 139.22999572753906 53.55999755859375" height="73.86428195686482" data-palette-color="#7a26c1"><path d="M19.19-25.73L19.19-25.73Q14.43-25.73 9.5-22.92L9.5-22.92 9.5 0 5.44 0 5.44-29.05 9.01-29.05 9.4-26.05Q12.06-28.22 16.02-29.15L16.02-29.15Q17.63-29.54 19.8-29.54 21.97-29.54 23.63-29.04 25.29-28.54 26.27-27.44L26.27-27.44Q28.05-25.46 28.05-20.24L28.05-20.24 28.05 0 23.95 0 23.95-19.48Q23.95-23 23.27-24.01 22.58-25.02 21.64-25.38 20.7-25.73 19.19-25.73ZM57.44-27.05L57.44-27.05 57.83-29.05 61.35-29.05 61.37-0.54Q61.37 5.74 58.91 8.59L58.91 8.59Q56.27 11.62 50 11.62L50 11.62Q45.11 11.62 41.33 10.3L41.33 10.3Q40.38 9.99 39.87 9.72L39.87 9.72 41.14 6.27Q41.57 6.42 42.43 6.75 43.28 7.08 44.48 7.4L44.48 7.4Q47.51 8.2 50.03 8.2 52.56 8.2 53.93 7.69 55.3 7.18 56.05 6.1L56.05 6.1Q57.32 4.3 57.32-0.46L57.32-0.46 57.32-2.78Q52.66 0.49 47.46 0.49L47.46 0.49Q41.38 0.49 39.35-3.83L39.35-3.83Q38.18-6.27 37.99-10.01L37.99-10.01Q37.91-11.72 37.91-13.78 37.91-15.84 37.95-17.94 37.99-20.04 38.25-21.83 38.52-23.61 39.1-25.04 39.67-26.46 40.74-27.47L40.74-27.47Q42.97-29.54 47.59-29.54 52.22-29.54 57.44-27.05ZM57.32-6.08L57.32-23.68Q52.93-25.88 48.83-25.88L48.83-25.88Q45.85-25.88 44.89-25.39 43.94-24.9 43.44-24.12 42.94-23.34 42.62-21.97L42.62-21.97Q42.06-19.41 42.06-13.53L42.06-13.53 42.06-12.99Q42.06-7.57 43.41-5.4L43.41-5.4Q44.75-3.17 48.31-3.17L48.31-3.17 48.68-3.17Q52.05-3.17 55.56-5.03L55.56-5.03Q56.56-5.54 57.32-6.08L57.32-6.08ZM84.96-4.57L86.35-1.39Q82.37 0.49 79 0.49L79 0.49Q72.9 0.49 72.07-4.74L72.07-4.74Q71.87-5.98 71.87-8.35L71.87-8.35 71.87-25.66 68.35-25.66 68.35-28.66 71.87-29.05 72.5-35.69 75.9-35.69 75.9-29.05 84.37-29.05 84.37-25.66 75.9-25.66 75.9-8.42Q75.9-5.42 76.34-4.59L76.34-4.59Q77.14-3.08 79.56-3.08 81.98-3.08 84.96-4.57L84.96-4.57ZM108.27-36.01L108.27-36.01Q106.63-36.01 106.17-36.47L106.17-36.47Q105.43-37.23 105.43-38.56 105.43-39.89 105.59-40.47 105.75-41.04 106.07-41.36L106.07-41.36Q106.66-41.94 107.86-41.94 109.07-41.94 109.6-41.82 110.12-41.7 110.46-41.36L110.46-41.36Q111.05-40.77 111.05-39.44 111.05-38.11 110.92-37.54 110.78-36.96 110.46-36.62L110.46-36.62Q109.85-36.01 108.27-36.01ZM106.34 0L106.29-29.05 110.29-29.05 110.29 0 106.34 0ZM140.61 11.11L140.61-2.78Q135.95 0.49 130.75 0.49L130.75 0.49Q124.67 0.49 122.64-3.83L122.64-3.83Q121.47-6.27 121.28-10.01L121.28-10.01Q121.2-11.72 121.2-13.78 121.2-15.84 121.24-17.94 121.28-20.04 121.55-21.83 121.81-23.61 122.39-25.04 122.96-26.46 124.04-27.47L124.04-27.47Q126.26-29.54 130.88-29.54 135.51-29.54 140.73-27.05L140.73-27.05 141.13-29.05 144.64-29.05 144.67 11.11 140.61 11.11ZM140.61-6.08L140.61-23.68Q136.22-25.88 132.12-25.88L132.12-25.88Q129.14-25.88 128.19-25.39 127.23-24.9 126.73-24.12 126.23-23.34 125.92-21.97L125.92-21.97Q125.35-19.41 125.35-13.53L125.35-13.53 125.35-12.99Q125.35-7.57 126.7-5.4L126.7-5.4Q128.04-3.17 131.6-3.17L131.6-3.17 131.97-3.17Q135.34-3.17 138.85-5.03L138.85-5.03Q139.86-5.54 140.61-6.08L140.61-6.08Z" opacity="1" transform="matrix(1,0,0,1,0,0)" fill="#7a26c1" class="undefined-text-0" data-fill-palette-color="primary" id="text-0"></path></svg></g></svg></g><g transform="matrix(1,0,0,1,0,84.64285343713836)"><svg viewBox="0 0 192 24.93542355817633" height="24.93542355817633" width="192"><g transform="matrix(1,0,0,1,0,0)"><svg width="192" viewBox="3.799999952316284 -35.599998474121094 347.6100158691406 45.14999771118164" height="24.93542355817633" data-palette-color="#7a26c1"><path d="M36.85-17.7L36.85 0 33.8 0 33.8-16.75Q33.8-22.8 28.5-22.8L28.5-22.8Q25.9-22.8 23.88-20.4 21.85-18 21.85-14L21.85-14 21.85 0 18.8 0 18.8-16.75Q18.8-22.8 13.5-22.8L13.5-22.8Q10.9-22.8 8.88-20.4 6.85-18 6.85-14L6.85-14 6.85 0 3.8 0 3.8-25.35 6.85-25.35 6.85-21.2Q9-25.75 13.95-25.75L13.95-25.75Q20.05-25.75 21.45-20.75L21.45-20.75Q23.8-25.75 28.95-25.75L28.95-25.75Q32.95-25.75 34.9-23.53 36.85-21.3 36.85-17.7L36.85-17.7ZM51.5-2.55L51.5-2.55Q54.5-2.55 56.3-4.2 58.1-5.85 58.1-8.4L58.1-8.4 58.1-12.05 53.15-12.05Q49.6-12.05 47.85-10.68 46.1-9.3 46.1-7.25L46.1-7.25Q46.1-5.15 47.47-3.85 48.85-2.55 51.5-2.55ZM58.1 0L58.1-2.95Q56 0.25 50.8 0.25L50.8 0.25Q47.3 0.25 45.07-1.83 42.85-3.9 42.85-7.15L42.85-7.15Q42.85-10.8 45.67-12.83 48.5-14.85 53.15-14.85L53.15-14.85 58.1-14.85 58.1-16Q58.1-19.4 56.65-21.13 55.2-22.85 51.8-22.85L51.8-22.85Q47.85-22.85 44.7-20.7L44.7-20.7 44.7-24Q47.6-25.75 51.85-25.75L51.85-25.75Q61.15-25.75 61.15-16L61.15-16 61.15 0 58.1 0ZM83.2-6.5L83.2-6.5Q83.2-3.35 81.02-1.53 78.85 0.3 75.05 0.3L75.05 0.3Q70.45 0.3 67.65-1.2L67.65-1.2 67.65-4.35Q71-2.45 74.85-2.45L74.85-2.45Q77.4-2.45 78.72-3.5 80.05-4.55 80.05-6.25L80.05-6.25Q80.05-8.25 78.67-9.35 77.3-10.45 74.15-11.7L74.15-11.7Q71.1-12.9 69.3-14.5 67.5-16.1 67.5-18.9L67.5-18.9Q67.5-21.95 69.75-23.78 72-25.6 75.4-25.6L75.4-25.6Q79.5-25.6 81.7-24.45L81.7-24.45 81.7-21.4Q79.35-22.75 75.35-22.75L75.35-22.75Q73.15-22.75 71.87-21.73 70.6-20.7 70.6-19.05L70.6-19.05Q70.6-18.05 70.97-17.3 71.35-16.55 72.27-15.93 73.2-15.3 73.85-15 74.5-14.7 75.95-14.1L75.95-14.1Q79.45-12.7 81.32-11.03 83.2-9.35 83.2-6.5ZM100.89-3.8L100.89-0.7Q99.44 0.25 97.54 0.25L97.54 0.25Q90.34 0.25 90.34-7.15L90.34-7.15 90.34-22.75 86.19-22.75 86.19-25.35 90.34-25.35 90.34-31.7 93.44-31.7 93.44-25.35 100.69-25.35 100.69-22.75 93.44-22.75 93.44-7Q93.44-2.65 97.49-2.65L97.49-2.65Q99.49-2.65 100.89-3.8L100.89-3.8ZM125.09-4.35L125.09-1.25Q122.09 0.25 118.09 0.25L118.09 0.25Q112.44 0.25 108.92-3.28 105.39-6.8 105.39-12.55L105.39-12.55Q105.39-18.65 108.49-22.15 111.59-25.65 116.54-25.65L116.54-25.65Q121.19-25.65 123.94-22.6 126.69-19.55 126.69-14L126.69-14Q126.69-12.3 126.49-11.3L126.49-11.3 108.59-11.3Q108.94-7.1 111.49-4.88 114.04-2.65 118.24-2.65L118.24-2.65Q122.54-2.65 125.09-4.35L125.09-4.35ZM116.44-22.8L116.44-22.8Q113.24-22.8 111.09-20.55 108.94-18.3 108.59-14.1L108.59-14.1 123.54-14.1 123.54-15.25Q123.54-18.7 121.62-20.75 119.69-22.8 116.44-22.8ZM135.94-14.15L135.94 0 132.89 0 132.89-25.35 135.94-25.35 135.94-21.05Q138.04-25.65 143.04-25.65L143.04-25.65Q143.39-25.65 144.29-25.55L144.29-25.55 144.29-22.45Q143.29-22.75 142.29-22.75L142.29-22.75Q139.59-22.75 137.76-20.08 135.94-17.4 135.94-14.15L135.94-14.15ZM181.58-12.55L181.58-12.55Q181.58-6.9 178.41-3.23 175.23 0.45 169.68 0.45L169.68 0.45Q164.33 0.45 161.18-3.25 158.03-6.95 158.03-12.55L158.03-12.55Q158.03-18.1 161.28-21.9 164.53-25.7 169.68-25.7L169.68-25.7Q175.33-25.7 178.46-21.98 181.58-18.25 181.58-12.55ZM161.23-12.55L161.23-12.55Q161.23-8.4 163.56-5.43 165.88-2.45 169.68-2.45L169.68-2.45Q173.83-2.45 176.11-5.38 178.38-8.3 178.38-12.55L178.38-12.55Q178.38-16.95 176.23-19.88 174.08-22.8 169.68-22.8L169.68-22.8Q165.73-22.8 163.48-19.8 161.23-16.8 161.23-12.55ZM198.83-25.35L198.83-22.75 193.03-22.75 193.03 0 189.98 0 189.98-22.75 185.33-22.75 185.33-25.35 189.98-25.35 189.98-28.05Q189.98-31.5 191.78-33.55 193.58-35.6 196.83-35.6L196.83-35.6Q197.78-35.6 198.88-35.3L198.88-35.3 198.88-32.3Q197.83-32.7 196.68-32.7L196.68-32.7Q195.18-32.7 194.11-31.53 193.03-30.35 193.03-28L193.03-28 193.03-25.35 198.83-25.35ZM231.93-3.95L231.93-0.85Q229.78 0.6 226.38 0.6L226.38 0.6Q220.23 0.6 216.78-3.28 213.33-7.15 213.33-12.6L213.33-12.6Q213.33-17.9 216.85-21.85 220.38-25.8 226.38-25.8L226.38-25.8Q229.48-25.8 231.93-24.45L231.93-24.45 231.93-21.35Q229.68-22.85 226.68-22.85L226.68-22.85Q222.03-22.85 219.28-19.83 216.53-16.8 216.53-12.55L216.53-12.55Q216.53-8.25 219.18-5.3 221.83-2.35 226.73-2.35L226.73-2.35Q229.78-2.35 231.93-3.95L231.93-3.95ZM260.47-12.55L260.47-12.55Q260.47-6.9 257.3-3.23 254.12 0.45 248.57 0.45L248.57 0.45Q243.22 0.45 240.07-3.25 236.92-6.95 236.92-12.55L236.92-12.55Q236.92-18.1 240.17-21.9 243.42-25.7 248.57-25.7L248.57-25.7Q254.22-25.7 257.35-21.98 260.47-18.25 260.47-12.55ZM240.12-12.55L240.12-12.55Q240.12-8.4 242.45-5.43 244.77-2.45 248.57-2.45L248.57-2.45Q252.72-2.45 255-5.38 257.27-8.3 257.27-12.55L257.27-12.55Q257.27-16.95 255.12-19.88 252.97-22.8 248.57-22.8L248.57-22.8Q244.62-22.8 242.37-19.8 240.12-16.8 240.12-12.55ZM268.17-12.35L268.17-12.35Q268.17-8 270.3-5.25 272.42-2.5 275.67-2.5 278.92-2.5 281.27-4.88 283.62-7.25 283.62-12.8L283.62-12.8Q283.62-15.6 282.85-17.68 282.07-19.75 280.85-20.83 279.62-21.9 278.4-22.38 277.17-22.85 275.97-22.85L275.97-22.85Q272.57-22.85 270.37-20.13 268.17-17.4 268.17-12.35ZM286.67-35.35L286.67 0 283.62 0 283.62-3.7Q280.97 0.4 275.77 0.4L275.77 0.4Q270.67 0.4 267.82-3.33 264.97-7.05 264.97-12.4L264.97-12.4Q264.97-18.3 268.02-22.03 271.07-25.75 275.87-25.75L275.87-25.75Q280.82-25.75 283.62-21.55L283.62-21.55 283.62-35.35 286.67-35.35ZM297.52-25.35L297.52 0 294.47 0 294.47-25.35 297.52-25.35ZM297.49-34.98Q298.12-34.35 298.12-33.45 298.12-32.55 297.49-31.95 296.87-31.35 295.97-31.35 295.07-31.35 294.47-31.95 293.87-32.55 293.87-33.45 293.87-34.35 294.47-34.98 295.07-35.6 295.97-35.6 296.87-35.6 297.49-34.98ZM324.47-17.7L324.47 0 321.42 0 321.42-16.75Q321.42-19.7 319.92-21.25 318.42-22.8 315.97-22.8L315.97-22.8Q312.87-22.8 310.62-20.43 308.37-18.05 308.37-14L308.37-14 308.37 0 305.32 0 305.32-25.35 308.37-25.35 308.37-21Q310.72-25.75 316.42-25.75L316.42-25.75Q320.07-25.75 322.27-23.5 324.47-21.25 324.47-17.7L324.47-17.7ZM351.41-25.35L351.41-1.95Q351.41 3.8 348.31 6.68 345.21 9.55 340.31 9.55L340.31 9.55Q335.96 9.55 332.91 8.1L332.91 8.1 332.91 5.1Q336.01 6.65 340.06 6.65L340.06 6.65Q343.86 6.65 346.11 4.58 348.36 2.5 348.36-1.95L348.36-1.95 348.36-5.25Q345.81-0.6 340.76-0.6L340.76-0.6Q336.36-0.6 333.29-3.85 330.21-7.1 330.21-12.65L330.21-12.65Q330.21-18.35 333.04-22.05 335.86-25.75 340.46-25.75L340.46-25.75Q345.91-25.75 348.36-20.9L348.36-20.9 348.36-25.35 351.41-25.35ZM333.41-12.8L333.41-12.8Q333.41-8.25 335.71-5.88 338.01-3.5 340.81-3.5L340.81-3.5Q343.66-3.5 346.01-5.73 348.36-7.95 348.36-12.55L348.36-12.55Q348.36-17.8 346.11-20.33 343.86-22.85 341.06-22.85L341.06-22.85Q337.51-22.85 335.46-20.05 333.41-17.25 333.41-12.8Z" opacity="1" transform="matrix(1,0,0,1,0,0)" fill="#7a26c1" class="undefined-text-1" data-fill-palette-color="secondary" id="text-1"></path></svg></g></svg></g></svg></g></svg></g><g></g></svg></g></svg></g></svg></g></svg></g><defs></defs></svg><rect width="320" height="360" fill="none" stroke="none" visibility="hidden"></rect></g></svg></g></svg>