<?xml version="1.0" encoding="utf-8"?>
<!-- Generator: Adobe Illustrator 24.1.1, SVG Export Plug-In . SVG Version: 6.00 Build 0)  -->
<svg version="1.1" id="Layer_1" xmlns="http://www.w3.org/2000/svg" xmlns:xlink="http://www.w3.org/1999/xlink" x="0px" y="0px"
	 viewBox="0 0 150 150" style="enable-background:new 0 0 150 150;" xml:space="preserve">
<style type="text/css">
	.st0{fill:#57738B;}
	.st1{fill:#3C6CAB;}
	.st2{fill:#86B4E0;}
	.st3{fill:#5891CC;}
	.st4{fill:#F9FCFF;}
	.st5{fill:#21456E;}
	.st6{fill:#D3E9F8;}
	.st7{fill:#FFFFFF;}
	.st8{fill:#58595B;}
	.st9{fill:#404041;}
	.st10{fill:#808184;}
	.st11{fill:#A6A8AB;}
	.st12{fill:#E6E7E8;}
	.st13{fill:#A2AFB5;}
	.st14{fill:#B0D0E4;}
	.st15{fill:#203E79;}
	.st16{fill:#1D3042;}
	.st17{fill:url(#SVGID_1_);}
	.st18{fill:#E9E9E9;}
	.st19{fill:#FAC0AF;}
	.st20{fill:#E99B91;}
	.st21{fill:#6D3F26;}
	.st22{fill:#5692CD;}
	.st23{fill:#929497;}
	.st24{fill:#EFA85A;}
	.st25{fill:#F26C21;}
	.st26{fill:#5CBFD8;}
	.st27{fill:#0098CC;}
	.st28{opacity:0.2;fill:#231F20;}
	.st29{fill:#EEB983;}
	.st30{fill:#E5E6E6;}
	.st31{fill:#3D5566;}
	.st32{fill:#20232E;}
	.st33{fill:#263C49;}
	.st34{fill:#D3D5D7;}
	.st35{fill:#5B2F1A;}
	.st36{fill:#BACDDF;}
	.st37{opacity:0.2;fill:#044EA0;}
	.st38{fill:#C3DCEE;}
</style>
<g>
	<g>
		<g>
			<g>
				<path class="st0" d="M65.2,101l18.7-10c0.7-0.4,0.6-1-0.2-1.4l-10.8-5.8c-0.8-0.4-2-0.5-2.7-0.1l-18.7,10
					c-0.7,0.4-0.6,1,0.2,1.4l10.8,5.8C63.3,101.4,64.5,101.4,65.2,101z"/>
				<path class="st1" d="M49.9,90.3L49.9,90.3V49.4l17.3-4.3l3.2-1.7c0.7-0.4,2-0.3,2.9,0.1l3,1.6l9.3,0l-2.7,39.5
					c0,0.3-0.1,0.5-0.5,0.7L65,97.6c-0.7,0.4-2,0.3-2.9-0.1l-11.5-6.2C50.1,91,49.9,90.6,49.9,90.3z"/>
				<path class="st2" d="M71.8,43.2c0.5,0,1.1,0.1,1.5,0.4l3,1.6l9.3,0v41c0,0.3-0.1,0.5-0.5,0.7L65,97.6c-0.4,0.2-0.8,0.3-1.3,0.3
					l-0.2-41.3L71.8,43.2z"/>
				<path class="st3" d="M64.8,97.7c-0.6,0.3-1.5,0.2-2.3,0V56.1h2.3V97.7z"/>
				<path class="st2" d="M65,56.6l20-10.7c0.7-0.4,0.6-1.1-0.2-1.5l-11.5-6.2c-0.8-0.5-2.1-0.5-2.9-0.1l-20,10.7
					c-0.7,0.4-0.6,1.1,0.2,1.5l11.5,6.2C63,56.9,64.3,57,65,56.6z"/>
				<path class="st4" d="M50.6,49.5l11.5,6.2c0.8,0.5,2.1,0.5,2.9,0.1l20-10.7c0.2-0.1,0.3-0.2,0.4-0.3c0.3,0.4,0.1,0.8-0.4,1.1
					L65,56.6c-0.7,0.4-2,0.3-2.9-0.1l-11.5-6.2c-0.7-0.4-0.9-0.9-0.6-1.2C50.2,49.2,50.3,49.3,50.6,49.5z"/>
				<g>
					<path class="st5" d="M64.4,52.2L77.8,45c0.3-0.2,0.3-0.5-0.1-0.7l-5.4-2.9c-0.4-0.2-1-0.2-1.3-0.1l-13.3,7.3
						c-0.3,0.2-0.3,0.5,0.1,0.7l5.4,2.9C63.5,52.4,64.1,52.4,64.4,52.2z"/>
					<g>
						<path class="st6" d="M71.6,45.3l0.8-0.4c0,0,0-0.1,0-0.1l-0.7-0.4c-0.1,0-0.1,0-0.2,0l-0.8,0.4c0,0,0,0.1,0,0.1l0.7,0.4
							C71.5,45.3,71.6,45.3,71.6,45.3z"/>
						<path class="st6" d="M69.1,46.7l0.8-0.4c0,0,0-0.1,0-0.1l-0.7-0.4c-0.1,0-0.1,0-0.2,0l-0.8,0.4c0,0,0,0.1,0,0.1l0.7,0.4
							C68.9,46.7,69,46.7,69.1,46.7z"/>
						<path class="st6" d="M66.5,48.1l0.8-0.4c0,0,0-0.1,0-0.1l-0.7-0.4c-0.1,0-0.1,0-0.2,0l-0.8,0.4c0,0,0,0.1,0,0.1l0.7,0.4
							C66.3,48.1,66.4,48.1,66.5,48.1z"/>
						<path class="st6" d="M63.9,49.5l0.8-0.4c0,0,0-0.1,0-0.1l-0.7-0.4c-0.1,0-0.1,0-0.2,0L62.9,49c0,0,0,0.1,0,0.1l0.7,0.4
							C63.8,49.5,63.8,49.5,63.9,49.5z"/>
					</g>
					<path class="st1" d="M77.8,45L77.8,45C77.7,45,77.7,45,77.8,45l-5.5-3c-0.4-0.2-1-0.2-1.3-0.1l-13.3,7.2
						c-0.3-0.2-0.3-0.5,0-0.7l13.3-7.3c0.3-0.2,0.9-0.2,1.3,0.1l5.4,2.9C78.1,44.5,78.1,44.8,77.8,45z"/>
				</g>
			</g>
			<g>
				<path class="st5" d="M59.9,64.7l-7.6-4.1c-0.4-0.2-0.8-0.9-0.8-1.4v-2.5c0-0.5,0.3-0.8,0.8-0.5l7.6,4.1c0.4,0.2,0.8,0.9,0.8,1.4
					v2.5C60.7,64.7,60.3,64.9,59.9,64.7z"/>
				<path class="st7" d="M51.9,56.1c-0.1,0.1-0.2,0.3-0.2,0.5v2.5c0,0.5,0.3,1.2,0.8,1.4l7.6,4.1c0.1,0.1,0.3,0.1,0.4,0.1
					c-0.1,0.1-0.3,0.1-0.6,0l-7.6-4.1c-0.4-0.2-0.8-0.9-0.8-1.4v-2.5C51.5,56.3,51.7,56.1,51.9,56.1z"/>
				<g>
					<path class="st8" d="M57.6,61.9l-0.7-0.4c-0.1-0.1-0.2-0.2-0.2-0.3v-0.7c0-0.1,0.1-0.2,0.2-0.1l0.7,0.4
						c0.1,0.1,0.2,0.2,0.2,0.3v0.7C57.8,61.9,57.7,62,57.6,61.9z"/>
					<path class="st7" d="M55.3,60.7l-0.7-0.4c-0.1-0.1-0.2-0.2-0.2-0.3v-0.7c0-0.1,0.1-0.2,0.2-0.1l0.7,0.4
						c0.1,0.1,0.2,0.2,0.2,0.3v0.7C55.4,60.7,55.4,60.7,55.3,60.7z"/>
				</g>
			</g>
			<g>
				<path class="st5" d="M59.9,83.1L52.3,79c-0.4-0.2-0.8-0.9-0.8-1.4v-2.5c0-0.5,0.3-0.8,0.8-0.5l7.6,4.1c0.4,0.2,0.8,0.9,0.8,1.4
					v2.5C60.7,83.1,60.3,83.3,59.9,83.1z"/>
				<path class="st7" d="M51.9,74.4c-0.1,0.1-0.2,0.3-0.2,0.5v2.5c0,0.5,0.3,1.2,0.8,1.4l7.6,4.1c0.1,0.1,0.3,0.1,0.4,0.1
					c-0.1,0.1-0.3,0.1-0.6,0L52.3,79c-0.4-0.2-0.8-0.9-0.8-1.4v-2.5C51.5,74.7,51.7,74.5,51.9,74.4z"/>
				<g>
					<path class="st8" d="M57.6,80.3l-0.7-0.4c-0.1-0.1-0.2-0.2-0.2-0.3v-0.7c0-0.1,0.1-0.2,0.2-0.1l0.7,0.4
						c0.1,0.1,0.2,0.2,0.2,0.3v0.7C57.8,80.3,57.7,80.4,57.6,80.3z"/>
					<path class="st7" d="M55.3,79.1l-0.7-0.4c-0.1-0.1-0.2-0.2-0.2-0.3v-0.7c0-0.1,0.1-0.2,0.2-0.1l0.7,0.4
						c0.1,0.1,0.2,0.2,0.2,0.3v0.7C55.4,79,55.4,79.1,55.3,79.1z"/>
				</g>
			</g>
			<g>
				<path class="st5" d="M59.9,92.3l-7.6-4.1c-0.4-0.2-0.8-0.9-0.8-1.4v-2.5c0-0.5,0.3-0.8,0.8-0.5l7.6,4.1c0.4,0.2,0.8,0.9,0.8,1.4
					v2.5C60.7,92.3,60.3,92.5,59.9,92.3z"/>
				<path class="st7" d="M51.9,83.6c-0.1,0.1-0.2,0.3-0.2,0.5v2.5c0,0.5,0.3,1.2,0.8,1.4l7.6,4.1c0.1,0.1,0.3,0.1,0.4,0.1
					c-0.1,0.1-0.3,0.1-0.6,0l-7.6-4.1c-0.4-0.2-0.8-0.9-0.8-1.4v-2.5C51.5,83.9,51.7,83.7,51.9,83.6z"/>
				<g>
					<path class="st8" d="M57.6,89.5l-0.7-0.4c-0.1-0.1-0.2-0.2-0.2-0.3v-0.7c0-0.1,0.1-0.2,0.2-0.1l0.7,0.4
						c0.1,0.1,0.2,0.2,0.2,0.3v0.7C57.8,89.5,57.7,89.6,57.6,89.5z"/>
					<path class="st7" d="M55.3,88.2l-0.7-0.4c-0.1-0.1-0.2-0.2-0.2-0.3v-0.7c0-0.1,0.1-0.2,0.2-0.1l0.7,0.4
						c0.1,0.1,0.2,0.2,0.2,0.3v0.7C55.4,88.2,55.4,88.3,55.3,88.2z"/>
				</g>
			</g>
			<g>
				<path class="st5" d="M59.9,73.9l-7.6-4.1c-0.4-0.2-0.8-0.9-0.8-1.4v-2.5c0-0.5,0.3-0.8,0.8-0.5l7.6,4.1c0.4,0.2,0.8,0.9,0.8,1.4
					v2.5C60.7,73.9,60.3,74.1,59.9,73.9z"/>
				<path class="st7" d="M51.9,65.3c-0.1,0.1-0.2,0.3-0.2,0.5v2.5c0,0.5,0.3,1.2,0.8,1.4l7.6,4.1c0.1,0.1,0.3,0.1,0.4,0.1
					c-0.1,0.1-0.3,0.1-0.6,0l-7.6-4.1c-0.4-0.2-0.8-0.9-0.8-1.4v-2.5C51.5,65.5,51.7,65.3,51.9,65.3z"/>
				<g>
					<path class="st8" d="M57.6,71.1l-0.7-0.4c-0.1-0.1-0.2-0.2-0.2-0.3v-0.7c0-0.1,0.1-0.2,0.2-0.1l0.7,0.4
						c0.1,0.1,0.2,0.2,0.2,0.3V71C57.8,71.1,57.7,71.2,57.6,71.1z"/>
					<path class="st7" d="M55.3,69.9l-0.7-0.4c-0.1-0.1-0.2-0.2-0.2-0.3v-0.7c0-0.1,0.1-0.2,0.2-0.1l0.7,0.4
						c0.1,0.1,0.2,0.2,0.2,0.3v0.7C55.4,69.9,55.4,69.9,55.3,69.9z"/>
				</g>
			</g>
		</g>
		<g>
			<path class="st1" d="M66.5,62.1L84,52.6c0.4-0.2,0.7-0.8,0.7-1.3v-3.1c0-0.5-0.3-0.7-0.7-0.5l-17.5,9.5c-0.4,0.2-0.7,0.8-0.7,1.3
				v3.1C65.8,62.1,66.1,62.3,66.5,62.1z"/>
			<path class="st2" d="M67,61l16.5-8.9c0.2-0.1,0.4-0.4,0.4-0.6v-2.4c0-0.2-0.2-0.4-0.4-0.3L67,57.7c-0.2,0.1-0.4,0.4-0.4,0.6v2.4
				C66.6,61,66.8,61.1,67,61z"/>
			<path class="st5" d="M80,52.7l2.5-1.3c0.2-0.1,0.3-0.4,0.3-0.6l0,0c0-0.2-0.2-0.4-0.3-0.2L80,51.9c-0.2,0.1-0.3,0.4-0.3,0.6l0,0
				C79.7,52.7,79.8,52.8,80,52.7z"/>
			<path class="st9" d="M77.9,53.4c0,0.2,0.2,0.3,0.4,0.2c0.2-0.1,0.4-0.4,0.4-0.7c0-0.2-0.2-0.3-0.4-0.2
				C78.1,52.9,77.9,53.2,77.9,53.4z"/>
			<path class="st9" d="M76.5,54.2c0,0.2,0.2,0.3,0.4,0.2c0.2-0.1,0.4-0.4,0.4-0.7s-0.2-0.3-0.4-0.2C76.7,53.7,76.5,54,76.5,54.2z"
				/>
			<path class="st6" d="M75.1,55c0,0.2,0.2,0.3,0.4,0.2c0.2-0.1,0.4-0.4,0.4-0.7s-0.2-0.3-0.4-0.2C75.3,54.4,75.1,54.7,75.1,55z"/>
			<path class="st9" d="M73.7,55.7c0,0.2,0.2,0.3,0.4,0.2c0.2-0.1,0.4-0.4,0.4-0.7s-0.2-0.3-0.4-0.2C73.8,55.2,73.7,55.5,73.7,55.7z
				"/>
			<path class="st5" d="M67.7,59.7l0.8-0.4c0.1-0.1,0.2-0.2,0.2-0.4V58c0-0.2-0.1-0.2-0.2-0.2l-0.8,0.4c-0.1,0.1-0.2,0.2-0.2,0.4
				v0.8C67.4,59.7,67.5,59.7,67.7,59.7z"/>
		</g>
		<g>
			<path class="st1" d="M66.5,67.6L84,58.1c0.4-0.2,0.7-0.8,0.7-1.3v-3.1c0-0.5-0.3-0.7-0.7-0.5l-17.5,9.5c-0.4,0.2-0.7,0.8-0.7,1.3
				v3.1C65.8,67.6,66.1,67.8,66.5,67.6z"/>
			<path class="st2" d="M67,66.5l16.5-8.9c0.2-0.1,0.4-0.4,0.4-0.6v-2.4c0-0.2-0.2-0.4-0.4-0.3L67,63.3c-0.2,0.1-0.4,0.4-0.4,0.6
				v2.4C66.6,66.5,66.8,66.6,67,66.5z"/>
			<path class="st5" d="M80,58.3l2.5-1.3c0.2-0.1,0.3-0.4,0.3-0.6l0,0c0-0.2-0.2-0.4-0.3-0.2L80,57.4c-0.2,0.1-0.3,0.4-0.3,0.6l0,0
				C79.7,58.2,79.8,58.4,80,58.3z"/>
			<path class="st7" d="M77.9,58.9c0,0.2,0.2,0.3,0.4,0.2c0.2-0.1,0.4-0.4,0.4-0.7c0-0.2-0.2-0.3-0.4-0.2
				C78.1,58.4,77.9,58.7,77.9,58.9z"/>
			<path class="st9" d="M76.5,59.7c0,0.2,0.2,0.3,0.4,0.2c0.2-0.1,0.4-0.4,0.4-0.7s-0.2-0.3-0.4-0.2C76.7,59.2,76.5,59.5,76.5,59.7z
				"/>
			<path class="st6" d="M75.1,60.5c0,0.2,0.2,0.3,0.4,0.2c0.2-0.1,0.4-0.4,0.4-0.7c0-0.2-0.2-0.3-0.4-0.2
				C75.3,60,75.1,60.2,75.1,60.5z"/>
			<path class="st9" d="M73.7,61.3c0,0.2,0.2,0.3,0.4,0.2c0.2-0.1,0.4-0.4,0.4-0.7c0-0.2-0.2-0.3-0.4-0.2
				C73.8,60.7,73.7,61,73.7,61.3z"/>
			<path class="st5" d="M67.7,65.2l0.8-0.4c0.1-0.1,0.2-0.2,0.2-0.4v-0.8c0-0.2-0.1-0.2-0.2-0.2l-0.8,0.4c-0.1,0.1-0.2,0.2-0.2,0.4
				V65C67.4,65.2,67.5,65.3,67.7,65.2z"/>
		</g>
		<g>
			<path class="st1" d="M66.5,73.1L84,63.6c0.4-0.2,0.7-0.8,0.7-1.3v-3.1c0-0.5-0.3-0.7-0.7-0.5l-17.5,9.5c-0.4,0.2-0.7,0.8-0.7,1.3
				v3.1C65.8,73.1,66.1,73.3,66.5,73.1z"/>
			<path class="st2" d="M67,72l16.5-8.9c0.2-0.1,0.4-0.4,0.4-0.6v-2.4c0-0.2-0.2-0.4-0.4-0.3L67,68.8c-0.2,0.1-0.4,0.4-0.4,0.6v2.4
				C66.6,72,66.8,72.1,67,72z"/>
			<path class="st5" d="M80,63.8l2.5-1.3c0.2-0.1,0.3-0.4,0.3-0.6l0,0c0-0.2-0.2-0.4-0.3-0.2L80,62.9c-0.2,0.1-0.3,0.4-0.3,0.6l0,0
				C79.7,63.8,79.8,63.9,80,63.8z"/>
			<path class="st7" d="M77.9,64.5c0,0.2,0.2,0.3,0.4,0.2c0.2-0.1,0.4-0.4,0.4-0.7c0-0.2-0.2-0.3-0.4-0.2
				C78.1,63.9,77.9,64.2,77.9,64.5z"/>
			<path class="st9" d="M76.5,65.2c0,0.2,0.2,0.3,0.4,0.2c0.2-0.1,0.4-0.4,0.4-0.7c0-0.2-0.2-0.3-0.4-0.2
				C76.7,64.7,76.5,65,76.5,65.2z"/>
			<path class="st6" d="M75.1,66c0,0.2,0.2,0.3,0.4,0.2c0.2-0.1,0.4-0.4,0.4-0.7c0-0.2-0.2-0.3-0.4-0.2C75.3,65.5,75.1,65.8,75.1,66
				z"/>
			<path class="st9" d="M73.7,66.8c0,0.2,0.2,0.3,0.4,0.2c0.2-0.1,0.4-0.4,0.4-0.7c0-0.2-0.2-0.3-0.4-0.2
				C73.8,66.2,73.7,66.5,73.7,66.8z"/>
			<path class="st5" d="M67.7,70.7l0.8-0.4c0.1-0.1,0.2-0.2,0.2-0.4V69c0-0.2-0.1-0.2-0.2-0.2l-0.8,0.4c-0.1,0.1-0.2,0.2-0.2,0.4
				v0.8C67.4,70.7,67.5,70.8,67.7,70.7z"/>
		</g>
		<g>
			<path class="st1" d="M66.5,78.6L84,69.2c0.4-0.2,0.7-0.8,0.7-1.3v-3.1c0-0.5-0.3-0.7-0.7-0.5l-17.5,9.5c-0.4,0.2-0.7,0.8-0.7,1.3
				v3.1C65.8,78.6,66.1,78.9,66.5,78.6z"/>
			<path class="st2" d="M67,77.5l16.5-8.9c0.2-0.1,0.4-0.4,0.4-0.6v-2.4c0-0.2-0.2-0.4-0.4-0.3L67,74.3c-0.2,0.1-0.4,0.4-0.4,0.6
				v2.4C66.6,77.5,66.8,77.7,67,77.5z"/>
			<path class="st5" d="M80,69.3l2.5-1.3c0.2-0.1,0.3-0.4,0.3-0.6v0c0-0.2-0.2-0.4-0.3-0.2L80,68.4c-0.2,0.1-0.3,0.4-0.3,0.6l0,0
				C79.7,69.3,79.8,69.4,80,69.3z"/>
			<path class="st9" d="M77.9,70c0,0.2,0.2,0.3,0.4,0.2c0.2-0.1,0.4-0.4,0.4-0.7c0-0.2-0.2-0.3-0.4-0.2C78.1,69.5,77.9,69.7,77.9,70
				z"/>
			<path class="st9" d="M76.5,70.8c0,0.2,0.2,0.3,0.4,0.2c0.2-0.1,0.4-0.4,0.4-0.7c0-0.2-0.2-0.3-0.4-0.2
				C76.7,70.2,76.5,70.5,76.5,70.8z"/>
			<path class="st6" d="M75.1,71.5c0,0.2,0.2,0.3,0.4,0.2c0.2-0.1,0.4-0.4,0.4-0.7c0-0.2-0.2-0.3-0.4-0.2
				C75.3,71,75.1,71.3,75.1,71.5z"/>
			<path class="st9" d="M73.7,72.3c0,0.2,0.2,0.3,0.4,0.2c0.2-0.1,0.4-0.4,0.4-0.7c0-0.2-0.2-0.3-0.4-0.2
				C73.8,71.8,73.7,72.1,73.7,72.3z"/>
			<path class="st4" d="M67.7,76.2l0.8-0.4c0.1-0.1,0.2-0.2,0.2-0.4v-0.8c0-0.2-0.1-0.2-0.2-0.2l-0.8,0.4c-0.1,0.1-0.2,0.2-0.2,0.4
				v0.8C67.4,76.2,67.5,76.3,67.7,76.2z"/>
		</g>
		<g>
			<path class="st1" d="M66.5,84.2L84,74.7c0.4-0.2,0.7-0.8,0.7-1.3v-3.1c0-0.5-0.3-0.7-0.7-0.5l-17.5,9.5c-0.4,0.2-0.7,0.8-0.7,1.3
				v3.1C65.8,84.1,66.1,84.4,66.5,84.2z"/>
			<path class="st2" d="M67,83.1l16.5-8.9c0.2-0.1,0.4-0.4,0.4-0.6v-2.4c0-0.2-0.2-0.4-0.4-0.3L67,79.8c-0.2,0.1-0.4,0.4-0.4,0.6
				v2.4C66.6,83.1,66.8,83.2,67,83.1z"/>
			<path class="st5" d="M80,74.8l2.5-1.3c0.2-0.1,0.3-0.4,0.3-0.6l0,0c0-0.2-0.2-0.4-0.3-0.2L80,73.9c-0.2,0.1-0.3,0.4-0.3,0.6l0,0
				C79.7,74.8,79.8,74.9,80,74.8z"/>
			<path class="st9" d="M77.9,75.5c0,0.2,0.2,0.3,0.4,0.2c0.2-0.1,0.4-0.4,0.4-0.7c0-0.2-0.2-0.3-0.4-0.2
				C78.1,75,77.9,75.3,77.9,75.5z"/>
			<path class="st7" d="M76.5,76.3c0,0.2,0.2,0.3,0.4,0.2c0.2-0.1,0.4-0.4,0.4-0.7c0-0.2-0.2-0.3-0.4-0.2
				C76.7,75.7,76.5,76,76.5,76.3z"/>
			<path class="st6" d="M75.1,77c0,0.2,0.2,0.3,0.4,0.2c0.2-0.1,0.4-0.4,0.4-0.7c0-0.2-0.2-0.3-0.4-0.2C75.3,76.5,75.1,76.8,75.1,77
				z"/>
			<path class="st7" d="M73.7,77.8c0,0.2,0.2,0.3,0.4,0.2c0.2-0.1,0.4-0.4,0.4-0.7c0-0.2-0.2-0.3-0.4-0.2
				C73.8,77.3,73.7,77.6,73.7,77.8z"/>
			<path class="st4" d="M67.7,81.8l0.8-0.4c0.1-0.1,0.2-0.2,0.2-0.4v-0.8c0-0.2-0.1-0.2-0.2-0.2l-0.8,0.4c-0.1,0.1-0.2,0.2-0.2,0.4
				v0.8C67.4,81.7,67.5,81.8,67.7,81.8z"/>
		</g>
		<g>
			<path class="st1" d="M66.5,89.7L84,80.2c0.4-0.2,0.7-0.8,0.7-1.3v-3.1c0-0.5-0.3-0.7-0.7-0.5l-17.5,9.5c-0.4,0.2-0.7,0.8-0.7,1.3
				v3.1C65.8,89.7,66.1,89.9,66.5,89.7z"/>
			<path class="st2" d="M67,88.6l16.5-8.9c0.2-0.1,0.4-0.4,0.4-0.6v-2.4c0-0.2-0.2-0.4-0.4-0.3L67,85.3c-0.2,0.1-0.4,0.4-0.4,0.6
				v2.4C66.6,88.6,66.8,88.7,67,88.6z"/>
			<path class="st5" d="M80,80.3l2.5-1.3c0.2-0.1,0.3-0.4,0.3-0.6l0,0c0-0.2-0.2-0.4-0.3-0.2L80,79.4c-0.2,0.1-0.3,0.4-0.3,0.6l0,0
				C79.7,80.3,79.8,80.4,80,80.3z"/>
			<path class="st9" d="M77.9,81c0,0.2,0.2,0.3,0.4,0.2c0.2-0.1,0.4-0.4,0.4-0.7c0-0.2-0.2-0.3-0.4-0.2C78.1,80.5,77.9,80.8,77.9,81
				z"/>
			<path class="st9" d="M76.5,81.8c0,0.2,0.2,0.3,0.4,0.2c0.2-0.1,0.4-0.4,0.4-0.7c0-0.2-0.2-0.3-0.4-0.2
				C76.7,81.3,76.5,81.6,76.5,81.8z"/>
			<path class="st6" d="M75.1,82.6c0,0.2,0.2,0.3,0.4,0.2c0.2-0.1,0.4-0.4,0.4-0.7c0-0.2-0.2-0.3-0.4-0.2
				C75.3,82,75.1,82.3,75.1,82.6z"/>
			<path class="st9" d="M73.7,83.3c0,0.2,0.2,0.3,0.4,0.2c0.2-0.1,0.4-0.4,0.4-0.7c0-0.2-0.2-0.3-0.4-0.2
				C73.8,82.8,73.7,83.1,73.7,83.3z"/>
			<path class="st5" d="M67.7,87.3l0.8-0.4c0.1-0.1,0.2-0.2,0.2-0.4v-0.8c0-0.2-0.1-0.2-0.2-0.2l-0.8,0.4c-0.1,0.1-0.2,0.2-0.2,0.4
				v0.8C67.4,87.3,67.5,87.3,67.7,87.3z"/>
		</g>
		<g>
			<path class="st1" d="M66.5,95.2L84,85.7c0.4-0.2,0.7-0.8,0.7-1.3v-3.1c0-0.5-0.3-0.7-0.7-0.5l-17.5,9.5c-0.4,0.2-0.7,0.8-0.7,1.3
				v3.1C65.8,95.2,66.1,95.4,66.5,95.2z"/>
			<path class="st2" d="M67,94.1l16.5-8.9c0.2-0.1,0.4-0.4,0.4-0.6v-2.4c0-0.2-0.2-0.4-0.4-0.3L67,90.8c-0.2,0.1-0.4,0.4-0.4,0.6
				v2.4C66.6,94.1,66.8,94.2,67,94.1z"/>
			<path class="st5" d="M80,85.8l2.5-1.3c0.2-0.1,0.3-0.4,0.3-0.6l0,0c0-0.2-0.2-0.4-0.3-0.2L80,85c-0.2,0.1-0.3,0.4-0.3,0.6l0,0
				C79.7,85.8,79.8,85.9,80,85.8z"/>
			<ellipse transform="matrix(0.5503 -0.835 0.835 0.5503 -36.9786 104.1914)" class="st4" cx="78.2" cy="86.4" rx="1" ry="0.6"/>
			<path class="st9" d="M74.5,88.5c0,0.2,0.2,0.3,0.4,0.2c0.2-0.1,0.4-0.4,0.4-0.7c0-0.2-0.2-0.3-0.4-0.2
				C74.7,87.9,74.5,88.2,74.5,88.5z"/>
			<path class="st6" d="M73.1,89.2c0,0.2,0.2,0.3,0.4,0.2c0.2-0.1,0.4-0.4,0.4-0.7c0-0.2-0.2-0.3-0.4-0.2
				C73.3,88.7,73.1,89,73.1,89.2z"/>
			<path class="st9" d="M71.7,90c0,0.2,0.2,0.3,0.4,0.2c0.2-0.1,0.4-0.4,0.4-0.7c0-0.2-0.2-0.3-0.4-0.2C71.9,89.5,71.7,89.8,71.7,90
				z"/>
			<path class="st4" d="M67.7,92.8l0.8-0.4c0.1-0.1,0.2-0.2,0.2-0.4v-0.8c0-0.2-0.1-0.2-0.2-0.2l-0.8,0.4c-0.1,0.1-0.2,0.2-0.2,0.4
				v0.8C67.4,92.8,67.5,92.9,67.7,92.8z"/>
		</g>
	</g>
	<g>
		<g>
			<g>
				<path class="st0" d="M40.3,115.2L59,105.1c0.7-0.4,0.6-1-0.2-1.5L48,97.8c-0.8-0.4-2-0.5-2.7-0.1l-18.7,10.1
					c-0.7,0.4-0.6,1,0.2,1.5l10.8,5.9C38.4,115.5,39.6,115.5,40.3,115.2z"/>
				<path class="st1" d="M25,104.3L25,104.3V63.1l17.3-4.3l3.2-1.7c0.7-0.4,2-0.3,2.9,0.1l3,1.6l9.3,0l-2.7,39.8
					c0,0.3-0.1,0.5-0.5,0.7l-17.3,12.3c-0.7,0.4-2,0.3-2.9-0.1l-11.5-6.3C25.2,105,25,104.7,25,104.3z"/>
				<path class="st2" d="M46.9,56.8c0.5,0,1.1,0.1,1.5,0.4l3,1.6l9.3,0v41.3c0,0.3-0.1,0.5-0.5,0.7l-20,10.8
					c-0.4,0.2-0.8,0.3-1.3,0.3l-0.2-41.6L46.9,56.8z"/>
				<path class="st3" d="M39.9,111.8c-0.6,0.3-1.5,0.2-2.3,0V69.9h2.3V111.8z"/>
				<path class="st2" d="M40.1,70.4l20-10.8c0.7-0.4,0.6-1.1-0.2-1.6l-11.5-6.3c-0.8-0.5-2.1-0.5-2.9-0.1l-20,10.8
					c-0.7,0.4-0.6,1.1,0.2,1.6l11.5,6.3C38.1,70.7,39.4,70.8,40.1,70.4z"/>
				<path class="st4" d="M25.7,63.2l11.5,6.3c0.8,0.5,2.1,0.5,2.9,0.1l20-10.8c0.2-0.1,0.3-0.2,0.4-0.3c0.3,0.4,0.1,0.8-0.4,1.1
					l-20,10.8c-0.7,0.4-2,0.3-2.9-0.1L25.7,64c-0.7-0.4-0.9-0.9-0.6-1.3C25.3,62.9,25.4,63.1,25.7,63.2z"/>
				<g>
					<path class="st5" d="M39.5,66l13.3-7.3c0.3-0.2,0.3-0.5-0.1-0.7L47.4,55c-0.4-0.2-1-0.2-1.3-0.1l-13.3,7.3
						c-0.3,0.2-0.3,0.5,0.1,0.7l5.4,2.9C38.6,66.2,39.2,66.2,39.5,66z"/>
					<g>
						<path class="st6" d="M46.7,59l0.8-0.4c0,0,0-0.1,0-0.1l-0.7-0.4c-0.1,0-0.1,0-0.2,0l-0.8,0.4c0,0,0,0.1,0,0.1l0.7,0.4
							C46.6,59.1,46.7,59.1,46.7,59z"/>
						<path class="st6" d="M44.2,60.4l0.8-0.4c0,0,0-0.1,0-0.1l-0.7-0.4c-0.1,0-0.1,0-0.2,0l-0.8,0.4c0,0,0,0.1,0,0.1l0.7,0.4
							C44,60.5,44.1,60.5,44.2,60.4z"/>
						<path class="st6" d="M41.6,61.8l0.8-0.4c0,0,0-0.1,0-0.1l-0.7-0.4c-0.1,0-0.1,0-0.2,0l-0.8,0.4c0,0,0,0.1,0,0.1l0.7,0.4
							C41.4,61.9,41.5,61.9,41.6,61.8z"/>
						<path class="st6" d="M39,63.2l0.8-0.4c0,0,0-0.1,0-0.1L39,62.3c-0.1,0-0.1,0-0.2,0L38,62.7c0,0,0,0.1,0,0.1l0.7,0.4
							C38.9,63.3,38.9,63.3,39,63.2z"/>
					</g>
					<path class="st1" d="M52.9,58.7L52.9,58.7C52.8,58.7,52.8,58.7,52.9,58.7l-5.5-3c-0.4-0.2-1-0.2-1.3-0.1L32.7,63
						c-0.3-0.2-0.3-0.5,0-0.7L46,55c0.3-0.2,0.9-0.2,1.3,0.1l5.4,2.9C53.2,58.2,53.2,58.5,52.9,58.7z"/>
				</g>
			</g>
			<g>
				<path class="st5" d="M35,78.5l-7.6-4.1c-0.4-0.2-0.8-0.9-0.8-1.4v-2.6c0-0.5,0.3-0.8,0.8-0.6L35,74c0.4,0.2,0.8,0.9,0.8,1.4V78
					C35.8,78.5,35.4,78.8,35,78.5z"/>
				<path class="st7" d="M27,69.9c-0.1,0.1-0.2,0.3-0.2,0.5V73c0,0.5,0.3,1.2,0.8,1.4l7.6,4.1c0.1,0.1,0.3,0.1,0.4,0.1
					c-0.1,0.1-0.3,0.1-0.6,0l-7.6-4.1c-0.4-0.2-0.8-0.9-0.8-1.4v-2.6C26.6,70.1,26.8,69.9,27,69.9z"/>
				<g>
					<path class="st8" d="M32.7,75.8L32,75.4c-0.1-0.1-0.2-0.2-0.2-0.3v-0.7c0-0.1,0.1-0.2,0.2-0.1l0.7,0.4c0.1,0.1,0.2,0.2,0.2,0.3
						v0.7C32.9,75.8,32.8,75.8,32.7,75.8z"/>
					<path class="st7" d="M30.4,74.5l-0.7-0.4c-0.1-0.1-0.2-0.2-0.2-0.3v-0.7c0-0.1,0.1-0.2,0.2-0.1l0.7,0.4
						c0.1,0.1,0.2,0.2,0.2,0.3v0.7C30.5,74.5,30.5,74.5,30.4,74.5z"/>
				</g>
			</g>
			<g>
				<path class="st5" d="M35,97.1L27.4,93c-0.4-0.2-0.8-0.9-0.8-1.4V89c0-0.5,0.3-0.8,0.8-0.6l7.6,4.1c0.4,0.2,0.8,0.9,0.8,1.4v2.6
					C35.8,97.1,35.4,97.3,35,97.1z"/>
				<path class="st7" d="M27,88.4c-0.1,0.1-0.2,0.3-0.2,0.5v2.6c0,0.5,0.3,1.2,0.8,1.4l7.6,4.1c0.1,0.1,0.3,0.1,0.4,0.1
					c-0.1,0.1-0.3,0.1-0.6,0L27.4,93c-0.4-0.2-0.8-0.9-0.8-1.4V89C26.6,88.6,26.8,88.4,27,88.4z"/>
				<g>
					<path class="st8" d="M32.7,94.3L32,93.9c-0.1-0.1-0.2-0.2-0.2-0.3v-0.7c0-0.1,0.1-0.2,0.2-0.1l0.7,0.4c0.1,0.1,0.2,0.2,0.2,0.3
						v0.7C32.9,94.3,32.8,94.3,32.7,94.3z"/>
					<path class="st7" d="M30.4,93l-0.7-0.4c-0.1-0.1-0.2-0.2-0.2-0.3v-0.7c0-0.1,0.1-0.2,0.2-0.1l0.7,0.4c0.1,0.1,0.2,0.2,0.2,0.3
						v0.7C30.5,93,30.5,93.1,30.4,93z"/>
				</g>
			</g>
			<g>
				<path class="st5" d="M35,106.3l-7.6-4.1c-0.4-0.2-0.8-0.9-0.8-1.4v-2.6c0-0.5,0.3-0.8,0.8-0.6l7.6,4.1c0.4,0.2,0.8,0.9,0.8,1.4
					v2.6C35.8,106.3,35.4,106.6,35,106.3z"/>
				<path class="st7" d="M27,97.6c-0.1,0.1-0.2,0.3-0.2,0.5v2.6c0,0.5,0.3,1.2,0.8,1.4l7.6,4.1c0.1,0.1,0.3,0.1,0.4,0.1
					c-0.1,0.1-0.3,0.1-0.6,0l-7.6-4.1c-0.4-0.2-0.8-0.9-0.8-1.4v-2.6C26.6,97.9,26.8,97.7,27,97.6z"/>
				<g>
					<path class="st8" d="M32.7,103.5l-0.7-0.4c-0.1-0.1-0.2-0.2-0.2-0.3v-0.7c0-0.1,0.1-0.2,0.2-0.1l0.7,0.4
						c0.1,0.1,0.2,0.2,0.2,0.3v0.7C32.9,103.5,32.8,103.6,32.7,103.5z"/>
					<path class="st7" d="M30.4,102.3l-0.7-0.4c-0.1-0.1-0.2-0.2-0.2-0.3v-0.7c0-0.1,0.1-0.2,0.2-0.1l0.7,0.4
						c0.1,0.1,0.2,0.2,0.2,0.3v0.7C30.5,102.3,30.5,102.3,30.4,102.3z"/>
				</g>
			</g>
			<g>
				<path class="st5" d="M35,87.8l-7.6-4.1c-0.4-0.2-0.8-0.9-0.8-1.4v-2.6c0-0.5,0.3-0.8,0.8-0.6l7.6,4.1c0.4,0.2,0.8,0.9,0.8,1.4
					v2.6C35.8,87.8,35.4,88,35,87.8z"/>
				<path class="st7" d="M27,79.1c-0.1,0.1-0.2,0.3-0.2,0.5v2.6c0,0.5,0.3,1.2,0.8,1.4l7.6,4.1c0.1,0.1,0.3,0.1,0.4,0.1
					c-0.1,0.1-0.3,0.1-0.6,0l-7.6-4.1c-0.4-0.2-0.8-0.9-0.8-1.4v-2.6C26.6,79.4,26.8,79.2,27,79.1z"/>
				<g>
					<path class="st8" d="M32.7,85L32,84.6c-0.1-0.1-0.2-0.2-0.2-0.3v-0.7c0-0.1,0.1-0.2,0.2-0.1l0.7,0.4c0.1,0.1,0.2,0.2,0.2,0.3
						v0.7C32.9,85,32.8,85.1,32.7,85z"/>
					<path class="st7" d="M30.4,83.8l-0.7-0.4c-0.1-0.1-0.2-0.2-0.2-0.3v-0.7c0-0.1,0.1-0.2,0.2-0.1l0.7,0.4
						c0.1,0.1,0.2,0.2,0.2,0.3v0.7C30.5,83.7,30.5,83.8,30.4,83.8z"/>
				</g>
			</g>
		</g>
		<g>
			<path class="st1" d="M41.6,75.9l17.5-9.5c0.4-0.2,0.7-0.8,0.7-1.3v-3.2c0-0.5-0.3-0.7-0.7-0.5L41.6,71c-0.4,0.2-0.7,0.8-0.7,1.3
				v3.2C40.9,75.9,41.2,76.1,41.6,75.9z"/>
			<path class="st2" d="M42.1,74.8l16.5-9c0.2-0.1,0.4-0.4,0.4-0.6v-2.4c0-0.3-0.2-0.4-0.4-0.3l-16.5,9c-0.2,0.1-0.4,0.4-0.4,0.6
				v2.4C41.7,74.8,41.9,74.9,42.1,74.8z"/>
			<path class="st5" d="M55.1,66.5l2.5-1.3c0.2-0.1,0.3-0.4,0.3-0.6l0,0c0-0.2-0.2-0.4-0.3-0.2l-2.5,1.3c-0.2,0.1-0.3,0.4-0.3,0.6
				l0,0C54.8,66.5,54.9,66.6,55.1,66.5z"/>
			<path class="st9" d="M53,67.2c0,0.2,0.2,0.3,0.4,0.2c0.2-0.1,0.4-0.4,0.4-0.7c0-0.2-0.2-0.3-0.4-0.2C53.2,66.7,53,67,53,67.2z"/>
			<path class="st9" d="M51.6,68c0,0.2,0.2,0.3,0.4,0.2c0.2-0.1,0.4-0.4,0.4-0.7c0-0.2-0.2-0.3-0.4-0.2C51.8,67.4,51.6,67.7,51.6,68
				z"/>
			<path class="st6" d="M50.2,68.8c0,0.2,0.2,0.3,0.4,0.2c0.2-0.1,0.4-0.4,0.4-0.7s-0.2-0.3-0.4-0.2C50.4,68.2,50.2,68.5,50.2,68.8z
				"/>
			<path class="st9" d="M48.8,69.5c0,0.2,0.2,0.3,0.4,0.2c0.2-0.1,0.4-0.4,0.4-0.7s-0.2-0.3-0.4-0.2C48.9,69,48.8,69.3,48.8,69.5z"
				/>
			<path class="st5" d="M42.8,73.5l0.8-0.5c0.1-0.1,0.2-0.2,0.2-0.4v-0.8c0-0.2-0.1-0.2-0.2-0.2l-0.8,0.5c-0.1,0.1-0.2,0.2-0.2,0.4
				v0.8C42.5,73.5,42.6,73.6,42.8,73.5z"/>
		</g>
		<g>
			<path class="st1" d="M41.6,81.5l17.5-9.5c0.4-0.2,0.7-0.8,0.7-1.3v-3.2c0-0.5-0.3-0.7-0.7-0.5l-17.5,9.5
				c-0.4,0.2-0.7,0.8-0.7,1.3V81C40.9,81.5,41.2,81.7,41.6,81.5z"/>
			<path class="st2" d="M42.1,80.4l16.5-9c0.2-0.1,0.4-0.4,0.4-0.6v-2.4c0-0.3-0.2-0.4-0.4-0.3l-16.5,9c-0.2,0.1-0.4,0.4-0.4,0.6
				v2.4C41.7,80.4,41.9,80.5,42.1,80.4z"/>
			<path class="st5" d="M55.1,72.1l2.5-1.3c0.2-0.1,0.3-0.4,0.3-0.6l0,0c0-0.2-0.2-0.4-0.3-0.2l-2.5,1.3c-0.2,0.1-0.3,0.4-0.3,0.6
				l0,0C54.8,72,54.9,72.2,55.1,72.1z"/>
			<path class="st7" d="M53,72.8c0,0.2,0.2,0.3,0.4,0.2c0.2-0.1,0.4-0.4,0.4-0.7c0-0.2-0.2-0.3-0.4-0.2C53.2,72.2,53,72.5,53,72.8z"
				/>
			<path class="st9" d="M51.6,73.5c0,0.2,0.2,0.3,0.4,0.2c0.2-0.1,0.4-0.4,0.4-0.7s-0.2-0.3-0.4-0.2C51.8,73,51.6,73.3,51.6,73.5z"
				/>
			<path class="st6" d="M50.2,74.3c0,0.2,0.2,0.3,0.4,0.2c0.2-0.1,0.4-0.4,0.4-0.7c0-0.2-0.2-0.3-0.4-0.2
				C50.4,73.8,50.2,74.1,50.2,74.3z"/>
			<path class="st9" d="M48.8,75.1c0,0.2,0.2,0.3,0.4,0.2c0.2-0.1,0.4-0.4,0.4-0.7c0-0.2-0.2-0.3-0.4-0.2
				C48.9,74.6,48.8,74.8,48.8,75.1z"/>
			<path class="st5" d="M42.8,79.1l0.8-0.5c0.1-0.1,0.2-0.2,0.2-0.4v-0.8c0-0.2-0.1-0.2-0.2-0.2l-0.8,0.5c-0.1,0.1-0.2,0.2-0.2,0.4
				v0.8C42.5,79.1,42.6,79.1,42.8,79.1z"/>
		</g>
		<g>
			<path class="st1" d="M41.6,87l17.5-9.5c0.4-0.2,0.7-0.8,0.7-1.3v-3.2c0-0.5-0.3-0.7-0.7-0.5l-17.5,9.5c-0.4,0.2-0.7,0.8-0.7,1.3
				v3.2C40.9,87,41.2,87.3,41.6,87z"/>
			<path class="st2" d="M42.1,85.9l16.5-9c0.2-0.1,0.4-0.4,0.4-0.6v-2.4c0-0.3-0.2-0.4-0.4-0.3l-16.5,9c-0.2,0.1-0.4,0.4-0.4,0.6
				v2.4C41.7,85.9,41.9,86,42.1,85.9z"/>
			<path class="st5" d="M55.1,77.6l2.5-1.3c0.2-0.1,0.3-0.4,0.3-0.6l0,0c0-0.2-0.2-0.4-0.3-0.2l-2.5,1.3c-0.2,0.1-0.3,0.4-0.3,0.6
				l0,0C54.8,77.6,54.9,77.7,55.1,77.6z"/>
			<path class="st7" d="M53,78.3c0,0.2,0.2,0.3,0.4,0.2c0.2-0.1,0.4-0.4,0.4-0.7c0-0.2-0.2-0.3-0.4-0.2C53.2,77.8,53,78.1,53,78.3z"
				/>
			<path class="st9" d="M51.6,79.1c0,0.2,0.2,0.3,0.4,0.2c0.2-0.1,0.4-0.4,0.4-0.7s-0.2-0.3-0.4-0.2C51.8,78.6,51.6,78.9,51.6,79.1z
				"/>
			<path class="st6" d="M50.2,79.9c0,0.2,0.2,0.3,0.4,0.2c0.2-0.1,0.4-0.4,0.4-0.7c0-0.2-0.2-0.3-0.4-0.2
				C50.4,79.3,50.2,79.6,50.2,79.9z"/>
			<path class="st9" d="M48.8,80.6c0,0.2,0.2,0.3,0.4,0.2c0.2-0.1,0.4-0.4,0.4-0.7c0-0.2-0.2-0.3-0.4-0.2
				C48.9,80.1,48.8,80.4,48.8,80.6z"/>
			<path class="st5" d="M42.8,84.6l0.8-0.5c0.1-0.1,0.2-0.2,0.2-0.4v-0.8c0-0.2-0.1-0.2-0.2-0.2l-0.8,0.5c-0.1,0.1-0.2,0.2-0.2,0.4
				v0.8C42.5,84.6,42.6,84.7,42.8,84.6z"/>
		</g>
		<g>
			<path class="st1" d="M41.6,92.6l17.5-9.5c0.4-0.2,0.7-0.8,0.7-1.3v-3.2c0-0.5-0.3-0.7-0.7-0.5l-17.5,9.5
				c-0.4,0.2-0.7,0.8-0.7,1.3v3.2C40.9,92.6,41.2,92.8,41.6,92.6z"/>
			<path class="st2" d="M42.1,91.5l16.5-9c0.2-0.1,0.4-0.4,0.4-0.6v-2.4c0-0.3-0.2-0.4-0.4-0.3l-16.5,9c-0.2,0.1-0.4,0.4-0.4,0.6
				v2.4C41.7,91.5,41.9,91.6,42.1,91.5z"/>
			<path class="st5" d="M55.1,83.2l2.5-1.3c0.2-0.1,0.3-0.4,0.3-0.6v0c0-0.2-0.2-0.4-0.3-0.2l-2.5,1.3c-0.2,0.1-0.3,0.4-0.3,0.6l0,0
				C54.8,83.2,54.9,83.3,55.1,83.2z"/>
			<path class="st9" d="M53,83.9c0,0.2,0.2,0.3,0.4,0.2c0.2-0.1,0.4-0.4,0.4-0.7c0-0.2-0.2-0.3-0.4-0.2C53.2,83.3,53,83.6,53,83.9z"
				/>
			<path class="st9" d="M51.6,84.7c0,0.2,0.2,0.3,0.4,0.2c0.2-0.1,0.4-0.4,0.4-0.7c0-0.2-0.2-0.3-0.4-0.2
				C51.8,84.1,51.6,84.4,51.6,84.7z"/>
			<path class="st6" d="M50.2,85.4c0,0.2,0.2,0.3,0.4,0.2c0.2-0.1,0.4-0.4,0.4-0.7s-0.2-0.3-0.4-0.2C50.4,84.9,50.2,85.2,50.2,85.4z
				"/>
			<path class="st9" d="M48.8,86.2c0,0.2,0.2,0.3,0.4,0.2c0.2-0.1,0.4-0.4,0.4-0.7c0-0.2-0.2-0.3-0.4-0.2
				C48.9,85.7,48.8,86,48.8,86.2z"/>
			<path class="st4" d="M42.8,90.2l0.8-0.5c0.1-0.1,0.2-0.2,0.2-0.4v-0.8c0-0.2-0.1-0.2-0.2-0.2l-0.8,0.5c-0.1,0.1-0.2,0.2-0.2,0.4
				V90C42.5,90.2,42.6,90.2,42.8,90.2z"/>
		</g>
		<g>
			<path class="st1" d="M41.6,98.2l17.5-9.5c0.4-0.2,0.7-0.8,0.7-1.3v-3.2c0-0.5-0.3-0.7-0.7-0.5l-17.5,9.5
				c-0.4,0.2-0.7,0.8-0.7,1.3v3.2C40.9,98.1,41.2,98.4,41.6,98.2z"/>
			<path class="st2" d="M42.1,97.1l16.5-9c0.2-0.1,0.4-0.4,0.4-0.6V85c0-0.3-0.2-0.4-0.4-0.3l-16.5,9c-0.2,0.1-0.4,0.4-0.4,0.6v2.4
				C41.7,97,41.9,97.2,42.1,97.1z"/>
			<path class="st5" d="M55.1,88.7l2.5-1.3c0.2-0.1,0.3-0.4,0.3-0.6l0,0c0-0.2-0.2-0.4-0.3-0.2l-2.5,1.3c-0.2,0.1-0.3,0.4-0.3,0.6
				l0,0C54.8,88.7,54.9,88.8,55.1,88.7z"/>
			<path class="st9" d="M53,89.4c0,0.2,0.2,0.3,0.4,0.2c0.2-0.1,0.4-0.4,0.4-0.7c0-0.2-0.2-0.3-0.4-0.2C53.2,88.9,53,89.2,53,89.4z"
				/>
			<path class="st7" d="M51.6,90.2c0,0.2,0.2,0.3,0.4,0.2c0.2-0.1,0.4-0.4,0.4-0.7c0-0.2-0.2-0.3-0.4-0.2
				C51.8,89.7,51.6,90,51.6,90.2z"/>
			<path class="st6" d="M50.2,91c0,0.2,0.2,0.3,0.4,0.2c0.2-0.1,0.4-0.4,0.4-0.7s-0.2-0.3-0.4-0.2C50.4,90.5,50.2,90.7,50.2,91z"/>
			<path class="st7" d="M48.8,91.8c0,0.2,0.2,0.3,0.4,0.2c0.2-0.1,0.4-0.4,0.4-0.7c0-0.2-0.2-0.3-0.4-0.2
				C48.9,91.2,48.8,91.5,48.8,91.8z"/>
			<path class="st4" d="M42.8,95.7l0.8-0.5c0.1-0.1,0.2-0.2,0.2-0.4V94c0-0.2-0.1-0.2-0.2-0.2l-0.8,0.5c-0.1,0.1-0.2,0.2-0.2,0.4
				v0.8C42.5,95.7,42.6,95.8,42.8,95.7z"/>
		</g>
		<g>
			<path class="st1" d="M41.6,103.7l17.5-9.5c0.4-0.2,0.7-0.8,0.7-1.3v-3.2c0-0.5-0.3-0.7-0.7-0.5l-17.5,9.5
				c-0.4,0.2-0.7,0.8-0.7,1.3v3.2C40.9,103.7,41.2,103.9,41.6,103.7z"/>
			<path class="st2" d="M42.1,102.6l16.5-9c0.2-0.1,0.4-0.4,0.4-0.6v-2.4c0-0.3-0.2-0.4-0.4-0.3l-16.5,9c-0.2,0.1-0.4,0.4-0.4,0.6
				v2.4C41.7,102.6,41.9,102.7,42.1,102.6z"/>
			<path class="st5" d="M55.1,94.3l2.5-1.3c0.2-0.1,0.3-0.4,0.3-0.6l0,0c0-0.2-0.2-0.4-0.3-0.2l-2.5,1.3c-0.2,0.1-0.3,0.4-0.3,0.6
				l0,0C54.8,94.3,54.9,94.4,55.1,94.3z"/>
			<path class="st9" d="M53,95c0,0.2,0.2,0.3,0.4,0.2c0.2-0.1,0.4-0.4,0.4-0.7c0-0.2-0.2-0.3-0.4-0.2C53.2,94.5,53,94.8,53,95z"/>
			<path class="st9" d="M51.6,95.8c0,0.2,0.2,0.3,0.4,0.2c0.2-0.1,0.4-0.4,0.4-0.7S52.2,95,52,95.1C51.8,95.2,51.6,95.5,51.6,95.8z"
				/>
			<path class="st6" d="M50.2,96.6c0,0.2,0.2,0.3,0.4,0.2c0.2-0.1,0.4-0.4,0.4-0.7c0-0.2-0.2-0.3-0.4-0.2
				C50.4,96,50.2,96.3,50.2,96.6z"/>
			<path class="st9" d="M48.8,97.3c0,0.2,0.2,0.3,0.4,0.2c0.2-0.1,0.4-0.4,0.4-0.7c0-0.2-0.2-0.3-0.4-0.2
				C48.9,96.8,48.8,97.1,48.8,97.3z"/>
			<path class="st5" d="M42.8,101.3l0.8-0.5c0.1-0.1,0.2-0.2,0.2-0.4v-0.8c0-0.2-0.1-0.2-0.2-0.2l-0.8,0.5c-0.1,0.1-0.2,0.2-0.2,0.4
				v0.8C42.5,101.3,42.6,101.4,42.8,101.3z"/>
		</g>
		<g>
			<path class="st1" d="M41.6,109.3l17.5-9.5c0.4-0.2,0.7-0.8,0.7-1.3v-3.2c0-0.5-0.3-0.7-0.7-0.5l-17.5,9.5
				c-0.4,0.2-0.7,0.8-0.7,1.3v3.2C40.9,109.3,41.2,109.5,41.6,109.3z"/>
			<path class="st2" d="M42.1,108.2l16.5-9c0.2-0.1,0.4-0.4,0.4-0.6v-2.4c0-0.3-0.2-0.4-0.4-0.3l-16.5,9c-0.2,0.1-0.4,0.4-0.4,0.6
				v2.4C41.7,108.2,41.9,108.3,42.1,108.2z"/>
			<path class="st5" d="M55.1,99.9l2.5-1.3c0.2-0.1,0.3-0.4,0.3-0.6l0,0c0-0.2-0.2-0.4-0.3-0.2L55.1,99c-0.2,0.1-0.3,0.4-0.3,0.6
				l0,0C54.8,99.8,54.9,100,55.1,99.9z"/>
			<ellipse transform="matrix(0.5443 -0.8389 0.8389 0.5443 -59.9529 90.5159)" class="st4" cx="53.3" cy="100.4" rx="1" ry="0.6"/>
			<path class="st9" d="M49.6,102.5c0,0.2,0.2,0.3,0.4,0.2c0.2-0.1,0.4-0.4,0.4-0.7c0-0.2-0.2-0.3-0.4-0.2
				C49.8,102,49.6,102.2,49.6,102.5z"/>
			<path class="st6" d="M48.2,103.3c0,0.2,0.2,0.3,0.4,0.2c0.2-0.1,0.4-0.4,0.4-0.7s-0.2-0.3-0.4-0.2
				C48.4,102.7,48.2,103,48.2,103.3z"/>
			<path class="st9" d="M46.8,104c0,0.2,0.2,0.3,0.4,0.2c0.2-0.1,0.4-0.4,0.4-0.7c0-0.2-0.2-0.3-0.4-0.2
				C47,103.5,46.8,103.8,46.8,104z"/>
			<path class="st4" d="M42.8,106.9l0.8-0.5c0.1-0.1,0.2-0.2,0.2-0.4v-0.8c0-0.2-0.1-0.2-0.2-0.2l-0.8,0.5c-0.1,0.1-0.2,0.2-0.2,0.4
				v0.8C42.5,106.9,42.6,106.9,42.8,106.9z"/>
		</g>
	</g>
	<path class="st5" d="M70.9,105.1c0.1,0,0.2,0,0.2-0.1c0.1-0.1,0-0.3-0.1-0.3l-3.5-1.9c-0.4-0.2-0.6-0.6-0.6-1.1V100
		c0-0.1-0.1-0.2-0.3-0.2c-0.1,0-0.3,0.1-0.3,0.2v1.7c0,0.6,0.3,1.2,0.9,1.5l3.5,1.9C70.8,105.1,70.9,105.1,70.9,105.1z"/>
	<g>
		<g>
			<g>
				<g>
					<polygon class="st10" points="70,105.6 71.1,103.8 75,106 74,107.7 					"/>
					<path class="st11" d="M69.8,105.1c0-0.5,0.3-1,0.7-1.2c0.4-0.2,0.7,0,0.7,0.4c0,0.5-0.3,1-0.7,1.2
						C70.1,105.7,69.8,105.5,69.8,105.1z"/>
				</g>
				<g>
					<polygon class="st8" points="73,107.9 74.7,105.1 80.9,108.4 79.2,111.3 					"/>
					<path class="st8" d="M74.4,105.6l-1.3-0.7c-0.6,0.4-1,1.1-1.1,1.7l1.3,0.7C73.9,107,74.3,106.3,74.4,105.6z"/>
					<path class="st10" d="M72.6,107.1c0-0.7,0.5-1.6,1.2-2c0.7-0.4,1.2-0.1,1.2,0.7c0,0.7-0.5,1.6-1.2,2
						C73.1,108.2,72.6,107.9,72.6,107.1z"/>
				</g>
			</g>
		</g>
		<path class="st12" d="M71,104.6c-0.2-0.1-0.2-0.3,0-0.4c0.2-0.1,0.5-0.1,0.7,0s0.2,0.3,0,0.4C71.6,104.7,71.2,104.7,71,104.6z"/>
	</g>
	<path class="st0" d="M124.4,105.5c0,0,0.1,0,0.1,0l3-1.7c0.3-0.1,0.4-0.4,0.4-0.7c0-0.3-0.2-0.5-0.4-0.7l-19.7-10.3
		c-1.8-0.9-2.9-2.8-2.9-4.7V64.3c0-0.4,0.2-0.8,0.6-1c0.4-0.2,0.8-0.2,1.2,0l6.6,3.4c0.1,0.1,0.3,0,0.3-0.1c0.1-0.1,0-0.3-0.1-0.3
		l-6.6-3.4c-0.5-0.3-1.2-0.3-1.7,0c-0.5,0.3-0.8,0.8-0.8,1.4v23.3c0,2.1,1.2,4.1,3.2,5.1l19.7,10.3c0.1,0.1,0.2,0.2,0.2,0.2
		c0,0,0,0.2-0.1,0.2l-3,1.7c-0.1,0.1-0.2,0.2-0.1,0.3C124.2,105.5,124.3,105.5,124.4,105.5z"/>
	<g>
		<g>
			<g>
				<g>
					<polygon class="st10" points="111.5,66.7 112.5,65 116.5,67.1 115.4,68.9 					"/>
					<path class="st11" d="M111.2,66.2c0-0.5,0.3-1,0.7-1.2c0.4-0.2,0.7,0,0.7,0.4c0,0.5-0.3,1-0.7,1.2
						C111.6,66.9,111.2,66.7,111.2,66.2z"/>
				</g>
				<g>
					<polygon class="st10" points="114.4,69 116.1,66.2 122.3,69.6 120.6,72.4 					"/>
					<path class="st8" d="M115.8,66.8l-1.3-0.7c-0.6,0.4-1,1.1-1.1,1.7l1.3,0.7C115.3,68.1,115.8,67.4,115.8,66.8z"/>
					<path class="st11" d="M114.1,68.3c0-0.7,0.5-1.6,1.2-2c0.7-0.4,1.2-0.1,1.2,0.7c0,0.7-0.5,1.6-1.2,2
						C114.6,69.3,114.1,69,114.1,68.3z"/>
				</g>
			</g>
		</g>
		<path class="st12" d="M112.5,65.8c-0.2-0.1-0.2-0.3,0-0.4c0.2-0.1,0.5-0.1,0.7,0s0.2,0.3,0,0.4C113,65.9,112.7,65.9,112.5,65.8z"
			/>
	</g>
	<g>
		<g>
			<g>
				<g>
					<polygon class="st10" points="126.4,105.3 125.3,103.5 121.4,105.7 122.4,107.4 					"/>
					<path class="st11" d="M126.6,104.8c0-0.5-0.3-1-0.7-1.2c-0.4-0.2-0.7,0-0.7,0.4c0,0.5,0.3,1,0.7,1.2
						C126.3,105.5,126.6,105.3,126.6,104.8z"/>
				</g>
				<g>
					<polygon class="st8" points="123.4,107.6 121.7,104.8 115.5,108.2 117.2,111 					"/>
					<path class="st8" d="M122,105.3l1.3-0.7c0.6,0.4,1,1.1,1.1,1.7l-1.3,0.7C122.5,106.7,122.1,106,122,105.3z"/>
					<path class="st10" d="M123.8,106.9c0-0.7-0.5-1.6-1.2-2c-0.7-0.4-1.2-0.1-1.2,0.7c0,0.7,0.5,1.6,1.2,2
						C123.2,107.9,123.8,107.6,123.8,106.9z"/>
				</g>
			</g>
		</g>
		<path class="st12" d="M125.3,104.4c0.2-0.1,0.2-0.3,0-0.4c-0.2-0.1-0.5-0.1-0.7,0c-0.2,0.1-0.2,0.3,0,0.4
			C124.8,104.5,125.2,104.5,125.3,104.4z"/>
	</g>
	<g>
		<g>
			<path class="st13" d="M87.4,145.2l43.7-24c1.2-0.7,1.1-1.9-0.3-2.6l-29.8-16.3c-1.4-0.8-3.6-0.9-4.8-0.2l-43.7,24
				c-1.2,0.7-1.1,1.9,0.3,2.6L82.6,145C84,145.8,86.2,145.8,87.4,145.2z"/>
			<path class="st5" d="M51.7,121.5l6-0.7l38.6-21.2c1.2-0.7,3.4-0.6,4.8,0.2l27.3,15l3.6-0.5v1.9l0,0c0,0.5-0.2,0.9-0.8,1.2
				l-43.7,24c-1.2,0.7-3.4,0.6-4.8-0.2L52.8,125c-0.8-0.4-1.2-1-1.2-1.5l0,0V121.5z"/>
			<path class="st0" d="M80.7,108.2l2.7-1.5h30.1l14.9,8.1l3.6-0.5v1.9l0,0c0,0.5-0.2,0.9-0.8,1.2l-43.7,24
				c-0.7,0.4-1.6,0.5-2.5,0.4L80.7,108.2z"/>
			<path class="st10" d="M130.4,114.5l1.6-0.2v1.9l0,0c0,0.5-0.2,0.9-0.8,1.2l-0.8,0.4V114.5z"/>
			<path class="st0" d="M87,141.7c-1.2,0.4-2.8,0.3-4.1-0.2v-4.3H87V141.7z"/>
			<path class="st14" d="M87.4,139.5l43.7-24c1.2-0.7,1.1-1.9-0.3-2.6l-29.8-16.3c-1.4-0.8-3.6-0.9-4.8-0.2l-43.7,24
				c-1.2,0.7-1.1,1.9,0.3,2.6l29.8,16.3C84,140.1,86.2,140.2,87.4,139.5z"/>
			<path class="st7" d="M52.8,122.3l29.8,16.3c1.4,0.8,3.6,0.9,4.8,0.2l43.7-24c0.4-0.2,0.7-0.5,0.8-0.8c0.2,0.6-0.1,1.1-0.8,1.5
				l-43.7,24c-1.2,0.7-3.4,0.6-4.8-0.2L52.8,123c-1-0.5-1.3-1.2-1.1-1.8C51.9,121.6,52.2,122,52.8,122.3z"/>
			<g>
				<path class="st8" d="M112.6,107.6l2-1.1c0.2-0.1,0.1-0.2,0-0.3l-2.3-1.3c-0.2-0.1-0.5-0.1-0.6,0l-2,1.1c-0.2,0.1-0.1,0.2,0,0.3
					l2.3,1.3C112.1,107.7,112.4,107.7,112.6,107.6z"/>
				<path class="st8" d="M109.5,109.3l2-1.1c0.2-0.1,0.1-0.2,0-0.3l-2.3-1.3c-0.2-0.1-0.5-0.1-0.6,0l-2,1.1c-0.2,0.1-0.1,0.2,0,0.3
					l2.3,1.3C109.1,109.4,109.4,109.4,109.5,109.3z"/>
				<path class="st8" d="M106.5,111l2-1.1c0.2-0.1,0.1-0.2,0-0.3l-2.3-1.3c-0.2-0.1-0.5-0.1-0.6,0l-2,1.1c-0.2,0.1-0.1,0.2,0,0.3
					l2.3,1.3C106,111,106.3,111,106.5,111z"/>
				<path class="st8" d="M102.2,109.6l2-1.1c0.2-0.1,0.1-0.2,0-0.3l-2-1.1c-0.2-0.1-0.5-0.1-0.6,0l-2,1.1c-0.2,0.1-0.1,0.2,0,0.3
					l2,1.1C101.8,109.7,102.1,109.7,102.2,109.6z"/>
				<path class="st8" d="M99.2,111.3l2-1.1c0.2-0.1,0.1-0.2,0-0.3l-2-1.1c-0.2-0.1-0.5-0.1-0.6,0l-2,1.1c-0.2,0.1-0.1,0.2,0,0.3
					l2,1.1C98.8,111.3,99,111.3,99.2,111.3z"/>
				<path class="st8" d="M96.1,112.9l2-1.1c0.2-0.1,0.1-0.2,0-0.3l-2-1.1c-0.2-0.1-0.5-0.1-0.6,0l-2,1.1c-0.2,0.1-0.1,0.2,0,0.3
					l2,1.1C95.7,113,96,113,96.1,112.9z"/>
				<path class="st8" d="M93.1,114.6l2-1.1c0.2-0.1,0.1-0.2,0-0.3l-2-1.1c-0.2-0.1-0.5-0.1-0.6,0l-2,1.1c-0.2,0.1-0.1,0.2,0,0.3
					l2,1.1C92.6,114.7,92.9,114.7,93.1,114.6z"/>
				<path class="st8" d="M90,116.3l2-1.1c0.2-0.1,0.1-0.2,0-0.3l-2-1.1c-0.2-0.1-0.5-0.1-0.6,0l-2,1.1c-0.2,0.1-0.1,0.2,0,0.3l2,1.1
					C89.6,116.4,89.9,116.4,90,116.3z"/>
				<path class="st8" d="M87,118l2-1.1c0.2-0.1,0.1-0.2,0-0.3l-2-1.1c-0.2-0.1-0.5-0.1-0.6,0l-2,1.1c-0.2,0.1-0.1,0.2,0,0.3l2,1.1
					C86.5,118,86.8,118,87,118z"/>
				<path class="st8" d="M83.9,119.6l2-1.1c0.2-0.1,0.1-0.2,0-0.3l-2-1.1c-0.2-0.1-0.5-0.1-0.6,0l-2,1.1c-0.2,0.1-0.1,0.2,0,0.3
					l2,1.1C83.5,119.7,83.7,119.7,83.9,119.6z"/>
				<path class="st8" d="M80.9,121.3l2-1.1c0.2-0.1,0.1-0.2,0-0.3l-2-1.1c-0.2-0.1-0.5-0.1-0.6,0l-2,1.1c-0.2,0.1-0.1,0.2,0,0.3
					l2,1.1C80.4,121.4,80.7,121.4,80.9,121.3z"/>
				<path class="st8" d="M77.8,123l2-1.1c0.2-0.1,0.1-0.2,0-0.3l-2-1.1c-0.2-0.1-0.5-0.1-0.6,0l-2,1.1c-0.2,0.1-0.1,0.2,0,0.3l2,1.1
					C77.4,123.1,77.6,123.1,77.8,123z"/>
				<path class="st8" d="M74.7,124.7l2-1.1c0.2-0.1,0.1-0.2,0-0.3l-2-1.1c-0.2-0.1-0.5-0.1-0.6,0l-2,1.1c-0.2,0.1-0.1,0.2,0,0.3
					l2,1.1C74.3,124.7,74.6,124.7,74.7,124.7z"/>
				<path class="st10" d="M97.7,108.8l2-1.1c0.2-0.1,0.1-0.2,0-0.3l-2-1.1c-0.2-0.1-0.5-0.1-0.6,0l-2,1.1c-0.2,0.1-0.1,0.2,0,0.3
					l2,1.1C97.3,108.9,97.6,108.9,97.7,108.8z"/>
				<path class="st8" d="M100.8,107.1l2-1.1c0.2-0.1,0.1-0.2,0-0.3l-2-1.1c-0.2-0.1-0.5-0.1-0.6,0l-2,1.1c-0.2,0.1-0.1,0.2,0,0.3
					l2,1.1C100.4,107.2,100.7,107.2,100.8,107.1z"/>
				<path class="st8" d="M104,105.4l4.3-2.3c0.2-0.1,0.1-0.2,0-0.3l-2-1.1c-0.2-0.1-0.5-0.1-0.6,0l-4.3,2.3c-0.2,0.1-0.1,0.2,0,0.3
					l2,1.1C103.5,105.5,103.8,105.5,104,105.4z"/>
				<path class="st8" d="M101.8,103.3l3.5-1.9c0.2-0.1,0.1-0.2,0-0.3l-2-1.1c-0.2-0.1-0.5-0.1-0.6,0l-3.5,1.9
					c-0.2,0.1-0.1,0.2,0,0.3l2,1.1C101.3,103.4,101.6,103.4,101.8,103.3z"/>
				<path class="st10" d="M94.7,110.5l2-1.1c0.2-0.1,0.1-0.2,0-0.3l-2-1.1c-0.2-0.1-0.5-0.1-0.6,0l-2,1.1c-0.2,0.1-0.1,0.2,0,0.3
					l2,1.1C94.2,110.5,94.5,110.5,94.7,110.5z"/>
				<path class="st8" d="M91.6,112.1l2-1.1c0.2-0.1,0.1-0.2,0-0.3l-2-1.1c-0.2-0.1-0.5-0.1-0.6,0l-2,1.1c-0.2,0.1-0.1,0.2,0,0.3
					l2,1.1C91.2,112.2,91.5,112.2,91.6,112.1z"/>
				<path class="st8" d="M88.6,113.8l2-1.1c0.2-0.1,0.1-0.2,0-0.3l-2-1.1c-0.2-0.1-0.5-0.1-0.6,0l-2,1.1c-0.2,0.1-0.1,0.2,0,0.3
					l2,1.1C88.1,113.9,88.4,113.9,88.6,113.8z"/>
				<path class="st8" d="M85.5,115.5l2-1.1c0.2-0.1,0.1-0.2,0-0.3l-2-1.1c-0.2-0.1-0.5-0.1-0.6,0l-2,1.1c-0.2,0.1-0.1,0.2,0,0.3
					l2,1.1C85.1,115.6,85.4,115.6,85.5,115.5z"/>
				<path class="st8" d="M82.5,117.2l2-1.1c0.2-0.1,0.1-0.2,0-0.3l-2-1.1c-0.2-0.1-0.5-0.1-0.6,0l-2,1.1c-0.2,0.1-0.1,0.2,0,0.3
					l2,1.1C82,117.2,82.3,117.2,82.5,117.2z"/>
				<path class="st8" d="M79.4,118.8l2-1.1c0.2-0.1,0.1-0.2,0-0.3l-2-1.1c-0.2-0.1-0.5-0.1-0.6,0l-2,1.1c-0.2,0.1-0.1,0.2,0,0.3
					l2,1.1C79,118.9,79.2,118.9,79.4,118.8z"/>
				<path class="st8" d="M76.3,120.5l2-1.1c0.2-0.1,0.1-0.2,0-0.3l-2-1.1c-0.2-0.1-0.5-0.1-0.6,0l-2,1.1c-0.2,0.1-0.1,0.2,0,0.3
					l2,1.1C75.9,120.6,76.2,120.6,76.3,120.5z"/>
				<path class="st8" d="M73.3,122.2l2-1.1c0.2-0.1,0.1-0.2,0-0.3l-2-1.1c-0.2-0.1-0.5-0.1-0.6,0l-2,1.1c-0.2,0.1-0.1,0.2,0,0.3
					l2,1.1C72.9,122.3,73.1,122.3,73.3,122.2z"/>
				<path class="st8" d="M70.2,123.9l2-1.1c0.2-0.1,0.1-0.2,0-0.3l-2-1.1c-0.2-0.1-0.5-0.1-0.6,0l-2,1.1c-0.2,0.1-0.1,0.2,0,0.3
					l2,1.1C69.8,123.9,70.1,123.9,70.2,123.9z"/>
				<path class="st8" d="M64.8,126.8l4.3-2.4c0.2-0.1,0.1-0.2,0-0.3l-2-1.1c-0.2-0.1-0.5-0.1-0.6,0l-4.3,2.4c-0.2,0.1-0.1,0.2,0,0.3
					l2,1.1C64.4,126.9,64.6,126.9,64.8,126.8z"/>
				<path class="st8" d="M58.9,123.6l3.6-2c0.2-0.1,0.1-0.2,0-0.3l-2-1.1c-0.2-0.1-0.5-0.1-0.6,0l-3.6,2c-0.2,0.1-0.1,0.2,0,0.3
					l2,1.1C58.4,123.7,58.7,123.7,58.9,123.6z"/>
				<path class="st8" d="M89.3,110.1l2-1.1c0.2-0.1,0.1-0.2,0-0.3l-2-1.1c-0.2-0.1-0.5-0.1-0.6,0l-2,1.1c-0.2,0.1-0.1,0.2,0,0.3
					l2,1.1C88.9,110.2,89.2,110.2,89.3,110.1z"/>
				<path class="st8" d="M92.5,108.4l2-1.1c0.2-0.1,0.1-0.2,0-0.3l-2-1.1c-0.2-0.1-0.5-0.1-0.6,0l-2,1.1c-0.2,0.1-0.1,0.2,0,0.3
					l2,1.1C92,108.5,92.3,108.5,92.5,108.4z"/>
				<path class="st10" d="M95.6,106.7l2-1.1c0.2-0.1,0.1-0.2,0-0.3l-2-1.1c-0.2-0.1-0.5-0.1-0.6,0l-2,1.1c-0.2,0.1-0.1,0.2,0,0.3
					l2,1.1C95.2,106.8,95.4,106.8,95.6,106.7z"/>
				<path class="st8" d="M98.7,105l2-1.1c0.2-0.1,0.1-0.2,0-0.3l-2-1.1c-0.2-0.1-0.5-0.1-0.6,0l-2,1.1c-0.2,0.1-0.1,0.2,0,0.3l2,1.1
					C98.3,105.1,98.6,105.1,98.7,105z"/>
				<path class="st8" d="M86.3,111.8l2-1.1c0.2-0.1,0.1-0.2,0-0.3l-2-1.1c-0.2-0.1-0.5-0.1-0.6,0l-2,1.1c-0.2,0.1-0.1,0.2,0,0.3
					l2,1.1C85.8,111.9,86.1,111.9,86.3,111.8z"/>
				<path class="st8" d="M83.2,113.5l2-1.1c0.2-0.1,0.1-0.2,0-0.3l-2-1.1c-0.2-0.1-0.5-0.1-0.6,0l-2,1.1c-0.2,0.1-0.1,0.2,0,0.3
					l2,1.1C82.8,113.6,83.1,113.6,83.2,113.5z"/>
				<path class="st8" d="M80.2,115.2l2-1.1c0.2-0.1,0.1-0.2,0-0.3l-2-1.1c-0.2-0.1-0.5-0.1-0.6,0l-2,1.1c-0.2,0.1-0.1,0.2,0,0.3
					l2,1.1C79.7,115.2,80,115.2,80.2,115.2z"/>
				<path class="st8" d="M77.1,116.8l2-1.1c0.2-0.1,0.1-0.2,0-0.3l-2-1.1c-0.2-0.1-0.5-0.1-0.6,0l-2,1.1c-0.2,0.1-0.1,0.2,0,0.3
					l2,1.1C76.7,116.9,76.9,116.9,77.1,116.8z"/>
				<path class="st8" d="M74.1,118.5l2-1.1c0.2-0.1,0.1-0.2,0-0.3l-2-1.1c-0.2-0.1-0.5-0.1-0.6,0l-2,1.1c-0.2,0.1-0.1,0.2,0,0.3
					l2,1.1C73.6,118.6,73.9,118.6,74.1,118.5z"/>
				<path class="st8" d="M71,120.2l2-1.1c0.2-0.1,0.1-0.2,0-0.3l-2-1.1c-0.2-0.1-0.5-0.1-0.6,0l-2,1.1c-0.2,0.1-0.1,0.2,0,0.3l2,1.1
					C70.6,120.3,70.8,120.3,71,120.2z"/>
				<path class="st8" d="M67.9,121.9l2-1.1c0.2-0.1,0.1-0.2,0-0.3l-2-1.1c-0.2-0.1-0.5-0.1-0.6,0l-2,1.1c-0.2,0.1-0.1,0.2,0,0.3
					l2,1.1C67.5,121.9,67.8,121.9,67.9,121.9z"/>
				<path class="st8" d="M64.9,123.5l2-1.1c0.2-0.1,0.1-0.2,0-0.3l-2-1.1c-0.2-0.1-0.5-0.1-0.6,0l-2,1.1c-0.2,0.1-0.1,0.2,0,0.3
					l2,1.1C64.4,123.6,64.7,123.6,64.9,123.5z"/>
				<path class="st8" d="M61.8,125.2l2-1.1c0.2-0.1,0.1-0.2,0-0.3l-2-1.1c-0.2-0.1-0.5-0.1-0.6,0l-2,1.1c-0.2,0.1-0.1,0.2,0,0.3
					l2,1.1C61.4,125.3,61.7,125.3,61.8,125.2z"/>
				<path class="st8" d="M90.9,106l2-1.1c0.2-0.1,0.1-0.2,0-0.3l-2-1.1c-0.2-0.1-0.5-0.1-0.6,0l-2,1.1c-0.2,0.1-0.1,0.2,0,0.3l2,1.1
					C90.5,106.1,90.8,106.1,90.9,106z"/>
				<path class="st8" d="M94,104.3l2-1.1c0.2-0.1,0.1-0.2,0-0.3l-2-1.1c-0.2-0.1-0.5-0.1-0.6,0l-2,1.1c-0.2,0.1-0.1,0.2,0,0.3l2,1.1
					C93.5,104.4,93.8,104.4,94,104.3z"/>
				<path class="st8" d="M97,102.7l2-1.1c0.2-0.1,0.1-0.2,0-0.3l-2-1.1c-0.2-0.1-0.5-0.1-0.6,0l-2,1.1c-0.2,0.1-0.1,0.2,0,0.3l2,1.1
					C96.6,102.7,96.9,102.7,97,102.7z"/>
				<path class="st8" d="M100.1,101l2-1.1c0.2-0.1,0.1-0.2,0-0.3l-2-1.1c-0.2-0.1-0.5-0.1-0.6,0l-2,1.1c-0.2,0.1-0.1,0.2,0,0.3
					l2,1.1C99.6,101.1,99.9,101.1,100.1,101z"/>
				<path class="st8" d="M96.9,99.3l2-1.1c0.2-0.1,0.1-0.2,0-0.3l-0.6-0.4c-0.2-0.1-0.5-0.1-0.6,0l-2,1.1c-0.2,0.1-0.1,0.2,0,0.3
					l0.6,0.4C96.5,99.3,96.8,99.4,96.9,99.3z"/>
				<path class="st8" d="M93,101.4l2-1.1c0.2-0.1,0.1-0.2,0-0.3l-0.6-0.4c-0.2-0.1-0.5-0.1-0.6,0l-2,1.1c-0.2,0.1-0.1,0.2,0,0.3
					l0.6,0.4C92.5,101.5,92.8,101.5,93,101.4z"/>
				<path class="st8" d="M89.9,103.1l2-1.1c0.2-0.1,0.1-0.2,0-0.3l-0.6-0.4c-0.2-0.1-0.5-0.1-0.6,0l-2,1.1c-0.2,0.1-0.1,0.2,0,0.3
					l0.6,0.4C89.5,103.2,89.8,103.2,89.9,103.1z"/>
				<path class="st8" d="M86.9,104.8l2-1.1c0.2-0.1,0.1-0.2,0-0.3l-0.6-0.4c-0.2-0.1-0.5-0.1-0.6,0l-2,1.1c-0.2,0.1-0.1,0.2,0,0.3
					l0.6,0.4C86.5,104.8,86.8,104.9,86.9,104.8z"/>
				<path class="st8" d="M83.9,106.4l2-1.1c0.2-0.1,0.1-0.2,0-0.3l-0.6-0.4c-0.2-0.1-0.5-0.1-0.6,0l-2,1.1c-0.2,0.1-0.1,0.2,0,0.3
					l0.6,0.4C83.4,106.5,83.7,106.5,83.9,106.4z"/>
				<path class="st8" d="M67,115.7l2-1.1c0.2-0.1,0.1-0.2,0-0.3l-0.6-0.4c-0.2-0.1-0.5-0.1-0.6,0l-2,1.1c-0.2,0.1-0.1,0.2,0,0.3
					l0.6,0.4C66.5,115.8,66.8,115.8,67,115.7z"/>
				<path class="st8" d="M64,117.4l2-1.1c0.2-0.1,0.1-0.2,0-0.3l-0.6-0.4c-0.2-0.1-0.5-0.1-0.6,0l-2,1.1c-0.2,0.1-0.1,0.2,0,0.3
					l0.6,0.4C63.5,117.4,63.8,117.4,64,117.4z"/>
				<path class="st8" d="M60.9,119l2-1.1c0.2-0.1,0.1-0.2,0-0.3l-0.6-0.4c-0.2-0.1-0.5-0.1-0.6,0l-2,1.1c-0.2,0.1-0.1,0.2,0,0.3
					l0.6,0.4C60.5,119.1,60.8,119.1,60.9,119z"/>
				<path class="st8" d="M57.9,120.7l2-1.1c0.2-0.1,0.1-0.2,0-0.3l-0.6-0.4c-0.2-0.1-0.5-0.1-0.6,0l-2,1.1c-0.2,0.1-0.1,0.2,0,0.3
					l0.6,0.4C57.5,120.8,57.7,120.8,57.9,120.7z"/>
				<path class="st8" d="M87.9,107.7l2-1.1c0.2-0.1,0.1-0.2,0-0.3l-2-1.1c-0.2-0.1-0.5-0.1-0.6,0l-2,1.1c-0.2,0.1-0.1,0.2,0,0.3
					l2,1.1C87.5,107.7,87.7,107.7,87.9,107.7z"/>
				<path class="st8" d="M84.8,109.3l2-1.1c0.2-0.1,0.1-0.2,0-0.3l-2-1.1c-0.2-0.1-0.5-0.1-0.6,0l-2,1.1c-0.2,0.1-0.1,0.2,0,0.3
					l2,1.1C84.4,109.4,84.7,109.4,84.8,109.3z"/>
				<path class="st8" d="M81.8,111l2-1.1c0.2-0.1,0.1-0.2,0-0.3l-2-1.1c-0.2-0.1-0.5-0.1-0.6,0l-2,1.1c-0.2,0.1-0.1,0.2,0,0.3l2,1.1
					C81.3,111.1,81.6,111.1,81.8,111z"/>
				<path class="st8" d="M78.7,112.7l2-1.1c0.2-0.1,0.1-0.2,0-0.3l-2-1.1c-0.2-0.1-0.5-0.1-0.6,0l-2,1.1c-0.2,0.1-0.1,0.2,0,0.3
					l2,1.1C78.3,112.8,78.6,112.8,78.7,112.7z"/>
				<path class="st8" d="M75.7,114.4l2-1.1c0.2-0.1,0.1-0.2,0-0.3l-2-1.1c-0.2-0.1-0.5-0.1-0.6,0l-2,1.1c-0.2,0.1-0.1,0.2,0,0.3
					l2,1.1C75.2,114.4,75.5,114.5,75.7,114.4z"/>
				<path class="st8" d="M72.6,116l2-1.1c0.2-0.1,0.1-0.2,0-0.3l-2-1.1c-0.2-0.1-0.5-0.1-0.6,0l-2,1.1c-0.2,0.1-0.1,0.2,0,0.3l2,1.1
					C72.2,116.1,72.4,116.1,72.6,116z"/>
				<path class="st8" d="M69.5,117.7l2-1.1c0.2-0.1,0.1-0.2,0-0.3l-2-1.1c-0.2-0.1-0.5-0.1-0.6,0l-2,1.1c-0.2,0.1-0.1,0.2,0,0.3
					l2,1.1C69.1,117.8,69.4,117.8,69.5,117.7z"/>
				<path class="st8" d="M66.5,119.4l2-1.1c0.2-0.1,0.1-0.2,0-0.3l-2-1.1c-0.2-0.1-0.5-0.1-0.6,0l-2,1.1c-0.2,0.1-0.1,0.2,0,0.3
					l2,1.1C66.1,119.5,66.3,119.5,66.5,119.4z"/>
				<path class="st8" d="M63.4,121.1l2-1.1c0.2-0.1,0.1-0.2,0-0.3l-2-1.1c-0.2-0.1-0.5-0.1-0.6,0l-2,1.1c-0.2,0.1-0.1,0.2,0,0.3
					l2,1.1C63,121.1,63.3,121.2,63.4,121.1z"/>
				<path class="st8" d="M105.4,107.9l5.8-3.2c0.2-0.1,0.1-0.2,0-0.3l-2-1.1c-0.2-0.1-0.5-0.1-0.6,0l-5.8,3.2
					c-0.2,0.1-0.1,0.2,0,0.3l2,1.1C104.9,107.9,105.2,108,105.4,107.9z"/>
				<path class="st8" d="M67.8,128.5l5.8-3.2c0.2-0.1,0.1-0.2,0-0.3l-2-1.1c-0.2-0.1-0.5-0.1-0.6,0l-5.8,3.2c-0.2,0.1-0.1,0.2,0,0.3
					l2,1.1C67.4,128.5,67.7,128.5,67.8,128.5z"/>
				<path class="st8" d="M80,125.5l2-1.1c0.2-0.1,0.1-0.2,0-0.3l-2.3-1.3c-0.2-0.1-0.5-0.1-0.6,0l-2,1.1c-0.2,0.1-0.1,0.2,0,0.3
					l2.3,1.3C79.6,125.5,79.9,125.5,80,125.5z"/>
				<path class="st8" d="M102.2,113.3l3.2-1.7c0.2-0.1,0.1-0.2,0-0.3l-2.3-1.3c-0.2-0.1-0.5-0.1-0.6,0l-3.2,1.7
					c-0.2,0.1-0.1,0.2,0,0.3l2.3,1.3C101.8,113.4,102.1,113.4,102.2,113.3z"/>
				<path class="st8" d="M83,123.8l3.2-1.7c0.2-0.1,0.1-0.2,0-0.3l-2.3-1.3c-0.2-0.1-0.5-0.1-0.6,0l-3.2,1.7c-0.2,0.1-0.1,0.2,0,0.3
					l2.3,1.3C82.5,123.9,82.8,123.9,83,123.8z"/>
				<path class="st15" d="M97.8,115.7l3.2-1.7c0.2-0.1,0.1-0.2,0-0.3l-2.3-1.3c-0.2-0.1-0.5-0.1-0.6,0l-3.2,1.7
					c-0.2,0.1-0.1,0.2,0,0.3l2.3,1.3C97.4,115.8,97.7,115.8,97.8,115.7z"/>
				<path class="st8" d="M98,112.3l-13.8,7.5c-0.2,0.1-0.2,0.2,0,0.3l2.4,1.3c0.2,0.1,0.4,0.1,0.6,0L101,114L98,112.3z"/>
				<path class="st8" d="M71.5,128.5l-2.2,1.2c-0.1,0.1-0.1,0.2,0,0.3l1,0.5c0.2,0.1,0.4,0.1,0.5,0l2.2-1.2c0.1-0.1,0.1-0.2,0-0.3
					l-1-0.5C71.9,128.4,71.6,128.4,71.5,128.5z"/>
				<path class="st8" d="M74.6,126.8l-2.2,1.2c-0.1,0.1-0.1,0.2,0,0.3l1,0.5c0.2,0.1,0.4,0.1,0.5,0l2.2-1.2c0.1-0.1,0.1-0.2,0-0.3
					l-1-0.5C74.9,126.7,74.7,126.7,74.6,126.8z"/>
				<path class="st8" d="M77.6,125.1l-2.2,1.2c-0.1,0.1-0.1,0.2,0,0.3l1,0.5c0.2,0.1,0.4,0.1,0.5,0l2.2-1.2c0.1-0.1,0.1-0.2,0-0.3
					l-1-0.5C78,125.1,77.8,125.1,77.6,125.1z"/>
				<path class="st8" d="M72.9,125.9l-2.2,1.2c-0.1,0.1-0.1,0.2,0,0.3l1,0.5c0.2,0.1,0.4,0.1,0.5,0l2.2-1.2c0.1-0.1,0.1-0.2,0-0.3
					l-1-0.5C73.2,125.8,73,125.8,72.9,125.9z"/>
			</g>
		</g>
		<path class="st0" d="M97.7,130.2l-10.1-5.5c-0.4-0.2-0.6-0.5-0.6-0.8c0-0.3,0.2-0.5,0.4-0.6l15.3-8.4c0.5-0.3,1.5-0.3,2.1,0.1
			l10.1,5.5c0.4,0.2,0.6,0.5,0.6,0.8c0,0.3-0.2,0.5-0.4,0.6l-15.3,8.4c-0.3,0.1-0.6,0.2-0.9,0.2C98.4,130.5,98,130.4,97.7,130.2z
			 M102.9,115.3l-15.3,8.4c-0.1,0-0.2,0.1-0.2,0.2c0,0.1,0.1,0.3,0.3,0.4l10.1,5.5c0.5,0.3,1.2,0.3,1.6,0.1l0,0l15.3-8.4
			c0.1,0,0.2-0.1,0.2-0.2c0-0.1-0.1-0.3-0.3-0.4l-10.1-5.5c-0.3-0.1-0.6-0.2-0.9-0.2C103.4,115.2,103.1,115.2,102.9,115.3z"/>
		<g>
			<path class="st7" d="M102.4,121.4l-1.5-0.8c-0.1-0.1-0.4-0.1-0.5,0l0,0c-0.2,0.1-0.2,0.2,0,0.3l1.5,0.8c0.1,0.1,0.4,0.1,0.5,0
				l0,0C102.5,121.6,102.5,121.5,102.4,121.4z"/>
			<path class="st7" d="M105.5,123.1l-2.2-1.2c-0.1-0.1-0.4-0.1-0.5,0l0,0c-0.2,0.1-0.2,0.2,0,0.3l2.2,1.2c0.1,0.1,0.4,0.1,0.5,0
				l0,0C105.7,123.3,105.7,123.1,105.5,123.1z"/>
			<path class="st7" d="M97.4,124l-2.9-1.5c-0.1-0.1-0.4-0.1-0.5,0l0,0c-0.2,0.1-0.2,0.2,0,0.3l2.9,1.5c0.1,0.1,0.4,0.1,0.5,0l0,0
				C97.5,124.2,97.5,124.1,97.4,124z"/>
			<path class="st7" d="M97.9,121.6l-0.9-0.5c-0.1-0.1-0.4-0.1-0.5,0l0,0c-0.2,0.1-0.2,0.2,0,0.3l0.9,0.5c0.1,0.1,0.4,0.1,0.5,0l0,0
				C98,121.8,98.1,121.7,97.9,121.6z"/>
			<path class="st7" d="M100,120.1l-0.6-0.3c-0.1-0.1-0.4-0.1-0.5,0l0,0c-0.2,0.1-0.2,0.2,0,0.3l0.6,0.3c0.1,0.1,0.4,0.1,0.5,0l0,0
				C100.1,120.3,100.2,120.2,100,120.1z"/>
			<path class="st7" d="M102.6,118.9l-0.7-0.4c-0.1-0.1-0.4-0.1-0.5,0l0,0c-0.2,0.1-0.2,0.2,0,0.3l0.7,0.4c0.1,0.1,0.4,0.1,0.5,0
				l0,0C102.7,119.1,102.7,119,102.6,118.9z"/>
			<path class="st7" d="M105.5,120.4l-2-1c-0.1-0.1-0.4-0.1-0.5,0l0,0c-0.2,0.1-0.2,0.2,0,0.3l2,1c0.1,0.1,0.4,0.1,0.5,0l0,0
				C105.6,120.6,105.6,120.5,105.5,120.4z"/>
			<path class="st7" d="M104.5,118.6l-1.4-0.8c-0.1-0.1-0.4-0.1-0.5,0l0,0c-0.2,0.1-0.2,0.2,0,0.3l1.4,0.8c0.1,0.1,0.4,0.1,0.5,0
				l0,0C104.6,118.8,104.6,118.7,104.5,118.6z"/>
			<path class="st7" d="M101.4,123.5l-2.5-1.3c-0.1-0.1-0.4-0.1-0.5,0l0,0c-0.2,0.1-0.2,0.2,0,0.3l2.5,1.3c0.1,0.1,0.4,0.1,0.5,0
				l0,0C101.5,123.7,101.5,123.6,101.4,123.5z"/>
			<path class="st7" d="M100.1,124.1l-4.4-2.3c-0.1-0.1-0.4-0.1-0.5,0l0,0c-0.2,0.1-0.2,0.2,0,0.3l4.4,2.3c0.1,0.1,0.4,0.1,0.5,0
				l0,0C100.2,124.3,100.2,124.2,100.1,124.1z"/>
			<path class="st7" d="M100.7,121.8l-2.5-1.3c-0.1-0.1-0.4-0.1-0.5,0l0,0c-0.2,0.1-0.2,0.2,0,0.3l2.5,1.3c0.1,0.1,0.4,0.1,0.5,0h0
				C100.8,122,100.8,121.9,100.7,121.8z"/>
			<path class="st7" d="M103.3,124.5l-0.9-0.5c-0.1-0.1-0.4-0.1-0.5,0l0,0c-0.2,0.1-0.2,0.2,0,0.3l0.9,0.5c0.1,0.1,0.4,0.1,0.5,0
				l0,0C103.4,124.7,103.4,124.6,103.3,124.5z"/>
			<path class="st7" d="M103.6,120.8l-3-1.6c-0.1-0.1-0.4-0.1-0.5,0l0,0c-0.2,0.1-0.2,0.2,0,0.3l3,1.6c0.1,0.1,0.4,0.1,0.5,0l0,0
				C103.8,121,103.8,120.8,103.6,120.8z"/>
		</g>
	</g>
	<g>
		<g>
			<g>
				<path class="st0" d="M121.8,93.3c0.2-0.1,0.5-0.3,0.8-0.4l0,0l1.5-0.6l-0.1,0.3c1.2-0.2,2.4-0.2,3.6,0l-0.1-0.3l1.8,0.8l0,0
					c0.2,0.1,0.5,0.2,0.7,0.3c2.3,1.2,2.3,3.2,0,4.5c-2.3,1.2-5.9,1.2-8.2,0C119.6,96.5,119.6,94.5,121.8,93.3z"/>
				<path class="st5" d="M124,94.4c1.1,0.6,2.8,0.6,3.8,0c1.1-0.6,1.1-1.5,0-2.1s-2.8-0.6-3.8,0C123,92.9,123,93.9,124,94.4z"/>
			</g>
			<g>
				<path class="st0" d="M125.9,93.8L125.9,93.8c0.5,0,0.9-0.4,0.9-0.9v-11H125v11C125,93.4,125.4,93.8,125.9,93.8z"/>
				<path class="st8" d="M125.3,82.3c0.4,0.2,1,0.2,1.3,0c0.4-0.2,0.4-0.5,0-0.7c-0.4-0.2-1-0.2-1.3,0
					C124.9,81.8,124.9,82.1,125.3,82.3z"/>
			</g>
			<path class="st2" d="M125.9,82.3L125.9,82.3c0.4,0,0.7-0.3,0.7-0.7V71.2h-1.5v10.4C125.2,81.9,125.5,82.3,125.9,82.3z"/>
			<g>
				<path class="st5" d="M115.2,76.6l0-0.4l-0.6-0.1l-0.7-0.5c-0.1-0.1-0.3-0.1-0.4,0l-0.5,0.3l-0.5-0.1v0.4l0,0c0,0,0,0.1,0.1,0.1
					l1.6,0.7c0.1,0.1,0.3,0,0.4,0l0.5-0.3C115.2,76.7,115.2,76.7,115.2,76.6L115.2,76.6z"/>
				<path class="st0" d="M115.1,76.1l-1.2-0.9c-0.1-0.1-0.3-0.1-0.4,0l-0.9,0.5c-0.1,0.1-0.1,0.2,0,0.2l1.6,0.7c0.1,0.1,0.3,0,0.4,0
					l0.5-0.3C115.2,76.3,115.2,76.2,115.1,76.1z"/>
				<g>
					<path class="st16" d="M117.2,78.1c-0.2,0-0.3,0-0.5-0.1l-1.9-1c-0.1-0.1-0.1-0.2-0.1-0.3c0.1-0.1,0.2-0.1,0.3-0.1l1.9,1
						c0.1,0.1,0.4,0.1,0.5,0l3.1-1.7c0.1-0.1,0.2,0,0.3,0.1c0.1,0.1,0,0.2-0.1,0.3l-3.1,1.7C117.5,78,117.4,78.1,117.2,78.1z"/>
				</g>
			</g>
			<g>
				
					<radialGradient id="SVGID_1_" cx="1137.677" cy="72.1217" r="17.7804" gradientTransform="matrix(-1.0531 0 0 1 1353.4514 0)" gradientUnits="userSpaceOnUse">
					<stop  offset="0" style="stop-color:#27C2E9"/>
					<stop  offset="9.566515e-02" style="stop-color:#24B8E3"/>
					<stop  offset="0.2555" style="stop-color:#1D9FD1"/>
					<stop  offset="0.4457" style="stop-color:#1278B7"/>
					<stop  offset="1" style="stop-color:#242B61"/>
				</radialGradient>
				<polygon class="st17" points="135.4,74.3 132.3,72.6 134,71.9 135.5,72.8 				"/>
				<path class="st5" d="M115.9,71.8c0.2-0.1,0.3-0.2,0.5-0.3l6.5-4.5c1.2-0.8,2.4-1,3.3-0.6c0,0,0,0,0.1,0l0,0l8.9,4.9l-0.8,0.3
					l-3.1,1.3l-4.3,2.9l-3.4,1.7l-0.2,0c-0.8-0.6-1.7-1.2-2.1-2.1c-0.8-1.4-3.1-1.8-4.5-2.9c-0.1,0.1-0.3,0.2-0.4,0.2
					C116.1,72.5,116.1,72.2,115.9,71.8z"/>
				<path class="st0" d="M113,69.8c0.1,0,0.3,0,0.4,0.1l0,0l8.7,4.8l-0.3,1.2l-0.3-0.1c0.5,0.7,1.3,1.2,2,1.8l-1,0.2l-8.6-4.7
					c0,0-0.1,0-0.1,0c-0.1-0.1-0.2-0.1-0.3-0.2l0,0l0,0c-0.7-0.5-1-1.3-1-2.3v-0.1C112.4,70,112.7,69.8,113,69.8z"/>
				<g>
					<path class="st18" d="M125,66.2c-0.5,0-1.1,0.2-1.7,0.5C123.9,66.4,124.5,66.2,125,66.2z"/>
					<path class="st11" d="M121,75.1L121,75.1c0-0.4,0.3-0.7,0.6-0.7s0.6,0.3,0.6,0.6v0.1c0,0.8,0.3,1.3,0.7,1.5
						c0.5,0.2,1.3,0.1,2-0.5l6.5-4.5c1-0.7,2-0.9,2.9-0.7L129,68l6.2,3.4l-0.8,0.3l-3.1,1.3l-4.3,2.9l-3.4,1.7l-0.2,0
						c-0.8-0.6-1.7-1.2-2.1-2.1C121.2,75.3,121.1,75.2,121,75.1C121,75.1,121,75.1,121,75.1z"/>
				</g>
				<g>
					<path class="st3" d="M123.6,78c0.7,0,1.5-0.3,2.2-0.8l6.5-4.5c0.8-0.5,1.5-0.7,2-0.5c0.4,0.2,0.7,0.8,0.7,1.5
						c0,0.3,0.3,0.6,0.6,0.6c0.3,0,0.6-0.3,0.6-0.6c0-1.2-0.5-2.1-1.4-2.6c-0.9-0.4-2.1-0.2-3.3,0.6l-6.5,4.5
						c-0.8,0.5-1.5,0.7-2,0.5c-0.4-0.2-0.7-0.8-0.7-1.5v-0.1c0-0.3-0.3-0.6-0.6-0.6c-0.3,0-0.6,0.3-0.6,0.6v0.1
						c0,1.2,0.5,2.1,1.4,2.6C122.9,78,123.2,78,123.6,78z"/>
				</g>
			</g>
		</g>
		<g>
			<g>
				<path class="st16" d="M126.7,86.9c0,0,1-0.5,1.7,0.2c0.6,0.7,1.6,2.5,1.6,3.7c0,1.2-1,1.1-1.6,0.8c-0.6-0.3-2.4-2.7-2.5-3.2
					c-0.1-0.5,0.1-1.1,0.3-1.2C126.4,87.1,126.7,86.9,126.7,86.9z"/>
				<path class="st10" d="M126.5,86.7l0,1c0,0.2,0.1,0.4,0.3,0.5c0.2,0.1,0.4,0.2,0.8,0.1c0.8-0.1,0.9-0.3,0.9-1.4
					C128.5,86,126.5,86.7,126.5,86.7z"/>
				<g>
					<path class="st16" d="M130.5,84.9c0,0,1-0.5,1.7,0.2c0.6,0.7,1.6,2.5,1.6,3.7c0,1.2-1,1.1-1.6,0.8c-0.6-0.3-2.4-2.7-2.5-3.2
						c-0.1-0.5,0.1-1.1,0.3-1.2S130.5,84.9,130.5,84.9z"/>
					<path class="st10" d="M130.3,84.7l0,1c0,0.2,0.1,0.4,0.3,0.5c0.2,0.1,0.4,0.2,0.8,0.1c0.8-0.1,0.9-0.3,0.9-1.4
						C132.3,84,130.3,84.7,130.3,84.7z"/>
					<path class="st0" d="M121,65.8c0.3-4.8,5.4,0.7,5.4,0.7l3.5,3.3l3.2,3.3c0.6,0.6,0.9,1.5,0.8,2.4l-1.3,9.3
						c-0.1,0.5-0.5,0.8-1,0.8c-0.1,0-0.3,0-0.5,0c-1.1-0.2-1.1-1.2-1.1-1.2l0.2-8.7l-6.6-3.8C123.7,71.8,120.7,70.6,121,65.8z"/>
				</g>
				<path class="st0" d="M117.2,67.7c0.3-4.8,5.4,0.7,5.4,0.7l3.5,3.3l3.2,3.3c0.6,0.6,0.9,1.5,0.8,2.4l-1.3,9.3
					c-0.1,0.5-0.5,0.8-1,0.8c-0.1,0-0.3,0-0.5,0c-1.1-0.2-1.1-1.2-1.1-1.2l0.2-8.7l-6.6-3.8C119.9,73.7,116.9,72.4,117.2,67.7z"/>
				<path class="st2" d="M120.2,52.3c-3.9,1.5-3.8,3.7-3.8,3.7s0.8,8,0.5,13.4c-0.1,2.2,12.5,2.4,10.6-3.6c-2.2-7-1.4-12.7-2.4-13.6
					C124.1,51.4,121.2,52,120.2,52.3z"/>
				<path class="st19" d="M119,54.3c0.2,0.8,1.2,1.1,2.3,0.9c1.1-0.3,1.8-1.1,1.6-1.8c-0.2-0.8-1.2-1.1-2.3-0.9
					C119.5,52.7,118.8,53.5,119,54.3z"/>
				<path class="st7" d="M119.7,55.3c-0.5-0.2-0.8-0.5-0.9-0.9c-0.1-0.4,0-0.9,0.3-1.3c0.3-0.4,0.8-0.7,1.4-0.8
					c0.6-0.1,1.1-0.1,1.6,0.1c0.5,0.2,0.8,0.5,0.9,0.9c0.2,0.8-0.5,1.8-1.7,2c-0.2,0.1-0.5,0.1-0.7,0.1
					C120.3,55.4,120,55.4,119.7,55.3z M120.6,52.6c-0.5,0.1-0.9,0.4-1.2,0.7c-0.3,0.3-0.4,0.6-0.3,0.9l0,0c0.1,0.3,0.3,0.6,0.7,0.7
					c0.4,0.2,0.9,0.2,1.4,0.1c1-0.2,1.6-1,1.4-1.6c-0.1-0.3-0.3-0.6-0.7-0.7c-0.2-0.1-0.5-0.1-0.7-0.1
					C121,52.5,120.8,52.6,120.6,52.6z"/>
				<path class="st19" d="M121.8,52.2c0,0,0,0.1,0,1.3c0,0.4-1.3,0.7-1.7,0.4c-0.4-0.3-0.2-0.7-0.3-1.9
					C119.7,50.7,121.8,52.2,121.8,52.2z"/>
				<path class="st20" d="M119.8,51.9c0,0,0.3,1.2,2,1.6l0-1.1L119.8,51.9z"/>
				<ellipse class="st19" cx="121.7" cy="49.7" rx="3" ry="2.8"/>
				<path class="st20" d="M121,49.8c0,0,1.6,0.7,2.8,0.7c1.1,0,0.9-0.9,0.9-0.9l-3.4-0.5L121,49.8z"/>
				<path class="st21" d="M124.1,50c0,0-1.4-0.6-2.7-0.3c-0.3,0.1-0.6,0.2-0.8,0.4c-0.1,0.1-0.1,0.1-0.2,0.2c-0.2,0-0.6-0.8-1-0.9
					c-0.4,0-0.7,0.3-0.4,0.8c0.4,0.5,0.2,1.1,0.1,1.2c-0.2,0.1-1.9-1.2-0.4-4.1c1.5-2.9,5.4-1.3,6-0.7c0,0,0.6,0.5,1.2,0.1
					C125.9,46.7,126.5,50.8,124.1,50z"/>
				<path class="st19" d="M118.6,61.9v2.2c0,0.2,0.1,0.5,0.3,0.7l4.7,4.1l-0.5,0.8l-6.2-4.3c-0.3-0.2-0.5-0.5-0.5-0.8l-0.4-3.8
					L118.6,61.9z"/>
				<path class="st2" d="M116.7,55c0,0-1.4,2-1.9,7.4c0,0,2.4,0.7,3.8,0.3C120,62.2,116.7,55,116.7,55z"/>
				<path class="st0" d="M118.8,57.5c0,0,0.6,2.8,0.6,4.2c0,0.4-0.2,0.7-0.6,0.8l0,0V57.5z"/>
			</g>
			<g>
				<path class="st16" d="M120.1,71.6l1-0.1l6.7-3.7c0.2-0.1,0.6-0.1,0.8,0l4.7,2.6l0.6-0.1v0.6l0,0c0,0.1,0,0.2-0.1,0.2l-7.6,4.1
					c-0.2,0.1-0.6,0.1-0.8,0l-5.2-2.8c-0.1-0.1-0.2-0.2-0.2-0.3l0,0V71.6z"/>
				<path class="st16" d="M125.1,69.3l0.5-0.3h5.2l2.6,1.4l0.6-0.1v0.6l0,0c0,0.1,0,0.2-0.1,0.2l-7.6,4.1c-0.1,0.1-0.3,0.1-0.4,0.1
					L125.1,69.3z"/>
				<path class="st22" d="M133.7,70.4l0.3,0v0.6l0,0c0,0.1,0,0.2-0.1,0.2l-0.1,0.1V70.4z"/>
				<path class="st23" d="M126.2,75.3c-0.2,0.1-0.5,0.1-0.7,0v-1h0.7V75.3z"/>
				<path class="st7" d="M126.2,74.7l7.6-4.1c0.2-0.1,0.2-0.3-0.1-0.5l-5.2-2.8c-0.2-0.1-0.6-0.2-0.8,0l-7.6,4.1
					c-0.2,0.1-0.2,0.3,0.1,0.5l5.2,2.8C125.7,74.8,126,74.8,126.2,74.7z"/>
				<path class="st23" d="M126.4,74.1l6.3-3.5c0.2-0.1,0.2-0.3,0-0.4l-2.8-1.5c-0.2-0.1-0.5-0.1-0.7,0l-6.3,3.5
					c-0.2,0.1-0.2,0.3,0,0.4l2.8,1.5C125.9,74.2,126.2,74.2,126.4,74.1z"/>
			</g>
			<path class="st19" d="M128.3,67.1l0.1,0.5c0.1,0.4,0.1,0.9,0,1.3l-0.1,0.4c-0.1,0.2-0.3,0.4-0.5,0.5l0,0c-0.2,0-0.4-0.1-0.4-0.3
				l-0.1-1.1c0,0-0.3,0.4-0.4,0.4c-0.1,0,0.2-1.1,0.5-1.7C127.6,66.6,128.3,67.1,128.3,67.1z"/>
			<path class="st19" d="M125.7,59.3l0.8,1.5c0.2,0.4,0.3,0.8,0.3,1.2l0.4,5.2l1.1,0l0.5-5.9c0-0.2,0-0.4,0-0.5l-0.6-3L125.7,59.3z"
				/>
			<g>
				<path class="st16" d="M126.5,75.1l0.6-0.8l6.7-3.7c0.2-0.1,0.4-0.4,0.4-0.7l0-5.2l0.4-0.5l-0.4-0.2l0,0c-0.1,0-0.2,0-0.3,0
					l-7.6,4.2c-0.2,0.1-0.4,0.4-0.4,0.7l0,5.7c0,0.2,0.1,0.3,0.1,0.3l0,0L126.5,75.1z"/>
				<path class="st0" d="M131.1,72.1l0.5-0.3l2.6-4.3l0-2.8l0.4-0.5l-0.4-0.2l0,0c-0.1,0-0.2,0-0.3,0l-7.6,4.2
					c-0.1,0.1-0.2,0.2-0.3,0.3L131.1,72.1z"/>
				<path class="st11" d="M134.4,64.5l0.2-0.2l-0.4-0.2l0,0c-0.1,0-0.2,0-0.3,0l-0.1,0.1L134.4,64.5z"/>
				<path class="st11" d="M126.3,68.3c-0.2,0.1-0.3,0.4-0.3,0.6l0.7,0.4l0.4-0.6L126.3,68.3z"/>
				<path class="st24" d="M126.7,68.5l7.6-4.2c0.2-0.1,0.4,0,0.4,0.3l0,5.7c0,0.3-0.2,0.6-0.4,0.7l-7.6,4.2c-0.2,0.1-0.4,0-0.4-0.3
					l0-5.7C126.4,68.9,126.5,68.6,126.7,68.5z"/>
			</g>
			<path class="st19" d="M123,69.6l0.1,0.2c0.1,0.3,0.4,0.5,0.6,0.7l0.8,0.4c0.2,0.1,0.5,0.1,0.8,0c0,0,0,0,0,0
				c0.2-0.1,0.3-0.5,0.1-0.7l-0.8-0.8c0,0,0.4,0.3,0.6,0.2c0.1-0.1-0.4-0.6-0.8-0.6c-0.4,0-0.8-0.3-0.8-0.3L123,69.6z"/>
			<path class="st2" d="M125,52.3c0,0,2.9,3,4,5.7c0,0-1,1.7-3.4,2.3C123.3,61,125,52.3,125,52.3z"/>
			<path class="st0" d="M126.2,60.1l-0.5-4.3l1.1,4C126.6,60,126.4,60.1,126.2,60.1z"/>
			<path class="st7" d="M122.9,51.7l0.8-0.2c0,0-0.4,0.6-0.9,0.7c-0.5,0.1-0.6-0.3-0.6-0.3L122.9,51.7z"/>
		</g>
	</g>
	<path class="st5" d="M59.1,104.1c0.3,0,0.7-0.1,1-0.2l13.5-7.4c0.4-0.2,0.7-0.6,0.7-1.1c0-0.5-0.2-0.9-0.7-1.1L69.8,92
		c-0.1-0.1-0.3,0-0.4,0.1c-0.1,0.1,0,0.3,0.1,0.3l3.7,2.1c0.3,0.1,0.4,0.4,0.4,0.7c0,0.3-0.2,0.5-0.4,0.7l-13.5,7.4
		c-0.5,0.2-1,0.2-1.5,0l-4.6-2.7c-0.1-0.1-0.3,0-0.4,0.1c-0.1,0.1,0,0.3,0.1,0.3l4.6,2.7C58.4,104,58.7,104.1,59.1,104.1z"/>
	<g>
		<g>
			<g>
				<path class="st24" d="M95,51.9l8.8-4.8c0.2-0.1,0.3-0.1,0.5,0c0,0,0,0,0,0l0.9,0.5c0,0-0.4,0.1-0.6,0.2v6.1
					c0,0.5-0.3,1.1-0.7,1.3l-8.4,4.6v0.7L94.5,60l0,0c-0.1-0.1-0.2-0.3-0.2-0.5v-6.2C94.3,52.7,94.6,52.1,95,51.9z"/>
				<path class="st25" d="M95.8,60.4l8.8-4.8c0.4-0.2,0.7-0.8,0.7-1.3V48c0-0.5-0.3-0.7-0.7-0.5l-8.8,4.8c-0.4,0.2-0.7,0.8-0.7,1.3
					v6.2C95.1,60.4,95.4,60.6,95.8,60.4z"/>
			</g>
			<g>
				<path class="st7" d="M101.7,53.4c0,0.4,0.3,0.5,0.6,0.3c0.3-0.2,0.6-0.6,0.6-1c0-0.4-0.3-0.5-0.6-0.3
					C102,52.6,101.7,53.1,101.7,53.4z"/>
				<path class="st7" d="M99.9,54.4c0,0.4,0.3,0.5,0.6,0.3c0.3-0.2,0.6-0.6,0.6-1c0-0.4-0.3-0.5-0.6-0.3
					C100.2,53.6,99.9,54,99.9,54.4z"/>
				<path class="st7" d="M98.1,55.4c0,0.4,0.3,0.5,0.6,0.3c0.3-0.2,0.6-0.6,0.6-1c0-0.4-0.3-0.5-0.6-0.3
					C98.4,54.6,98.1,55,98.1,55.4z"/>
			</g>
		</g>
		<g>
			<g>
				<path class="st26" d="M100,44l8.8-4.8c0.2-0.1,0.3-0.1,0.5,0c0,0,0,0,0,0l0.9,0.5c0,0-0.4,0.1-0.6,0.2V46c0,0.5-0.3,1.1-0.7,1.3
					l-8.4,4.6v0.7l-0.9-0.5l0,0c-0.1-0.1-0.2-0.3-0.2-0.5v-6.2C99.3,44.8,99.6,44.3,100,44z"/>
				<path class="st27" d="M100.9,52.6l8.8-4.8c0.4-0.2,0.7-0.8,0.7-1.3v-6.2c0-0.5-0.3-0.7-0.7-0.5l-8.8,4.8
					c-0.4,0.2-0.7,0.8-0.7,1.3v6.2C100.2,52.6,100.5,52.8,100.9,52.6z"/>
			</g>
			<g>
				<path class="st7" d="M106.7,45.6c0,0.4,0.3,0.5,0.6,0.3c0.3-0.2,0.6-0.6,0.6-1c0-0.4-0.3-0.5-0.6-0.3
					C107,44.8,106.7,45.2,106.7,45.6z"/>
				<path class="st7" d="M104.9,46.6c0,0.4,0.3,0.5,0.6,0.3c0.3-0.2,0.6-0.6,0.6-1c0-0.4-0.3-0.5-0.6-0.3
					C105.2,45.8,104.9,46.2,104.9,46.6z"/>
				<path class="st7" d="M103.1,47.5c0,0.4,0.3,0.5,0.6,0.3c0.3-0.2,0.6-0.6,0.6-1c0-0.4-0.3-0.5-0.6-0.3
					C103.4,46.7,103.1,47.2,103.1,47.5z"/>
			</g>
		</g>
	</g>
	<g>
		<path class="st28" d="M85.4,98.3c2.8,1.5,7.4,1.5,10.2,0s2.8-4.1,0-5.6c-2.8-1.5-7.4-1.5-10.2,0S82.6,96.8,85.4,98.3z"/>
		<g>
			<path class="st8" d="M89.8,97.3c0,0,0.4,0.6-0.1,1.2c-0.5,0.5-4-0.6-4.8-2.1c-0.7-1.5,2.8-0.5,3.6,0
				C89.3,96.8,89.8,97.3,89.8,97.3z"/>
			<path class="st8" d="M94.6,94.6c0,0,0.4,0.6-0.1,1.2c-0.5,0.5-4-0.6-4.8-2.1c-0.7-1.5,2.8-0.5,3.6,0
				C94.1,94.1,94.6,94.6,94.6,94.6z"/>
			<path class="st16" d="M87,78.3l0,10.8c0,0,0.5,7.2,0.5,7.6c0,1.1,1.9,1.2,2,0.8c0.1-0.5,0.6-9.2,0.6-9.2l0.9-7l0.4,5.6
				c0,0,0.9,5.9,1,6.8c0.1,0.9,1.9,1.5,1.9,0.8c0-0.7,0.6-17.6,0.6-17.6L87,78.3z"/>
			<path class="st0" d="M87.5,66c0,0,5.1-2.5,6.4-1.9c1.3,0.6,1.3,1.4,1.3,4.5c0.1,3.1-0.4,8.4-0.4,8.4s-2.6,1.9-4.9,1.9
				c-2.3,0-2.9-0.6-2.9-0.6S85.6,66.9,87.5,66z"/>
			<path class="st29" d="M81.7,71.5c0,0-0.5-0.4-1-1.6c-0.5-1.1-0.5-1.6-0.1-2.1c0.4-0.5,0.9-0.2,1,0.3c0.2,0.5,0.3,0.6,0.3,0.6
				s0-0.4,0.2-0.4c0.2,0,0.2,0.1,0.3,0.9c0.1,0.8,0.1,1.3,0.1,1.3L81.7,71.5z"/>
			<path class="st0" d="M84.6,74.6c0,0-2.5-2-3.5-3.6c-0.1-0.3,0.6-1.3,1.3-1.2c0.2,0.2,3.8,3.5,3.8,3.5S85.9,75.2,84.6,74.6z"/>
			<g>
				<path class="st0" d="M88.2,69.9c0.4-1.2,1.1-3.5,0.2-3.8c-1-0.3-2,0.4-2.8,2.8c-0.4,1.3-1.1,3.1-1.3,4.3c-0.1,1,0.4,1.3,0.7,1.5
					C85.9,75,87.7,71.5,88.2,69.9z"/>
			</g>
			<path class="st29" d="M92.1,62.1v2.3c0,0-0.9,1-2.1,0.6c-0.2-0.4-0.3-1.8-0.1-2.4C90,61.9,92.1,62.1,92.1,62.1z"/>
			<path class="st29" d="M87.6,60.1c0,0-0.4,3.7,1.8,4.1c2.2,0.4,3.2-1.4,3.3-3.2C92.9,58.6,88.3,56.4,87.6,60.1z"/>
		</g>
		<path class="st21" d="M89.3,62.8c0,0,1,1.2,2.1,1.2s1.7-2.6,1.7-3.3c0-0.7-0.7-3.2-3.6-2.7c-2.8,0.4-2.8,1.5-2.1,2.3
			C88.1,61,89.6,61.5,89.3,62.8z"/>
		<path class="st29" d="M88.8,61.8c0,0,0.4-1,0.8-0.4c0.4,0.6-0.1,1.1-0.4,1.4S88.3,62.4,88.8,61.8z"/>
	</g>
	<g>
		<g>
			<g>
				<path class="st8" d="M63.7,49.3c0.2,0,0.3-0.1,0.3-0.3V35.9c0-0.2-0.2-0.3-0.3-0.3s-0.3,0.1-0.3,0.3V49
					C63.4,49.2,63.6,49.3,63.7,49.3z"/>
				<g>
					<g>
						
							<rect x="62.5" y="35" transform="matrix(-1 -4.339918e-11 4.339918e-11 -1 127.4879 74.993)" class="st8" width="2.4" height="4.9"/>
						<path class="st10" d="M62.9,40.4c0.5,0.3,1.2,0.3,1.7,0c0.5-0.3,0.5-0.7,0-0.9c-0.5-0.3-1.2-0.3-1.7,0
							C62.4,39.8,62.4,40.2,62.9,40.4z"/>
					</g>
					<g>
						
							<rect x="61.8" y="28.1" transform="matrix(-1 -4.215351e-11 4.215351e-11 -1 127.4879 64.0343)" class="st8" width="3.9" height="7.7"/>
						<path class="st9" d="M64.9,35.8v1.7c-0.7,0.3-1.7,0.3-2.4,0v-1.7C63.2,35.5,64.2,35.5,64.9,35.8z"/>
						<path class="st10" d="M62.4,36.6c0.8,0.4,2,0.4,2.8,0c0.8-0.4,0.8-1.1,0-1.5c-0.8-0.4-2-0.4-2.8,0
							C61.6,35.6,61.6,36.2,62.4,36.6z"/>
					</g>
				</g>
			</g>
			<g>
				<path class="st8" d="M46.7,59.2c0.2,0,0.3-0.1,0.3-0.3v-13c0-0.2-0.1-0.3-0.3-0.3c-0.2,0-0.3,0.1-0.3,0.3v13
					C46.3,59.1,46.5,59.2,46.7,59.2z"/>
				<g>
					<g>
						
							<rect x="45.5" y="45.1" transform="matrix(-1 -4.256385e-11 4.256385e-11 -1 93.3091 95.074)" class="st8" width="2.4" height="4.9"/>
						<path class="st10" d="M45.8,50.4c0.5,0.3,1.2,0.3,1.7,0c0.5-0.3,0.5-0.7,0-0.9c-0.5-0.3-1.2-0.3-1.7,0
							C45.4,49.8,45.4,50.2,45.8,50.4z"/>
					</g>
					<g>
						
							<rect x="44.7" y="38.3" transform="matrix(-1 -4.306834e-11 4.306834e-11 -1 93.3091 84.2888)" class="st8" width="3.8" height="7.6"/>
						<path class="st9" d="M47.8,45.9v1.6c-0.7,0.3-1.7,0.3-2.4,0v-1.6C46.2,45.6,47.1,45.6,47.8,45.9z"/>
						<path class="st10" d="M45.3,46.7c0.8,0.4,2,0.4,2.7,0c0.8-0.4,0.8-1.1,0-1.5c-0.8-0.4-2-0.4-2.7,0
							C44.5,45.6,44.5,46.3,45.3,46.7z"/>
					</g>
				</g>
			</g>
			<g>
				<g>
					<polygon class="st26" points="33.6,51.4 27.9,48.3 33.3,41.7 34.7,44 					"/>
					<path class="st26" d="M74.9,15.5l-9.2-4.9c0,0,0.4,5,0.4,5c0,0,5.3,1.5,5.3,1.5L74.9,15.5z"/>
					<path class="st26" d="M31.9,35.2c0.7-0.4,1.4-0.6,2-0.7c0.9-4.6,4.2-9.5,8.2-11.8c1.2-0.7,2.4-1,3.4-1.1
						c0.5-5.6,4.5-12,9.4-14.7c2.6-1.4,4.9-1.6,6.7-0.8l0,0l0.1,0c0,0,0.1,0,0.1,0.1l5.4,3l-1.8,1.4c1.6,0.7,2.7,2.4,2.7,4.9
						c0,4.7-3.3,10.4-7.6,12.8L32,47.9c-3.2,1.8-5.8,0.4-5.8-3.1C26.1,41.2,28.7,36.9,31.9,35.2z"/>
					<path class="st26" d="M67.8,13.3L55.4,6.5c2.4-1.2,4.6-1.3,6.2-0.5l0,0l0.1,0c0,0,0.1,0,0.1,0.1l5.4,3l-1.8,1.4
						C66.6,10.9,67.4,11.9,67.8,13.3z"/>
					<path class="st26" d="M45.2,33.7l-9.1-5c1.5-2.6,3.6-4.8,6-6.1c0.3-0.2,0.6-0.3,0.9-0.5l11.6,6.3L45.2,33.7z"/>
					<path class="st6" d="M64.7,9.7l-4,2.2l-7.4-4.1c0.5-0.4,1.1-0.8,1.6-1.1c0.9-0.5,1.7-0.8,2.6-1.1L64.7,9.7z"/>
					<path class="st6" d="M37,27.3l7.3,4l-2.5,2.7l-6.6-3.6C35.7,29.3,36.3,28.2,37,27.3z"/>
					<path class="st6" d="M37.6,38.3c0.7-0.4,1.4-0.6,2-0.7c0.9-4.6,4.2-9.5,8.2-11.8c1.2-0.7,2.4-1,3.4-1.1
						c0.5-5.6,4.5-12,9.4-14.7c5.3-3,9.7-0.6,9.7,5.2c0,0.2,0,0.4,0,0.6c3.9-1.8,7,0.2,7,4.5c0,4.7-3.3,10.4-7.6,12.8l-32,18
						c-3.2,1.8-5.8,0.4-5.8-3.1C31.8,44.3,34.4,40.1,37.6,38.3z"/>
					<g>
						<path class="st7" d="M70.3,15.7c0-0.2,0-0.4,0-0.6c0,0,0,0,0,0c2.1-0.8,4-0.5,5.2,0.8C74.2,14.9,72.4,14.8,70.3,15.7z"/>
						<path class="st7" d="M37.1,37.8c0.7-0.4,1.4-0.6,2-0.7c0.9-4.6,4.2-9.5,8.2-11.8c1.2-0.7,2.4-1,3.4-1.1
							c0.5-5.6,4.5-12,9.4-14.7c3.3-1.9,6.2-1.6,8,0.2c-1.8-1.4-4.5-1.5-7.5,0.2c-4.9,2.8-9,9.2-9.4,14.7c-1,0.1-2.2,0.5-3.4,1.1
							c-4,2.2-7.3,7.2-8.2,11.8c-0.6,0.1-1.3,0.3-2,0.7c-3.2,1.8-5.7,6.1-5.7,9.6c0,1.3,0.4,2.3,1,2.9c-0.9-0.6-1.4-1.8-1.4-3.4
							C31.4,43.9,33.9,39.6,37.1,37.8z"/>
					</g>
					<g>
						<path class="st25" d="M71,17.1l-2.4,1.1l0.1-2.5c0-0.2,0-0.4,0-0.5c0-2.3-0.8-3.9-2.1-4.6c-1.3-0.7-3.2-0.5-5.2,0.7
							c-4.4,2.5-8.2,8.4-8.7,13.5l-0.1,1.3l-1.4,0.1c-0.8,0.1-1.7,0.4-2.7,0.9c-3.5,2-6.6,6.5-7.4,10.7l-0.2,1.1l-1.1,0.2
							c-0.4,0.1-0.9,0.2-1.4,0.5c-2.7,1.5-4.9,5.3-4.9,8.2c0,1.1,0.3,1.9,0.9,2.2c0.6,0.3,1.5,0.2,2.5-0.4l32-18
							c3.7-2.1,6.8-7.3,6.8-11.4c0-1.6-0.5-2.8-1.4-3.4c-0.4-0.2-0.8-0.3-1.3-0.3C72.4,16.6,71.7,16.8,71,17.1z"/>
					</g>
				</g>
			</g>
		</g>
		<g>
			<polygon class="st26" points="56.4,35.7 55.5,35.2 56.4,34.5 			"/>
			<polygon class="st22" points="59.4,23.2 58.4,22.8 58.4,23.3 			"/>
			<polygon class="st26" points="53.7,32.8 52.7,32.3 54.6,30.6 			"/>
			<g>
				<path class="st26" d="M55.8,35.2l4.6-2.6c0.2-0.1,0.4-0.5,0.4-0.7l0-5l-5.4,3l0,5C55.3,35.2,55.5,35.3,55.8,35.2z"/>
				<path class="st26" d="M58.4,22.8l5,3c0.2,0.1,0,0.6-0.3,0.8L58,29.4L53,32.3c-0.3,0.2-0.5-0.1-0.3-0.5l4.9-8.5
					C57.8,22.9,58.2,22.7,58.4,22.8z"/>
			</g>
			<g>
				<path class="st27" d="M56.7,35.6l4.6-2.6c0.2-0.1,0.4-0.5,0.4-0.7l0-5l-5.4,3l0,5C56.3,35.7,56.5,35.8,56.7,35.6z"/>
				<path class="st27" d="M59.4,23.3l5,3c0.2,0.1,0,0.6-0.3,0.8L59,29.9L54,32.7c-0.3,0.2-0.5-0.1-0.3-0.5l4.9-8.5
					C58.8,23.3,59.2,23.1,59.4,23.3z"/>
			</g>
		</g>
		<g>
			<g>
				<path class="st26" d="M48.2,32.7l-3.1,1.7c-0.2,0.1-0.3,0.3-0.3,0.5l0,3.4l3.6-2l0-3.4C48.5,32.7,48.4,32.6,48.2,32.7z"/>
				<path class="st26" d="M46.4,40.9l-3.3-2c-0.1-0.1,0-0.4,0.2-0.5l3.4-1.9l3.4-1.9c0.2-0.1,0.3,0.1,0.2,0.3L47,40.6
					C46.8,40.9,46.6,41,46.4,40.9z"/>
			</g>
			<g>
				<path class="st6" d="M49,33.1l-3.1,1.7c-0.2,0.1-0.3,0.3-0.3,0.5l0,3.4l3.6-2l0-3.4C49.3,33.1,49.1,33,49,33.1z"/>
				<path class="st6" d="M47.2,41.3l-3.3-2c-0.1-0.1,0-0.4,0.2-0.5l3.4-1.9l3.4-1.9c0.2-0.1,0.3,0.1,0.2,0.3L47.8,41
					C47.6,41.3,47.4,41.4,47.2,41.3z"/>
			</g>
		</g>
	</g>
	<g>
		<g>
			<path class="st19" d="M35.9,95c0,0-0.7,0.1-0.9,0.1c-0.2,0.1-1.1,0.2-1.4,0.4c-0.3,0.2,0.4,0.2,0.6,0.3c0.2,0.1-0.3,0.3-0.6,0.5
				c-0.3,0.2-0.5,0.4-0.6,1c-0.1,0.4,1.3,1.5,1.6,0.8c0.3-0.6,0.4-0.6,1-0.9c0.7-0.4,1.1-0.9,1.4-1.1L35.9,95z"/>
			<path class="st30" d="M35.9,94.6l-0.6,0.4c0,0,0.6,1.1,1.2,1.7l0.6-0.4L35.9,94.6z"/>
			<polygon class="st31" points="40.8,91.5 35.7,94.6 36.9,96.5 42.8,93.3 44.3,91.1 44.5,84.9 			"/>
			<path class="st32" d="M47,118.1l-2.3-0.1c0,0-0.2,0.4-1,0.6c-0.8,0.2-2.4,1.1-2,1.9c0.3,0.8,1.6,0.8,2.4,0.4
				c0.7-0.3,1.7-0.5,1.7-0.5l0.2,0.3l1.5-0.4l0.1-2.1L47,118.1z"/>
			<path class="st32" d="M48.4,119.1c0,0-0.3,0.8-0.7,1.1c-0.4,0.3-1.4,1.9-1.1,2.4c0.3,0.5,1,0.7,1.4,0.6c0.4-0.1,1.4-0.6,1.8-1.3
				l0.3-0.6c0,0,0.1,0.3,0.2,0.2c0,0,1-0.5,1.1-0.7c0,0-0.1-1.6-0.2-2.3L48.4,119.1z"/>
			<path class="st33" d="M47.1,97.9h-3C44,98,44,105.4,44,106.6c0,1.2,0.4,11.4,0.4,11.4s1.2,1,3.1,0.4l0.3-12.9L47.1,97.9z"/>
			<path class="st33" d="M51,97c0,0,0.1,3.8,0,5.1c0,1.3,0.4,6.7,0.4,6.8c0,0.1,0.2,9.9,0.2,9.9s-1.3,1.1-3.6,0.6
				c0,0-0.7-13.3-1-15.3c-0.3-2.1-0.5-6.3-0.5-6.3L51,97z"/>
			<path class="st31" d="M49.7,84.1l-3.8,0.1l-1.5,0.6c0,0-0.6,1.2-0.9,3.5c-0.3,2.3,0.3,9.3,0.3,9.3c1.4,0.7,6.2,0.5,6.2,0.5
				c0.9-2.3,1.8-12.7,1.8-12.7L49.7,84.1z"/>
			<path class="st34" d="M46.9,84.2l-1.3,1.1c-0.6,3.4-0.5,9.9-0.5,12.7c0.5,0.1,1,0.1,1.6,0.2c0.1-7,2.4-13.6,2.6-14.1L46.9,84.2z"
				/>
			<path class="st32" d="M45.7,85.9l0.2,1c0,0-0.5,6.4-0.7,9.2l0.5,1.1l0.7-1l0.1-9l0.7-1.3C47.4,86,46.7,85.5,45.7,85.9z"/>
			<polygon class="st30" points="46.5,85.8 45.3,86.3 45.8,84.3 46.4,83.8 			"/>
			<polygon class="st20" points="49.1,83.3 46.2,83.7 46.5,85.8 49.3,84.1 			"/>
			<path class="st19" d="M50.2,80.9c0,1.8-2.1,3.2-3.7,3.2c-1.6,0-2-1.4-2-3.2s1.2-3.2,2.8-3.2C48.8,77.6,50.2,79.1,50.2,80.9z"/>
			<path class="st35" d="M47.5,80.7c0,0-0.4,1.9,0.5,1.8c1,0,0.6,0.3,0.8,0.7c0.2,0.4,1,0.1,1.4-0.8c0.4-0.9,1.1-2.9,0.5-4
				c-0.9-1.6-2.4-1.8-3.4-1.7c-1.2,0.1-3,1.4-3.1,2.3C44,80.6,47.5,80.7,47.5,80.7z"/>
			<polygon class="st36" points="50.4,97.7 46.7,97.6 46.7,99.7 50.6,100.3 			"/>
			<path class="st19" d="M49.8,99.8c0,0-0.4,0.6-0.5,0.8c-0.1,0.2-0.6,1-0.6,1.3c0,0.4,0.4-0.2,0.6-0.3c0.2-0.1,0.4,0,0.4,0.4
				c0,0.4-0.4,1.1-0.5,1.5c-0.1,0.4,1.4,0.1,1.7-0.5c0.4-0.6,0.5-1.2,0.5-1.9c-0.1-0.7-0.4-1.1-0.4-1.4L49.8,99.8z"/>
			<polygon class="st30" points="49.4,99.4 49.2,100.2 51.6,100.9 51.8,100 			"/>
			<path class="st31" d="M51.9,85.6c0,0-1.6,0.1-1.4,2.9c0.2,2.8,0.2,4.6,0.2,4.6l-1.3,6.5l2.5,0.7c0,0,1.7-6.6,1.7-6.8
				c0-0.2-0.4-5.8-0.4-5.8S52.9,86.1,51.9,85.6z"/>
			<path class="st36" d="M43.8,96.3l0,2.5c0,0.2,0.1,0.4,0.3,0.4l1,0.3l0-1.7L43.8,96.3z"/>
			<polygon class="st30" points="49.4,83.7 46.5,85.8 47.8,87 49.7,84.1 			"/>
		</g>
		<g>
			<path class="st37" d="M26.1,132.8c-2.5,1.2-6.4,1.2-8.9,0c-2.5-1.2-2.5-3.3,0-4.5c2.5-1.2,6.4-1.2,8.9,0
				C28.5,129.5,28.6,131.5,26.1,132.8z"/>
			<path class="st19" d="M23.4,85.6c0,0,0.4,0.6,1.1,2.6c0.7,2,0.2,3.5-1.2,3.9C22.3,92.3,23.4,85.6,23.4,85.6z"/>
			<path class="st19" d="M19.7,126.9c-0.1-2,0.3-5.8,0.3-5.8l0.2-4.1l0.7-8.1c0,0,0,0.2,0.1,0.5c0-0.3,0.1-0.5,0.1-0.8
				c0.2-0.8,0.4-1.6,0.8-2.4h-5.3c0,0.7,0.1,1.3,0.3,1.7c0.7,1.6,1,5.2,1,7s-0.6,3.1-0.6,4.6c0,1.5,0.3,3.4,0.5,4.5
				c0.2,1,0,3.1-0.1,3.8c-0.1,0.6,6.1,3.4,3.7,0.9C21.4,128.6,19.7,126.9,19.7,126.9z"/>
			<g>
				<path class="st5" d="M21.5,128.7c0,0,1.6,0.1,1,0.6c-0.5,0.5-1.2,1.1-2.1,1.2c-0.9,0.1-1.7-0.8-2.3-1.1c-0.6-0.3-0.9-0.5-0.8-1
					c0.1-0.4,0-1.3,1.1-0.9c0.8,0.3,0.8,1.2,1,1.3C20.2,129.2,22.7,129.9,21.5,128.7z"/>
				<path class="st5" d="M17.4,128.9c0,0,0.3,0.1,0.4,0.8s0,1.3,0,1.3h0.8v-2L17.4,128.9z"/>
			</g>
			<path class="st19" d="M24.7,130.5c-0.3,0-1.4-1.9-1.4-1.9l0.4-6.9c0,0,0.2-3.4,0.5-4.4c3-8.6,0.1-14.5-0.2-15.9
				c-0.2-1.5,0.9-2.4,1.1-4c0.3-1.6-1.4-3.4-1.4-3.4s-3.7-2.1-6.3-1.8s-0.5,4.5,0,5.5c0.5,1,1.2,3.1,0.9,4.5c-1.3,1.4-2.1,4.4-1.3,6
				c0.5,1,0.8,3,0.9,4.8h2.5v0.3h0.3l0.3-4.1c0,0,0.5,6.4,0.5,7.3c0,0.9-0.5,3.5-0.5,4.9c0,1.4,0.3,3.1,0.4,4c0,0.9,0.1,2.6,0.1,2.6
				l-0.2,2.4c0,0,1-0.2,1.1,0.1c0.1,0.2,0.8,1.4,0.8,1.4h1.2c0,0,0.9-0.9,1.3-0.9C25.9,130.8,25,130.4,24.7,130.5z"/>
			<path class="st33" d="M16.3,93c0,0,0.1-0.9,1-0.7c0.9,0.2,1.7,1.4,1.7,3.6c0,2.3-0.2,4.5-0.3,4.6c-0.1,0.2-1.5,2.3-1.9,0.1
				C16.5,98.5,15.8,94.8,16.3,93z"/>
			<path class="st38" d="M17.9,105.4c0,0-0.1,0.5,0.1,1.4c0.3,0.9,0.5,1.2,1,1.4c0.5,0.2,0.6-0.3,0.5-0.6c-0.1-0.4-0.1-0.5-0.1-0.5
				s0.2,0.2,0.3,0.1c0.1-0.1,0.1-0.1-0.3-0.7c-0.4-0.5-0.6-0.8-0.6-0.8L17.9,105.4z"/>
			<path class="st33" d="M18.9,100.8l0.4,5.5c0,0-0.2,0.6-1.1,0.1c-0.9-0.6-1.3-6-1.3-6S18.5,98.8,18.9,100.8z"/>
			<path class="st31" d="M17.4,92.1c2.6-0.3,6.3,1.8,6.3,1.8s1.7,1.9,1.4,3.4c-0.3,1.6-1.4,2.5-1.1,4c0.1,0.6,0.6,1.8,1,3.6h-8.2
				c0.3-1.1,0.8-2.1,1.4-2.8c0.3-1.4-0.4-3.5-0.9-4.5C16.9,96.7,14.8,92.4,17.4,92.1z"/>
			<path class="st0" d="M24.4,102.8c0,0-0.4,1.1-2.2,1c-1.9-0.1-4-1.7-4-1.7s-1.8,1.6-1.8,4.1c0,1.9,1.6,6.4,1.2,9.3
				c1,1.2,3,2.1,4.7,2.2c1.7,0.1,2.7-1.2,2.7-1.2s1.2-4.5,1-8.3C25.7,104.3,24.7,103.5,24.4,102.8z"/>
			<g>
				<path class="st5" d="M24.6,130.4c0,0,1.6,0.1,1,0.6c-0.5,0.5-1.2,1.1-2.1,1.2c-0.9,0.1-1.7-0.8-2.3-1.1c-0.6-0.3-0.9-0.5-0.8-1
					c0.1-0.4,0.2-1,1.1-0.9c0.9,0.2,0.8,1.2,1,1.3C23.3,130.9,25.7,131.6,24.6,130.4z"/>
				<path class="st5" d="M20.5,130.6c0,0,0.3,0.1,0.4,0.8c0.1,0.7,0,1.3,0,1.3h0.8v-2L20.5,130.6z"/>
			</g>
			<path class="st35" d="M24.1,86c0,0-1.3-1-3.1-1c-1.8,0-3.8,0.8-3.9,3.7c-0.2,2.9,0.6,4,0.6,4s0.7,1.5,3.8,1.2
				c1.5-0.1,2.6-0.7,2.6-0.7S22.5,89,24.1,86z"/>
			<g>
				<g>
					<path class="st33" d="M22.4,95.1c0,0-0.5-0.8,0.4-1.1c0.9-0.4,2.3,0.2,3.7,2.1c1.4,1.9,2.6,3.7,2.6,3.9c0,0.2,0.5,1.9-1.5,1.1
						C25.3,100.2,23,96.8,22.4,95.1z"/>
					<path class="st19" d="M33.2,98.2c0,0,0.6-0.1,1.3-0.8c0.7-0.7,0.9-1,0.8-1.5c-0.2-0.5-0.6-0.4-0.9-0.2
						c-0.3,0.3-0.4,0.3-0.4,0.3s0.1-0.3-0.1-0.4c-0.2-0.1-0.2,0-0.5,0.6c-0.3,0.6-0.5,0.9-0.5,0.9L33.2,98.2z"/>
					<path class="st33" d="M27.7,99.6l5.2-2.5c0,0,1.2,0.2,0.6,0.9c-2.3,2.6-5,3.3-5,3.3S27.2,100,27.7,99.6z"/>
				</g>
			</g>
		</g>
	</g>
</g>
</svg>
