<?xml version="1.0" encoding="utf-8"?>
<!-- Generator: Adobe Illustrator 24.1.1, SVG Export Plug-In . SVG Version: 6.00 Build 0)  -->
<svg version="1.1" id="Layer_1" xmlns="http://www.w3.org/2000/svg" xmlns:xlink="http://www.w3.org/1999/xlink" x="0px" y="0px"
	 viewBox="0 0 150 150" style="enable-background:new 0 0 150 150;" xml:space="preserve">
<style type="text/css">
	.st0{fill:#3C6CAC;}
	.st1{fill:url(#SVGID_1_);}
	.st2{fill:#CBCBCB;}
	.st3{fill:#87B5E1;}
	.st4{fill:#FFFFFF;}
	.st5{fill:#57738C;}
	.st6{opacity:0.3;}
	.st7{opacity:0.5;fill:#939598;enable-background:new    ;}
	.st8{fill:#939598;}
	.st9{fill-rule:evenodd;clip-rule:evenodd;fill:#CBCBCB;}
	.st10{fill-rule:evenodd;clip-rule:evenodd;fill:#194560;}
	.st11{fill-rule:evenodd;clip-rule:evenodd;fill:#5892CD;}
	.st12{fill-rule:evenodd;clip-rule:evenodd;fill:url(#SVGID_2_);}
	.st13{fill-rule:evenodd;clip-rule:evenodd;fill:#CAE7E9;}
	.st14{fill-rule:evenodd;clip-rule:evenodd;fill:#D25727;}
	.st15{fill-rule:evenodd;clip-rule:evenodd;fill:#F36D21;}
	.st16{fill-rule:evenodd;clip-rule:evenodd;fill:#0099CD;}
	.st17{fill-rule:evenodd;clip-rule:evenodd;fill:#5CC0D8;}
	.st18{fill-rule:evenodd;clip-rule:evenodd;fill:#DD8833;}
	.st19{fill-rule:evenodd;clip-rule:evenodd;fill:#3C6CAC;}
	.st20{fill-rule:evenodd;clip-rule:evenodd;fill:#713625;}
	.st21{fill:#E6E7E8;}
	.st22{fill:#D1E0EA;}
	.st23{fill:#DD8833;}
	.st24{fill:#F36D21;}
	.st25{fill:#D25727;}
	.st26{fill:#BBCEE0;}
	.st27{fill:#0099CD;}
	.st28{fill:#9CCAEC;}
	.st29{fill:#A7BCCE;}
	.st30{fill:#F4F6FB;}
	.st31{fill:#5CC0D8;}
	.st32{fill:#F0CFC9;}
	.st33{fill:#FFFBF1;}
	.st34{fill:#F5DDD7;}
	.st35{fill:#F8C32C;}
	.st36{fill:#EF9D27;}
	.st37{fill:#FBC1B1;}
	.st38{fill:#E6E7E7;}
	.st39{fill:#3D5466;}
	.st40{fill:#20232E;}
	.st41{fill:#263C49;}
	.st42{fill:#D5D7D8;}
	.st43{fill:#EA9C92;}
	.st44{fill:#5B301A;}
	.st45{opacity:0.2;fill:#024EA1;enable-background:new    ;}
	.st46{fill:#22456D;}
	.st47{fill:#C4DDEF;}
	.st48{fill-rule:evenodd;clip-rule:evenodd;fill:#0E0E0F;}
	.st49{fill-rule:evenodd;clip-rule:evenodd;fill:#414042;}
	.st50{fill-rule:evenodd;clip-rule:evenodd;fill:#D1D3D4;}
	.st51{fill-rule:evenodd;clip-rule:evenodd;fill:#A7A9AC;}
	.st52{fill-rule:evenodd;clip-rule:evenodd;fill:#FFFFFF;}
	.st53{fill-rule:evenodd;clip-rule:evenodd;fill:#0C7A99;}
	.st54{fill-rule:evenodd;clip-rule:evenodd;fill:#82CBE5;}
	.st55{fill-rule:evenodd;clip-rule:evenodd;fill:#808285;}
	.st56{fill-rule:evenodd;clip-rule:evenodd;fill:#FBC1B1;}
	.st57{fill-rule:evenodd;clip-rule:evenodd;fill:#E8A477;}
	.st58{fill-rule:evenodd;clip-rule:evenodd;fill:#EA9C92;}
	.st59{fill-rule:evenodd;clip-rule:evenodd;fill:#57738C;}
	.st60{fill-rule:evenodd;clip-rule:evenodd;fill:#3D5466;}
	.st61{fill-rule:evenodd;clip-rule:evenodd;fill:#131416;}
	.st62{fill-rule:evenodd;clip-rule:evenodd;fill:#010101;}
	.st63{fill-rule:evenodd;clip-rule:evenodd;fill:#20232E;}
	.st64{fill-rule:evenodd;clip-rule:evenodd;fill:#425D70;}
	.st65{fill-rule:evenodd;clip-rule:evenodd;fill:#263C49;}
	.st66{fill-rule:evenodd;clip-rule:evenodd;fill:#DC976A;}
	.st67{fill-rule:evenodd;clip-rule:evenodd;fill:#6E4026;}
	.st68{fill-rule:evenodd;clip-rule:evenodd;fill:#5B301A;}
	.st69{fill-rule:evenodd;clip-rule:evenodd;fill:#4A6A7C;}
	.st70{fill-rule:evenodd;clip-rule:evenodd;fill:#E9F7FE;}
	.st71{fill-rule:evenodd;clip-rule:evenodd;fill:#CACACA;}
	.st72{fill-rule:evenodd;clip-rule:evenodd;fill:#BDDBF3;}
	.st73{fill-rule:evenodd;clip-rule:evenodd;fill:#E6E7E8;}
	.st74{fill-rule:evenodd;clip-rule:evenodd;fill:#C2CCE8;}
	.st75{fill-rule:evenodd;clip-rule:evenodd;fill:#E8F5FB;}
</style>
<g>
	<g id="IT_Operations_Management">
		<path class="st0" d="M117.9,124.5l-11.1-7.7c-0.3-0.2-0.7-0.2-1.1-0.1l-8.5,4.1c-0.3,0.1-0.3,0.4,0,0.6l11.1,7.7
			c0.3,0.2,0.7,0.2,1.1,0.1l8.5-4.1C118.2,125,118.2,124.7,117.9,124.5z"/>
		
			<linearGradient id="SVGID_1_" gradientUnits="userSpaceOnUse" x1="24.06" y1="397.7218" x2="51.071" y2="397.7218" gradientTransform="matrix(0.997 7.706706e-02 7.706706e-02 -0.997 43.2225 515.6941)">
			<stop  offset="0" style="stop-color:#FFFFFF"/>
			<stop  offset="0.38" style="stop-color:#F4F2F6"/>
			<stop  offset="1" style="stop-color:#E6E2EB"/>
		</linearGradient>
		<path class="st1" d="M118,123.3l-11.1-7.7c-0.3-0.2-0.7-0.2-1.1-0.1l-8.5,4.1c-0.3,0.1-0.3,0.4-0.1,0.6l11.1,7.7
			c0.3,0.2,0.7,0.2,1,0.1l8.5-4.1C118.3,123.8,118.3,123.5,118,123.3z"/>
		<path class="st2" d="M118.2,123.6c0,0.1-0.1,0.2-0.2,0.3l-8.5,4.1c-0.1,0-0.2,0.1-0.2,0.1l0,0c-0.1,0-0.2,0-0.3,0l0,0
			c-0.1,0-0.2,0-0.3,0h0c-0.1,0-0.2-0.1-0.2-0.1l-11.1-7.7c0,0,0,0,0,0c0,0,0,0,0,0c0,0,0,0-0.1-0.1l0,0c0,0,0,0,0-0.1l0,0
			c0,0,0-0.1,0-0.1v0.2v0c0,0,0,0,0,0l0,0l0,0v0l0,0l0,0c0,0,0,0,0,0.1l0,0l0,0c0,0,0,0,0,0l0,0l11.1,7.7c0.1,0,0.1,0.1,0.2,0.1
			l0.1,0h0h0l0.1,0h0.1h0.2h0.1h0h0l0.1,0l0.1,0l8.5-4.1c0.1,0,0.2-0.2,0.2-0.3L118.2,123.6z"/>
		<path class="st3" d="M107.4,122.7l4.3-2.2c0.1-0.1,0.3,0,0.4,0c0.1,0.1,0.1,0.2,0,0.2l-4.3,2.2c-0.1,0.1-0.3,0-0.4,0
			C107.3,122.8,107.3,122.7,107.4,122.7z M108.2,123.5c0.1,0.1,0.3,0.1,0.4,0l2.9-1.5c0.1-0.1,0.1-0.2,0-0.2c-0.1-0.1-0.3-0.1-0.4,0
			l-2.9,1.5C108.1,123.3,108.1,123.4,108.2,123.5z M107.3,123.5c-0.4-0.2-0.8-0.3-1.2-0.1l-0.4,0.2c-0.4,0.2-0.4,0.5-0.1,0.7
			c0.4,0.2,0.8,0.3,1.2,0.1l0.4-0.2C107.6,124,107.7,123.7,107.3,123.5L107.3,123.5z"/>
		<path class="st4" d="M106.6,123.6C106.6,123.6,106.6,123.5,106.6,123.6c-0.2,0-0.2,0-0.2,0l0,0.5l-0.2,0c-0.1,0-0.1,0-0.1,0.1
			c0,0,0,0,0,0.1c0,0,0.1,0,0.1,0l0.3,0c0,0,0.1,0,0.1,0c0,0,0,0,0,0L106.6,123.6C106.6,123.6,106.6,123.6,106.6,123.6L106.6,123.6z
			"/>
		<path class="st3" d="M104.7,120.8l4.3-2.2c0.1-0.1,0.3,0,0.4,0c0.1,0.1,0.1,0.2,0,0.2l-4.3,2.2c-0.1,0.1-0.3,0-0.4,0
			C104.6,121,104.6,120.9,104.7,120.8C104.6,120.8,104.7,120.8,104.7,120.8z M105.5,121.6c0.1,0.1,0.3,0.1,0.4,0l2.9-1.5
			c0.1-0.1,0.1-0.2,0-0.2c-0.1-0.1-0.3-0.1-0.4,0l-2.9,1.5C105.4,121.4,105.4,121.4,105.5,121.6
			C105.4,121.5,105.4,121.6,105.5,121.6z M104.6,121.6c-0.4-0.2-0.8-0.3-1.2-0.1l-0.4,0.2c-0.4,0.2-0.4,0.5-0.1,0.7
			c0.4,0.2,0.8,0.3,1.2,0.1l0.4-0.2c0.2-0.1,0.3-0.3,0.3-0.5C104.8,121.8,104.7,121.7,104.6,121.6z"/>
		<path class="st4" d="M103.9,121.7C103.9,121.7,103.8,121.7,103.9,121.7c-0.2,0-0.2,0-0.2,0l0,0.5l-0.2,0c-0.1,0-0.1,0-0.1,0.1
			c0,0,0,0,0,0.1c0,0,0.1,0,0.1,0l0.3,0c0,0,0.1,0,0.1,0c0,0,0,0,0,0L103.9,121.7C103.9,121.7,103.9,121.7,103.9,121.7L103.9,121.7z
			"/>
		<path class="st3" d="M102,118.9l4.3-2.2c0.1-0.1,0.3,0,0.4,0c0.1,0,0.1,0.1,0.1,0.2c0,0,0,0.1-0.1,0.1l-4.3,2.2
			c-0.1,0.1-0.3,0-0.4,0C101.9,119.1,101.9,119,102,118.9z M102.8,119.7c0.1,0.1,0.3,0.1,0.4,0l2.9-1.5c0.1-0.1,0.1-0.2,0-0.2
			c-0.1-0.1-0.3-0.1-0.4,0l-2.9,1.5C102.7,119.5,102.7,119.6,102.8,119.7C102.7,119.7,102.7,119.7,102.8,119.7L102.8,119.7z
			 M101.9,119.7c-0.4-0.2-0.8-0.3-1.2-0.1l-0.4,0.2c-0.2,0.1-0.3,0.3-0.3,0.5c0,0.1,0.1,0.2,0.2,0.3c0.4,0.2,0.8,0.3,1.2,0.1
			l0.4-0.2c0.2-0.1,0.3-0.3,0.3-0.5C102.1,119.9,102,119.8,101.9,119.7L101.9,119.7z"/>
		<path class="st4" d="M101.2,119.8C101.2,119.8,101.1,119.8,101.2,119.8c-0.2,0-0.2,0-0.2,0l0,0.5l-0.2,0c-0.1,0-0.1,0-0.1,0.1
			s0,0,0,0.1c0,0,0.1,0,0.1,0l0.3,0c0,0,0.1,0,0.1,0c0,0,0,0,0,0L101.2,119.8C101.2,119.9,101.2,119.8,101.2,119.8L101.2,119.8z"/>
		<path class="st2" d="M115.7,122.9c-0.4-0.2-0.8-0.3-1.2-0.1l-2.6,1.3c-0.4,0.2-0.4,0.5-0.1,0.7c0.4,0.2,0.8,0.3,1.2,0.1l2.6-1.3
			c0.2,0,0.3-0.3,0.3-0.5C115.9,123,115.9,123,115.7,122.9z"/>
		<path class="st5" d="M116.2,122.9L116.2,122.9C116.2,122.9,116.2,122.9,116.2,122.9c-0.3,0.1-0.5,0.3-0.7,0.4c0,0,0,0,0,0
			c0,0,0,0,0,0l0,0c-0.1,0-0.2,0-0.3,0.1l0,0c-0.1,0.1-0.2,0.1-0.2,0.2c0,0,0,0.1-0.1,0.1c0,0.1-0.1,0.1-0.1,0.2c0,0,0,0-0.1,0
			c0,0,0,0,0,0l0,0c0-0.1,0.1-0.1,0.1-0.2c0-0.1,0-0.1,0-0.2c0,0,0,0,0,0c0,0-0.1,0-0.1,0c-0.1,0-0.1,0-0.2,0
			c-0.1,0-0.1,0.1-0.1,0.2c0,0,0,0.1,0.1,0.1l0,0c0,0,0,0.1,0.1,0.1l0,0c0,0.1-0.1,0.1-0.2,0.2l0,0c0,0-0.1,0.1-0.1,0.1
			c-0.1,0-0.1,0-0.2-0.1l0,0l-0.1-0.1c0.1-0.1,0.1-0.2,0.2-0.4c0,0,0-0.1,0-0.1c0,0,0,0,0,0c0,0-0.1,0-0.1,0c0,0-0.1,0-0.1,0
			c-0.2,0.2-0.2,0.4,0,0.5l0,0c-0.1,0.2-0.3,0.3-0.3,0.3h0c0,0,0,0,0,0c0,0,0,0,0,0c0,0,0,0,0,0s0,0,0,0h0c0,0,0,0,0,0
			c0,0-0.1,0.1-0.1,0.1c0,0,0,0,0,0c0,0,0,0,0,0l0,0c0,0,0.1-0.1,0.1-0.1c0,0,0-0.1,0-0.1c0,0,0,0,0,0l0,0c0,0,0,0,0,0
			c0,0,0,0-0.1,0c0,0-0.1,0.1-0.1,0.1c0,0,0,0.1,0,0.1l0,0c-0.1,0.1-0.1,0.2-0.2,0.2c-0.1,0-0.1,0-0.1,0l0,0c0.1-0.1,0.2-0.3,0-0.5
			h0c0,0,0,0-0.1,0c0,0-0.1,0-0.1,0c-0.1,0.1-0.1,0.2-0.1,0.3c0,0,0,0.1,0.1,0.1c0,0,0,0,0.1,0.1c-0.1,0.1-0.1,0.1-0.2,0.2
			c-0.1,0.1-0.2,0.1-0.2,0.1c0,0-0.1,0-0.1,0l0-0.1c0.1-0.2,0.1-0.4,0.2-0.5c0-0.1,0-0.3,0-0.4c0,0,0-0.1,0-0.1h0c0,0-0.1,0-0.1,0
			c0,0-0.1,0-0.1,0.1c-0.3,0.2-0.3,0.6-0.2,0.8c0,0.1,0.1,0.2,0.2,0.2c-0.1,0.1-0.2,0.3-0.3,0.4c0,0,0,0,0,0h0c0,0,0,0,0.1,0
			c0.1-0.1,0.2-0.2,0.3-0.4c0,0,0.1,0,0.1,0c0.1,0,0.2,0,0.3-0.1c0.1-0.1,0.1-0.1,0.2-0.2h0c0.1,0,0.1,0,0.2-0.1
			c0.1-0.1,0.2-0.2,0.2-0.2v0c0,0,0,0,0.1,0c0,0,0.1,0,0.1,0c0,0,0.1,0,0.1,0l0,0c0,0,0.1,0,0.1,0c0.2,0,0.3-0.2,0.4-0.3l0,0l0,0
			c0.1,0.1,0.2,0.1,0.3,0.1c0,0,0.1,0,0.1,0c0,0,0.1,0,0.1-0.1l0,0c0.1-0.1,0.1-0.1,0.2-0.2c0,0,0.1,0,0.1,0c0.1,0,0.1,0,0.1-0.1
			c0.1-0.1,0.1-0.1,0.2-0.2c0,0,0-0.1,0.1-0.1c0.1-0.1,0.1-0.1,0.2-0.2l0,0c0.1,0,0.1-0.1,0.2,0h0c0,0,0,0,0.1,0c0,0,0.1,0,0.1,0
			C115.8,123.2,116,123.1,116.2,122.9C116.2,122.9,116.2,122.9,116.2,122.9z M112,124.8L112,124.8c-0.3-0.2-0.3-0.6,0-0.9
			c0,0,0,0,0.1,0c0,0,0.1,0,0.1-0.1l0,0c0,0,0,0,0,0l0,0c0,0,0,0,0,0c0,0.1,0,0.3,0,0.4C112.2,124.4,112.1,124.6,112,124.8
			L112,124.8z M112.6,124.6L112.6,124.6c0-0.1-0.1-0.1-0.1-0.1c0-0.1,0-0.2,0-0.3l0,0l0,0l0,0l0,0
			C112.8,124.3,112.7,124.5,112.6,124.6L112.6,124.6z M113.8,123.9c-0.1-0.1-0.1-0.3,0-0.4c0,0,0,0,0,0l0,0h0c0,0,0,0,0,0
			c0,0,0,0,0,0c0,0,0,0.1,0,0.1C114,123.7,113.9,123.8,113.8,123.9L113.8,123.9z M114.5,123.7L114.5,123.7L114.5,123.7
			c-0.1-0.1-0.1-0.1-0.1-0.2c0,0,0-0.1,0-0.2l0,0c0,0,0,0,0.1,0h0l0,0c0,0,0,0.1,0,0.2C114.5,123.6,114.5,123.7,114.5,123.7
			L114.5,123.7z"/>
	</g>
	<g id="IT_Business_Management">
		<g id="Layer_22">
			<g class="st6">
				<polygon class="st7" points="38.4,59.2 52.7,67.8 38.3,76.4 24.1,67.8 				"/>
				<polygon class="st7" points="43.2,67.2 57.5,75.8 43.1,84.4 28.8,75.8 				"/>
				<polygon class="st7" points="36.1,69.6 50.4,78.1 36,86.7 21.7,78.1 				"/>
				<polygon class="st7" points="40.8,77.5 55.1,86.1 40.7,94.7 26.4,86.1 				"/>
				<polygon class="st7" points="59.9,57.7 74.2,66.3 59.8,74.9 45.5,66.3 				"/>
				<polygon class="st7" points="64.6,65.7 78.9,74.3 64.5,82.9 50.2,74.3 				"/>
				<polygon class="st7" points="57.5,68.1 71.8,76.6 57.4,85.2 43.1,76.6 				"/>
				<polygon class="st7" points="62.2,76 76.5,84.6 62.2,93.2 47.9,84.6 				"/>
				<polygon class="st7" points="49.1,79.4 63.4,88 49,96.6 34.7,88 				"/>
				<polygon class="st7" points="53.8,87.4 68.1,95.9 53.7,104.5 39.5,95.9 				"/>
				<polygon class="st7" points="46.7,89.7 61,98.3 46.6,106.9 32.4,98.3 				"/>
				<polygon class="st8" points="51.5,97.7 65.8,106.3 51.4,114.9 37.1,106.3 				"/>
				<polygon class="st8" points="73,70.4 87.3,79 72.9,87.6 58.6,79 				"/>
				<polygon class="st7" points="77.8,78.4 92.1,87 77.7,95.6 63.4,87 				"/>
				<polygon class="st7" points="70.7,80.8 84.9,89.4 70.6,98 56.3,89.4 				"/>
				<polygon class="st7" points="75.4,88.8 89.7,97.4 75.3,105.9 61,97.4 				"/>
				<polygon class="st7" points="95.5,58 109.8,66.6 95.4,75.2 81.1,66.6 				"/>
				<polygon class="st7" points="100.2,66 114.5,74.6 100.1,83.2 85.9,74.6 				"/>
				<polygon class="st7" points="93.1,68.4 107.4,77 93,85.6 78.7,77 				"/>
				<polygon class="st7" points="97.9,76.4 112.2,85 97.8,93.6 83.5,85 				"/>
				<polygon class="st7" points="99.1,74.4 113.3,83 99,91.6 84.7,83 				"/>
				<polygon class="st7" points="103.8,82.4 118.1,91 103.7,99.6 89.4,91 				"/>
				<polygon class="st7" points="96.7,84.8 111,93.4 96.6,102 82.3,93.4 				"/>
				<polygon class="st7" points="101.4,92.8 115.7,101.4 101.3,110 87,101.4 				"/>
				<polygon class="st7" points="77.8,92.2 92.1,100.8 77.7,109.4 63.4,100.8 				"/>
				<polygon class="st7" points="82.5,100.2 96.8,108.8 82.4,117.4 68.1,108.8 				"/>
				<polygon class="st7" points="75.4,102.6 89.7,111.1 75.3,119.7 61,111.1 				"/>
				<polygon class="st7" points="80.1,110.5 94.4,119.1 80,127.7 65.8,119.1 				"/>
				<polygon class="st7" points="75.4,113.6 89.7,122.2 75.3,130.8 61,122.2 				"/>
				<polygon class="st7" points="80.1,121.6 94.4,130.2 80,138.8 65.8,130.2 				"/>
				<polygon class="st7" points="73,124 87.3,132.6 72.9,141.2 58.6,132.6 				"/>
				<polygon class="st7" points="36,102 50.2,110.6 35.9,119.1 21.6,110.6 				"/>
				<polygon class="st7" points="40.7,110 55,118.5 40.6,127.1 26.3,118.5 				"/>
				<polygon class="st7" points="33.6,112.3 47.9,120.9 33.5,129.5 19.2,120.9 				"/>
				<polygon class="st7" points="38.3,120.3 52.6,128.9 38.2,137.5 23.9,128.9 				"/>
				<polygon class="st7" points="25.3,75 39.6,83.6 25.2,92.2 10.9,83.6 				"/>
				<polygon class="st7" points="30,83 44.3,91.6 29.9,100.2 15.7,91.6 				"/>
				<polygon class="st7" points="22.9,85.4 37.2,94 22.8,102.6 8.5,94 				"/>
				<polygon class="st7" points="27.7,93.4 41.9,101.9 27.6,110.5 13.3,101.9 				"/>
				<polygon class="st7" points="51.9,55.9 57.6,59.3 51.8,62.7 46.2,59.3 				"/>
				<polygon class="st7" points="53.8,59 59.4,62.4 53.7,65.9 48,62.4 				"/>
				<polygon class="st7" points="46.6,64.8 52.3,68.3 46.6,71.7 40.9,68.3 				"/>
				<polygon class="st7" points="48.5,68 54.2,71.4 48.5,74.8 42.8,71.4 				"/>
				<polygon class="st7" points="42.4,54.1 48.1,57.5 42.4,61 36.7,57.5 				"/>
				<polygon class="st7" points="44.3,57.3 50,60.7 44.3,64.1 38.6,60.7 				"/>
				<polygon class="st7" points="137.6,95.9 143.3,99.3 137.6,102.7 131.9,99.3 				"/>
				<polygon class="st7" points="139.5,99.1 145.2,102.5 139.5,105.9 133.8,102.5 				"/>
				<polygon class="st7" points="132.4,104.9 138.1,108.3 132.4,111.7 126.7,108.3 				"/>
				<polygon class="st7" points="134.3,108.1 140,111.5 134.3,114.9 128.6,111.5 				"/>
				<polygon class="st7" points="128.2,94.2 133.8,97.6 128.1,101 122.4,97.6 				"/>
				<polygon class="st7" points="130.1,97.3 135.7,100.8 130,104.2 124.3,100.8 				"/>
				<polygon class="st7" points="144.3,122.2 150,125.7 144.3,129.1 138.6,125.7 				"/>
				<polygon class="st7" points="98.3,123.6 103.9,127 98.2,130.5 92.5,127 				"/>
				<polygon class="st7" points="100.1,126.8 105.8,130.2 100.1,133.6 94.4,130.2 				"/>
				<polygon class="st7" points="93,132.6 98.7,136 93,139.4 87.3,136 				"/>
				<polygon class="st7" points="94.9,135.8 100.6,139.2 94.9,142.6 89.2,139.2 				"/>
				<polygon class="st7" points="88.8,121.9 94.5,125.3 88.8,128.7 83.1,125.3 				"/>
				<polygon class="st7" points="90.7,125.1 96.4,128.5 90.6,131.9 85,128.5 				"/>
				<polygon class="st7" points="5.7,81.9 11.4,85.3 5.7,88.7 0,85.3 				"/>
				<polygon class="st7" points="7.6,85.1 13.3,88.5 7.6,91.9 1.9,88.5 				"/>
				<polygon class="st7" points="17.1,55.2 22.8,58.6 17.1,62 11.4,58.6 				"/>
				<polygon class="st7" points="19,58.4 24.7,61.8 18.9,65.2 13.3,61.8 				"/>
				<polygon class="st7" points="11.9,64.2 17.5,67.6 11.8,71 6.1,67.6 				"/>
				<polygon class="st7" points="13.8,67.4 19.4,70.8 13.7,74.2 8,70.8 				"/>
				<polygon class="st7" points="7.6,53.5 13.3,56.9 7.6,60.3 1.9,56.9 				"/>
				<polygon class="st7" points="9.5,56.6 15.2,60.1 9.5,63.5 3.8,60.1 				"/>
				<polygon class="st7" points="54.6,39.9 60.3,43.3 54.5,46.7 48.9,43.3 				"/>
				<polygon class="st7" points="56.5,43 62.1,46.5 56.4,49.9 50.7,46.5 				"/>
				<polygon class="st7" points="49.3,48.9 55,52.3 49.3,55.7 43.6,52.3 				"/>
				<polygon class="st7" points="51.2,52 56.9,55.4 51.2,58.9 45.5,55.4 				"/>
				<polygon class="st8" points="45.1,38.1 50.8,41.5 45.1,45 39.4,41.5 				"/>
				<polygon class="st8" points="47,41.3 52.7,44.7 47,48.1 41.3,44.7 				"/>
				<polygon class="st7" points="103.4,62.5 109.1,65.9 103.3,69.3 97.7,65.9 				"/>
				<polygon class="st7" points="105.3,65.7 110.9,69.1 105.2,72.5 99.5,69.1 				"/>
				<polygon class="st7" points="98.1,71.5 103.8,74.9 98.1,78.3 92.4,74.9 				"/>
				<polygon class="st7" points="100,74.7 105.7,78.1 100,81.5 94.3,78.1 				"/>
				<polygon class="st7" points="93.9,60.8 99.6,64.2 93.9,67.6 88.2,64.2 				"/>
				<polygon class="st7" points="95.8,63.9 101.5,67.4 95.7,70.8 90.1,67.4 				"/>
				<polygon class="st7" points="74.2,36 88.5,44.6 74.1,53.2 59.8,44.6 				"/>
				<polygon class="st7" points="79,44 93.2,52.6 78.9,61.2 64.6,52.6 				"/>
				<polygon class="st7" points="71.8,46.4 86.1,55 71.8,63.6 57.5,55 				"/>
				<polygon class="st7" points="76.6,54.4 90.9,62.9 76.5,71.5 62.2,62.9 				"/>
				<polygon class="st7" points="130.9,55.2 145.2,63.8 130.9,72.4 116.6,63.8 				"/>
				<polygon class="st7" points="135.7,63.2 150,71.8 135.6,80.4 121.3,71.8 				"/>
				<polygon class="st7" points="128.6,65.6 142.9,74.2 128.5,82.8 114.2,74.2 				"/>
				<polygon class="st7" points="133.3,73.6 147.6,82.2 133.2,90.8 118.9,82.2 				"/>
				<polygon class="st7" points="121.5,84.9 135.8,93.5 121.4,102.1 107.2,93.5 				"/>
				<polygon class="st7" points="126.3,92.9 140.6,101.5 126.2,110.1 111.9,101.5 				"/>
				<polygon class="st7" points="119.2,95.3 133.5,103.9 119.1,112.5 104.8,103.9 				"/>
				<polygon class="st7" points="123.9,103.3 138.2,111.9 123.8,120.5 109.5,111.9 				"/>
				<polygon class="st7" points="121.9,111.6 136.2,120.1 121.8,128.7 107.5,120.1 				"/>
				<polygon class="st7" points="126.6,119.5 140.9,128.1 126.6,136.7 112.3,128.1 				"/>
				<polygon class="st7" points="119.5,121.9 133.8,130.5 119.4,139.1 105.2,130.5 				"/>
			</g>
		</g>
		<path class="st9" d="M41.2,54L9.3,72.4v0c-0.7,0.4-1.1,0.9-1.1,1.6c0,0.6,0.4,1.2,1.1,1.6l0,0L23.9,84H24c1.3,0.5,2.8,0.5,4.1,0h0
			l0.2-0.1c0.1-0.1,0.2-0.1,0.3-0.2l31.6-18.2v0c0.7-0.4,1.1-0.9,1.1-1.6c0-0.6-0.4-1.2-1.1-1.6L46,54.2c-0.1-0.1-0.2-0.1-0.4-0.2
			l-0.1,0l0,0C44.2,53.4,42.6,53.4,41.2,54L41.2,54z"/>
		<path class="st10" d="M39.8,55.5L14.1,70.3v-1l-2.8,0.3v2.2c0,0.5,0.4,1,1,1.4l0,0l12.7,7.3h0.1c1.1,0.5,2.4,0.5,3.6,0h0l0.1-0.1
			c0.1,0,0.2-0.1,0.3-0.2l27.3-15.8l0,0c0.6-0.3,1-0.8,1-1.3v-2.2l-2.8-0.3l-1,0.5L44,55.7c-0.1-0.1-0.2-0.1-0.3-0.2l0,0l0,0
			C42.4,54.9,41,54.9,39.8,55.5L39.8,55.5z"/>
		<path class="st11" d="M39.8,52.2L12.2,68.2v0c-0.6,0.3-1,0.8-1,1.4s0.4,1,1,1.4l0,0l12.7,7.3h0.1c1.1,0.5,2.4,0.5,3.6,0h0l0.1-0.1
			c0.1,0,0.2-0.1,0.3-0.2l27.3-15.8l0,0c0.6-0.3,1-0.8,1-1.3s-0.4-1-1-1.4L44,52.5c-0.1-0.1-0.2-0.1-0.3-0.2l0,0l0,0
			C42.4,51.7,41,51.7,39.8,52.2L39.8,52.2z"/>
		
			<linearGradient id="SVGID_2_" gradientUnits="userSpaceOnUse" x1="-257.2198" y1="87.2976" x2="-217.818" y2="87.2976" gradientTransform="matrix(-1 0 0 -1 -202.36 152)">
			<stop  offset="0" style="stop-color:#4755A5"/>
			<stop  offset="1" style="stop-color:#70CAC5"/>
		</linearGradient>
		<polygon class="st12" points="39.8,53.3 54.9,62 30.5,76.1 15.5,67.4 		"/>
		<polygon class="st13" points="39.8,53.7 54.1,62 30.6,75.6 16.2,67.3 		"/>
		<path class="st10" d="M19.7,71.4c0.6,0.1,1,0.6,0.9,1.2c-0.1,0.6-0.6,1-1.2,0.9c-0.5-0.1-0.9-0.5-0.9-1.1
			C18.6,71.8,19.1,71.4,19.7,71.4"/>
		<polygon class="st14" points="34.3,49.6 33.1,48.9 37.6,41.2 38.9,41.9 		"/>
		<polygon class="st14" points="37.5,41.2 36.2,40.4 41.2,36.1 42.5,36.8 		"/>
		<polygon class="st14" points="28.2,50.3 26.9,49.6 33.1,48.9 34.4,49.7 		"/>
		<polygon class="st14" points="19.7,64.8 18.4,64.1 26.9,49.6 28.3,50.3 		"/>
		<polygon class="st15" points="37.5,41.2 42.5,36.8 41.1,43.3 39.8,42.5 34.7,51.2 28.5,51.9 20.6,65.3 19.7,64.8 28.2,50.3 
			34.3,49.6 38.8,42 		"/>
		<path class="st16" d="M42.8,63.6l-3.9-2.3L39,47.1c1.4,0.6,2.6,1.4,3.8,2.2L42.8,63.6z"/>
		<path class="st17" d="M42.8,49.3L39,47.1l4.1-2.4L47,47L42.8,49.3z"/>
		<path class="st17" d="M47,47l-0.1,14.2l-4.1,2.4l0.1-14.2C44.1,48.5,45.5,47.7,47,47"/>
		<polygon class="st15" points="37.5,66.6 33.7,64.3 33.7,55.6 37.5,57.9 		"/>
		<polygon class="st18" points="37.5,57.9 33.7,55.7 37.9,53.3 41.7,55.6 		"/>
		<polygon class="st18" points="41.7,55.6 41.6,64.2 37.5,66.6 37.5,57.9 		"/>
		<polygon class="st19" points="32.2,69.6 28.4,67.3 28.5,56.3 32.3,58.5 		"/>
		<polygon class="st16" points="32.3,58.6 28.5,56.3 32.6,54 36.4,56.2 		"/>
		<polygon class="st16" points="36.4,56.2 36.3,67.2 32.2,69.6 32.2,58.5 		"/>
		<polygon class="st14" points="27,72.5 23.2,70.2 23.2,64.2 27,66.4 		"/>
		<path class="st15" d="M27,66.5c-1.3-0.7-2.6-1.4-3.8-2.3l4.1-2.3l3.7,2.2L27,66.5z"/>
		<polygon class="st15" points="31.1,64.2 31,70.1 26.9,72.5 26.9,66.4 		"/>
		<path class="st20" d="M22.8,69.7C22.8,69.7,22.8,69.7,22.8,69.7L22.8,69.7"/>
		<path class="st20" d="M23.1,69.5C23.1,69.5,23.1,69.5,23.1,69.5C23.1,69.5,23.1,69.5,23.1,69.5"/>
		<g>
			<path class="st21" d="M74.3,12.6c0.4-0.2,0.9-0.3,1.3-0.2c0.3,0.1,0.7,0.2,1,0.4c0.3,0.2,0.7,0.4,0.9,0.7l-1.4,0.8
				c-0.3-0.3-0.6-0.5-0.9-0.7c-0.3-0.2-0.6-0.3-1-0.4c-0.4-0.1-0.9-0.1-1.3,0.2L74.3,12.6z"/>
			<path class="st21" d="M78.6,11.8c0.5-0.3,1-0.3,1.5-0.2c0.4,0.1,0.8,0.2,1.1,0.5c0.7,0.4,1.3,1,1.8,1.6c1,1.2,1.6,2.6,1.9,4.2
				c0.3,0.1,0.6,0.2,0.9,0.4c0.6,0.4,1.1,0.8,1.6,1.4c1,1.2,1.7,2.8,1.7,4.2c0,1-0.4,1.7-0.9,2.1l-1.4,0.8c0.6-0.3,0.9-1,0.9-2.1
				c0-1.4-0.7-3-1.7-4.2c-0.4-0.5-1-1-1.6-1.4c-0.3-0.2-0.6-0.3-0.9-0.4c-0.2-1.5-0.9-3-1.9-4.2c-0.5-0.6-1.1-1.2-1.8-1.6
				c-0.4-0.2-0.7-0.4-1.1-0.5c-0.5-0.1-1.1-0.1-1.5,0.2L78.6,11.8z"/>
			<path class="st22" d="M79.8,12.9c-1.9-1.1-3.4-0.4-3.7,1.5c-0.3-0.3-0.6-0.5-0.9-0.7c-1.8-1-3.2-0.2-3.2,1.8c0,2,1.4,4.5,3.2,5.6
				l9.3,5.3c1.8,1,3.2,0.2,3.2-1.8s-1.4-4.5-3.2-5.6c-0.3-0.2-0.6-0.3-0.9-0.4C83.2,16.4,81.7,14,79.8,12.9z"/>
		</g>
		<polygon class="st22" points="81.8,26.1 94.4,33.4 93.8,33.7 81.2,26.4 		"/>
		<path class="st22" d="M71.7,20.5c-0.1,0.2-0.2,0.3-0.3,0.4l5.5,3.2l0.6-0.3L71.7,20.5z"/>
		<path class="st23" d="M10,54.4c0.8-0.2,1.7-0.5,1.7,0.7c0,0.9-0.6,2-1.7,2.7v0.7l-0.5,0.3v-0.7c-1,0.5-1.7,0.3-1.7-0.7l1.3-0.7
			c0,0.3,0.2,0.4,0.4,0.4v-1.3C8.8,56,7.8,56.3,7.8,55c0-1,0.7-2,1.7-2.7v-0.7l0.5-0.3v0.7c1-0.5,1.6-0.3,1.7,0.7l-1.3,0.7
			c0-0.3-0.2-0.4-0.4-0.4L10,54.4z M10,56.8c0.3-0.2,0.4-0.5,0.5-0.8c0-0.3-0.2-0.4-0.5-0.3L10,56.8 M9.5,54.5v-1.1
			c-0.3,0.2-0.4,0.5-0.4,0.8C9.1,54.5,9.3,54.5,9.5,54.5"/>
		<path class="st24" d="M32.6,24.2c0.8-0.2,1.7-0.5,1.7,0.7c0,0.9-0.6,2-1.7,2.7v0.7l-0.4,0.3v-0.7c-1,0.5-1.7,0.3-1.7-0.7l1.3-0.8
			c0,0.3,0.2,0.4,0.4,0.4v-1.3c-0.8,0.2-1.7,0.5-1.7-0.8c0-1,0.7-2,1.7-2.7v-0.7l0.4-0.3v0.7c1-0.5,1.6-0.3,1.7,0.7l-1.3,0.7
			c0-0.3-0.2-0.4-0.4-0.4L32.6,24.2z M32.6,26.6c0.3-0.2,0.4-0.5,0.5-0.8c0-0.3-0.2-0.3-0.5-0.3L32.6,26.6 M32.1,24.3v-1.1
			c-0.3,0.2-0.4,0.5-0.4,0.8C31.7,24.3,31.9,24.3,32.1,24.3"/>
		<path class="st25" d="M19.6,37.8c0.6-0.2,1.3-0.4,1.3,0.6c0,0.7-0.5,1.5-1.3,2.1V41l-0.4,0.2v-0.5c-0.7,0.4-1.3,0.2-1.3-0.6l1-0.6
			c0,0.2,0.1,0.3,0.3,0.3v-1c-0.6,0.2-1.3,0.4-1.3-0.6c0-0.8,0.6-1.6,1.3-2.1v-0.5l0.4-0.2V36c0.8-0.4,1.2-0.2,1.3,0.6l-1,0.6
			c0-0.2-0.1-0.3-0.3-0.3L19.6,37.8z M19.6,39.7c0.2-0.2,0.3-0.4,0.4-0.7c0-0.2-0.1-0.3-0.4-0.2L19.6,39.7 M19.2,37.9V37
			c-0.2,0.1-0.3,0.4-0.3,0.6C18.9,37.9,19,37.9,19.2,37.9"/>
		<path class="st23" d="M11.9,22.7c0.6-0.2,1.3-0.4,1.3,0.6c0,0.7-0.5,1.5-1.3,2.1v0.5L11.5,26v-0.5c-0.7,0.4-1.3,0.2-1.3-0.6l1-0.6
			c0,0.2,0.1,0.3,0.3,0.3v-1c-0.6,0.2-1.3,0.4-1.3-0.6c0-0.8,0.6-1.6,1.3-2.1v-0.5l0.4-0.2v0.5c0.8-0.4,1.2-0.2,1.3,0.6l-1,0.6
			c0-0.2-0.1-0.3-0.3-0.3L11.9,22.7z M11.9,24.5c0.2-0.2,0.3-0.4,0.4-0.7c0-0.2-0.1-0.3-0.4-0.2L11.9,24.5 M11.5,22.7v-0.9
			c-0.2,0.1-0.3,0.4-0.3,0.6C11.2,22.7,11.3,22.7,11.5,22.7"/>
		<path class="st26" d="M71.2,71.6l9.7-5.6c0.4-0.2,0.9-0.2,1.3,0l23.1,13.3c0.3,0.2,0.4,0.5,0.2,0.8c-0.1,0.1-0.1,0.2-0.2,0.2
			l-9.5,5.5c-0.5,0.3-1.1,0.3-1.6,0l-23-13.3c-0.3-0.1-0.3-0.5-0.2-0.7C71,71.7,71.1,71.6,71.2,71.6z"/>
		<path class="st3" d="M71.2,72.5l23,13.3c0.5,0.3,1.1,0.3,1.6,0l9.5-5.5c0.2-0.1,0.3-0.3,0.3-0.5V81l0,0c0,0.2-0.1,0.4-0.3,0.5
			L95.8,87c-0.5,0.3-1.1,0.3-1.6,0l-23-13.3c-0.2-0.1-0.3-0.3-0.3-0.5l0,0V72C70.9,72.2,71,72.4,71.2,72.5z"/>
		<path class="st3" d="M71.2,72.5l23,13.3c0.2,0.1,0.5,0.2,0.7,0.2v1.2c-0.3,0-0.5-0.1-0.7-0.2l-23-13.3c-0.2-0.1-0.3-0.3-0.3-0.5
			l0,0V72C70.9,72.2,71,72.4,71.2,72.5z"/>
		<polygon class="st27" points="59.9,19.8 114.4,51.4 114.4,91.6 59.9,59.8 		"/>
		<polygon class="st3" points="114.4,51.4 116.2,50.3 116.2,90.5 114.4,91.6 		"/>
		<polygon class="st28" points="59.9,19.8 61.8,18.7 116.2,50.3 114.4,51.4 		"/>
		<path class="st0" d="M59.9,19.8v40l54.5,31.7V51.4L59.9,19.8z M113.1,89.3L61.2,59.1v-37l51.9,30.1L113.1,89.3z"/>
		<polygon class="st26" points="121.7,33.2 142.2,45 142.2,69.5 121.7,57.6 		"/>
		<polygon class="st29" points="142.2,45 143.8,44 143.8,68.6 142.2,69.5 		"/>
		<polygon class="st4" points="121.7,33.2 123.2,32.3 143.8,44 142.2,45 		"/>
		<polygon class="st30" points="123.4,36.2 140.5,46 140.5,66.4 123.4,56.6 		"/>
		<polygon class="st31" points="124.7,50.1 124.7,55.6 127.7,57.4 127.7,51.9 		"/>
		<polygon class="st31" points="123.1,54.2 123.1,54.7 124.1,55.3 124.1,54.8 		"/>
		<polygon class="st26" points="123.1,52.2 123.1,52.7 124.1,53.3 124.1,52.7 		"/>
		<polygon class="st26" points="123.1,50.1 123.1,50.6 124.1,51.2 124.1,50.7 		"/>
		<polygon class="st26" points="123.1,48.1 123.1,48.6 124.1,49.1 124.1,48.6 		"/>
		<polygon class="st26" points="123.1,46 123.1,46.5 124.1,47.1 124.1,46.6 		"/>
		<polygon class="st26" points="123.1,43.9 123.1,44.5 124.1,45 124.1,44.5 		"/>
		<polygon class="st26" points="123.1,41.9 123.1,42.4 124.1,43 124.1,42.5 		"/>
		<polygon class="st26" points="123.1,39.8 123.1,40.4 124.1,40.9 124.1,40.4 		"/>
		<polygon class="st27" points="128.5,47.7 128.5,57.8 131.6,59.6 131.6,49.5 		"/>
		<polygon class="st24" points="132.3,51.3 132.3,60 135.4,61.8 135.4,53.1 		"/>
		<polygon class="st24" points="136.1,48.2 136.1,62.3 139.2,64.1 139.2,50 		"/>
		<polygon class="st26" points="96.6,8.3 117.1,20.1 117.1,44.6 96.6,32.7 		"/>
		<polygon class="st29" points="117.1,20.1 118.6,19.2 118.6,43.7 117.1,44.6 		"/>
		<polygon class="st4" points="96.6,8.3 98.1,7.4 118.6,19.2 117.1,20.1 		"/>
		<polygon class="st30" points="98.3,11.4 115.4,21.2 115.4,41.6 98.3,31.7 		"/>
		<polygon class="st26" points="98,29.3 98,29.9 99,30.4 99,29.9 		"/>
		<polygon class="st26" points="98,27.3 98,27.8 99,28.4 99,27.8 		"/>
		<polygon class="st26" points="98,25.2 98,25.8 99,26.3 99,25.8 		"/>
		<polygon class="st26" points="98,23.2 98,23.7 99,24.3 99,23.7 		"/>
		<polygon class="st26" points="98,21.1 98,21.7 99,22.2 99,21.7 		"/>
		<polygon class="st26" points="98,19.1 98,19.6 99,20.2 99,19.6 		"/>
		<polygon class="st26" points="98,17 98,17.5 99,18.1 99,17.6 		"/>
		<polygon class="st26" points="98,15 98,15.5 99,16.1 99,15.5 		"/>
		<polygon class="st0" points="106.4,107 73.7,125.5 52.9,113.4 85.5,94.9 		"/>
		<polygon class="st32" points="80.1,125 80.1,125.8 112.8,107.1 112.8,106.5 		"/>
		<polygon class="st33" points="112.8,106.5 80.1,125 59.3,113 91.9,94.5 		"/>
		<polygon class="st34" points="80.1,125 80.1,125.8 59.3,113.7 59.3,113 		"/>
		<polygon class="st3" points="91.7,96.5 104.3,103.7 103.7,104 91.2,96.8 		"/>
		<polygon class="st3" points="90.4,97.2 103,104.4 102.4,104.8 89.9,97.5 		"/>
		<polygon class="st3" points="87.4,98.9 104.7,108.9 104.1,109.2 86.8,99.2 		"/>
		<polygon class="st3" points="86.2,99.6 103.5,109.6 102.9,109.9 85.6,99.9 		"/>
		<polygon class="st3" points="85,100.3 102.3,110.3 101.7,110.6 84.4,100.6 		"/>
		<polygon class="st3" points="83.8,101 101.1,111 100.5,111.3 83.2,101.3 		"/>
		<polygon class="st3" points="82.6,101.6 99.9,111.6 99.3,111.9 82,102 		"/>
		<polygon class="st3" points="81.4,102.3 98.7,112.3 98.1,112.6 80.8,102.6 		"/>
		<polygon class="st3" points="80.2,103 97.5,113 96.9,113.3 79.6,103.3 		"/>
		<polygon class="st3" points="79,103.7 96.3,113.7 95.7,114 78.4,104 		"/>
		<polygon class="st3" points="77.8,104.4 95.1,114.4 94.5,114.7 77.2,104.7 		"/>
		<polygon class="st3" points="76.6,105 93.9,115 93.4,115.3 76,105.4 		"/>
		<polygon class="st3" points="75.4,105.7 92.7,115.7 92.2,116 74.8,106 		"/>
		<polygon class="st3" points="74.2,106.4 91.5,116.4 91,116.7 73.6,106.7 		"/>
		<polygon class="st3" points="73,107.1 90.3,117.1 89.8,117.4 72.4,107.4 		"/>
		<polygon class="st3" points="71.8,107.8 89.1,117.8 88.6,118.1 71.2,108.1 		"/>
		<polygon class="st3" points="70.6,108.4 87.9,118.4 87.4,118.7 70,108.8 		"/>
		<path class="st24" d="M84.6,115.7c-1.6-0.9-4.2-0.9-5.8,0c-0.4,0.2-0.8,0.6-1,1l-5.7,1.1L73,118l1.5,0.4l-0.8,0.8l-0.5,0.5l5.1-1
			c0.2,0.1,0.3,0.3,0.5,0.4c0.2,0.1,0.4,0.2,0.6,0.3l-1.7,3l0.9-0.3l1.4-0.5l0.6,0.8l0.4,0.5l1.9-3.3c0.6-0.1,1.2-0.3,1.8-0.6
			C86.2,118.1,86.2,116.6,84.6,115.7z"/>
		<path class="st25" d="M79.1,117.2c0,0.8,1.2,1.4,2.6,1.4s2.6-0.7,2.6-1.4s-1.2-1.4-2.6-1.4S79.1,116.4,79.1,117.2z"/>
		<path class="st3" d="M79.9,94v1.1c0,1.4-2.2,2.6-4.8,2.6c-2.7,0-4.8-1.2-4.8-2.6V94H79.9z"/>
		<path class="st0" d="M70.2,94c0,1.4,2.2,2.6,4.8,2.6s4.8-1.2,4.8-2.6s-2.2-2.6-4.8-2.6C72.4,91.4,70.2,92.6,70.2,94z"/>
		<path class="st35" d="M71.3,94c0,1.1,1.7,2,3.7,2c2.1,0,3.7-0.9,3.7-2c0-1.1-1.7-2-3.7-2C73,92,71.3,92.9,71.3,94z"/>
		<path class="st36" d="M76.7,93.2L77,93l-0.3-0.2L76.4,93c-0.6-0.3-1.4-0.4-1.9-0.1c-0.7,0.4-0.2,0.8,0.1,1.1L74,94.4
			c-0.1-0.1-0.1-0.2,0.1-0.3l-0.8-0.5c-0.5,0.3-0.4,0.7,0.1,1.1L73.1,95l0.3,0.2l0.3-0.2c0.6,0.3,1.3,0.4,1.9,0.1
			c0.6-0.4,0.2-0.8-0.1-1.1l0.6-0.4c0.1,0.1,0.1,0.2-0.1,0.3l0.8,0.4C77.3,93.9,77.2,93.5,76.7,93.2z M74.8,94.6
			c-0.2,0.1-0.4,0.1-0.6,0l0.6-0.3C74.9,94.4,75,94.5,74.8,94.6z M75.3,93.7c-0.1-0.1-0.1-0.2,0-0.3c0.2-0.1,0.4-0.1,0.5,0
			L75.3,93.7z"/>
		<path class="st3" d="M79.9,92.6v1.1c0,1.4-2.2,2.6-4.8,2.6c-2.7,0-4.8-1.2-4.8-2.6v-1.1H79.9z"/>
		<path class="st0" d="M70.2,92.6c0,1.4,2.2,2.6,4.8,2.6s4.8-1.2,4.8-2.6S77.7,90,75.1,90C72.4,90,70.2,91.2,70.2,92.6z"/>
		<path class="st35" d="M71.3,92.6c0,1.1,1.7,2,3.7,2c2.1,0,3.7-0.9,3.7-2c0-1.1-1.7-2-3.7-2C73,90.6,71.3,91.5,71.3,92.6z"/>
		<path class="st36" d="M76.7,91.8l0.3-0.2l-0.3-0.2l-0.3,0.2c-0.6-0.3-1.4-0.4-1.9-0.1c-0.7,0.4-0.2,0.8,0.1,1.1L74,93.1
			c-0.1-0.1-0.1-0.2,0.1-0.3l-0.8-0.4c-0.5,0.3-0.4,0.7,0.1,1.1l-0.3,0.2l0.3,0.2l0.3-0.2c0.6,0.3,1.3,0.4,1.9,0.1
			c0.6-0.4,0.2-0.8-0.1-1.1l0.6-0.4c0.1,0.1,0.1,0.2-0.1,0.3l0.8,0.4C77.3,92.5,77.2,92.2,76.7,91.8z M74.8,93.2
			c-0.2,0.1-0.4,0.1-0.6,0l0.6-0.3C74.9,93,75,93.1,74.8,93.2L74.8,93.2z M75.3,92.3c-0.1-0.1-0.1-0.2,0-0.3c0.2-0.1,0.4-0.1,0.5,0
			L75.3,92.3z"/>
		<path class="st3" d="M79.9,91.3v1.1c0,1.4-2.2,2.6-4.8,2.6c-2.7,0-4.8-1.2-4.8-2.6v-1.1H79.9z"/>
		<path class="st0" d="M70.2,91.3c0,1.4,2.2,2.6,4.8,2.6s4.8-1.2,4.8-2.6c0-1.4-2.2-2.6-4.8-2.6C72.4,88.6,70.2,89.8,70.2,91.3z"/>
		<path class="st35" d="M71.3,91.2c0,1.1,1.7,2,3.7,2c2.1,0,3.7-0.9,3.7-2s-1.7-2-3.7-2C73,89.3,71.3,90.1,71.3,91.2z"/>
		<path class="st36" d="M76.7,90.4l0.3-0.2l-0.3-0.2l-0.3,0.2c-0.6-0.3-1.4-0.4-1.9-0.1c-0.7,0.4-0.2,0.8,0.1,1.1L74,91.7
			c-0.1-0.1-0.1-0.2,0.1-0.3l-0.8-0.4c-0.5,0.3-0.4,0.7,0.1,1.1l-0.3,0.2l0.3,0.2l0.3-0.2c0.6,0.3,1.3,0.4,1.9,0.1
			c0.6-0.4,0.2-0.8-0.1-1.1l0.6-0.4c0.1,0.1,0.1,0.2-0.1,0.3l0.8,0.4C77.3,91.2,77.2,90.8,76.7,90.4z M74.8,91.8
			c-0.2,0.1-0.4,0.1-0.6,0l0.6-0.3C74.9,91.6,75,91.7,74.8,91.8z M75.3,90.9c-0.1-0.1-0.1-0.2,0-0.3c0.2-0.1,0.4-0.1,0.5,0
			L75.3,90.9z"/>
		<path class="st3" d="M79.9,89.9v1.1c0,1.4-2.2,2.6-4.8,2.6c-2.7,0-4.8-1.2-4.8-2.6v-1.1H79.9z"/>
		<path class="st28" d="M70.2,89.9c0,1.4,2.2,2.6,4.8,2.6s4.8-1.2,4.8-2.6s-2.2-2.6-4.8-2.6C72.4,87.3,70.2,88.4,70.2,89.9z"/>
		<path class="st3" d="M71.3,89.8c0,1.1,1.7,2,3.7,2c2.1,0,3.7-0.9,3.7-2c0-1.1-1.7-2-3.7-2C73,87.9,71.3,88.8,71.3,89.8z"/>
		<path class="st25" d="M76.7,89l0.3-0.2l-0.3-0.2l-0.3,0.2c-0.6-0.3-1.4-0.4-1.9-0.1c-0.7,0.4-0.2,0.8,0.1,1.1L74,90.3
			c-0.1-0.1-0.1-0.2,0.1-0.3l-0.8-0.4c-0.5,0.3-0.4,0.7,0.1,1.1l-0.3,0.2l0.3,0.2l0.3-0.2c0.6,0.3,1.3,0.4,1.9,0.1
			c0.6-0.4,0.2-0.8-0.1-1.1l0.6-0.4c0.1,0.1,0.1,0.2-0.1,0.3l0.8,0.4C77.3,89.8,77.2,89.4,76.7,89z M74.8,90.5
			c-0.2,0.1-0.4,0.1-0.6,0l0.6-0.3C74.9,90.3,75,90.4,74.8,90.5z M75.3,89.6c-0.1-0.1-0.1-0.2,0-0.3c0.2-0.1,0.4-0.1,0.5,0
			L75.3,89.6z"/>
		<path class="st24" d="M76.7,88.8l0.3-0.2l-0.3-0.2l-0.3,0.2c-0.6-0.3-1.4-0.4-1.9-0.1c-0.7,0.4-0.2,0.8,0.1,1.1L74,90
			c-0.1-0.1-0.1-0.2,0.1-0.3l-0.8-0.4c-0.5,0.3-0.4,0.7,0.1,1.1l-0.3,0.2l0.3,0.2l0.3-0.2c0.6,0.3,1.3,0.4,1.9,0.1
			c0.6-0.4,0.2-0.8-0.1-1.1l0.6-0.4c0.1,0.1,0.1,0.2-0.1,0.3l0.8,0.4C77.3,89.5,77.2,89.1,76.7,88.8z M74.8,90.2
			c-0.2,0.1-0.4,0.1-0.6,0l0.6-0.3C74.9,90,75,90.1,74.8,90.2z M75.3,89.3c-0.1-0.1-0.1-0.2,0-0.3c0.2-0.1,0.4-0.1,0.5,0L75.3,89.3z
			"/>
		<path class="st35" d="M62.6,99c0,1.1,1.7,2,3.7,2s3.7-0.9,3.7-2c0-1.1-1.7-2-3.7-2S62.6,97.9,62.6,99z"/>
		<path class="st36" d="M68,98.2l0.3-0.2l-0.3-0.2l-0.3,0.2c-0.6-0.3-1.4-0.4-1.9-0.1c-0.7,0.4-0.2,0.8,0.1,1.1l-0.7,0.4
			c-0.1-0.1-0.1-0.2,0.1-0.3l-0.8-0.4c-0.5,0.3-0.4,0.7,0.1,1.1l-0.3,0.2l0.3,0.2L65,100c0.6,0.3,1.3,0.4,1.9,0.1
			c0.6-0.4,0.2-0.8-0.1-1.1l0.7-0.4c0.1,0.1,0.1,0.2-0.1,0.3l0.8,0.4C68.6,99,68.5,98.6,68,98.2z M66.1,99.6c-0.2,0.1-0.4,0.1-0.6,0
			l0.6-0.3C66.3,99.4,66.3,99.5,66.1,99.6z M66.6,98.7c-0.1-0.1-0.1-0.2,0-0.3c0.2-0.1,0.4-0.1,0.5,0L66.6,98.7z"/>
		<path class="st3" d="M71.2,97.7v1.1c0,1.4-2.2,2.6-4.8,2.6s-4.8-1.2-4.8-2.6v-1.1H71.2z"/>
		<path class="st0" d="M61.5,97.7c0,1.4,2.2,2.6,4.8,2.6c2.7,0,4.8-1.2,4.8-2.6s-2.2-2.6-4.8-2.6S61.5,96.2,61.5,97.7z"/>
		<path class="st35" d="M62.6,97.6c0,1.1,1.7,2,3.7,2s3.7-0.9,3.7-2c0-1.1-1.7-2-3.7-2S62.6,96.6,62.6,97.6z"/>
		<path class="st36" d="M68,96.9l0.3-0.2l-0.3-0.2l-0.3,0.2c-0.6-0.3-1.4-0.4-1.9-0.1c-0.7,0.4-0.2,0.8,0.1,1.1l-0.7,0.4
			c-0.1-0.1-0.1-0.2,0.1-0.3l-0.8-0.4c-0.5,0.3-0.4,0.7,0.1,1.1l-0.3,0.2l0.3,0.2l0.3-0.2c0.6,0.3,1.3,0.4,1.9,0.1
			c0.6-0.4,0.2-0.8-0.1-1.1l0.7-0.4c0.1,0.1,0.1,0.2-0.1,0.3l0.8,0.4C68.6,97.6,68.5,97.2,68,96.9z M66.1,98.3
			c-0.2,0.1-0.4,0.1-0.6,0l0.6-0.3C66.3,98.1,66.3,98.2,66.1,98.3L66.1,98.3z M66.6,97.4c-0.1-0.1-0.1-0.2,0-0.3
			c0.2-0.1,0.4-0.1,0.5,0L66.6,97.4z"/>
		<path class="st3" d="M71.2,96.3v1.1c0,1.4-2.2,2.6-4.8,2.6s-4.8-1.2-4.8-2.6v-1.1H71.2z"/>
		<path class="st0" d="M61.5,96.3c0,1.4,2.2,2.6,4.8,2.6c2.7,0,4.8-1.2,4.8-2.6s-2.2-2.6-4.8-2.6S61.5,94.8,61.5,96.3z"/>
		<path class="st35" d="M62.6,96.3c0,1.1,1.7,2,3.7,2s3.7-0.9,3.7-2s-1.7-2-3.7-2S62.6,95.2,62.6,96.3z"/>
		<path class="st36" d="M68,95.5l0.3-0.2l-0.3-0.2l-0.3,0.2c-0.6-0.3-1.4-0.4-1.9-0.1c-0.7,0.4-0.2,0.8,0.1,1.1l-0.7,0.4
			c-0.1-0.1-0.1-0.2,0.1-0.3L64.6,96c-0.5,0.3-0.4,0.7,0.1,1.1l-0.3,0.2l0.3,0.2l0.3-0.2c0.6,0.3,1.3,0.4,1.9,0.1
			c0.6-0.4,0.2-0.8-0.1-1.1l0.7-0.4c0.1,0.1,0.1,0.2-0.1,0.3l0.8,0.4C68.6,96.2,68.5,95.8,68,95.5z M66.1,96.9
			c-0.2,0.1-0.4,0.1-0.6,0l0.6-0.3C66.3,96.7,66.3,96.8,66.1,96.9z M66.6,96c-0.1-0.1-0.1-0.2,0-0.3c0.2-0.1,0.4-0.1,0.5,0L66.6,96z
			"/>
		<path class="st3" d="M71.2,94.9V96c0,1.4-2.2,2.6-4.8,2.6s-4.8-1.2-4.8-2.6v-1.1L71.2,94.9z"/>
		<path class="st28" d="M61.5,94.9c0,1.4,2.2,2.6,4.8,2.6c2.7,0,4.8-1.2,4.8-2.6s-2.2-2.6-4.8-2.6S61.5,93.5,61.5,94.9z"/>
		<path class="st3" d="M62.6,94.9c0,1.1,1.7,2,3.7,2s3.7-0.9,3.7-2s-1.7-2-3.7-2S62.6,93.8,62.6,94.9z"/>
		<path class="st25" d="M68,94.1l0.3-0.2l-0.3-0.2l-0.3,0.2c-0.6-0.3-1.4-0.4-1.9-0.1c-0.7,0.4-0.2,0.8,0.1,1.1l-0.7,0.4
			c-0.1-0.1-0.1-0.2,0.1-0.3l-0.8-0.4c-0.5,0.3-0.4,0.7,0.1,1.1l-0.3,0.2l0.3,0.2l0.3-0.2c0.6,0.3,1.3,0.4,1.9,0.1
			c0.6-0.4,0.2-0.8-0.1-1.1l0.7-0.4c0.1,0.1,0.1,0.2-0.1,0.3l0.8,0.4C68.6,94.8,68.5,94.4,68,94.1z M66.1,95.5
			c-0.2,0.1-0.4,0.1-0.6,0l0.6-0.3C66.3,95.3,66.3,95.4,66.1,95.5L66.1,95.5z M66.6,94.6c-0.1-0.1-0.1-0.2,0-0.3
			c0.2-0.1,0.4-0.1,0.5,0L66.6,94.6z"/>
		<path class="st24" d="M68,93.8l0.3-0.2l-0.3-0.2l-0.3,0.2c-0.6-0.3-1.4-0.4-1.9-0.1c-0.7,0.4-0.2,0.8,0.1,1.1l-0.7,0.4
			c-0.1-0.1-0.1-0.2,0.1-0.3l-0.8-0.4c-0.5,0.3-0.4,0.7,0.1,1.1l-0.3,0.2l0.3,0.2l0.3-0.2c0.6,0.3,1.3,0.4,1.9,0.1
			c0.6-0.4,0.2-0.8-0.1-1.1l0.7-0.4c0.1,0.1,0.1,0.2-0.1,0.3l0.8,0.4C68.6,94.5,68.5,94.2,68,93.8z M66.1,95.2
			c-0.2,0.1-0.4,0.1-0.6,0l0.6-0.3C66.3,95,66.3,95.1,66.1,95.2z M66.6,94.3c-0.1-0.1-0.1-0.2,0-0.3c0.2-0.1,0.4-0.1,0.5,0
			L66.6,94.3z"/>
		<path class="st36" d="M57.8,104.8c-0.2,0.1-0.4,0.1-0.6,0l0.6-0.3C58,104.6,58,104.7,57.8,104.8z M58.3,103.9
			c-0.1-0.1-0.1-0.2,0-0.3c0.2-0.1,0.4-0.1,0.5,0L58.3,103.9z"/>
		<path class="st35" d="M54.4,102.8c0,1.1,1.7,2,3.7,2c2.1,0,3.7-0.9,3.7-2c0-1.1-1.7-2-3.7-2C56,100.8,54.4,101.7,54.4,102.8z"/>
		<path class="st36" d="M59.7,102l0.3-0.2l-0.3-0.2l-0.3,0.2c-0.6-0.3-1.4-0.4-1.9-0.1c-0.7,0.4-0.2,0.8,0.1,1.1l-0.7,0.4
			c-0.1-0.1-0.1-0.2,0.1-0.3l-0.8-0.4c-0.5,0.3-0.4,0.7,0.1,1.1l-0.3,0.2l0.3,0.2l0.3-0.2c0.6,0.3,1.3,0.4,1.9,0.1
			c0.6-0.4,0.2-0.8-0.1-1.1l0.6-0.4c0.1,0.1,0.1,0.2-0.1,0.3l0.8,0.5C60.3,102.8,60.3,102.4,59.7,102z M57.8,103.4
			c-0.2,0.1-0.4,0.1-0.6,0l0.6-0.3C58,103.2,58,103.3,57.8,103.4L57.8,103.4z M58.3,102.5c-0.1-0.1-0.1-0.2,0-0.3
			c0.2-0.1,0.4-0.1,0.5,0L58.3,102.5z"/>
		<path class="st3" d="M62.9,101.5v1.1c0,1.4-2.2,2.6-4.8,2.6s-4.8-1.2-4.8-2.6v-1.1H62.9z"/>
		<path class="st0" d="M53.3,101.5c0,1.4,2.2,2.6,4.8,2.6s4.8-1.2,4.8-2.6s-2.2-2.6-4.8-2.6S53.3,100,53.3,101.5z"/>
		<path class="st35" d="M54.4,101.4c0,1.1,1.7,2,3.7,2c2.1,0,3.7-0.9,3.7-2s-1.7-2-3.7-2S54.4,100.3,54.4,101.4z"/>
		<path class="st36" d="M59.7,100.6l0.3-0.2l-0.3-0.2l-0.3,0.2c-0.6-0.3-1.4-0.4-1.9-0.1c-0.7,0.4-0.2,0.8,0.1,1.1l-0.7,0.4
			c-0.1-0.1-0.1-0.2,0.1-0.3l-0.8-0.4c-0.5,0.3-0.4,0.7,0.1,1.1l-0.3,0.2l0.3,0.2l0.3-0.2c0.6,0.3,1.3,0.4,1.9,0.1
			c0.6-0.4,0.2-0.8-0.1-1.1l0.6-0.4c0.1,0.1,0.1,0.2-0.1,0.3l0.8,0.4C60.3,101.4,60.3,101,59.7,100.6z M57.8,102
			c-0.2,0.1-0.4,0.1-0.6,0l0.6-0.3C58,101.8,58,101.9,57.8,102L57.8,102z M58.3,101.1c-0.1-0.1-0.1-0.2,0-0.3c0.2-0.1,0.4-0.1,0.5,0
			L58.3,101.1z"/>
		<path class="st3" d="M62.9,100.1v1.1c0,1.4-2.2,2.6-4.8,2.6s-4.8-1.2-4.8-2.6v-1.1H62.9z"/>
		<path class="st28" d="M53.3,100.1c0,1.4,2.2,2.6,4.8,2.6s4.8-1.2,4.8-2.6s-2.2-2.6-4.8-2.6S53.3,98.6,53.3,100.1z"/>
		<path class="st3" d="M54.4,100c0,1.1,1.7,2,3.7,2c2.1,0,3.7-0.9,3.7-2s-1.7-2-3.7-2S54.4,99,54.4,100z"/>
		<path class="st25" d="M59.7,99.2l0.3-0.2l-0.3-0.2l-0.3,0.2c-0.6-0.3-1.4-0.4-1.9-0.1c-0.7,0.4-0.2,0.8,0.1,1.1l-0.7,0.4
			c-0.1-0.1-0.1-0.2,0.1-0.3l-0.8-0.4c-0.5,0.3-0.4,0.7,0.1,1.1l-0.3,0.2l0.3,0.2l0.3-0.2c0.6,0.3,1.3,0.4,1.9,0.1
			c0.6-0.4,0.2-0.8-0.1-1.1l0.6-0.4c0.1,0.1,0.1,0.2-0.1,0.3l0.8,0.5C60.3,100,60.3,99.6,59.7,99.2z M57.8,100.7
			c-0.2,0.1-0.4,0.1-0.6,0l0.6-0.3C58,100.5,58,100.6,57.8,100.7L57.8,100.7z M58.3,99.8c-0.1-0.1-0.1-0.2,0-0.3
			c0.2-0.1,0.4-0.1,0.5,0L58.3,99.8z"/>
		<path class="st24" d="M59.7,99l0.3-0.2l-0.3-0.2l-0.3,0.2c-0.6-0.3-1.4-0.4-1.9-0.1c-0.7,0.4-0.2,0.8,0.1,1.1l-0.7,0.4
			c-0.1-0.1-0.1-0.2,0.1-0.3l-0.8-0.4c-0.5,0.3-0.4,0.7,0.1,1.1l-0.3,0.2l0.3,0.2l0.3-0.2c0.6,0.3,1.3,0.4,1.9,0.1
			c0.6-0.4,0.2-0.8-0.1-1.1l0.6-0.4c0.1,0.1,0.1,0.2-0.1,0.3l0.8,0.5C60.3,99.7,60.3,99.3,59.7,99z M57.8,100.4
			c-0.2,0.1-0.4,0.1-0.6,0l0.6-0.3C58,100.2,58,100.3,57.8,100.4L57.8,100.4z M58.3,99.5c-0.1-0.1-0.1-0.2,0-0.3
			c0.2-0.1,0.4-0.1,0.5,0L58.3,99.5z"/>
		<path class="st36" d="M49.3,107.8c-0.2,0.1-0.4,0.1-0.6,0l0.6-0.3C49.4,107.6,49.5,107.7,49.3,107.8z M49.8,106.9
			c-0.1-0.1-0.1-0.2,0-0.3c0.2-0.1,0.4-0.1,0.5,0L49.8,106.9z"/>
		<path class="st35" d="M45.8,105.8c0,1.1,1.7,2,3.7,2c2.1,0,3.7-0.9,3.7-2c0-1.1-1.7-2-3.7-2C47.5,103.9,45.8,104.8,45.8,105.8z"/>
		<path class="st36" d="M51.2,105l0.3-0.2l-0.3-0.2l-0.3,0.2c-0.6-0.3-1.4-0.4-1.9-0.1c-0.7,0.4-0.2,0.8,0.1,1.1l-0.7,0.4
			c-0.1-0.1-0.1-0.2,0.1-0.3l-0.8-0.4c-0.5,0.3-0.4,0.7,0.1,1.1l-0.3,0.2l0.3,0.2l0.3-0.2c0.6,0.3,1.3,0.4,1.9,0.1
			c0.7-0.4,0.2-0.8-0.1-1.1l0.7-0.4c0.1,0.1,0.1,0.2-0.1,0.3l0.8,0.4C51.8,105.8,51.7,105.4,51.2,105z M49.3,106.5
			c-0.2,0.1-0.4,0.1-0.6,0l0.6-0.3C49.4,106.3,49.5,106.4,49.3,106.5z M49.8,105.6c-0.1-0.1-0.1-0.2,0-0.3c0.2-0.1,0.4-0.1,0.5,0
			L49.8,105.6z"/>
		<path class="st3" d="M54.4,104.5v1.1c0,1.4-2.2,2.6-4.8,2.6s-4.8-1.2-4.8-2.6v-1.1H54.4z"/>
		<path class="st28" d="M44.7,104.5c0,1.4,2.2,2.6,4.8,2.6c2.7,0,4.8-1.2,4.8-2.6c0-1.4-2.2-2.6-4.8-2.6S44.7,103,44.7,104.5z"/>
		<path class="st3" d="M45.8,104.5c0,1.1,1.7,2,3.7,2c2.1,0,3.7-0.9,3.7-2c0-1.1-1.7-2-3.7-2C47.5,102.5,45.8,103.4,45.8,104.5z"/>
		<path class="st25" d="M51.2,103.7l0.3-0.2l-0.3-0.2l-0.3,0.2c-0.6-0.3-1.4-0.4-1.9-0.1c-0.7,0.4-0.2,0.8,0.1,1.1l-0.7,0.4
			c-0.1-0.1-0.1-0.2,0.1-0.3l-0.8-0.4c-0.5,0.3-0.4,0.7,0.1,1.1l-0.3,0.2l0.3,0.2l0.3-0.2c0.6,0.3,1.3,0.4,1.9,0.1
			c0.7-0.4,0.2-0.8-0.1-1.1l0.7-0.4c0.1,0.1,0.1,0.2-0.1,0.3l0.8,0.4C51.8,104.4,51.7,104,51.2,103.7z M49.3,105.1
			c-0.2,0.1-0.4,0.1-0.6,0l0.6-0.3C49.4,104.9,49.5,105,49.3,105.1z M49.8,104.2c-0.1-0.1-0.1-0.2,0-0.3c0.2-0.1,0.4-0.1,0.5,0
			L49.8,104.2z"/>
		<path class="st24" d="M51.2,103.4l0.3-0.2l-0.3-0.2l-0.3,0.2c-0.6-0.3-1.4-0.4-1.9-0.1c-0.7,0.4-0.2,0.8,0.1,1.1l-0.7,0.4
			c-0.1-0.1-0.1-0.2,0.1-0.3l-0.8-0.4c-0.5,0.3-0.4,0.7,0.1,1.1l-0.3,0.2l0.3,0.2l0.3-0.2c0.6,0.3,1.3,0.4,1.9,0.1
			c0.7-0.4,0.2-0.8-0.1-1.1l0.7-0.4c0.1,0.1,0.1,0.2-0.1,0.3l0.8,0.4C51.8,104.1,51.7,103.7,51.2,103.4z M49.3,104.8
			c-0.2,0.1-0.4,0.1-0.6,0l0.6-0.3C49.4,104.6,49.5,104.7,49.3,104.8z M49.8,103.9c-0.1-0.1-0.1-0.2,0-0.3c0.2-0.1,0.4-0.1,0.5,0
			L49.8,103.9z"/>
		<polygon class="st26" points="132.5,85.6 126.3,82 126.3,89.3 132.5,92.8 		"/>
		<polygon class="st4" points="132.7,78.4 126.3,82 132.5,85.6 138.9,82 		"/>
		<polygon class="st29" points="138.9,82 132.5,85.6 132.5,92.8 138.9,89.1 		"/>
		<path class="st24" d="M112.4,24.3c-0.7-0.4-1.2-0.1-1.2,0.7c0,0.4,0.1,0.8,0.3,1.1l-4.8,4.5c-0.2-0.2-0.4-0.4-0.6-0.6
			c-0.3-0.2-0.6-0.2-0.9-0.1l-2.6-3.4c0-0.1,0-0.2,0-0.3c0-0.8-0.5-1.6-1.2-2c-0.6-0.4-1.2-0.1-1.2,0.7c0,0.8,0.5,1.6,1.2,2
			c0.2,0.2,0.5,0.2,0.7,0.1l2.7,3.5c0,0.1,0,0.1,0,0.2c0,0.8,0.5,1.6,1.2,2c0.6,0.4,1.2,0.1,1.2-0.7c0-0.3-0.1-0.7-0.2-1l4.8-4.5
			c0.1,0.2,0.3,0.3,0.5,0.4c0.6,0.4,1.2,0.1,1.2-0.7C113.5,25.5,113.1,24.8,112.4,24.3z"/>
		<polygon class="st26" points="56.9,19.6 44.7,26.6 44.7,41.2 56.9,34.1 		"/>
		<polygon class="st29" points="44.7,26.6 43.8,26.1 43.8,40.7 44.7,41.2 		"/>
		<polygon class="st4" points="56.9,19.6 56,19 43.8,26.1 44.7,26.6 		"/>
		<polygon class="st30" points="55.9,21.4 45.7,27.3 45.7,39.4 55.9,33.5 		"/>
		<polygon class="st26" points="46.1,37.8 46.1,38.1 45.6,38.4 45.6,38.1 		"/>
		<polygon class="st26" points="46.1,36.5 46.1,36.9 45.6,37.2 45.6,36.9 		"/>
		<polygon class="st26" points="46.1,35.3 46.1,35.6 45.6,36 45.6,35.7 		"/>
		<polygon class="st26" points="46.1,34.1 46.1,34.4 45.6,34.8 45.6,34.4 		"/>
		<polygon class="st26" points="46.1,32.9 46.1,33.2 45.6,33.5 45.6,33.2 		"/>
		<polygon class="st26" points="46.1,31.7 46.1,32 45.6,32.3 45.6,32 		"/>
		<polygon class="st26" points="46.1,30.4 46.1,30.8 45.6,31.1 45.6,30.8 		"/>
		<polygon class="st26" points="46.1,29.2 46.1,29.5 45.6,29.9 45.6,29.5 		"/>
		<polygon class="st24" points="46.7,37.8 55.2,32.9 55.2,25.8 		"/>
		<polygon class="st24" points="48,26.9 48,29.4 46.7,30.1 46.7,27.7 		"/>
		<polygon class="st27" points="46.7,37.8 55.2,25.8 55.2,22.8 		"/>
		<path class="st0" d="M50.3,116.5L50.3,116.5v-0.7l-0.2,0c-0.1-0.1-0.2-0.2-0.4-0.3l-13.2-7.7c-0.7-0.4-1.6-0.4-2.3,0l-20,11.5
			c-0.1,0.1-0.2,0.1-0.2,0.2l-0.3,0v0.7l0,0c0,0.4,0.2,0.8,0.5,1l13.2,7.7c0.8,0.5,1.8,0.5,2.6,0l19.7-11.4
			C50.1,117.3,50.3,116.9,50.3,116.5z"/>
		<path class="st26" d="M49.7,114.8l-13.2-7.7c-0.7-0.4-1.6-0.4-2.3,0l-20,11.5c-0.5,0.3-0.7,1-0.4,1.5c0.1,0.2,0.2,0.3,0.4,0.4
			l13.2,7.6c0.8,0.5,1.8,0.5,2.6,0l19.7-11.4c0.6-0.3,0.8-1,0.5-1.6C50.1,115.1,49.9,114.9,49.7,114.8z"/>
		<path class="st0" d="M49.7,116.9L30,128.2c-0.4,0.2-0.9,0.3-1.3,0.3v0.7c0.5,0,0.9-0.1,1.3-0.3l19.7-11.4c0.4-0.2,0.6-0.6,0.6-1
			l0,0v-0.7l0,0C50.3,116.3,50.1,116.6,49.7,116.9z"/>
		<path class="st27" d="M44.1,115.9c0,0.6,1,1.2,2.1,1.2s2.1-0.5,2.1-1.2s-1-1.2-2.1-1.2S44.1,115.3,44.1,115.9z"/>
		<path class="st24" d="M41.8,117.3c0,0.6,1,1.2,2.1,1.2s2.1-0.5,2.1-1.2c0-0.6-1-1.2-2.1-1.2S41.8,116.6,41.8,117.3z"/>
		<path class="st23" d="M22.6,118.6l-2.5-1.4c-0.1-0.1-0.3-0.1-0.4,0l-3.8,2.2c-0.1,0.1-0.1,0.2-0.1,0.3c0,0,0,0.1,0.1,0.1l2.5,1.4
			c0.2,0.1,0.3,0.1,0.5,0l3.8-2.2C22.7,119,22.8,118.8,22.6,118.6C22.7,118.7,22.6,118.7,22.6,118.6z"/>
		<polygon class="st0" points="41.1,111.5 21.2,122.9 22.1,123.4 41.9,112 		"/>
		<polygon class="st0" points="42.7,112.4 22.8,123.8 23.7,124.3 43.5,112.9 		"/>
		<polygon class="st30" points="70.9,29.4 62.5,24.6 62.5,25.4 70.9,30.2 		"/>
		<polygon class="st30" points="70.9,30.8 62.5,26 62.5,26.8 70.9,31.6 		"/>
		<polygon class="st30" points="111.8,84.2 103.5,79.4 103.5,80.2 111.8,85 		"/>
		<polygon class="st30" points="111.8,85.5 103.5,80.7 103.5,81.5 111.8,86.3 		"/>
		<polygon class="st30" points="102.2,78.6 93.9,73.8 93.9,74.6 102.2,79.4 		"/>
		<polygon class="st30" points="102.2,80 93.9,75.2 93.9,76 102.2,80.8 		"/>
		<polygon class="st30" points="92.6,73.1 84.3,68.3 84.3,69.1 92.6,73.9 		"/>
		<polygon class="st30" points="92.6,74.5 84.3,69.6 84.3,70.4 92.6,75.3 		"/>
		<polygon class="st30" points="83.1,67.6 74.7,62.7 74.7,63.5 83.1,68.4 		"/>
		<polygon class="st30" points="83.1,68.9 74.7,64.1 74.7,64.9 83.1,69.7 		"/>
		<polygon class="st30" points="70.9,32.1 62.5,27.3 62.5,28.1 70.9,32.9 		"/>
		<polygon class="st30" points="70.9,33.5 62.5,28.7 62.5,29.5 70.9,34.3 		"/>
		<polygon class="st30" points="70.9,34.9 62.5,30 62.5,30.9 70.9,35.7 		"/>
		<polygon class="st30" points="70.9,36.2 62.5,31.4 62.5,32.2 70.9,37 		"/>
		<polygon class="st30" points="70.9,37.6 62.5,32.8 62.5,33.6 70.9,38.4 		"/>
		<polygon class="st30" points="70.9,38.9 62.5,34.1 62.5,34.9 70.9,39.8 		"/>
		<polygon class="st30" points="70.9,40.3 62.5,35.5 62.5,36.3 70.9,41.1 		"/>
		<polygon class="st30" points="70.9,41.7 62.5,36.9 62.5,37.7 70.9,42.5 		"/>
		<polygon class="st30" points="70.9,43 62.5,38.2 62.5,39 70.9,43.8 		"/>
		<polygon class="st30" points="70.9,44.4 62.5,39.6 62.5,40.4 70.9,45.2 		"/>
		<polygon class="st30" points="70.9,45.8 62.5,40.9 62.5,41.7 70.9,46.6 		"/>
		<polygon class="st30" points="70.9,47.1 62.5,42.3 62.5,43.1 70.9,47.9 		"/>
		<polygon class="st30" points="70.9,48.5 62.5,43.7 62.5,44.5 70.9,49.3 		"/>
		<polygon class="st30" points="70.9,49.8 62.5,45 62.5,45.8 70.9,50.6 		"/>
		<polygon class="st30" points="70.9,51.2 62.5,46.4 62.5,47.2 70.9,52 		"/>
		<polygon class="st30" points="72.4,30.3 111.8,53.1 111.8,82.1 72.4,59.2 		"/>
		<polygon class="st26" points="73.4,57.6 73.4,57.9 110.5,79.5 110.5,79.2 		"/>
		<polygon class="st26" points="73.4,54.2 73.4,54.5 110.5,76.1 110.5,75.8 		"/>
		<polygon class="st26" points="73.4,50.8 73.4,51.1 110.5,72.8 110.5,72.4 		"/>
		<polygon class="st26" points="73.4,47.4 73.4,47.7 110.5,69.4 110.5,69 		"/>
		<polygon class="st26" points="73.4,44 73.4,44.3 110.5,66 110.5,65.7 		"/>
		<polygon class="st26" points="73.4,40.6 73.4,41 110.5,62.6 110.5,62.3 		"/>
		<polygon class="st26" points="73.4,37.2 73.4,37.6 110.5,59.2 110.5,58.9 		"/>
		<polygon class="st26" points="73.4,34 73.4,57.6 73.7,57.8 73.7,34.2 		"/>
		<polygon class="st26" points="76.9,36.1 76.9,59.7 77.2,59.8 77.2,36.3 		"/>
		<polygon class="st26" points="80.5,38.2 80.5,61.8 80.8,61.9 80.8,38.4 		"/>
		<polygon class="st26" points="84.1,40.3 84.1,63.8 84.4,64 84.4,40.5 		"/>
		<polygon class="st26" points="87.7,42.4 87.7,65.9 88,66.1 88,42.6 		"/>
		<polygon class="st26" points="91.2,44.5 91.2,68 91.5,68.2 91.5,44.7 		"/>
		<polygon class="st26" points="94.8,46.6 94.8,70.1 95.1,70.3 95.1,46.7 		"/>
		<polygon class="st26" points="98.4,48.7 98.4,72.2 98.7,72.4 98.7,48.8 		"/>
		<polygon class="st26" points="102,50.7 102,74.3 102.3,74.4 102.3,50.9 		"/>
		<polygon class="st26" points="105.5,52.8 105.5,76.4 105.8,76.5 105.8,53 		"/>
		<polygon class="st26" points="109.1,54.9 109.1,78.5 109.4,78.6 109.4,55.1 		"/>
		<path class="st27" d="M80.7,54.3c0.4,0.3,0.7,0.7,0.7,1.3c0,0.5-0.3,0.6-0.7,0.4c-0.4-0.3-0.7-0.7-0.7-1.3
			C79.9,54.3,80.3,54.1,80.7,54.3z"/>
		<path class="st24" d="M80.7,50.9c0.4,0.3,0.7,0.7,0.7,1.3c0,0.5-0.3,0.6-0.7,0.4c-0.4-0.3-0.7-0.7-0.7-1.3
			C79.9,50.9,80.3,50.7,80.7,50.9z"/>
		<path class="st24" d="M87.8,58.7c0.4,0.3,0.7,0.7,0.7,1.3c0,0.5-0.3,0.6-0.7,0.4c-0.4-0.3-0.7-0.7-0.7-1.3
			C87.1,58.6,87.4,58.4,87.8,58.7z"/>
		<path class="st24" d="M91.4,53.8c0.4,0.3,0.7,0.7,0.7,1.3c0,0.5-0.3,0.6-0.7,0.4c-0.4-0.3-0.7-0.7-0.7-1.3
			C90.7,53.8,91,53.6,91.4,53.8z"/>
		<path class="st24" d="M94.9,52.5c0.4,0.3,0.7,0.7,0.7,1.3c0,0.5-0.3,0.6-0.7,0.4c-0.4-0.3-0.7-0.7-0.7-1.3
			C94.2,52.4,94.5,52.2,94.9,52.5z"/>
		<path class="st24" d="M102.1,60.1c0.4,0.3,0.7,0.7,0.7,1.3c0,0.5-0.3,0.6-0.7,0.4c-0.4-0.3-0.7-0.7-0.7-1.3
			C101.4,60.1,101.7,59.9,102.1,60.1z"/>
		<path class="st24" d="M98.5,64.8c0.4,0.3,0.7,0.7,0.7,1.3c0,0.5-0.3,0.6-0.7,0.4c-0.4-0.3-0.7-0.7-0.7-1.3
			C97.8,64.8,98.1,64.6,98.5,64.8z"/>
		<path class="st24" d="M105.7,58.5c0.4,0.3,0.7,0.7,0.7,1.3c0,0.5-0.3,0.6-0.7,0.4c-0.4-0.3-0.7-0.7-0.7-1.3
			C105,58.5,105.3,58.3,105.7,58.5z"/>
		<path class="st27" d="M84.2,58.4c0.4,0.3,0.7,0.7,0.7,1.3c0,0.5-0.3,0.6-0.7,0.4c-0.4-0.3-0.7-0.7-0.7-1.3
			C83.5,58.3,83.8,58.1,84.2,58.4z"/>
		<path class="st27" d="M87.8,55.3c0.4,0.3,0.7,0.7,0.7,1.3c0,0.5-0.3,0.6-0.7,0.4c-0.4-0.3-0.7-0.7-0.7-1.3
			C87.1,55.2,87.4,55,87.8,55.3z"/>
		<path class="st27" d="M94.9,61.1c0.4,0.3,0.7,0.7,0.7,1.3c0,0.5-0.3,0.6-0.7,0.4c-0.4-0.3-0.7-0.7-0.7-1.3
			C94.2,61,94.5,60.9,94.9,61.1z"/>
		<path class="st27" d="M98.5,56.9c0.4,0.3,0.7,0.7,0.7,1.3c0,0.5-0.3,0.6-0.7,0.4c-0.4-0.3-0.7-0.7-0.7-1.3
			C97.8,56.9,98.1,56.7,98.5,56.9z"/>
		<path class="st27" d="M105.7,55.5c0.4,0.3,0.7,0.7,0.7,1.3c0,0.5-0.3,0.6-0.7,0.4c-0.4-0.3-0.7-0.7-0.7-1.3
			C105,55.5,105.3,55.3,105.7,55.5z"/>
		<polygon class="st27" points="105.6,56.2 98.5,57.6 94.9,61.7 87.8,55.9 84.3,59 80.7,55 77,56.4 77.1,56.7 80.6,55.3 84.2,59.4 
			87.8,56.3 94.9,62.1 98.6,57.9 105.7,56.5 		"/>
		<polygon class="st24" points="105.6,59.3 102,60.8 98.6,65.3 95.1,53.3 95,53.1 91.3,54.5 87.8,59.3 80.7,51.5 76.9,56.5 
			77.1,56.7 80.7,52 87.7,59.6 87.8,59.7 91.5,54.8 94.8,53.5 98.5,66 102.2,61.1 105.7,59.6 		"/>
		<path class="st27" d="M77.1,55.7c0.4,0.3,0.7,0.7,0.7,1.3c0,0.5-0.3,0.6-0.7,0.4c-0.4-0.3-0.7-0.7-0.7-1.3
			C76.4,55.7,76.7,55.5,77.1,55.7z"/>
		<path class="st37" d="M38.1,65.1c0,0-0.7,0.1-0.9,0.1c-0.2,0.1-1.1,0.2-1.3,0.4c-0.3,0.2,0.4,0.2,0.6,0.3s-0.2,0.3-0.5,0.5
			c-0.3,0.2-0.5,0.6-0.6,1c-0.1,0.4,1.2,1.4,1.6,0.8c0.3-0.6,0.3-0.6,0.9-0.9c0.5-0.3,0.9-0.6,1.3-1L38.1,65.1z"/>
		<path class="st38" d="M38.1,64.7L37.6,65c0.3,0.6,0.7,1.1,1.1,1.7l0.6-0.3L38.1,64.7z"/>
		<polygon class="st39" points="42.8,61.7 37.9,64.7 39.1,66.5 44.7,63.4 46.1,61.3 46.3,55.4 		"/>
		<path class="st40" d="M48.7,87.2L46.5,87c0,0-0.2,0.4-1,0.6c-0.8,0.2-2.2,1.1-1.9,1.8c0.3,0.7,1.6,0.7,2.3,0.4
			c0.5-0.2,1-0.4,1.6-0.5l0.2,0.3l1.4-0.4l0.1-2L48.7,87.2z"/>
		<path class="st40" d="M50,88.1c-0.2,0.4-0.4,0.7-0.7,1c-0.3,0.3-1.3,1.8-1,2.3c0.3,0.5,0.8,0.7,1.4,0.6c0.4-0.1,1.4-0.6,1.7-1.3
			l0.3-0.6c0,0,0.1,0.2,0.2,0.2c0.4-0.2,0.7-0.4,1.1-0.6c0,0-0.1-1.5-0.1-2.2L50,88.1z"/>
		<path class="st41" d="M48.8,67.9h-2.9c-0.1,0.1-0.1,7.2-0.1,8.3c0,1.2,0.4,10.9,0.4,10.9c0.9,0.6,1.9,0.7,2.9,0.4l0.3-12.3
			L48.8,67.9z"/>
		<path class="st41" d="M52.5,67c0,0,0.1,3.7,0,4.9c0,1.2,0.4,6.4,0.4,6.5s0.2,9.5,0.2,9.5s-1.2,1-3.5,0.6c0,0-0.7-12.7-0.9-14.7
			c-0.2-2-0.5-6-0.5-6L52.5,67z"/>
		<path class="st39" d="M51.3,54.7l-3.6,0.1l-1.4,0.6c0,0-0.6,1.2-0.9,3.4c-0.3,2.2,0.3,8.9,0.3,8.9c1.4,0.7,6,0.5,6,0.5
			c0.8-2.2,1.7-12.1,1.7-12.1L51.3,54.7z"/>
		<path class="st42" d="M48.6,54.8l-1.3,1.1c-0.6,3.2-0.5,9.5-0.4,12.1c0.5,0.1,1,0.1,1.5,0.2c0.1-6.7,2.3-13,2.5-13.5L48.6,54.8z"
			/>
		<path class="st40" d="M47.5,56.4l0.2,1c0,0-0.5,6.2-0.6,8.8l0.5,1.1l0.7-0.9l0.1-8.6l0.7-1.2C48.6,56.2,48,56.2,47.5,56.4z"/>
		<polygon class="st38" points="48.2,56.3 47.1,56.8 47.5,54.8 48.1,54.4 		"/>
		<polygon class="st43" points="50.8,53.9 48,54.3 48.2,56.3 50.9,54.7 		"/>
		<path class="st37" d="M51.7,51.6c0,1.7-2,3-3.5,3c-1.6,0-1.9-1.3-1.9-3.1c0-1.7,1.1-3.1,2.7-3.1S51.7,49.9,51.7,51.6z"/>
		<path class="st44" d="M49.1,51.4c0,0-0.4,1.8,0.5,1.7c0.9,0,0.6,0.3,0.8,0.7c0.2,0.4,0.9,0.1,1.3-0.8c0.4-0.9,1.1-2.8,0.5-3.8
			c-0.6-1.1-1.9-1.8-3.2-1.6c-1.2,0.1-2.8,1.4-3,2.2C45.9,51.3,49.1,51.4,49.1,51.4z"/>
		<polygon class="st26" points="52,67.6 48.4,67.6 48.4,69.6 52.2,70.1 		"/>
		<path class="st37" d="M51.3,69.7c0,0-0.4,0.5-0.5,0.7c-0.1,0.2-0.6,0.9-0.6,1.3c0,0.4,0.4-0.2,0.6-0.3c0.2-0.1,0.4,0,0.4,0.4
			c0,0.4-0.4,1.1-0.4,1.5c-0.1,0.4,1.3,0.1,1.7-0.5c0.3-0.5,0.5-1.2,0.4-1.8c0-0.6-0.4-1.1-0.4-1.4L51.3,69.7z"/>
		<polygon class="st38" points="51,69.3 50.8,70 53.1,70.7 53.3,69.9 		"/>
		<path class="st39" d="M53.4,56.1c0,0-1.6,0.1-1.3,2.8c0.2,2.6,0.2,4.4,0.2,4.4l-1.3,6.2l2.4,0.6c0,0,1.6-6.3,1.6-6.5
			c0-0.2-0.4-5.6-0.4-5.6S54.4,56.6,53.4,56.1z"/>
		<path class="st26" d="M45.6,66.3l0,2.4c0,0.2,0.1,0.3,0.3,0.4l1,0.2l0-1.6L45.6,66.3z"/>
		<polygon class="st38" points="51,54.3 48.2,56.3 49.4,57.5 51.3,54.7 		"/>
		<path class="st45" d="M28.7,101.2c-2.3,1.2-6.2,1.2-8.5,0c-2.4-1.2-2.4-3.1,0-4.3c2.3-1.2,6.2-1.2,8.5,0
			C31.1,98.1,31.1,100,28.7,101.2z"/>
		<path class="st37" d="M26.2,56.1c0,0,0.4,0.6,1,2.5c0.7,1.9,0.1,3.4-1.2,3.7C25.1,62.6,26.2,56.1,26.2,56.1z"/>
		<path class="st37" d="M22.6,95.6c-0.1-1.9,0.3-5.5,0.3-5.5l0.2-3.9l0.7-7.7c0,0,0,0.2,0.1,0.5c0-0.3,0.1-0.5,0.1-0.8
			c0.2-0.8,0.4-1.6,0.7-2.3h-5c0,0.6,0.1,1.1,0.3,1.7c0.7,1.5,0.9,4.9,0.9,6.7s-0.5,2.9-0.6,4.4c0,1.4,0.2,2.9,0.5,4.3
			c0.2,1,0,3,0,3.6s5.8,3.2,3.6,0.8C24.2,97.2,22.6,95.6,22.6,95.6z"/>
		<path class="st46" d="M24.3,97.3c0,0,1.5,0.1,1,0.6s-1.1,1.1-2,1.1c-0.8,0.1-1.6-0.8-2.2-1.1c-0.6-0.3-0.9-0.5-0.8-0.9
			c0.1-0.4,0-1.2,1.1-0.8c0.8,0.3,0.7,1.1,1,1.2C23.1,97.7,25.4,98.4,24.3,97.3z"/>
		<path class="st46" d="M20.4,97.5c0,0,0.3,0.1,0.4,0.8c0.1,0.4,0.1,0.9,0,1.3h0.7v-1.9L20.4,97.5z"/>
		<path class="st37" d="M27.4,99c-0.3,0-1.3-1.9-1.3-1.9l0.4-6.6c0,0,0.2-3.2,0.5-4.2c2.9-8.2,0.1-13.8-0.2-15.2
			c-0.2-1.4,0.8-2.3,1.1-3.8c0.3-1.5-1.4-3.3-1.4-3.3s-3.6-2-6-1.7s-0.5,4.3,0,5.3s1.1,2.9,0.8,4.3c-1.3,1.3-2,4.2-1.3,5.7
			c0.5,1,0.7,2.9,0.8,4.5h2.4v0.3h0.3l0.3-3.9c0,0,0.5,6.1,0.5,7c0,0.9-0.5,3.3-0.5,4.6s0.3,3,0.4,3.9c0,0.9,0.1,2.5,0.1,2.5
			l-0.1,2.3c0,0,1-0.2,1,0.1c0.2,0.5,0.5,0.9,0.7,1.4H27c0,0,0.8-0.8,1.2-0.9C28.6,99.3,27.7,99,27.4,99z"/>
		<path class="st41" d="M19.3,63.2c0-0.4,0.4-0.7,0.8-0.7c0.1,0,0.1,0,0.2,0c0.9,0.2,1.6,1.3,1.6,3.5c0,2.2-0.2,4.3-0.3,4.4
			s-1.4,2.2-1.8,0.1C19.5,68.5,18.9,64.9,19.3,63.2z"/>
		<path class="st47" d="M20.9,75c-0.1,0.4,0,0.9,0.1,1.3c0.2,0.9,0.5,1.2,1,1.3c0.5,0.1,0.6-0.3,0.5-0.6c-0.1-0.1-0.1-0.3-0.1-0.4
			c0,0,0.2,0.2,0.3,0.1c0.1-0.1,0.1-0.1-0.2-0.6s-0.6-0.8-0.6-0.8L20.9,75z"/>
		<path class="st41" d="M21.8,70.6l0.4,5.2c0,0-0.2,0.6-1.1,0.1c-0.9-0.6-1.3-5.8-1.3-5.8S21.4,68.7,21.8,70.6z"/>
		<path class="st39" d="M20.4,62.3c2.5-0.3,6,1.7,6,1.7s1.6,1.8,1.4,3.3c-0.3,1.5-1.3,2.4-1.1,3.8c0.1,0.5,0.6,1.7,0.9,3.4h-7.8
			c0.2-1,0.7-1.9,1.4-2.7c0.3-1.3-0.4-3.3-0.8-4.3C19.9,66.7,17.9,62.6,20.4,62.3z"/>
		<path class="st5" d="M27.1,72.5c0,0-0.3,1-2.1,0.9s-3.8-1.6-3.8-1.6c-1.1,1-1.7,2.4-1.7,3.9c0,1.8,1.6,6.1,1.1,8.9
			c1,1.1,2.9,2,4.5,2.1c1,0,1.9-0.4,2.6-1.1c0,0,1.2-4.3,0.9-7.9S27.4,73.3,27.1,72.5z"/>
		<path class="st46" d="M27.3,99c0,0,1.5,0.1,1,0.6s-1.1,1.1-2,1.1c-0.8,0.1-1.6-0.8-2.2-1.1c-0.6-0.3-0.9-0.5-0.8-0.9
			c0.1-0.4,0.2-1,1.1-0.8c0.8,0.2,0.7,1.1,1,1.2C26,99.4,28.4,100.1,27.3,99z"/>
		<path class="st46" d="M23.3,99.1c0,0,0.3,0.1,0.4,0.8c0.1,0.4,0.1,0.9,0,1.3h0.7v-1.9L23.3,99.1z"/>
		<path class="st44" d="M26.8,56.5c-0.9-0.6-1.9-0.9-3-0.9c-1.7,0-3.6,0.7-3.7,3.5c-0.2,2.8,0.6,3.8,0.6,3.8s0.7,1.4,3.6,1.2
			c0.9-0.1,1.7-0.3,2.5-0.7C26.8,63.3,25.3,59.3,26.8,56.5z"/>
		<path class="st41" d="M25.1,65.2c-0.2-0.3-0.1-0.7,0.2-1c0.1,0,0.1-0.1,0.2-0.1c0.8-0.3,2.2,0.2,3.5,2c1.3,1.8,2.5,3.6,2.5,3.8
			c0,0.2,0.4,1.8-1.4,1C28,70,25.8,66.8,25.1,65.2z"/>
		<path class="st37" d="M35.6,68.2c0.5-0.1,0.9-0.4,1.2-0.7c0.7-0.6,0.9-1,0.7-1.5c-0.1-0.5-0.6-0.4-0.9-0.1
			c-0.1,0.1-0.2,0.2-0.4,0.3c0,0,0.1-0.3-0.1-0.3c-0.2-0.1-0.2,0-0.5,0.5c-0.3,0.6-0.4,0.9-0.4,0.9L35.6,68.2z"/>
		<path class="st41" d="M30.3,69.5l5-2.4c0,0,1.2,0.2,0.6,0.9c-1.2,1.5-2.9,2.6-4.8,3.1C31,71.1,29.8,69.9,30.3,69.5z"/>
		<path class="st48" d="M135.4,66.1c-0.7-0.4-1.3-0.8-2-1.3l-2.2-1.3c-0.2-0.1-0.4-0.1-0.6,0.1l-1.8,1.5c-0.6,0.5-1.2,1-1.8,1.5
			c-0.2,0.1-0.2,0.3,0,0.4l2.1,1.4l2.2,1.4c0.2,0.1,0.4,0.1,0.6-0.1c0.6-0.5,1.2-1,1.8-1.5l1.8-1.5c0.1-0.1,0.1-0.1,0.1-0.2l0-0.2
			L135.4,66.1z"/>
		<path class="st48" d="M128.8,65.1c-0.6,0.5-1.2,1-1.8,1.5c-0.2,0.1-0.2,0.3,0,0.4l2.1,1.4l2.2,1.4l-0.1-0.9L128.8,65.1z"/>
		<path class="st49" d="M135.5,66l-2.2-1.3l-2.2-1.3c-0.2-0.1-0.4-0.1-0.6,0.1l-1.8,1.5l-1.8,1.5c-0.2,0.1-0.2,0.3,0,0.4l2.1,1.4
			l2.2,1.4c0.2,0.1,0.4,0.1,0.6-0.1l1.8-1.5l1.8-1.5C135.6,66.3,135.6,66.1,135.5,66z"/>
		<path class="st50" d="M135.2,66.2l-1.7,1.5l-1.8,1.5c-0.1,0-0.1,0.1-0.2,0l-2.2-1.4l-2-1.3l1.7-1.4l1.8-1.5c0.1,0,0.1-0.1,0.2,0
			l2.2,1.3L135.2,66.2z"/>
		<path class="st51" d="M132.5,67.6l-0.5-0.3l-0.7,0.6l-0.7,0.6l0.5,0.3l0.7-0.6L132.5,67.6z"/>
		<path class="st16" d="M132.5,66.9l-0.5-0.3l-0.9,0.8l-0.9,0.8l0.5,0.3l0.9-0.8L132.5,66.9z"/>
		<path class="st52" d="M132.6,66.2l-0.5-0.3l-1.2,1l-1.2,1l0.5,0.3l1.2-1L132.6,66.2z"/>
		<path class="st53" d="M131.8,66.2l-0.5-0.3l-1,0.9l-1,0.8l0.4,0.3l1-0.9L131.8,66.2z"/>
		<path class="st54" d="M130.7,66.5l-0.5-0.3l-0.7,0.6l-0.7,0.6l0.4,0.3L130,67L130.7,66.5z"/>
		<path class="st15" d="M130,66.4l-0.4-0.3l-0.6,0.5l-0.6,0.5l0.4,0.3l0.6-0.5L130,66.4z"/>
		<path class="st55" d="M132.7,68l-0.5-0.3l-0.6,0.5l-0.6,0.5l0.5,0.3l0.6-0.5L132.7,68z"/>
		<path class="st15" d="M132.8,65.6c0,0.4,0.1,0.7,0.1,1.1c0,0.4,0.1,0.7,0.1,1.1l-0.1,0c0-0.4-0.1-0.7-0.1-1.1
			c0-0.4-0.1-0.7-0.1-1.1l-1.4,0.2l-1.4,0.2c0-0.3,0-0.7,0-1l-0.3,0l0.3-0.5l0.4,0.4l-0.3,0c0,0.3,0,0.6,0,0.9l1.4-0.2L132.8,65.6
			C132.8,65.6,132.8,65.6,132.8,65.6z"/>
		<path class="st15" d="M129.7,65.9l-0.4-0.3l-0.7,0.6l-0.7,0.6l0.4,0.3c0.2-0.2,0.4-0.4,0.7-0.6L129.7,65.9z"/>
		<path class="st52" d="M129.7,65.3l-0.4-0.3l-0.9,0.7l-0.9,0.7l0.4,0.3l0.9-0.7L129.7,65.3z"/>
		<path class="st45" d="M128,96.3c-2.3,1-6.3,0.6-8.9-1c-2.6-1.5-2.9-3.5-0.6-4.5c2.3-1,6.3-0.6,8.9,1C130,93.3,130.3,95.3,128,96.3
			z"/>
		<path class="st56" d="M131.7,70.8c0.4-0.5,2-1,2.1-1.4l0.4-1.7c-0.3,0.3-0.6,0.5-0.9,0.7l-0.9,0.6l0.4-0.7c0.1-0.2,0.1-0.3,0-0.4
			c0,0-0.1,0-0.1-0.1c-0.1,0-0.3,0.1-0.5,0.3c-0.4,0.5-0.5,0.3-0.8,0.6c-0.4,0.3-0.5,0.7-0.7,1.4L131.7,70.8z"/>
		<path class="st57" d="M132.4,69l0.3-0.5c0.1-0.1,0.1-0.2,0.2-0.4c0-0.1,0-0.2,0-0.2c0,0.1-0.1,0.3-0.2,0.4
			c-0.2,0.3-0.4,0.6-0.6,0.9C132.2,69.2,132.3,69.1,132.4,69z"/>
		<path class="st58" d="M131.7,70.8c0.4-0.5,2-1,2.1-1.4l0.2-1.1c-1,0.8-2.3,1.4-3.2,1.9l-0.1,0l0,0.1L131.7,70.8z"/>
		<path class="st59" d="M121.7,62.7c0.4,0.2,0.8,0.6,0.4,0.9l0.3,1.9l-1.1,4.4l1.2,4.1c-0.1,0.3-0.2,0.7-0.4,0.8
			c-0.4,0.3-1.1,0.5-1.3,0.1l-1.9-5.1c-0.2-0.4-0.1-0.7,0-1.2c0.2-1.1,0.7-3.3,0.9-3.9C120.2,63.5,120.7,62.8,121.7,62.7z"/>
		<path class="st60" d="M121.7,62.7c0.4,0.2,0.8,0.5,0.4,0.9l0.3,1.9l-1.1,4.4l1.2,4.1c-0.1,0.3-0.2,0.7-0.4,0.8
			c-0.4,0.3-0.9,0.6-1,0.1c0-1.2,0-2.3-0.3-3.4c-0.4-1.6-1.3-5.7-0.8-6.9C120.4,63.5,120.7,62.8,121.7,62.7z"/>
		<path class="st61" d="M123.1,92.9c-0.2,0.2-0.5,0.3-0.8,0.5v0.3c-0.4,0.7-0.8,1-1.3,0.9c-0.7-0.2-0.9-0.4-0.9-0.9
			c-0.1-0.9-0.1-1,0.1-1.7c0.5-0.3,1-0.6,1.5-0.7c0.4-0.1,1-0.5,1.6-0.6c0.2-0.1,0.5,0.1,0.6,0.3c0,0,0,0.1,0,0.1
			C124,91.6,123.5,92.4,123.1,92.9z"/>
		<path class="st62" d="M123.1,92.9c-0.2,0.2-0.5,0.3-0.8,0.5v0.3c-0.4,0.7-0.8,1-1.3,0.9c-0.7-0.2-0.9-0.4-0.9-0.9
			c0-0.3-0.1-0.7,0-1c0.9,0.5,1.7,0.4,2.6-0.5c0.3-0.3,1-1,1.1-1.5c0.1,0.1,0.2,0.2,0.2,0.4C124,91.6,123.5,92.4,123.1,92.9z"/>
		<path class="st61" d="M124.7,94.3c0.2-0.1,0.7-0.8,1.4-0.7c0.9,0.2,1.9-0.3,2.6-0.3c0.1,0,0.3,0,0.4,0c0.4,0.3,0.4,0.6,0.1,0.9
			c-0.3,0.3-0.7,0.6-1,0.8c-0.4,0.3-0.8,0.5-1.2,0.7c-0.3,0.1-0.6,0.1-0.9,0.2l0,0.3c-0.2,0.2-0.4,0.3-0.7,0.4c-0.5,0-1-0.2-1.3-0.6
			c0-0.5-0.2-0.9,0-1.6L124.7,94.3z"/>
		<path class="st62" d="M129.3,93.6c0.1,0.2,0.1,0.4-0.1,0.7c-0.3,0.3-0.7,0.6-1,0.8c-0.4,0.3-0.8,0.5-1.2,0.7
			c-0.3,0.1-0.6,0.1-0.9,0.2l0,0.3c-0.2,0.2-0.4,0.3-0.7,0.4c-0.5,0-1-0.2-1.3-0.6c-0.1-0.4-0.1-0.8-0.1-1.1c1,0.7,1.5,0.2,1.9,0.2
			c0.9,0,1.8-0.3,2.5-0.9C128.7,94,129,93.8,129.3,93.6z"/>
		<path class="st63" d="M126.6,94.6c0.2-0.4,0.2-0.6,0.1-0.8l1.5-0.3c0.7-0.2,0.9,0,0.7,0.2C128.3,94.2,127.5,94.4,126.6,94.6z"/>
		<path class="st64" d="M125.1,76.7c-0.2,1.8-0.6,6.8-1.2,8.3c-0.8,2.3-1.1,4.4-1.6,6.9c-0.1,0.4-0.4,0.7-0.7,0.9
			c-0.6,0.3-1.4,0.4-1.6-0.1c0.1-2.3,0.1-4.7,0.3-6c0.2-1,0.3-2,0.8-2.9c0.1-1,0-3.6,0-5.5c0-1.7,0-2.8,0.5-3.9L125.1,76.7z"/>
		<path class="st65" d="M125.1,76.7c-0.2,1.8-0.6,6.8-1.2,8.3c-0.8,2.3-1.1,4.4-1.6,6.9c-0.1,0.4-0.4,0.7-0.7,0.9
			c-0.1,0.1-0.2,0.1-0.4,0.2c0.2-1.8,0.4-4.8,0.9-6.9c0.2-0.9,0.2-1.1,0.7-1.7c0.1-3.3,0.1-5.6-0.6-8.9l-1,0.5
			c0.1-0.5,0.2-1,0.4-1.5L125.1,76.7z"/>
		<path class="st64" d="M127.9,77.4c0.6,3.3-0.4,6.7-0.8,9c-0.4,2.7-0.4,5-0.6,7.7c-0.2,0.8-2,1.5-2.7,0.7c-0.1-2.3-0.4-4.2-0.3-5.5
			c0.1-1.1,0.1-1.7,0.5-2.6c0-1,0-3.8-0.2-5.6c-0.1-1.6-0.7-2,0.1-4l2.7,1L127.9,77.4z"/>
		<path class="st65" d="M127.9,77.4c0.6,3.3-0.4,6.7-0.8,9c-0.4,2.7-0.4,5-0.6,7.7c-0.1,0.4-0.6,0.8-1.1,0.9c-0.1-2.3-0.2-4.1,0-5.9
			c0.1-0.7,0.2-1.4,0.4-2.1c0.1-2.8,0.4-6.1,0.5-9l0.4,0.1L127.9,77.4z"/>
		<path class="st59" d="M121.5,62.7c-0.7,0.3-1.2,0.9-1.3,1.6c-0.5,2.2,1,5.2,1.2,7.6c0.1,1.6-0.9,2.9-0.4,5.6
			c0.2,0.7,1.4,1.2,1.9,1.6c0.2-0.6,0-1.5,0-2.7c0.1,1.1,0.3,1.7,0.5,2.8c1.3,0.8,4,1.6,5.1,0c-0.3-2.2-1.1-3.7-1-5.5
			c0.1-2.9,1.4-5.4,1.1-6.9c-0.1-0.6-0.5-1.1-1-1.5C126.3,64.5,122.8,62.2,121.5,62.7z"/>
		<path class="st60" d="M127,80.2c0.6-0.1,1.1-0.4,1.4-0.9c-0.3-2.2-0.9-4.2-0.9-5.9c0.1-2.9,1.3-4.9,1-6.4c-0.1-0.6-0.5-1.1-1-1.5
			c-0.7-0.5-1.5-1-2.3-1.4l0,0.3c0.6,0.4,1.2,0.8,1.7,1.4c-1.9,1.8-0.8,6.3-0.6,8.3C126.6,76.1,126.8,78.1,127,80.2z"/>
		<path class="st56" d="M126.8,62.9c-0.2,0.1-1.3,0-1.3,0.1c0,0.6,0.2,0.9,0.2,2c-1.3,0.9-3.1-0.1-2.9-0.8c0-0.4,0.2-1.7,0-2
			c-0.3-0.4-0.8-0.9-1-1.5c-0.2-0.6-0.2-1.3,0.1-2c0.1-0.3,0.4-0.6,0.7-0.9c1.3-0.9,3.1-0.6,4,0.7c0.2,0.3,0.3,0.6,0.4,0.9
			c0.1,0.4-0.2,0.6-0.2,0.9c0,0.1,0.1,0.1,0.2,0.3C127.1,60.8,127.1,62.8,126.8,62.9z"/>
		<path class="st58" d="M126.8,62.9c-0.2,0.1-1.3,0-1.3,0.1c0,0.6,0.2,0.9,0.2,2c-0.8-1.1-1.1-1.7-2.8-2.3c0-0.2,0-0.4-0.1-0.5
			c-0.3-0.4-0.8-0.9-1-1.5c-0.2-0.6-0.2-1.4,0.1-2c0.1-0.3,0.4-0.6,0.7-0.9c1.3-0.9,3.1-0.6,4,0.7c0.2,0.3,0.3,0.6,0.4,0.9
			c0.1,0.4-0.2,0.6-0.2,0.9c0,0.1,0.1,0.1,0.2,0.3C127.1,60.8,127.1,62.8,126.8,62.9z"/>
		<path class="st58" d="M126.8,62.9c-0.3,0.1-0.6,0-0.9-0.1c-0.2-0.1-0.3-0.2-0.4-0.3c-0.1-0.1-0.5-0.5,0-1.2
			c0.5-0.7-2.5,1.1-2.6,0.9c-0.3-0.4-0.8-0.9-1-1.5c-0.2-0.7-0.2-1.4,0.1-2c0.1-0.3,0.4-0.6,0.7-0.8c1.3-0.9,3-0.7,4,0.6
			c0.2,0.3,0.4,0.6,0.5,1c0.1,0.4-0.2,0.6-0.2,0.9c0,0.1,0.1,0.1,0.2,0.3C127.1,60.8,127,62.8,126.8,62.9z"/>
		<path class="st56" d="M126.8,62.9c-0.1,0-0.3,0-0.4,0c-0.2-0.2-0.3-0.4-0.3-0.7c0-0.6,0.3-1.2,0.3-1.4c0-0.6-0.2-0.3,0-0.9
			c0.2-0.5,0-0.5-0.1-0.9c0.2-0.1,0.3-0.2,0.4-0.4c0.1,0.2,0.3,0.5,0.3,0.8c0.1,0.4-0.2,0.6-0.2,0.9c0,0.1,0.1,0.1,0.2,0.3
			C127.1,60.8,127.1,62.8,126.8,62.9z"/>
		<path class="st58" d="M125.5,61.3c-0.6-0.6-1.2,1.2-0.2,1.2C124.9,62.1,125.2,61.5,125.5,61.3z"/>
		<path class="st56" d="M125.5,61.6c0.1-0.3,0-0.3-0.1-0.3c-0.2,0.1-0.3,0.3-0.4,0.5c-0.1,0.4,0.1,1,0.5,0.7c-0.4,0-0.3-0.4-0.2-0.7
			C125.4,61.6,125.5,61.5,125.5,61.6z"/>
		<path class="st66" d="M125.4,61.7c0.1,0.2,0.1,0.3,0.1,0.4c0,0.1-0.1,0.1-0.2,0C125.3,61.9,125.3,61.8,125.4,61.7z"/>
		<path class="st67" d="M122.8,62.6c-0.1-0.7-0.7-1.2-1-2c-0.3-1-0.2-2,0.7-2.7c1.3-1,2.9-0.5,3.8,0.6c0,0.1-0.1,0.4-0.3,0.6
			c0.2,0.6,0.2,0.8,0.1,0.9c-0.4,0.5-0.4,0.6-0.3,1.4l-0.2,0.2c-0.1-0.6-0.4-0.6-0.6-0.4c-0.5,0.4-0.2,1.6-1.3,1.7
			C123.3,62.9,123,62.8,122.8,62.6z"/>
		<path class="st68" d="M122.8,62.6c-0.1-0.7-0.7-1.2-1-2c-0.1-0.2-0.1-0.5-0.1-0.8c1,0.8,2.7,0.8,4.4-0.1c0,0.1,0,0.2-0.1,0.3
			c-0.4,0.5-0.4,0.6-0.3,1.4l-0.2,0.2c-0.1-0.6-0.4-0.6-0.6-0.4c-0.5,0.4-0.2,1.6-1.3,1.7C123.3,62.9,123,62.8,122.8,62.6z"/>
		<path class="st68" d="M122.8,62.6c0-0.3-0.1-0.5-0.3-0.7c0.5,0.4,1.1,0.6,2,0.2c-0.2,0.4-0.4,0.8-0.9,0.8
			C123.3,62.8,123,62.7,122.8,62.6z"/>
		<path class="st67" d="M122.8,59.4c0.8,0.3,2.3,0,3.2-0.5c0.7-0.4,0.6-1,0.5-1.2c-0.2-0.3-0.8-0.5-1.6-0.5c0.1,0,0.2,0,0.3,0
			c-0.8-0.2-1.6-0.1-2.3,0.4c0,0,0.1-0.1,0.1-0.1c-0.3,0.1-1.2,0.9-1,1.3C122,58.9,122.3,59.2,122.8,59.4z"/>
		<path class="st68" d="M126,57.4c-0.4-0.1-0.8-0.2-1.2-0.2c0.1,0,0.2,0,0.3,0c-0.8-0.2-1.6-0.1-2.3,0.4c0,0,0.1-0.1,0.1-0.1
			c-0.3,0.2-0.6,0.4-0.9,0.7c0.6-0.4,1.2-0.5,2.4-0.5c-0.2,0-0.3-0.1-0.4-0.1C124.7,57.5,125.5,57.3,126,57.4L126,57.4z"/>
		<path class="st67" d="M122.8,59.4c0.8,0.3,2.3,0,3.2-0.5c0.7-0.4,0.8-1.1,0.2-1.4c0.1,0.3-0.1,0.8-0.7,1.1c-0.1,0,0-0.1,0-0.2
			c-0.4,0.1-0.8,0.5-1.2,0.6c0.1-0.1,0.2-0.1,0.3-0.3c-0.6,0.2-1,0.1-1.7,0.2c0.1,0,0.2-0.1,0.3-0.2c-0.4,0.1-0.8,0-1.2-0.1
			c0,0,0,0,0,0.1C122,58.9,122.3,59.2,122.8,59.4z"/>
		<path class="st59" d="M128,66c0.9,0.7,0.8,4,0.8,6.4c0,0-0.7,2.4-2.3,1c-0.1-1.2-0.2-2.5-0.2-3.7c0-1.1-0.1-3.2,1-3.7
			C127.5,65.9,127.8,65.8,128,66z"/>
		<path class="st59" d="M127.2,71.5l3.6-2c0.9-0.3,1.4,1.3,1,1.7l-3.7,2.4c-0.6,0.2-1.1,0.2-1.3,0c-0.3-0.2-0.3-0.8-0.3-1.2
			C126.6,72.1,126.8,71.7,127.2,71.5z"/>
		<path class="st60" d="M131.8,70c0.2,0.4,0.3,1,0.1,1.2l-3.7,2.4c-0.6,0.2-1.1,0.2-1.3,0c-0.1-0.1-0.1-0.2-0.2-0.3
			C127.4,73.6,130.6,71.5,131.8,70z"/>
		<path class="st59" d="M121.7,63c-0.1,1.8,2.2,2.7,4.6,2.6c-1.2,2.1-0.8,5.3-0.4,8.3c0.3,2,0.9,4.1,0.8,5.9c-1.1,0.2-2-0.3-3-0.7
			c-1.2-4.1-0.8-4.8-0.4-6.7c-0.8,2.1-0.7,3.5-0.6,6.3c-0.6-0.3-1.1-0.7-1.5-1.2c-0.6-2.8,0.7-5.3,0.5-6
			C120.7,67.6,119,63.9,121.7,63z"/>
		<path class="st69" d="M124,80.1l1.3,0.6c0,2.1-0.1,4.6-0.3,6.8c-0.5,1.4-0.4,5.6-0.3,7.5c-0.3,0-0.6-0.1-0.8-0.2
			c-0.1-3.6-0.4-6.5,0.3-7.6C124.3,84.8,124.2,82.4,124,80.1z"/>
		<path class="st59" d="M122.3,79.1c0,1.6,0,3.5-0.1,5.1c-0.5,0.8-0.8,1.7-0.9,2.6c-0.3,2-0.3,3.9-0.4,6c-0.3,0.1-0.6,0-0.8-0.1
			c0.1-2.1,0.2-4.1,0.5-6.2c0.1-0.9,0.4-1.8,0.8-2.6c0-1.9-0.1-3.7-0.1-5.6C121.6,78.7,121.9,78.9,122.3,79.1z"/>
		<path class="st59" d="M122.9,62.8c-0.1,0-0.3-0.1-0.4-0.1c-0.4,0.1-0.4,1-0.3,1.3c0.3,0.6,1.1,1.2,2.2,1.4c1.3,0.2,2.8,0,3.2,0.2
			c-0.4-0.3-0.8-0.6-1.3-0.9C125.1,64.3,122.6,63.8,122.9,62.8z"/>
		<path class="st70" d="M122.9,62.8c0,0.7,1.7,1.1,2.8,0.8c0.3,0.1,0.5,0.8,0.5,1c-1.2,0.3-3.1,0.1-3.6-0.8
			C122.5,63.5,122.7,63,122.9,62.8z"/>
		<path class="st60" d="M128.1,66c0.7,0.6,0.8,2.6,0.8,4.6c-0.3,0.7-0.5,1.2-1.1,1.7c0.8-1.6,0.1-5.3-0.3-6.5
			C127.7,65.8,127.9,65.8,128.1,66z"/>
		<path class="st59" d="M127.4,66.1c0.1,0.8,0.8,4.3,0.1,6.4c-0.1,0.3-0.4,0.5-0.8,0.5C126.7,69.7,126.4,66.9,127.4,66.1z"/>
		<polygon class="st71" points="138.7,112.1 138.7,112.2 129,106.6 114.9,114.8 114.2,114.3 113.8,114.2 113.8,115.5 125,121.9 
			140.2,113.1 140.2,111.9 		"/>
		<polygon class="st52" points="140.2,111.9 125,120.7 113.8,114.2 129,105.4 		"/>
		<polygon class="st72" points="126.3,119 116.7,113.5 116.1,113.9 125.6,119.4 		"/>
		<polygon class="st72" points="127.7,118.1 118.2,112.7 117.5,113 127,118.5 		"/>
		<polygon class="st72" points="129.2,117.3 119.7,111.8 119,112.2 128.5,117.7 		"/>
		<polygon class="st72" points="130.7,116.4 121.1,111 120.5,111.3 130,116.8 		"/>
		<polygon class="st72" points="132.1,115.6 122.6,110.1 121.9,110.5 131.4,116 		"/>
		<polygon class="st72" points="133.6,114.7 124.1,109.2 123.4,109.6 132.9,115.1 		"/>
		<polygon class="st72" points="135,113.9 125.5,108.4 124.9,108.8 134.4,114.3 		"/>
		<polygon class="st72" points="136.5,113 127,107.5 126.3,107.9 135.8,113.4 		"/>
		<polygon class="st72" points="137.3,112.6 138,112.2 128.5,106.7 127.8,107.1 		"/>
		<polygon class="st59" points="138.7,110.2 138.7,110.3 129,104.7 114.9,112.9 114.2,112.3 113.8,112.2 113.8,113.5 125,120 
			140.2,111.2 140.2,109.9 		"/>
		<polygon class="st52" points="140.2,109.9 125,118.7 113.8,112.3 129,103.4 		"/>
		<polygon class="st72" points="126.3,117 116.7,111.6 116.1,111.9 125.6,117.4 		"/>
		<polygon class="st72" points="127.7,116.2 118.2,110.7 117.5,111.1 127,116.6 		"/>
		<polygon class="st72" points="129.2,115.3 119.7,109.9 119,110.2 128.5,115.7 		"/>
		<polygon class="st72" points="130.7,114.5 121.1,109 120.5,109.4 130,114.9 		"/>
		<polygon class="st72" points="132.1,113.6 122.6,108.1 121.9,108.5 131.4,114 		"/>
		<polygon class="st72" points="133.6,112.8 124.1,107.3 123.4,107.7 132.9,113.2 		"/>
		<polygon class="st72" points="135,111.9 125.5,106.4 124.9,106.8 134.4,112.3 		"/>
		<polygon class="st72" points="136.5,111.1 127,105.6 126.3,106 135.8,111.5 		"/>
		<polygon class="st72" points="137.3,110.6 138,110.2 128.5,104.7 127.8,105.1 		"/>
		<polygon class="st59" points="138.7,108.2 138.7,108.3 129,102.7 114.9,111 114.2,110.4 113.8,110.3 113.8,111.6 125,118 
			140.2,109.2 140.2,108 		"/>
		<polygon class="st52" points="140.2,108 125,116.8 113.8,110.3 129,101.5 		"/>
		<polygon class="st72" points="126.3,115.1 116.7,109.6 116.1,110 125.6,115.5 		"/>
		<polygon class="st72" points="127.7,114.2 118.2,108.8 117.5,109.1 127,114.6 		"/>
		<polygon class="st72" points="129.2,113.4 119.7,107.9 119,108.3 128.5,113.8 		"/>
		<polygon class="st72" points="130.7,112.5 121.1,107 120.5,107.4 130,112.9 		"/>
		<polygon class="st72" points="132.1,111.7 122.6,106.2 121.9,106.6 131.4,112.1 		"/>
		<polygon class="st72" points="133.6,110.8 124.1,105.3 123.4,105.7 132.9,111.2 		"/>
		<polygon class="st72" points="135,110 125.5,104.5 124.9,104.9 134.4,110.4 		"/>
		<polygon class="st72" points="136.5,109.1 127,103.6 126.3,104 135.8,109.5 		"/>
		<polygon class="st72" points="137.3,108.7 138,108.3 128.5,102.8 127.8,103.2 		"/>
		<polygon class="st59" points="138.7,106.3 138.7,106.4 129,100.8 114.9,109 114.2,108.4 113.8,108.3 113.8,109.6 125,116.1 
			140.2,107.2 140.2,106 		"/>
		<polygon class="st52" points="140.2,106 125,114.8 113.8,108.4 129,99.5 		"/>
		<polygon class="st72" points="126.3,113.1 116.7,107.7 116.1,108 125.6,113.5 		"/>
		<polygon class="st72" points="127.7,112.3 118.2,106.8 117.5,107.2 127,112.7 		"/>
		<polygon class="st72" points="129.2,111.4 119.7,105.9 119,106.3 128.5,111.8 		"/>
		<polygon class="st72" points="130.7,110.6 121.1,105.1 120.5,105.5 130,111 		"/>
		<polygon class="st72" points="132.1,109.7 122.6,104.2 121.9,104.6 131.4,110.1 		"/>
		<polygon class="st72" points="133.6,108.9 124.1,103.4 123.4,103.8 132.9,109.3 		"/>
		<polygon class="st72" points="135,108 125.5,102.5 124.9,102.9 134.4,108.4 		"/>
		<polygon class="st72" points="136.5,107.2 127,101.7 126.3,102.1 135.8,107.6 		"/>
		<polygon class="st72" points="137.3,106.7 138,106.3 128.5,100.8 127.8,101.2 		"/>
		<polygon class="st59" points="138.7,104.3 138.7,104.4 129,98.8 114.9,107 114.2,106.5 113.8,106.4 113.8,107.7 125,114.1 
			140.2,105.3 140.2,104.1 		"/>
		<polygon class="st52" points="140.2,104.1 125,112.9 113.8,106.4 129,97.6 		"/>
		<polygon class="st72" points="126.3,111.2 116.7,105.7 116.1,106.1 125.6,111.6 		"/>
		<polygon class="st72" points="127.7,110.3 118.2,104.8 117.5,105.2 127,110.7 		"/>
		<polygon class="st72" points="129.2,109.5 119.7,104 119,104.4 128.5,109.9 		"/>
		<polygon class="st72" points="130.7,108.6 121.1,103.1 120.5,103.5 130,109 		"/>
		<polygon class="st72" points="132.1,107.8 122.6,102.3 121.9,102.7 131.4,108.2 		"/>
		<polygon class="st72" points="133.6,106.9 124.1,101.4 123.4,101.8 132.9,107.3 		"/>
		<polygon class="st72" points="135,106.1 125.5,100.6 124.9,101 134.4,106.5 		"/>
		<polygon class="st72" points="136.5,105.2 127,99.7 126.3,100.1 135.8,105.6 		"/>
		<polygon class="st72" points="137.3,104.8 138,104.4 128.5,98.9 127.8,99.3 		"/>
		<polygon class="st59" points="138.7,102.4 138.7,102.5 129,96.9 114.9,105.1 114.2,104.5 113.8,104.4 113.8,105.7 125,112.2 
			140.2,103.3 140.2,102.1 		"/>
		<polygon class="st73" points="140.2,102.1 125,110.9 113.8,104.5 129,95.6 		"/>
		<polygon class="st74" points="126.3,109.2 116.7,103.7 116.1,104.1 125.6,109.6 		"/>
		<polygon class="st74" points="127.7,108.4 118.2,102.9 117.5,103.3 127,108.8 		"/>
		<polygon class="st74" points="129.2,107.5 119.7,102 119,102.4 128.5,107.9 		"/>
		<polygon class="st74" points="130.7,106.7 121.1,101.2 120.5,101.6 130,107.1 		"/>
		<polygon class="st74" points="132.1,105.8 122.6,100.3 121.9,100.7 131.4,106.2 		"/>
		<polygon class="st74" points="133.6,105 124.1,99.5 123.4,99.9 132.9,105.4 		"/>
		<polygon class="st74" points="135,104.1 125.5,98.6 124.9,99 134.4,104.5 		"/>
		<polygon class="st74" points="136.5,103.3 127,97.8 126.3,98.2 135.8,103.7 		"/>
		<polygon class="st74" points="137.3,102.8 138,102.4 128.5,96.9 127.8,97.3 		"/>
		<path class="st74" d="M129.2,102.9c0,0.1,0,0.3,0,0.4c0,0.1,0,0.3,0,0.4h1v-0.8L129.2,102.9z"/>
		<polygon class="st65" points="129.2,103.7 129.2,104.6 130.1,104.6 130.1,103.7 		"/>
		<polygon class="st10" points="130.1,103.9 130.1,104.8 140.2,104.8 140.2,103.9 		"/>
		<polygon class="st11" points="130.1,102.7 130.1,102.9 130.1,103.7 130.1,103.9 140.2,103.9 140.2,102.7 		"/>
		<path class="st14" d="M124.2,106.2c1.2,0,2.4-0.3,3.5-0.8c0.8-0.4,1.3-1,1.4-1.6c0-0.1,0-0.3,0-0.4v1c0,0.1,0,0.3,0,0.4
			c-0.2,0.6-0.7,1.2-1.4,1.6c-1.1,0.6-2.3,0.9-3.5,0.8c-2.7,0-4.9-1.3-4.9-2.9v-1C119.3,104.9,121.5,106.2,124.2,106.2"/>
		<path class="st75" d="M121.4,101.6c-0.7,0.4-1.2,1-1.2,1.7c0,0.6,0.4,1.2,1.2,1.7c1.8,0.9,3.9,0.9,5.8,0c0.7-0.4,1.2-1,1.2-1.7
			c0-0.7-0.4-1.2-1.2-1.7C125.3,100.7,123.2,100.7,121.4,101.6"/>
		<path class="st15" d="M119.3,103.3c0,1.6,2.2,2.9,4.9,2.9c1.2,0,2.4-0.3,3.5-0.8c0.8-0.4,1.3-1,1.4-1.6c0-0.1,0-0.3,0-0.4
			c0-0.1,0-0.3,0-0.4c-0.3-1.4-2.4-2.5-4.9-2.5c-1.2,0-2.4,0.3-3.5,0.8C119.9,101.8,119.3,102.5,119.3,103.3 M120.2,103.3
			c0-0.6,0.5-1.2,1.2-1.7c1.8-0.9,3.9-0.9,5.7,0c0.7,0.4,1.2,1,1.2,1.7c0,0.6-0.5,1.2-1.2,1.7c-1.8,0.9-3.9,0.9-5.8,0
			C120.6,104.5,120.2,103.9,120.2,103.3L120.2,103.3z"/>
		<path class="st52" d="M124.1,105.6c-0.7,0-1.4-0.1-2-0.4l5.6-3.2c0.3,0.3,0.6,0.7,0.6,1.2L124.1,105.6z"/>
		<path class="st52" d="M125.5,101c0.6,0.1,1.1,0.3,1.6,0.6l-5.8,3.3c-0.4-0.2-0.7-0.6-1-1L125.5,101z"/>
	</g>
</g>
</svg>
