<?xml version="1.0" encoding="utf-8"?>
<!-- Generator: Adobe Illustrator 24.1.1, SVG Export Plug-In . SVG Version: 6.00 Build 0)  -->
<svg version="1.1" id="Layer_1" xmlns="http://www.w3.org/2000/svg" xmlns:xlink="http://www.w3.org/1999/xlink" x="0px" y="0px"
	 viewBox="0 0 150 150" style="enable-background:new 0 0 150 150;" xml:space="preserve">
<style type="text/css">
	.st0{fill:#3C6CAB;}
	.st1{fill:url(#SVGID_1_);}
	.st2{fill:#CACAC9;}
	.st3{fill:#86B4E0;}
	.st4{fill:#FFFFFF;}
	.st5{fill:#57738B;}
	.st6{opacity:0.3;}
	.st7{opacity:0.5;fill:#929497;enable-background:new    ;}
	.st8{fill:#929497;}
	.st9{fill-rule:evenodd;clip-rule:evenodd;fill:#CACAC9;}
	.st10{fill-rule:evenodd;clip-rule:evenodd;fill:#184560;}
	.st11{fill-rule:evenodd;clip-rule:evenodd;fill:#5891CC;}
	.st12{fill-rule:evenodd;clip-rule:evenodd;fill:url(#SVGID_2_);}
	.st13{fill-rule:evenodd;clip-rule:evenodd;fill:#C9E6E8;}
	.st14{fill-rule:evenodd;clip-rule:evenodd;fill:#D25827;}
	.st15{fill-rule:evenodd;clip-rule:evenodd;fill:#F26C21;}
	.st16{fill-rule:evenodd;clip-rule:evenodd;fill:#0098CC;}
	.st17{fill-rule:evenodd;clip-rule:evenodd;fill:#5CBFD8;}
	.st18{fill-rule:evenodd;clip-rule:evenodd;fill:#DD8732;}
	.st19{fill-rule:evenodd;clip-rule:evenodd;fill:#3C6CAB;}
	.st20{fill-rule:evenodd;clip-rule:evenodd;fill:#703624;}
	.st21{enable-background:new    ;}
	.st22{fill:#E6E7E8;}
	.st23{fill:#D0DFE9;}
	.st24{fill:#DD8732;}
	.st25{fill:#F26C21;}
	.st26{fill:#D25827;}
	.st27{fill:#BACDDF;}
	.st28{fill:#0098CC;}
	.st29{fill:#9BC9EC;}
	.st30{fill:#A6BBCD;}
	.st31{fill:#F3F5FA;}
	.st32{fill:#5CBFD8;}
	.st33{fill:#F7C22B;}
	.st34{fill:#EE9C26;}
	.st35{fill:#FAC0AF;}
	.st36{fill:#E5E6E6;}
	.st37{fill:#3D5566;}
	.st38{fill:#20232E;}
	.st39{fill:#263C49;}
	.st40{fill:#D3D5D7;}
	.st41{fill:#E99B91;}
	.st42{fill:#5B2F1A;}
	.st43{opacity:0.2;fill:#044EA0;enable-background:new    ;}
	.st44{fill:#21456E;}
	.st45{fill:#C3DCEE;}
	.st46{fill-rule:evenodd;clip-rule:evenodd;fill:#C1CBE7;}
	.st47{fill-rule:evenodd;clip-rule:evenodd;fill:#263C49;}
	.st48{opacity:0.65;fill-rule:evenodd;clip-rule:evenodd;fill:#E7F4FA;enable-background:new    ;}
	.st49{opacity:0.61;fill-rule:evenodd;clip-rule:evenodd;fill:#FFFFFF;enable-background:new    ;}
	.st50{fill:#C1CBE7;}
	.st51{fill:#1D3042;}
	.st52{fill:#5067A8;}
	.st53{opacity:0.24;enable-background:new    ;}
	.st54{fill:#12416B;}
	.st55{fill:#1F5B84;}
	.st56{fill:#6D3F26;}
	.st57{fill:#32465B;}
	.st58{fill:#A4BAC5;}
	.st59{fill:#00B4E4;}
	.st60{fill-rule:evenodd;clip-rule:evenodd;fill:#0D0D0E;}
	.st61{fill-rule:evenodd;clip-rule:evenodd;fill:#404041;}
	.st62{fill-rule:evenodd;clip-rule:evenodd;fill:#D0D2D3;}
	.st63{fill-rule:evenodd;clip-rule:evenodd;fill:#A6A8AB;}
	.st64{fill-rule:evenodd;clip-rule:evenodd;fill:#FFFFFF;}
	.st65{fill-rule:evenodd;clip-rule:evenodd;fill:#0A7A98;}
	.st66{fill-rule:evenodd;clip-rule:evenodd;fill:#81C9E4;}
	.st67{fill-rule:evenodd;clip-rule:evenodd;fill:#808184;}
	.st68{fill-rule:evenodd;clip-rule:evenodd;fill:#FAC0AF;}
	.st69{fill-rule:evenodd;clip-rule:evenodd;fill:#E7A376;}
	.st70{fill-rule:evenodd;clip-rule:evenodd;fill:#E99B91;}
	.st71{fill-rule:evenodd;clip-rule:evenodd;fill:#57738B;}
	.st72{fill-rule:evenodd;clip-rule:evenodd;fill:#3D5566;}
	.st73{fill-rule:evenodd;clip-rule:evenodd;fill:#121415;}
	.st74{fill-rule:evenodd;clip-rule:evenodd;}
	.st75{fill-rule:evenodd;clip-rule:evenodd;fill:#20232E;}
	.st76{fill-rule:evenodd;clip-rule:evenodd;fill:#425D71;}
	.st77{fill-rule:evenodd;clip-rule:evenodd;fill:#DA9569;}
	.st78{fill-rule:evenodd;clip-rule:evenodd;fill:#6D3F26;}
	.st79{fill-rule:evenodd;clip-rule:evenodd;fill:#5B2F1A;}
	.st80{fill-rule:evenodd;clip-rule:evenodd;fill:#4A6A7D;}
	.st81{fill-rule:evenodd;clip-rule:evenodd;fill:#E8F6FD;}
	.st82{fill-rule:evenodd;clip-rule:evenodd;fill:#C9C8C9;}
	.st83{fill-rule:evenodd;clip-rule:evenodd;fill:#BCDAF2;}
	.st84{fill-rule:evenodd;clip-rule:evenodd;fill:#E6E7E8;}
	.st85{fill-rule:evenodd;clip-rule:evenodd;fill:#E7F4FA;}
	.st86{fill:#E1DDDD;}
	.st87{fill:#5891CC;}
	.st88{fill:#CBEAF3;}
	.st89{fill:url(#SVGID_4_);}
	.st90{fill:#6EABDD;}
	.st91{opacity:0.47;fill:#3C6CAB;enable-background:new    ;}
	.st92{fill:url(#SVGID_5_);}
	.st93{fill:#B9BEC0;}
	.st94{fill:#81C9E4;}
	.st95{fill:url(#SVGID_6_);}
	.st96{fill:#8F9AA0;}
	.st97{fill:#E0E7ED;}
	.st98{fill:#8FA8BA;}
	.st99{fill:url(#SVGID_7_);}
	.st100{fill:#193044;}
	.st101{fill:#133A5B;}
	.st102{fill:#F0B185;}
	.st103{fill:#7D8082;}
	.st104{fill:#DA9569;}
</style>
<g>
	<path class="st0" d="M118.3,126.9l-11.3-7.8c-0.3-0.2-0.8-0.2-1.1-0.1l-8.7,4.1c-0.3,0.1-0.3,0.4-0.1,0.6l11.3,7.8
		c0.3,0.2,0.8,0.2,1.1,0.1l8.7-4.1C118.6,127.4,118.6,127.1,118.3,126.9z"/>
	
		<linearGradient id="SVGID_1_" gradientUnits="userSpaceOnUse" x1="-21.867" y1="-89.2067" x2="5.638" y2="-89.2067" gradientTransform="matrix(0.997 7.703388e-02 -7.703388e-02 0.997 112.8105 213.9572)">
		<stop  offset="0" style="stop-color:#FFFFFF"/>
		<stop  offset="0.398" style="stop-color:#F3F1F6"/>
		<stop  offset="1" style="stop-color:#E5E1EA"/>
	</linearGradient>
	<path class="st1" d="M118.4,125.7l-11.3-7.8c-0.3-0.2-0.8-0.2-1.1-0.1l-8.7,4.1c-0.3,0.1-0.3,0.4-0.1,0.6l11.3,7.8
		c0.3,0.2,0.8,0.2,1.1,0.1l8.7-4.1C118.7,126.2,118.7,125.9,118.4,125.7z"/>
	<path class="st2" d="M118.6,126c0,0.1-0.1,0.2-0.2,0.3l-8.7,4.1c-0.1,0-0.2,0.1-0.3,0.1l0,0c-0.1,0-0.2,0-0.3,0l0,0
		c-0.1,0-0.2,0-0.3,0l0,0c-0.1,0-0.2-0.1-0.2-0.1l-11.3-7.8l0,0c0,0,0,0-0.1,0c0,0,0,0-0.1-0.1l0,0c0,0,0,0,0-0.1l0,0v-0.1v0.2l0,0
		l0,0l0,0l0,0l0,0l0,0l0,0l0,0l0,0c0,0,0,0,0,0.1l0,0c0,0,0,0,0.1,0l0,0l0,0l11.3,7.8c0,0,0.1,0.1,0.2,0.1c0,0,0,0,0.1,0l0,0l0,0
		h0.1h0.1l0,0l0,0l0,0c0,0,0,0,0.1,0c0,0,0,0,0.1,0h0.1l0,0l0,0l0,0h0.1h0.1l8.7-4.1c0.2-0.1,0.2-0.2,0.2-0.3L118.6,126z"/>
	<g>
		<g>
			<path class="st3" d="M107.6,125.1l4.4-2.2c0.1-0.1,0.3,0,0.4,0c0.1,0.1,0.1,0.2,0,0.2l-4.4,2.2c-0.1,0.1-0.3,0-0.4,0
				C107.5,125.2,107.5,125.1,107.6,125.1z M108.4,125.9c0.1,0.1,0.3,0.1,0.4,0l3-1.5c0.1-0.1,0.1-0.2,0-0.2c-0.1-0.1-0.3-0.1-0.4,0
				l-3,1.5C108.3,125.7,108.3,125.8,108.4,125.9z M107.5,125.9c-0.3-0.2-0.9-0.3-1.3-0.1l-0.5,0.2c-0.4,0.2-0.4,0.5-0.1,0.7
				s0.9,0.3,1.3,0.1l0.5-0.2C107.8,126.4,107.9,126.1,107.5,125.9z"/>
			<g>
				<path class="st4" d="M106.8,126C106.8,126,106.7,126,106.8,126c-0.2,0-0.2,0-0.2,0v0.5h-0.2c-0.1,0-0.1,0-0.1,0.1c0,0,0,0,0,0.1
					h0.1h0.3h0.1l0,0L106.8,126L106.8,126L106.8,126z"/>
			</g>
		</g>
		<g>
			<path class="st3" d="M104.8,123.2l4.4-2.2c0.1-0.1,0.3,0,0.4,0s0.1,0.2,0,0.2l-4.4,2.2c-0.1,0.1-0.3,0-0.4,0
				C104.7,123.3,104.7,123.2,104.8,123.2z M105.6,124c0.1,0.1,0.3,0.1,0.4,0l3-1.5c0.1-0.1,0.1-0.2,0-0.2c-0.1-0.1-0.3-0.1-0.4,0
				l-3,1.5C105.5,123.8,105.5,123.9,105.6,124z M104.8,124c-0.3-0.2-0.9-0.3-1.3-0.1l-0.5,0.2c-0.4,0.2-0.4,0.5-0.1,0.7
				s0.9,0.3,1.3,0.1l0.5-0.2C105.1,124.5,105.1,124.2,104.8,124z"/>
			<g>
				<path class="st4" d="M104,124.1L104,124.1c-0.2,0-0.2,0-0.2,0v0.5h-0.2c-0.1,0-0.1,0-0.1,0.1c0,0,0,0,0,0.1h0.1h0.3h0.1l0,0
					L104,124.1C104.1,124.1,104.1,124.1,104,124.1L104,124.1z"/>
			</g>
		</g>
		<g>
			<path class="st3" d="M102.1,121.3l4.4-2.2c0.1-0.1,0.3,0,0.4,0c0.1,0.1,0.1,0.2,0,0.2l-4.4,2.2c-0.1,0.1-0.3,0-0.4,0
				C102,121.4,102,121.3,102.1,121.3z M102.9,122.1c0.1,0.1,0.3,0.1,0.4,0l3-1.5c0.1-0.1,0.1-0.2,0-0.2c-0.1-0.1-0.3-0.1-0.4,0
				l-3,1.5C102.8,121.9,102.8,122,102.9,122.1z M102,122.1c-0.3-0.2-0.9-0.3-1.3-0.1l-0.5,0.2c-0.4,0.2-0.4,0.5-0.1,0.7
				s0.9,0.3,1.3,0.1l0.5-0.2C102.3,122.6,102.3,122.3,102,122.1z"/>
			<g>
				<path class="st4" d="M101.3,122.2C101.3,122.2,101.2,122.1,101.3,122.2c-0.2,0-0.2,0-0.2,0v0.5h-0.2c-0.1,0-0.1,0-0.1,0.1
					c0,0,0,0,0,0.1h0.1h0.3h0.1l0,0L101.3,122.2L101.3,122.2L101.3,122.2z"/>
			</g>
		</g>
	</g>
	<path class="st2" d="M116.1,125.3c-0.3-0.2-0.9-0.3-1.3-0.1l-2.7,1.3c-0.4,0.2-0.4,0.5-0.1,0.7s0.9,0.3,1.3,0.1l2.7-1.3
		C116.4,125.9,116.4,125.5,116.1,125.3z"/>
	<path class="st5" d="M116.6,125.3L116.6,125.3C116.5,125.3,116.5,125.3,116.6,125.3c-0.3,0.1-0.5,0.3-0.7,0.4c0,0,0,0-0.1,0l0,0
		l0,0c-0.1,0-0.2,0-0.3,0.1l0,0c-0.1,0.1-0.2,0.1-0.2,0.2c0,0,0,0.1-0.1,0.1c0,0.1-0.1,0.1-0.1,0.2H115l0,0l0,0
		c0-0.1,0.1-0.1,0.1-0.2s0-0.1,0-0.2l0,0c0,0,0,0-0.1,0s-0.1,0-0.2,0c-0.1,0.1-0.1,0.2-0.1,0.2s0,0.1,0.1,0.1l0,0c0,0,0,0,0.1,0.1
		l0,0c0,0.1-0.1,0.1-0.2,0.2l0,0l-0.1,0.1c0,0-0.1,0-0.2-0.1l0,0c0,0,0,0-0.1-0.1c0.1-0.1,0.2-0.3,0.2-0.4v-0.1l0,0h-0.1h-0.1
		c-0.2,0.2-0.2,0.4,0,0.5l0,0c-0.1,0.2-0.3,0.3-0.3,0.3l0,0l0,0l0,0l0,0l0,0l0,0l0,0l-0.1,0.1l0,0l0,0l0,0c0-0.1,0.1-0.1,0.1-0.2
		c0,0,0,0,0-0.1l0,0l0,0l0,0c0,0,0,0-0.1,0l-0.1,0.1v0.1l0,0c-0.1,0.1-0.1,0.2-0.2,0.2s-0.1,0-0.1,0l0,0c0.1-0.1,0.2-0.3,0-0.5l0,0
		c0,0,0,0-0.1,0h-0.1c-0.1,0.1-0.1,0.2-0.1,0.3c0,0,0,0.1,0.1,0.1c0,0,0,0,0.1,0.1c-0.1,0.1-0.1,0.1-0.2,0.2c-0.1,0-0.1,0.1-0.2,0.1
		h-0.1v-0.1c0.1-0.2,0.1-0.4,0.2-0.6c0-0.1,0-0.3,0-0.4c0,0,0,0,0-0.1l0,0H113c-0.1,0-0.1,0.1-0.1,0.1c-0.3,0.2-0.3,0.6-0.2,0.9
		c0,0.1,0.1,0.2,0.2,0.2c-0.1,0.1-0.2,0.3-0.3,0.4l0,0l0,0c0,0,0,0,0.1,0c0.1-0.1,0.2-0.3,0.3-0.4h0.1c0.2,0,0.3-0.1,0.3-0.1
		c0.1-0.1,0.1-0.1,0.2-0.2l0,0c0.1,0,0.2,0,0.2-0.1c0.1-0.1,0.2-0.2,0.2-0.3l0,0c0,0,0,0,0.1,0h0.1h0.1l0,0h0.1
		c0.2,0,0.3-0.2,0.4-0.3l0,0l0,0c0.1,0,0.2,0.1,0.3,0.1h0.1c0,0,0.1,0,0.1-0.1l0,0c0.1-0.1,0.1-0.1,0.2-0.2h0.1c0.1,0,0.1,0,0.1-0.1
		c0.1-0.1,0.1-0.1,0.2-0.2c0,0,0-0.1,0.1-0.1c0.1-0.1,0.1-0.1,0.2-0.2l0,0c0.1,0,0.1-0.1,0.2-0.1l0,0
		C116.4,125.3,116.4,125.3,116.6,125.3L116.6,125.3C116.1,125.6,116.4,125.5,116.6,125.3L116.6,125.3z M112.3,127.2L112.3,127.2
		C112.2,127.2,112.2,127.1,112.3,127.2c-0.2-0.4-0.2-0.7,0.1-0.9c0,0,0.1,0,0.1-0.1l0,0l0,0l0,0l0,0c0,0.1,0,0.3,0,0.4
		C112.4,126.8,112.4,127,112.3,127.2z M112.9,127L112.9,127C112.9,126.9,112.8,126.9,112.9,127c-0.1-0.2-0.1-0.3-0.1-0.4l0,0l0,0
		l0,0l0,0C113.1,126.7,113,126.9,112.9,127z M114.1,126.3c-0.1-0.1-0.1-0.3,0-0.4l0,0l0,0l0,0l0,0v0.1
		C114.3,126.1,114.2,126.2,114.1,126.3z M114.8,126.2C114.8,126.1,114.8,126.1,114.8,126.2L114.8,126.2c-0.1-0.1-0.1-0.1-0.1-0.2
		c0,0,0-0.1,0-0.2l0,0h0.1l0,0l0,0c0,0,0,0.1,0,0.2C114.9,126,114.8,126.1,114.8,126.2z"/>
</g>
<g>
	<g class="st6">
		<polygon class="st7" points="36.8,57.8 51.3,66.6 36.7,75.3 22.1,66.6 		"/>
		<polygon class="st7" points="41.6,66 56.2,74.7 41.5,83.5 27,74.7 		"/>
		<polygon class="st7" points="34.4,68.4 48.9,77.1 34.3,85.9 19.7,77.1 		"/>
		<polygon class="st7" points="39.2,76.5 53.7,85.3 39.1,94 24.5,85.3 		"/>
		<polygon class="st7" points="58.6,56.3 73.2,65.1 58.5,73.8 44,65.1 		"/>
		<polygon class="st7" points="63.4,64.4 78,73.2 63.3,81.9 48.8,73.2 		"/>
		<polygon class="st7" points="56.2,66.9 70.7,75.6 56.1,84.4 41.6,75.6 		"/>
		<polygon class="st7" points="61,75 75.6,83.7 60.9,92.5 46.4,83.7 		"/>
		<polygon class="st7" points="47.6,78.4 62.2,87.1 47.5,95.9 33,87.1 		"/>
		<polygon class="st7" points="52.5,86.5 67,95.3 52.4,104 37.8,95.3 		"/>
		<polygon class="st7" points="45.2,88.9 59.8,97.7 45.1,106.4 30.6,97.7 		"/>
		<polygon class="st8" points="50,97.1 64.6,105.8 50,114.6 35.4,105.8 		"/>
		<polygon class="st8" points="72,69.3 86.5,78 71.9,86.8 57.4,78 		"/>
		<polygon class="st7" points="76.8,77.4 91.4,86.1 76.7,94.9 62.2,86.1 		"/>
		<polygon class="st7" points="69.6,79.8 84.1,88.6 69.5,97.3 54.9,88.6 		"/>
		<polygon class="st7" points="74.4,87.9 89,96.7 74.3,105.4 59.8,96.7 		"/>
		<polygon class="st7" points="94.9,56.6 109.4,65.4 94.8,74.1 80.2,65.4 		"/>
		<polygon class="st7" points="99.7,64.8 114.3,73.5 99.6,82.3 85.1,73.5 		"/>
		<polygon class="st7" points="92.5,67.2 107,76 92.4,84.7 77.8,76 		"/>
		<polygon class="st7" points="97.3,75.3 111.8,84.1 97.2,92.8 82.7,84.1 		"/>
		<polygon class="st7" points="98.5,73.3 113,82.1 98.4,90.8 83.9,82.1 		"/>
		<polygon class="st7" points="103.3,81.5 117.9,90.2 103.2,99 88.7,90.2 		"/>
		<polygon class="st7" points="96.1,83.9 110.6,92.6 96,101.4 81.4,92.6 		"/>
		<polygon class="st7" points="100.9,92 115.5,100.8 100.8,109.5 86.3,100.8 		"/>
		<polygon class="st7" points="76.8,91.4 91.4,100.2 76.7,108.9 62.2,100.2 		"/>
		<polygon class="st7" points="81.7,99.6 96.2,108.3 81.6,117.1 67,108.3 		"/>
		<polygon class="st7" points="74.4,102 89,110.7 74.3,119.5 59.8,110.7 		"/>
		<polygon class="st7" points="79.2,110.1 93.8,118.9 79.1,127.6 64.6,118.9 		"/>
		<polygon class="st7" points="74.4,113.3 89,122 74.3,130.8 59.8,122 		"/>
		<polygon class="st7" points="79.2,121.4 93.8,130.2 79.1,138.9 64.6,130.2 		"/>
		<polygon class="st7" points="72,123.8 86.5,132.6 71.9,141.3 57.4,132.6 		"/>
		<polygon class="st7" points="34.2,101.4 48.8,110.1 34.2,118.9 19.6,110.1 		"/>
		<polygon class="st7" points="39.1,109.5 53.6,118.3 39,127 24.4,118.3 		"/>
		<polygon class="st7" points="31.8,111.9 46.4,120.7 31.7,129.4 17.2,120.7 		"/>
		<polygon class="st7" points="36.7,120.1 51.2,128.8 36.6,137.6 22,128.8 		"/>
		<polygon class="st7" points="23.4,73.9 37.9,82.7 23.3,91.4 8.7,82.7 		"/>
		<polygon class="st7" points="28.2,82.1 42.8,90.8 28.1,99.6 13.6,90.8 		"/>
		<polygon class="st7" points="21,84.5 35.5,93.2 20.9,102 6.3,93.2 		"/>
		<polygon class="st7" points="25.8,92.6 40.3,101.4 25.7,110.1 11.2,101.4 		"/>
		<g>
			<polygon class="st7" points="50.5,54.4 56.2,57.9 50.4,61.4 44.6,57.9 			"/>
			<polygon class="st7" points="52.4,57.7 58.2,61.1 52.3,64.6 46.6,61.1 			"/>
			<polygon class="st7" points="45.1,63.6 50.9,67.1 45.1,70.5 39.3,67.1 			"/>
			<polygon class="st7" points="47.1,66.8 52.8,70.3 47,73.8 41.2,70.3 			"/>
			<polygon class="st7" points="40.8,52.7 46.6,56.1 40.8,59.6 35,56.1 			"/>
			<polygon class="st7" points="42.7,55.9 48.5,59.4 42.7,62.9 36.9,59.4 			"/>
		</g>
		<g>
			<polygon class="st7" points="137.8,95.2 143.6,98.7 137.7,102.2 132,98.7 			"/>
			<polygon class="st7" points="139.7,98.5 145.5,101.9 139.7,105.4 133.9,101.9 			"/>
			<polygon class="st7" points="132.5,104.4 138.2,107.9 132.4,111.3 126.6,107.9 			"/>
			<polygon class="st7" points="134.4,107.6 140.2,111.1 134.3,114.6 128.6,111.1 			"/>
			<polygon class="st7" points="128.1,93.5 133.9,96.9 128.1,100.4 122.3,96.9 			"/>
			<polygon class="st7" points="130.1,96.7 135.8,100.2 130,103.6 124.2,100.2 			"/>
		</g>
		<g>
			<path class="st7" d="M150.8,136.2"/>
			<polygon class="st7" points="144.6,122 150.4,125.5 144.6,129 138.8,125.5 			"/>
		</g>
		<g>
			<polygon class="st7" points="97.7,123.5 103.5,126.9 97.7,130.4 91.9,126.9 			"/>
			<polygon class="st7" points="99.6,126.7 105.4,130.2 99.6,133.6 93.8,130.2 			"/>
			<polygon class="st7" points="92.4,132.6 98.2,136.1 92.3,139.6 86.5,136.1 			"/>
			<polygon class="st7" points="94.3,135.8 100.1,139.3 94.2,142.8 88.5,139.3 			"/>
			<polygon class="st7" points="88,121.7 93.8,125.2 88,128.6 82.2,125.2 			"/>
			<polygon class="st7" points="90,124.9 95.8,128.4 89.9,131.9 84.1,128.4 			"/>
		</g>
		<g>
			<polygon class="st7" points="3.5,81 9.2,84.4 3.4,87.9 -2.4,84.4 			"/>
			<polygon class="st7" points="5.4,84.2 11.2,87.7 5.3,91.1 -0.4,87.7 			"/>
		</g>
		<g>
			<polygon class="st7" points="15,53.8 20.8,57.2 15,60.7 9.2,57.2 			"/>
			<polygon class="st7" points="17,57 22.7,60.5 16.9,64 11.1,60.5 			"/>
			<polygon class="st7" points="9.7,62.9 15.5,66.4 9.7,69.9 3.9,66.4 			"/>
			<polygon class="st7" points="11.6,66.2 17.4,69.6 11.6,73.1 5.8,69.6 			"/>
			<polygon class="st7" points="5.4,52 11.2,55.5 5.4,59 -0.4,55.5 			"/>
			<polygon class="st7" points="7.3,55.2 13.1,58.7 7.3,62.2 1.5,58.7 			"/>
		</g>
		<g>
			<polygon class="st7" points="53.2,38.2 59,41.6 53.2,45.1 47.4,41.6 			"/>
			<polygon class="st7" points="55.1,41.4 60.9,44.9 55.1,48.3 49.3,44.9 			"/>
			<polygon class="st7" points="47.9,47.3 53.7,50.8 47.8,54.3 42.1,50.8 			"/>
			<polygon class="st7" points="49.8,50.5 55.6,54 49.8,57.5 44,54 			"/>
			<polygon class="st8" points="43.6,36.4 49.4,39.9 43.5,43.3 37.7,39.9 			"/>
			<polygon class="st8" points="45.5,39.6 51.3,43.1 45.4,46.6 39.7,43.1 			"/>
		</g>
		<g>
			<polygon class="st7" points="102.9,61.2 108.7,64.7 102.9,68.2 97.1,64.7 			"/>
			<polygon class="st7" points="104.8,64.4 110.6,67.9 104.8,71.4 99,67.9 			"/>
			<polygon class="st7" points="97.6,70.3 103.4,73.8 97.5,77.3 91.7,73.8 			"/>
			<polygon class="st7" points="99.5,73.6 105.3,77.1 99.5,80.5 93.7,77.1 			"/>
			<polygon class="st7" points="93.3,59.4 99,62.9 93.2,66.4 87.4,62.9 			"/>
			<polygon class="st7" points="95.2,62.7 101,66.1 95.1,69.6 89.3,66.1 			"/>
		</g>
		<polygon class="st7" points="73.2,34.2 87.8,43 73.1,51.7 58.6,43 		"/>
		<polygon class="st7" points="78,42.4 92.6,51.1 77.9,59.9 63.4,51.1 		"/>
		<polygon class="st7" points="70.8,44.8 85.3,53.5 70.7,62.3 56.2,53.5 		"/>
		<polygon class="st7" points="75.6,52.9 90.2,61.7 75.5,70.4 61,61.7 		"/>
		<polygon class="st7" points="131,53.8 145.5,62.6 130.9,71.3 116.3,62.6 		"/>
		<polygon class="st7" points="135.8,61.9 150.4,70.7 135.7,79.4 121.2,70.7 		"/>
		<polygon class="st7" points="128.6,64.4 143.1,73.1 128.5,81.9 113.9,73.1 		"/>
		<polygon class="st7" points="133.4,72.5 147.9,81.2 133.3,90 118.8,81.2 		"/>
		<polygon class="st7" points="121.4,84.1 135.9,92.8 121.3,101.5 106.8,92.8 		"/>
		<polygon class="st7" points="126.2,92.2 140.8,100.9 126.1,109.7 111.6,100.9 		"/>
		<polygon class="st7" points="119,94.6 133.5,103.4 118.9,112.1 104.3,103.4 		"/>
		<polygon class="st7" points="123.8,102.7 138.4,111.5 123.7,120.2 109.2,111.5 		"/>
		<polygon class="st7" points="121.8,111.2 136.3,119.9 121.7,128.7 107.1,119.9 		"/>
		<polygon class="st7" points="126.6,119.3 141.1,128 126.5,136.8 112,128 		"/>
		<polygon class="st7" points="119.4,121.7 133.9,130.5 119.3,139.2 104.7,130.5 		"/>
	</g>
</g>
<g>
	<path class="st9" d="M40.2,55.1L7.7,73.9l0,0c-0.7,0.4-1.1,1-1.1,1.6s0.4,1.2,1.1,1.6l0,0l14.9,8.6h0.1c0.6,0.3,1.3,0.4,2.1,0.4
		c0.8,0,1.5-0.2,2.1-0.4l0,0l0.2-0.1c0.1-0.1,0.2-0.1,0.3-0.2l32.2-18.6l0,0c0.7-0.4,1.1-1,1.1-1.6s-0.4-1.2-1.1-1.6l-14.4-8.3
		c-0.1-0.1-0.2-0.1-0.4-0.2h-0.1l0,0c-0.6-0.3-1.4-0.5-2.2-0.5C41.6,54.6,40.8,54.8,40.2,55.1L40.2,55.1z"/>
	<path class="st10" d="M38.8,56.6L12.5,71.8v-1L9.6,71v2.2c0,0.5,0.4,1,1,1.4l0,0l12.9,7.5h0.1c0.5,0.2,1.1,0.4,1.8,0.4
		c0.7,0,1.3-0.1,1.8-0.4l0,0l0.1-0.1c0.1,0,0.2-0.1,0.3-0.2l27.8-16.1l0,0c0.6-0.3,1-0.8,1-1.4v-2.2l-2.9-0.3l-1,0.5L43,56.8
		c-0.1-0.1-0.2-0.1-0.3-0.2l0,0l0,0c-0.5-0.3-1.2-0.4-1.9-0.4C40,56.2,39.3,56.4,38.8,56.6L38.8,56.6z"/>
	<path class="st11" d="M38.8,53.4L10.6,69.6l0,0c-0.6,0.3-1,0.8-1,1.4c0,0.5,0.4,1,1,1.4l0,0l12.9,7.5h0.1c0.5,0.2,1.1,0.4,1.8,0.4
		c0.7,0,1.3-0.1,1.8-0.4l0,0l0.1-0.1c0.1,0,0.2-0.1,0.3-0.2l27.8-16.1l0,0c0.6-0.3,1-0.8,1-1.4c0-0.5-0.4-1-1-1.4L43,53.6
		c-0.1-0.1-0.2-0.1-0.3-0.2l0,0l0,0c-0.5-0.3-1.2-0.4-1.9-0.4C40,52.9,39.3,53.1,38.8,53.4L38.8,53.4z"/>
	
		<linearGradient id="SVGID_2_" gradientUnits="userSpaceOnUse" x1="998.6672" y1="170" x2="1038.7672" y2="170" gradientTransform="matrix(-1 0 0 1 1052.7672 -104)">
		<stop  offset="0" style="stop-color:#4655A4"/>
		<stop  offset="1" style="stop-color:#6FC8C4"/>
	</linearGradient>
	<polygon class="st12" points="38.8,54.4 54.1,63.3 29.2,77.6 14,68.8 	"/>
	<polygon class="st13" points="38.7,54.9 53.3,63.3 29.4,77.2 14.8,68.7 	"/>
	<path class="st10" d="M18.3,72.8c0.7,0,1.2,0.5,1.2,1.1S18.9,75,18.3,75c-0.7,0-1.2-0.5-1.2-1.1C17.1,73.3,17.6,72.8,18.3,72.8"/>
	<polygon class="st14" points="33.2,50.7 31.9,49.9 36.5,42.1 37.9,42.8 	"/>
	<polygon class="st14" points="36.4,42.1 35.1,41.3 40.2,36.9 41.5,37.6 	"/>
	<polygon class="st14" points="26.9,51.4 25.6,50.6 31.9,49.9 33.3,50.7 	"/>
	<polygon class="st14" points="18.3,66.1 17,65.4 25.6,50.6 27,51.4 	"/>
	<polygon class="st15" points="36.4,42.1 41.5,37.6 40.1,44.2 38.7,43.4 33.5,52.3 27.2,53 19.2,66.7 18.3,66.1 26.9,51.4 
		33.2,50.7 37.8,42.9 	"/>
	<path class="st16" d="M41.8,64.9l-4-2.3l0.1-14.5c1.4,0.6,2.7,1.4,3.9,2.3V64.9z"/>
	<path class="st17" d="M41.8,50.4c-1.3-0.8-2.6-1.5-3.9-2.3l4.2-2.4L46,48L41.8,50.4z"/>
	<path class="st17" d="M46,48v14.5l-4.2,2.4l0.1-14.5C43.2,49.5,44.6,48.7,46,48"/>
	<polygon class="st15" points="36.4,67.9 32.5,65.6 32.6,56.8 36.4,59.1 	"/>
	<polygon class="st18" points="36.4,59.1 32.6,56.8 36.8,54.4 40.7,56.7 	"/>
	<polygon class="st18" points="40.7,56.7 40.6,65.5 36.4,67.9 36.4,59.1 	"/>
	<polygon class="st19" points="31,71 27.2,68.7 27.2,57.5 31.1,59.8 	"/>
	<polygon class="st16" points="31.1,59.8 27.2,57.5 31.5,55.1 35.3,57.4 	"/>
	<polygon class="st16" points="35.3,57.4 35.2,68.6 31,71 31.1,59.8 	"/>
	<polygon class="st14" points="25.7,74 21.8,71.7 21.9,65.5 25.7,67.8 	"/>
	<path class="st15" d="M25.8,67.8c-1.3-0.7-2.6-1.4-3.9-2.3l4.2-2.3l3.8,2.3L25.8,67.8z"/>
	<polygon class="st15" points="29.9,65.5 29.8,71.6 25.6,74 25.6,67.8 	"/>
	<path class="st20" d="M21.4,71.2C21.4,71.2,21.4,71.1,21.4,71.2C21.4,71.1,21.4,71.1,21.4,71.2"/>
	<path class="st20" d="M21.7,70.9C21.7,70.9,21.7,71,21.7,70.9C21.7,71,21.7,70.9,21.7,70.9"/>
</g>
<g>
	<g>
		<g class="st21">
			<g>
				<path class="st22" d="M73.9,13c0.4-0.2,0.8-0.3,1.3-0.2c0.3,0.1,0.7,0.2,1,0.4s0.7,0.4,1,0.7l-1.5,0.9c-0.3-0.3-0.6-0.5-1-0.7
					c-0.3-0.2-0.7-0.3-1-0.4c-0.5-0.1-1,0-1.3,0.2L73.9,13z"/>
				<path class="st22" d="M78.3,12.1c0.4-0.2,1-0.3,1.5-0.2c0.4,0.1,0.8,0.2,1.2,0.5c0.7,0.4,1.3,0.9,1.8,1.6c1,1.2,1.7,2.8,1.9,4.3
					c0.3,0.1,0.6,0.2,1,0.4c0.6,0.3,1.1,0.8,1.6,1.4c1,1.2,1.7,2.9,1.7,4.3c0,1-0.4,1.8-1,2.1l-1.5,0.9c0.6-0.3,1-1.1,1-2.1
					c0-1.4-0.7-3.1-1.7-4.3c-0.5-0.6-1-1.1-1.6-1.4c-0.3-0.2-0.7-0.3-1-0.4c-0.2-1.5-0.9-3-1.9-4.3c-0.5-0.7-1.2-1.2-1.8-1.6
					c-0.4-0.2-0.8-0.4-1.2-0.5c-0.6-0.1-1.1-0.1-1.5,0.2L78.3,12.1z"/>
			</g>
			<g>
				<path class="st23" d="M79.5,13.3c-1.9-1.1-3.5-0.4-3.8,1.5c-0.3-0.3-0.6-0.5-1-0.7c-1.8-1-3.3-0.2-3.3,1.9s1.5,4.6,3.3,5.7
					l9.4,5.4c1.8,1,3.3,0.2,3.3-1.9s-1.5-4.6-3.3-5.7c-0.3-0.2-0.7-0.3-1-0.4C83,16.9,81.4,14.4,79.5,13.3z"/>
			</g>
		</g>
	</g>
	<polygon class="st23" points="81.5,26.7 94.3,34.1 93.8,34.5 81,27.1 	"/>
	<path class="st23" d="M71.2,21c-0.1,0.2-0.2,0.3-0.3,0.5l5.6,3.2l0.6-0.3L71.2,21z"/>
</g>
<g>
	<path class="st24" d="M11.5,55.6c0.9-0.2,2.2-0.5,2.2,0.8c0,0.9-0.8,2-2.1,2.7v0.7L11,60v-0.7c-1.2,0.5-2.1,0.3-2.1-0.8l1.6-0.8
		c0,0.3,0.2,0.4,0.5,0.4v-1.3C10.1,57,8.9,57.3,8.9,56c0-1,0.9-2.1,2.1-2.7v-0.7l0.6-0.3V53c1.2-0.5,2-0.3,2.1,0.7l-1.7,1
		c0-0.3-0.2-0.4-0.5-0.4C11.5,54.3,11.5,55.6,11.5,55.6z M11.5,58c0.4-0.2,0.6-0.5,0.6-0.9c0-0.3-0.2-0.4-0.6-0.3V58 M11,55.7v-1.1
		c-0.3,0.2-0.5,0.5-0.5,0.8C10.4,55.6,10.6,55.7,11,55.7"/>
</g>
<g>
	<path class="st25" d="M31.4,24.8c0.8-0.2,1.7-0.5,1.8,0.8c0,0.9-0.6,2-1.7,2.7V29L31,29.2v-0.7c-1,0.5-1.7,0.3-1.7-0.8l1.3-0.8
		c0,0.3,0.2,0.4,0.4,0.4V26c-0.8,0.2-1.7,0.5-1.7-0.8c0-1,0.7-2.1,1.7-2.7v-0.7l0.5-0.3v0.7c1-0.5,1.6-0.3,1.7,0.7l-1.3,0.8
		c0-0.3-0.2-0.4-0.4-0.4L31.4,24.8z M31.4,27.2c0.3-0.2,0.5-0.5,0.5-0.9c0-0.3-0.2-0.4-0.5-0.3V27.2 M30.9,24.9v-1.1
		c-0.3,0.2-0.4,0.5-0.4,0.8C30.5,24.8,30.7,24.9,30.9,24.9"/>
</g>
<g>
	<path class="st26" d="M18.1,38.7c0.6-0.2,1.4-0.4,1.4,0.6c0,0.7-0.5,1.6-1.4,2.1v0.5l-0.4,0.2v-0.5C17,42,16.5,41.8,16.4,41l1-0.6
		c0,0.3,0.1,0.3,0.3,0.3v-1c-0.6,0.2-1.3,0.4-1.3-0.6c0-0.8,0.6-1.6,1.3-2.1v-0.5l0.4-0.2v0.5c0.8-0.4,1.3-0.2,1.3,0.6l-1,0.6
		c0-0.2-0.1-0.3-0.3-0.3L18.1,38.7z M18.1,40.5c0.2-0.2,0.4-0.4,0.4-0.7c0-0.2-0.1-0.3-0.4-0.2V40.5 M17.8,38.8v-0.9
		c-0.2,0.2-0.3,0.4-0.3,0.6C17.4,38.7,17.6,38.8,17.8,38.8"/>
</g>
<g>
	<path class="st24" d="M13.2,23.2c0.6-0.2,1.4-0.4,1.4,0.6c0,0.7-0.5,1.6-1.4,2.1v0.5l-0.4,0.2v-0.5c-0.8,0.4-1.3,0.2-1.3-0.6l1-0.6
		c0,0.3,0.1,0.3,0.3,0.3v-1c-0.6,0.2-1.3,0.4-1.3-0.6c0-0.8,0.6-1.6,1.3-2.1V21l0.4-0.2v0.5c0.8-0.4,1.3-0.2,1.3,0.6l-1,0.6
		c0-0.2-0.1-0.3-0.3-0.3V23.2z M13.2,25.1c0.2-0.2,0.4-0.4,0.4-0.7c0-0.2-0.1-0.3-0.4-0.2V25.1 M12.9,23.3v-0.9
		c-0.2,0.2-0.3,0.4-0.3,0.6C12.6,23.3,12.7,23.3,12.9,23.3"/>
</g>
<g>
	<path class="st27" d="M70.7,73l9.9-5.7c0.4-0.2,0.9-0.2,1.4,0l23.5,13.6c0.4,0.2,0.4,0.8,0,1l-9.7,5.6c-0.5,0.3-1.1,0.3-1.6,0
		L70.7,74C70.3,73.8,70.3,73.2,70.7,73z"/>
	<path class="st3" d="M70.7,74l23.5,13.5c0.5,0.3,1.1,0.3,1.6,0l9.7-5.6c0.2-0.1,0.3-0.3,0.3-0.5v1.2l0,0l0,0l0,0
		c0,0.2-0.1,0.4-0.3,0.5l-9.7,5.6c-0.5,0.3-1.1,0.3-1.6,0L70.7,75.2c-0.2-0.1-0.3-0.3-0.3-0.5l0,0v-1.2C70.4,73.7,70.5,73.9,70.7,74
		z"/>
	<path class="st3" d="M70.7,74l23.5,13.5c0.2,0.1,0.5,0.2,0.7,0.2v1.2c-0.3,0-0.5-0.1-0.7-0.2L70.7,75.2c-0.2-0.1-0.3-0.3-0.3-0.5
		l0,0v-1.2C70.4,73.7,70.5,73.9,70.7,74z"/>
</g>
<g>
	<g>
		<polygon class="st28" points="59.2,20.3 114.8,52.5 114.8,93.4 59.2,61.1 		"/>
		<polygon class="st3" points="114.8,52.5 116.6,51.4 116.6,92.3 114.8,93.4 		"/>
		<polygon class="st29" points="59.2,20.3 61.1,19.2 116.6,51.4 114.8,52.5 		"/>
	</g>
	<path class="st0" d="M59.2,20.3V61l55.5,32.3V52.4L59.2,20.3z M113.4,91.1L60.6,60.3V22.6l52.9,30.7L113.4,91.1z"/>
</g>
<g>
	<g>
		<g>
			<polygon class="st27" points="119.5,35.6 140.4,47.6 140.4,72.6 119.5,60.5 			"/>
			<polygon class="st30" points="140.4,47.6 142,46.6 142,71.6 140.4,72.6 			"/>
			<polygon class="st4" points="119.5,35.6 121.1,34.6 142,46.6 140.4,47.6 			"/>
		</g>
	</g>
	<polygon class="st31" points="121.2,38.7 138.6,48.7 138.6,69.5 121.2,59.4 	"/>
	<polygon class="st32" points="122.5,52.8 122.5,58.4 125.7,60.2 125.7,54.6 	"/>
	<g>
		<polygon class="st32" points="120.9,57 120.9,57.5 121.9,58.1 121.9,57.6 		"/>
		<polygon class="st27" points="120.9,54.9 120.9,55.5 121.9,56 121.9,55.5 		"/>
		<polygon class="st27" points="120.9,52.8 120.9,53.4 121.9,53.9 121.9,53.4 		"/>
		<polygon class="st27" points="120.9,50.7 120.9,51.3 121.9,51.8 121.9,51.3 		"/>
		<polygon class="st27" points="120.9,48.6 120.9,49.2 121.9,49.8 121.9,49.2 		"/>
		<polygon class="st27" points="120.9,46.5 120.9,47.1 121.9,47.7 121.9,47.1 		"/>
		<polygon class="st27" points="120.9,44.5 120.9,45 121.9,45.6 121.9,45 		"/>
		<polygon class="st27" points="120.9,42.4 120.9,42.9 121.9,43.5 121.9,42.9 		"/>
	</g>
	<polygon class="st28" points="126.4,50.3 126.4,60.7 129.6,62.5 129.6,52.2 	"/>
	<polygon class="st25" points="130.3,54 130.3,62.9 133.5,64.8 133.5,55.8 	"/>
	<polygon class="st25" points="134.2,50.9 134.2,65.2 137.4,67 137.4,52.7 	"/>
</g>
<g>
	<g>
		<g>
			<path class="st3" d="M105.6,110v1.1c0,1.5-2.2,2.7-4.9,2.7c-2.7,0-4.9-1.2-4.9-2.7V110H105.6z"/>
			<path class="st0" d="M95.8,110c0,1.5,2.2,2.7,4.9,2.7c2.7,0,4.9-1.2,4.9-2.7s-2.2-2.7-4.9-2.7S95.8,108.5,95.8,110z"/>
			<path class="st33" d="M96.9,109.9c0,1.1,1.7,2,3.8,2c2.1,0,3.8-0.9,3.8-2s-1.7-2-3.8-2S96.9,108.8,96.9,109.9z"/>
			<path class="st34" d="M102.4,109.1l0.3-0.2l-0.3-0.2l-0.3,0.2c-0.6-0.3-1.4-0.4-1.9-0.1c-0.7,0.4-0.2,0.8,0.1,1.1l-0.7,0.4
				c-0.1-0.1-0.1-0.2,0.1-0.3l-0.8-0.5c-0.5,0.3-0.4,0.8,0.1,1.1l-0.4,0.2l0.3,0.2l0.3-0.2c0.7,0.4,1.5,0.4,1.9,0.1
				c0.7-0.4,0.2-0.8-0.1-1.1l0.7-0.4c0.1,0.1,0.1,0.2-0.1,0.3l0.8,0.5C103,109.9,102.9,109.5,102.4,109.1z M100.5,110.6
				c-0.2,0.1-0.4,0.1-0.6,0l0.6-0.4C100.6,110.4,100.6,110.5,100.5,110.6z M101,109.7c-0.1-0.1-0.1-0.2,0-0.3c0.2-0.1,0.4-0.1,0.5,0
				L101,109.7z"/>
		</g>
		<g>
			<path class="st3" d="M105.6,108.6v1.1c0,1.5-2.2,2.7-4.9,2.7c-2.7,0-4.9-1.2-4.9-2.7v-1.1H105.6z"/>
			<path class="st0" d="M95.8,108.6c0,1.5,2.2,2.7,4.9,2.7c2.7,0,4.9-1.2,4.9-2.7s-2.2-2.7-4.9-2.7S95.8,107.1,95.8,108.6z"/>
			<path class="st33" d="M96.9,108.5c0,1.1,1.7,2,3.8,2c2.1,0,3.8-0.9,3.8-2s-1.7-2-3.8-2S96.9,107.4,96.9,108.5z"/>
			<path class="st34" d="M102.4,107.7l0.3-0.2l-0.3-0.2l-0.3,0.2c-0.6-0.3-1.4-0.4-1.9-0.1c-0.7,0.4-0.2,0.8,0.1,1.1l-0.7,0.4
				c-0.1-0.1-0.1-0.2,0.1-0.3l-0.8-0.5c-0.5,0.3-0.4,0.8,0.1,1.1l-0.4,0.2l0.3,0.2l0.3-0.2c0.7,0.4,1.5,0.4,1.9,0.1
				c0.7-0.4,0.2-0.8-0.1-1.1l0.7-0.4c0.1,0.1,0.1,0.2-0.1,0.3l0.8,0.5C103,108.5,102.9,108.1,102.4,107.7z M100.5,109.2
				c-0.2,0.1-0.4,0.1-0.6,0l0.6-0.4C100.6,109,100.6,109.1,100.5,109.2z M101,108.2c-0.1-0.1-0.1-0.2,0-0.3c0.2-0.1,0.4-0.1,0.5,0
				L101,108.2z"/>
		</g>
		<g>
			<path class="st3" d="M105.6,107.2v1.1c0,1.5-2.2,2.7-4.9,2.7c-2.7,0-4.9-1.2-4.9-2.7v-1.1H105.6z"/>
			<path class="st0" d="M95.8,107.2c0,1.5,2.2,2.7,4.9,2.7c2.7,0,4.9-1.2,4.9-2.7s-2.2-2.7-4.9-2.7S95.8,105.7,95.8,107.2z"/>
			<path class="st33" d="M96.9,107.1c0,1.1,1.7,2,3.8,2c2.1,0,3.8-0.9,3.8-2s-1.7-2-3.8-2S96.9,106,96.9,107.1z"/>
			<path class="st34" d="M102.4,106.3l0.3-0.2l-0.3-0.2l-0.3,0.2c-0.6-0.3-1.4-0.4-1.9-0.1c-0.7,0.4-0.2,0.8,0.1,1.1l-0.7,0.4
				c-0.1-0.1-0.1-0.2,0.1-0.3l-0.8-0.5c-0.5,0.3-0.4,0.8,0.1,1.1l-0.4,0.2l0.3,0.2l0.3-0.2c0.7,0.4,1.5,0.4,1.9,0.1
				c0.7-0.4,0.2-0.8-0.1-1.1l0.7-0.4c0.1,0.1,0.1,0.2-0.1,0.3l0.8,0.5C103,107.1,102.9,106.7,102.4,106.3z M100.5,107.8
				c-0.2,0.1-0.4,0.1-0.6,0l0.6-0.4C100.6,107.6,100.6,107.7,100.5,107.8z M101,106.8c-0.1-0.1-0.1-0.2,0-0.3c0.2-0.1,0.4-0.1,0.5,0
				L101,106.8z"/>
		</g>
		<g>
			<path class="st3" d="M105.6,105.8v1.1c0,1.5-2.2,2.7-4.9,2.7c-2.7,0-4.9-1.2-4.9-2.7v-1.1H105.6z"/>
			<path class="st29" d="M95.8,105.8c0,1.5,2.2,2.7,4.9,2.7c2.7,0,4.9-1.2,4.9-2.7s-2.2-2.7-4.9-2.7C98,103.1,95.8,104.3,95.8,105.8
				z"/>
			<path class="st3" d="M96.9,105.7c0,1.1,1.7,2,3.8,2c2.1,0,3.8-0.9,3.8-2s-1.7-2-3.8-2S96.9,104.6,96.9,105.7z"/>
			<path class="st26" d="M102.4,104.9l0.3-0.2l-0.3-0.2l-0.3,0.2c-0.6-0.3-1.4-0.4-1.9-0.1c-0.7,0.4-0.2,0.8,0.1,1.1l-0.7,0.4
				c-0.1-0.1-0.1-0.2,0.1-0.3l-0.8-0.5c-0.5,0.3-0.4,0.8,0.1,1.1l-0.4,0.2l0.3,0.2l0.3-0.2c0.7,0.4,1.5,0.4,1.9,0.1
				c0.7-0.4,0.2-0.8-0.1-1.1l0.7-0.4c0.1,0.1,0.1,0.2-0.1,0.3l0.8,0.5C103,105.7,102.9,105.3,102.4,104.9z M100.5,106.4
				c-0.2,0.1-0.4,0.1-0.6,0l0.6-0.4C100.6,106.2,100.6,106.3,100.5,106.4z M101,105.4c-0.1-0.1-0.1-0.2,0-0.3c0.2-0.1,0.4-0.1,0.5,0
				L101,105.4z"/>
			<path class="st25" d="M102.4,104.6l0.3-0.2l-0.3-0.2l-0.3,0.2c-0.6-0.3-1.4-0.4-1.9-0.1c-0.7,0.4-0.2,0.8,0.1,1.1l-0.7,0.4
				c-0.1-0.1-0.1-0.2,0.1-0.3l-0.8-0.5c-0.5,0.3-0.4,0.8,0.1,1.1l-0.4,0.2l0.3,0.2l0.3-0.2c0.7,0.4,1.5,0.4,1.9,0.1
				c0.7-0.4,0.2-0.8-0.1-1.1l0.7-0.4c0.1,0.1,0.1,0.2-0.1,0.3l0.8,0.5C103,105.4,102.9,105,102.4,104.6z M100.5,106.1
				c-0.2,0.1-0.4,0.1-0.6,0l0.6-0.4C100.6,105.9,100.6,106,100.5,106.1z M101,105.1c-0.1-0.1-0.1-0.2,0-0.3c0.2-0.1,0.4-0.1,0.5,0
				L101,105.1z"/>
		</g>
	</g>
	<g>
		<g>
			<path class="st33" d="M88.1,115.1c0,1.1,1.7,2,3.8,2c2.1,0,3.8-0.9,3.8-2s-1.7-2-3.8-2C89.8,113.1,88.1,114,88.1,115.1z"/>
			<path class="st34" d="M93.5,114.3l0.3-0.2l-0.3-0.2l-0.3,0.2c-0.6-0.3-1.4-0.4-1.9-0.1c-0.7,0.4-0.2,0.8,0.1,1.1l-0.7,0.4
				c-0.1-0.1-0.1-0.2,0.1-0.3l-0.8-0.5c-0.5,0.3-0.4,0.8,0.1,1.1l-0.4,0.2l0.3,0.2l0.3-0.2c0.7,0.4,1.5,0.4,1.9,0.1
				c0.7-0.4,0.2-0.8-0.1-1.1l0.7-0.4c0.1,0.1,0.1,0.2-0.1,0.3l0.8,0.5C94.2,115,94.1,114.6,93.5,114.3z M91.6,115.7
				c-0.2,0.1-0.4,0.1-0.6,0l0.6-0.4C91.8,115.5,91.8,115.6,91.6,115.7z M92.1,114.8c-0.1-0.1-0.1-0.2,0-0.3c0.2-0.1,0.4-0.1,0.5,0
				L92.1,114.8z"/>
		</g>
		<g>
			<path class="st3" d="M96.8,113.7v1.1c0,1.5-2.2,2.7-4.9,2.7c-2.7,0-4.9-1.2-4.9-2.7v-1.1H96.8z"/>
			<path class="st0" d="M87,113.7c0,1.5,2.2,2.7,4.9,2.7c2.7,0,4.9-1.2,4.9-2.7s-2.2-2.7-4.9-2.7S87,112.2,87,113.7z"/>
			<path class="st33" d="M88.1,113.7c0,1.1,1.7,2,3.8,2c2.1,0,3.8-0.9,3.8-2s-1.7-2-3.8-2C89.8,111.7,88.1,112.6,88.1,113.7z"/>
			<path class="st34" d="M93.5,112.9l0.3-0.2l-0.3-0.2l-0.3,0.2c-0.6-0.3-1.4-0.4-1.9-0.1c-0.7,0.4-0.2,0.8,0.1,1.1l-0.7,0.4
				c-0.1-0.1-0.1-0.2,0.1-0.3l-0.8-0.5c-0.5,0.3-0.4,0.8,0.1,1.1l-0.4,0.2l0.3,0.2l0.3-0.2c0.7,0.4,1.5,0.4,1.9,0.1
				c0.7-0.4,0.2-0.8-0.1-1.1l0.7-0.4c0.1,0.1,0.1,0.2-0.1,0.3l0.8,0.5C94.2,113.6,94.1,113.2,93.5,112.9z M91.6,114.3
				c-0.2,0.1-0.4,0.1-0.6,0l0.6-0.4C91.8,114.1,91.8,114.2,91.6,114.3z M92.1,113.4c-0.1-0.1-0.1-0.2,0-0.3c0.2-0.1,0.4-0.1,0.5,0
				L92.1,113.4z"/>
		</g>
		<g>
			<path class="st3" d="M96.8,112.3v1.1c0,1.5-2.2,2.7-4.9,2.7c-2.7,0-4.9-1.2-4.9-2.7v-1.1H96.8z"/>
			<path class="st0" d="M87,112.3c0,1.5,2.2,2.7,4.9,2.7c2.7,0,4.9-1.2,4.9-2.7s-2.2-2.7-4.9-2.7C89.2,109.6,87,110.8,87,112.3z"/>
			<path class="st33" d="M88.1,112.3c0,1.1,1.7,2,3.8,2c2.1,0,3.8-0.9,3.8-2s-1.7-2-3.8-2C89.8,110.3,88.1,111.2,88.1,112.3z"/>
			<path class="st34" d="M93.5,111.5l0.3-0.2l-0.3-0.2l-0.3,0.2c-0.6-0.3-1.4-0.4-1.9-0.1c-0.7,0.4-0.2,0.8,0.1,1.1l-0.7,0.4
				c-0.1-0.1-0.1-0.2,0.1-0.3l-0.8-0.5c-0.5,0.3-0.4,0.8,0.1,1.1l-0.4,0.2l0.3,0.2l0.3-0.2c0.7,0.4,1.5,0.4,1.9,0.1
				c0.7-0.4,0.2-0.8-0.1-1.1l0.7-0.4c0.1,0.1,0.1,0.2-0.1,0.3l0.8,0.5C94.2,112.2,94.1,111.8,93.5,111.5z M91.6,112.9
				c-0.2,0.1-0.4,0.1-0.6,0l0.6-0.4C91.8,112.7,91.8,112.8,91.6,112.9z M92.1,112c-0.1-0.1-0.1-0.2,0-0.3c0.2-0.1,0.4-0.1,0.5,0
				L92.1,112z"/>
		</g>
		<g>
			<path class="st3" d="M96.8,110.9v1.1c0,1.5-2.2,2.7-4.9,2.7c-2.7,0-4.9-1.2-4.9-2.7v-1.1H96.8z"/>
			<path class="st29" d="M87,110.9c0,1.5,2.2,2.7,4.9,2.7c2.7,0,4.9-1.2,4.9-2.7s-2.2-2.7-4.9-2.7C89.2,108.2,87,109.4,87,110.9z"/>
			<path class="st3" d="M88.1,110.9c0,1.1,1.7,2,3.8,2c2.1,0,3.8-0.9,3.8-2s-1.7-2-3.8-2C89.8,108.9,88.1,109.8,88.1,110.9z"/>
			<path class="st26" d="M93.5,110.1l0.3-0.2l-0.3-0.2l-0.3,0.2c-0.6-0.3-1.4-0.4-1.9-0.1c-0.7,0.4-0.2,0.8,0.1,1.1l-0.7,0.4
				c-0.1-0.1-0.1-0.2,0.1-0.3l-0.8-0.5c-0.5,0.3-0.4,0.8,0.1,1.1l-0.4,0.2L90,112l0.3-0.2c0.7,0.4,1.5,0.4,1.9,0.1
				c0.7-0.4,0.2-0.8-0.1-1.1l0.7-0.4c0.1,0.1,0.1,0.2-0.1,0.3l0.8,0.5C94.2,110.8,94.1,110.4,93.5,110.1z M91.6,111.5
				c-0.2,0.1-0.4,0.1-0.6,0l0.6-0.4C91.8,111.3,91.8,111.4,91.6,111.5z M92.1,110.6c-0.1-0.1-0.1-0.2,0-0.3c0.2-0.1,0.4-0.1,0.5,0
				L92.1,110.6z"/>
			<path class="st25" d="M93.5,109.8l0.3-0.2l-0.3-0.2l-0.3,0.2c-0.6-0.3-1.4-0.4-1.9-0.1c-0.7,0.4-0.2,0.8,0.1,1.1l-0.7,0.4
				c-0.1-0.1-0.1-0.2,0.1-0.3l-0.8-0.5c-0.5,0.3-0.4,0.8,0.1,1.1l-0.4,0.2l0.3,0.2l0.3-0.2c0.7,0.4,1.5,0.4,1.9,0.1
				c0.7-0.4,0.2-0.8-0.1-1.1l0.7-0.4c0.1,0.1,0.1,0.2-0.1,0.3l0.8,0.5C94.2,110.5,94.1,110.1,93.5,109.8z M91.6,111.2
				c-0.2,0.1-0.4,0.1-0.6,0l0.6-0.4C91.8,111,91.8,111.1,91.6,111.2z M92.1,110.3c-0.1-0.1-0.1-0.2,0-0.3c0.2-0.1,0.4-0.1,0.5,0
				L92.1,110.3z"/>
		</g>
	</g>
	<g>
		<g>
			<path class="st34" d="M83.2,121c-0.2,0.1-0.4,0.1-0.6,0l0.6-0.4C83.3,120.8,83.4,120.9,83.2,121z M83.7,120
				c-0.1-0.1-0.1-0.2,0-0.3c0.2-0.1,0.4-0.1,0.5,0L83.7,120z"/>
		</g>
		<g>
			<path class="st33" d="M79.7,118.9c0,1.1,1.7,2,3.8,2c2.1,0,3.8-0.9,3.8-2s-1.7-2-3.8-2C81.4,116.9,79.7,117.8,79.7,118.9z"/>
			<path class="st34" d="M85.1,118.1l0.3-0.2l-0.3-0.2l-0.3,0.2c-0.6-0.3-1.4-0.4-1.9-0.1c-0.7,0.4-0.2,0.8,0.1,1.1l-0.7,0.4
				c-0.1-0.1-0.1-0.2,0.1-0.3l-0.8-0.5c-0.5,0.3-0.4,0.8,0.1,1.1l-0.4,0.2l0.3,0.2l0.3-0.2c0.7,0.4,1.5,0.4,1.9,0.1
				c0.7-0.4,0.2-0.8-0.1-1.1l0.7-0.4c0.1,0.1,0.1,0.2-0.1,0.3l0.8,0.5C85.7,118.9,85.7,118.5,85.1,118.1z M83.2,119.6
				c-0.2,0.1-0.4,0.1-0.6,0l0.6-0.4C83.3,119.4,83.4,119.5,83.2,119.6z M83.7,118.6c-0.1-0.1-0.1-0.2,0-0.3c0.2-0.1,0.4-0.1,0.5,0
				L83.7,118.6z"/>
		</g>
		<g>
			<path class="st3" d="M88.4,117.6v1.1c0,1.5-2.2,2.7-4.9,2.7c-2.7,0-4.9-1.2-4.9-2.7v-1.1H88.4z"/>
			<path class="st0" d="M78.5,117.6c0,1.5,2.2,2.7,4.9,2.7c2.7,0,4.9-1.2,4.9-2.7s-2.2-2.7-4.9-2.7S78.5,116.1,78.5,117.6z"/>
			<path class="st33" d="M79.7,117.5c0,1.1,1.7,2,3.8,2c2.1,0,3.8-0.9,3.8-2s-1.7-2-3.8-2C81.4,115.5,79.7,116.4,79.7,117.5z"/>
			<path class="st34" d="M85.1,116.7l0.3-0.2l-0.3-0.2l-0.3,0.2c-0.6-0.3-1.4-0.4-1.9-0.1c-0.7,0.4-0.2,0.8,0.1,1.1l-0.7,0.4
				c-0.1-0.1-0.1-0.2,0.1-0.3l-0.8-0.5c-0.5,0.3-0.4,0.8,0.1,1.1l-0.4,0.2l0.3,0.2l0.3-0.2c0.7,0.4,1.5,0.4,1.9,0.1
				c0.7-0.4,0.2-0.8-0.1-1.1l0.7-0.4c0.1,0.1,0.1,0.2-0.1,0.3l0.8,0.5C85.7,117.5,85.7,117.1,85.1,116.7z M83.2,118.1
				c-0.2,0.1-0.4,0.1-0.6,0l0.6-0.4C83.3,117.9,83.4,118.1,83.2,118.1z M83.7,117.2c-0.1-0.1-0.1-0.2,0-0.3c0.2-0.1,0.4-0.1,0.5,0
				L83.7,117.2z"/>
		</g>
		<g>
			<path class="st3" d="M88.4,116.2v1.1c0,1.5-2.2,2.7-4.9,2.7c-2.7,0-4.9-1.2-4.9-2.7v-1.1H88.4z"/>
			<path class="st29" d="M78.5,116.2c0,1.5,2.2,2.7,4.9,2.7c2.7,0,4.9-1.2,4.9-2.7s-2.2-2.7-4.9-2.7S78.5,114.7,78.5,116.2z"/>
			<path class="st3" d="M79.7,116.1c0,1.1,1.7,2,3.8,2c2.1,0,3.8-0.9,3.8-2s-1.7-2-3.8-2C81.4,114.1,79.7,115,79.7,116.1z"/>
			<path class="st26" d="M85.1,115.3l0.3-0.2l-0.3-0.2l-0.3,0.2c-0.6-0.3-1.4-0.4-1.9-0.1c-0.7,0.4-0.2,0.8,0.1,1.1l-0.7,0.4
				c-0.1-0.1-0.1-0.2,0.1-0.3l-0.8-0.5c-0.5,0.3-0.4,0.8,0.1,1.1l-0.4,0.2l0.3,0.2l0.3-0.2c0.7,0.4,1.5,0.4,1.9,0.1
				c0.7-0.4,0.2-0.8-0.1-1.1l0.7-0.4c0.1,0.1,0.1,0.2-0.1,0.3l0.8,0.5C85.7,116.1,85.7,115.7,85.1,115.3z M83.2,116.7
				c-0.2,0.1-0.4,0.1-0.6,0l0.6-0.4C83.3,116.5,83.4,116.7,83.2,116.7z M83.7,115.8c-0.1-0.1-0.1-0.2,0-0.3c0.2-0.1,0.4-0.1,0.5,0
				L83.7,115.8z"/>
			<path class="st25" d="M85.1,115l0.3-0.2l-0.3-0.2l-0.3,0.2c-0.6-0.3-1.4-0.4-1.9-0.1c-0.7,0.4-0.2,0.8,0.1,1.1l-0.7,0.4
				c-0.1-0.1-0.1-0.2,0.1-0.3l-0.8-0.5c-0.5,0.3-0.4,0.8,0.1,1.1l-0.4,0.2l0.3,0.2l0.3-0.2c0.7,0.4,1.5,0.4,1.9,0.1
				c0.7-0.4,0.2-0.8-0.1-1.1l0.7-0.4c0.1,0.1,0.1,0.2-0.1,0.3l0.8,0.5C85.7,115.8,85.7,115.4,85.1,115z M83.2,116.4
				c-0.2,0.1-0.4,0.1-0.6,0l0.6-0.4C83.3,116.2,83.4,116.4,83.2,116.4z M83.7,115.5c-0.1-0.1-0.1-0.2,0-0.3c0.2-0.1,0.4-0.1,0.5,0
				L83.7,115.5z"/>
		</g>
	</g>
	<g>
		<g>
			<path class="st34" d="M74.5,124.1c-0.2,0.1-0.4,0.1-0.6,0l0.6-0.4C74.6,123.8,74.7,124,74.5,124.1z M75,123.1
				c-0.1-0.1-0.1-0.2,0-0.3c0.2-0.1,0.4-0.1,0.5,0L75,123.1z"/>
		</g>
		<g>
			<path class="st33" d="M71,122c0,1.1,1.7,2,3.8,2c2.1,0,3.8-0.9,3.8-2s-1.7-2-3.8-2S71,120.9,71,122z"/>
			<path class="st34" d="M76.4,121.2l0.3-0.2l-0.3-0.2l-0.3,0.2c-0.6-0.3-1.4-0.4-1.9-0.1c-0.7,0.4-0.2,0.8,0.1,1.1l-0.7,0.4
				c-0.1-0.1-0.1-0.2,0.1-0.3l-0.8-0.5c-0.5,0.3-0.4,0.8,0.1,1.1l-0.4,0.2l0.3,0.2l0.3-0.2c0.7,0.4,1.5,0.4,1.9,0.1
				c0.7-0.4,0.2-0.8-0.1-1.1l0.7-0.4c0.1,0.1,0.1,0.2-0.1,0.3l0.8,0.5C77,122,77,121.6,76.4,121.2z M74.5,122.6
				c-0.2,0.1-0.4,0.1-0.6,0l0.6-0.4C74.6,122.4,74.7,122.6,74.5,122.6z M75,121.7c-0.1-0.1-0.1-0.2,0-0.3c0.2-0.1,0.4-0.1,0.5,0
				L75,121.7z"/>
		</g>
		<g>
			<path class="st3" d="M79.7,120.7v1.1c0,1.5-2.2,2.7-4.9,2.7c-2.7,0-4.9-1.2-4.9-2.7v-1.1H79.7z"/>
			<path class="st29" d="M69.8,120.7c0,1.5,2.2,2.7,4.9,2.7c2.7,0,4.9-1.2,4.9-2.7s-2.2-2.7-4.9-2.7S69.8,119.2,69.8,120.7z"/>
			<path class="st3" d="M71,120.6c0,1.1,1.7,2,3.8,2c2.1,0,3.8-0.9,3.8-2s-1.7-2-3.8-2S71,119.5,71,120.6z"/>
			<path class="st26" d="M76.4,119.8l0.3-0.2l-0.3-0.2l-0.3,0.2c-0.6-0.3-1.4-0.4-1.9-0.1c-0.7,0.4-0.2,0.8,0.1,1.1l-0.7,0.4
				c-0.1-0.1-0.1-0.2,0.1-0.3l-0.8-0.5c-0.5,0.3-0.4,0.8,0.1,1.1l-0.4,0.2l0.3,0.2l0.3-0.2c0.7,0.4,1.5,0.4,1.9,0.1
				c0.7-0.4,0.2-0.8-0.1-1.1l0.7-0.4c0.1,0.1,0.1,0.2-0.1,0.3l0.8,0.5C77,120.6,77,120.2,76.4,119.8z M74.5,121.2
				c-0.2,0.1-0.4,0.1-0.6,0l0.6-0.4C74.6,121,74.7,121.2,74.5,121.2z M75,120.3c-0.1-0.1-0.1-0.2,0-0.3c0.2-0.1,0.4-0.1,0.5,0
				L75,120.3z"/>
			<path class="st25" d="M76.4,119.5l0.3-0.2l-0.3-0.2l-0.3,0.2c-0.6-0.3-1.4-0.4-1.9-0.1c-0.7,0.4-0.2,0.8,0.1,1.1l-0.7,0.4
				c-0.1-0.1-0.1-0.2,0.1-0.3L73,120c-0.5,0.3-0.4,0.8,0.1,1.1l-0.4,0.2l0.3,0.2l0.3-0.2c0.7,0.4,1.5,0.4,1.9,0.1
				c0.7-0.4,0.2-0.8-0.1-1.1l0.7-0.4c0.1,0.1,0.1,0.2-0.1,0.3l0.8,0.5C77,120.3,77,119.9,76.4,119.5z M74.5,120.9
				c-0.2,0.1-0.4,0.1-0.6,0l0.6-0.4C74.6,120.7,74.7,120.9,74.5,120.9z M75,120c-0.1-0.1-0.1-0.2,0-0.3c0.2-0.1,0.4-0.1,0.5,0
				L75,120z"/>
		</g>
	</g>
</g>
<g>
	<polygon class="st27" points="133.1,87.3 126.8,83.7 126.8,91 133.1,94.7 	"/>
	<polygon class="st4" points="133.4,79.9 126.8,83.7 133.1,87.3 139.7,83.6 	"/>
	<polygon class="st30" points="139.7,83.6 133.1,87.3 133.1,94.7 139.7,90.9 	"/>
</g>
<g>
	<g>
		<g>
			<g>
				<polygon class="st27" points="96.6,12.5 115.2,23.3 115.2,45.6 96.6,34.8 				"/>
				<polygon class="st30" points="115.2,23.3 116.6,22.4 116.6,44.8 115.2,45.6 				"/>
				<polygon class="st4" points="96.6,12.5 98,11.7 116.6,22.4 115.2,23.3 				"/>
			</g>
		</g>
		<polygon class="st31" points="98.1,15.3 113.7,24.2 113.7,42.8 98.1,33.8 		"/>
		<g>
			<polygon class="st27" points="97.8,31.7 97.8,32.2 98.7,32.7 98.7,32.2 			"/>
			<polygon class="st27" points="97.8,29.8 97.8,30.3 98.7,30.8 98.7,30.3 			"/>
			<polygon class="st27" points="97.8,27.9 97.8,28.4 98.7,28.9 98.7,28.4 			"/>
			<polygon class="st27" points="97.8,26.1 97.8,26.6 98.7,27.1 98.7,26.6 			"/>
			<polygon class="st27" points="97.8,24.2 97.8,24.7 98.7,25.2 98.7,24.7 			"/>
			<polygon class="st27" points="97.8,22.3 97.8,22.8 98.7,23.3 98.7,22.8 			"/>
			<polygon class="st27" points="97.8,20.5 97.8,21 98.7,21.5 98.7,21 			"/>
			<polygon class="st27" points="97.8,18.6 97.8,19.1 98.7,19.6 98.7,19.1 			"/>
		</g>
	</g>
	<path class="st25" d="M110.9,27.1c-0.6-0.3-1.1-0.1-1.1,0.6c0,0.3,0.1,0.7,0.3,1l-4.3,4.1c-0.2-0.2-0.4-0.4-0.6-0.5
		c-0.3-0.2-0.6-0.2-0.8-0.1l-2.3-3.1c0-0.1,0-0.2,0-0.3c0-0.7-0.5-1.5-1.1-1.8s-1.1-0.1-1.1,0.6s0.5,1.5,1.1,1.8
		c0.3,0.2,0.5,0.2,0.7,0.1l2.4,3.2v0.1c0,0.7,0.5,1.5,1.1,1.8s1.1,0.1,1.1-0.6c0-0.3-0.1-0.6-0.2-0.9l4.3-4.1
		c0.1,0.2,0.3,0.3,0.5,0.4c0.6,0.3,1.1,0.1,1.1-0.6C112,28.3,111.5,27.5,110.9,27.1z"/>
</g>
<g>
	<g>
		<g>
			<g>
				<polygon class="st27" points="56.2,20.1 43.7,27.2 43.7,42.1 56.2,34.9 				"/>
				<polygon class="st30" points="43.7,27.2 42.8,26.7 42.8,41.6 43.7,42.1 				"/>
				<polygon class="st4" points="56.2,20.1 55.2,19.5 42.8,26.7 43.7,27.2 				"/>
			</g>
		</g>
		<polygon class="st31" points="55.1,22 44.8,27.9 44.8,40.3 55.1,34.3 		"/>
		<g>
			<polygon class="st27" points="45.2,38.6 45.2,38.9 44.6,39.3 44.6,38.9 			"/>
			<polygon class="st27" points="45.2,37.4 45.2,37.7 44.6,38 44.6,37.7 			"/>
			<polygon class="st27" points="45.2,36.1 45.2,36.4 44.6,36.8 44.6,36.5 			"/>
			<polygon class="st27" points="45.2,34.9 45.2,35.2 44.6,35.5 44.6,35.2 			"/>
			<polygon class="st27" points="45.2,33.6 45.2,34 44.6,34.3 44.6,34 			"/>
			<polygon class="st27" points="45.2,32.4 45.2,32.7 44.6,33 44.6,32.7 			"/>
			<polygon class="st27" points="45.2,31.1 45.2,31.5 44.6,31.8 44.6,31.5 			"/>
			<polygon class="st27" points="45.2,29.9 45.2,30.2 44.6,30.6 44.6,30.2 			"/>
		</g>
	</g>
	<polygon class="st25" points="45.8,38.6 54.4,33.6 54.4,26.4 	"/>
	<polygon class="st25" points="47.1,27.6 47.1,30 45.8,30.8 45.8,28.4 	"/>
	<polygon class="st28" points="45.8,38.6 54.4,26.4 54.4,23.4 	"/>
</g>
<polygon class="st31" points="70.4,30.1 61.9,25.2 61.9,26 70.4,30.9 "/>
<polygon class="st31" points="70.4,31.5 61.9,26.6 61.9,27.4 70.4,32.3 "/>
<g>
	<polygon class="st31" points="112,85.9 103.6,80.9 103.6,81.8 112,86.7 	"/>
	<polygon class="st31" points="112,87.2 103.6,82.3 103.6,83.2 112,88.1 	"/>
</g>
<g>
	<polygon class="st31" points="102.3,80.2 93.8,75.3 93.8,76.1 102.3,81 	"/>
	<polygon class="st31" points="102.3,81.6 93.8,76.7 93.8,77.5 102.3,82.4 	"/>
</g>
<g>
	<polygon class="st31" points="92.6,74.6 84.1,69.7 84.1,70.5 92.6,75.4 	"/>
	<polygon class="st31" points="92.6,76 84.1,71.1 84.1,71.9 92.6,76.8 	"/>
</g>
<g>
	<polygon class="st31" points="82.8,68.9 74.3,64 74.3,64.9 82.8,69.8 	"/>
	<polygon class="st31" points="82.8,70.3 74.3,65.4 74.3,66.2 82.8,71.1 	"/>
</g>
<polygon class="st31" points="70.4,32.9 61.9,28 61.9,28.8 70.4,33.7 "/>
<polygon class="st31" points="70.4,34.3 61.9,29.4 61.9,30.2 70.4,35.1 "/>
<polygon class="st31" points="70.4,35.6 61.9,30.7 61.9,31.6 70.4,36.5 "/>
<polygon class="st31" points="70.4,37 61.9,32.1 61.9,32.9 70.4,37.9 "/>
<polygon class="st31" points="70.4,38.4 61.9,33.5 61.9,34.3 70.4,39.2 "/>
<polygon class="st31" points="70.4,39.8 61.9,34.9 61.9,35.7 70.4,40.6 "/>
<polygon class="st31" points="70.4,41.2 61.9,36.3 61.9,37.1 70.4,42 "/>
<polygon class="st31" points="70.4,42.6 61.9,37.7 61.9,38.5 70.4,43.4 "/>
<polygon class="st31" points="70.4,44 61.9,39.1 61.9,39.9 70.4,44.8 "/>
<polygon class="st31" points="70.4,45.4 61.9,40.4 61.9,41.3 70.4,46.2 "/>
<polygon class="st31" points="70.4,46.7 61.9,41.8 61.9,42.7 70.4,47.6 "/>
<polygon class="st31" points="70.4,48.1 61.9,43.2 61.9,44 70.4,48.9 "/>
<polygon class="st31" points="70.4,49.5 61.9,44.6 61.9,45.4 70.4,50.3 "/>
<polygon class="st31" points="70.4,50.9 61.9,46 61.9,46.8 70.4,51.7 "/>
<polygon class="st31" points="70.4,52.3 61.9,47.4 61.9,48.2 70.4,53.1 "/>
<g>
	<polygon class="st31" points="71.9,31 112,54.3 112,83.8 71.9,60.4 	"/>
	<polygon class="st27" points="72.9,58.8 72.9,59.1 110.8,81.1 110.8,80.8 	"/>
	<polygon class="st27" points="72.9,55.3 72.9,55.7 110.8,77.7 110.8,77.4 	"/>
	<polygon class="st27" points="72.9,51.9 72.9,52.2 110.8,74.2 110.8,73.9 	"/>
	<polygon class="st27" points="72.9,48.4 72.9,48.8 110.8,70.8 110.8,70.5 	"/>
	<polygon class="st27" points="72.9,45 72.9,45.3 110.8,67.3 110.8,67 	"/>
	<polygon class="st27" points="72.9,41.5 72.9,41.9 110.8,63.9 110.8,63.5 	"/>
	<polygon class="st27" points="72.9,38.1 72.9,38.4 110.8,60.4 110.8,60.1 	"/>
	<polygon class="st27" points="72.9,34.8 72.9,58.8 73.2,59 73.2,35 	"/>
	<polygon class="st27" points="76.6,36.9 76.6,60.9 76.9,61.1 76.9,37.1 	"/>
	<polygon class="st27" points="80.2,39.1 80.2,63 80.5,63.2 80.5,39.2 	"/>
	<polygon class="st27" points="83.9,41.2 83.9,65.2 84.2,65.3 84.2,41.4 	"/>
	<polygon class="st27" points="87.5,43.3 87.5,67.3 87.8,67.5 87.8,43.5 	"/>
	<polygon class="st27" points="91.1,45.4 91.1,69.4 91.4,69.6 91.4,45.6 	"/>
	<polygon class="st27" points="94.8,47.6 94.8,71.5 95.1,71.7 95.1,47.7 	"/>
	<polygon class="st27" points="98.4,49.7 98.4,73.7 98.7,73.8 98.7,49.9 	"/>
	<polygon class="st27" points="102,51.8 102,75.8 102.3,76 102.3,52 	"/>
	<polygon class="st27" points="105.7,53.9 105.7,77.9 106,78.1 106,54.1 	"/>
	<polygon class="st27" points="109.3,56.1 109.3,80 109.6,80.2 109.6,56.2 	"/>
	<g>
		<path class="st28" d="M80.4,55.5c0.4,0.2,0.7,0.8,0.7,1.3s-0.3,0.7-0.7,0.4c-0.4-0.2-0.7-0.8-0.7-1.3C79.6,55.4,80,55.3,80.4,55.5
			z"/>
	</g>
	<g>
		<path class="st25" d="M80.4,52c0.4,0.2,0.7,0.8,0.7,1.3s-0.3,0.7-0.7,0.4c-0.4-0.2-0.7-0.8-0.7-1.3C79.6,51.9,80,51.7,80.4,52z"/>
	</g>
	<g>
		<path class="st25" d="M87.6,59.9c0.4,0.2,0.7,0.8,0.7,1.3s-0.3,0.7-0.7,0.4c-0.4-0.2-0.7-0.8-0.7-1.3S87.2,59.6,87.6,59.9z"/>
	</g>
	<g>
		<path class="st25" d="M91.3,55c0.4,0.2,0.7,0.8,0.7,1.3s-0.3,0.7-0.7,0.4c-0.4-0.2-0.7-0.8-0.7-1.3C90.5,54.9,90.9,54.7,91.3,55z"
			/>
	</g>
	<g>
		<path class="st25" d="M94.9,53.6c0.4,0.2,0.7,0.8,0.7,1.3s-0.3,0.7-0.7,0.4c-0.4-0.2-0.7-0.8-0.7-1.3
			C94.2,53.5,94.5,53.4,94.9,53.6z"/>
	</g>
	<g>
		<path class="st25" d="M102.2,61.4c0.4,0.2,0.7,0.8,0.7,1.3s-0.3,0.7-0.7,0.4c-0.4-0.2-0.7-0.8-0.7-1.3S101.8,61.1,102.2,61.4z"/>
	</g>
	<g>
		<path class="st25" d="M98.6,66.1c0.4,0.2,0.7,0.8,0.7,1.3s-0.3,0.7-0.7,0.4c-0.4-0.2-0.7-0.8-0.7-1.3
			C97.8,66.1,98.2,65.9,98.6,66.1z"/>
	</g>
	<g>
		<path class="st25" d="M105.8,59.7c0.4,0.2,0.7,0.8,0.7,1.3s-0.3,0.7-0.7,0.4c-0.4-0.2-0.7-0.8-0.7-1.3
			C105.1,59.7,105.4,59.5,105.8,59.7z"/>
	</g>
	<g>
		<path class="st28" d="M84,59.6c0.4,0.2,0.7,0.8,0.7,1.3s-0.3,0.7-0.7,0.4c-0.4-0.2-0.7-0.8-0.7-1.3S83.6,59.3,84,59.6z"/>
	</g>
	<g>
		<path class="st28" d="M87.6,56.4c0.4,0.2,0.7,0.8,0.7,1.3s-0.3,0.7-0.7,0.4c-0.4-0.2-0.7-0.8-0.7-1.3
			C86.9,56.4,87.2,56.2,87.6,56.4z"/>
	</g>
	<g>
		<path class="st28" d="M94.9,62.4c0.4,0.2,0.7,0.8,0.7,1.3c0,0.5-0.3,0.7-0.7,0.4c-0.4-0.2-0.7-0.8-0.7-1.3
			C94.2,62.3,94.5,62.1,94.9,62.4z"/>
	</g>
	<g>
		<path class="st28" d="M98.6,58.1c0.4,0.2,0.7,0.8,0.7,1.3s-0.3,0.7-0.7,0.4c-0.4-0.2-0.7-0.8-0.7-1.3
			C97.8,58.1,98.2,57.9,98.6,58.1z"/>
	</g>
	<g>
		<path class="st28" d="M105.8,56.7c0.4,0.2,0.7,0.8,0.7,1.3s-0.3,0.7-0.7,0.4c-0.4-0.2-0.7-0.8-0.7-1.3
			C105.1,56.6,105.4,56.4,105.8,56.7z"/>
	</g>
	<polygon class="st28" points="105.8,57.4 98.5,58.8 94.9,63 87.6,57.1 84,60.2 80.4,56.2 76.7,57.6 76.8,57.9 80.3,56.5 84,60.6 
		87.6,57.5 94.9,63.4 98.6,59.1 105.9,57.7 	"/>
	<polygon class="st25" points="105.8,60.6 102.1,62.1 98.6,66.7 95,54.4 95,54.2 91.2,55.7 87.6,60.5 80.4,52.6 76.5,57.7 
		76.7,57.9 80.4,53.1 87.5,60.8 87.7,60.9 91.4,55.9 94.8,54.6 98.5,67.3 102.3,62.3 105.9,60.8 	"/>
	<g>
		<path class="st28" d="M76.7,56.9c0.4,0.2,0.7,0.8,0.7,1.3s-0.3,0.7-0.7,0.4c-0.4-0.2-0.7-0.8-0.7-1.3S76.3,56.7,76.7,56.9z"/>
	</g>
</g>
<g>
	<path class="st35" d="M36,69.8c0,0-0.6,0.1-0.8,0.1c-0.2,0.1-1,0.2-1.3,0.4c-0.3,0.2,0.4,0.2,0.6,0.3c0.2,0.1-0.2,0.2-0.5,0.5
		c-0.3,0.2-0.4,0.4-0.6,0.9c-0.1,0.4,1.1,1.3,1.4,0.7c0.3-0.5,0.3-0.5,0.9-0.8c0.6-0.4,1-0.8,1.2-0.9L36,69.8z"/>
	<path class="st36" d="M36.1,69.4l-0.5,0.3c0,0,0.6,1,1,1.6l0.5-0.3L36.1,69.4z"/>
	<polygon class="st37" points="40.4,66.7 35.9,69.5 37,71.2 42.2,68.3 43.5,66.3 43.7,60.8 	"/>
	<path class="st38" d="M45.9,90.3l-2-0.1c0,0-0.2,0.4-0.9,0.6s-2.1,1-1.8,1.7s1.5,0.7,2.1,0.4c0.6-0.3,1.5-0.4,1.5-0.4l0.2,0.3
		l1.3-0.3v-1.9L45.9,90.3z"/>
	<path class="st38" d="M47.1,91.2c0,0-0.3,0.7-0.6,1c-0.3,0.2-1.2,1.7-1,2.2c0.3,0.5,0.9,0.6,1.3,0.6c0.4-0.1,1.3-0.6,1.6-1.2
		l0.3-0.5c0,0,0.1,0.2,0.2,0.2c0,0,0.9-0.5,1-0.6c0,0-0.1-1.4-0.1-2.1L47.1,91.2z"/>
	<path class="st39" d="M46,72.4h-2.7c-0.1,0.1-0.1,6.7-0.1,7.7c0,1.1,0.4,10.1,0.4,10.1s1.1,0.8,2.7,0.4l0.3-11.4L46,72.4z"/>
	<path class="st39" d="M49.4,71.6c0,0,0.1,3.4,0,4.5c0,1.1,0.3,5.9,0.4,6c0,0.1,0.1,8.8,0.1,8.8s-1.1,1-3.2,0.5
		c0,0-0.6-11.8-0.9-13.6c-0.2-1.8-0.5-5.6-0.5-5.6L49.4,71.6z"/>
	<path class="st37" d="M48.3,60.2L45,60.3l-1.3,0.6c0,0-0.5,1.1-0.8,3.1c-0.3,2,0.3,8.3,0.3,8.3c1.3,0.6,5.5,0.5,5.5,0.5
		c0.8-2,1.6-11.2,1.6-11.2L48.3,60.2z"/>
	<path class="st40" d="M45.8,60.3l-1.2,1c-0.5,3-0.5,8.8-0.4,11.3c0.4,0.1,0.9,0.1,1.4,0.1c0.1-6.2,2.2-12.1,2.3-12.5L45.8,60.3z"/>
	<path class="st38" d="M44.8,61.7l0.2,0.9c0,0-0.5,5.7-0.6,8.2l0.5,1l0.6-0.9l0.1-7.9l0.6-1.1C46.2,61.9,45.6,61.4,44.8,61.7z"/>
	<polygon class="st36" points="45.5,61.6 44.4,62.1 44.8,60.3 45.4,59.9 	"/>
	<polygon class="st41" points="47.8,59.4 45.2,59.8 45.5,61.6 48,60.2 	"/>
	<path class="st35" d="M48.7,57.3c0,1.6-1.9,2.8-3.3,2.8s-1.8-1.2-1.8-2.9c0-1.6,1-2.9,2.5-2.9S48.7,55.7,48.7,57.3z"/>
	<path class="st42" d="M46.3,57.1c0,0-0.4,1.6,0.5,1.6s0.5,0.3,0.7,0.6s0.9,0.1,1.2-0.7c0.4-0.8,1-2.6,0.5-3.5
		c-0.8-1.4-2.1-1.6-3-1.5c-1.1,0.1-2.6,1.3-2.8,2C43.3,57,46.3,57.1,46.3,57.1z"/>
	<polygon class="st27" points="49,72.2 45.7,72.1 45.6,74 49.1,74.5 	"/>
	<path class="st35" d="M48.4,74.1c0,0-0.3,0.5-0.4,0.7c-0.1,0.2-0.5,0.9-0.5,1.2c0,0.3,0.4-0.2,0.5-0.3c0.2-0.1,0.4,0,0.4,0.3
		s-0.3,1-0.4,1.4c-0.1,0.4,1.2,0.1,1.5-0.5c0.3-0.5,0.5-1.1,0.4-1.7c0-0.6-0.3-1-0.3-1.3L48.4,74.1z"/>
	<polygon class="st36" points="48.1,73.7 47.9,74.4 50,75 50.2,74.3 	"/>
	<path class="st37" d="M50.2,61.5c0,0-1.4,0.1-1.2,2.6c0.2,2.4,0.2,4.1,0.2,4.1L48,73.9l2.2,0.6c0,0,1.5-5.9,1.5-6.1
		s-0.4-5.2-0.4-5.2S51.2,61.9,50.2,61.5z"/>
	<path class="st27" d="M43,71v2.2c0,0.2,0.1,0.3,0.3,0.4l0.9,0.2v-1.5L43,71z"/>
	<polygon class="st36" points="48,59.8 45.5,61.6 46.6,62.7 48.3,60.2 	"/>
</g>
<g>
	<path class="st43" d="M27.4,103.4c-2.2,1.1-5.7,1.1-7.9,0s-2.2-2.9,0-4s5.7-1.1,7.9,0C29.5,100.5,29.5,102.3,27.4,103.4z"/>
	<path class="st35" d="M25,61.5c0,0,0.3,0.5,1,2.3c0.6,1.8,0.1,3.1-1.1,3.5C24,67.5,25,61.5,25,61.5z"/>
	<path class="st35" d="M21.7,98.1C21.6,96.4,22,93,22,93l0.2-3.6l0.6-7.2c0,0,0,0.2,0.1,0.4c0-0.2,0.1-0.5,0.1-0.7
		c0.1-0.7,0.4-1.4,0.7-2.1H19c0,0.6,0.1,1.1,0.3,1.5c0.7,1.4,0.8,4.6,0.8,6.2s-0.5,2.7-0.5,4.1s0.2,3,0.5,4c0.2,0.9,0,2.8,0,3.3
		s5.4,3,3.3,0.8C23.2,99.6,21.7,98.1,21.7,98.1z"/>
	<g>
		<path class="st44" d="M23.3,99.7c0,0,1.4,0.1,0.9,0.6s-1,1-1.8,1.1s-1.5-0.7-2.1-1s-0.8-0.5-0.7-0.9c0.1-0.4,0-1.1,1-0.8
			c0.7,0.3,0.7,1,0.9,1.1C22.1,100.1,24.3,100.8,23.3,99.7z"/>
		<path class="st44" d="M19.6,99.9c0,0,0.3,0.1,0.4,0.7s0,1.2,0,1.2h0.7V100L19.6,99.9z"/>
	</g>
	<path class="st35" d="M26.1,101.3c-0.3,0-1.2-1.7-1.2-1.7l0.4-6.1c0,0,0.2-3,0.4-3.9c2.7-7.6,0.1-12.8-0.2-14.1
		c-0.2-1.3,0.8-2.1,1-3.5s-1.3-3.1-1.3-3.1s-3.3-1.9-5.6-1.6s-0.5,4,0,4.9c0.5,0.8,1.1,2.7,0.8,4c-1.2,1.2-1.8,3.9-1.2,5.3
		c0.4,0.9,0.7,2.7,0.8,4.2h2.2V86h0.3l0.3-3.6c0,0,0.5,5.7,0.4,6.5c0,0.8-0.5,3.1-0.5,4.3S23,96,23,96.8s0.1,2.3,0.1,2.3l-0.1,2.1
		c0,0,0.9-0.2,1,0.1c0.1,0.2,0.7,1.3,0.7,1.3h1.1c0,0,0.8-0.8,1.1-0.8C27.2,101.6,26.4,101.3,26.1,101.3z"/>
	<path class="st39" d="M18.6,68.1c0,0,0.1-0.8,0.9-0.6c0.8,0.2,1.5,1.2,1.5,3.2s-0.2,4-0.3,4.1s-1.3,2-1.6,0.1
		C18.8,73,18.2,69.6,18.6,68.1z"/>
	<path class="st45" d="M20.1,79c0,0-0.1,0.4,0.1,1.2s0.4,1.1,0.9,1.2s0.6-0.2,0.5-0.6c-0.1-0.3-0.1-0.4-0.1-0.4s0.2,0.2,0.3,0.1
		c0.1-0.1,0.1-0.1-0.2-0.6c-0.3-0.5-0.5-0.7-0.5-0.7L20.1,79z"/>
	<path class="st39" d="M21,75l0.4,4.9c0,0-0.2,0.6-1,0c-0.8-0.5-1.2-5.3-1.2-5.3S20.6,73.2,21,75z"/>
	<path class="st37" d="M19.6,67.3c2.3-0.3,5.6,1.6,5.6,1.6s1.5,1.6,1.3,3.1s-1.2,2.2-1,3.5c0.1,0.5,0.5,1.6,0.9,3.2h-7.2
		c0.2-0.9,0.7-1.9,1.3-2.5c0.3-1.2-0.3-3.1-0.8-4C19.2,71.3,17.3,67.5,19.6,67.3z"/>
	<path class="st5" d="M25.9,76.7c0,0-0.3,1-2,0.9s-3.5-1.5-3.5-1.5s-1.6,1.4-1.6,3.7c0,1.7,1.4,5.7,1,8.2c0.9,1.1,2.7,1.9,4.2,1.9
		c1.5,0.1,2.4-1.1,2.4-1.1s1.1-4,0.8-7.4C27,78.1,26.1,77.4,25.9,76.7z"/>
	<g>
		<path class="st44" d="M26,101.3c0,0,1.4,0.1,0.9,0.6s-1,1-1.8,1.1s-1.5-0.7-2.1-1s-0.8-0.5-0.7-0.9c0.1-0.4,0.2-0.9,1-0.8
			c0.8,0.2,0.7,1,0.9,1.1C24.8,101.7,27,102.3,26,101.3z"/>
		<path class="st44" d="M22.4,101.4c0,0,0.3,0.1,0.4,0.7s0,1.2,0,1.2h0.7v-1.8L22.4,101.4z"/>
	</g>
	<path class="st42" d="M25.6,61.8c0,0-1.2-0.9-2.8-0.9c-1.6,0-3.3,0.7-3.5,3.3s0.5,3.5,0.5,3.5s0.6,1.3,3.4,1.1
		c1.3-0.1,2.3-0.6,2.3-0.6S24.2,64.5,25.6,61.8z"/>
	<g>
		<g>
			<path class="st39" d="M24,69.9c0,0-0.4-0.7,0.4-1s2,0.2,3.2,1.8c1.2,1.6,2.3,3.3,2.3,3.5s0.4,1.7-1.3,1
				C26.7,74.4,24.6,71.4,24,69.9z"/>
			<path class="st35" d="M33.7,72.7c0,0,0.5-0.1,1.1-0.7s0.8-0.9,0.7-1.4s-0.5-0.4-0.8-0.1s-0.3,0.3-0.3,0.3s0.1-0.3-0.1-0.3
				s-0.2,0-0.5,0.5s-0.4,0.8-0.4,0.8L33.7,72.7z"/>
			<path class="st39" d="M28.8,73.9l4.6-2.2c0,0,1.1,0.2,0.5,0.8c-2,2.3-4.4,2.9-4.4,2.9S28.3,74.3,28.8,73.9z"/>
		</g>
	</g>
</g>
<g>
	<g>
		<path class="st46" d="M106.6,66.4c0.2-0.1,0.4-0.2,0.6-0.3c0.2-0.1,0.3-0.2,0.5-0.4l0.8,1.3l-1,0.7L106.6,66.4z"/>
		<polygon class="st47" points="107.7,65.8 108.9,64.9 109.8,66.2 108.5,67 		"/>
		<polygon class="st10" points="108.8,66.9 110,66 118.6,79.1 117.5,80.3 		"/>
		<polygon class="st11" points="107.2,67.9 107.5,67.7 108.5,67 108.8,66.9 117.5,80.3 115.6,81 		"/>
		<path class="st14" d="M106.7,57c1.2,1.8,1.8,3.8,1.9,5.4c0.1,1.4-0.2,2.6-1,3.3c-0.1,0.2-0.3,0.3-0.5,0.4l0,0l1.3-0.8l0,0
			c0.2-0.1,0.3-0.2,0.5-0.4c0.7-0.8,1-1.9,1-3.3c-0.1-1.7-0.7-3.6-1.9-5.4c-2.4-3.7-6-5.5-8.1-4.1l-1.3,0.8
			C100.7,51.5,104.3,53.4,106.7,57"/>
		<path class="st48" d="M98.2,57.2c-0.1-1.4,0.3-2.5,1.2-3.1c0.9-0.6,2-0.5,3.3,0.1c1.2,0.6,2.4,1.7,3.4,3.2s1.5,3.1,1.6,4.5
			s-0.3,2.5-1.2,3.1c-0.9,0.6-2,0.5-3.3-0.1c-1.2-0.6-2.4-1.7-3.4-3.2C98.8,60.1,98.2,58.5,98.2,57.2"/>
		<path class="st15" d="M98.6,52.9c-1.1,0.7-1.5,2.1-1.4,3.7c0.1,1.7,0.7,3.6,1.9,5.4c2.2,3.3,5.4,5.2,7.6,4.4
			c0.2-0.1,0.4-0.2,0.6-0.3c0.2-0.1,0.3-0.2,0.5-0.4c0.7-0.8,1-1.9,1-3.3c-0.1-1.7-0.7-3.6-1.9-5.4C104.3,53.4,100.7,51.5,98.6,52.9
			 M102.6,54.2c1.2,0.6,2.4,1.7,3.4,3.2s1.5,3.1,1.6,4.5s-0.3,2.5-1.2,3.1c-0.9,0.6-2,0.5-3.3-0.1c-1.2-0.6-2.4-1.7-3.4-3.2
			s-1.5-3.1-1.6-4.4c-0.1-1.4,0.3-2.5,1.2-3.1C100.2,53.5,101.4,53.6,102.6,54.2z"/>
		<path class="st49" d="M105.9,57.3c-0.7-1-1.4-1.8-2.2-2.4l0.6,10.3c0.8,0.2,1.5,0.1,2.1-0.2L105.9,57.3z"/>
		<path class="st49" d="M100.9,63.1c0.7,0.7,1.4,1.3,2.2,1.7l-0.6-10.6c-0.7-0.4-1.5-0.5-2.1-0.5L100.9,63.1z"/>
	</g>
	<g>
		<g>
			<g>
				<ellipse id="SVGID_3_" class="st50" cx="65.7" cy="75.3" rx="8.2" ry="4.7"/>
			</g>
		</g>
		<path class="st51" d="M62.7,72l-0.5,0.8l-0.1,0.9l0.8,1.4c0.1,0.1,0.1,0.2,0,0.3l0,0c-0.5,0.5-1,0.6-1.6,0.1L60,73.7l0.1-0.6
			l0.5-0.6l1.3-0.8L62.7,72z"/>
		<path class="st51" d="M66.5,71.5l-0.2,0.7l1.2,1.2c0.1,0.1,0.1,0.3-0.1,0.4l0,0c-0.7,0.3-1.6,0.1-2.3-0.3l-1-0.5
			c-0.2-0.1-0.3-0.4-0.2-0.6l0.5-0.9C64.4,71.5,66.5,71.5,66.5,71.5z"/>
		<path class="st51" d="M62.2,75.9c-0.3,0-0.5-0.1-0.8-0.3l0,0l-1.3-1.8c0,0,0,0,0-0.1l0.1-0.6l0,0l0.5-0.6l0,0l1.3-0.8h0.1l0.7,0.5
			v0.1l-0.5,0.8l-0.1,0.8l0.8,1.4c0.1,0.1,0.1,0.3,0,0.4C62.8,75.7,62.5,75.9,62.2,75.9z M61.5,75.4c0.6,0.4,1,0.4,1.5-0.1
			c0,0,0.1-0.1,0-0.2c0,0,0,0-0.3-0.1l-0.8-1.4c0.3,0.1,0.3,0.1,0.3,0.1l0.1-0.9l0,0l0.4-0.7l-0.6-0.4l-1.3,0.8l-0.5,0.6l-0.1,0.6
			L61.5,75.4z"/>
		<path class="st51" d="M66.7,74c-0.6,0-1.1-0.2-1.5-0.5l-1-0.5c-0.1-0.1-0.2-0.2-0.2-0.3c0-0.1,0-0.3,0.1-0.4l0.5-0.9
			c0,0,0,0,0.1,0h1.9c0,0,0,0,0.1,0c0,0,0,0,0,0.1l-0.2,0.7l1.2,1.2c0.1,0.1,0.1,0.2,0.1,0.3c0,0.1-0.1,0.2-0.2,0.2
			C67.2,73.9,67,74,66.7,74z M64.6,71.5l-0.5,0.8c0,0.1-0.1,0.2,0,0.3c0,0.1,0.1,0.2,0.2,0.2l1,0.5c0.6,0.3,1.4,0.6,2.2,0.3l0.1-0.1
			v-0.1l-1.2-1.2c0,0,0,0,0-0.1l0.1-0.6L64.6,71.5L64.6,71.5z"/>
		<path class="st52" d="M66.9,49l1.5,4.7v0.1c0.1,0.2,0.2,0.3,0.3,0.4l4.4,2.9c0.3,0.2,0.6,0.1,0.8-0.1c0.2-0.2,0.1-0.6-0.1-0.8
			l-3.6-3l-1-4.8c-0.1-0.6-0.8-1.1-1.4-0.9C67.2,47.6,66.8,48.3,66.9,49C66.8,49,66.8,49,66.9,49z"/>
		<path class="st53" d="M73.4,57.3c-0.1,0-0.3,0-0.4-0.1l-4.4-2.9c-0.2-0.1-0.3-0.3-0.3-0.4l-1.5-4.8l0,0V49
			c-0.1-0.7,0.3-1.3,0.9-1.5c0.3-0.1,0.7,0,0.9,0.2c0.3,0.2,0.5,0.5,0.6,0.8l1,4.7l3.6,3c0.2,0.2,0.3,0.6,0.1,0.9
			C73.8,57.2,73.6,57.3,73.4,57.3z M66.9,49l1.5,4.8c0,0.1,0.1,0.3,0.3,0.4l4.4,2.9c0.2,0.1,0.5,0.1,0.7-0.1
			c0.1-0.2,0.1-0.5-0.1-0.7l-3.6-3l0,0l-1-4.8c-0.1-0.3-0.3-0.6-0.5-0.7c-0.3-0.2-0.5-0.2-0.8-0.1C67.1,47.8,66.8,48.3,66.9,49
			L66.9,49L66.9,49z"/>
		<path class="st0" d="M64.4,71.5H65h1.6l1.3-6l0.4-7.3l-3.1-0.4l-0.7-0.1l0.7,7.5c-0.3,0.9-0.5,1.9-0.6,2.8
			c-0.2,0.9-0.2,1.9-0.3,2.9L64.4,71.5z"/>
		<path class="st54" d="M64.4,71.6C64.4,71.6,64.4,71.5,64.4,71.6C64.4,71.5,64.3,71.5,64.4,71.6l-0.1-0.7c0-1,0.1-1.9,0.3-2.9
			c0.2-0.9,0.4-1.9,0.6-2.8l-0.7-7.5c0,0,0,0,0-0.1c0,0,0,0,0.1,0l0.7,0.1l3.1,0.4c0,0,0.1,0,0.1,0.1l-0.4,7.3l0,0l-1.3,6
			c0,0,0,0.1-0.1,0.1H64.4L64.4,71.6z M64.8,57.7l0.7,7.4l0,0C65.2,66,65,67,64.9,67.9c-0.2,0.9-0.2,1.9-0.3,2.9l0,0v0.6h2.1l1.3-6
			l0.4-7.2L64.8,57.7z M64.4,70.8L64.4,70.8L64.4,70.8z"/>
		<path class="st55" d="M60.4,72.6l2.3,0.2v-0.1l1.9-5.8l1.1-7.2L62.9,59l-0.8-0.2L62,66.3c-0.4,0.9-0.7,1.8-0.9,2.7
			c-0.2,0.9-0.4,1.9-0.6,2.8L60.4,72.6z"/>
		<path class="st54" d="M61.2,72.6l1.4,0.1l1.9-5.8l1.1-7.2L62.9,59l-0.1,7.3c-0.4,0.9-0.7,1.8-0.9,2.7c-0.2,0.9-0.4,1.9-0.6,2.8
			L61.2,72.6z"/>
		<path class="st54" d="M65.2,71.5h1.5l1.3-6l0.4-7.3l-2.9-0.4l0.6,7.3c-0.3,0.9-0.5,1.9-0.7,2.8s-0.3,1.9-0.3,2.9L65.2,71.5z"/>
		<path class="st54" d="M62.7,72.8L62.7,72.8l-2.3-0.2c0,0,0,0-0.1,0c0,0,0,0,0-0.1l0.1-0.6c0.1-1,0.3-1.9,0.6-2.8
			c0.2-0.9,0.6-1.8,0.9-2.7l0.1-7.5c0,0,0,0,0-0.1c0,0,0,0,0.1,0l3.7,0.8c0,0,0.1,0,0.1,0.1l-1.1,7.2l0,0L62.7,72.8L62.7,72.8z
			 M60.5,72.5l2.1,0.2l0,0l1.9-5.8l1.1-7.2l-3.5-0.8L62,66.3l0,0c-0.4,0.9-0.7,1.8-0.9,2.7c-0.2,0.9-0.4,1.9-0.6,2.8l0,0V72.5z
			 M60.5,71.9L60.5,71.9L60.5,71.9z"/>
		<polygon class="st35" points="67.6,62 68.5,61.6 68.8,60.9 67.6,60.9 67.2,61 66.7,61.6 		"/>
		<path class="st52" d="M67.1,47.2h-0.2l-1.1-0.4L63.2,49c-0.1,0-1.8,1.2-2.3,2.4c-0.1,0.2-0.1,0.4-0.1,0.6c0.1,0.8,0.5,3.2,0.8,5
			l-0.1,3.2c0.1,0.6,0.7,1,1.3,0.9l4.9-1c0.5-0.1,0.9-0.6,0.9-1.1l-0.3-4.4c0-0.7,0-1.1,0.1-1.6c0.2-0.8,0.6-1.2,0.6-1.9v-0.4
			c0-0.3,0.2-1,0.2-1.4c0-0.2,0-0.4,0-0.5C69.1,47.7,68.1,47,67.1,47.2z"/>
		<path class="st53" d="M62.7,61.2c-0.2,0-0.5-0.1-0.7-0.2c-0.3-0.2-0.4-0.5-0.5-0.8l0,0l0.1-3.2c-0.3-1.8-0.7-4.2-0.8-5
			c0-0.2,0-0.4,0.1-0.6c0.5-1.1,2.1-2.3,2.4-2.4l2.6-2.2c0,0,0,0,0.1,0l1.1,0.4h0.2l0,0c0.5-0.1,1,0,1.5,0.3
			c0.4,0.3,0.7,0.8,0.8,1.3c0,0.2,0,0.4,0,0.6c0,0.2,0,0.4-0.1,0.6c0,0.3-0.1,0.6-0.1,0.7l0,0v0.4c0,0.5-0.1,0.8-0.3,1.2
			c-0.1,0.2-0.2,0.5-0.3,0.8c-0.1,0.4-0.2,0.8-0.1,1.5L69,59c0,0.6-0.4,1.1-0.9,1.2l-4.9,1C62.8,61.2,62.7,61.2,62.7,61.2z
			 M61.7,60.2c0,0.3,0.2,0.5,0.4,0.7s0.5,0.2,0.8,0.2l4.9-1c0.5-0.1,0.8-0.6,0.8-1.1l-0.3-4.4c-0.1-0.7,0-1.2,0.1-1.6
			c0.1-0.3,0.2-0.6,0.3-0.8c0.2-0.4,0.3-0.7,0.3-1.1l0,0v-0.4c0-0.2,0-0.5,0.1-0.8c0-0.2,0.1-0.4,0.1-0.6c0-0.2,0-0.3,0-0.5
			c-0.1-0.5-0.3-0.9-0.7-1.2c-0.4-0.3-0.9-0.4-1.3-0.3H67l0,0l-1.1-0.4l-2.5,2.2l0,0c-0.1,0-1.8,1.2-2.3,2.3C61,51.6,61,51.8,61,52
			c0.1,0.8,0.5,3.2,0.8,5l0,0L61.7,60.2z"/>
		<g>
			<path class="st35" d="M67.2,44.8v1.5l-0.3,1.5c0,0.2-0.2,0.3-0.4,0.4H66c0.1,0.2,0,0.5-0.2,0.7l0,0c-0.1,0.1-0.3,0.1-0.4,0
				l-0.1-0.1l-1.2-0.5v-0.6L63.8,47l-0.5-2.2c-0.1-0.2,0-0.5,0.1-0.7c0.1-0.1,0.1-0.3,0.2-0.4c0.3-0.4,0.7-0.6,1.2-0.7l0.7-0.1
				c0.1,0,0.1,0,0.2,0l0.7,0.2C66.8,43.5,67.2,44.1,67.2,44.8z"/>
			<path class="st35" d="M65.4,49c-0.1,0-0.2,0-0.2,0l-1.3-0.6c0,0,0,0,0-0.1v-0.5l-0.2-0.6l-0.1-0.1l-0.5-2.2
				c-0.1-0.2,0-0.5,0.1-0.7c0.2-0.6,0.8-1,1.5-1.1l0.7-0.1c0.1,0,0.1,0,0.2,0l0.7,0.2c0.7,0.2,1.1,0.8,1.1,1.5v1.5l0,0l-0.3,1.5
				c-0.1,0.2-0.3,0.4-0.5,0.4h-0.4c0,0.1,0,0.2,0,0.3c-0.1,0.1-0.2,0.3-0.3,0.3l0,0C65.6,49,65.5,49,65.4,49z M64,48.3l1.2,0.5
				c0.1,0,0.2,0,0.3,0l0,0c0.1,0,0.2-0.1,0.2-0.2c0-0.1,0-0.2,0-0.3c0,0,0,0,0-0.1c0,0,0,0,0.1,0h0.5c0.2,0,0.3-0.1,0.4-0.3l0.3-1.5
				v-1.5c0-0.6-0.4-1.2-1-1.4l-0.7-0.2h-0.1l-0.7,0.1c-0.6,0.1-1.1,0.4-1.3,1c-0.1,0.2-0.1,0.4,0,0.6l0.5,2.2l0.3,0.7l0,0L64,48.3z"
				/>
			<path class="st56" d="M67.2,45.1c0,0-0.1-0.3-0.2-0.3c-0.2,0-0.6,0.2-1.2,0.1c-0.6-0.1-0.8,0.1-0.9,0.4c-0.1,0.3-0.3,1.3-0.6,1.5
				s-0.7,0.2-0.8,0c-0.2-0.2-0.8-1.8-0.5-2.5c0.4-0.7,0.6-1.3,1.4-1.4c0.9-0.1,2.4,0.4,2.6,0.6c0.2,0.2,0.4,1.3,0.3,1.5
				C67.3,45.3,67.2,45.1,67.2,45.1z"/>
			<path class="st56" d="M63.9,47c-0.2,0-0.3-0.1-0.4-0.2c-0.2-0.2-0.9-1.9-0.5-2.6c0.1-0.1,0.1-0.2,0.2-0.3c0.3-0.5,0.6-1,1.3-1.1
				c0.9-0.1,2.4,0.4,2.7,0.6c0.2,0.2,0.5,1.3,0.3,1.6c-0.1,0.1-0.1,0.2-0.2,0.2s-0.1,0-0.1-0.1l0,0c0-0.1-0.1-0.3-0.2-0.3
				c0,0-0.1,0-0.2,0c-0.2,0.1-0.5,0.1-0.9,0.1c-0.5-0.1-0.7,0.1-0.8,0.3c0,0.1-0.1,0.2-0.1,0.4c-0.1,0.4-0.2,1-0.5,1.1
				C64.2,46.9,64.1,47,63.9,47z M64.7,43c-0.1,0-0.1,0-0.2,0c-0.7,0.1-0.9,0.5-1.2,1c-0.1,0.1-0.1,0.2-0.2,0.3
				c-0.4,0.6,0.3,2.2,0.5,2.4c0.1,0.2,0.5,0.2,0.7,0c0.2-0.1,0.3-0.7,0.4-1c0-0.2,0.1-0.3,0.1-0.4c0.2-0.4,0.4-0.5,1-0.4
				c0.4,0.1,0.7,0,0.9-0.1c0.1,0,0.2,0,0.3,0c0.2,0,0.3,0.3,0.3,0.4l0,0c0,0,0,0,0.1-0.1c0.1-0.2-0.1-1.3-0.3-1.4
				C66.9,43.4,65.5,43,64.7,43z"/>
		</g>
		<path class="st57" d="M66.2,48.3c-0.1,0-0.1,0-0.2-0.1l0,0c-0.1,0-0.1,0-0.2,0c0,0.2-0.1,0.4-0.2,0.4c-0.3,0.1-0.6,0.2-0.9,0
			c-0.1-0.1-0.3-0.1-0.4-0.2L63.9,48l-0.1,0.6c0,0.1,0,0.2,0.1,0.2c0.2,0.1,0.3,0.2,0.5,0.3c0.3,0.1,0.7,0.1,0.9,0.2
			c0.2,0,0.3,0,0.5-0.2C66.2,48.9,66.3,48.6,66.2,48.3L66.2,48.3z"/>
		<path class="st57" d="M66.2,48.3c-0.1,0-0.1,0-0.2,0v0.1c0.1,0.3,0,0.5-0.2,0.7c-0.1,0.1-0.3,0.2-0.4,0.1c-0.3,0-0.7-0.1-0.9-0.2
			c-0.2,0-0.4-0.1-0.5-0.3c-0.1-0.1-0.1-0.2-0.1-0.2v-0.4l0.3,0.3l0,0c0.1,0.1,0.3,0.2,0.4,0.2c0.3,0.1,0.6,0.1,0.9,0
			c0.2-0.1,0.3-0.3,0.3-0.5H66h-0.1h-0.1c0,0,0,0-0.1,0c0,0.2-0.1,0.3-0.2,0.4c-0.3,0.1-0.5,0.1-0.8,0c-0.1-0.1-0.3-0.1-0.4-0.2
			L63.9,48h-0.1c0,0,0,0-0.1,0.1l-0.1,0.5c0,0.1,0,0.2,0.1,0.3c0.2,0.1,0.4,0.3,0.6,0.3c0.3,0.1,0.7,0.1,1,0.2c0,0,0,0,0.1,0
			c0.2,0,0.3-0.1,0.5-0.2C66.2,48.9,66.3,48.6,66.2,48.3L66.2,48.3z"/>
		<path class="st52" d="M60.9,52.9l1.1,4.8v0.1c0,0.2,0.1,0.3,0.3,0.4l4.2,3.3c0.2,0.2,0.6,0.2,0.8-0.1c0.2-0.2,0.2-0.5,0-0.7
			l-3.7-3.9l0.3,0.5l-0.7-4.9c-0.1-0.6-0.7-1.1-1.3-1s-1.1,0.7-1,1.3C60.9,52.8,60.9,52.8,60.9,52.9z"/>
		<path class="st53" d="M66.8,61.7c-0.1,0-0.3,0-0.4-0.1l-4.2-3.3c-0.2-0.1-0.3-0.3-0.3-0.5l-1.1-4.9l0,0v-0.1c0-0.3,0-0.7,0.2-0.9
			c0.2-0.3,0.5-0.4,0.8-0.5c0.3,0,0.7,0,0.9,0.2c0.3,0.2,0.4,0.5,0.5,0.8l0.7,4.7l3.3,3.5c0.2,0.2,0.2,0.6,0,0.8
			C67.2,61.6,67.1,61.6,66.8,61.7C66.9,61.7,66.8,61.7,66.8,61.7z M61,52.8l1.1,4.9c0,0.2,0.1,0.3,0.2,0.4l4.2,3.3
			c0.1,0.1,0.2,0.1,0.4,0.1c0.1,0,0.2-0.1,0.3-0.2c0.2-0.2,0.1-0.5,0-0.6l-3.3-3.5l0,0l-0.7-4.7c0-0.3-0.2-0.6-0.4-0.7
			c-0.2-0.2-0.5-0.3-0.8-0.2c-0.3,0-0.5,0.2-0.7,0.4C61,52.2,60.9,52.5,61,52.8C60.9,52.8,60.9,52.8,61,52.8L61,52.8z"/>
		<g>
			<path class="st57" d="M64.4,58.5c0-0.1,0.1-0.1,0.2-0.1l5.9-2.6c0.6-0.2,1.2-0.2,1.7,0.2l2.7,2h0.3v0.1c0,0.1-0.1,0.2-0.2,0.2
				l-7.3,3.2c-0.1,0-0.1,0-0.2,0l-3-2.2c-0.1-0.1-0.2-0.3-0.2-0.4l0,0L64.4,58.5L64.4,58.5z"/>
			<path class="st57" d="M67.6,61.5C67.5,61.5,67.5,61.5,67.6,61.5l-3.1-2.2c-0.2-0.1-0.2-0.3-0.2-0.5l0,0v-0.3c0,0,0,0,0-0.1
				c0,0,0,0,0.1,0l0,0c0-0.1,0.1-0.1,0.2-0.1l5.9-2.6c0.6-0.3,1.3-0.2,1.8,0.2l2.6,1.9h0.3c0,0,0,0,0.1,0c0,0,0,0,0,0.1V58
				c0,0.1-0.1,0.2-0.2,0.3L67.6,61.5C67.7,61.5,67.6,61.5,67.6,61.5z M64.4,58.7L64.4,58.7c0,0.1,0,0.3,0.2,0.4l3,2.2h0.1l7.3-3.2
				c0.1,0,0.1-0.1,0.1-0.2l0,0h-0.3c0,0,0,0-0.1,0l-2.7-2c-0.5-0.3-1.1-0.4-1.6-0.2l-5.9,2.6c-0.1,0-0.1,0.1-0.1,0.1s0,0-0.1,0
				L64.4,58.7z"/>
			<path class="st3" d="M67.6,61.2l7.6-3.3l-3-2.2c-0.5-0.4-1.2-0.4-1.7-0.2l-5.9,2.6c-0.3,0.1-0.4,0.6-0.1,0.8L67.6,61.2z"/>
			<path class="st57" d="M67.6,61.2L67.6,61.2l-3.2-2.3c-0.2-0.1-0.2-0.3-0.2-0.5s0.1-0.4,0.3-0.4l5.9-2.6c0.6-0.3,1.3-0.2,1.8,0.2
				l3,2.2c0,0,0,0,0,0.1c0,0,0,0,0,0.1L67.6,61.2L67.6,61.2z M71.2,55.4c-0.2,0-0.5,0-0.7,0.1l-5.9,2.6c-0.1,0.1-0.2,0.2-0.2,0.3
				s0,0.3,0.2,0.4l3.1,2.3l7.4-3.2l-2.9-2.1C71.9,55.5,71.5,55.4,71.2,55.4z"/>
			<polygon class="st23" points="67.2,59.8 73.1,57.2 71.2,55.9 65.3,58.4 			"/>
			<path class="st58" d="M67.2,59.9L67.2,59.9l-1.9-1.4c0,0,0,0,0-0.1c0,0,0,0,0-0.1l5.9-2.6h0.1l1.9,1.4c0,0,0,0,0,0.1
				c0,0,0,0,0,0.1L67.2,59.9L67.2,59.9z M65.5,58.5l1.7,1.3l5.7-2.5L71.2,56L65.5,58.5z"/>
			<path class="st57" d="M67.9,55.1l-0.6,5.8l0.4,0.3l0.6-5.8c0-0.2,0.1-0.3,0.2-0.5L68,54.6C67.9,54.7,67.9,54.9,67.9,55.1z"/>
			<path class="st3" d="M68,54.6l0.4,0.3c0.1-0.2,0.3-0.4,0.5-0.5l6.3-2.8c0.1-0.1,0.3,0,0.4,0l-0.4-0.3c-0.1-0.1-0.3-0.1-0.4,0
				l-6.3,2.8C68.3,54.2,68.2,54.4,68,54.6z"/>
			<path class="st59" d="M68.3,55.4l-0.6,5.3l7.1-3.1l0.6-5.7l0,0l0.2-0.2l0,0c-0.1-0.1-0.3-0.1-0.4,0L69,54.4
				c-0.2,0.1-0.4,0.3-0.5,0.5C68.3,55,68.3,55.2,68.3,55.4z"/>
			<path class="st32" d="M68.3,55.4l-0.6,5.8l7.6-3.3l0.6-5.8c0-0.2-0.1-0.3-0.2-0.4l0,0c-0.1-0.1-0.3-0.1-0.4,0L69,54.4
				c-0.2,0.1-0.4,0.3-0.5,0.5C68.3,55,68.3,55.2,68.3,55.4z"/>
			<path class="st57" d="M67.6,61.2L67.6,61.2C67.6,61.2,67.5,61.2,67.6,61.2l0.6-5.9l0,0c0-0.2,0.1-0.3,0.2-0.5s0.3-0.4,0.6-0.5
				l6.3-2.8c0.2-0.1,0.3,0,0.5,0.1l0,0c0.1,0.1,0.2,0.3,0.2,0.4l-0.6,5.8c0,0,0,0,0,0.1L67.6,61.2L67.6,61.2z M68.3,55.4L67.7,61
				l7.4-3.2l0.6-5.7c0-0.1,0-0.2-0.1-0.3l0,0l0,0c-0.1-0.1-0.2-0.1-0.3,0L69,54.5c-0.2,0.1-0.4,0.3-0.5,0.5
				C68.4,55.1,68.4,55.2,68.3,55.4L68.3,55.4z"/>
			<path class="st57" d="M67.6,61.2L67.6,61.2l-0.4-0.3c0,0,0,0,0-0.1l0.6-5.8c0-0.2,0.1-0.4,0.2-0.5c0.1-0.2,0.3-0.4,0.6-0.5
				l6.3-2.8c0.2-0.1,0.3,0,0.5,0.1l0.4,0.3l0,0v0.1h-0.1l0,0c-0.1-0.1-0.2-0.1-0.3,0L69,54.5c-0.2,0.1-0.4,0.3-0.5,0.5
				c-0.1,0.1-0.1,0.3-0.1,0.4L67.6,61.2C67.7,61.2,67.7,61.2,67.6,61.2L67.6,61.2z M67.3,60.8l0.3,0.2l0.6-5.7
				c0-0.2,0.1-0.3,0.2-0.5s0.3-0.4,0.6-0.5l6.3-2.8h0.1l-0.1-0.1c-0.1-0.1-0.2-0.1-0.3,0l-6.3,2.8c-0.2,0.1-0.4,0.3-0.5,0.5
				c-0.1,0.1-0.1,0.3-0.1,0.4l0,0L67.3,60.8z M67.9,55.1L67.9,55.1L67.9,55.1z"/>
		</g>
	</g>
</g>
<g>
	<g>
		<path class="st60" d="M134.2,70.5c-0.7-0.4-1.2-0.8-1.9-1.2c-0.7-0.4-1.3-0.8-2-1.2c-0.1-0.1-0.4-0.1-0.5,0.1
			c-0.5,0.5-1.1,0.9-1.6,1.4s-1.1,0.9-1.7,1.4c-0.2,0.1-0.2,0.3,0,0.4c0.7,0.4,1.3,0.8,2,1.2c0.7,0.4,1.3,0.8,2,1.3
			c0.1,0.1,0.4,0.1,0.6-0.1c0.6-0.5,1.1-0.9,1.7-1.4c0.6-0.5,1.1-0.9,1.7-1.4c0.1,0,0.1-0.1,0.1-0.2v-0.2L134.2,70.5z"/>
		<path class="st60" d="M128.2,69.6c-0.5,0.5-1.1,0.9-1.7,1.4c-0.2,0.1-0.2,0.3,0,0.4c0.7,0.4,1.3,0.8,2,1.2l2,1.3v-0.8L128.2,69.6z
			"/>
		<path class="st61" d="M134.3,70.4c-0.7-0.4-1.3-0.8-2-1.2c-0.7-0.4-1.3-0.8-2-1.2c-0.1-0.1-0.4-0.1-0.5,0.1
			c-0.5,0.5-1.1,0.9-1.6,1.4s-1.1,0.9-1.7,1.4c-0.2,0.1-0.2,0.3,0,0.4c0.7,0.4,1.3,0.8,2,1.2c0.7,0.4,1.3,0.8,2,1.3
			c0.1,0.1,0.4,0.1,0.6-0.1c0.6-0.5,1.1-0.9,1.7-1.4c0.6-0.5,1.1-0.9,1.7-1.4C134.5,70.7,134.5,70.5,134.3,70.4z"/>
		<path class="st62" d="M134.1,70.6c-0.5,0.5-1.1,0.9-1.6,1.4c-0.6,0.5-1.1,0.9-1.7,1.4c0,0-0.1,0.1-0.2,0c-0.7-0.4-1.3-0.8-2-1.3
			c-0.6-0.4-1.2-0.8-1.9-1.2c0.5-0.4,1.1-0.9,1.6-1.3c0.5-0.5,1.1-0.9,1.6-1.4c0,0,0.1-0.1,0.2,0c0.7,0.4,1.3,0.8,2,1.2
			C132.8,69.9,133.4,70.2,134.1,70.6z"/>
		<g>
			<path class="st63" d="M131.6,71.9c-0.1-0.1-0.3-0.2-0.4-0.3c-0.2,0.2-0.4,0.4-0.6,0.5c-0.2,0.2-0.4,0.4-0.6,0.5
				c0.1,0.1,0.3,0.2,0.4,0.3c0.2-0.2,0.4-0.4,0.6-0.5C131.1,72.2,131.4,72.1,131.6,71.9z"/>
			<path class="st16" d="M131.6,71.3c-0.1-0.1-0.3-0.2-0.4-0.3c-0.3,0.2-0.6,0.5-0.8,0.7c-0.3,0.2-0.6,0.5-0.8,0.7
				c0.1,0.1,0.3,0.2,0.4,0.3c0.3-0.2,0.6-0.5,0.8-0.7S131.3,71.5,131.6,71.3z"/>
			<path class="st64" d="M131.6,70.6c-0.1-0.1-0.3-0.2-0.4-0.3c-0.4,0.3-0.7,0.6-1.1,0.9c-0.4,0.3-0.7,0.6-1.1,0.9
				c0.1,0.1,0.3,0.2,0.4,0.3c0.4-0.3,0.7-0.6,1.1-0.9C130.9,71.2,131.3,70.9,131.6,70.6z"/>
			<path class="st65" d="M130.9,70.6c-0.1-0.1-0.3-0.2-0.4-0.3c-0.3,0.3-0.6,0.5-0.9,0.8c-0.3,0.3-0.6,0.5-0.9,0.8
				c0.1,0.1,0.3,0.2,0.4,0.3c0.3-0.3,0.6-0.5,0.9-0.8C130.3,71.1,130.6,70.9,130.9,70.6z"/>
			<path class="st66" d="M129.9,70.9c-0.1-0.1-0.3-0.2-0.4-0.3c-0.2,0.2-0.4,0.4-0.6,0.5c-0.2,0.2-0.4,0.4-0.6,0.5
				c0.1,0.1,0.3,0.2,0.4,0.3c0.2-0.2,0.4-0.4,0.6-0.5C129.5,71.2,129.7,71.1,129.9,70.9z"/>
			<path class="st15" d="M129.3,70.8c-0.1-0.1-0.3-0.2-0.4-0.3c-0.2,0.2-0.4,0.3-0.5,0.5c-0.2,0.2-0.4,0.3-0.5,0.5
				c0.1,0.1,0.3,0.2,0.4,0.3c0.2-0.2,0.4-0.3,0.5-0.5C128.9,71.1,129.1,70.9,129.3,70.8z"/>
			<path class="st67" d="M131.8,72.3c-0.1-0.1-0.3-0.2-0.4-0.3c-0.2,0.2-0.4,0.3-0.5,0.5c-0.2,0.2-0.4,0.3-0.5,0.5
				c0.1,0.1,0.3,0.2,0.4,0.3c0.2-0.2,0.4-0.3,0.5-0.5C131.4,72.6,131.6,72.5,131.8,72.3z"/>
			<path class="st15" d="M131.8,70.1c0,0.3,0.1,0.7,0.1,1s0.1,0.7,0.1,1h-0.1c0-0.3-0.1-0.7-0.1-1s-0.1-0.7-0.1-1
				c-0.4,0.1-0.9,0.1-1.3,0.2c-0.4,0.1-0.9,0.1-1.3,0.2c0-0.3,0-0.6,0-0.9c-0.1,0-0.2,0-0.3,0c0.1-0.2,0.2-0.3,0.3-0.5
				c0.1,0.1,0.2,0.2,0.3,0.4c-0.1,0-0.2,0-0.3,0c0,0.3,0,0.6,0,0.9c0.4-0.1,0.8-0.1,1.3-0.2C131,70.1,131.4,70.1,131.8,70.1
				C131.8,70,131.8,70.1,131.8,70.1z"/>
			<path class="st15" d="M129,70.4c-0.1-0.1-0.3-0.2-0.4-0.3c-0.2,0.2-0.4,0.3-0.6,0.5c-0.2,0.2-0.4,0.3-0.6,0.5
				c0.1,0.1,0.3,0.2,0.4,0.3c0.2-0.2,0.4-0.3,0.6-0.5C128.6,70.7,128.8,70.6,129,70.4z"/>
			<path class="st64" d="M129,69.8c-0.1-0.1-0.3-0.2-0.4-0.3c-0.3,0.2-0.5,0.5-0.8,0.7s-0.5,0.5-0.8,0.7c0.1,0.1,0.3,0.2,0.4,0.3
				c0.3-0.2,0.5-0.5,0.8-0.7C128.5,70.3,128.7,70,129,69.8z"/>
		</g>
	</g>
	<path class="st43" d="M127.4,98.3c-2.1,0.9-5.8,0.5-8.2-0.9c-2.4-1.4-2.6-3.3-0.5-4.2c2.1-0.9,5.8-0.5,8.2,0.9
		C129.3,95.5,129.6,97.3,127.4,98.3z"/>
	<path class="st68" d="M130.9,74.8c0.4-0.4,1.9-0.9,2-1.3l0.3-1.5c-0.2,0.2-0.6,0.5-0.8,0.7l-0.8,0.6l0.4-0.6c0.1-0.2,0.1-0.3,0-0.3
		c0,0-0.1,0-0.1-0.1c-0.1,0-0.3,0.1-0.4,0.3c-0.4,0.5-0.4,0.3-0.7,0.6c-0.4,0.3-0.5,0.6-0.7,1.3L130.9,74.8z"/>
	<path class="st69" d="M131.5,73.2l0.3-0.5c0.1-0.1,0.1-0.2,0.2-0.3c0-0.1,0-0.2,0-0.2c0,0.1,0,0.1-0.2,0.4
		c-0.1,0.3-0.4,0.7-0.6,0.8C131.3,73.4,131.5,73.3,131.5,73.2z"/>
	<path class="st70" d="M130.9,74.8c0.4-0.4,1.9-0.9,2-1.3l0.2-1c-0.9,0.8-2.1,1.2-2.9,1.7h-0.1v0.1L130.9,74.8z"/>
	<path class="st71" d="M121.7,67.4c0.3,0.2,0.7,0.5,0.3,0.8l0.3,1.7l-1.1,4l1.1,3.7c-0.1,0.2-0.2,0.6-0.4,0.8
		c-0.4,0.3-1,0.5-1.2,0.1l-1.8-4.7c-0.2-0.4-0.1-0.6,0-1.1c0.2-1,0.6-3,0.9-3.6C120.3,68.2,120.7,67.5,121.7,67.4z"/>
	<path class="st72" d="M121.7,67.4c0.3,0.2,0.7,0.5,0.3,0.8l0.3,1.7l-1.1,4l1.1,3.7c-0.1,0.2-0.2,0.6-0.4,0.8
		c-0.4,0.3-0.8,0.5-1,0.1c0-1.1,0-2.2-0.3-3.2c-0.3-1.4-1.2-5.3-0.7-6.3C120.4,68.1,120.7,67.5,121.7,67.4z"/>
	<g>
		<path class="st73" d="M122.9,95.1c-0.2,0.1-0.3,0.2-0.7,0.4v0.3c-0.4,0.6-0.7,0.9-1.2,0.8c-0.7-0.2-0.8-0.4-0.9-0.8
			c-0.1-0.8-0.1-0.9,0.1-1.5c0.6-0.4,1-0.5,1.4-0.7c0.4-0.1,0.9-0.5,1.5-0.6c0.3-0.1,0.5,0.2,0.5,0.4
			C123.8,94,123.3,94.7,122.9,95.1z"/>
		<path class="st74" d="M122.9,95.1c-0.2,0.1-0.3,0.2-0.7,0.4v0.3c-0.4,0.6-0.7,0.9-1.2,0.8c-0.7-0.2-0.8-0.4-0.9-0.8
			c0-0.4-0.1-0.7,0-0.9c0.9,0.4,1.6,0.4,2.4-0.4c0.2-0.3,1-0.9,1-1.4c0.1,0.1,0.2,0.2,0.2,0.3C123.8,94,123.3,94.7,122.9,95.1z"/>
	</g>
	<g>
		<path class="st73" d="M124.4,96.4c0.2,0,0.7-0.8,1.3-0.6c0.8,0.2,1.7-0.3,2.4-0.3c0.1,0,0.3,0,0.4,0c0.3,0.3,0.4,0.5,0.1,0.8
			c-0.2,0.2-0.6,0.6-0.9,0.8c-0.4,0.2-0.6,0.4-1.1,0.6c-0.3,0.1-0.5,0.1-0.8,0.2v0.3c-0.2,0.2-0.5,0.3-0.7,0.3
			c-0.4,0-0.9-0.2-1.2-0.6c0-0.4-0.2-0.8,0-1.4L124.4,96.4z"/>
		<path class="st74" d="M128.7,95.8c0.1,0.2,0.1,0.4-0.1,0.6c-0.2,0.2-0.6,0.6-0.9,0.8c-0.4,0.2-0.6,0.4-1.1,0.6
			c-0.3,0.1-0.5,0.1-0.8,0.2v0.3c-0.2,0.2-0.5,0.3-0.7,0.3c-0.4,0-0.9-0.2-1.2-0.6c0-0.3-0.1-0.6-0.1-1c0.9,0.7,1.4,0.2,1.8,0.2
			c0.5,0,1.2,0,2.3-0.8C128.1,96.2,128.4,96,128.7,95.8z"/>
		<path class="st75" d="M126.2,96.7c0.2-0.4,0.2-0.6,0.1-0.7l1.4-0.3c0.7-0.1,0.8,0,0.6,0.1C127.8,96.4,127,96.5,126.2,96.7z"/>
	</g>
	<path class="st76" d="M124.8,80.2c-0.2,1.7-0.6,6.3-1.1,7.7c-0.8,2.1-1,4-1.5,6.3c-0.1,0.3-0.3,0.6-0.6,0.8
		c-0.6,0.3-1.3,0.3-1.5-0.1c0.1-2.1,0.1-4.3,0.3-5.5c0.1-1,0.2-1.9,0.7-2.6c0.1-0.9,0-3.3,0-5.1c0-1.6,0-2.6,0.4-3.6L124.8,80.2z"/>
	<path class="st47" d="M124.8,80.2c-0.2,1.7-0.6,6.3-1.1,7.7c-0.8,2.1-1,4-1.5,6.3c-0.1,0.3-0.3,0.6-0.6,0.8
		c-0.1,0.1-0.2,0.1-0.3,0.1c0.2-1.7,0.4-4.5,0.8-6.3c0.2-0.8,0.2-1,0.6-1.6c0.1-3,0.1-5.2-0.6-8.1l-0.9,0.4c0.1-0.5,0.2-0.9,0.4-1.4
		L124.8,80.2z"/>
	<path class="st76" d="M127.4,80.9c0.6,3-0.4,6.1-0.8,8.3c-0.4,2.5-0.4,4.6-0.6,7c-0.1,0.7-1.8,1.4-2.5,0.7c-0.1-2.1-0.4-3.9-0.3-5
		c0.1-1,0.1-1.5,0.5-2.4c0-0.9,0-3.5-0.2-5.2c-0.1-1.5-0.7-1.8,0.1-3.6l2.5,0.9L127.4,80.9z"/>
	<path class="st47" d="M127.4,80.9c0.6,3-0.4,6.1-0.8,8.3c-0.4,2.5-0.4,4.6-0.6,7c-0.1,0.4-0.5,0.7-1,0.9c-0.1-2.1-0.2-3.8,0-5.4
		c0.1-0.7,0.2-1.2,0.4-2c0.1-2.5,0.3-5.6,0.4-8.3l0.3,0.1L127.4,80.9z"/>
	<path class="st71" d="M121.5,67.4c-0.7,0.3-1.1,0.8-1.2,1.5c-0.4,2,1,4.8,1.1,7c0.1,1.4-0.8,2.7-0.3,5.1c0.2,0.6,1.3,1.1,1.7,1.4
		c0.2-0.6,0-1.4,0-2.4c0.1,1,0.3,1.6,0.5,2.6c1.2,0.7,3.7,1.4,4.7,0c-0.3-2-1-3.4-0.9-5c0.1-2.7,1.3-4.9,1-6.3
		c-0.1-0.6-0.5-1.1-0.9-1.4C125.9,69,122.7,66.9,121.5,67.4z"/>
	<path class="st72" d="M126.5,83.4c0.5-0.1,1-0.3,1.3-0.8c-0.3-2-0.9-3.9-0.8-5.4c0.1-2.7,1.2-4.5,0.9-5.9c-0.1-0.6-0.5-1.1-0.9-1.4
		s-1.2-0.9-2.1-1.3v0.3c0.7,0.4,1,0.7,1.5,1.3c-1.8,1.7-0.8,5.8-0.5,7.7C126,78.4,126.4,80.7,126.5,83.4z"/>
	<g>
		<path class="st68" d="M126.4,67.6c-0.2,0.1-1.2,0-1.2,0c0,0.6,0.2,0.8,0.2,1.8c-1.2,0.8-2.8-0.1-2.7-0.7c0-0.4,0.2-1.5,0-1.9
			s-0.7-0.8-0.9-1.4c-0.2-0.6-0.2-1.3,0-1.8c0.1-0.3,0.3-0.6,0.6-0.8c1.4-1,3.6-0.4,4.1,1.5c0.1,0.4-0.2,0.5-0.2,0.8
			c0,0.1,0.1,0.1,0.1,0.3C126.6,65.6,126.6,67.5,126.4,67.6z"/>
		<path class="st70" d="M126.4,67.6c-0.2,0.1-1.2,0-1.2,0.1c0,0.6,0.2,0.8,0.2,1.8c-0.7-1-1-1.6-2.6-2.1c0-0.2,0-0.4-0.1-0.5
			c-0.2-0.4-0.7-0.8-0.9-1.4c-0.2-0.6-0.2-1.3,0.1-1.8c0.1-0.3,0.3-0.6,0.6-0.8c1.4-1,3.6-0.4,4.1,1.5c0.1,0.4-0.2,0.5-0.2,0.8
			c0,0.1,0.1,0.1,0.1,0.3C126.6,65.6,126.6,67.5,126.4,67.6z"/>
		<path class="st70" d="M126.3,67.6c-0.1,0.1-0.5,0-0.9-0.1c-0.2-0.1-0.4-0.3-0.4-0.3c-0.1-0.1-0.4-0.5,0-1.1c0.4-0.7-2.3,1-2.4,0.8
			c-0.2-0.4-0.7-0.8-0.9-1.4c-0.2-0.6-0.2-1.3,0.1-1.9c0.1-0.3,0.3-0.5,0.6-0.8c1.5-1.1,3.6-0.4,4.1,1.5c0.1,0.4-0.2,0.5-0.2,0.8
			c0,0.1,0.1,0.1,0.1,0.3C126.6,65.6,126.6,67.5,126.3,67.6z"/>
		<path class="st68" d="M126.4,67.6c0,0-0.3,0-0.4,0c-0.1-0.1-0.3-0.5-0.3-0.6c0-0.6,0.3-1.1,0.3-1.3c0-0.5-0.2-0.3,0-0.8
			c0.1-0.4,0-0.5-0.1-0.9c0.2-0.1,0.3-0.2,0.4-0.4c0.1,0.2,0.2,0.5,0.3,0.7c0.1,0.4-0.2,0.5-0.2,0.8c0,0.1,0.1,0.1,0.1,0.3
			C126.6,65.6,126.6,67.5,126.4,67.6z"/>
		<path class="st70" d="M125.2,66.1c-0.6-0.5-1.1,1.1-0.2,1.1C124.7,66.9,124.9,66.3,125.2,66.1z"/>
		<path class="st68" d="M125.2,66.4c0.1-0.2,0-0.3-0.1-0.3s-0.3,0.2-0.4,0.4c-0.1,0.4,0.1,0.9,0.4,0.7c-0.3,0-0.3-0.4-0.2-0.6
			C125.1,66.4,125.2,66.3,125.2,66.4z"/>
		<path class="st77" d="M125.1,66.5c0.1,0.2,0.1,0.3,0.1,0.3s-0.1,0.1-0.2,0C125,66.7,125,66.5,125.1,66.5z"/>
		<path class="st78" d="M122.7,67.3c-0.1-0.6-0.7-1.1-0.9-1.8c-0.3-0.9-0.2-1.8,0.6-2.5c1.2-0.9,2.7-0.4,3.5,0.6
			c0,0.1-0.1,0.4-0.3,0.5c0.2,0.6,0.1,0.7,0.1,0.8c-0.3,0.5-0.3,0.5-0.3,1.3l-0.2,0.2c-0.1-0.6-0.3-0.5-0.6-0.3
			c-0.4,0.3-0.2,1.5-1.2,1.6C123.1,67.5,122.8,67.5,122.7,67.3z"/>
		<path class="st79" d="M122.7,67.3c-0.1-0.6-0.7-1.1-0.9-1.8c-0.1-0.2-0.1-0.5-0.1-0.7c0.9,0.7,2.5,0.7,4.1-0.1
			c0,0.1,0,0.2-0.1,0.2c-0.3,0.5-0.3,0.5-0.3,1.3l-0.2,0.2c-0.1-0.6-0.3-0.5-0.6-0.3c-0.4,0.3-0.2,1.5-1.2,1.6
			C123.1,67.5,122.8,67.5,122.7,67.3z"/>
		<path class="st79" d="M122.7,67.3c0-0.2-0.1-0.4-0.3-0.7c0.4,0.4,1,0.6,1.8,0.2c-0.2,0.4-0.4,0.8-0.8,0.7
			C123.1,67.5,122.8,67.5,122.7,67.3z"/>
		<path class="st78" d="M122.7,64.4c0.8,0.2,2.1,0,2.9-0.5c0.7-0.4,0.6-0.9,0.5-1.1c-0.1-0.3-0.7-0.5-1.4-0.4c0.1,0,0.2,0,0.3,0
			c-0.9-0.2-1.4-0.1-2.1,0.3c0-0.1,0.1-0.1,0.1-0.1c-0.3,0.1-1.1,0.8-1,1.2C121.9,64,122.3,64.2,122.7,64.4z"/>
		<path class="st79" d="M125.7,62.5c-0.3-0.1-0.6-0.2-1.1-0.2c0.1,0,0.2,0,0.3,0c-0.9-0.2-1.4-0.1-2.1,0.3c0-0.1,0.1-0.1,0.1-0.1
			c-0.2,0.1-0.6,0.4-0.8,0.7c0.6-0.4,1.1-0.5,2.2-0.5c-0.2,0-0.3-0.1-0.4-0.1C124.4,62.7,125.1,62.5,125.7,62.5L125.7,62.5z"/>
		<path class="st78" d="M122.7,64.4c0.8,0.2,2.2,0,2.9-0.5c0.6-0.4,0.8-1.1,0.2-1.3c0.1,0.3-0.1,0.8-0.7,1c-0.1,0,0-0.1,0-0.2
			c-0.4,0.1-0.7,0.5-1.1,0.6c0.1-0.1,0.2-0.1,0.2-0.2c-0.6,0.2-0.9,0.1-1.5,0.2c0.1,0,0.2-0.1,0.2-0.2c-0.5,0.1-0.8,0-1.1-0.1
			c0,0,0,0,0,0.1C121.9,64,122.3,64.2,122.7,64.4z"/>
	</g>
	<path class="st71" d="M127.5,70.4c0.8,0.7,0.7,3.7,0.7,5.9c0,0-0.7,2.2-2.1,0.9c-0.1-1.1-0.2-2.3-0.2-3.4c0-1-0.1-2.9,0.9-3.4
		C127,70.3,127.3,70.3,127.5,70.4z"/>
	<path class="st71" d="M126.7,75.4l3.3-1.8c0.9-0.3,1.3,1.2,1,1.6l-3.4,2.2c-0.6,0.2-1,0.2-1.2,0c-0.3-0.2-0.3-0.7-0.2-1.1
		C126.2,76,126.3,75.7,126.7,75.4z"/>
	<path class="st72" d="M130.9,74.1c0.2,0.4,0.3,0.9,0.1,1.1l-3.4,2.2c-0.6,0.2-1,0.2-1.2,0c-0.1-0.1-0.1-0.1-0.2-0.2
		C126.9,77.4,129.8,75.5,130.9,74.1z"/>
	<path class="st71" d="M121.7,67.7c-0.1,1.7,2,2.5,4.2,2.4c-1.1,1.9-0.7,4.9-0.4,7.6c0.2,1.9,0.8,3.8,0.8,5.4
		c-1,0.2-1.9-0.3-2.7-0.6c-1.1-3.8-0.7-4.4-0.4-6.2c-0.8,1.9-0.7,3.2-0.6,5.8c-0.7-0.4-0.8-0.5-1.4-1.1c-0.5-2.5,0.7-4.8,0.5-5.5
		C120.7,71.9,119.2,68.5,121.7,67.7z"/>
	<path class="st80" d="M123.8,83.4L125,84c0,1.9-0.1,4.2-0.2,6.3c-0.5,1.3-0.4,5.2-0.3,6.9c-0.4,0-0.4,0-0.8-0.2
		c-0.1-3.3-0.4-5.9,0.3-7C124.1,87.5,124,85.8,123.8,83.4z"/>
	<path class="st71" d="M122.2,82.5c0,1.5,0,3.2-0.1,4.7c-0.5,0.7-0.7,1.5-0.8,2.4c-0.3,1.9-0.3,3.6-0.4,5.5c-0.3,0-0.4,0-0.8-0.1
		c0.1-1.9,0.2-3.8,0.4-5.7c0.1-0.8,0.3-1.4,0.8-2.4c0-1.7-0.1-3.4-0.1-5.1C121.7,82.1,121.8,82.2,122.2,82.5z"/>
	<path class="st71" d="M122.7,67.5c-0.1,0-0.2-0.1-0.4-0.1c-0.3,0.1-0.4,0.9-0.3,1.2c0.3,0.6,1,1.1,2,1.3c1.2,0.2,2.6,0,3,0.1
		c0.1,0-1-0.8-1.1-0.8C124.7,68.9,122.5,68.4,122.7,67.5z"/>
	<path class="st81" d="M122.8,67.5c0,0.6,1.6,1,2.5,0.7c0.3,0.1,0.5,0.7,0.5,1c-1.1,0.3-2.9,0.1-3.3-0.8
		C122.4,68.2,122.6,67.7,122.8,67.5z"/>
	<path class="st72" d="M127.5,70.4c0.7,0.6,0.7,2.4,0.7,4.3c-0.3,0.6-0.4,1.1-1,1.6c0.7-1.4,0.1-4.9-0.2-5.9
		C127.1,70.3,127.3,70.3,127.5,70.4z"/>
	<path class="st71" d="M126.9,70.5c0.1,0.7,0.7,3.9,0,5.9c-0.1,0.3-0.5,0.5-0.7,0.5C126.2,73.9,125.9,71.2,126.9,70.5z"/>
</g>
<g>
	<polygon class="st82" points="139.5,114.3 139.5,114.4 129.6,108.7 115.2,117.1 114.5,116.5 114.1,116.4 114.1,117.7 125.5,124.3 
		141,115.3 141,114.1 	"/>
	<polygon class="st64" points="141,114.1 125.5,123 114.1,116.5 129.6,107.5 	"/>
	<polygon class="st83" points="126.8,121.3 117.1,115.7 116.4,116.1 126.1,121.7 	"/>
	<polygon class="st83" points="128.3,120.5 118.6,114.9 117.9,115.3 127.6,120.9 	"/>
	<polygon class="st83" points="129.8,119.6 120.1,114 119.4,114.4 129.1,120 	"/>
	<polygon class="st83" points="131.3,118.7 121.6,113.1 120.9,113.5 130.6,119.1 	"/>
	<polygon class="st83" points="132.8,117.9 123.1,112.3 122.4,112.7 132.1,118.3 	"/>
	<polygon class="st83" points="134.3,117 124.6,111.4 123.9,111.8 133.6,117.4 	"/>
	<polygon class="st83" points="135.7,116.1 126.1,110.5 125.4,110.9 135.1,116.5 	"/>
	<polygon class="st83" points="137.2,115.3 127.5,109.7 126.9,110.1 136.5,115.7 	"/>
	<polygon class="st83" points="138,114.8 138.7,114.4 129,108.8 128.3,109.2 	"/>
	<polygon class="st71" points="139.5,112.3 139.5,112.5 129.6,106.7 115.2,115.1 114.5,114.5 114.1,114.4 114.1,115.7 125.5,122.3 
		141,113.3 141,112.1 	"/>
	<polygon class="st64" points="141,112.1 125.5,121.1 114.1,114.5 129.6,105.5 	"/>
	<polygon class="st83" points="126.8,119.3 117.1,113.7 116.4,114.1 126.1,119.7 	"/>
	<polygon class="st83" points="128.3,118.5 118.6,112.9 117.9,113.3 127.6,118.9 	"/>
	<polygon class="st83" points="129.8,117.6 120.1,112 119.4,112.4 129.1,118 	"/>
	<polygon class="st83" points="131.3,116.7 121.6,111.1 120.9,111.5 130.6,117.1 	"/>
	<polygon class="st83" points="132.8,115.9 123.1,110.3 122.4,110.7 132.1,116.3 	"/>
	<polygon class="st83" points="134.3,115 124.6,109.4 123.9,109.8 133.6,115.4 	"/>
	<polygon class="st83" points="135.7,114.1 126.1,108.5 125.4,108.9 135.1,114.5 	"/>
	<polygon class="st83" points="137.2,113.3 127.5,107.7 126.9,108.1 136.5,113.7 	"/>
	<polygon class="st83" points="138,112.8 138.7,112.4 129,106.8 128.3,107.2 	"/>
	<polygon class="st71" points="139.5,110.4 139.5,110.5 129.6,104.8 115.2,113.1 114.5,112.6 114.1,112.4 114.1,113.8 125.5,120.3 
		141,111.3 141,110.1 	"/>
	<polygon class="st64" points="141,110.1 125.5,119.1 114.1,112.5 129.6,103.5 	"/>
	<polygon class="st83" points="126.8,117.3 117.1,111.8 116.4,112.2 126.1,117.8 	"/>
	<polygon class="st83" points="128.3,116.5 118.6,110.9 117.9,111.3 127.6,116.9 	"/>
	<polygon class="st83" points="129.8,115.6 120.1,110 119.4,110.4 129.1,116 	"/>
	<polygon class="st83" points="131.3,114.7 121.6,109.2 120.9,109.6 130.6,115.2 	"/>
	<polygon class="st83" points="132.8,113.9 123.1,108.3 122.4,108.7 132.1,114.3 	"/>
	<polygon class="st83" points="134.3,113 124.6,107.4 123.9,107.8 133.6,113.4 	"/>
	<polygon class="st83" points="135.7,112.1 126.1,106.6 125.4,107 135.1,112.6 	"/>
	<polygon class="st83" points="137.2,111.3 127.5,105.7 126.9,106.1 136.5,111.7 	"/>
	<polygon class="st83" points="138,110.8 138.7,110.4 129,104.8 128.3,105.2 	"/>
	<polygon class="st71" points="139.5,108.4 139.5,108.5 129.6,102.8 115.2,111.1 114.5,110.6 114.1,110.5 114.1,111.8 125.5,118.4 
		141,109.4 141,108.1 	"/>
	<polygon class="st64" points="141,108.1 125.5,117.1 114.1,110.5 129.6,101.5 	"/>
	<polygon class="st83" points="126.8,115.4 117.1,109.8 116.4,110.2 126.1,115.8 	"/>
	<polygon class="st83" points="128.3,114.5 118.6,108.9 117.9,109.3 127.6,114.9 	"/>
	<polygon class="st83" points="129.8,113.6 120.1,108 119.4,108.4 129.1,114 	"/>
	<polygon class="st83" points="131.3,112.8 121.6,107.2 120.9,107.6 130.6,113.2 	"/>
	<polygon class="st83" points="132.8,111.9 123.1,106.3 122.4,106.7 132.1,112.3 	"/>
	<polygon class="st83" points="134.3,111 124.6,105.4 123.9,105.8 133.6,111.4 	"/>
	<polygon class="st83" points="135.7,110.2 126.1,104.6 125.4,105 135.1,110.6 	"/>
	<polygon class="st83" points="137.2,109.3 127.5,103.7 126.9,104.1 136.5,109.7 	"/>
	<polygon class="st83" points="138,108.8 138.7,108.4 129,102.8 128.3,103.2 	"/>
	<polygon class="st71" points="139.5,106.4 139.5,106.5 129.6,100.8 115.2,109.2 114.5,108.6 114.1,108.5 114.1,109.8 125.5,116.4 
		141,107.4 141,106.1 	"/>
	<polygon class="st64" points="141,106.1 125.5,115.1 114.1,108.5 129.6,99.5 	"/>
	<polygon class="st83" points="126.8,113.4 117.1,107.8 116.4,108.2 126.1,113.8 	"/>
	<polygon class="st83" points="128.3,112.5 118.6,106.9 117.9,107.3 127.6,112.9 	"/>
	<polygon class="st83" points="129.8,111.6 120.1,106 119.4,106.5 129.1,112 	"/>
	<polygon class="st83" points="131.3,110.8 121.6,105.2 120.9,105.6 130.6,111.2 	"/>
	<polygon class="st83" points="132.8,109.9 123.1,104.3 122.4,104.7 132.1,110.3 	"/>
	<polygon class="st83" points="134.3,109 124.6,103.4 123.9,103.9 133.6,109.4 	"/>
	<polygon class="st83" points="135.7,108.2 126.1,102.6 125.4,103 135.1,108.6 	"/>
	<polygon class="st83" points="137.2,107.3 127.5,101.7 126.9,102.1 136.5,107.7 	"/>
	<polygon class="st83" points="138,106.8 138.7,106.4 129,100.8 128.3,101.3 	"/>
	<polygon class="st71" points="139.5,104.4 139.5,104.5 129.6,98.8 115.2,107.2 114.5,106.6 114.1,106.5 114.1,107.8 125.5,114.4 
		141,105.4 141,104.1 	"/>
	<polygon class="st84" points="141,104.1 125.5,113.1 114.1,106.5 129.6,97.5 	"/>
	<polygon class="st46" points="126.8,111.4 117.1,105.8 116.4,106.2 126.1,111.8 	"/>
	<polygon class="st46" points="128.3,110.5 118.6,104.9 117.9,105.3 127.6,110.9 	"/>
	<polygon class="st46" points="129.8,109.7 120.1,104.1 119.4,104.5 129.1,110.1 	"/>
	<polygon class="st46" points="131.3,108.8 121.6,103.2 120.9,103.6 130.6,109.2 	"/>
	<polygon class="st46" points="132.8,107.9 123.1,102.3 122.4,102.7 132.1,108.3 	"/>
	<polygon class="st46" points="134.3,107.1 124.6,101.5 123.9,101.9 133.6,107.5 	"/>
	<polygon class="st46" points="135.7,106.2 126.1,100.6 125.4,101 135.1,106.6 	"/>
	<polygon class="st46" points="137.2,105.3 127.5,99.7 126.9,100.1 136.5,105.7 	"/>
	<polygon class="st46" points="138,104.9 138.7,104.5 129,98.9 128.3,99.3 	"/>
	<path class="st46" d="M129.7,104.9c0,0.1,0,0.3,0,0.4s0,0.3,0,0.4h1v-0.8H129.7z"/>
	<polygon class="st47" points="129.7,105.7 129.7,106.7 130.7,106.7 130.7,105.7 	"/>
	<polygon class="st10" points="130.7,105.9 130.7,106.9 140.9,106.9 140.9,105.9 	"/>
	<polygon class="st11" points="130.7,104.7 130.7,104.9 130.7,105.7 130.7,105.9 140.9,105.9 141,104.7 	"/>
	<path class="st14" d="M124.7,108.3c1.4,0,2.7-0.3,3.6-0.9c0.8-0.4,1.3-1,1.4-1.7c0-0.1,0-0.3,0-0.4l0,0v1l0,0c0,0.1,0,0.3,0,0.4
		c-0.2,0.6-0.7,1.2-1.4,1.7c-0.9,0.5-2.2,0.9-3.6,0.9c-2.8,0-5-1.3-5-2.9v-1C119.7,106.9,122,108.3,124.7,108.3"/>
	<path class="st85" d="M121.8,103.6c-0.8,0.4-1.2,1-1.2,1.7s0.5,1.3,1.2,1.7c0.7,0.4,1.8,0.7,2.9,0.7s2.2-0.3,2.9-0.7
		c0.8-0.4,1.2-1,1.2-1.7s-0.5-1.3-1.2-1.7c-0.7-0.4-1.8-0.7-2.9-0.7C123.6,102.9,122.6,103.2,121.8,103.6"/>
	<path class="st15" d="M119.7,105.3c0,1.6,2.2,2.9,5,2.9c1.4,0,2.7-0.3,3.6-0.9c0.8-0.4,1.3-1,1.4-1.7c0-0.1,0-0.3,0-0.4
		s0-0.3,0-0.4c-0.3-1.4-2.4-2.5-5-2.5c-1.4,0-2.7,0.3-3.6,0.9C120.3,103.8,119.7,104.5,119.7,105.3 M120.6,105.3
		c0-0.7,0.5-1.3,1.2-1.7c0.8-0.4,1.8-0.7,2.9-0.7s2.2,0.3,2.9,0.7c0.7,0.4,1.2,1,1.2,1.7s-0.5,1.3-1.2,1.7c-0.8,0.4-1.8,0.7-2.9,0.7
		s-2.2-0.3-2.9-0.7C121.1,106.6,120.6,106,120.6,105.3z"/>
	<path class="st64" d="M124.6,107.7c-0.7,0-1.4-0.1-2-0.4l5.7-3.3c0.4,0.3,0.6,0.7,0.6,1.2L124.6,107.7z"/>
	<path class="st64" d="M126,103c0.6,0.1,1.2,0.3,1.7,0.6l-5.9,3.4c-0.5-0.3-0.8-0.6-1-1L126,103z"/>
</g>
<g>
	<ellipse class="st86" cx="74.6" cy="106" rx="17.8" ry="9.1"/>
	<g>
		<path class="st87" d="M88.5,102.8H57.2v2.8l0,0v0.1c0,5,7,9.1,15.7,9.1s15.7-4.1,15.7-9.1v-0.1l0,0L88.5,102.8L88.5,102.8z"/>
		<ellipse class="st88" cx="72.8" cy="102.9" rx="15.7" ry="9.1"/>
		
			<radialGradient id="SVGID_4_" cx="67.8147" cy="214.7529" r="11.5671" gradientTransform="matrix(1 0 0 1 0 -104)" gradientUnits="userSpaceOnUse">
			<stop  offset="0" style="stop-color:#FFFFFF"/>
			<stop  offset="1" style="stop-color:#000000"/>
		</radialGradient>
		<path class="st89" d="M72.8,112c-8.6,0-15.5-4-15.7-9c0,0.1,0,0.1,0,0.2c0,5,7,9.1,15.7,9.1s15.7-4.1,15.7-9.1c0-0.1,0-0.1,0-0.2
			C88.4,108,81.4,112,72.8,112z"/>
	</g>
	<g>
		<path class="st90" d="M87.3,98.7h-29v3.8l0,0v0.1c0,4.7,6.5,8.4,14.5,8.4s14.5-3.8,14.5-8.4v-0.1l0,0V98.7z"/>
		<ellipse class="st88" cx="72.8" cy="98.7" rx="14.5" ry="8.4"/>
		<ellipse class="st91" cx="72.8" cy="98.7" rx="12.8" ry="7.5"/>
		
			<radialGradient id="SVGID_5_" cx="68.2014" cy="209.9895" r="10.6783" gradientTransform="matrix(1 0 0 1 0 -104)" gradientUnits="userSpaceOnUse">
			<stop  offset="0" style="stop-color:#FFFFFF"/>
			<stop  offset="1" style="stop-color:#000000"/>
		</radialGradient>
		<path class="st92" d="M72.8,107.1c-7.9,0-14.3-3.7-14.5-8.3c0,0.1,0,0.1,0,0.2c0,4.7,6.5,8.4,14.5,8.4s14.5-3.8,14.5-8.4
			c0-0.1,0-0.1,0-0.2C87.2,103.4,80.8,107.1,72.8,107.1z"/>
	</g>
</g>
<g>
	<g>
		<path class="st93" d="M104.5,115.4l-14.1,7.5c-0.2,0.1-0.3,0.5,0,0.7l19.2,11.1c0.5,0.3,1.2,0.3,1.8,0l13.6-7.1
			c0.1-0.1,0.1-0.3,0-0.4L104.5,115.4z"/>
		<g>
			<path class="st57" d="M124.5,109.1l-19.4-11.2c-0.6-0.3-1,0.2-1,0.6v15.8l20,11.8l-12.8,7.4c-0.5,0.3-1.2,0.3-1.8,0l-19.2-11.1
				c-0.2-0.1-0.2-0.3-0.2-0.5c-0.2,0.3-0.1,0.7,0.3,0.9l19.1,11c0.5,0.3,1.2,0.3,1.8,0l13.6-7.3l0,0c0.2-0.1,0.3-0.3,0.3-0.5v-15.8
				C125.2,109.7,124.9,109.3,124.5,109.1z"/>
			<g>
				<g>
					<g>
						<path class="st0" d="M124.9,110.4v15.2l-20.8-12V98.4c0-0.4,0.4-0.6,0.7-0.4l19.4,11.2C124.7,109.5,124.9,109.9,124.9,110.4z"
							/>
					</g>
					<g>
						<polygon class="st94" points="124.1,110.2 124.1,124.2 105,113.2 105,99.2 						"/>
					</g>
				</g>
				
					<linearGradient id="SVGID_6_" gradientUnits="userSpaceOnUse" x1="103.6305" y1="232.8526" x2="111.9454" y2="221.9676" gradientTransform="matrix(1 0 0 1 0 -104)">
					<stop  offset="0" style="stop-color:#F4F9F4"/>
					<stop  offset="0.9966" style="stop-color:#D8EFFC"/>
				</linearGradient>
				<path class="st95" d="M104.2,113.6l-13.8,8c-0.3,0.2-0.3,0.6,0,0.7l19.2,11.1c0.5,0.3,1.2,0.3,1.8,0l13.6-7.9L104.2,113.6z"/>
				<g>
					<polygon class="st96" points="104.3,114.5 96.7,118.9 115.5,129.7 123.1,125.3 					"/>
					<path class="st57" d="M120.3,124.3l-1.1-0.7l-0.9,0.5l1.1,0.7L120.3,124.3L120.3,124.3z M118.7,123.4l-1.1-0.7l-0.9,0.5
						l1.1,0.7L118.7,123.4L118.7,123.4z M117,122.4l-1.1-0.7l-0.9,0.5l1.1,0.7L117,122.4L117,122.4z M115.4,121.5l-1.1-0.7l-0.9,0.5
						l1.1,0.7L115.4,121.5L115.4,121.5z M113.7,120.5l-1.1-0.7l-0.9,0.5l1.1,0.7L113.7,120.5L113.7,120.5z M112.1,119.6l-1.1-0.7
						l-0.9,0.5l1.1,0.7L112.1,119.6L112.1,119.6z M110.4,118.6l-1.1-0.7l-0.9,0.5l1.1,0.7L110.4,118.6L110.4,118.6z M108.8,117.7
						l-1.1-0.7l-0.9,0.5l1.1,0.7L108.8,117.7L108.8,117.7z M107.1,116.7L106,116l-0.9,0.5l1.1,0.7L107.1,116.7L107.1,116.7z
						 M105.5,115.8l-1.1-0.7l-0.9,0.5l1.1,0.7L105.5,115.8L105.5,115.8z M120.6,126.1l-1.1-0.7l-0.9,0.5l1.1,0.7L120.6,126.1
						L120.6,126.1z M118.9,125.1l-1.1-0.7l-0.9,0.5l1.1,0.7L118.9,125.1L118.9,125.1z M117.3,124.2l-1.1-0.7l-0.9,0.5l1.1,0.7
						L117.3,124.2L117.3,124.2z M115.6,123.2l-1.1-0.7l-0.9,0.5l1.1,0.7L115.6,123.2L115.6,123.2z M114,122.3l-1.1-0.7l-0.9,0.5
						l1.1,0.7L114,122.3L114,122.3z M112.4,121.3l-1.1-0.7l-0.9,0.5l1.1,0.7L112.4,121.3L112.4,121.3z M110.7,120.4l-1.1-0.7
						l-0.9,0.5l1.1,0.7L110.7,120.4L110.7,120.4z M109.1,119.4l-1.1-0.7l-0.9,0.5l1.1,0.7L109.1,119.4L109.1,119.4z M107.4,118.5
						l-1.1-0.7l-0.9,0.5l1.1,0.7L107.4,118.5L107.4,118.5z M105.8,117.5l-1.1-0.7l-0.9,0.5l1.1,0.7L105.8,117.5L105.8,117.5z
						 M104.1,116.6l-1.1-0.7l-0.9,0.5l1.1,0.7L104.1,116.6L104.1,116.6z M119.2,126.8l-1.1-0.7l-0.9,0.5l1.1,0.7L119.2,126.8
						L119.2,126.8z M117.6,125.9l-1.1-0.7l-0.9,0.5l1.1,0.7L117.6,125.9L117.6,125.9z M115.9,125l-1.1-0.7l-0.9,0.5l1.1,0.7
						L115.9,125L115.9,125z M114.3,124l-1.1-0.7l-0.9,0.5l1.1,0.7L114.3,124L114.3,124z M112.6,123.1l-1.1-0.7l-0.9,0.5l1.1,0.7
						L112.6,123.1L112.6,123.1z M111,122.1l-1.1-0.7L109,122l1.1,0.7L111,122.1L111,122.1z M109.4,121.2l-1.1-0.7l-0.9,0.5l1.1,0.7
						L109.4,121.2L109.4,121.2z M107.7,120.2l-1.1-0.7l-0.9,0.5l1.1,0.7L107.7,120.2L107.7,120.2z M106.1,119.3l-1.1-0.7l-0.9,0.5
						l1.1,0.7L106.1,119.3L106.1,119.3z M104.4,118.3l-1.1-0.7l-0.9,0.5l1.1,0.7L104.4,118.3L104.4,118.3z M102.8,117.4l-1.1-0.7
						l-0.9,0.5l1.1,0.7L102.8,117.4L102.8,117.4z M117.9,127.6l-2.8-1.6l-0.9,0.5l2.8,1.6L117.9,127.6L117.9,127.6z M114.6,125.7
						l-1.1-0.7l-0.9,0.5l1.1,0.7L114.6,125.7L114.6,125.7z M112.9,124.8l-1.1-0.7l-0.9,0.5l1.1,0.7L112.9,124.8L112.9,124.8z
						 M111.3,123.8l-1.1-0.7l-0.9,0.5l1.1,0.7L111.3,123.8L111.3,123.8z M109.6,122.9l-1.1-0.7l-0.9,0.5l1.1,0.7L109.6,122.9
						L109.6,122.9z M108,121.9l-1.1-0.7l-0.9,0.5l1.1,0.7L108,121.9L108,121.9z M106.4,121l-1.1-0.7l-0.9,0.5l1.1,0.7L106.4,121
						L106.4,121z M104.7,120l-1.1-0.7l-0.9,0.5l1.1,0.7L104.7,120L104.7,120z M103.1,119.1l-2.8-1.6l-0.9,0.5l2.8,1.6L103.1,119.1
						L103.1,119.1z M116.5,128.4l-1.1-0.7l-0.9,0.5l1.1,0.7L116.5,128.4L116.5,128.4z M114.9,127.5l-1.1-0.7l-0.9,0.5l1.1,0.7
						L114.9,127.5L114.9,127.5z M113.2,126.5l-1.1-0.7l-0.9,0.5l1.1,0.7L113.2,126.5L113.2,126.5z M111.6,125.6l-7.7-4.5l-0.9,0.5
						l7.7,4.5L111.6,125.6L111.6,125.6z M103.3,120.8l-1.1-0.7l-0.9,0.5l1.1,0.7L103.3,120.8L103.3,120.8z M101.7,119.9l-1.1-0.7
						l-0.9,0.5l1.1,0.7L101.7,119.9L101.7,119.9z M100.1,118.9l-1.1-0.7l-0.9,0.5l1.1,0.7L100.1,118.9L100.1,118.9z M121.9,125.3
						l-1.1-0.7l-0.9,0.5l1.1,0.7L121.9,125.3L121.9,125.3z"/>
				</g>
				<polygon class="st96" points="102.6,123.1 98,125.8 104,129.3 108.7,126.6 				"/>
				<g>
					<g>
						<polygon class="st97" points="123.6,126.5 123.6,127 124.5,126.5 124.5,126 						"/>
					</g>
					<polygon class="st98" points="124.5,126.5 124.1,126.3 124.5,126 					"/>
				</g>
				
					<linearGradient id="SVGID_7_" gradientUnits="userSpaceOnUse" x1="91.8642" y1="231.1301" x2="111.6689" y2="227.8545" gradientTransform="matrix(1 0 0 1 0 -104)">
					<stop  offset="0" style="stop-color:#9A7CB7"/>
					<stop  offset="1" style="stop-color:#5155A4"/>
				</linearGradient>
				<polygon class="st99" points="102.6,123.2 108.7,126.6 108.7,126.6 102.6,123.1 98,125.8 98,125.8 				"/>
			</g>
		</g>
	</g>
	<g>
		<path class="st25" d="M116.8,117.2l-5.8-3.4c-0.3-0.2-0.5-0.5-0.5-0.9V107c0-0.4,0.5-0.7,0.8-0.5l5.8,3.4c0.3,0.2,0.5,0.5,0.5,0.9
			v5.9C117.7,117.1,117.2,117.4,116.8,117.2z"/>
		<path class="st4" d="M113.8,110.6l-1.1-0.6l1.4-0.6l1.4,2.2l-1.1-0.6v2.1l-0.6-0.3C113.8,112.8,113.8,110.6,113.8,110.6z
			 M115.3,113.3v0.7l-2.4-1.4v-0.7l-0.6-0.3v1.3l3.6,2.1v-1.3L115.3,113.3z"/>
	</g>
</g>
<g>
	<path class="st100" d="M58.4,111.5c0,0-0.1,1.3-0.7,2.1c-0.6,0.7-3.2,2.4-3,3.1s2.1,0.8,3.3-0.5c1.2-1.2,1.5-1.4,2-1.5
		s1.2-0.8,0.7-1.9C60.7,112.8,59.1,112.3,58.4,111.5z"/>
	<path class="st100" d="M61.8,113.9c0,0-0.2,1.4-0.8,2.1c-0.7,0.7-3.6,2.3-3.4,3.1c0.2,0.8,2.2,1,3.5-0.3c1.3-1.2,1.7-1.4,2.2-1.5
		s1.4-0.7,0.9-1.9C64.2,115.5,62.5,114.9,61.8,113.9z"/>
	<path class="st101" d="M68.9,93.9c0,0-9.6,5.4-10.2,7.1c-0.8,2.4-0.7,4.1-0.3,10.2v1.4c0,0,1.2,1,2.6,0.3c0.4-0.2,0-4.2,0.7-6.4
		c0,0,0.2-2.6,0-3.3c0,0,7.8-2.7,9.6-4.4C73,97.1,68.9,93.9,68.9,93.9z"/>
	<path class="st55" d="M77.1,95.6c0,0,1.5,3.5-2.6,5.6c-4.3,2.2-8.9,4.9-8.9,4.9s0.1,2.7-0.2,4.4c-0.5,2.2-1.1,5.2-1.1,5.2
		s-1.9,0.7-2.9-0.3c0,0-0.1-10.7,1.2-12c1.3-1.2,7.6-6,7.6-6L69,93.9L77.1,95.6z"/>
	<path class="st101" d="M74.5,101.2c-4.3,2.2-8.9,4.9-8.9,4.9s0.1,2.7-0.2,4.4c-0.5,2.2-0.8,5-0.8,5s-0.7,0.2-1.1,0.2
		c0.6-2.9,0.9-9.3,1.2-10.5c0.4-1.5,4.9-3,8.2-4.7c3.2-1.7,3.4-5.1,3.4-5.1l0.8,0.2C77.1,95.6,78.6,99.1,74.5,101.2z"/>
	<path class="st55" d="M58,111c-0.4-6.1-0.2-7.5,0.6-10c0.6-1.7,10.2-7.1,10.2-7.1s0.5,0.4,1.1,1c-2.6,1.3-8.8,4.5-10,6.7
		c-1.3,2.5-0.3,9.5-0.5,11.5c-0.6,0-1.4-0.4-1.4-0.4L58,111z"/>
	<path class="st35" d="M64.6,91.8c0,0-1.4-0.2-1.9,0.3c-0.6,0.5-1,0.6-1.3,1.2c-0.3,0.5,0,0.8,0.5,0.7c0.5,0,1.2-0.3,1.9-0.7
		c0.7-0.4,0.8-0.3,1-0.4C64.9,92.9,65.2,92.2,64.6,91.8z"/>
	<path class="st54" d="M70.5,81.3c-0.7-0.1-1.7,0.3-1.7,2.1c0,1.8,0.2,6.7,0.2,6.7s-4.5,1.3-5,1.6c0,0,0.9,0.4,0.7,1.4
		c0,0,5.3,0.1,6.2-1.2C71.8,90.6,73.2,81.6,70.5,81.3z"/>
	<path class="st0" d="M78.2,84.8c0,0-1.6-2.7-7.8-3.6c0,0-1-0.4-0.9,2.8c0,0.5-0.5,1.3-0.8,1.7c-0.3,0.4-1.2,2,0.7,4
		c0,0,0.7,2.9-0.1,4.7c-0.8,1.7,3.3,3.3,6.8,3c0.4,0,1.4-0.3,1-1.8s-1.3-4.1-0.6-6.9C77.2,85.9,78.6,86.2,78.2,84.8z"/>
	<path class="st54" d="M78.2,84.8c0.5,1.4-1,1.1-1.7,3.8c-0.7,2.8,0.2,5.4,0.6,6.9s-0.6,1.8-1,1.8c-0.6,0.1-1.2,0.1-1.8,0
		c1.2-2.7-0.3-7.6-0.4-10.3c-0.1-2.9,2.5-4,2.5-4C77.7,84,78.2,84.8,78.2,84.8z"/>
	<g>
		<path class="st42" d="M71.5,76.2c0,0,0.4,3.2,0.6,6.3c0,0.4-0.4,1.2-1.3,1c0,0-2.3-3.7-0.5-7.3c0.6-1.2,2.7-2.8,5.2-1.1L71.5,76.2
			z"/>
		<g>
			<path class="st35" d="M70.8,80.4c0,0,1.1,1.3,0.6,2.7c-0.1,0.4-0.5,2,1.9,1.3c0,0,2.5-1.3,1.7-2c-0.5-0.5-1-1.2-0.3-3.8
				L70.8,80.4z"/>
			<path class="st41" d="M75.1,82.4c0.1,0.1,0.1,0.2,0.1,0.3c-2.3,0.5-3.9-1.1-3.9-1.1l3-2.6l0,0c0,0,0.2,0.1,0.4,0.3
				C74.1,81.3,74.6,82,75.1,82.4z"/>
		</g>
		<path class="st35" d="M71.2,75.8c0,0-0.6,0.2-0.7,2.1c0,0.2-0.3,0.5-0.4,1s-0.2,2.7,1,2.9c0.9,0.2,3.1-0.4,3.8-2.6
			C75.7,77.2,73.9,74.4,71.2,75.8z"/>
		<path class="st56" d="M71.3,76.6c0,0,5.5,2,1.4,9.1c0,0,2.9,0.3,4.1-2.2c0.6-1.2,0.4-3.6,0.2-5.9c0,0-0.6-3.5-3.6-3
			C73.4,74.7,71.5,75.4,71.3,76.6z"/>
		<path class="st56" d="M71.3,76.6c0,0-1-0.2-1.4,1.6c0,0,0.2-5,4.9-3.5C74.8,74.7,71.9,74.9,71.3,76.6z"/>
		<path class="st102" d="M73.9,79.7c0,0,0.3-1.1,0.9-0.7c0.2,0.1,0.4,0.3,0.1,0.9s-0.9,1-1.4,1L73.9,79.7z"/>
	</g>
	<g>
		<g>
			<g class="st21">
				<g>
					<polygon class="st57" points="71.7,97.4 71.7,97.7 67.5,100.7 67.5,100.4 					"/>
				</g>
				<g>
					<polygon class="st103" points="67.5,100.4 67.5,100.7 59.6,97.1 59.6,96.8 					"/>
				</g>
				<g>
					<polygon class="st3" points="71.7,97.4 67.5,100.4 59.6,96.8 63.8,93.8 					"/>
				</g>
			</g>
		</g>
		<g>
			<g class="st21">
				<g>
					<polygon class="st57" points="66.2,95.5 66.5,95.2 67.8,100.4 67.5,100.7 					"/>
				</g>
				<g>
					<polygon class="st28" points="58,91.7 58.3,91.4 66.5,95.2 66.2,95.5 					"/>
				</g>
				<g>
					<polygon class="st32" points="66.2,95.5 67.5,100.7 59.3,96.9 58,91.7 					"/>
				</g>
				<g>
					<polygon class="st28" points="66.2,95.5 66.2,95.5 59.3,96.9 58,91.7 					"/>
				</g>
			</g>
		</g>
	</g>
	<g>
		<path class="st35" d="M71,94.4c0,0-1.4,0.2-1.8,0.8c-0.4,0.6-1,1.3-1.1,1.9s0,0.7,0.5,0.6c0.4-0.2,1.5-1,2-1.6s0.7-0.5,0.9-0.6
			C71.7,95.3,71.8,94.6,71,94.4z"/>
		<path class="st104" d="M71.5,95.4c-0.2,0.1-0.3,0-0.9,0.6c-0.5,0.6-1.6,1.5-2,1.6c-0.1,0-0.1,0-0.2,0c0.3-0.4,0.8-1.1,1.3-1.6
			c0.6-0.7,1.6-1.1,1.9-1.2C71.7,95.1,71.6,95.3,71.5,95.4z"/>
		<path class="st54" d="M77.5,84.1c-0.7-0.1-1.7,0.3-1.7,2c0,1.8,0.1,6.7,0.1,6.7s-4.6,1.3-5.1,1.5c0,0,0.9,0.3,0.7,1.2
			c0,0,5.3,0.4,6.2-0.9C78.7,93.4,80.2,84.5,77.5,84.1z"/>
		<path class="st0" d="M70.8,94.3c0.5-0.2,5.1-1.5,5.1-1.5s-0.1-4.9-0.1-6.7c0-1.8,1.1-2.1,1.7-2c0.2,0,0.3,0.1,0.5,0.2v0.1
			c0,0-1.5,0.8-1.4,4s1.5,5-1.1,5.5c-1.6,0.3-3.1,0.7-4.1,0.9C71.2,94.4,70.8,94.3,70.8,94.3z"/>
	</g>
</g>
</svg>
