<svg xmlns="http://www.w3.org/2000/svg" xmlns:xlink="http://www.w3.org/1999/xlink" viewBox="0 0 150 150"><defs><style>.cls-1{fill:none;}.cls-2{fill:#0098ca;}.cls-3{fill:#426ab2;}.cls-4{fill:#4cc1ec;}.cls-5{fill:#bedef4;}.cls-6{fill:#93d8f7;}.cls-7,.cls-8{fill:#fff;}.cls-7{opacity:0.1;}.cls-34,.cls-35,.cls-44,.cls-7{isolation:isolate;}.cls-9{fill:#ffb037;}.cls-10{fill:#fa4f47;}.cls-11{fill:url(#linear-gradient);}.cls-12{fill:#bbdaf9;}.cls-13{fill:#e1edf9;}.cls-14{fill:#f89f1b;}.cls-15{fill:#6aa6da;}.cls-16{fill:#527fa0;}.cls-17{fill:#efc6b4;}.cls-18{fill:#053552;}.cls-19{fill:#c7a395;}.cls-20{fill:#00537e;}.cls-21{fill:#85423b;}.cls-22{fill:#572b26;}.cls-23{clip-path:url(#clip-path);}.cls-24{fill:#a7d0f9;}.cls-25{clip-path:url(#clip-path-2);}.cls-26{clip-path:url(#clip-path-3);}.cls-27{fill:#f99f27;}.cls-28{fill:#a3aed8;}.cls-29{fill:#528ac8;}.cls-30,.cls-34,.cls-35{fill:#b8822c;}.cls-31{fill:#c9942c;}.cls-32{fill:#dbb227;}.cls-33{fill:#f2f2f2;}.cls-34{opacity:0.5;}.cls-35,.cls-44{opacity:0.4;}.cls-36{fill:#e8e4e4;}.cls-37{fill:#f7f4f3;}.cls-38{fill:#8eaedb;}.cls-39{fill:#7e9dd1;}.cls-40{fill:#45bee4;}.cls-41{fill:#96ca67;}.cls-42{fill:#f05c5a;}.cls-43{fill:#e0e8f2;}.cls-44{fill:#aca5a2;}.cls-45{fill:url(#linear-gradient-2);}.cls-46{clip-path:url(#clip-path-4);}.cls-47{fill:url(#linear-gradient-3);}.cls-48{fill:#c6c4c3;}.cls-49{fill:#f0c219;}.cls-50{fill:#fddd3c;}.cls-51{fill:#252321;}.cls-52{fill:#5681c2;}.cls-53{fill:#5d6491;}.cls-54{fill:#335689;}.cls-55{fill:#3b5171;}.cls-56{fill:#373432;}.cls-57{fill:#40474f;}.cls-58{fill:#f8f6ee;}.cls-59{fill:#253a7a;}.cls-60{fill:#7287a5;}.cls-61{fill:#f2a983;}.cls-62{fill:#fabc9e;}.cls-63{fill:#724b30;}.cls-64{fill:#afb4af;}.cls-65{fill:#2a4c95;}.cls-66{fill:#bcb5c5;}.cls-67{fill:#523419;}.cls-68{fill:#1b1d1e;}.cls-69{fill:#252e65;}.cls-70{fill:#664834;}.cls-71{fill:#83afc5;}.cls-72{fill:#0099bc;}.cls-73{fill:#3c6cac;}.cls-74{fill:#f36d21;}.cls-75{fill:#e2eefa;}.cls-76{fill:#f7941d;}.cls-77{fill:#0099cd;}.cls-78{fill:#00ccf9;}.cls-79{fill:#80addc;}.cls-80{fill:#bad6f0;}.cls-81{fill:#f6f7fb;}.cls-82{fill:#f26c21;}.cls-83{fill:#0098cc;}.cls-84{fill:#8aa4be;}.cls-85{fill:#91d5e2;}.cls-86{fill:#efa85a;}</style><linearGradient id="linear-gradient" x1="108.91" y1="-60.11" x2="131.74" y2="-73.29" gradientTransform="translate(0 99.89)" gradientUnits="userSpaceOnUse"><stop offset="0.02" stop-color="#ebffff"/><stop offset="1" stop-color="#fff"/></linearGradient><clipPath id="clip-path"><path id="SVGID" class="cls-1" d="M76.29,5.35l.6.4a1.18,1.18,0,0,0-1,.1l-.6-.4A.92.92,0,0,1,76.29,5.35Z"/></clipPath><clipPath id="clip-path-2"><path id="SVGID-2" data-name="SVGID" class="cls-1" d="M50,30.45l-.6-.4a1.09,1.09,0,0,1-.4-.9l.6.4A.87.87,0,0,0,50,30.45Z"/></clipPath><clipPath id="clip-path-3"><path id="SVGID-3" data-name="SVGID" class="cls-1" d="M49.59,22.55l-.6-.4a3.34,3.34,0,0,1,1.4-2.4l.6.4A2.81,2.81,0,0,0,49.59,22.55Z"/></clipPath><linearGradient id="linear-gradient-2" x1="34.69" y1="-17.34" x2="80.79" y2="-17.34" gradientTransform="translate(0 99.89)" gradientUnits="userSpaceOnUse"><stop offset="0" stop-color="#e3e1e1"/><stop offset="1" stop-color="#d6d5d3"/></linearGradient><clipPath id="clip-path-4"><path id="SVGID-4" data-name="SVGID" class="cls-1" d="M41.49,99.35c9,5.2,23.6,5.2,32.6,0s9-13.7-.1-18.9-23.6-5.2-32.6,0S32.49,94.15,41.49,99.35Z"/></clipPath><linearGradient id="linear-gradient-3" x1="34.28" y1="-12.46" x2="81.2" y2="-12.46" gradientTransform="translate(0 99.89)" gradientUnits="userSpaceOnUse"><stop offset="0" stop-color="#f0eeec"/><stop offset="1" stop-color="#fffffb"/></linearGradient></defs><g id="Advanced_Analytics_and_Data_Science_Consulting" data-name="Advanced Analytics and Data Science Consulting"><g id="Digital_Applications_Engineering" data-name="Digital Applications Engineering"><g id="Digital_Applications_Engineering-2" data-name="Digital Applications Engineering-2"><path class="cls-2" d="M50,77.05l-2.5,9.4-.2.3-.8,1.1c-.1,0-.1,0-.1-.1l-1.8-1.1a2.51,2.51,0,0,1-1-2.1v-36l1.9,1.2Z"/><path class="cls-3" d="M103.49,6l-1.9-1.1a3.08,3.08,0,0,0-3.2.4l-55.6,32.1c-2.3,1.3-4.2,4.3-4.2,6.6V80a2.28,2.28,0,0,0,1,2.1l1.8,1.1.1.1.9-1.1.2-.3.1-.1,45.1-26,.5-.3,2.4-1.4,1.2-.7,1.9-1.2,4.5-2.6a11.2,11.2,0,0,0,2-1.7l.7-.9.5-.9a5.66,5.66,0,0,0,.8-2.8V7.05l.1-.1,1.1-1Z"/><path class="cls-4" d="M140.89,70.05v2.3a1.5,1.5,0,0,1-.4,1.1,5.24,5.24,0,0,1-1.1,1L110.79,91l-28.6,16.4a7.63,7.63,0,0,1-6.9,0l-15.6-9-15.6-9a3.46,3.46,0,0,1-1.1-1,2,2,0,0,1-.3-1.1v-2.2Z"/><path class="cls-2" d="M75.49,97.35v9.9l-15.6-9-15.6-9a3.46,3.46,0,0,1-1.1-1,2,2,0,0,1-.3-1.1v-2.1Z"/><path class="cls-5" d="M139.49,72.05l-57.1,33a7.63,7.63,0,0,1-6.9,0l-31.2-18c-1.9-1.1-1.9-2.9,0-4l57.1-33a7.63,7.63,0,0,1,6.9,0l31.2,18a2.28,2.28,0,0,1,1.4,2A2.7,2.7,0,0,1,139.49,72.05Z"/><path class="cls-6" d="M129.89,65.15l-59.4,34.3L61,94.05c-3.9-2.2-7.8-4.5-10.7-6.2l-1.6-.9,59.4-34.4,3.9,2.2Z"/><polygon class="cls-7" points="90.99 88.85 111.49 77.05 119.29 81.55 98.79 93.45 90.99 88.85"/><polygon class="cls-7" points="46.39 83.05 101.29 51.45 104.69 53.35 49.79 85.05 46.39 83.05"/><path class="cls-4" d="M103.49,6h0a3.16,3.16,0,0,0-3.1.4l-55.7,32.1c-2.3,1.3-4.2,4.3-4.2,6.6v36a2.44,2.44,0,0,0,.8,2l.1.1a3.08,3.08,0,0,0,3.2-.4l46.9-27,2.3-1.3,6.6-3.8c.1-.1.3-.1.4-.2s.3-.1.4-.2a5.72,5.72,0,0,0,.8-.7,17.41,17.41,0,0,0,1.2-1.4,6.71,6.71,0,0,0,1.4-4V8.05A2.92,2.92,0,0,0,103.49,6Z"/><path class="cls-8" d="M102.59,7.05h-.2a3,3,0,0,0-1.3.5l-55.7,32.1c-1.9,1.1-3.5,3.6-3.5,5.4v36c0,.7.2,1,.5,1h.2a2.39,2.39,0,0,0,1.4-.5l44.2-25.5.4-.2,1.8-1,1.4-.8,2.1-1.2,5.8-3.3a5.55,5.55,0,0,0,.8-.6l.5-.5a5.5,5.5,0,0,0,.7-.9,11.78,11.78,0,0,0,1.1-1.9,4,4,0,0,0,.3-1.5V8.05C103.19,7.35,102.89,7.15,102.59,7.05Z"/><path class="cls-4" d="M71.09,28.85v32.9l15.5-8.9.7-.4,1.1-.6.3-.2.6-.4,2.7-1.6.1-.1,1.4-.8,5.6-3.2V12.75Z"/><polygon class="cls-4" points="45.99 65.55 69.29 52.15 69.29 29.95 45.99 43.35 45.99 65.55"/><path class="cls-4" d="M46.69,76l22-12.7a1.45,1.45,0,0,0,.7-1c0-.4-.3-.5-.7-.3l-22,12.7a1.45,1.45,0,0,0-.7,1C46,76,46.29,76.15,46.69,76Z"/><path class="cls-9" d="M46.69,72.15l22-12.7a1.45,1.45,0,0,0,.7-1c0-.4-.3-.5-.7-.3l-22,12.7a1.45,1.45,0,0,0-.7,1C46,72.25,46.29,72.35,46.69,72.15Z"/><path class="cls-10" d="M46.69,68.35l22-12.7a1.45,1.45,0,0,0,.7-1c0-.4-.3-.5-.7-.3l-22,12.7a1.45,1.45,0,0,0-.7,1C46,68.35,46.29,68.55,46.69,68.35Z"/><path class="cls-8" d="M96.69,44.15l-23.2,13.4a1,1,0,0,0-.5.8c0,.3.2.4.5.2l23.1-13.4a1,1,0,0,0,.5-.8C97.19,44.05,97,44,96.69,44.15Z"/><path class="cls-8" d="M76.19,56.45a2.45,2.45,0,0,1-1.1,1.7c-.6.4-1.1.1-1.1-.4a2.45,2.45,0,0,1,1.1-1.7C75.69,55.75,76.19,56,76.19,56.45Z"/><path class="cls-8" d="M85.19,40.65c-2,1.1-3.6.5-3.6-1.5a7.15,7.15,0,0,1,3.6-5.6c2-1.2,3.6-.5,3.6,1.5A7.24,7.24,0,0,1,85.19,40.65Zm0-6.6a6.56,6.56,0,0,0-3.1,4.9c0,1.7,1.4,2.3,3.1,1.3a6.56,6.56,0,0,0,3.1-4.9c0-1.6-1.3-2.3-3.1-1.3Z"/><polygon class="cls-8" points="84.19 36.25 84.19 39.25 86.79 36.25 84.19 36.25"/><path class="cls-11" d="M128.29,20.65l-.7-.4a1.57,1.57,0,0,0-1.6.2l-17,9.8-.4,1,3.6,2.1v11.9a.88.88,0,0,0,.5,1l.7.4.2-.3a1.85,1.85,0,0,0,.7-.2l11.8-6.8a4,4,0,0,0,2-3.2V21.25a.37.37,0,0,0-.1-.3Z"/><path class="cls-12" d="M128.29,20.65l-.7-.4a1.57,1.57,0,0,0-1.6.2l-17,9.8-.4,1,3.6,2.1v11.9a.88.88,0,0,0,.5,1l.7.4.2-.3a1.85,1.85,0,0,0,.7-.2l11.8-6.8a4,4,0,0,0,2-3.2V21.25a.37.37,0,0,0-.1-.3Z"/><path class="cls-13" d="M109.39,31.55l3.6,2v11.9c0,1.1.9,1.5,2,.8l11.7-6.8a4,4,0,0,0,2-3.2V21.65c0-1.1-.9-1.5-2.1-.8l-17,9.8A2.92,2.92,0,0,1,109.39,31.55Z"/><path class="cls-12" d="M122.59,34.75a3.36,3.36,0,0,0-1.4.5,5.26,5.26,0,0,0-1.4,1.2,4.13,4.13,0,0,0-.7,1.1l.2,1.6c0,.1.1.2.4.2a3.36,3.36,0,0,0,1.4-.5,7.55,7.55,0,0,0,1.4-1.1,1.61,1.61,0,0,0,.4-.7l.2-1.9C123.09,35,122.79,34.75,122.59,34.75Z"/><path class="cls-14" d="M124.59,31c0-2-1.7-2.6-3.7-1.3a6.76,6.76,0,0,0-3.2,5.1,2.74,2.74,0,0,0,.2,1.3c.2.4.7.7.8,1.1l.2.4c0,.1.1.2.5.2a4.92,4.92,0,0,0,1.7-.6,7.46,7.46,0,0,0,1.7-1.4,2.18,2.18,0,0,0,.5-.8l.2-.7c.2-.7.6-1.4.8-2.1A10.38,10.38,0,0,0,124.59,31Z"/><path class="cls-15" d="M113.19,79.65a17,17,0,0,0-14.6,0c-4,2.2-4,5.8,0,8a17,17,0,0,0,14.6,0C117.29,85.45,117.29,81.85,113.19,79.65Z"/><path class="cls-16" d="M109.89,46.75a1.63,1.63,0,0,0-.7,2,.1.1,0,0,0,.1.1,1.5,1.5,0,0,0,1.8.8h0l1.1-2.2-.2-.7Z"/><polygon class="cls-17" points="109.19 48.75 109.69 49.85 110.49 48.95 109.99 47.85 109.19 48.75"/><path class="cls-8" d="M110,46.55l-1.3,1.1s1.6.7,1.5,1.7a9,9,0,0,1,1-.9C112.19,47.75,110,46.55,110,46.55Z"/><path class="cls-18" d="M112.19,42.15l1.3,1.9-3.9,2.9a2.11,2.11,0,0,1,1.4,2.6s5.7-3.8,6-4.7-3.2-7.3-3.2-7.3Z"/><path class="cls-8" d="M108.09,80.25s-2-.5-2.1.2c-.1,1,2.4,4,3,4.5a1,1,0,0,0,1.4.3h0a1,1,0,0,0,.4-1.1Z"/><path class="cls-17" d="M111.69,72.85c-.1-1.9-1.6-3-1.5-8.6-.8-.5-4.3,1.8-4.3,1.8l1.7,5.6s.4,8.2.4,8.6c-2.6-.1-.4,2.8,1.3,3.7a1.71,1.71,0,0,0,1.4,0,10.55,10.55,0,0,1-.4-3.1C110.29,79.35,111.89,74.75,111.69,72.85Z"/><path class="cls-19" d="M108.19,82.15a12.1,12.1,0,0,1-.1-1.9S107.69,81.75,108.19,82.15Z"/><path class="cls-8" d="M102,82.65a3.21,3.21,0,0,0-1.4.1c-.8.3-1,.9-.5,1.4,1.9,1.6,6.8,2.1,7.1,1.9a1,1,0,0,0,.4-1.4Z"/><path class="cls-17" d="M106.69,74.25a11.81,11.81,0,0,0-1.6-2.9l.3-3.5-4,.2s-.2,1.8-.2,2.5,3.6,9,2.6,12a12.75,12.75,0,0,1-1.9-.1c-2.7,1,5.2,4,5.6,1.9a5.64,5.64,0,0,1-.4-1.2C106.59,80.55,107.09,75.65,106.69,74.25Z"/><path class="cls-20" d="M107.39,52s-6.2,2.8-6.5,3.2c.1,2-.4,11.4.2,12.8.2.4.2,1.4,3.5,1.1a8.09,8.09,0,0,0,3.7-1.2,7.8,7.8,0,0,0,.4-2.2,3.51,3.51,0,0,1,.6,1.4,5,5,0,0,0,1.4-1.5c.2-6.9,2.2-10.1.5-13C110.29,51.85,107.39,52,107.39,52Z"/><path class="cls-18" d="M105.49,57a7.69,7.69,0,0,0,5.8-4.2l-10.4,2.5S101.49,57.65,105.49,57Z"/><path class="cls-20" d="M113.79,39.25a3.6,3.6,0,0,0-1.3-2.1l-3.6.3-3.5,2.1s-4.9,2.2-4.9,4a2.85,2.85,0,0,0,1.3,2.2s.2,5.8-1.1,9a3.91,3.91,0,0,0,4.2,1.7,8.68,8.68,0,0,0,4-1.6,9.36,9.36,0,0,0,.4-1.6,3.13,3.13,0,0,1,.5,1,6.12,6.12,0,0,0,1.5-1.7c-.4-1.8-1.3-3.3-1.3-4S114.09,42.15,113.79,39.25Z"/><path class="cls-17" d="M88.59,35.15c-.5-.4-2.1-1.6-2.3-1.4s.9,1.1,1.4,1.6a2.37,2.37,0,0,0-1.1,1.3c-.1.4.1.7.5,1,.6,1.6,1.7,1.5,1.7,1.5l1.3-.9s-1.1-2.5-1.4-2.9C88.69,35.15,88.69,35.15,88.59,35.15Z"/><path class="cls-8" d="M90.19,38.05a2.11,2.11,0,0,0-1.6,1.3l1.1,1.3,1.4-1.5C91.19,39.15,90.49,38.05,90.19,38.05Z"/><path class="cls-18" d="M101.09,42l-5.7,1.2-4.3-4.3c-.8-.5-2.5,1-1.9,1.6s4.5,5.4,5.2,5.6,9.5-.8,9.5-.8,3.6-.1,3.2-2.8C106.69,40.15,101.09,42,101.09,42Z"/><path class="cls-17" d="M104.69,31.55s-.5,3.9.2,4.5a4.55,4.55,0,0,0,1.9.8l-.1-4.2Z"/><path class="cls-21" d="M106.09,28.25c-1.3-.1-1.5.4-1.6.7-.7,5.2,1.4,7.8,1.6,8-.3,2.9-1.6,3.4-1.6,3.4s2.1-.7,2.4-.3.4,2,2,2.1a1.7,1.7,0,0,1,0-1s1.8,1.6,2.8,1.3a10.91,10.91,0,0,1,1.4-3.1,1.1,1.1,0,0,1,0,.8c1.3-1.5.6-5.7.7-8.3C114.09,28.65,107,25.85,106.09,28.25Z"/><path class="cls-22" d="M106.09,28.25a13.3,13.3,0,0,1,5.7,2.5A7.72,7.72,0,0,0,106.09,28.25Z"/><path id="SVGID-5" class="cls-12" d="M76.29,5.35l.6.4a1.18,1.18,0,0,0-1,.1l-.6-.4A.92.92,0,0,1,76.29,5.35Z"/><g class="cls-23"><path class="cls-12" d="M75.89,5.75l-.6-.4.2-.1.6.4C76,5.65,75.89,5.65,75.89,5.75Z"/><path class="cls-12" d="M76.09,5.65l-.6-.4.2-.1.6.4A.31.31,0,0,1,76.09,5.65Z"/><path class="cls-12" d="M76.19,5.65l-.6-.4h.1l.6.4Z"/><path class="cls-12" d="M76.39,5.55l-.6-.4h.1l.6.4Z"/><path class="cls-12" d="M76.49,5.55l-.6-.4H76l.6.4Z"/><path class="cls-12" d="M76.49,5.55l-.6-.4H76l.5.4Z"/><path class="cls-12" d="M76.59,5.55l-.6-.4h.1l.5.4Z"/><path class="cls-12" d="M76.69,5.65l-.6-.4h.1l.5.4Z"/><path class="cls-12" d="M76.79,5.65l-.6-.4.1.1.5.3Z"/><path class="cls-12" d="M76.89,5.65l-.6-.4Z"/></g><path id="SVGID-6" class="cls-24" d="M50,30.45l-.6-.4a1.09,1.09,0,0,1-.4-.9l.6.4A.87.87,0,0,0,50,30.45Z"/><g class="cls-25"><path class="cls-24" d="M50,30.45l-.6-.4a1.09,1.09,0,0,1-.4-.9l.6.4a.87.87,0,0,0,.4.9Z"/></g><polygon class="cls-24" points="49.59 29.55 48.89 29.25 48.89 22.15 49.59 22.55 49.59 29.55"/><polygon class="cls-12" points="50.89 20.15 50.29 19.85 75.29 5.45 75.89 5.75 50.89 20.15"/><path id="SVGID-7" class="cls-12" d="M49.59,22.55l-.6-.4a3.34,3.34,0,0,1,1.4-2.4l.6.4A2.81,2.81,0,0,0,49.59,22.55Z"/><g class="cls-26"><path class="cls-12" d="M49.59,22.55l-.6-.4V22l.6.4Z"/><path class="cls-12" d="M49.59,22.25l-.6-.4c0-.1,0-.1.1-.2l.6.4A.31.31,0,0,0,49.59,22.25Z"/><path class="cls-12" d="M49.59,22.05l-.6-.4.1-.2.6.4C49.59,22,49.59,22,49.59,22.05Z"/><path class="cls-12" d="M49.59,22l-.6-.4a.1.1,0,0,1,.1-.1l.6.4A.1.1,0,0,0,49.59,22Z"/><path class="cls-12" d="M49.69,21.75l-.6-.3c0-.1,0-.1.1-.1l.6.4Z"/><path class="cls-12" d="M49.69,21.65l-.6-.4.1-.1.6.4Z"/><path class="cls-12" d="M49.79,21.55l-.6-.4c0-.1,0-.1.1-.1l.5.4Z"/><path class="cls-12" d="M49.79,21.45l-.6-.4.1-.1.6.4Z"/><path class="cls-12" d="M49.89,21.25l-.6-.4.1-.1.6.4Z"/><path class="cls-12" d="M49.89,21.15l-.6-.4.1-.1.6.4Z"/><path class="cls-12" d="M50,21.15l-.6-.4a.1.1,0,0,1,.1-.1l.6.4C50,21,50,21.05,50,21.15Z"/><path class="cls-12" d="M50.09,21l-.6-.4.1-.1.6.4Z"/><path class="cls-12" d="M50.19,20.85l-.6-.4.1-.1.6.4Z"/><path class="cls-12" d="M50.29,20.65l-.6-.4c.1-.1.1-.1.1-.2l.6.4Z"/><path class="cls-12" d="M50.49,20.55l-.6-.4a2.18,2.18,0,0,1,.5-.4l.6.4A.7.7,0,0,0,50.49,20.55Z"/></g><path class="cls-13" d="M75.89,5.75c.8-.4,1.4-.1,1.4.8v7A3.07,3.07,0,0,1,76,16L51,30.35a.86.86,0,0,1-1.4-.8v-7a3.42,3.42,0,0,1,1.3-2.4Z"/><path class="cls-27" d="M52.29,51.25c-.1.1-.2,0-.2-.1v-7a.52.52,0,0,1,.2-.4c.1-.1.2-.1.2.1v7C52.59,51.05,52.49,51.25,52.29,51.25Z"/><path class="cls-27" d="M53.89,48.85l-.1.1c-.1.1-.2,0-.2-.1v-4.1c0-.1.1-.2.2-.3l.1-.1c.1-.1.2,0,.2.1v4.1C54.09,48.75,54.09,48.85,53.89,48.85Z"/><path class="cls-27" d="M54.79,46.75l-.2.1h-.1v-1a.35.35,0,0,1,.1-.2l.2-.1c.1-.1.1,0,.1.1v1A.1.1,0,0,1,54.79,46.75Z"/><path class="cls-27" d="M53.09,49.75c-.1.1-.2.1-.2-.1V45a.52.52,0,0,1,.2-.4c.1-.1.2,0,.2.1v4.7A.76.76,0,0,1,53.09,49.75Z"/><polygon class="cls-4" points="109.59 16.15 108.09 17.05 108.09 19.75 109.59 18.95 111.99 19.05 111.99 13.25 109.59 16.15"/><path class="cls-4" d="M113.79,18.45a.35.35,0,0,1-.2.1c-.2,0-.3-.2-.2-.5.9-2.2.9-4.3,0-5.5-.1-.1,0-.5.2-.7s.5-.3.6-.1c1,1.4,1,3.7,0,6.3C114.09,18.15,114,18.35,113.79,18.45Z"/><path class="cls-4" d="M115.49,18.35a.35.35,0,0,1-.2.1c-.2,0-.3-.2-.2-.5,1.2-2.9,1.2-5.6,0-7.2-.1-.1,0-.5.2-.7s.5-.3.6-.2c1.3,1.8,1.3,4.8,0,8A2.18,2.18,0,0,1,115.49,18.35Z"/><path class="cls-4" d="M117.09,18.25a.35.35,0,0,1-.2.1c-.2,0-.3-.2-.2-.5,1.4-3.6,1.4-6.9,0-8.9-.1-.1,0-.5.2-.7s.5-.3.6-.1c1.6,2.1,1.6,5.7,0,9.7A.78.78,0,0,1,117.09,18.25Z"/><g id="_1" data-name=" 1"><path class="cls-28" d="M103.59,134.75c-.4-1.3-5.8-3.3-5.8-3.3-12.3-6.4-10.4-5.2-12.9-7.4l-4.3-.5c-.7-.1-.7-.4-1.4-.3-1,.2-3.8,1.3-3.3,4.3.2,1.6,3.4,4.2,6.2,6.9a54.68,54.68,0,0,1,4.5,5.1s.4.8.8,1.5a5.19,5.19,0,0,0,2.2,2.2c1.3.7,3,0,2.8-1-.3-1.4-4.9-5.9-4.9-5.9l-2.5-6.2,11,3.7,2.7,1.4a6,6,0,0,0,2.9.8C103.09,136.05,103.69,135.15,103.59,134.75Z"/><polygon class="cls-29" points="96.99 99.25 90.49 103.05 99.69 108.35 102.59 108.35 96.99 99.25"/><g id="Axonometric_Cube" data-name="Axonometric Cube"><polygon id="Cube_face_-_top" data-name="Cube face - top" class="cls-30" points="102.49 105.55 92.99 100.05 102.49 94.55 111.99 100.05 102.49 105.55"/><path class="cls-31" d="M109,98.25c-.5.4-1.1.6-1.6,1-1.1.7-2.2,1.3-3.2,1.9-.5.3-1.1.7-1.6,1s-1.1.5-1.7.8a6.42,6.42,0,0,0-1.3,1l3,1.8,9.5-5.5Z"/><polygon id="Cube_face_-_left" data-name="Cube face - left" class="cls-31" points="102.49 108.45 92.99 102.85 92.99 100.05 102.49 105.55 102.49 108.45"/><polygon id="Cube_face_-_right" data-name="Cube face - right" class="cls-32" points="111.99 102.85 102.49 108.45 102.49 105.55 111.99 100.05 111.99 102.85"/></g><path class="cls-33" d="M112.09,99.75c-7.8-3-8.6-7.3-8.6-7.3L94,98s.8,4.3,8.6,7.4Z"/><path class="cls-30" d="M104.29,105.85a16.18,16.18,0,0,1-1.8,1l-2-1.1-2-1.1,1.9,1.2a19.83,19.83,0,0,0,2,1.1h.1c.6-.4,1.3-.7,1.9-1.1a18.76,18.76,0,0,0,1.8-1.2A12.23,12.23,0,0,1,104.29,105.85Z"/><path class="cls-34" d="M107.79,103.25a39.72,39.72,0,0,0,3.5-2A29.13,29.13,0,0,0,107.79,103.25Z"/><path class="cls-35" d="M106.49,105.45a14,14,0,0,0,1.6-1A14,14,0,0,0,106.49,105.45Z"/><path class="cls-30" d="M97.19,103.45a25.43,25.43,0,0,1-2.8-1.6A27.92,27.92,0,0,1,97.19,103.45Z"/><path class="cls-28" d="M28.79,121.15l-2-1.2a.91.91,0,0,0-1,0l-3.8,2.1q-.45.3,0,.6l2,1.2-.4.2c-.2.1-.2.2,0,.4l17.2,10a1.1,1.1,0,0,0,.8,0l.3-.2a1.48,1.48,0,0,1,.7-.1l3.2.7,1.4.8.3-.2,1.6.9a.37.37,0,0,0,.3-.1h0l.6-1.1-1-.5.3-.2-1.4-.9-1.2-1.9c-.1-.1,0-.2.1-.4l.3-.2a.28.28,0,0,0,0-.5l-17.2-9.9a.85.85,0,0,0-.7,0Z"/><g id="_7" data-name=" 7"><path class="cls-28" d="M89.39,129.15c.1,0,.2.1.3.1l-19-11a.37.37,0,0,0-.3-.1,5.54,5.54,0,0,0-1.8.2l-4.8-2.8.6-.3c9-5.2,8.9-13.7-.1-18.9-4.7-2.7-10.9-4-17.1-3.9-6.1-.1-12.3,1.2-17,3.9-9,5.2-8.9,13.7.1,18.9,4.7,2.7,10.9,4,17.1,3.9a35,35,0,0,0,11.6-1.6l5.4,3.1a2.65,2.65,0,0,0-.5.6c-.2.3-.2.5.1.7l19,11a.37.37,0,0,0,.3.1c1,.2,3.2-.6,4.9-1.8a6.12,6.12,0,0,0,1.7-1.5C90,129.55,89.89,129.25,89.39,129.15Zm-42.1-10.1a32.71,32.71,0,0,1-15.3-3.8c-8.9-5.2-8.9-13.5-.1-18.6a32.7,32.7,0,0,1,30.6,0c8.9,5.1,8.9,13.4.1,18.6A33,33,0,0,1,47.29,119.05Z"/><polygon class="cls-28" points="26.79 100.45 18.49 105.25 61.09 129.75 65.69 129.75 26.79 100.45"/><g id="Axonometric_Cube-2" data-name="Axonometric Cube-2"><polygon id="Cube_face_-_left-2" data-name="Cube face - left-2" class="cls-6" points="65.79 129.75 22.29 104.65 22.29 100.55 65.79 109.05 65.79 129.75"/><polygon id="Cube_face_-_right-2" data-name="Cube face - right-2" class="cls-36" points="96.59 112.05 65.79 129.75 65.79 109.05 96.59 107.85 96.59 112.05"/></g><polygon class="cls-37" points="96.59 107.85 65.79 125.65 22.29 100.55 53.09 82.75 96.59 107.85"/><polygon class="cls-38" points="54.69 98.45 54.09 98.55 54.39 98.75 48.59 102.05 48.89 102.25 54.69 98.85 54.99 99.05 55.19 98.75 55.29 98.35 54.69 98.45"/><polygon class="cls-3" points="52.89 103.25 52.99 102.95 53.29 103.15 58.99 99.75 59.29 99.95 53.59 103.25 53.89 103.45 53.29 103.55 52.69 103.65 52.89 103.25"/><polygon class="cls-3" points="45.09 105.85 45.29 106.25 45.59 105.95 50.19 108.65 50.49 108.45 45.89 105.85 46.19 105.75 45.59 105.55 44.99 105.55 45.09 105.85"/><polygon class="cls-38" points="62.39 96.45 61.79 96.25 62.09 96.15 57.49 93.55 57.79 93.35 62.39 95.95 62.59 95.85 62.79 96.15 62.99 96.55 62.39 96.45"/><polygon class="cls-38" points="49.59 102.35 39.69 108.15 34.99 105.35 44.89 99.65 49.59 102.35"/><polygon class="cls-38" points="66.29 92.75 56.39 98.45 51.69 95.75 61.59 90.05 66.29 92.75"/><polygon class="cls-3" points="46.09 100.35 44.89 99.65 34.99 105.35 36.19 106.05 46.09 100.35"/><polygon class="cls-3" points="62.79 90.75 61.59 90.05 51.69 95.75 52.89 96.45 62.79 90.75"/><polygon class="cls-38" points="56.29 106.25 46.39 111.95 41.69 109.25 51.69 103.55 56.29 106.25"/><polygon class="cls-38" points="72.99 96.65 63.09 102.35 58.39 99.65 68.29 93.85 72.99 96.65"/><polygon class="cls-3" points="52.89 104.25 51.69 103.55 41.69 109.25 42.89 109.95 52.89 104.25"/><polygon class="cls-3" points="69.59 94.65 68.29 93.85 58.39 99.65 59.59 100.35 69.59 94.65"/><polygon class="cls-39" points="54.59 116.45 54.39 116.65 53.29 115.95 53.49 115.85 54.59 116.45"/><polygon class="cls-39" points="56.09 117.35 55.89 117.45 54.69 116.75 54.89 116.65 56.09 117.35"/><polygon class="cls-39" points="57.59 118.15 57.39 118.25 56.19 117.65 56.39 117.45 57.59 118.15"/><polygon class="cls-39" points="58.99 119.05 58.89 119.15 57.69 118.45 57.89 118.35 58.99 119.05"/><polygon class="cls-39" points="60.49 119.85 60.29 119.95 59.19 119.35 59.29 119.15 60.49 119.85"/><polygon class="cls-39" points="61.99 120.75 61.79 120.85 60.59 120.15 60.79 120.15 61.99 120.75"/><polygon class="cls-40" points="65.89 109.75 54.89 116.15 53.99 115.75 65.09 109.35 65.89 109.75"/><polygon class="cls-38" points="66.19 111.25 56.29 117.05 55.49 116.55 65.29 110.85 66.19 111.25"/><polygon class="cls-38" points="62.29 115.25 57.79 117.85 56.89 117.35 61.39 114.75 62.29 115.25"/><polygon class="cls-41" points="67.19 114.15 59.29 118.75 58.39 118.25 66.29 113.75 67.19 114.15"/><polygon class="cls-42" points="68.09 115.35 60.69 119.55 59.89 119.05 67.29 114.85 68.09 115.35"/><polygon class="cls-38" points="67.99 117.05 62.19 120.45 61.39 119.95 67.29 116.55 67.99 117.05"/><path class="cls-38" d="M62.89,114.45c.1,0,.1.1.1.2a.1.1,0,0,1-.1.1.45.45,0,0,1-.5,0c-.1,0-.1-.1-.1-.2a.1.1,0,0,1,.1-.1A.45.45,0,0,1,62.89,114.45Z"/><path class="cls-41" d="M67.79,113.25c.1,0,.1.1.1.2a.1.1,0,0,1-.1.1.45.45,0,0,1-.5,0c-.1,0-.1-.1-.1-.2a.1.1,0,0,1,.1-.1Z"/><path class="cls-42" d="M68.79,114.45c.1,0,.1.1.1.2a.1.1,0,0,1-.1.1.45.45,0,0,1-.5,0c-.1-.1-.1-.1-.1-.2a.1.1,0,0,1,.1-.1A.45.45,0,0,1,68.79,114.45Z"/><path class="cls-40" d="M66.49,109c.1,0,.1.1.1.2a.1.1,0,0,1-.1.1.45.45,0,0,1-.5,0c-.1,0-.1-.1-.1-.2a.1.1,0,0,1,.1-.1A.45.45,0,0,1,66.49,109Z"/><path class="cls-38" d="M68.69,116.15c.1,0,.1.1.1.2a.1.1,0,0,1-.1.1.45.45,0,0,1-.5,0c-.1,0-.1-.1-.1-.2a.1.1,0,0,1,.1-.1Z"/><ellipse class="cls-38" cx="66.49" cy="110.65" rx="0.4" ry="0.2"/><polygon class="cls-39" points="31.69 102.65 31.39 102.85 27.89 100.85 28.19 100.65 31.69 102.65"/><polygon class="cls-3" points="31.99 102.45 31.69 102.65 28.49 100.85 28.79 100.75 31.99 102.45"/><polygon class="cls-39" points="32.79 102.05 32.59 102.15 29.19 100.25 29.49 100.05 32.79 102.05"/><polygon class="cls-3" points="33.09 101.85 32.79 102.05 29.19 99.95 29.59 99.75 33.09 101.85"/><polygon class="cls-39" points="33.89 101.25 33.69 101.45 29.49 99.05 29.79 98.85 33.89 101.25"/><polygon class="cls-3" points="34.29 101.15 33.89 101.35 31.79 100.05 32.09 99.95 34.29 101.15"/><polygon class="cls-39" points="35.09 100.75 34.89 100.85 30.99 98.55 31.19 98.45 35.09 100.75"/><polygon class="cls-3" points="35.39 100.55 35.09 100.75 31.59 98.65 31.89 98.45 35.39 100.55"/><polygon class="cls-39" points="38.49 98.75 38.19 98.85 34.29 96.65 34.59 96.45 38.49 98.75"/><polygon class="cls-3" points="38.79 98.55 38.49 98.75 36.09 97.25 36.39 97.05 38.79 98.55"/><polygon class="cls-39" points="39.69 98.05 39.39 98.15 36.19 96.35 36.49 96.15 39.69 98.05"/><polygon class="cls-3" points="39.99 97.85 39.69 98.05 36.99 96.45 37.29 96.35 39.99 97.85"/><polygon class="cls-39" points="40.79 97.35 40.49 97.55 35.59 94.75 35.89 94.55 40.79 97.35"/><polygon class="cls-3" points="41.09 97.25 40.79 97.35 36.49 94.95 36.79 94.75 41.09 97.25"/><polygon class="cls-39" points="41.99 96.75 41.69 96.85 37.29 94.35 37.59 94.15 41.99 96.75"/><polygon class="cls-3" points="42.29 96.55 41.99 96.75 38.09 94.45 38.39 94.35 42.29 96.55"/><polygon class="cls-39" points="43.09 96.05 42.79 96.25 39.69 94.35 39.89 94.15 43.09 96.05"/><polygon class="cls-3" points="43.39 95.85 43.09 96.05 39.49 93.95 39.79 93.75 43.39 95.85"/><polygon class="cls-39" points="36.19 100.05 35.99 100.15 34.59 99.35 34.89 99.15 36.19 100.05"/><polygon class="cls-3" points="36.49 99.85 36.19 100.05 33.79 98.55 34.09 98.45 36.49 99.85"/><polygon class="cls-39" points="37.39 99.35 37.09 99.45 35.79 98.75 35.99 98.55 37.39 99.35"/><polygon class="cls-3" points="37.69 99.15 37.39 99.35 36.39 98.75 36.69 98.55 37.69 99.15"/><polygon class="cls-39" points="43.89 95.85 31.19 103.15 30.99 103.05 43.69 95.65 43.89 95.85"/><polygon class="cls-39" points="45.69 94.55 45.49 94.75 43.49 93.55 43.79 93.45 45.69 94.55"/><polygon class="cls-3" points="46.09 94.35 45.69 94.55 44.19 93.65 44.49 93.45 46.09 94.35"/><polygon class="cls-39" points="46.79 93.85 46.59 94.05 45.89 93.65 46.09 93.45 46.79 93.85"/><polygon class="cls-3" points="47.09 93.75 46.79 93.85 45.79 93.25 46.19 93.15 47.09 93.75"/><polygon class="cls-39" points="47.99 93.25 47.79 93.45 45.49 92.05 45.79 91.95 47.99 93.25"/><polygon class="cls-3" points="48.29 93.05 47.99 93.25 46.89 92.65 47.29 92.45 48.29 93.05"/><polygon class="cls-39" points="49.09 92.55 48.89 92.75 48.09 92.25 48.39 92.15 49.09 92.55"/><polygon class="cls-3" points="49.39 92.35 49.09 92.55 47.89 91.85 48.19 91.65 49.39 92.35"/><polygon class="cls-39" points="52.59 90.55 52.29 90.75 48.19 88.45 48.49 88.25 52.59 90.55"/><polygon class="cls-3" points="52.89 90.35 52.59 90.55 48.89 88.45 49.19 88.25 52.89 90.35"/><polygon class="cls-39" points="53.69 89.95 53.49 90.05 48.29 87.15 48.49 86.95 53.69 89.95"/><polygon class="cls-3" points="53.99 89.75 53.69 89.95 48.79 87.05 49.09 86.85 53.99 89.75"/><polygon class="cls-39" points="54.89 89.25 54.59 89.45 50.79 87.25 51.09 87.05 54.89 89.25"/><polygon class="cls-3" points="55.19 89.05 54.89 89.25 51.49 87.35 51.79 87.25 55.19 89.05"/><polygon class="cls-39" points="55.99 88.55 55.69 88.75 52.79 87.05 53.09 86.85 55.99 88.55"/><polygon class="cls-3" points="56.29 88.45 55.99 88.55 53.59 87.25 53.89 87.05 56.29 88.45"/><polygon class="cls-39" points="57.09 87.95 56.79 88.15 55.39 87.25 55.69 87.15 57.09 87.95"/><polygon class="cls-3" points="57.39 87.85 57.09 87.95 55.89 87.25 56.19 87.05 57.39 87.85"/><polygon class="cls-39" points="50.29 91.85 49.99 92.05 47.59 90.65 47.89 90.55 50.29 91.85"/><polygon class="cls-3" points="50.59 91.75 50.29 91.85 47.49 90.25 47.79 90.05 50.59 91.75"/><polygon class="cls-39" points="51.39 91.25 51.09 91.45 48.79 90.05 49.09 89.95 51.39 91.25"/><polygon class="cls-3" points="51.69 91.05 51.39 91.25 49.49 90.15 49.79 89.95 51.69 91.05"/><polygon class="cls-39" points="57.99 87.75 45.29 95.05 44.99 94.95 57.79 87.55 57.99 87.75"/><path class="cls-3" d="M78.89,101.65c-4.1-.2-7.8,1.4-8.2,3.8s2.5,4.4,6.5,4.8,7.8-1.4,8.2-3.8S82.89,102,78.89,101.65Zm3.3,4.6c-.2,1.3-2.3,2.3-4.6,2.1s-3.9-1.3-3.7-2.7,2.3-2.3,4.6-2.1S82.39,105,82.19,106.25Z"/><path class="cls-3" d="M84.89,106.45c.4-2.2-2.3-4.2-6.1-4.4s-7.2,1.3-7.7,3.5,2.3,4.2,6.1,4.4S84.39,108.55,84.89,106.45Zm-12.3-.9c.4-1.8,3.1-3,6.1-2.8s5.2,1.8,4.8,3.5-3.1,3-6.1,2.8S72.19,107.35,72.59,105.55Z"/><path class="cls-38" d="M78.29,102.85s1,.1,1.3.1l.4-.8a12.77,12.77,0,0,0-1.7-.2,9.67,9.67,0,0,0-2.9.4l.5.7A6.87,6.87,0,0,1,78.29,102.85Z"/><path class="cls-42" d="M72.79,105.05h0a5,5,0,0,1,2.9-1.9l-.5-.7a6.29,6.29,0,0,0-3.8,2.3s-.4.7-.2.8l1.4.1A1.07,1.07,0,0,1,72.79,105.05Z"/><path class="cls-41" d="M83.49,105.55l1.4-.1a3.67,3.67,0,0,0-1.9-2.3l-.2-.1a7.32,7.32,0,0,0-2.5-.8l-.4.8a6.19,6.19,0,0,1,1.9.7l.4.2A3,3,0,0,1,83.49,105.55Z"/><path class="cls-40" d="M79.29,109.85l-.2-.8c-.5,0-1,.1-1.6.1a6.66,6.66,0,0,1-4.2-1.6l-.3-.3a2.15,2.15,0,0,1-.4-1.6l-1.4-.1a2.42,2.42,0,0,0,.6,2l.1.2.2.1a8.8,8.8,0,0,0,5.2,2A6.69,6.69,0,0,0,79.29,109.85Z"/><path class="cls-3" d="M85,106.45c.4-2.2-2.3-4.3-6.2-4.5s-7.3,1.3-7.8,3.6,2.3,4.3,6.2,4.5S84.59,108.65,85,106.45Zm-13.8-.9c.4-2.2,3.9-3.7,7.6-3.5s6.5,2.2,6.1,4.4-3.9,3.7-7.6,3.5S70.79,107.65,71.19,105.55Z"/><path class="cls-3" d="M83.49,106.25c.4-1.8-1.8-3.3-4.8-3.5s-5.7,1.1-6.1,2.8,1.8,3.3,4.8,3.5S83.19,108.05,83.49,106.25Zm-10.7-.7c.4-1.7,2.9-2.9,5.9-2.7s5.1,1.8,4.7,3.4-3,2.9-5.9,2.7S72.39,107.25,72.79,105.55Z"/><path class="cls-38" d="M84.89,106.35a2.2,2.2,0,0,0,.1-.8l-1.4.1a.64.64,0,0,1,0,.6c-.2,1.3-2,2.5-4.3,2.8l.2.8C82.29,109.45,84.49,108.15,84.89,106.35Z"/><polygon class="cls-3" points="43.19 99.15 33.79 104.65 32.39 103.85 41.79 98.45 43.19 99.15"/><polygon class="cls-42" points="34.69 104.15 33.79 104.65 32.39 103.85 33.29 103.35 34.69 104.15"/><polygon class="cls-3" points="51.79 94.25 42.39 99.65 41.09 98.85 50.49 93.45 51.79 94.25"/><polygon class="cls-41" points="43.29 99.15 42.39 99.65 41.09 98.85 41.89 98.45 43.29 99.15"/><polygon class="cls-3" points="60.39 89.25 50.99 94.65 49.69 93.95 59.09 88.45 60.39 89.25"/><polygon class="cls-40" points="51.79 94.15 50.99 94.65 49.69 93.95 50.49 93.45 51.79 94.15"/><ellipse class="cls-39" cx="64.09" cy="122.05" rx="0.4" ry="0.2"/><ellipse class="cls-39" cx="65.59" cy="122.85" rx="0.4" ry="0.2"/><path class="cls-39" d="M79,113.45c.1.1.1.1.1.2a.1.1,0,0,1-.1.1.64.64,0,0,1-.6,0c-.1-.1-.1-.1-.1-.2a.1.1,0,0,1,.1-.1A.37.37,0,0,1,79,113.45Z"/><ellipse class="cls-39" cx="80.19" cy="114.45" rx="0.4" ry="0.2"/><path class="cls-39" d="M72.29,117.65l.9-.6h-.1l-.8.6Zm-4,2.3,2-1.2-.1-.1-2,1.2Zm2.2-1.2,1.6-1-.1-.1-1.6,1Zm-2.3,1.3-.1-.1-2.8,1.6.1.1Zm5.1-3,1.3-.7-.1-.1-1.3.7Zm-8.3,4.3.9-.5-.1-.1-.9.5Zm8.1-4.8.1.1,1.1-.7-.1-.1Zm-2,1.3,2-1.2-.1-.1-2,1.2Zm-1,.6.9-.5-.1-.1-.9.5Zm-1.3.7,1.1-.7-.1-.1-1.1.6Zm-2.7,1.6,2.5-1.4-.1-.1-2.5,1.4Z"/><path class="cls-39" d="M71.29,119.15l.1.1,1.6-1-.1-.1Zm0,.2-.1-.1-2,1.2.1.1Zm.4.1.1.1,1.1-.6-.1-.1Zm1.2-.7.1.1.9-.5-.1-.1Zm3-1.7-2,1.2.1.1,2-1.2Zm-7,4.1-.1-.1-2.1,1.2.1.1Zm6-4.1-1.8,1,.1.1,1.8-1Zm-5.8,3.5-.1-.1-2.8,1.6.1.1Zm6-3.6.1.1,1.1-.6-.1-.1Zm-3.5,2.7-.1-.1L69,121l.1.1Z"/><path class="cls-39" d="M83,111.45l2-1.1-.1-.1-2,1.1Zm2.1-1.2,1.6-1-.1-.1-1.6,1Zm-2.3,1.3-.1-.1-2.8,1.6.1.1Zm-3.2,1.3.9-.6-.1-.1-.9.6Zm8-4.7.1.1,1.1-.7-.1-.1Zm-2,1.2,2-1.1-.1-.1-2,1.1Zm-1.1.6.9-.5-.1-.1-.9.5Zm-1.2.8,1.1-.7-.1-.1-1.1.6Zm-2.7,1.5,2.5-1.4-.1-.1-2.5,1.4Z"/><polygon class="cls-39" points="87.19 110.05 87.29 110.15 88.99 109.15 88.79 109.15 87.19 110.05"/><polygon class="cls-39" points="85.59 111.45 85.79 111.55 86.89 110.85 86.79 110.85 85.59 111.45"/><polygon class="cls-39" points="86.99 110.15 84.99 111.25 85.19 111.35 87.19 110.25 86.99 110.15"/><polygon class="cls-39" points="88.59 109.75 86.89 110.75 86.99 110.85 88.69 109.75 88.59 109.75"/><polygon class="cls-39" points="84.99 111.45 84.89 111.35 80.89 113.65 81.09 113.75 84.99 111.45"/><polygon class="cls-39" points="88.99 109.05 89.09 109.05 89.99 108.55 89.89 108.55 88.99 109.05"/><polygon class="cls-39" points="82.89 113.15 82.79 113.15 81.39 113.95 81.49 114.05 82.89 113.15"/><polygon class="cls-39" points="85.49 111.55 82.99 112.95 83.09 113.05 85.59 111.65 85.49 111.55"/><polygon class="cls-39" points="89.99 108.45 90.19 108.45 90.89 108.05 90.79 107.95 89.99 108.45"/><path class="cls-39" d="M60.39,110.65l-.2-.1,3.7-2.1.2.1Zm-1,.6-.2-.1.7-.4.2.1Zm-4.3,2.5-.2-.1,4-2.3.2.1Zm-2.9,1.6-.2-.1,2.6-1.5.2.1Zm8.9-6.3,3.7-2.1.2.1-3.7,2.1h-.2Zm4-2.3,1.6-.9.2.1-1.6.9Zm-4.8,3-.2-.2.7-.4.2.1Zm-4.4,2.5-.2-.1,4-2.3.2.1Zm-4.5,2.6-.2-.1,4.3-2.5.2.1Zm23.5-14.7-.2-.1,2.2-1.3.2.1Zm-2.9,1.7-.2-.1,2.7-1.5.2.1Zm-1.8,1-.2-.1,1.5-.8.2.1Zm-3,1.7-.2-.1,2.6-1.5.2.1Zm-2.7,1.6-.2-.1,2.4-1.4.2.1Zm-3.2,1.8-.2-.1,3-1.6.2.1Zm-3.1,1.8-.2-.1,2.8-1.6.2.1Zm-4,2.3L54,112l3.6-2.1.2.1Zm-3.8,2.2-.2-.1,3.5-2,.2.1Zm19.8-12.4-.2-.1,6-3.4.2.1Zm-3,1.7-.2-.1,2.7-1.5.2.1Zm-3.1,1.8-.2-.1,2.9-1.7.2.1Zm-1.6.9-.2-.1,1.3-.7.2.1Zm-1.8,1.1-.2-.1,1.6-.9.2.1Zm-4,2.3-.2-.1,3.7-2.1.2.1Zm-1,.5-.2-.1.7-.4.2.1Zm-4.3,2.5-.2-.1,4-2.3.2.1Zm-1.9,1.1-.2-.1,1.6-.8.2.1Zm25-15.5-.2-.1.7-.4.2.1Zm-1.4.9-.2-.1,1.2-.6.2.1Zm-3,1.7-.2-.1,2.7-1.5.2.1Zm-3.2,1.8-.2-.1,2.9-1.7.2.1Zm-1.5,1-.2-.1,1.3-.7.2.1Zm-2.7,1.5-.2-.1,2.4-1.4.2.1Zm-3.1,1.8-.2-.1,2.9-1.7.2.1Zm-3.2,1.9-.2-.1,2.9-1.7.2.1Zm-3.8,2.2-.2-.1,3.6-2.1.2.1Zm-3.9,2.2-.2-.1,3.6-2,.2.1Zm20.7-13-.2-.1,4.9-2.8.2.1Zm-3,1.7-.2-.1,2.7-1.5.2.1Zm-3.1,1.8-.2-.1,3-1.7.2.1Zm-1.6.9-.2-.1,1.3-.7.3.2Zm-1.8,1.1-.2-.1,1.6-.9.2.1Zm-4,2.3-.2-.1,3.7-2.1.2.1Zm-1,.6-.2-.1.7-.4.2.1Zm-4.3,2.5-.2-.1,4-2.3.2.1Zm-2.9,1.6-.2-.1,2.6-1.5.2.1Z"/><polygon class="cls-43" points="52.79 92.65 51.39 93.45 51.19 93.35 52.59 92.45 52.79 92.65"/><polygon class="cls-43" points="53.59 92.15 53.09 92.45 52.89 92.35 53.49 92.05 53.59 92.15"/><polygon class="cls-43" points="52.79 93.35 51.99 93.75 51.79 93.75 52.59 93.25 52.79 93.35"/><polygon class="cls-43" points="54.79 92.25 53.09 93.25 52.89 93.15 54.59 92.15 54.79 92.25"/><polygon class="cls-43" points="55.89 91.55 54.99 92.05 54.89 91.95 55.79 91.45 55.89 91.55"/><polygon class="cls-43" points="44.29 97.45 42.89 98.35 42.69 98.25 44.09 97.45 44.29 97.45"/><polygon class="cls-43" points="45.09 97.05 44.49 97.35 44.39 97.35 44.89 96.95 45.09 97.05"/><polygon class="cls-43" points="44.29 98.25 43.49 98.75 43.29 98.65 44.09 98.15 44.29 98.25"/><polygon class="cls-43" points="46.19 97.15 44.49 98.15 44.39 98.05 46.09 97.05 46.19 97.15"/><polygon class="cls-43" points="47.39 96.45 46.49 97.05 46.39 96.85 47.29 96.35 47.39 96.45"/><polygon class="cls-43" points="35.79 102.45 34.29 103.25 34.19 103.15 35.59 102.35 35.79 102.45"/><polygon class="cls-43" points="36.59 101.95 35.99 102.35 35.79 102.25 36.39 101.85 36.59 101.95"/><polygon class="cls-43" points="35.79 103.25 34.99 103.65 34.89 103.55 35.59 103.15 35.79 103.25"/><polygon class="cls-43" points="37.79 102.05 35.99 103.05 35.79 102.95 37.59 101.95 37.79 102.05"/><polygon class="cls-43" points="38.89 101.35 37.99 101.85 37.79 101.85 38.79 101.25 38.89 101.35"/><path class="cls-43" d="M62.89,92.35l.5-.3-.1-.1-.5.3Zm-4.4,2.5,2.2-1.3-.1-.1-2.2,1.3Zm2.4-1.4,1.9-1.1-.1-.1-1.9,1.1ZM58.29,95l-.1-.1L55,96.65l.1.1Zm-3.7,1.5,1-.6-.1-.1-1,.6Zm6.9-3.9,1.5-.8-.1-.1-1.5.8Zm-1.2.7,1-.6-.1-.1-1,.6Zm-1.5.8,1.3-.7-.1-.1-1.3.8Zm-3,1.8,2.9-1.7-.1-.1-2.9,1.7Z"/><path class="cls-43" d="M63.79,92.25l.1.1-1.2.7-.1-.1Zm-2.9,2.3.1.1,1.3-.7-.2-.1Zm1.5-1.5-2.2,1.3.1.1,2.2-1.3Zm1,0-1.1.7.1.1,1.1-.7Zm-3.3,1.4-.1-.1-4.5,2.7.1.1Zm-2.3,2-.1-.1-1.6,1,.1.1Zm2.9-1.8-2.9,1.7.1.1,2.9-1.6Z"/><path class="cls-43" d="M48.69,108.45l3.6-2.1-.1-.1-3.6,2.1Zm-.2.1-.1-.1-3.2,1.8.1.1Zm-3.6,1.5,1-.6-.1-.1-1,.6Zm5.6-3.2,1-.6-.1-.1-1,.6Zm-1.4.7,1.3-.7-.1-.1-1.3.7Zm-3,1.8,2.9-1.7-.1-.1-2.9,1.6Z"/><path class="cls-43" d="M50.19,108.55l.1.1,1.5-.9-.1-.1Zm1.6-1.5-1.4.8.1.1,1.4-.8Zm-1.4,1-.1-.1-4.5,2.6.1.1Zm-2.3,1.9-.1-.1-1.6,1,.1.1Zm1.9-1.2-1.9,1.1.1.1,1.9-1.1Z"/><path class="cls-43" d="M67.19,97l.1.1,1.8-1L69,96Zm0,.3-.1-.1-2.3,1.4.1.1Zm-1.3,1,.1.1,1.3-.7-.1-.1Zm1.5-.8.1.1,2.5-1.4-.1-.1Zm-3,1.9-.1-.1-2.4,1.4.1.1Zm5.2-3.8-.5.3.1.1.5-.3Zm-4.9,3-.1-.1-3.2,1.9.1.1Zm1.2-.1-.1-.1-1.4.8.1.1Z"/><path class="cls-43" d="M66.29,99.45l2.2-1.3-.1-.1-2.2,1.3Zm2.4-1.4,1.7-1h-.1l-1.7,1Zm-2.6,1.5-.1-.1-3.2,1.9.1.1Zm-3.7,1.5,1-.6-.1-.1-1,.6Zm6.9-4,1.4-.8-.1-.1-1.4.9Zm-1.2.7,1-.6-.1-.1-.9.7Zm-1.4.8,1.3-.7-.1-.1-1.2.8Zm-3,1.8,2.9-1.7-.1-.1-2.9,1.7Z"/><path class="cls-43" d="M43.59,102.65l.1.1,1.8-1-.1-.1Zm0,.2-.1-.1-2.3,1.4.1.1Zm-1.2,1.2.1.1,1.2-.7-.1-.1Zm1.4-.8.1.1,2.5-1.4-.1-.1Zm-3,1.9-.1-.1-2.4,1.4.1.1Zm5.3-3.8-.5.2.1.1.4-.3Zm-5,3-.1-.1-3.2,1.9.1.1Zm1.3-.2-.1-.1-1.4.8.1.1Z"/><path class="cls-43" d="M42.79,105.05l2.2-1.3-.1-.1-2.2,1.3h.1Zm2.4-1.4,1.7-1-.1-.1-1.7,1Zm-2.6,1.5-.1-.1-3.2,1.8.1.1Zm-3.7,1.5,1-.6-.1-.1-1,.6Zm6.9-4,1.4-.8-.1-.1-1.4.8Zm-1.2.7,1-.6-.1-.1-1,.6Zm-1.4.8,1.3-.7-.1-.1-1.3.7Zm-3,1.8,2.9-1.6-.1-.1-2.8,1.7Z"/><path class="cls-44" d="M72.39,115l5.9,3.4v4.2l-6.7,3.8v-4.2l-6-3.5c-.2-.1-.2-.4-.1-.7a2.65,2.65,0,0,1,.5-.6l-5.4-3.1A38.35,38.35,0,0,1,49,116l-.4-.2h.5a32.31,32.31,0,0,0,15.2-3.8c8.8-5.2,8.8-13.5-.2-18.6a32.71,32.71,0,0,0-15.3-3.8,34,34,0,0,0-10.5,1.8l2.1-1.2a40.16,40.16,0,0,1,8.5-.8c6.2-.1,12.4,1.1,17.1,3.8,9,5.2,9.1,13.7.1,18.9-.2.1-.3.2-.5.2l4.8,2.8a5.66,5.66,0,0,1,1.8-.3C72.19,115,72.29,115,72.39,115Zm-46-16.8a8.24,8.24,0,0,0-1.3,4l2,1.1a9.31,9.31,0,0,1,3-7.2Z"/><path class="cls-45" d="M80.79,87.45v3.6c0-3.4-2.3-6.9-6.8-9.5-9-5.2-23.6-5.2-32.6,0-4.5,2.6-6.7,6-6.7,9.4v-3.6c0-3.4,2.2-6.8,6.7-9.4,9-5.2,23.6-5.2,32.6,0C78.59,80.55,80.79,84.05,80.79,87.45Z"/><g class="cls-46"><polygon class="cls-37" points="97.89 89.25 59.79 111.25 21.49 89.15 59.59 67.15 97.89 89.25"/><polygon class="cls-38" points="78.79 82.75 77.79 82.85 78.29 83.25 68.19 89.05 68.69 89.35 78.79 83.55 79.29 83.85 79.59 83.15 79.89 82.55 78.79 82.75"/><polygon class="cls-3" points="75.59 91.25 75.79 90.65 76.39 90.95 86.49 85.05 86.99 85.35 76.89 91.25 77.39 91.55 76.39 91.75 75.29 91.85 75.59 91.25"/><polygon class="cls-3" points="61.99 95.85 62.19 96.45 62.79 96.15 70.79 100.75 71.29 100.45 63.29 95.85 63.79 95.55 62.79 95.35 61.69 95.15 61.99 95.85"/><polygon class="cls-38" points="92.39 79.15 91.29 78.95 91.89 78.65 83.79 73.95 84.39 73.75 92.39 78.35 92.89 78.05 93.19 78.65 93.49 79.35 92.39 79.15"/><polygon class="cls-40" points="69.79 89.65 52.29 99.75 44.09 94.95 61.59 84.85 69.79 89.65"/><polygon class="cls-38" points="99.29 72.65 81.79 82.65 73.59 77.95 91.09 67.85 99.29 72.65"/><polygon class="cls-3" points="63.69 86.15 61.59 84.85 44.09 94.95 46.19 96.15 63.69 86.15"/><polygon class="cls-3" points="93.19 69.05 91.09 67.85 73.59 77.95 75.69 79.15 93.19 69.05"/><polygon class="cls-38" points="81.69 96.45 64.19 106.55 55.89 101.75 73.49 91.75 81.69 96.45"/><polygon class="cls-38" points="111.19 79.45 93.69 89.55 85.49 84.75 102.89 74.65 111.19 79.45"/><polygon class="cls-3" points="75.59 92.95 73.49 91.75 55.89 101.75 58.09 103.05 75.59 92.95"/><polygon class="cls-3" points="104.99 75.95 102.89 74.65 85.49 84.75 87.59 85.95 104.99 75.95"/><polygon class="cls-39" points="38.19 90.15 37.79 90.35 31.49 86.85 31.99 86.55 38.19 90.15"/><polygon class="cls-3" points="38.79 89.85 38.19 90.15 32.69 86.95 33.19 86.65 38.79 89.85"/><polygon class="cls-39" points="40.29 88.95 39.69 89.25 33.89 85.85 34.39 85.55 40.29 88.95"/><polygon class="cls-3" points="40.79 88.65 40.19 88.95 33.89 85.25 34.39 84.95 40.79 88.65"/><polygon class="cls-39" points="42.29 87.85 41.79 88.15 34.39 83.85 34.89 83.55 42.29 87.85"/><polygon class="cls-3" points="42.79 87.45 42.29 87.85 38.49 85.65 38.99 85.35 42.79 87.45"/><polygon class="cls-39" points="44.29 86.65 43.79 86.85 36.99 82.95 37.39 82.65 44.29 86.65"/><polygon class="cls-3" points="44.79 86.35 44.29 86.65 38.09 83.05 38.59 82.75 44.79 86.35"/><polygon class="cls-39" points="50.29 83.15 49.89 83.35 42.89 79.45 43.39 79.15 50.29 83.15"/><polygon class="cls-3" points="50.89 82.85 50.29 83.15 45.89 80.65 46.49 80.35 50.89 82.85"/><polygon class="cls-39" points="52.29 81.95 51.79 82.25 46.19 79.05 46.69 78.75 52.29 81.95"/><polygon class="cls-3" points="52.89 81.65 52.29 81.95 47.69 79.35 48.19 78.95 52.89 81.65"/><polygon class="cls-39" points="54.39 80.85 53.89 81.15 45.19 76.15 45.79 75.85 54.39 80.85"/><polygon class="cls-3" points="54.89 80.55 54.39 80.85 46.79 76.45 47.29 76.15 54.89 80.55"/><polygon class="cls-39" points="56.39 79.65 55.89 79.95 48.09 75.35 48.49 75.15 56.39 79.65"/><polygon class="cls-3" points="56.89 79.35 56.39 79.65 49.59 75.65 50.09 75.35 56.89 79.35"/><polygon class="cls-39" points="58.39 78.45 57.89 78.75 52.29 75.55 52.79 75.25 58.39 78.45"/><polygon class="cls-3" points="58.89 78.15 58.39 78.45 51.99 74.75 52.59 74.45 58.89 78.15"/><polygon class="cls-39" points="46.29 85.45 45.79 85.75 43.29 84.35 43.89 84.05 46.29 85.45"/><polygon class="cls-3" points="46.79 85.15 46.29 85.45 41.99 82.95 42.59 82.65 46.79 85.15"/><polygon class="cls-39" points="48.29 84.35 47.79 84.65 45.39 83.15 45.89 82.95 48.29 84.35"/><polygon class="cls-3" points="48.79 84.05 48.29 84.35 46.49 83.25 47.09 82.95 48.79 84.05"/><polygon class="cls-39" points="59.89 78.15 37.39 91.05 36.99 90.85 59.39 77.85 59.89 78.15"/><polygon class="cls-39" points="62.99 75.85 62.49 76.15 59.09 74.15 59.59 73.85 62.99 75.85"/><polygon class="cls-3" points="63.49 75.55 62.99 75.85 60.29 74.25 60.79 73.95 63.49 75.55"/><polygon class="cls-39" points="64.99 74.65 64.49 74.95 63.19 74.15 63.79 73.85 64.99 74.65"/><polygon class="cls-3" points="65.59 74.35 64.99 74.65 63.19 73.65 63.79 73.35 65.59 74.35"/><polygon class="cls-39" points="66.99 73.45 66.49 73.75 62.59 71.55 63.09 71.25 66.99 73.45"/><polygon class="cls-3" points="67.59 73.15 66.99 73.45 65.09 72.35 65.59 72.05 67.59 73.15"/><polygon class="cls-39" points="69.09 72.35 68.49 72.65 67.19 71.85 67.69 71.55 69.09 72.35"/><polygon class="cls-3" points="69.59 72.05 69.09 72.35 66.89 71.05 67.39 70.75 69.59 72.05"/><polygon class="cls-39" points="75.09 68.85 74.59 69.15 67.39 64.95 67.89 64.65 75.09 68.85"/><polygon class="cls-3" points="75.59 68.55 75.09 68.85 68.59 65.05 69.09 64.75 75.59 68.55"/><polygon class="cls-39" points="77.19 67.65 76.59 67.95 67.49 62.65 67.99 62.35 77.19 67.65"/><polygon class="cls-3" points="77.59 67.35 77.19 67.65 68.39 62.65 68.99 62.35 77.59 67.35"/><polygon class="cls-39" points="79.09 66.45 78.69 66.75 71.99 62.95 72.39 62.65 79.09 66.45"/><polygon class="cls-3" points="79.69 66.15 79.09 66.55 73.29 63.15 73.79 62.85 79.69 66.15"/><polygon class="cls-39" points="81.19 65.35 80.59 65.65 75.49 62.65 75.99 62.35 81.19 65.35"/><polygon class="cls-3" points="81.69 65.05 81.19 65.35 76.99 62.95 77.49 62.65 81.69 65.05"/><polygon class="cls-39" points="83.19 64.15 82.69 64.45 80.09 62.95 80.59 62.65 83.19 64.15"/><polygon class="cls-3" points="83.69 63.85 83.19 64.15 80.89 62.85 81.39 62.55 83.69 63.85"/><polygon class="cls-39" points="71.09 71.15 70.59 71.45 66.29 68.95 66.79 68.75 71.09 71.15"/><polygon class="cls-3" points="71.59 70.85 71.09 71.15 66.09 68.25 66.69 67.95 71.59 70.85"/><polygon class="cls-39" points="73.09 69.95 72.59 70.25 68.49 67.95 68.99 67.65 73.09 69.95"/><polygon class="cls-3" points="73.69 69.65 73.09 70.05 69.59 68.05 70.19 67.65 73.69 69.65"/><polygon class="cls-39" points="84.69 63.75 62.29 76.75 61.79 76.45 84.19 63.55 84.69 63.75"/><polygon class="cls-3" points="58.59 84.05 41.89 93.65 39.59 92.25 56.19 82.65 58.59 84.05"/><polygon class="cls-42" points="43.49 92.75 41.89 93.65 39.59 92.25 41.09 91.35 43.49 92.75"/><polygon class="cls-3" points="73.79 75.25 57.09 84.85 54.69 83.55 71.39 73.85 73.79 75.25"/><polygon class="cls-41" points="58.59 84.05 57.09 84.85 54.69 83.55 56.29 82.65 58.59 84.05"/><polygon class="cls-3" points="88.99 66.45 72.29 76.15 69.89 74.75 86.59 65.05 88.99 66.45"/><polygon class="cls-40" points="73.79 75.25 72.29 76.15 69.89 74.75 71.49 73.85 73.79 75.25"/><polygon class="cls-43" points="75.49 72.35 72.99 73.85 72.79 73.75 75.19 72.25 75.49 72.35"/><polygon class="cls-43" points="76.99 71.55 75.89 72.15 75.59 72.05 76.69 71.45 76.99 71.55"/><polygon class="cls-43" points="75.49 73.75 74.09 74.45 73.79 74.35 75.19 73.55 75.49 73.75"/><polygon class="cls-43" points="78.99 71.75 75.89 73.45 75.59 73.35 78.69 71.55 78.99 71.75"/><polygon class="cls-43" points="81.09 70.45 79.39 71.45 79.09 71.25 80.79 70.35 81.09 70.45"/><polygon class="cls-43" points="60.49 81.15 57.89 82.55 57.69 82.35 60.19 80.95 60.49 81.15"/><polygon class="cls-43" points="61.89 80.25 60.89 80.85 60.59 80.65 61.69 80.05 61.89 80.25"/><polygon class="cls-43" points="60.49 82.35 59.09 83.25 58.79 83.05 60.19 82.25 60.49 82.35"/><polygon class="cls-43" points="63.89 80.35 60.89 82.15 60.59 82.05 63.59 80.25 63.89 80.35"/><polygon class="cls-43" points="66.09 79.15 64.39 80.15 64.09 79.95 65.79 79.05 66.09 79.15"/><polygon class="cls-43" points="45.39 89.75 42.89 91.25 42.59 91.05 45.19 89.65 45.39 89.75"/><polygon class="cls-43" points="46.79 88.95 45.79 89.55 45.49 89.35 46.59 88.75 46.79 88.95"/><polygon class="cls-43" points="45.39 91.15 43.99 91.85 43.79 91.75 45.19 90.95 45.39 91.15"/><polygon class="cls-43" points="48.89 89.05 45.79 90.85 45.49 90.65 48.59 88.95 48.89 89.05"/><polygon class="cls-43" points="50.99 87.85 49.29 88.85 48.99 88.75 50.79 87.65 50.99 87.85"/><path class="cls-43" d="M93.39,71.85l.9-.6-.2-.1-.9.6Zm-7.9,4.6,4-2.3-.2-.1-4,2.3Zm4.3-2.5,3.3-1.9-.2-.1-3.3,1.9Zm-4.6,2.7-.2-.1-5.6,3.2.2.1Zm-6.5,2.7,1.9-1.1-.2-.1-1.9,1.1Zm12.1-7.1,2.5-1.4-.2-.2-2.5,1.4Zm-2,1.2,1.7-1-.2-.1-1.7,1ZM86.29,75l2.2-1.3-.2-.1-2.2,1.2Zm-5.4,3.1,5.1-3-.2-.1-5.1,3Z"/><path class="cls-43" d="M95,71.75l.2.1-2.1,1.2-.2-.1Zm-5.2,4,.2.1,2.2-1.3-.2-.1Zm2.7-2.6-4,2.3.2.1,4-2.3Zm1.8,0-2,1.2.2.1,2-1.2Zm-5.8,2.6-.2-.1-7.9,4.6.2.1Zm-4.2,3.4-.2-.1-2.9,1.7.2.1Zm5.2-3.2-5.1,3,.2.1,5.1-3Z"/><path class="cls-43" d="M68.29,100.35l6.4-3.7-.2-.1-6.3,3.7Zm-.3.2-.2-.1-5.6,3.3.2.1Zm-6.5,2.7,1.9-1.1-.3-.1-1.9,1Zm10-5.8,1.7-1-.1-.2-1.8,1ZM69,98.85l2.2-1.3-.2-.1-2.2,1.3Zm-5.4,3.1,5.1-3-.2-.1-5.1,3Z"/><path class="cls-43" d="M70.89,100.65l.2.1,2.7-1.6-.3-.1Zm3-2.7-2.6,1.5.2.1,2.6-1.5Zm-2.6,1.7-.2-.1-8,4.6.2.1Zm-4.2,3.5-.2-.1-2.9,1.6.2.1Zm3.5-2.3-3.4,2,.2.1,3.4-2Z"/><path class="cls-43" d="M100.89,80.15l.2.1,3.1-1.8-.2-.1Zm0,.3-.2-.1-4.2,2.4.2.1Zm-2.2,2,.2.1,2.1-1.2-.2-.1Zm2.6-1.4.2.1,4.4-2.5-.2-.1Zm-5.4,3.3-.2-.1-4.2,2.5.2.1Zm9.3-6.7-.8.5.2.1.8-.5Zm-8.8,5.4-.2-.1-5.7,3.3.2.1Zm2.3-.2-.2-.1L96,84.05l.2.1Z"/><path class="cls-43" d="M99.39,84.45l4-2.3-.3-.1-4,2.3Zm4.3-2.5,3-1.8-.2-.1-3,1.8Zm-4.6,2.7-.2-.1-5.6,3.2.2.1Zm-6.5,2.7,1.9-1.1-.2-.1-1.9,1.1Zm12.1-7,2.5-1.4-.2-.1-2.5,1.4Zm-2,1.2,1.8-1-.2-.1-1.8,1Zm-2.6,1.4,2.2-1.3-.2-.1-2.2,1.3Zm-5.4,3.1,5.1-3-.2-.1-5.1,3Z"/><path class="cls-43" d="M59.39,90.15l.2.1,3.1-1.8-.2-.1Zm-.1.4-.2-.2-4.2,2.4.2.1Zm-2.2,2,.2.1,2.2-1.3-.2-.1Zm2.6-1.5.2.1,4.4-2.5-.2-.1Zm-5.3,3.3-.3-.1-4.3,2.5.2.1Zm9.2-6.6-.8.5.2.1.8-.5Zm-8.7,5.3-.2-.1L49,96.25l.2.1Zm2.2-.2-.2-.1-2.5,1.3.2.1Z"/><path class="cls-43" d="M57.79,94.45l4-2.3-.3-.1-4,2.3Zm4.3-2.4,3-1.8-.2-.1-3,1.8Zm-4.6,2.7-.2-.1-5.6,3.2.2.1ZM51,97.35l1.9-1.1-.2-.1-1.9,1.1Zm12.1-7,2.5-1.4-.2-.1-2.5,1.4Zm-2,1.2,1.8-1-.2-.1-1.8,1ZM58.59,93l2.2-1.3-.2-.1-2.2,1.3Zm-5.4,3.2,5.1-3-.3-.1-5.1,3Z"/></g><path class="cls-4" d="M41.39,80.55c9-5.2,23.6-5.2,32.6,0,4.2,2.4,6.4,5.5,6.7,8.7.4-3.7-1.9-7.5-6.7-10.3-9-5.2-23.6-5.2-32.6,0-4.8,2.8-7,6.6-6.6,10.2C35.09,86,37.29,83,41.39,80.55Z"/><path class="cls-4" d="M81.29,87.45v3.6c0,3.4-2.3,6.9-6.8,9.6-9.1,5.3-24,5.3-33.2,0-4.6-2.7-6.9-6.2-6.9-9.7v-3.6c0,3.5,2.3,7,6.9,9.7,9.2,5.3,24.1,5.3,33.2,0C79,94.35,81.29,90.85,81.29,87.45Z"/><path class="cls-47" d="M74.29,77.85c9.2,5.3,9.2,13.9.1,19.2s-24,5.3-33.2,0-9.2-13.9-.1-19.2S65.19,72.45,74.29,77.85Zm-32.8,19c9,5.2,23.6,5.2,32.6,0s9-13.6-.1-18.9-23.6-5.2-32.6,0-8.9,13.7.1,18.9Z"/><path class="cls-48" d="M80.59,101.65a.35.35,0,0,1,.2.1l-6.3-3.6c-.1-.1-.1-.1-.2-.1a3.36,3.36,0,0,0-2.5,1.4,3.1,3.1,0,0,0-.6,1.3.71.71,0,0,0,.3.6l6.3,3.6c.1.1.1.1.2.1a3.55,3.55,0,0,0,2.5-1.4,2.11,2.11,0,0,0,.5-1.3.57.57,0,0,0-.4-.7Z"/><path class="cls-9" d="M79.89,100.05a.37.37,0,0,0-.3-.1c-1-.2-2.6.7-3.6,2a2.87,2.87,0,0,0-.7,1.8c0,.3.1.7.4.8l18.9,10.8a.37.37,0,0,0,.3.1c1,.2,2.6-.7,3.6-2a2.87,2.87,0,0,0,.7-1.8.91.91,0,0,0-.4-.8C98.69,110.85,79.89,100.05,79.89,100.05Z"/></g><path class="cls-49" d="M27.29,124.45v-1l-3.5-2v1a.52.52,0,0,0,.2.4l3.6,2.1C27.29,124.85,27.19,124.65,27.29,124.45Z"/><path class="cls-50" d="M28.09,118.35c-.2-.1-.4-.1-.5.1l-3.2,1.9,3.5,2.1,3.3-1.9a.75.75,0,0,1,.5-.1Z"/><path class="cls-50" d="M27.29,123.55l-3.5-2.1a1.08,1.08,0,0,1,.7-1.1l3.5,2.1A1.08,1.08,0,0,0,27.29,123.55Z"/><path class="cls-51" d="M31.19,120.45c.4-.2.7-.1.7.4v1a1.52,1.52,0,0,1-.7,1.2L28,125c-.4.2-.7.1-.7-.4v-1a1.23,1.23,0,0,1,.7-1.1Z"/><path class="cls-52" d="M46.29,128.75l-17-9.8a1.09,1.09,0,0,1,.5-.1l17,9.8C46.69,128.55,46.49,128.55,46.29,128.75Z"/><path class="cls-53" d="M41.79,133.25v-1.1l-17-9.8v1.1a.76.76,0,0,0,.2.5l16.9,9.8A.44.44,0,0,1,41.79,133.25Z"/><polygon class="cls-3" points="42.49 130.85 25.59 121.05 29.29 118.85 46.29 128.75 42.49 130.85"/><path class="cls-52" d="M41.79,132.25l-17-9.8a1.34,1.34,0,0,1,.8-1.3l17,9.8A1.34,1.34,0,0,0,41.79,132.25Z"/><path class="cls-54" d="M46.29,128.75c.4-.2.8-.1.8.4v1.1a1.56,1.56,0,0,1-.8,1.3l-3.8,2.2c-.4.2-.8.1-.8-.4v-1.1a1.34,1.34,0,0,1,.8-1.3Z"/><path class="cls-55" d="M46.59,129.35c-.1-.1-.3,0-.4.1l-3.2,1.9a1.23,1.23,0,0,0-.5,1v.8a.76.76,0,0,0,.2.4l4.5.9c.1.1.2,0,.4-.1l.8-.5c.3-.2.4-1.4.4-1.4Z"/><path class="cls-56" d="M50.19,133.35l-2.2-1.3a.19.19,0,0,1,.3,0l2.2,1.3a.19.19,0,0,0-.3,0Z"/><path class="cls-53" d="M48.89,135.15v-.6l-2.2-1.3v.6c0,.1,0,.2.1.2l2.2,1.3C48.89,135.35,48.89,135.25,48.89,135.15Z"/><polygon class="cls-3" points="49.29 133.85 47.09 132.55 47.99 132.05 50.19 133.35 49.29 133.85"/><path class="cls-52" d="M48.89,134.55l-2.2-1.3a1,1,0,0,1,.4-.7l2.2,1.3A.67.67,0,0,0,48.89,134.55Z"/><path class="cls-51" d="M50.19,133.35c.2-.1.4,0,.4.2v.6a1,1,0,0,1-.4.7l-.9.5c-.2.1-.4,0-.4-.2v-.6a1,1,0,0,1,.4-.7Z"/><path class="cls-50" d="M50.29,133.55l-1.1.7v.8l1.3.7c.1.1.1,0,.2-.1v-.1l.2-.9v-.6a.35.35,0,0,0-.1-.2Z"/><polygon class="cls-57" points="32.39 123.55 28.29 121.15 29.59 120.35 33.79 122.75 32.39 123.55"/><path class="cls-57" d="M35,124.15l.5.3-.1.1-.5-.3Zm-.4.3.1-.1-.4-.2-.2-.1-.1.1.2.1Zm-.8-.5-.6-.4-.1.1.6.4Zm.6,0,.2.2.1-.1-.5-.2-.8-.4-.1.1,1.1.4Zm-.3-.7.6.4.1-.1-.6-.4-.2-.1-.1.1Zm1.2.8.2.1.1-.1-.2-.2-.4-.2-.1.1C34.79,123.75,35.29,124.05,35.29,124.05Zm1.8.9-.3-.2-.1.1.3.2Zm-.5-.3-.2-.1-.1.1.2.1Zm.1.5-.5-.2-.1.1.5.2Zm-1-.1-.2-.1-.1.1.2.1Zm.1.1-.1.1.5.3.1-.1Z"/></g><g id="_15" data-name=" 15"><g id="_8" data-name=" 8"><path class="cls-58" d="M90.09,115.65c-.1-.4-3.2-8.3-3.2-8.3s-.8-6.9-2.2-9.2a1.85,1.85,0,0,0-2.5-.8,2.34,2.34,0,0,0-.7.7c-1.4,2.1,1,9.3,1.8,11.3a75.36,75.36,0,0,0,4.7,7.7C88.39,117.45,90.29,116.75,90.09,115.65Z"/><path class="cls-59" d="M98.19,134.15c-.9-.7-.4-2-.3-3.2,0-.1,3.8,1,3.8,1a12,12,0,0,0,2.1,1.3c1.8.8,3.7,1.8,2.3,2.6a4.67,4.67,0,0,1-4,.1A17,17,0,0,1,98.19,134.15Z"/><path class="cls-59" d="M86.69,141.15a14.16,14.16,0,0,1-.4-2c-.1-.5,3.6-1.2,3.7-.5.1.4.3.5.4,1,.4,1.1,3.3,3.6,2.1,5.4a1,1,0,0,1-.5.4C89.29,146.55,86.89,142.25,86.69,141.15Z"/><path class="cls-60" d="M95.69,119.05l-10.3-1-.9-1.8-11.2,4.3s-.5,4.8.7,7.2a3,3,0,0,0,1.3,1.2c2.1.9,6.6,2.5,6.6,2.5l4.2,9c.8,1.4,4.8.2,4.4-1.3l-2.7-9.9a3,3,0,0,0-.5-1.3l-1.6-2.2,6.9-.3,5,7.8c.4,1.1,4.8.1,4.2-1.6-.1-.1-3.2-8.2-4.5-11.3A2,2,0,0,0,95.69,119.05Z"/><path class="cls-58" d="M85.29,118.05c-.2-1.8-.1-4.8-.2-7-.1-1.9,0-6.2-.1-8-.1-3.9-.8-4.7-2.2-5.7a4.42,4.42,0,0,0-2,.2,1.49,1.49,0,0,0-.9-.2,3.06,3.06,0,0,0-2,.7,3.13,3.13,0,0,1-1,.5,6.07,6.07,0,0,0-1,.7c-.1.1-.2.2-.2.3a12.25,12.25,0,0,0-3.8,2.6c-2.4,3.6,1.7,10.2,1.3,18.8C79.09,123.65,85,120.15,85.29,118.05Z"/><path class="cls-8" d="M81.19,98.75c0-.1,0-.1-.1-.1a4.18,4.18,0,0,1-.4-1c0-.2.6-.1,1,.6a30.3,30.3,0,0,1,1.3,3,25,25,0,0,1-2.5-.9c0-.1.7-.8.7-1S81.19,99,81.19,98.75Z"/><path class="cls-61" d="M76.19,96.05c.2-.4.9-.2,1.3-.2h2c.2,0,1,0,1,.2.1.4.6,1.3.7,1.7.2,1.4.1,2.3-.7,2.7l-.6.4c-1.9,1.3-3.3-.7-3.6-.8a28.58,28.58,0,0,0-.2-3.7C76.09,96.15,76.09,96.15,76.19,96.05Z"/><path class="cls-8" d="M80.49,100.35l-1.9,2.8a7.39,7.39,0,0,1-2.5-1.7,2.64,2.64,0,0,1-.7-1.9,4.44,4.44,0,0,1,.8-1.1c0,2.2,1.3,2,1.9,2.2A4.69,4.69,0,0,0,80.49,100.35Z"/><path class="cls-62" d="M81.89,97.85c-.2.7-.3,1.6-1,1.7-1.2.2-3.7-.4-4-1.3a6.92,6.92,0,0,1-.4-4.9,5.18,5.18,0,0,1,1.4-2.1,5.07,5.07,0,0,1,1.6-.9c1.6-.7,2.9-.6,3.1,1a20.08,20.08,0,0,1,.1,2.5A28.32,28.32,0,0,1,81.89,97.85Z"/><path class="cls-63" d="M80.79,88c.2,0,.4.4,1,.4.4,0,.5.2.8.8.2.2.1.5.2.8s.2.2.3.5.1.6.1.8c.1.4.2.5.1.9a6.36,6.36,0,0,1-.6,1.8,8.13,8.13,0,0,0-.1-2.2c-.1-.4-.5-.3-.8-.4s-.5.1-.8.1a5,5,0,0,0-2,.8,4,4,0,0,0-1,2.6c0,.1-.1.1-.2.1a.1.1,0,0,1-.1-.1c-.2-.4-.7-.7-1.1-.2a1.9,1.9,0,0,0-.1,1.8,8.67,8.67,0,0,1,.3,1.3,2.32,2.32,0,0,1-1.5-1.4,2.54,2.54,0,0,1-.2-.7l-.2-.4c-.1-.1,0-.2,0-.3s-.2-.2-.2-.4,0-.2-.1-.3-.2-.1-.2-.2v-1.2a1.9,1.9,0,0,1-.1-1.3c.1-.4.1-.7.2-1s.4-.1.5-.5a1.37,1.37,0,0,1,.5-.8c.5-.5,1.1-1.3,1.8-1.2s1-.3,1.6-.2S80.09,88,80.79,88Z"/></g><polygon class="cls-37" points="90.79 117.25 79.69 123.75 86.89 127.85 97.89 121.35 90.79 117.25"/><path class="cls-64" d="M87,127.55l11.1-6.5c0-.1.1-.1.2,0h0l-11.1,6.4Z"/><path class="cls-36" d="M89.89,120.85l-2.9,1.7-1.9-1.1,3-1.7,1.8,1.1Z"/><path class="cls-65" d="M88,119.75l-3,1.7.1.1,2.9-1.8,1.8,1.2h.1Z"/><path class="cls-56" d="M97.39,121.05l-.5.3-.4-.2v-.1h0l.5-.3Zm-.7-.4-.7.4-.4-.2v-.1l.7-.4.4.2Zm-.1.8-.5.3-.4-.2v-.1l.5-.3.4.2Zm-.7-1.2-.5.3-.4-.2v-.1l.5-.3.4.2h0C96,120.15,96,120.25,95.89,120.25Zm-.1,1.7-.5.3-.4-.2V122l.5-.3.4.2Zm-.2-.7-.5.3-.4-.2h0v-.1l.5-.3S95.69,121.25,95.59,121.25Zm-.4-1.5-.7.4-.4-.2v-.1l.7-.4.4.2Zm0,.9-.5.3-.4-.2a.1.1,0,0,1,0-.2l.5-.3.4.2Zm-.2,1.7-.5.3-.5-.2h0v-.1l.5-.3.5.3Zm-.1-.7-.5.3-.4-.2v-.1h0l.5-.3C94.39,121.35,94.89,121.65,94.89,121.65Zm-.4-2.3-.5.3-.4-.2v-.1h0l.5-.3.4.3Zm-.1,1.8-.5.3-.4-.2v-.1h0l.5-.3Zm-.1,1.7-3.6,2.1-.4-.2h0v-.1l3.6-2,.4.2Zm-.1-2.4-.5.3-.4-.2v-.1l.5-.3.4.2Zm-.1,1.7-.5.3-.4-.2v-.2l.5-.3.4.4Zm-.4-2.3-.5.3-.4-.2v-.1l.5-.3.4.2Zm-.1,1.7-.5.3-.4-.2v-.1l.5-.3.4.2C93.69,121.55,93.69,121.55,93.59,121.55Zm-.2-.7-.5.3-.4-.2v-.1l.5-.3.4.2Zm-.1,1.8-.5.3-.4-.2v-.1l.5-.3.4.2Zm-.4-2.3-.5.3-.4-.2v-.1l.5-.3.4.2Zm0,1.7-.5.3-.4-.2v-.1l.5-.3.4.2Zm-.3-.7-.5.3-.4-.2h0v-.1l.5-.3Zm0,1.7-.5.3-.4-.2v-.1l.5-.3.4.2Zm-.4-2.3-.5.3-.4-.2h0v-.1l.5-.3Zm-.1,1.8-.5.3-.4-.2v-.1l.5-.3.4.2Zm-.2-.8-.5.2-.4-.2v-.1l.5-.3.4.2v.2Zm-.1,1.7-.5.3-.4-.2v-.1l.5-.3.4.2Zm-.4-2.2-.5.3-.4-.2v-.1h0l.5-.3Zm-.1,1.7-.5.3-.4-.2V123l.5-.3.4.2h0Zm-.2-.8-.5.3-.4-.2h0v-.1l.5-.3ZM91,124l-.5.3-.4-.2h0V124l.5-.3.4.3Zm-.4-2.3-.5.3-.4-.2v-.1l.5-.3.4.2Zm-.1,1.8-.5.3-.4-.2v-.1l.5-.4.4.2v.2Zm-.1,1.6-.7.4-.4-.2v-.1h0l.7-.4.4.3Zm-.1-2.4-.5.3-.4-.2a.1.1,0,0,1,0-.2l.5-.3.4.2Zm-.1,1.7-.5.3-.4-.2v-.1h0l.5-.3Zm-.3-2.2-.5.3-.4-.2v-.1h0l.5-.3Zm-.2,1.7-.5.3-.4-.2v-.1h0l.5-.3Zm-.1-.7-.5.3-.4-.2v-.2l.5-.3.4.2Zm-.2,1.7-.5.3-.4-.2v-.1l.5-.3.4.2C89.49,124.75,89.49,124.75,89.39,124.85Zm-.3-2.3-.5.3-.4-.2v-.1l.5-.3.4.2Zm-.1,1.7-.7.4-.4-.2v-.1l.7-.4.4.2Zm0,1.7-.5.3-.4-.2V126l.5-.3.4.3Zm-.2-2.4-.5.3-.4-.2-.1-.1v-.1l.5-.3.4.2A.31.31,0,0,1,88.79,123.55Zm-.5-.6-.5.3-.4-.2V123l.5-.3.4.2Zm0,2.6-.5.3-.4-.2v-.1l.5-.3.4.2Zm0,.8-.5.3-.4-.2v-.1l.5-.3.4.2Zm-.3-2.3-.5.3-.4-.3V124l.5-.3.4.2v.2Zm-.5-.5-.7.4-.4-.2v-.1l.7-.4.4.2v.1C87.49,123.45,87.59,123.45,87.49,123.55Zm0,1.6-2,1.1h-.1l-.4-.2a1.61,1.61,0,0,1,.7-.4.1.1,0,0,0,.1-.1c0-.1,0-.1-.1-.1l-.5-.3-.1-.1V125h0l1.2-.7h.1l1.1.6v.3Zm0,.9-.5.3-.4-.2v-.1l.5-.3.4.2v.1Zm-.1.8-.5.3-.4-.2v-.1l.5-.3.4.2h0C87.49,126.85,87.49,126.85,87.39,126.85Zm-.7-.4-.5.3-.4-.2a.1.1,0,1,1,0-.2l.5-.3.4.2Zm-.6-2.1-.5.3-.4-.2h0v-.1l.5-.3.4.3Zm-.7.4-.5.3-.4-.2v-.1h0l.5-.3Zm-.1.9-.5.3-.4-.2a.1.1,0,0,1,0-.2l.5-.3.4.2v.2Zm-.7-.5-.5.3-.4-.2v-.1l.5-.3.4.2Z"/><path class="cls-62" d="M89.89,115.65a11.32,11.32,0,0,1,1,1.3c.6.7,1.3,1.4.7,2.3a8.34,8.34,0,0,1-.8,1.2c-.4.5-.7.6-1,.1a13,13,0,0,1-1-1.5,21.72,21.72,0,0,1-.7-2.4A1.68,1.68,0,0,1,89.89,115.65Z"/><path class="cls-36" d="M100.29,114.35l-11.1,6.4-1.8,7.1a.37.37,0,0,1,.1.3c0,.1,0,.2-.1.2l11.1-6.4c.1-.1.1-.1.1-.2a.37.37,0,0,0-.1-.3Z"/><polygon class="cls-37" points="89.09 120.65 100.19 114.15 100.29 114.35 89.19 120.75 89.09 120.65"/><path class="cls-66" d="M89.09,120.65l.1.1-1.8,7.1a.37.37,0,0,1,.1.3c0,.2-.1.3-.3.2l-7.4-4.3v-.4l7.1,4.1v-.1c0-.2.1-.3.3-.2Z"/><path class="cls-3" d="M94.09,120.65a2.17,2.17,0,0,0-1,1.1c-.1.4.2.5.7.2a1.82,1.82,0,0,0,1-1.1C94.89,120.55,94.59,120.35,94.09,120.65Zm.5.3a1.14,1.14,0,0,1-.7.8c-.4.2-.6.1-.5-.2a1.14,1.14,0,0,1,.7-.8c.3-.2.6,0,.5.2Z"/><path class="cls-58" d="M82.19,117.35c-.2-.3-6.9-5.1-6.7-4.9-.1-1.8,1.1-8-.4-10.2a1.82,1.82,0,0,0-2.5-.7h0a2.34,2.34,0,0,0-.7.7c-1.3,2.2-1.4,11.1-.4,13.1.5,1,8.8,4.2,9.6,4.3S82.49,117.85,82.19,117.35Z"/><path class="cls-62" d="M84.69,118.15a26.81,26.81,0,0,0-2.7-.7c-.6-.2-1.4,1.1-1,2,.3.2,1.1.4,1.8.7a10,10,0,0,1,1,1.1c.1.1.1.2.2.3a1.75,1.75,0,0,0,1.7.3c.1,0,.2,0,.2-.1C86.39,121.35,85.79,118.85,84.69,118.15Z"/></g><path class="cls-59" d="M27.39,73.75c-.1,1.2.9.8.6,1.8s-3.3,8.9-3.3,8.9l-3.4,7.2c-.4.9-3.4-.4-2.9-1.4l3-7.5c.5-1.8,1.1-7.2,1.8-9.5a1.84,1.84,0,0,1,2.2-1C25.49,72.35,27.39,73,27.39,73.75Z"/><path class="cls-8" d="M18.59,90.55c.8-.7,2.8.6,2.5,1.1l-.2.3c-.4.7-2.7-.6-2.5-1.2C18.49,90.65,18.59,90.65,18.59,90.55Z"/><path class="cls-67" d="M16.59,114.25a4.71,4.71,0,0,1,.4,1.6c-.4.7-.8.8-1.3,1.5a18.39,18.39,0,0,1-1.7,2.2c-2.3,1.6-3,1.3-3.3.5-.2-.5.3-1.2.4-1.3.2-.4,1.8-1.1,2.3-1.8s1.3-1.4,2-2.2A1.15,1.15,0,0,1,16.59,114.25Z"/><path class="cls-68" d="M10.69,118.85c.6-1.2,2-2.8,2-3.4v-.7a2,2,0,0,1,.1-.7,21.16,21.16,0,0,1,.9-2.7l1.6-.4a4.71,4.71,0,0,0,.4,1.6c.4.9,1.3,1.8.9,2.7a2.7,2.7,0,0,1-.7.8,20.28,20.28,0,0,0-1.3,1.8,14,14,0,0,1-2.7,2.1C11.19,120.25,10.09,120.35,10.69,118.85Z"/><path class="cls-68" d="M10.69,119.45c.1-.2.3-1.2.6-1.3.5-.1-.1,1.6-.6,1.6Z"/><path class="cls-67" d="M23,120.15s.2-.2.2-.1c-.1.5-.2,1.1-.3,1.6a9.07,9.07,0,0,1-4.2,3c-1.5.2-2.5-.2-2.6-.7a1.13,1.13,0,0,1,.1-.8,3.32,3.32,0,0,1,1.7-1.6,3.08,3.08,0,0,0,1.2-.5,9,9,0,0,1,2.7-1.1C22.09,119.75,23.19,119.35,23,120.15Z"/><path class="cls-68" d="M22.59,121.25c.8-.5.5-1.8.6-2.7a2,2,0,0,0-1.3-2l-1.5-.4c-.1.3-.1.7-.2,1a6.81,6.81,0,0,1-.8,2.4c-.4.6-2.4,1.8-3.2,3.6-.2.6.8.8,1.3.8a6,6,0,0,0,2.9-.8C21.09,122.55,21.89,122,22.59,121.25Z"/><path class="cls-68" d="M16.39,123.05c.1-.2.6-1.1.9-1.1.5-.1-.5,1.5-.9,1.4Z"/><path class="cls-69" d="M25,106.65a31.66,31.66,0,0,1-.6,7.5c-.5,2.7-.8,5.1-.8,5.1-.2,1.2-4,.5-3.9-.5,0,0-.1-6.9-.2-13.6v-1.3C19.89,101.05,25,103.25,25,106.65Z"/><path class="cls-69" d="M12.39,102.25a1.84,1.84,0,0,1,.5-1.6c2.2-2.1,9.7-5.3,9.7-5.3s-.1-.4.5-1c1.1-1.2,2.9-.5,4.4-.8,2-.4,6,1.7,6.1,3.8.1,1,.6,3.6-.5,4.8a52.77,52.77,0,0,1-9.3,5.2,12.19,12.19,0,0,1-4.5-2s-.2-1.9.4-2.4a5.55,5.55,0,0,1,.8-.6,38.37,38.37,0,0,1-3.5,1.8A41.87,41.87,0,0,0,12.39,102.25Z"/><path class="cls-69" d="M12.39,101.75c.5-3,5.1-1.5,5.1,1.9s-.9,4.6-1,10.4c0,1.3-3.7,1.8-3.8.8S12.59,108.35,12.39,101.75Z"/><path class="cls-58" d="M23.39,94.75c-.2-.8,2-8.9,1.9-11.6,0-1.4,0-2.8.1-3.9a8.65,8.65,0,0,1,.6-3.9c.4-1.1.8-2.2,2.6-1.7a3.38,3.38,0,0,1,1.2.6c.3.1.5.3.8.4l.9.6c1,.7-.1,3.2-.8,5-.1.5,3.1,15.9,2.9,16.8-.5.2-2.4,1.3-6.7.2C24,96.35,23.39,95.25,23.39,94.75Z"/><path class="cls-59" d="M29.19,83.55c.5-1.4.7-2.9,1.3-4.2a7.94,7.94,0,0,0,1-2.7,2.88,2.88,0,0,0-.5-2,37.65,37.65,0,0,1,4.6,3.2c.5,1.3-1.5,5.1-1.6,12a68,68,0,0,0,.6,9c-.2.5-3.4,2-6.6,1.2,0-4.6.2-7.2.2-9.4h0a28.3,28.3,0,0,1,1-7.1Z"/><path class="cls-59" d="M21.79,95.55c.1-1.9,1-4,1.1-7.3.1-2.4-.2-5.8-.4-8.8-.1-1.8.6-5.9,1.9-6.9.5-.4,2.2.1,4.2,1-1.2.3-2.4.7-2.9,1.9s-.5,1.8-.4,5.2a30.12,30.12,0,0,0,.1,5.2,8.68,8.68,0,0,1-.1,2.3,70.4,70.4,0,0,1-2.4,9.3A2.65,2.65,0,0,1,21.79,95.55Z"/><path class="cls-65" d="M25.29,74.35c.5-.6,1.3-1.1,2-.7,0,0-1.8,2.2-1.8,2.8.1,4.9.7,6.3-.3,12.5-.3-5.9-.4-8.6-.6-11.4A3.7,3.7,0,0,1,25.29,74.35Z"/><path class="cls-65" d="M31.19,77.05a1.81,1.81,0,0,0,.1-2.1,2.62,2.62,0,0,1,1.2,3.3c-.8,1.7-2.1,4.2-2.9,5.8a16.69,16.69,0,0,0-1.6,7C27.59,88.15,29.39,79.45,31.19,77.05Z"/><path class="cls-8" d="M26.59,74.75l.1-.1a5.9,5.9,0,0,0,.4-.8c0-.2-.5-.1-.9.5-.5.9-.9,1.8-1.3,2.7,0,0,2.3-.8,2.4-.8s-.7-.7-.7-.9A.64.64,0,0,1,26.59,74.75Z"/><path class="cls-61" d="M31.19,72.25c-.1-.4-.8-.2-1.2-.2h-1.8c-.1,0-.9,0-1,.2a10.41,10.41,0,0,0-.6,1.6c-.2,1.3-.1,2.1.7,2.5l.5.4c1.8,1.3,3.1-.6,3.4-.8-.1-1.4.2-2.8.1-3.4C31.29,72.35,31.29,72.35,31.19,72.25Z"/><path class="cls-8" d="M27.19,76.25l1.8,2.6a5.33,5.33,0,0,0,2.3-1.6,2,2,0,0,0,.6-1.8,3.92,3.92,0,0,0-.8-1C31.09,76.55,28.39,76.75,27.19,76.25Z"/><path class="cls-62" d="M25.89,74.05c.1.6.4,1.4,1,1.5,1.1.2,3.5-.4,3.7-1.2a6.64,6.64,0,0,0,.4-4.6,5,5,0,0,0-1.3-1.9,3.92,3.92,0,0,0-1.4-.8c-1.5-.7-2.8-.6-2.8,1a17.7,17.7,0,0,0-.1,2.3A15.68,15.68,0,0,0,25.89,74.05Z"/><path class="cls-70" d="M25.29,68c.8.4,2.8-.2,3.9,1,.8,1,.5,1.6.6,2.2,0,.1.1.1.2.1l.1-.1a.66.66,0,0,1,.9-.3.1.1,0,0,1,.1.1c.4.4,0,2.8,0,2.8.8-.3,1.4-1.6,1.8-2.9s1-4.1-.2-4.3c0,0,.1-2-3-2.7a4.27,4.27,0,0,0-2.5.1,3.7,3.7,0,0,0-1.1.5C24.19,65.65,24.49,67.45,25.29,68Z"/><polygon class="cls-37" points="17.99 94.05 28.29 100.05 21.69 103.85 11.49 97.85 17.99 94.05"/><path class="cls-37" d="M21.69,103.55l-10.2-6a.14.14,0,0,0-.2,0h0l10.2,6Z"/><path class="cls-36" d="M19,97.45l2.7,1.6,1.8-1-2.7-1.6Z"/><path class="cls-65" d="M20.69,96.45l2.7,1.6h-.1l-2.6-1.6L19,97.55l-.1-.1Z"/><path class="cls-56" d="M12,97.55a.76.76,0,0,1,.4-.2l.5.2c0,.1-.4.3-.4.3Zm.6-.3c0-.1.4-.2.4-.2l.7.4c0,.1-.4.3-.4.3Zm.1.7a.76.76,0,0,1,.4-.2l.5.2c0,.1-.4.3-.4.3Zm.6-1.2a.76.76,0,0,1,.4-.2l.5.2c0,.1-.4.3-.4.3Zm.1,1.7a.76.76,0,0,1,.4-.2l.5.2c0,.1-.4.3-.4.3Zm.2-.7a.76.76,0,0,1,.4-.2l.5.2c0,.1-.4.3-.4.3Zm.3-1.3c0-.1.4-.2.4-.2l.7.4c0,.1-.4.3-.4.3Zm.1.8c0-.1.4-.2.4-.2l.5.2c0,.1-.4.3-.4.3Zm.1,1.5a.76.76,0,0,1,.4-.2l.5.2c0,.1-.4.3-.4.3Zm.1-.6a.76.76,0,0,1,.4-.2l.5.2c0,.1-.4.3-.4.3Zm.4-2.1a.76.76,0,0,1,.4-.2l.5.2c0,.1-.4.3-.4.3Zm.1,1.6c0-.1.4-.2.4-.2l.5.2c0,.1-.4.3-.4.3Zm.1,1.5.4-.2,3.3,1.9c0,.1-.4.3-.4.3l-3.3-2c.1.1.1,0,0,0Zm.1-2.2a.76.76,0,0,1,.4-.2l.5.2c0,.1-.4.3-.4.3Zm.1,1.6a.76.76,0,0,1,.4-.2l.5.2c0,.1-.4.3-.4.3Zm.3-2.1a.76.76,0,0,1,.4-.2l.5.2c0,.1-.4.3-.4.3Zm.2,1.6c0-.1.4-.2.4-.2l.5.2c0,.1-.4.3-.4.3l-.5-.3h0C15.39,98.05,15.49,98,15.49,98.05Zm.1-.7a.76.76,0,0,1,.4-.2l.5.2c0,.1-.4.3-.4.3Zm.1,1.6a.76.76,0,0,1,.4-.2l.5.2c0,.1-.4.3-.4.3Zm.4-2.1a.76.76,0,0,1,.4-.2l.5.2c0,.1-.4.3-.4.3Zm0,1.6a.76.76,0,0,1,.4-.2l.5.2c0,.1-.4.3-.4.3Zm.2-.6a.76.76,0,0,1,.4-.2l.5.2c0,.1-.4.3-.4.3Zm.1,1.5a.76.76,0,0,1,.4-.2l.5.2c0,.1-.4.3-.4.3Zm.4-2.1a.76.76,0,0,1,.4-.2l.5.2c0,.1-.4.3-.4.3l-.5-.3Zm0,1.6a.76.76,0,0,1,.4-.2l.5.2c0,.1-.4.3-.4.3Zm.2-.6a.76.76,0,0,1,.4-.2l.5.2c0,.1-.4.3-.4.3Zm.1,1.5a.76.76,0,0,1,.4-.2l.5.2c0,.1-.4.3-.4.3Zm.4-2.1a.76.76,0,0,1,.4-.2l.5.2c0,.1-.4.3-.4.3Zm0,1.7a.76.76,0,0,1,.4-.2l.5.2c0,.1-.4.3-.4.3Zm.2-.7a.76.76,0,0,1,.4-.2l.5.2c0,.1-.4.3-.4.3Zm.1,1.6a.76.76,0,0,1,.4-.2l.5.2c0,.1-.4.3-.4.3Zm.4-2.1a.76.76,0,0,1,.4-.2l.5.2c0,.1-.4.3-.4.3Zm0,1.5c0-.1.4-.2.4-.2l.5.2c0,.1-.4.3-.4.3l-.5-.3C18.29,99.75,18.19,99.75,18.19,99.65Zm.2,1.6a.76.76,0,0,1,.4-.2l.7.4c0,.1-.4.3-.4.3l-.7-.5Zm.1-2.2a.76.76,0,0,1,.4-.2l.5.2c0,.1-.4.3-.4.3Zm.1,1.6a.76.76,0,0,1,.4-.2l.5.2c0,.1-.4.3-.4.3Zm.4-2.1a.76.76,0,0,1,.4-.2l.5.2c0,.1-.4.3-.4.3Zm0,1.5.4-.2.5.2c0,.1-.4.3-.4.3l-.5-.3C19,100.15,19.09,100.05,19,100.05Zm.2-.6a.76.76,0,0,1,.4-.2l.5.2c0,.1-.4.3-.4.3Zm.1,1.6a.76.76,0,0,1,.4-.2l.5.2c0,.1-.4.3-.4.3Zm.3-2.1a.76.76,0,0,1,.4-.2l.5.2c0,.1-.4.3-.4.3Zm.1,1.5.4-.2.7.4c0,.1-.4.3-.4.3S19.69,100.55,19.69,100.45Zm0,1.6a.76.76,0,0,1,.4-.2l.5.2c0,.1-.4.3-.4.3Zm.2-2.2a.76.76,0,0,1,.4-.2l.5.2c0,.1-.4.3-.4.3Zm.5-.5a.76.76,0,0,1,.4-.2l.5.2c0,.1-.4.3-.4.3Zm0,2.3c0-.1.4-.2.4-.2l.5.2c0,.1-.4.3-.4.3Zm.1.8a.76.76,0,0,1,.4-.2l.5.2c0,.1-.4.3-.4.3Zm.1-2.2a.76.76,0,0,1,.5-.2l.5.2c0,.1-.4.3-.4.3l-.6-.3Zm.5-.5a.76.76,0,0,1,.4-.2l.7.4c0,.1-.4.3-.4.3l-.7-.5Zm0,1.5h0l1-.7h0l1.1.7v.1l-.5.3v.1l.6.4c0,.1-.4.2-.4.2h-.1l-1.7-1.1Zm0,.8c0-.1.4-.2.4-.2l.5.2c0,.1-.4.3-.4.3l-.5-.3c.1.1.1,0,0,0Zm0,.8a.76.76,0,0,1,.4-.2l.5.2c0,.1-.4.3-.4.3Zm.7-.4.4-.2.5.2c0,.1-.4.3-.4.3l-.5-.3Zm.6-1.9.4-.2.5.2c0,.1-.4.3-.4.3Zm.7.4.4-.2.5.2c0,.1-.4.3-.4.3l-.5-.3Zm.1.8a.76.76,0,0,1,.4-.2l.5.2c0,.1-.4.3-.4.3Zm.6-.4.4-.2.5.2c0,.1-.4.3-.4.3l-.5-.3Z"/><path class="cls-36" d="M9.29,91.35l10.2,6,1.7,6.5a.35.35,0,0,1-.1.2c0,.1,0,.2.1.2l-10.2-6c-.1-.1-.1-.1-.1-.2s0-.2.1-.2Z"/><polygon class="cls-37" points="19.69 97.25 9.39 91.25 9.29 91.35 19.59 97.35 19.69 97.25"/><path class="cls-36" d="M19.69,97.25l-.1.1,1.7,6.5a.35.35,0,0,1-.1.2c0,.2.1.3.2.2l6.9-4v-.2l-6.6,3.8v-.1c0-.2-.1-.3-.3-.2Z"/><path class="cls-3" d="M14.39,97.45a2.72,2.72,0,0,0,.8,1c.4.2.7.1.6-.2a1.59,1.59,0,0,0-.8-1C14.59,97,14.39,97.05,14.39,97.45Zm.7-.1a1.39,1.39,0,0,1,.7.8c.1.2-.2.4-.5.2a1.39,1.39,0,0,1-.7-.8C14.49,97.25,14.69,97.15,15.09,97.35Z"/><path class="cls-62" d="M17.89,96c-.2-.1-.2-.4-.3-.6a1.88,1.88,0,0,1-.2-.8,5.84,5.84,0,0,1,.4-1.8,7.57,7.57,0,0,1,.9-1.8c.6-.6,2.4.4,2.2.9a19.45,19.45,0,0,0-.8,2.2,16.69,16.69,0,0,1-.5,1.8.71.71,0,0,1-.6.3l-.5.1h-.2c-.1-.1-.2-.1-.3-.2Z"/><path class="cls-59" d="M36.69,81c-.2.8-1.6,6.3-2.2,8.5a2.07,2.07,0,0,1-1,1.4l-6.2,4.5c-.8.6-2.8-1.9-1.9-2.5L31,88c.5-1.7,1.1-6.7,1.7-9.1a2.15,2.15,0,0,1,2.4-1.2A3,3,0,0,1,36.69,81Z"/><path class="cls-8" d="M25.29,93.15c.9-.4,2.2,1.8,1.7,2.2l-.2.1c-.7.5-2.1-1.7-1.7-2.1Z"/><path class="cls-62" d="M22,97.35a1.7,1.7,0,0,1,0-1,5,5,0,0,1,.5-1.3c.1-.1,2.6-1.6,2.6-1.6.7-.4,1.9,1.4,1.4,1.9-.7.5-1.4,1.1-2.1,1.7a5.39,5.39,0,0,1-.7,1.3,1.34,1.34,0,0,1-.9.2c-.1,0-.1,0-.2-.1l-.3-.3c-.1-.1-.1-.1-.2-.1A1.7,1.7,0,0,1,22,97.35Z"/></g><ellipse class="cls-71" cx="128.26" cy="98.87" rx="15" ry="8.66"/><path class="cls-72" d="M142.32,94.59h0c0-2.07-1.36-4.13-4.09-5.74-5.51-3.1-14.39-3.1-19.85,0-2.72,1.61-4.09,3.67-4.09,5.74h0v4.09h0c0,2.08,1.37,4.14,4.09,5.74,5.51,3.15,14.39,3.15,19.85,0,2.73-1.6,4.09-3.66,4.09-5.74h0Z"/><path class="cls-73" d="M142.32,94.59h0c0-1.83-1.08-3.66-3.19-5.14-1.79,4.15-5.37,12.62-5.37,12.62v4.09a17.07,17.07,0,0,0,4.47-1.71c2.73-1.6,4.09-3.67,4.09-5.74h0Z"/><path class="cls-74" d="M120.26,105.36a23,23,0,0,0,13.46.81v-4.09l-13.46-.81Z"/><ellipse class="cls-75" cx="128.26" cy="94.59" rx="14.07" ry="8.09"/><path class="cls-76" d="M120.26,101.27a23,23,0,0,0,13.46.81l-5.46-7.49Z"/><path class="cls-77" d="M138.19,88.85A19.11,19.11,0,0,0,133,86.93l-4.7,7.62,5.46,7.47a16.53,16.53,0,0,0,4.42-1.71C143.69,97.18,143.69,92,138.19,88.85Z"/><path class="cls-78" d="M114.74,92.43c-1.32,2.73-.09,5.74,3.62,7.9a14.32,14.32,0,0,0,1.93.94l8-6.68Z"/><path class="cls-79" d="M46,61.12V45.78a3,3,0,0,1,1.42-2.36l20-11.64a1.41,1.41,0,0,1,.85-.19.84.84,0,0,0-1.13,0l-20,11.64a3.16,3.16,0,0,0-1.42,2.36V60.93a1,1,0,0,0,.57.94A1.07,1.07,0,0,1,46,61.12Z"/><path class="cls-80" d="M68.81,32.63a1,1,0,0,0-.57-1,.64.64,0,0,1,.29.76l.09,15.33a3.33,3.33,0,0,1-1.42,2.46l-20,11.55a1.4,1.4,0,0,1-.85.19.88.88,0,0,0,1.14,0L67.58,50.42A3.18,3.18,0,0,0,69,48Z"/><path class="cls-81" d="M47.23,61.78,67.3,50.23a3.21,3.21,0,0,0,1.42-2.46V32.44a1.5,1.5,0,0,0-.29-.85.94.94,0,0,0-.85.19L47.42,43.42A3.19,3.19,0,0,0,46,45.78V61.12a1.55,1.55,0,0,0,.29.85A1.54,1.54,0,0,0,47.23,61.78Z"/><path class="cls-82" d="M48.27,57.71V52.22a5.25,5.25,0,0,1,3.41-.57,5.55,5.55,0,0,0,3.88-.76,7,7,0,0,0,3-4,9.45,9.45,0,0,1,2.18-3.31,1.68,1.68,0,0,1,2.55,0,2.36,2.36,0,0,0,3.22.28v3.22S49.6,57,48.27,57.71Z"/><path class="cls-83" d="M61.14,48.24c-1.41.86-2.08-.47-2.74-1.79s-1.51-2.94-3.22-2-3,3.59-4.07,5.87c-.85,1.89-1.7,3.78-2.84,4.44v-.28c1-.57,1.8-2.37,2.65-4.16,1-2.37,2.27-5,4.26-6.16s2.65.48,3.5,2c.67,1.33,1.23,2.56,2.56,1.8A6.35,6.35,0,0,0,63.79,45a8,8,0,0,1,2.84-3.32V42A7.46,7.46,0,0,0,64,45,7.13,7.13,0,0,1,61.14,48.24Z"/><polygon class="cls-84" points="48.27 57.71 48.18 57.71 48.18 47.01 48.27 47.01 48.27 57.71"/><polygon class="cls-84" points="66.63 47.11 66.54 47.2 66.54 36.51 66.63 36.41 66.63 47.11"/><polygon class="cls-84" points="48.18 57.8 48.18 57.71 66.63 47.01 66.63 47.2 48.18 57.8"/><polygon class="cls-85" points="63.82 13.47 63.88 22.12 61.19 23.65 61.19 14.94 63.82 13.47"/><polygon class="cls-86" points="66.82 11.47 66.88 20.12 64.19 21.65 64.19 12.94 66.82 11.47"/><polygon class="cls-82" points="59.68 19.73 59.68 24.27 57.05 25.73 56.99 21.2 59.68 19.73"/><polygon class="cls-86" points="56.06 23.47 56.06 26.42 53.44 27.94 53.38 24.94 56.06 23.47"/><polygon class="cls-85" points="74.92 7.23 74.98 15.88 72.27 17.47 72.27 8.76 74.92 7.23"/><polygon class="cls-82" points="70.74 13.59 70.74 18.12 68.09 19.65 68.03 15.12 70.74 13.59"/></g></g></svg>