<svg xmlns="http://www.w3.org/2000/svg" xmlns:xlink="http://www.w3.org/1999/xlink" viewBox="0 0 150 150"><defs><style>.cls-1,.cls-15,.cls-24{opacity:0.3;}.cls-1,.cls-15,.cls-24,.cls-37,.cls-40,.cls-41{isolation:isolate;}.cls-1{fill:url(#linear-gradient);}.cls-2{fill:#10395e;}.cls-3{fill:#def2fc;}.cls-4{fill:#0098cc;}.cls-5{fill:#71dbf4;}.cls-6{opacity:0.74;}.cls-7{fill:#fc8;}.cls-8{fill:#81c9e4;}.cls-9{fill:#f6921e;}.cls-10{fill:#1eb1e7;}.cls-11{fill:#6397cf;}.cls-12{fill:#3e6a8e;}.cls-13{fill:#8d729f;}.cls-14{opacity:0.8;}.cls-15,.cls-23,.cls-72{fill:#fff;}.cls-16{fill:#e1edf9;}.cls-17{fill:#c7a395;}.cls-18{fill:#efc6b4;}.cls-19{fill:#e5e6e6;}.cls-20{fill:#053552;}.cls-21{fill:#1f5b84;}.cls-22{fill:#5f3a16;}.cls-25{fill:#d1d2d3;}.cls-26{fill:#bcbdbf;}.cls-27{fill:#2a4f68;}.cls-28{fill:#f4f5f5;}.cls-29{fill:#1c374e;}.cls-30{fill:#6d3f26;}.cls-31{fill:#131315;}.cls-32{fill:#4cc6e9;}.cls-33{fill:#a7a8ab;}.cls-34{fill:#9398b4;}.cls-35{fill:#119fc8;}.cls-36,.cls-58{fill:#90d0e4;}.cls-36{opacity:0.34;}.cls-37{fill:#d1ecf1;opacity:0.29;}.cls-38{fill:#8bb4c8;}.cls-39{fill:#7ac8de;}.cls-40{fill:#5d8b9b;opacity:0.19;}.cls-41{fill:#759ba7;opacity:0.31;}.cls-42{fill:#e1ecf0;}.cls-43{fill:#99b0c1;}.cls-44{fill:#eaeaef;}.cls-45{fill:#80addc;}.cls-46{fill:#bad6f0;}.cls-47{fill:#f6f7fb;}.cls-48{fill:#f26c21;}.cls-49{fill:#8aa4be;}.cls-50{fill:#f8b2ae;}.cls-51{fill:#282827;}.cls-52{fill:#facec9;}.cls-53{fill:#432914;}.cls-54{fill:#40709b;}.cls-55{fill:#bddef2;}.cls-56{fill:#315166;}.cls-57{fill:#f69c8b;}.cls-59{fill:#225166;}.cls-60{fill:#305b73;}.cls-61{fill:#5b3916;}.cls-62{fill:#3a5ba8;}.cls-63{fill:#fac3b2;}.cls-64{fill:#6680be;}.cls-65{fill:#7f92c9;}.cls-66{fill:#f8ab97;}.cls-67{fill:#d5d5d5;}.cls-68{fill:url(#linear-gradient-2);}.cls-69{fill:url(#linear-gradient-3);}.cls-70{fill:#66cae5;}.cls-71{fill:#f47e20;}.cls-72{stroke:#9b9b9b;stroke-miterlimit:10;stroke-width:0.36px;}.cls-73{fill:#8fdbf2;}.cls-74{fill:#69d1ed;}.cls-75{fill:#1a99bb;}.cls-76{fill:#eda864;}.cls-77{fill:#5fbad6;}.cls-78{fill:#fab234;}.cls-79{fill:#f79826;}.cls-80{fill:#ffc36c;}</style><linearGradient id="linear-gradient" x1="23.06" y1="95.49" x2="145" y2="95.49" gradientUnits="userSpaceOnUse"><stop offset="0" stop-color="#252058"/><stop offset="1" stop-color="#0c2d2b"/></linearGradient><linearGradient id="linear-gradient-2" x1="-13.66" y1="75.01" x2="-28.92" y2="59.84" gradientTransform="translate(101.92 -44.39) rotate(-7.32)" gradientUnits="userSpaceOnUse"><stop offset="0.04" stop-color="#fffdf5"/><stop offset="1" stop-color="#eeead9"/></linearGradient><linearGradient id="linear-gradient-3" x1="-13.63" y1="74.99" x2="-28.9" y2="59.82" xlink:href="#linear-gradient-2"/></defs><g id="Analytics"><g id="Customer_Journey_Customer_Experience" data-name="Customer Journey Customer Experience"><path class="cls-1" d="M23.06,106.61l40.07,23.24c2.48,1.44,7.64,1.24,10.12-.21,17.66-10.22,69.81-40.58,69.81-40.58,2.58-1.45,2.58-3.83,0-5.37L102.68,60.14Z"/><path class="cls-2" d="M27.71,102.58c.51,2.07,36.35,21.17,36.35,21.17,2.27,1.35,7,1.14,9.29-.2,16.22-9.4,63.62-37,63.62-37,2.27-1.35,3-4.86.72-6.2L100.31,59.93S22.44,83.07,27.71,102.58Z"/><path class="cls-3" d="M27.5,101l36.66,21.28c2.27,1.34,7,1.13,9.3-.21,16.21-9.29,63.92-37.18,63.92-37.18,2.38-1.34,2.38-3.51,0-4.85L100.31,58.49Z"/><path class="cls-4" d="M17.79,49.92c0-.31.11-.52.11-.83,0-.1,0-.21.1-.21.1-.31.2-.51.31-.82V48c.1-.2.2-.51.31-.72a.75.75,0,0,1,.2-.31,1.92,1.92,0,0,1,.42-.52c0-.1.1-.1.1-.2.21-.21.31-.42.52-.62l.2-.11c.21-.2.42-.3.62-.51L85,7.78c.21-.1.52-.21.72-.31l.21-.1a.37.37,0,0,0,.31-.11h.52c.2,0,.31,0,.41.11L85.33,7c-.1,0-.21-.1-.31-.1H84.3L84,7h-.31a5.92,5.92,0,0,0-.72.31L18.82,44.55a1.62,1.62,0,0,0-.62.51l-.1.11a2.75,2.75,0,0,0-.51.61l-.11.11c-.1.1-.1.2-.2.31s-.11.2-.11.31-.1.2-.2.31l-.11.2a1.55,1.55,0,0,0-.2.62v.11h0a1.35,1.35,0,0,0-.21.62v.2c0,.11-.1.21-.1.31s0,.21-.11.21c0,.21-.1.41-.1.62v.1h0v.83h0c0,.41.1.82.1,1.13l11.67,50.92,1.55.93L18.1,52.19a4,4,0,0,1-.1-1.14,2,2,0,0,1-.21-1.13Z"/><path class="cls-3" d="M85,7.88c2.07-1.24,4.34,0,4.86,2.69l10.43,47.92L28.84,101.86,17.9,52.08a6.71,6.71,0,0,1,2.78-7Z"/><polygon class="cls-5" points="20.37 53.53 88.43 14.7 97.52 55.8 30.39 97.01 20.37 53.53"/><g class="cls-6"><polygon class="cls-7" points="69.59 44.47 65.34 40.59 63.81 44.8 57.45 41.62 51.24 62.62 40.48 58.57 37.51 67.11 33.44 65.74 30.47 73.49 24.96 70.01 28.55 86.69 74.09 58 70.71 42.3 69.59 44.47"/><polygon class="cls-8" points="69.72 51.86 61.01 47.65 59.91 51.35 53.61 47.31 48.1 67.05 42.79 65.29 39.68 72.97 30 67.62 26.4 76.72 28.55 86.69 74.28 58.86 71.55 46.23 69.72 51.86"/><path class="cls-9" d="M67.35,49.64l-3.68,9.5-4-2.73L56.35,68.24,48.5,65.35l-2.32,7.91-6.44-3.42L36,80.14l-4.88-2.79L28.2,84.81l1.45,6.74L75.27,63.64l-2-9.16C71.4,52.78,69.41,51.17,67.35,49.64Z"/><polygon class="cls-10" points="28.72 87.47 31.29 88.33 33.98 82.47 38.85 85.2 41.51 76.61 46.55 78.78 48.36 72.45 53.24 74.17 56.12 62.9 65.34 67.79 69.06 57.55 74.67 60.68 76.27 68.14 30.56 96.01 28.72 87.47"/><path class="cls-9" d="M70.57,41.79,63.5,36.33a1.77,1.77,0,0,0-.06-.85,1.62,1.62,0,0,0-.86-1.2,1.19,1.19,0,0,0-1.15,0,2.3,2.3,0,0,0-.36,3.41L59,43.09l-6.18-3.18a2,2,0,0,0-.07-.63,1.67,1.67,0,0,0-.87-1.19,1.17,1.17,0,0,0-1.14.06,2.4,2.4,0,0,0-.88,2.44,2,2,0,0,0,.58,1L45,60.88a.29.29,0,0,0-.28.11,1.77,1.77,0,0,0-.65.68l-7.57-3.46a2.22,2.22,0,0,0-.07-.57,1.64,1.64,0,0,0-.87-1.23,1.16,1.16,0,0,0-1.15.06,2.43,2.43,0,0,0-.88,2.45A1.82,1.82,0,0,0,34.15,60L26.73,78.3,27,79.74l7.89-19.46h0a1.14,1.14,0,0,0,.64-.17,2.13,2.13,0,0,0,.82-1.25l7.44,3.41a3.33,3.33,0,0,0,0,1.14,1.55,1.55,0,0,0,.86,1.19,1.58,1.58,0,0,0,.51.12,1.22,1.22,0,0,0,.64-.17,2.41,2.41,0,0,0,.88-2.45,1.71,1.71,0,0,0-.9-1.2h0l5.42-19h.12a1.09,1.09,0,0,0,.63-.18,2,2,0,0,0,.81-1.14l6.73,3.47,2.33-5.91H62a1.13,1.13,0,0,0,.63-.18,1.72,1.72,0,0,0,.71-1l7.44,5.78ZM35,59.55a.52.52,0,0,1-.41.05,1.08,1.08,0,0,1-.38-.62,2,2,0,0,1,.62-1.93c0-.06.16-.06.27-.12s.13,0,.14.06a.75.75,0,0,1,.32.63A1.7,1.7,0,0,1,35,59.55ZM45.27,64a.37.37,0,0,1-.42.05,1.06,1.06,0,0,1-.37-.62,1.84,1.84,0,0,1,.62-1.93.37.37,0,0,0,.28-.1h.13a1.06,1.06,0,0,1,.37.62,1.85,1.85,0,0,1-.57,2Zm6.17-22.82a.36.36,0,0,1-.42.06,1,1,0,0,1-.37-.63,1.8,1.8,0,0,1,.61-1.92c.05-.06.18-.06.29-.12h.11a1.07,1.07,0,0,1,.39.63A2,2,0,0,1,51.44,41.16Zm10.63-3.85a.37.37,0,0,1-.41.06,1,1,0,0,1-.38-.63,1.81,1.81,0,0,1,.63-1.87c.11-.06.17-.06.28-.11h.13a.83.83,0,0,1,.37.62,1.84,1.84,0,0,1-.61,2Z"/></g><path class="cls-11" d="M124.57,77.8,59.62,115.29l-21.69-12.6,65-37.49ZM75.11,104.34l30.26-17.45-2.9-1.66L72.32,102.69ZM94.32,80.59l-2.69,1.55,2.89,1.65,2.69-1.55Zm9.39-2.07L106.4,77l-2.89-1.75-2.58,1.55,2.78,1.75ZM67,99.69l2.68-1.55-2.89-1.75-2.68,1.55L67,99.69Zm9-8.57-2.68,1.55,2.89,1.76,2.69-1.55ZM57.86,105l2.69-1.55-2.9-1.76L55,103.2,57.86,105ZM88,87.51l-2.9-1.66L82.44,87.4l2.89,1.66L88,87.51Zm.1-3.41-2.69,1.55,3,1.65,2.68-1.55-3-1.65ZM51.66,108.47l2.69-1.55-2.89-1.75-2.69,1.54,2.89,1.76Zm55.15-31.7,2.69-1.55-2.89-1.76L103.92,75l2.89,1.76ZM78.93,89.37l-2.69,1.54,2.89,1.66L81.82,91C81.92,91,78.93,89.37,78.93,89.37ZM97.52,82l2.68-1.55-2.89-1.65-2.68,1.55ZM69.84,94.74l-2.68,1.44,2.89,1.65,2.68-1.55ZM61,103.2l2.68-1.55L60.75,100l-2.68,1.55Zm5,6.51,2.68-1.55-2.89-1.65L63,108.06l2.9,1.65Zm41.82-28.92,2.69-1.55-2.9-1.75L104.85,79C104.85,79.14,107.74,80.79,107.74,80.79ZM80,93.5l-2.68,1.55,2.89,1.65,2.68-1.55L80,93.5ZM90.29,78.21,87.6,79.76l2.89,1.65,2.69-1.55-2.89-1.65Zm9.29-2.06,2.69-1.55L99.38,73l-2.69,1.54,2.89,1.66ZM86.47,89.78l2.89,1.65L92,89.88l-2.89-1.65ZM84,85.13,81.1,83.48,78.41,85l2.89,1.65Zm14.35-2.27-2.68,1.55,2.89,1.65,2.69-1.55-2.9-1.65Zm13.43.31,2.68-1.55L111.56,80l-2.68,1.55ZM71.91,88.75l-2.69,1.54,2.89,1.76L74.8,90.5Zm-10,18.58,2.68-1.54-3-1.76-2.69,1.55,3,1.75Zm9.19-5.26,2.68-1.55-2.89-1.65-2.68,1.55Zm-8.16-4.75,2.69-1.55-2.9-1.65L60,95.66l2.89,1.66Zm-9.19,5.26L56.42,101l-2.9-1.65-2.68,1.55ZM84.09,81.72l-2.68,1.55,2.89,1.65L87,83.38ZM64.88,105.58,67.57,104l-2.89-1.65L62,103.93l2.89,1.65Zm-8-4.75,2.68-1.55-2.89-1.76-2.68,1.66Zm26.23-9.09-2.69,1.55,2.9,1.65L86,93.39ZM93.49,79.66l2.68-1.55-2.89-1.65L90.6,78ZM74.9,87l-2.68,1.55,2.89,1.65,2.68-1.55Zm26.75-2.58,2.68-1.55-2.89-1.65-2.68,1.44,2.89,1.76Zm-9.5,2.06L89.46,88l2.89,1.66L95,88.13Zm13.42.31,2.69-1.55-2.89-1.65-2.69,1.55C102.68,85,105.57,86.78,105.57,86.78ZM73.76,97.11l-2.68,1.55L74,100.42l2.69-1.55-2.9-1.76Zm-8.05-4.75L63,93.91l2.9,1.65L68.6,94Zm-6,20.86,2.69-1.55L59.51,110l-2.68,1.55Zm55-31.81,2.69-1.55-2.89-1.65-2.69,1.55Zm-4-2.37,2.68-1.55-2.89-1.76-2.69,1.55Zm-55,31.81,2.69-1.55-2.89-1.66-2.69,1.55Zm47-36.46,2.69-1.55-2.9-1.65-2.68,1.45,2.89,1.75ZM68.91,108l2.69-1.54-2.9-1.66L66,106.3ZM47.64,106.2l2.68-1.55L47.43,103l-2.68,1.55C44.75,104.44,47.64,106.2,47.64,106.2Zm62.17-31.29,2.68-1.45-2.89-1.65-2.69,1.55,2.9,1.55Zm-37,18-2.69,1.55L73,96.18l2.69-1.55-2.89-1.75ZM64,101.45l2.69-1.55-3-1.65L61,99.8l3,1.65Zm36.67-21.17,2.68-1.55-2.89-1.65-2.69,1.44,2.9,1.76Zm-9.4,2.06-2.69,1.55,2.89,1.76,2.69-1.55C94.11,84,91.22,82.34,91.22,82.34ZM54.76,106.71l2.69-1.54-2.89-1.66-2.69,1.55,2.89,1.65ZM84.92,89.26,82,87.51l-2.69,1.55,2.89,1.65A22.22,22.22,0,0,0,84.92,89.26ZM50.74,104.34l2.58-1.55-2.89-1.65-2.69,1.55,3,1.65Zm63.09-27.06,2.69-1.55-2.89-1.65-2.69,1.55Zm-55,31.81,2.69-1.55-2.9-1.65-2.68,1.55ZM95.25,84.61l-2.69,1.55,2.89,1.76,2.69-1.55-2.89-1.76Zm1.34-6.71,2.68-1.55L96.38,74.7,93.7,76.25ZM87.19,80l-2.68,1.55,2.89,1.75,2.68-1.55ZM72,106.2l2.68-1.55L71.8,103l-2.68,1.55L72,106.2Zm45.85-26.54,2.69-1.55-2.89-1.65L115,78ZM68,103.82l2.69-1.55-2.89-1.65-2.69,1.55L68,103.82Zm36.66-21.17,2.69-1.55-2.89-1.65L101.75,81C101.75,80.9,104.64,82.65,104.64,82.65ZM59.82,99.18l2.69-1.55-2.89-1.76-2.69,1.55,2.89,1.76Zm3,12.39L65.5,110l-2.89-1.76-2.68,1.55,2.89,1.76Zm6-21-2.69,1.45L69,93.7l2.69-1.55Zm40-5.68,2.69-1.54-2.89-1.66-2.69,1.55,2.89,1.65ZM80.89,87,78,85.34l-2.69,1.55,2.9,1.65Zm2.48,4.54,3,1.76,2.69-1.55-3-1.76-2.68,1.55Zm22.31-18.89,2.68-1.55-2.89-1.76-2.69,1.55,2.9,1.76ZM76.86,95.25,74.18,96.8l2.89,1.65,2.68-1.55Zm2.79-14.87L77,81.93l2,1.14,2.68-1.55-2-1.14ZM60.34,91.53l-2.69,1.55,2.07,1.14,2.69-1.55-2.07-1.14ZM98,69.74l-2.68,1.55,2.06,1.24L100.1,71,98,69.74ZM86.78,76.25,84.09,77.8l2.07,1.13,2.68-1.54-2.06-1.14Zm4.13-2.38-2.69,1.55,2.07,1.14L93,75l-2.06-1.14ZM49.08,98,46.4,99.59l2.06,1.14,2.69-1.55L49.08,98Zm-4,2.27-2.69,1.55,2.07,1.24,2.68-1.55Zm10.53-3.82,2.68-1.55L56.21,93.7l-2.69,1.55A20.58,20.58,0,0,0,55.59,96.49Zm46-26.44,2.69-1.55-2.07-1.13-2.68,1.55,2.06,1.13ZM75.73,82.65,72.94,84.2,75,85.44l2.69-1.55-2-1.24Z"/><polygon class="cls-12" points="81.41 83.27 84.3 84.92 86.98 83.38 84.09 81.72 81.41 83.27"/><polygon class="cls-12" points="102.89 70.88 105.78 72.64 108.46 71.09 105.57 69.33 102.89 70.88"/><polygon class="cls-12" points="90.6 78 93.49 79.66 96.17 78.11 93.28 76.46 90.6 78"/><polygon class="cls-12" points="98.65 82.65 101.65 84.41 104.33 82.86 101.34 81.1 98.65 82.65"/><polygon class="cls-12" points="99.38 68.92 101.44 70.05 104.13 68.5 102.06 67.37 99.38 68.92"/><polygon class="cls-12" points="95.35 71.29 97.41 72.43 100 70.88 98.03 69.74 95.35 71.29"/><polygon class="cls-12" points="99.79 72.64 102.68 74.39 105.37 72.84 102.47 71.09 99.79 72.64"/><polygon class="cls-12" points="106.92 73.25 109.81 74.91 112.49 73.36 109.6 71.71 106.92 73.25"/><polygon class="cls-12" points="96.69 74.39 99.69 76.15 102.27 74.6 99.38 72.84 96.69 74.39"/><polygon class="cls-12" points="88.22 75.42 90.29 76.56 92.87 75.01 90.91 73.88 88.22 75.42"/><polygon class="cls-12" points="103.82 75.01 106.81 76.77 109.39 75.22 106.5 73.46 103.82 75.01"/><polygon class="cls-12" points="110.94 75.63 113.83 77.28 116.52 75.73 113.63 74.08 110.94 75.63"/><polygon class="cls-12" points="93.7 76.25 96.59 77.9 99.27 76.35 96.38 74.7 93.7 76.25"/><polygon class="cls-12" points="100.82 76.77 103.71 78.52 106.4 76.97 103.4 75.22 100.82 76.77"/><polygon class="cls-12" points="84.09 77.8 86.16 78.94 88.84 77.39 86.78 76.25 84.09 77.8"/><polygon class="cls-12" points="107.84 77.39 110.84 79.04 113.42 77.49 110.53 75.84 107.84 77.39"/><polygon class="cls-12" points="114.97 78 117.86 79.66 120.55 78.11 117.66 76.46 114.97 78"/><polygon class="cls-12" points="97.72 78.52 100.61 80.28 103.3 78.73 100.41 76.97 97.72 78.52"/><polygon class="cls-12" points="104.85 79.14 107.74 80.79 110.43 79.35 107.53 77.59 104.85 79.14"/><polygon class="cls-12" points="87.6 79.76 90.5 81.41 93.18 79.86 90.29 78.21 87.6 79.76"/><polygon class="cls-12" points="94.63 80.38 97.62 82.03 100.2 80.48 97.31 78.83 94.63 80.38"/><polygon class="cls-12" points="101.75 80.9 104.64 82.65 107.33 81.1 104.44 79.35 101.75 80.9"/><polygon class="cls-12" points="76.97 81.93 79.03 83.07 81.72 81.52 79.65 80.38 76.97 81.93"/><polygon class="cls-12" points="84.5 81.52 87.4 83.17 90.08 81.62 87.19 79.97 84.5 81.52"/><polygon class="cls-12" points="91.63 82.14 94.52 83.79 97.21 82.24 94.32 80.59 91.63 82.14"/><polygon class="cls-12" points="105.78 83.27 108.77 84.92 111.36 83.38 108.46 81.72 105.78 83.27"/><polygon class="cls-12" points="72.94 84.2 74.9 85.44 77.59 83.89 75.62 82.65 72.94 84.2"/><polygon class="cls-12" points="88.53 83.89 91.42 85.54 94.11 84 91.22 82.34 88.53 83.89"/><polygon class="cls-12" points="95.66 84.41 98.55 86.16 101.23 84.61 98.34 82.86 95.66 84.41"/><polygon class="cls-12" points="78.31 85.03 81.3 86.68 83.99 85.13 80.99 83.48 78.31 85.03"/><polygon class="cls-12" points="102.78 85.03 105.68 86.68 108.36 85.13 105.47 83.48 102.78 85.03"/><polygon class="cls-12" points="92.56 86.16 95.45 87.92 98.14 86.37 95.25 84.61 92.56 86.16"/><polygon class="cls-12" points="75.31 86.78 78.21 88.54 80.89 86.99 78 85.23 75.31 86.78"/><polygon class="cls-12" points="82.44 87.4 85.33 89.06 88.02 87.51 85.13 85.85 82.44 87.4"/><polygon class="cls-12" points="89.56 88.02 92.46 89.67 95.14 88.13 92.25 86.47 89.56 88.02"/><polygon class="cls-12" points="72.22 88.54 75.21 90.3 77.9 88.75 74.9 86.99 72.22 88.54"/><polygon class="cls-12" points="79.34 89.16 82.34 90.81 84.92 89.36 82.03 87.61 79.34 89.16"/><polygon class="cls-12" points="86.47 89.78 89.36 91.43 92.04 89.88 89.15 88.23 86.47 89.78"/><polygon class="cls-12" points="69.22 90.3 72.11 92.05 74.8 90.5 71.8 88.75 69.22 90.3"/><polygon class="cls-12" points="76.24 90.91 79.24 92.67 81.92 91.12 78.93 89.36 76.24 90.91"/><polygon class="cls-12" points="83.37 91.53 86.26 93.19 88.95 91.64 86.05 89.98 83.37 91.53"/><polygon class="cls-12" points="66.12 92.15 69.01 93.81 71.7 92.26 68.81 90.61 66.12 92.15"/><polygon class="cls-12" points="57.66 93.08 59.62 94.22 62.3 92.67 60.34 91.53 57.66 93.08"/><polygon class="cls-12" points="73.25 92.67 76.14 94.43 78.83 92.88 75.93 91.12 73.25 92.67"/><polygon class="cls-12" points="80.37 93.29 83.27 94.94 85.95 93.39 83.06 91.74 80.37 93.29"/><polygon class="cls-12" points="63.02 93.91 66.02 95.56 68.7 94.01 65.71 92.36 63.02 93.91"/><polygon class="cls-12" points="70.15 94.43 73.14 96.18 75.73 94.63 72.83 92.88 70.15 94.43"/><polygon class="cls-12" points="53.52 95.36 55.59 96.59 58.27 95.05 56.21 93.91 53.52 95.36"/><polygon class="cls-12" points="77.28 95.05 80.17 96.7 82.85 95.25 79.96 93.5 77.28 95.05"/><polygon class="cls-12" points="60.03 95.67 62.92 97.32 65.61 95.77 62.72 94.12 60.03 95.67"/><polygon class="cls-12" points="67.16 96.18 70.05 97.94 72.73 96.39 69.74 94.73 67.16 96.18"/><polygon class="cls-12" points="74.18 96.8 77.17 98.45 79.86 97.01 76.86 95.25 74.18 96.8"/><polygon class="cls-12" points="56.93 97.42 59.82 99.07 62.51 97.52 59.62 95.87 56.93 97.42"/><polygon class="cls-12" points="64.06 98.04 66.95 99.69 69.63 98.14 66.74 96.39 64.06 98.04"/><polygon class="cls-12" points="71.18 98.56 74.08 100.21 76.76 98.76 73.87 97.01 71.18 98.56"/><polygon class="cls-12" points="46.4 99.49 48.46 100.72 51.05 99.18 49.08 98.04 46.4 99.49"/><polygon class="cls-12" points="53.94 99.18 56.83 100.83 59.51 99.28 56.62 97.63 53.94 99.18"/><polygon class="cls-12" points="60.96 99.8 63.95 101.45 66.54 99.9 63.64 98.25 60.96 99.8"/><polygon class="cls-12" points="50.84 100.93 53.73 102.58 56.41 101.03 53.52 99.38 50.84 100.93"/><polygon class="cls-12" points="42.27 101.86 44.33 103.1 47.02 101.55 45.05 100.31 42.27 101.86"/><polygon class="cls-12" points="57.96 101.55 60.86 103.2 63.54 101.66 60.65 100 57.96 101.55"/><polygon class="cls-12" points="65.09 102.07 67.98 103.82 70.67 102.27 67.78 100.52 65.09 102.07"/><polygon class="cls-12" points="47.74 102.69 50.73 104.34 53.32 102.79 50.43 101.14 47.74 102.69"/><polygon class="cls-12" points="72.11 102.69 75.11 104.34 105.26 86.99 102.37 85.23 72.11 102.69"/><polygon class="cls-12" points="54.87 103.31 57.76 104.96 60.44 103.41 57.55 101.76 54.87 103.31"/><polygon class="cls-12" points="61.99 103.82 64.88 105.58 67.57 104.03 64.68 102.38 61.99 103.82"/><polygon class="cls-12" points="44.75 104.44 47.64 106.2 50.32 104.65 47.43 102.89 44.75 104.44"/><polygon class="cls-12" points="69.12 104.44 72.01 106.2 74.69 104.65 71.8 102.89 69.12 104.44"/><polygon class="cls-12" points="51.87 105.06 54.76 106.72 57.45 105.17 54.56 103.51 51.87 105.06"/><polygon class="cls-12" points="58.89 105.68 61.89 107.33 64.47 105.78 61.58 104.13 58.89 105.68"/><polygon class="cls-12" points="66.02 106.2 68.91 107.95 71.6 106.41 68.7 104.65 66.02 106.2"/><polygon class="cls-12" points="48.77 106.82 51.66 108.47 54.35 106.92 51.46 105.27 48.77 106.82"/><polygon class="cls-12" points="55.9 107.44 58.79 109.09 61.48 107.54 58.58 105.89 55.9 107.44"/><polygon class="cls-12" points="63.02 107.95 65.92 109.71 68.6 108.16 65.71 106.41 63.02 107.95"/><polygon class="cls-12" points="52.8 109.19 55.69 110.85 58.38 109.3 55.49 107.64 52.8 109.19"/><polygon class="cls-12" points="59.93 109.81 62.82 111.47 65.5 109.92 62.61 108.26 59.93 109.81"/><polygon class="cls-12" points="56.83 111.57 59.72 113.22 62.41 111.67 59.51 110.02 56.83 111.57"/><polygon class="cls-12" points="85.44 85.65 88.43 87.3 91.11 85.75 88.12 84.1 85.44 85.65"/><polygon class="cls-12" points="68.08 100.31 70.98 102.07 73.77 100.52 70.77 98.76 68.08 100.31"/><polygon class="cls-12" points="108.88 81.52 111.77 83.17 114.45 81.62 111.56 79.97 108.88 81.52"/><polygon class="cls-12" points="111.97 79.76 114.87 81.41 117.55 79.86 114.56 78.21 111.97 79.76"/><path class="cls-13" d="M89.88,99.28a1,1,0,0,0,0,2L96,104.75a3.92,3.92,0,0,0,3.41,0l8.26-4.75a1,1,0,0,0,.62-1.34.94.94,0,0,0-.62-.62l-6.1-3.51a3.9,3.9,0,0,0-3.4,0Z"/><path class="cls-11" d="M89.88,99.59a1,1,0,0,0,0,2L96,105.06a3.92,3.92,0,0,0,3.41,0l8.26-4.75a1.18,1.18,0,0,0,.72-1.34,1,1,0,0,0-.72-.72l-6.1-3.51a3.9,3.9,0,0,0-3.4,0Z"/><g class="cls-14"><path class="cls-15" d="M21.72,49.61A1.35,1.35,0,0,1,20.48,51a1.44,1.44,0,0,1-1.35-1.24,1.35,1.35,0,0,1,1.24-1.34h0A1.22,1.22,0,0,1,21.72,49.61Z"/></g><g class="cls-14"><path class="cls-15" d="M86.05,12.63a1.25,1.25,0,0,1-1.24,1.24,1.33,1.33,0,0,1-1.23-1.24,1.25,1.25,0,0,1,1.23-1.23A1.33,1.33,0,0,1,86.05,12.63Z"/></g><path class="cls-16" d="M6.33,124c2.68,1.55,8.88.52,13.73-2.17s6.61-6.19,3.93-7.64-8.78-.52-13.74,2.17S3.54,122.52,6.33,124Z"/><path class="cls-17" d="M31,62.1a4.51,4.51,0,0,1,1.24.41,8,8,0,0,1-.1,1.55l-.93.42-1-1.14Z"/><path class="cls-18" d="M24.61,71.09l.41.1c1-1.45,3.51-4.13,4.34-5.68,0-1,.1-2.07.2-3.1.11-.21.62-.31.62-.31S31.63,59.83,32,60s-.93,2.06-.93,2.06-.2,1.24.31,1.55,1.66-1.34,2.07-.83c.21.21-1,1.76-1.24,2.07s-1.24,1-1.34,1.24c-1.24,2-2.27,6.51-3.51,8.05a3.4,3.4,0,0,1-3.21,1.24,11.53,11.53,0,0,1-2.47-2A33.11,33.11,0,0,0,24.61,71.09Z"/><path class="cls-19" d="M17.69,66.75c1.75-1.55,3.72.72,4.23,1.24l2.58,2.58c1.24,1.24-2.16,4.13-3.3,2.89-.93-.93-2.69-2.27-3.3-3.1S15.73,68.4,17.69,66.75Z"/><path class="cls-17" d="M12.94,65.61v1.14L13,68.3l1.76,2.48,2.37.93,2.48-1.35L19,67.68l-1-2.27-3-1C14.28,64.79,13.56,65.2,12.94,65.61Z"/><path class="cls-20" d="M18.2,114.15c1.86,1,2.07,1.24,4.45,2.38.51.2.82,2,0,2.06a5.65,5.65,0,0,1-2.59-.31,8.83,8.83,0,0,1-2.58-1.34s-3-.41-3.51-.93-.1-2.17-.1-2.17A33.34,33.34,0,0,1,18.2,114.15Z"/><path class="cls-21" d="M20.89,84.72c1,9.91-2.27,19.72-2.27,29.64,0,1.55-5.06,1.86-5-.42.31-8.26.72-25.19.93-27.57s3.1-1.76,3.1-1.76S20.58,83.69,20.89,84.72Z"/><path class="cls-20" d="M11.18,118.07c.11.83,2.27,3.62,2.58,4.14.11.2.31,1.13-.2,1.44a4.82,4.82,0,0,1-3.41.21c-1-.52-2.27-3.1-2.58-3.72A5.14,5.14,0,0,1,7.46,118C7.57,118,11.18,117.76,11.18,118.07Z"/><path class="cls-21" d="M20.79,84.82c.2,5.58-5,8.37-5,8.37s-4.13,17-3.82,25c.1,1.55-4.75,2.06-4.75-.31.31-8.26.93-25.61,1.13-28a11.15,11.15,0,0,1,1.55-4.34C10.05,85.44,20.68,84.51,20.79,84.82Z"/><path class="cls-22" d="M20.89,82.34v1.55a10.16,10.16,0,0,1-8.16,2.58C10.36,86.27,9.84,85,9.84,85V83.79Z"/><path class="cls-23" d="M7.67,71.5c1.55-1.34,3.1-2.48,4.75-3.72.52.41,3.51,2.69,3.51,2.69l1.45.1.52-.72a5.8,5.8,0,0,0,0-3.2c.2.1,1.13.41,1.13.41s3.1,2.48,2.58,7.64c-.31,2.38-.51,4.85-.62,7.23.11,1-4.64,3.41-7.43,3.2C11,84.92,9.74,84,9.63,83.27c-.41-2.06-.31-3.61-.72-4.54S8.29,72.74,7.67,71.5Z"/><path class="cls-24" d="M17.69,70.05a8.93,8.93,0,0,1,2.37-.72,5.08,5.08,0,0,0-1.44-1.55L18.2,68C18.1,68,17.79,69.85,17.69,70.05Z"/><path class="cls-24" d="M17,70.36a13.17,13.17,0,0,0-2,1.35c-2.89-1.66-2.58-3.93-2.58-3.93l3.1,2.48Z"/><path class="cls-25" d="M19.75,69.23a5.75,5.75,0,0,0-2.06-2.38,6.54,6.54,0,0,0,.72,1.45Z"/><path class="cls-26" d="M19.13,68.5c.42.11.73.83.73.83s-.83-.41-1.14-.52Z"/><path class="cls-27" d="M17.79,69.85s.41-.52.41-.73.21,0,.21,0A3,3,0,0,1,18,70.36l-.21-.2Z"/><path class="cls-28" d="M17.59,70.26s.61-1.65-.62-4.44a18.65,18.65,0,0,1,2.16,2.68A6.35,6.35,0,0,0,17.59,70.26Z"/><path class="cls-27" d="M16.76,70.47a5.55,5.55,0,0,1-1.34-.73.28.28,0,0,0-.31.31v.11a3.66,3.66,0,0,0,1.86.72v-.21Z"/><path class="cls-26" d="M15.93,70.16c.83.62,1.24.31,1.24.31a23.43,23.43,0,0,1-3.41-1.35,2.65,2.65,0,0,0,1.55,1Z"/><polygon class="cls-29" points="16.76 70.47 17.79 69.85 18 70.36 17.79 70.78 17.48 70.98 16.86 70.88 16.76 70.47"/><path class="cls-28" d="M12.32,67.47a3.31,3.31,0,0,0,.51-1,9.64,9.64,0,0,0,3.1,3.61,4.42,4.42,0,0,0-1,1.35A7.88,7.88,0,0,1,12.32,67.47Z"/><path class="cls-18" d="M19.34,60.35A8,8,0,0,1,20,62.62s.93.72.83,1-.73.52-.73.52.11,2.79-.2,3c-.93.62-2.69,0-3.31-.2s-.41-1-.41-1-.93,0-1-.62-.31-2.58-.31-2.58l2.58-2.79C17.38,60,19.24,60.24,19.34,60.35Z"/><path class="cls-30" d="M14.9,66.23c.52-.41.21-1.86.93-2.27a1.1,1.1,0,0,1,1.24.21,4.16,4.16,0,0,1,.72-1.55,1.51,1.51,0,0,0,.41-1.34s.73-.93,1.55-.83a1.59,1.59,0,0,0-.93-.72,1.68,1.68,0,0,1,1,0,7,7,0,0,0-3.41-1.66,3.87,3.87,0,0,0,1.14-.2,10,10,0,0,0-3.52.31s-.2-.11.11-.52A3.49,3.49,0,0,0,12,59.31a11.17,11.17,0,0,0-1,.62,1.82,1.82,0,0,0,.72-.1,6.82,6.82,0,0,0-.41,3.2,4.19,4.19,0,0,0,1.34,2.58C13.56,66.34,14.38,66.65,14.9,66.23Z"/><path class="cls-31" d="M19.65,86.58h0l.21.1.41-.72,5.89-3.31c.2-.1.2-.31.31-.41V77.59l.41-.72-.31-.21h-.21l-6.61,3.72a.57.57,0,0,0-.31.41v5.48c.11.2.11.31.21.31Z"/><path class="cls-32" d="M19.75,86.58V81.1c0-.2.11-.31.31-.41L26.67,77c.11-.1.31,0,.31.21v5.47c0,.21-.1.31-.31.42l-6.61,3.71C19.86,86.78,19.75,86.78,19.75,86.58Z"/><path class="cls-33" d="M26.67,80a.85.85,0,0,1-.41.72c-.21.1-.41,0-.41-.21a.85.85,0,0,1,.41-.72C26.47,79.66,26.67,79.76,26.67,80Z"/><path class="cls-18" d="M10.87,80.69v2.58c2.27.11,4.55.62,5.27.42S17.79,82.24,18.2,82l1.24-.31v1l1.35.1s1.65-1,1.86-.52-1.14,3.2-1.76,3.51-3.92,0-4.65.11S12.52,87.2,9.63,87.2C8.19,87.2,7,85.44,6.85,85s-.11-4-.11-4Z"/><path class="cls-17" d="M10.87,83.38a9,9,0,0,0-2.79,1.44A2.64,2.64,0,0,1,10.87,83.38Z"/><path class="cls-19" d="M8.81,71.29c2.37,0,2.37,3.2,2.37,3.93,0,2,.11,4,.11,5.57,0,1.35-5,1.35-5,0s-.1-5.57-.1-6.61C6.23,73.46,6.23,71.29,8.81,71.29Z"/><path class="cls-9" d="M75.52,57.45c-2.58,5.48-7.85,8.37-11.88,6.51s-3.71-7.43-1.13-12.91h.31c2.58-5.47,6-8.78,10-6.92S78.1,52,75.52,57.45Zm-16-7.53h0c-3,6.5-1.55,13.63,3.2,15.8,4.24,2,11.26-.21,14.57-5.37l2-4.24c1.86-5.88-1.34-12-5.58-14C68.91,40,62.51,43.51,59.51,49.92Z"/><polygon class="cls-34" points="64.78 66.85 62.09 65.41 61.99 63.65 66.64 66.13 64.78 66.85"/><polygon class="cls-34" points="74.69 45.37 71.8 44.13 74.08 42.48 76.24 43.62 74.69 45.37"/><path class="cls-35" d="M77.59,55.39a13.63,13.63,0,0,1-1,2.89,12.48,12.48,0,0,1-4.44,5.37,7.31,7.31,0,0,1-7.54,1.14c-4-1.86-5.26-7.85-2.68-13.33s8-8.36,12-6.5l.62.31C77.38,47,78.62,51.15,77.59,55.39Z"/><path class="cls-36" d="M74.69,45.37c2.48,2.58,3,7.44.93,12h0c-2.58,5.47-7.84,8.37-11.87,6.51a3.78,3.78,0,0,1-.83-.52,6.15,6.15,0,0,0,1.86,1.34c4,1.86,9.4-1,12-6.5h0C78.93,53.22,78.1,47.64,74.69,45.37Z"/><path class="cls-37" d="M72.22,63.65c-2.38,1.76-5.17,2.27-7.54,1.14a6.7,6.7,0,0,1-3.62-4.55,15,15,0,0,1-.41-2.06,14,14,0,0,1,.1-2.89,11.12,11.12,0,0,1,.62-2.48c.21-.52.31-.93.52-1.35,2.58-5.47,8-8.36,12-6.4l.62.31A150.88,150.88,0,0,0,72.22,63.65Z"/><path class="cls-38" d="M68.91,51.67a2.65,2.65,0,0,1-1.24,1.55l-6.92,2.07a9.15,9.15,0,0,1,.62-2.38l6.82-2.06h.41C68.91,50.85,69,51.15,68.91,51.67Z"/><path class="cls-38" d="M67.67,57.14a2.18,2.18,0,0,1-1.24,1.45l-5.37,1.65a15,15,0,0,1-.41-2.06l6.3-2h.41C67.57,56.22,67.78,56.63,67.67,57.14Z"/><path class="cls-39" d="M62.51,51.05h.31a21.54,21.54,0,0,1,2.27-3.92A12.87,12.87,0,0,0,62,51.46h0a14.28,14.28,0,0,0-1.34,6.2A18.79,18.79,0,0,1,62.51,51.05Z"/><path class="cls-40" d="M74.07,56.94c-1.34,5-4.95,8.36-8,7.54s-4.54-5.58-3.2-10.64,5-8.37,8.05-7.54S75.42,52,74.07,56.94Z"/><path class="cls-41" d="M68,53.22c-1.13,2.07-2.89,3.31-3.82,2.79s-.83-2.69.31-4.75,2.79-3.31,3.82-2.79S69.12,51.15,68,53.22Z"/><polygon class="cls-42" points="79.44 56.84 77.48 61.07 77.9 61.17 80.79 62.72 84.4 64.48 87.6 60.35 82.85 58.28 79.86 57.04 79.44 56.84"/><path class="cls-43" d="M82.85,58.28c1.76,1-.1,5.06-2.06,4.34L93,68.71c1,.52,2.38-.21,3.1-1.65s.31-3-.72-3.41Z"/><path class="cls-7" d="M75.83,43.31C71,41.14,64.68,44.55,61.58,51.05h0c-3,6.51-1.55,13.63,3.2,15.8,4.34,2,9.81-.51,13.12-5.68h0A13.58,13.58,0,0,0,79,59.11h0a20,20,0,0,0,.83-2.17h0c0-.11.1-.21.1-.31s.1-.31.1-.41v-.11h0C81.51,50.64,79.86,45.27,75.83,43.31Zm1.86,15.18h0c-2.58,5.47-8,8.36-12,6.5S60.44,57.14,63,51.67h0c2.59-5.47,7.85-8.36,12-6.5S80.17,53,77.69,58.49Z"/><path class="cls-44" d="M77.9,58.8h0C80,54.25,79.55,49.3,77,46.71c2.37,2.69,2.78,7.44.72,11.78h0c-2.58,5.47-8,8.36-12,6.5A6.78,6.78,0,0,1,64,63.75,7.64,7.64,0,0,0,66,65.3C70.05,67.16,75.31,64.27,77.9,58.8Z"/><path class="cls-9" d="M61.89,51.36h0c3-6.5,9.4-9.91,14.15-7.74A8.22,8.22,0,0,1,78,45a6.4,6.4,0,0,0-2.17-1.55C71,41.14,64.68,44.55,61.58,51.05h0c-2.48,5.37-2,11.15,1,14.25C59.93,62.2,59.41,56.63,61.89,51.36Z"/><path class="cls-45" d="M24.5,36.9V20.17a3.31,3.31,0,0,1,1.55-2.58L47.84,4.89a1.52,1.52,0,0,1,.93-.21.94.94,0,0,0-1.24,0L25.74,17.39A3.44,3.44,0,0,0,24.19,20V36.7a1.14,1.14,0,0,0,.62,1A1.22,1.22,0,0,1,24.5,36.9Z"/><path class="cls-46" d="M49.39,5.82a1.12,1.12,0,0,0-.62-1,.67.67,0,0,1,.31.82l.11,16.73A3.68,3.68,0,0,1,47.64,25L25.85,37.63a1.58,1.58,0,0,1-.93.2.94.94,0,0,0,1.24,0l21.89-12.6a3.46,3.46,0,0,0,1.55-2.68Z"/><path class="cls-47" d="M25.85,37.63,47.74,25a3.47,3.47,0,0,0,1.55-2.69V5.61A1.64,1.64,0,0,0,49,4.68a1.06,1.06,0,0,0-.93.21l-22,12.7a3.47,3.47,0,0,0-1.55,2.58V36.9a1.72,1.72,0,0,0,.31.93A1.76,1.76,0,0,0,25.85,37.63Z"/><path class="cls-48" d="M27,33.19v-6a5.73,5.73,0,0,1,3.72-.62,6.08,6.08,0,0,0,4.23-.83c1.86-1,2.59-2.58,3.31-4.34a10.53,10.53,0,0,1,2.37-3.61c1.35-1.14,2.07-.52,2.79,0a2.58,2.58,0,0,0,3.51.31v3.51S28.43,32.36,27,33.19Z"/><path class="cls-4" d="M41,22.86c-1.55.93-2.27-.52-3-2s-1.65-3.21-3.51-2.17-3.3,3.92-4.44,6.4C29.15,27.2,28.22,29.26,27,30v-.31c1.14-.62,2-2.58,2.89-4.54,1.14-2.58,2.48-5.47,4.65-6.71s2.89.51,3.82,2.17c.73,1.44,1.35,2.78,2.79,2a7,7,0,0,0,2.79-3.2A8.72,8.72,0,0,1,47,15.73V16a8.11,8.11,0,0,0-2.89,3.31A8,8,0,0,1,41,22.86Z"/><polygon class="cls-49" points="26.98 33.19 26.88 33.19 26.88 21.52 26.98 21.52 26.98 33.19"/><polygon class="cls-49" points="47.02 21.62 46.91 21.72 46.91 10.05 47.02 9.95 47.02 21.62"/><polygon class="cls-49" points="26.88 33.29 26.88 33.19 47.02 21.52 47.02 21.72 26.88 33.29"/><path class="cls-50" d="M131.39,85.34c-.1-.21-.1-.52-.21-.83a36.87,36.87,0,0,1-.72-8.16c.1-.93-4.34-1-4.34-1s0,5.06-.1,6.92c-.1,2.06-.1,2.79,1,4A60.71,60.71,0,0,0,132.11,91c.42-1.24.83-2.48,1.24-3.82l-.41-.42C132.42,86.27,131.91,85.85,131.39,85.34Z"/><path class="cls-50" d="M138,92.36c-.93-.83-3.31-3.51-5.27-5.58l-1.24,3.72c1.55,1.45,3,2.69,3.72,3.31a9.48,9.48,0,0,1,2.69,5.37c.31.93,2.06,0,2.06-1.76a12,12,0,0,1,0-2.68C140.17,94,139.45,93.6,138,92.36Z"/><path class="cls-51" d="M140.48,94a3.67,3.67,0,0,0-1.34-1.44h0l-.11-.11h0a3,3,0,0,0-.93-.1s1.76,2,1.55,3.82c-.2,2.07-.62,2.79-1.65,3a7,7,0,0,1,.31,2.06c.1.72.83.83,1.65-.41a3.67,3.67,0,0,0,.72-2.69,24.79,24.79,0,0,1-.51-2.89v-.31h0c.51.42.82.72,1.24,1a.37.37,0,0,0,.41-.41A6.38,6.38,0,0,1,140.48,94Z"/><path class="cls-52" d="M131.7,77.08s-.62,4.33-1,6.19a20.63,20.63,0,0,0-.42,8,83.59,83.59,0,0,1-.62,10.23,10.73,10.73,0,0,1-2.47,5.37c-.62.72.82,1.65,2.16.72s1.76-1.86,2.59-2.06.41-.93.62-2.79c.1-1.45,1.24-5.68,2-8.68.93-4.23,0-4.44.31-6.61a36.65,36.65,0,0,1,2.27-8C137.48,78.52,131.7,77.08,131.7,77.08Z"/><path class="cls-51" d="M132.94,103.41v-.1h0a2.21,2.21,0,0,0-.52-.83s-.41,2.58-2.06,3.51c-1.76,1.14-2.58,1.24-3.31.62a20.37,20.37,0,0,1-1.44,1.55c-.52.52-.11,1.14,1.34,1.14a3.37,3.37,0,0,0,2.58-1.14c.62-.72,1.24-1.45,2-2.17l.31-.2h0v1.65c.11.2.31.2.52,0a15.15,15.15,0,0,1,.41-2.07,2.6,2.6,0,0,0,.21-2Z"/><path class="cls-53" d="M137.38,46.51l-1.55,4.23,2.27.83a1.25,1.25,0,0,0,.11-1.65A5.64,5.64,0,0,1,137.38,46.51Z"/><path class="cls-54" d="M133.66,66.75c-2.06,0-4.44.52-6.4-.31-.1,0-.21,0-.21.1h0a.1.1,0,0,0-.1.11c-.93,3.51-1.24,10.63-1,16.11,1.65,1.54,3.51,3.61,6,3.71,2.06,0,2.17-.2,3.09-.72.93-2.79,3.1-7.64,3.31-10.74.21-2.48-.72-6.2-1.65-7.43A18,18,0,0,0,133.66,66.75Z"/><path class="cls-43" d="M132.11,49.09c-1.24-.72-2.48-1.55-4,.52s-3.52,6.5-4.55,8.36c-1.24,2.27-2.89,5.78-2.89,5.78l2.27.93A18.3,18.3,0,0,0,126.23,60a7.7,7.7,0,0,0,2.37-4.13C128.71,55.8,135.52,51.05,132.11,49.09Z"/><path class="cls-23" d="M138.83,53.22c-.31-1.14-3-2.37-3-2.37L133.15,53a15.76,15.76,0,0,0-1.86,2h0a17.64,17.64,0,0,1,.82-3.93,9,9,0,0,0-.1-2.37,2.37,2.37,0,0,0-.72-.11c-.62.73-1.76,2.48-2.38,3.2s-2.48,3.21-1.86,5.48a34.42,34.42,0,0,1,.73,5.57c-.11,1.35-.31,2.59-.52,3.93,1.34,3.1,8.26,3.72,10.22,1.34a57.14,57.14,0,0,1-.82-7.23C136.35,60.76,139.76,57,138.83,53.22Z"/><path class="cls-55" d="M131.18,48.57s-3.61,4.13-4.23,5.06c-1.55,2.28-.83,3.62-.83,5.79a42.84,42.84,0,0,1-.2,6.3c-.31,1.55-.42,3.09-.62,4.64.62,1.45,2.79,1.66,2.79,1.66s-.21-13.74.82-16.84a16.22,16.22,0,0,1,3.2-5.06Z"/><path class="cls-53" d="M127.16,46.71a20.64,20.64,0,0,0,1.34,3.1c.41,1.45-1.34,1.65-1.34,1.65a2.17,2.17,0,0,0,2.37,0c1.55-.92,1.65-4.13,2.07-4.54,1-.93-2.28-6.51-2.28-6.51S126.54,42,127.16,46.71Z"/><path class="cls-56" d="M131.39,48.88s-2.37,2.48-1.45,3.31,2.79,0,2.79,0l-.1-2.58Z"/><path class="cls-57" d="M131.7,49a15.42,15.42,0,0,1-.31,3.09,4,4,0,0,0-.41,2.69,10.11,10.11,0,0,0,2.68-2,7.53,7.53,0,0,0,1.45-2.48,14.21,14.21,0,0,1,.31-4.24C134,45.47,131.7,49,131.7,49Z"/><path class="cls-55" d="M135,50.23A41.72,41.72,0,0,0,132,58a27.57,27.57,0,0,0-.72,9.19c.2,2.58.31,5.79.31,5.79a15,15,0,0,0,4.23,0,4,4,0,0,0,2.69-2c-.52-2.68-.93-5.47-1.24-8.26a31.87,31.87,0,0,1,2.17-9.19C138.41,51,135,50.23,135,50.23Z"/><path class="cls-58" d="M118.58,60.14c.11-.1.21,0,.42,0l4.54,2.58A3.64,3.64,0,0,1,125,64.06l4.75,8.37c.2.31.2.52.1.52h0l-.52.3-.2-.41-4.24-2.48A3.55,3.55,0,0,1,123.44,69l-4.86-8.36v-.11l-.1.11-.41-.31.51-.21Z"/><path class="cls-35" d="M118.58,60.45,123,63a3.62,3.62,0,0,1,1.44,1.34l4.85,8.37c.31.51.11.72-.41.51l-4.44-2.58A3,3,0,0,1,123,69.33L118.17,61C117.86,60.45,118.07,60.24,118.58,60.45Z"/><path class="cls-52" d="M132.73,65.3a28.3,28.3,0,0,1-4,1c-.83.2-1.86-.42-2.59-.31.11.2.62.93.21,1.24-.72.51-2.69-1.24-2.69,0,0,.72.93,1.75,1.86,2.16,1.55.73,2.48-.51,4-1.24.62-.31,3.51.11,4.44-.2C133.56,67.16,133,66,132.73,65.3Z"/><path class="cls-52" d="M120,64.37c.72-.2,2.48,1.76,2.27,2.48s-1.75.21-2.17-.41S119.41,64.48,120,64.37Z"/><path class="cls-43" d="M137.59,51.46c-.52.31-1.86,2.79-1.86,5.27,0,1.86,1.55,6.92,1.55,6.92s-5.27,1.65-6.92,2.07a3,3,0,0,0,.51,2.78,31.59,31.59,0,0,0,7-.51c3.2-.72,3.61-1.76,3.92-3.51s-1-9.61-2-11.16A4.51,4.51,0,0,0,137.59,51.46Z"/><path class="cls-59" d="M129.74,52.6A15.12,15.12,0,0,0,127.57,55a13.59,13.59,0,0,0-1.24,2.47,1,1,0,0,0,.31.73l.62.41L127,59.83a6.05,6.05,0,0,0,.1,1.34,1.3,1.3,0,0,0,1.66.31,19.2,19.2,0,0,1,.82-4.23,13,13,0,0,1,2.07-3.2Z"/><path class="cls-56" d="M131.8,52.81a25.29,25.29,0,0,0-.93,3.72c-.1,1.13-.31,2.47-.31,2.47a3,3,0,0,0,1.66.21,1.48,1.48,0,0,1,.62-.21l.2-1.65a2.44,2.44,0,0,0,1.24-.72c.52-.62.31-3.82.31-3.82Z"/><path class="cls-60" d="M130.56,48.88a6.33,6.33,0,0,0-2.27,2.89c-.41,1.45.93,2,1.65,3s3.21-.21,4.75-1.24,2.48-1.55,2.38-2.68,0-1.45-.62-2a11.85,11.85,0,0,1-1.14-1.13l-.41.93a2.5,2.5,0,0,1-1.44,2.58,3.13,3.13,0,0,1-3,0c-.21-.31.41-.93,1.14-1.55C132,49.5,130.56,48.88,130.56,48.88Z"/><path class="cls-52" d="M129.22,43.31c-1.44,3.09,1,7.43,2.69,6.92a6.69,6.69,0,0,0,3.61-3.1,5,5,0,0,0-.72-5.06,3.44,3.44,0,0,0-4.86.2A3.71,3.71,0,0,0,129.22,43.31Z"/><path class="cls-61" d="M133,39.9s-2.48-2.38-4.54,1.24a2.64,2.64,0,0,0,0,3.2,11.62,11.62,0,0,0,3.3-.52s1.35.62,2.07,3.31c.31,1.13-.72,3.92-1.45,5.37-.51,1,.21,3.92,2.07,3.2-1.55-.52,1-3,2.06-4.85.52-.83.31-2.28.42-2.9A9.1,9.1,0,0,0,135.83,41C135.11,39.59,133,39.9,133,39.9Z"/><path class="cls-62" d="M78.52,89.16c.92-.1,1.13,3.3,0,3.61s-1.66-1.55-1.45-2.48A1.39,1.39,0,0,1,78.52,89.16Z"/><path class="cls-63" d="M76.76,89.88a9.27,9.27,0,0,0,3.3-1c.83-.72,1.24-.72,1.35-.41s-.21.51-.62.93-.42.41-.31.51c.62.21,1.55-.31,2.79,0a1.23,1.23,0,0,1,.51,2.27c-.51.42-3.51.21-4.65.21a16.56,16.56,0,0,1-2.37-.21Z"/><path class="cls-64" d="M70.87,89.78a55.3,55.3,0,0,1-2.79-10l-.72-2s2.89-1,4.65,3.2c.72,1.86,1.14,6.09,1.55,7.64a20.46,20.46,0,0,1,5,.52c-.83.82-.42,2.89,0,3.61-.93.42-5.37,1.14-6.92.42C71,92.67,71.6,90.6,70.87,89.78Z"/><path class="cls-56" d="M73.35,131.81s.83.93,2,2,1.35,1.24,2.28,2.17c.51.52.1,1-.93,1a14.56,14.56,0,0,1-4.24-.93,22.77,22.77,0,0,1-3.1-1.65,2.47,2.47,0,0,1-.93-1.13V131.6Z"/><path class="cls-56" d="M61.89,137.59s.21,1.66.31,3.82-.21,4-.83,4.24-2.48.2-3.61-2.79a11.42,11.42,0,0,1-.42-5.89Z"/><path class="cls-54" d="M58.07,105.17a12.25,12.25,0,0,1,3-9.3c-.31-2.06,9.3.83,9.3.83s2.06,11,2.89,16.93a176.89,176.89,0,0,1,1.13,18.08,3.18,3.18,0,0,1-3.2,1.75,5.18,5.18,0,0,1-3.4-1.55l-.21-13.84L65,108.57s0,9.4-1,13.22c-1.65,5.68-1.13,16.63-1.13,16.63s-3.2,1.14-5.37,0-1.76-2.27-1.76-2.27-.72-9.4,2.07-15.7C58.07,115.7,58.27,108,58.07,105.17Z"/><path class="cls-65" d="M68.5,78.63s3.3,2.68,3.72,6.4c.2,1.86-.42,8.16-.42,12.29,0,2.27.93,8.78.93,8.78a18.15,18.15,0,0,1-3,1.65,31,31,0,0,0-.62-4.24s-.21,2.9-.21,4.44a12.94,12.94,0,0,1-3.41.52c-3.09,0-7.64-2.06-7.64-2.06s-.62-4,1.34-10.85c1.14-4-1.44-11-1.24-12.08.21-1.86,4.45-3.93,4.45-3.93S65.5,77.39,68.5,78.63Z"/><path class="cls-64" d="M67.05,78.21a18.12,18.12,0,0,1,3.1,3.2,6,6,0,0,1,.93,1.76l-.93.93,1.34.62s.83,5.16-.31,6.92a33.4,33.4,0,0,0-2.27,6.09,46,46,0,0,0-2.06-5.58c-.62-1.13-3.1-4.23-3.1-4.23L65,86.06l-2-.62s-2.78-3.51-2.47-4.54A3.4,3.4,0,0,1,63,78.52Z"/><path class="cls-23" d="M68.91,81.83a31.93,31.93,0,0,1,1.24,4.54c.41,2.17-1.14,9.29-1.14,9.29s-.72-7-2.06-9a40.77,40.77,0,0,0-3.82-4.54S67.47,81.31,68.91,81.83Z"/><path class="cls-66" d="M67.36,78.52l.21,2.89a8.55,8.55,0,0,1-1.34,1.35,17.36,17.36,0,0,1-3.52-2.59l.83-4.54Z"/><path class="cls-63" d="M63.13,76.46a7.05,7.05,0,0,0,4.44,2.78c1.86.31,3.92-4.85,1.75-8a3.74,3.74,0,0,0-5.26-1.34,2.78,2.78,0,0,0-1,.93A5.88,5.88,0,0,0,63.13,76.46Z"/><path class="cls-67" d="M67.47,79.66,67.26,82l1.86.83C69.12,82.76,69.32,80.28,67.47,79.66Z"/><path class="cls-67" d="M62.92,79.24a4.86,4.86,0,0,0,2,1.86,20.9,20.9,0,0,0,2.28.83l-.73,2.17A13.74,13.74,0,0,1,63,82.24C63.13,82.34,61.58,80.59,62.92,79.24Z"/><path class="cls-64" d="M57.86,94.94c-.83,1.34-.93,3.62-2.89,3.41-1.14-.21-2.07-2.48-1.86-3.72a30.26,30.26,0,0,1,2-7.43c1.24-3.41,2.27-5.37,4.13-5.27.83.62,1.45,3.41.83,6.2A69.75,69.75,0,0,1,57.86,94.94Z"/><path class="cls-63" d="M61.68,101.24a3.22,3.22,0,0,1,.73,3,2.77,2.77,0,0,1-2.59,2.06c-.72.11-.72-.31-.41-.62a1.91,1.91,0,0,1,.93-.41,3.86,3.86,0,0,1-.83-2.58C59.62,101.76,61.68,101.24,61.68,101.24Z"/><path class="cls-64" d="M57.45,93.39s1.34,2.48,2.17,3.82a43.7,43.7,0,0,0,2.68,3.62,3.46,3.46,0,0,1-.93,2,2.94,2.94,0,0,1-2.27,1s-4.13-4-5-5.88S57.45,93.39,57.45,93.39Z"/><path class="cls-61" d="M65.19,68.61a5.12,5.12,0,0,1,3.51.62h0a5.55,5.55,0,0,1,1.66,1.86L71.29,73a8.57,8.57,0,0,1-4.55,0h-.1a3.74,3.74,0,0,1-2.17,2.47c-.21-.72-.52-.93-.83-.62s-.31,1.66-.31,1.66A5.52,5.52,0,0,1,61.79,73C61.68,71.6,62.61,68.92,65.19,68.61Z"/><path class="cls-68" d="M85.4,11.4c5.27-4,10.33-2,11.16,4.65S93.77,31.23,88.5,35.26s-10.33,2-11.15-4.65S80.13,15.43,85.4,11.4Zm2.79,21.38c4.23-3.2,7.13-10,6.4-15.18S90,10.78,85.81,14s-7,10-6.4,15.18,4.65,6.82,8.78,3.62"/><path class="cls-69" d="M86.12,16.87c2.9-2.16,5.58-1,6.1,2.48a12.45,12.45,0,0,1-4.34,10.43C85,32,82.3,30.82,81.79,27.3A12.5,12.5,0,0,1,86.12,16.87ZM87.57,27.3A7.45,7.45,0,0,0,90.26,21c-.31-2.16-2-2.89-3.72-1.54a7.74,7.74,0,0,0-2.69,6.3c.31,2.16,2,2.89,3.72,1.54"/><path class="cls-9" d="M94.59,17.6C93.87,12.43,90,10.78,85.81,14s-7,10-6.4,15.18,4.65,6.82,8.78,3.62S95.32,22.76,94.59,17.6ZM87.88,29.78C85,32,82.3,30.82,81.79,27.3a12.5,12.5,0,0,1,4.33-10.43c2.9-2.16,5.58-1,6.1,2.48a12.57,12.57,0,0,1-4.34,10.43"/><path class="cls-70" d="M85.09,8.3c-6.71,5.17-11.15,16-10.12,24.27s7.33,10.84,14,5.78,11.15-15.9,10.12-24.16S91.7,3.24,85.09,8.3Zm3.51,27c-5.37,4-10.32,2-11.25-4.65S80.13,15.43,85.4,11.4s10.33-2,11.16,4.65-2.69,15.18-8,19.21"/><path class="cls-48" d="M90.15,20.9c-.31-2.17-2-2.89-3.72-1.55a7.78,7.78,0,0,0-2.68,6.3c.31,2.17,2,2.89,3.72,1.55A7.31,7.31,0,0,0,90.15,20.9Z"/><path class="cls-11" d="M86,7.68a2,2,0,0,0,.62-.41l.21-.1.51-.31.11-.11.72-.31.41-.2h.11c.2-.11.41-.11.62-.21s.62-.1.82-.21h.21c.21,0,.52-.1.72-.1H92a2.05,2.05,0,0,1,.72.1h0l.62.11h.21c.21,0,.31.1.52.2l.1.11L90.46,4.69h-.2c-.21-.11-.31-.11-.52-.21h-.21a1.33,1.33,0,0,0-.62-.1h0c-.2,0-.41-.11-.72-.11h-.93a1.62,1.62,0,0,0-.72.11h-.21c-.31.1-.62.1-.82.2h0a1.48,1.48,0,0,0-.62.21l-.21.1L84.37,5h0l-.72.31-.11.1L83,5.72h-.11l-.1.1-.62.31-.1.11a6,6,0,0,1-.83.51,6.94,6.94,0,0,0-.93.83l-.21.1a7.09,7.09,0,0,0-.82.83l-.21.21a6.71,6.71,0,0,0-.82.92l-.11.11c-.31.31-.51.62-.82.93l-.11.1v.1l-.62.83h0c-.2.21-.31.52-.51.72v.11l.1-.11c-.31.42-.52.83-.83,1.35h0a.1.1,0,0,1-.1.1,9.32,9.32,0,0,1-.62,1l-.1.11v.1c-.21.31-.31.72-.52,1v.1l-.1.11c-.1.31-.31.62-.41.93l-.11.1h0c-.1.31-.31.72-.41,1v.11c0,.1,0,.1-.1.2-.11.31-.21.52-.31.83l-.11.21v.1a10,10,0,0,1-.31,1h0V21a3.1,3.1,0,0,0-.2.93v.21a4.09,4.09,0,0,0-.21,1.14h0v.1a2.6,2.6,0,0,1,0,1.24v.21c-.1.41-.1.93-.21,1.34v3.41c0,.41.11.72.11,1.13.51,4.13,2.37,6.82,4.85,7.85l3.72,1.55c-2.48-1-4.34-3.82-4.86-7.85,0-.41-.1-.72-.1-1.13V27.72a5.74,5.74,0,0,1,.21-1.35v-.2c.1-.41.1-.83.2-1.14v-.1a4.09,4.09,0,0,0,.21-1.14l.1-.31a2.84,2.84,0,0,0,.21-.93v-.1c.1-.41.21-.72.31-1l.1-.31c.11-.31.21-.52.31-.83l.11-.2c.1-.31.31-.73.41-1l.1-.2a3.82,3.82,0,0,1,.42-.93l.1-.21a9.82,9.82,0,0,1,.52-1c0-.11,0-.11.1-.11a9.32,9.32,0,0,1,.62-1c0-.1,0-.1.1-.1a8.94,8.94,0,0,1,.83-1.24l.1-.21c.21-.2.31-.51.52-.72h0c.2-.21.41-.52.62-.72l.1-.21a6.94,6.94,0,0,1,.83-.93l.1-.1c.31-.31.52-.62.83-.93l.2-.21a7.18,7.18,0,0,0,.83-.82l.21-.11c.31-.31.62-.51.93-.82a2.2,2.2,0,0,1,.72-.52Z"/><polygon class="cls-71" points="116.69 30.82 120.72 27.41 111.74 24.52 107.81 28.23 116.69 30.82"/><polygon class="cls-71" points="115.66 34.22 117.62 39.49 108.43 37.01 106.78 31.54 115.66 34.22"/><path class="cls-72" d="M87.16,22.14a1.46,1.46,0,0,0-1.65,1.45,1.74,1.74,0,0,0,1,2.06l30.26,8.88a1.52,1.52,0,0,0,1.75-1.34v-.1h0a1.66,1.66,0,0,0-.93-2Z"/><polygon class="cls-73" points="112.19 51.96 116.47 49.5 112.19 47.03 107.91 49.5 112.19 51.96"/><polygon class="cls-43" points="112.19 78.76 118 75.37 112.19 72.02 106.38 75.37 112.19 78.76"/><polygon class="cls-43" points="102.23 84.53 108.09 81.13 102.23 77.79 96.42 81.13 102.23 84.53"/><polygon class="cls-43" points="92.47 90.11 98.28 86.77 92.47 83.42 86.65 86.77 92.47 90.11"/><polygon class="cls-74" points="102.23 63.27 106.56 60.76 102.23 58.29 97.96 60.76 102.23 63.27"/><polygon class="cls-10" points="106.56 60.76 106.56 81.13 102.23 83.6 102.23 63.27 106.56 60.76"/><polygon class="cls-75" points="97.96 60.76 97.96 81.13 102.23 83.6 102.23 63.27 97.96 60.76"/><polygon class="cls-76" points="92.47 75.55 96.74 73.08 92.47 70.62 88.18 73.08 92.47 75.55"/><polygon class="cls-9" points="96.74 73.08 96.74 86.77 92.47 89.23 92.47 75.55 96.74 73.08"/><polygon class="cls-48" points="88.18 73.08 88.18 86.77 92.47 89.23 92.47 75.55 88.18 73.08"/><polygon class="cls-8" points="116.47 49.5 116.47 75.37 112.19 77.83 112.19 51.96 116.47 49.5"/><polygon class="cls-77" points="107.91 49.5 107.91 75.37 112.19 77.83 112.19 51.96 107.91 49.5"/></g><path class="cls-78" d="M106.11,120.86a15.28,15.28,0,0,0-14,.86l-2.51.94.18,3a3.59,3.59,0,0,0,1.11,2.25l-.33-5.4.85,0,.38,6.18a5.91,5.91,0,0,0,1.52.83L93,124l.67,0,.35,5.78,1.68.44-.36-5.78.8,0,.36,6c.62.09,1.23.11,1.84.14l-.37-6,.86,0,.37,6,.42,0a12,12,0,0,0,1.46-.15l-.39-6.32.91-.06.38,6.19a9.47,9.47,0,0,0,1.81-.48l-.34-5.6.84,0,.33,5.3a8.62,8.62,0,0,0,1.66-.84l-.38-6.19.85,0,.35,5.67a5.6,5.6,0,0,0,1.2-1.23l-.35-5.85-1.79.11Z"/><path class="cls-79" d="M90.51,122.47l.32,5.35a5.36,5.36,0,0,0,.91.74l-.38-6.18Z"/><path class="cls-79" d="M108.23,126.56a3.58,3.58,0,0,0,.72-2.25l-.17-2.8-.91-.79Z"/><path class="cls-79" d="M92.87,124l.33,5.42c.25.11.56.21.87.31l-.35-5.78Z"/><path class="cls-79" d="M105.9,122.27l.38,6.19c.29-.21.53-.34.81-.54l-.34-5.67Z"/><path class="cls-79" d="M95.34,124.39l.35,5.72.87.13-.37-6-.85.06Z"/><path class="cls-79" d="M98,124.47l.36,6c.31,0,.55,0,.86,0l-.36-6-.86,0Z"/><path class="cls-79" d="M100.74,123.91l.39,6.28A5,5,0,0,0,102,130l-.38-6.19-.85,0Z"/><path class="cls-79" d="M103.44,124l.34,5.53a4.31,4.31,0,0,0,.83-.29l-.32-5.29Z"/><ellipse class="cls-80" cx="99.17" cy="122.14" rx="9.64" ry="5.43" transform="translate(-7.27 6.28) rotate(-3.5)"/><path class="cls-78" d="M107.49,121.43c.15,2.37-3.45,4.49-8,4.76s-8.36-1.38-8.51-3.75,3.45-4.49,8-4.77S107.35,119,107.49,121.43Z"/><path class="cls-80" d="M106.55,121.49c.12,2.06-3.07,3.91-7.15,4.16s-7.49-1.2-7.62-3.26,3.07-3.92,7.15-4.17S106.42,119.43,106.55,121.49Z"/><path class="cls-7" d="M105.91,121.42c.11,1.83-2.78,3.54-6.43,3.76s-6.73-1.12-6.85-2.94,2.79-3.54,6.44-3.76S105.8,119.54,105.91,121.42Z"/><path class="cls-79" d="M99.37,126.41c-4.63.28-8.53-1.55-8.68-3.93s3.5-4.67,8.13-5,8.6,1.42,8.76,3.91S104.06,126.12,99.37,126.41Zm-.53-8.53c-4.44.28-7.91,2.32-7.77,4.62s3.84,3.9,8.28,3.63,7.93-2.32,7.79-4.61S103.29,117.61,98.84,117.88Z"/><path class="cls-23" d="M102.4,124a5.24,5.24,0,0,1-1.8.6L99,123.68l.69-.53.63.33a.5.5,0,0,0,.51.09l.53-.22-2.09-1.15a4.22,4.22,0,0,1-3.44-.22c-1.13-.6-1.3-1.39-.61-2l-1-.55.6-.35,1,.55a5.56,5.56,0,0,1,1.68-.52L99,120l-.7.53-.63-.33a.48.48,0,0,0-.49-.09,1.13,1.13,0,0,0-.36.14l2,1.11h0a4.21,4.21,0,0,1,3.55.27c1.2.66,1.31,1.44.61,2l1.21.6-.6.4Zm-4.49-2.48-1.59-.87c-.1.25,0,.48.42.7A1.46,1.46,0,0,0,97.91,121.54Zm2.24.54,1.76.92c.17-.25.09-.5-.47-.76A1.81,1.81,0,0,0,100.15,122.08Z"/><path class="cls-78" d="M108.82,116.05a15,15,0,0,0-14.07.86l-2.51,1,.18,2.86A3.31,3.31,0,0,0,93.54,123l-.33-5.36.85-.05.37,6.18a6.08,6.08,0,0,0,1.52.83l-.33-5.42.86-.06.35,5.79,1.67.45-.35-5.79.73,0,.37,6a16.1,16.1,0,0,0,1.84.14l-.37-6,.86,0,.36,6,.37,0c.49,0,1-.13,1.45-.16l-.38-6.26.86-.06.37,6.19a10.25,10.25,0,0,0,1.81-.47l-.34-5.55.85,0,.33,5.3a10.24,10.24,0,0,0,1.65-.84l-.38-6.18.87-.06.35,5.66a6.09,6.09,0,0,0,1.2-1.23L110.6,116Z"/><path class="cls-79" d="M93.15,117.62l.33,5.36a4.87,4.87,0,0,0,.9.73L94,117.53Z"/><path class="cls-79" d="M110.94,121.79a4.09,4.09,0,0,0,.72-2.25l-.17-2.85-.91-.74Z"/><path class="cls-79" d="M95.5,119.18l.33,5.43c.26.11.57.2.88.31l-.35-5.79Z"/><path class="cls-79" d="M108.53,117.42l.38,6.18c.3-.2.53-.33.83-.54l-.35-5.66-.86.06Z"/><path class="cls-79" d="M98,119.58l.35,5.78.86.13-.37-6Z"/><path class="cls-79" d="M100.72,119.66l.37,6c.31,0,.56,0,.86,0l-.36-5.92-.86.06Z"/><path class="cls-79" d="M103.44,119.13l.39,6.27c.31,0,.54-.09.85-.11l-.38-6.19Z"/><path class="cls-79" d="M106.14,119.21l.34,5.54c.3-.08.53-.22.84-.3l-.33-5.3Z"/><path class="cls-80" d="M111.43,116.69c.18,3-4,5.68-9.29,6s-9.78-1.84-10-4.82,4-5.69,9.3-6S111.24,113.7,111.43,116.69Z"/><path class="cls-78" d="M110.2,116.58c.14,2.37-3.46,4.48-8,4.76s-8.36-1.38-8.5-3.75,3.45-4.5,8-4.77S110.05,114.21,110.2,116.58Z"/><path class="cls-80" d="M109.22,116.64c.12,2.06-3.06,3.91-7.14,4.16s-7.46-1.19-7.59-3.26,3.06-3.91,7.13-4.16S109.09,114.57,109.22,116.64Z"/><path class="cls-7" d="M108.6,116.55c.11,1.83-2.77,3.53-6.43,3.76s-6.72-1.12-6.83-3,2.77-3.53,6.42-3.75S108.49,114.73,108.6,116.55Z"/><path class="cls-79" d="M102.07,121.54c-4.63.28-8.53-1.55-8.67-3.93s3.5-4.68,8.13-5,8.52,1.55,8.67,3.93S106.69,121.25,102.07,121.54Zm-.52-8.53c-4.46.27-7.93,2.32-7.79,4.62s3.84,3.9,8.29,3.63,7.92-2.33,7.78-4.62S106,112.74,101.55,113Z"/><path class="cls-23" d="M105.1,119.21a5.19,5.19,0,0,1-1.8.61l-1.64-.94.7-.53.63.33a.46.46,0,0,0,.49.09,1,1,0,0,0,.54-.22l-2.09-1.15a4.16,4.16,0,0,1-3.43-.22c-1.14-.6-1.3-1.39-.62-2l-1-.55.58-.34,1,.55a5.29,5.29,0,0,1,1.69-.53l1.57.93-.69.53-.63-.32a.46.46,0,0,0-.5-.09.83.83,0,0,0-.35.14l2,1.15h0a4.28,4.28,0,0,1,3.55.27c1.21.66,1.32,1.45.63,2l1.19.54-.59.34Zm-4.49-2.47L99,115.8c-.11.26,0,.49.4.71a1.82,1.82,0,0,0,1.17.18Zm2.23.54,1.77.92c.17-.25.09-.49-.47-.76A1.65,1.65,0,0,0,102.84,117.28Z"/></g></svg>