<svg xmlns="http://www.w3.org/2000/svg" viewBox="0 0 150 150"><defs><style>.cls-1{fill:#52707f;}.cls-2{fill:#6c8fa2;}.cls-3{fill:#83afc5;}.cls-30,.cls-4{fill:#f7941d;}.cls-4{opacity:0.52;}.cls-13,.cls-23,.cls-4,.cls-55,.cls-8{isolation:isolate;}.cls-5{fill:#f7ac63;}.cls-6{fill:none;stroke:#fdfdfd;stroke-linecap:round;stroke-linejoin:round;}.cls-7{fill:#fdfdfd;}.cls-28,.cls-8{fill:#fff;}.cls-8{opacity:0.43;}.cls-9{fill:#e2eefa;}.cls-10{fill:#afd0ec;}.cls-11{fill:#0099bc;}.cls-12{fill:#00ccf9;}.cls-13{opacity:0.1;}.cls-14{fill:#0099cd;}.cls-15{fill:#09aedb;}.cls-16{fill:#77ddf8;}.cls-17{fill:#3c6cac;}.cls-18{fill:#f36d21;}.cls-19{fill:#f0a95b;}.cls-20{fill:#d83;}.cls-21{fill:#ffa490;}.cls-22{fill:#ff8066;}.cls-23{fill:#c3d8e0;opacity:0.36;}.cls-24{fill:#ffc49a;}.cls-25{fill:#395d84;}.cls-26{fill:#005375;}.cls-27{fill:#895b54;}.cls-29{fill:#d1d1d1;}.cls-31{fill:#ed6248;}.cls-32{fill:#008a52;}.cls-33{fill:#c2d7eb;}.cls-34{fill:#faffff;}.cls-35{fill:#f4f5f5;}.cls-35,.cls-36,.cls-37,.cls-38,.cls-39,.cls-40,.cls-41,.cls-42,.cls-43,.cls-44,.cls-45,.cls-46,.cls-47,.cls-48,.cls-49,.cls-50,.cls-51,.cls-52,.cls-53,.cls-54,.cls-55,.cls-56{fill-rule:evenodd;}.cls-36{fill:#25170d;}.cls-37{fill:#f0b185;}.cls-38{fill:#e7a376;}.cls-39{fill:#13506b;}.cls-40{fill:#206889;}.cls-41{fill:#2981aa;}.cls-42{fill:#805354;}.cls-43{fill:#764a4a;}.cls-44{fill:#37679b;}.cls-45{fill:#3d6cac;}.cls-46{fill:#447cb5;}.cls-47{fill:#da9569;}.cls-48{fill:#1d0c0d;}.cls-49{fill:#0684c0;}.cls-50{fill:#e5e5e4;}.cls-51{fill:#3ba3db;}.cls-52{fill:#9dafb9;}.cls-53{fill:#341f0f;}.cls-54{fill:#4e2d13;}.cls-55{fill:#e9f5f4;opacity:0.5;}.cls-56{fill:#292424;}</style></defs><g id="Application_modernization" data-name="Application modernization"><g id="Product_Management" data-name="Product Management"><g id="Product_Management-2" data-name="Product Management-2"><path class="cls-1" d="M68.9,48.18a5.47,5.47,0,0,1-5,0c-1.39-.81-1.39-2.1,0-2.87a5.47,5.47,0,0,1,5,0C70.28,46.05,70.28,47.37,68.9,48.18Z"/><path class="cls-2" d="M69.82,38.83a7.3,7.3,0,0,0-6.74,0,2.38,2.38,0,0,0-1.39,2h0v3.74h0a2.47,2.47,0,0,0,1.39,2,7.35,7.35,0,0,0,6.74,0,2.37,2.37,0,0,0,1.37-2V40.81A2.37,2.37,0,0,0,69.82,38.83Z"/><ellipse class="cls-3" cx="66.41" cy="40.81" rx="4.78" ry="2.77"/><path class="cls-4" d="M76,24.8a9.63,9.63,0,0,0-19.24,0,9.76,9.76,0,0,0,1,4.25h0l3.87,10.37a2.69,2.69,0,0,0,1.38,2,7.3,7.3,0,0,0,6.74,0,2.56,2.56,0,0,0,1.38-2h0L75,29.05h0A9.11,9.11,0,0,0,76,24.8Z"/><path class="cls-5" d="M75.69,27.29l-.18.35L70.27,38.52a2.66,2.66,0,0,1-1.38,2,7.3,7.3,0,0,1-6.74,0h0a2.42,2.42,0,0,0,1,1,7.38,7.38,0,0,0,6.75,0,2.61,2.61,0,0,0,1.37-2l3.86-10.37h0C75.37,28.53,75.55,27.92,75.69,27.29Z"/><path class="cls-6" d="M64.75,40a63.38,63.38,0,0,0-2.1-12.84s4.5.69,7.5-1.55a33.39,33.39,0,0,0-1.6,13.53"/><path class="cls-7" d="M63.66,27.16a1,1,0,1,1-1-1.05h0A1,1,0,0,1,63.66,27.16Z"/><path class="cls-7" d="M71.33,25.61a1,1,0,1,1-1-1.05A1,1,0,0,1,71.33,25.61Z"/><circle class="cls-8" cx="62.09" cy="21.91" r="3.4"/><path class="cls-3" d="M133,73.64,87.33,47.21a4.37,4.37,0,0,0-4,.12l-26,15.08a2.09,2.09,0,0,0-1.15,1.73A1.65,1.65,0,0,0,57,65.57L102.7,92a3.22,3.22,0,0,0,1.79.41,4.44,4.44,0,0,0,2.25-.58l26-15A2.09,2.09,0,0,0,133.92,75,1.76,1.76,0,0,0,133,73.64Z"/><path class="cls-9" d="M103.05,91,57.43,64.65c-.86-.46-1.26-2.47-.29-3.05L83.7,47.72A3.5,3.5,0,0,1,87,47.6l45.61,24.83c.87.46.76,2.88-.23,3.46l-26,15A3.65,3.65,0,0,1,103.05,91Z"/><path class="cls-9" d="M95.74,69.53,50.07,43.15c6.45,19.49,6.58,18.63,7.54,18.05l26.09-15A3.5,3.5,0,0,1,87,46.11l45.61,26.38c.87.45.76,1.32-.23,1.9l-26,15C105.35,89.94,104.15,90,95.74,69.53Z"/><path class="cls-10" d="M132.59,72.43,88.19,44.78a3.69,3.69,0,0,1-1.5-2.93L85.31,12c0-1,2.09-1.84,2.88-1.32L133.86,37a3.71,3.71,0,0,1,1.5,2.94V70C135.36,71.11,133.46,72.94,132.59,72.43Z"/><path class="cls-9" d="M132.26,72.26,86.58,45.88A3.94,3.94,0,0,1,85,42.94v-30c0-1,.7-1.62,1.56-1.15l45.68,26.38a3.76,3.76,0,0,1,1.49,2.94V71.16C133.81,72.2,133.12,72.78,132.26,72.26Z"/><path class="cls-11" d="M130.35,69.66,88.54,45.55A3.18,3.18,0,0,1,87.21,43V17c0-1,.58-1.44,1.33-1l41.81,24.12a3.14,3.14,0,0,1,1.33,2.52v26C131.68,69.66,131.09,70.12,130.35,69.66Z"/><path class="cls-12" d="M129.43,68.18l-40-23.06a3.24,3.24,0,0,1-1.27-2.37V18.47c0-.93.58-1.34,1.27-.93l40,23.07A3.18,3.18,0,0,1,130.69,43V67.25C130.64,68.18,130,68.57,129.43,68.18Z"/><path class="cls-1" d="M110.12,27c0,.46-.34.64-.74.41a1.87,1.87,0,0,1-.76-1.27c0-.46.35-.64.76-.41A1.66,1.66,0,0,1,110.12,27Z"/><ellipse class="cls-10" cx="109.45" cy="26.65" rx="0.28" ry="0.51" transform="translate(1.34 58.29) rotate(-30)"/><path class="cls-1" d="M111.75,28a.22.22,0,0,1-.2.26.21.21,0,0,1-.15,0,.64.64,0,0,1-.34-.62c0-.23.16-.3.34-.18A.63.63,0,0,1,111.75,28Z"/><path class="cls-3" d="M88.82,51.46,87,50.41a1.62,1.62,0,0,0-1.62,0l-1.78,1.05a.47.47,0,0,0-.3.6.08.08,0,0,0,0,0,.29.29,0,0,0,.28.28l1.78,1a2,2,0,0,0,1.62,0l1.78-1a.49.49,0,0,0,.29-.63A.81.81,0,0,0,88.82,51.46Z"/><path class="cls-3" d="M93.35,54.06,91.57,53A2,2,0,0,0,90,53l-1.78,1.05a.49.49,0,0,0-.29.62h0a.4.4,0,0,0,.28.28L90,56a2,2,0,0,0,1.62,0L93.41,55a.47.47,0,0,0,.3-.6l0,0C93.6,54.23,93.55,54.11,93.35,54.06Z"/><path class="cls-3" d="M97.92,56.7l-1.78-1.05a2,2,0,0,0-1.62,0L92.74,56.7a.49.49,0,0,0-.28.64h0a.45.45,0,0,0,.28.29l1.78,1a2,2,0,0,0,1.62,0l1.78-1a.5.5,0,0,0,.29-.63A.76.76,0,0,0,97.92,56.7Z"/><path class="cls-3" d="M102.42,59.3l-1.78-1a2,2,0,0,0-1.62,0l-1.79,1a.49.49,0,0,0-.29.62h0a.81.81,0,0,0,.29.29l1.79,1a1.57,1.57,0,0,0,1.62,0l1.78-1a.46.46,0,0,0,.3-.58s0,0,0,0S102.59,59.36,102.42,59.3Z"/><path class="cls-3" d="M107,62,105.2,60.9a2,2,0,0,0-1.62,0L101.79,62a.49.49,0,0,0-.29.63h0a.61.61,0,0,0,.28.29l1.79,1.05a2,2,0,0,0,1.62,0L107,62.87a.46.46,0,0,0,.3-.58s0,0,0,0A.39.39,0,0,0,107,62Z"/><path class="cls-3" d="M111.52,64.54l-1.78-1.05a2,2,0,0,0-1.62,0l-1.79,1.05a.49.49,0,0,0-.29.63h0a.43.43,0,0,0,.28.29l1.79,1.05a2,2,0,0,0,1.62,0l1.78-1.05a.49.49,0,0,0,.29-.62h0A.61.61,0,0,0,111.52,64.54Z"/><path class="cls-3" d="M116,67.19l-1.79-1a2,2,0,0,0-1.61,0l-1.78,1a.48.48,0,0,0-.31.61v0c.07.17.18.28.3.28l1.78,1a1.65,1.65,0,0,0,1.61,0l1.79-1a.49.49,0,0,0,.29-.63C116.3,67.3,116.18,67.25,116,67.19Z"/><path class="cls-3" d="M120.61,69.78l-1.78-1a1.67,1.67,0,0,0-1.62,0l-1.78,1a.49.49,0,0,0-.31.61l0,0c.06.16.17.28.29.28l1.78,1a2,2,0,0,0,1.62,0l1.78-1a.52.52,0,0,0,.29-.63A.68.68,0,0,0,120.61,69.78Z"/><path class="cls-3" d="M125.11,72.38l-1.79-1a2,2,0,0,0-1.61,0l-1.78,1a.48.48,0,0,0-.3.61.5.5,0,0,0,.3.3l1.78,1a2,2,0,0,0,1.61,0l1.79-1a.49.49,0,0,0,.29-.63A.47.47,0,0,0,125.11,72.38Z"/><path class="cls-3" d="M79.49,56.88l-1.78-1.05a2,2,0,0,0-1.62,0l-1.78,1.05a.49.49,0,0,0-.29.62h0a.74.74,0,0,0,.29.29l1.78,1.05a2,2,0,0,0,1.62,0l1.78-1.05a.47.47,0,0,0,.3-.61v0C79.78,57.05,79.72,56.93,79.49,56.88Z"/><path class="cls-3" d="M84,59.47l-1.78-1a1.67,1.67,0,0,0-1.62,0l-1.78,1a.49.49,0,0,0-.29.62h0a.65.65,0,0,0,.28.29l1.78,1a2,2,0,0,0,1.62,0l1.78-1a.48.48,0,0,0,.29-.59A.67.67,0,0,0,84,59.47Z"/><path class="cls-3" d="M88.59,62.12l-1.78-1a1.91,1.91,0,0,0-1.62,0l-1.78,1a.49.49,0,0,0-.29.62h0a.44.44,0,0,0,.28.3l1.78,1a1.91,1.91,0,0,0,1.62,0l1.78-1a.51.51,0,0,0,.3-.63h0C88.82,62.24,88.7,62.12,88.59,62.12Z"/><path class="cls-3" d="M93.09,64.71l-1.79-1a2,2,0,0,0-1.61,0l-1.78,1a.5.5,0,0,0-.3.63.52.52,0,0,0,.3.3l1.78,1a2,2,0,0,0,1.61,0l1.79-1a.51.51,0,0,0,.26-.6A.35.35,0,0,0,93.09,64.71Z"/><path class="cls-3" d="M97.64,67.3l-1.79-1a2,2,0,0,0-1.61,0l-1.78,1a.49.49,0,0,0-.31.61v0c.07.17.18.29.3.29l1.78,1a2,2,0,0,0,1.61,0l1.79-1a.48.48,0,0,0,.28-.62h0A.68.68,0,0,0,97.64,67.3Z"/><path class="cls-3" d="M102.12,70l-1.78-1a2,2,0,0,0-1.61,0l-1.79,1a.47.47,0,0,0-.28.61h0a.49.49,0,0,0,.28.3l1.79,1.05a2,2,0,0,0,1.61,0l1.78-1.05a.49.49,0,0,0,.31-.61v0C102.42,70.12,102.3,70,102.12,70Z"/><path class="cls-3" d="M106.67,72.55l-1.78-1a2,2,0,0,0-1.61,0l-1.79,1a.47.47,0,0,0-.28.61h0a.49.49,0,0,0,.28.3l1.79,1a1.94,1.94,0,0,0,1.6,0l1.78-1a.53.53,0,0,0,.3-.64C107,72.71,106.85,72.6,106.67,72.55Z"/><path class="cls-3" d="M111.22,75.2l-1.78-1a2,2,0,0,0-1.61,0l-1.78,1a.49.49,0,0,0-.29.62h0a.68.68,0,0,0,.29.29l1.78,1a1.6,1.6,0,0,0,1.61,0l1.78-1a.48.48,0,0,0,.31-.61v0C111.52,75.37,111.34,75.25,111.22,75.2Z"/><path class="cls-3" d="M74.65,64.88,68.36,61.2a2,2,0,0,0-1.61,0l-1.78,1a.49.49,0,0,0-.3.63.51.51,0,0,0,.3.29l6.29,3.63a1.65,1.65,0,0,0,1.61,0l1.78-1a.56.56,0,0,0,.35-.64A.93.93,0,0,0,74.65,64.88Z"/><path class="cls-3" d="M97.41,78l-20-11.53a1.89,1.89,0,0,0-1.61,0l-1.79,1a.5.5,0,0,0-.29.63.76.76,0,0,0,.29.3L94,80a2,2,0,0,0,1.61,0l1.79-1a.52.52,0,0,0,.28-.64C97.64,78.13,97.54,78,97.41,78Z"/><path class="cls-3" d="M106.39,83.2l-6.29-3.68a2,2,0,0,0-1.61,0l-1.79,1a.49.49,0,0,0-.29.63.5.5,0,0,0,.29.28L103,85.17a1.62,1.62,0,0,0,1.62,0l1.78-1a.49.49,0,0,0,.29-.62h0C106.67,83.38,106.56,83.26,106.39,83.2Z"/><path class="cls-3" d="M86.46,55.5l-6.29-3.63a2,2,0,0,0-1.62,0l-1.78,1.05a.49.49,0,0,0-.29.63.52.52,0,0,0,.29.29l6.29,3.63a2,2,0,0,0,1.62,0l1.78-1a.49.49,0,0,0,.3-.63h0C86.69,55.6,86.58,55.5,86.46,55.5Z"/><path class="cls-3" d="M91,58.09,89.16,57a1.94,1.94,0,0,0-1.6,0l-1.79,1.05a.47.47,0,0,0-.3.59s0,0,0,0a.31.31,0,0,0,.29.28l1.79,1.05a1.63,1.63,0,0,0,1.6,0L91,59a.57.57,0,0,0,.28-.63A.65.65,0,0,0,91,58.09Z"/><path class="cls-3" d="M95.51,60.68l-1.79-1a2,2,0,0,0-1.61,0l-1.79,1a.47.47,0,0,0-.3.59s0,0,0,0a.3.3,0,0,0,.28.28l1.79,1a2,2,0,0,0,1.61,0l1.79-1A.49.49,0,0,0,95.8,61h0A.65.65,0,0,0,95.51,60.68Z"/><path class="cls-3" d="M100.06,63.33l-1.79-1a2,2,0,0,0-1.61,0l-1.79,1a.49.49,0,0,0-.29.62h0a.45.45,0,0,0,.28.29l1.79,1a2,2,0,0,0,1.61,0l1.79-1a.49.49,0,0,0,.29-.62h0A.71.71,0,0,0,100.06,63.33Z"/><path class="cls-3" d="M104.55,65.92l-1.79-1a2,2,0,0,0-1.61,0l-1.78,1a.49.49,0,0,0-.3.63h0a.68.68,0,0,0,.3.28l1.78,1a2,2,0,0,0,1.61,0l1.79-1a.47.47,0,0,0,.3-.59s0,0,0,0S104.72,66,104.55,65.92Z"/><path class="cls-3" d="M109.08,68.57l-1.79-1a1.65,1.65,0,0,0-1.61,0l-1.78,1a.5.5,0,0,0-.3.63.76.76,0,0,0,.3.29l1.78,1.05a2,2,0,0,0,1.61,0l1.79-1.05a.46.46,0,0,0,.35-.54v0A.5.5,0,0,0,109.08,68.57Z"/><path class="cls-3" d="M113.65,71.16l-1.79-1a2,2,0,0,0-1.61,0l-1.85,1a.49.49,0,0,0-.28.64h0a.46.46,0,0,0,.28.28l1.8,1a1.94,1.94,0,0,0,1.6,0l1.79-1a.46.46,0,0,0,.31-.57.14.14,0,0,1,0-.06A.4.4,0,0,0,113.65,71.16Z"/><path class="cls-3" d="M118.14,73.81l-1.79-1a2,2,0,0,0-1.61,0l-1.79,1a.48.48,0,0,0-.28.62h0a.49.49,0,0,0,.28.3l1.79,1.05a2,2,0,0,0,1.61,0l1.79-1.05a.5.5,0,0,0,.29-.64h0a.28.28,0,0,0-.26-.29Z"/><path class="cls-3" d="M122.71,76.4l-1.8-1a1.89,1.89,0,0,0-1.61,0l-1.78,1a.47.47,0,0,0-.31.58.17.17,0,0,1,0,0,.31.31,0,0,0,.29.3l1.78,1a1.6,1.6,0,0,0,1.61,0l1.8-1a.48.48,0,0,0,.28-.62h0A.68.68,0,0,0,122.71,76.4Z"/><path class="cls-3" d="M72.58,58.27,70.8,57.22a1.57,1.57,0,0,0-1.62,0L67.4,58.27a.47.47,0,0,0-.29.62.7.7,0,0,0,.29.3l1.78,1.05a2,2,0,0,0,1.62,0l1.78-1.05a.48.48,0,0,0,.3-.61v0A.71.71,0,0,0,72.58,58.27Z"/><path class="cls-3" d="M77.08,60.84l-1.8-1a1.94,1.94,0,0,0-1.6,0l-1.79,1a.49.49,0,0,0-.29.62h0a.48.48,0,0,0,.29.3l1.79,1a1.94,1.94,0,0,0,1.6,0l1.8-1a.49.49,0,0,0,.28-.64h0C77.36,61,77.24,60.91,77.08,60.84Z"/><path class="cls-3" d="M81.63,63.51l-1.8-1a1.94,1.94,0,0,0-1.6,0l-1.79,1a.49.49,0,0,0-.29.62h0a.47.47,0,0,0,.29.28l1.79,1a1.94,1.94,0,0,0,1.6,0l1.8-1a.48.48,0,0,0,.28-.62h0A.46.46,0,0,0,81.63,63.51Z"/><path class="cls-3" d="M86.18,66.09l-1.8-1a1.94,1.94,0,0,0-1.6,0l-1.79,1a.49.49,0,0,0-.29.62h0A.81.81,0,0,0,81,67l1.79,1a1.63,1.63,0,0,0,1.6,0l1.8-1a.49.49,0,0,0,.28-.64h0A.63.63,0,0,0,86.18,66.09Z"/><path class="cls-3" d="M90.66,68.74l-1.78-1a2,2,0,0,0-1.61,0l-1.79,1a.48.48,0,0,0-.3.61v0c.06.17.18.28.29.28l1.79,1a2,2,0,0,0,1.61,0l1.78-1A.49.49,0,0,0,91,69a.27.27,0,0,0-.25-.29Z"/><path class="cls-3" d="M95.21,71.33l-1.78-1a2,2,0,0,0-1.61,0l-1.78,1a.49.49,0,0,0-.3.63.51.51,0,0,0,.3.29l1.78,1a2,2,0,0,0,1.61,0l1.78-1a.49.49,0,0,0,.3-.63h0C95.51,71.51,95.45,71.39,95.21,71.33Z"/><path class="cls-3" d="M99.76,73.93,98,72.88a2,2,0,0,0-1.61,0l-1.78,1.05a.47.47,0,0,0-.31.59s0,0,0,0c.06.18.18.29.3.29l1.78,1.05a2,2,0,0,0,1.61,0l1.78-1.05a.49.49,0,0,0,.3-.63h0A.68.68,0,0,0,99.76,73.93Z"/><path class="cls-3" d="M104.26,76.57l-1.79-1a1.58,1.58,0,0,0-1.6,0l-1.8,1a.46.46,0,0,0-.3.58l0,0a.3.3,0,0,0,.28.28l1.8,1a1.94,1.94,0,0,0,1.6,0l1.79-1a.46.46,0,0,0,.31-.57.14.14,0,0,1,0-.06C104.55,76.75,104.43,76.63,104.26,76.57Z"/><path class="cls-3" d="M108.81,79.17l-1.79-1a1.94,1.94,0,0,0-1.6,0l-1.8,1a.47.47,0,0,0-.28.62h0a.43.43,0,0,0,.28.29l1.8,1a1.94,1.94,0,0,0,1.6,0l1.79-1a.49.49,0,0,0,.29-.63h0A.39.39,0,0,0,108.81,79.17Z"/><path class="cls-3" d="M115.78,77.79,114,76.74a2,2,0,0,0-1.61,0l-1.78,1.05a.51.51,0,0,0-.3.63.76.76,0,0,0,.3.29l1.49.86-3.85,2.24a.5.5,0,0,0-.3.63h0a.48.48,0,0,0,.3.29L110,83.79a2,2,0,0,0,1.61,0L118.08,80a.49.49,0,0,0,.3-.63.53.53,0,0,0-.3-.29l-1.78-1.05Z"/><path class="cls-13" d="M120.39,37.78,85.08,17.36V43a3.14,3.14,0,0,0,.29,1.32l21.37,12.31v.86L129.8,70.82V48.52l-9.43-5.47Z"/><polygon class="cls-3" points="19.3 81.19 12.86 77.44 19.3 73.7 25.75 77.44 19.3 81.19"/><polygon class="cls-3" points="29.44 75.71 23.16 72.08 29.44 68.51 35.66 72.08 29.44 75.71"/><polygon class="cls-3" points="39.52 70.07 33.07 66.33 39.52 62.59 46.03 66.33 39.52 70.07"/><polygon class="cls-3" points="49.66 64.83 42.57 60.74 49.66 56.65 56.75 60.74 49.66 64.83"/><polygon class="cls-14" points="49.66 63.67 44.58 60.79 44.58 42.94 49.66 45.88 49.66 63.67"/><polygon class="cls-15" points="49.66 63.67 49.66 45.88 54.72 42.94 54.72 60.79 49.66 63.67"/><polygon class="cls-12" points="49.66 45.88 44.58 42.94 49.66 40 54.72 42.94 49.66 45.88"/><polygon class="cls-11" points="39.52 69.2 34.46 66.27 34.46 33.84 39.52 36.72 39.52 69.2"/><polygon class="cls-12" points="39.52 69.2 39.52 36.72 44.58 33.84 44.58 66.27 39.52 69.2"/><polygon class="cls-16" points="39.52 36.72 34.46 33.84 39.52 30.9 44.58 33.84 39.52 36.72"/><polygon class="cls-17" points="29.44 75.02 24.37 72.08 24.37 47.49 29.44 50.37 29.44 75.02"/><polygon class="cls-14" points="29.44 75.02 29.44 50.37 34.46 47.49 34.46 72.08 29.44 75.02"/><polygon class="cls-14" points="29.44 50.37 24.37 47.49 29.44 44.55 34.46 47.49 29.44 50.37"/><polygon class="cls-18" points="19.3 80.33 14.23 77.44 14.23 64.53 19.3 67.48 19.3 80.33"/><polygon class="cls-19" points="19.3 80.33 19.3 67.48 24.37 64.53 24.37 77.44 19.3 80.33"/><polygon class="cls-20" points="19.3 67.48 14.23 64.53 19.3 61.6 24.37 64.53 19.3 67.48"/><polygon class="cls-9" points="117.5 64.71 78.97 42.48 78.97 15.7 117.5 37.92 117.5 64.71"/><polygon class="cls-10" points="117.5 41.79 78.97 19.56 78.97 15.7 117.5 37.92 117.5 41.79"/><polygon class="cls-10" points="107.14 46.74 114.98 51.29 114.98 42.24 107.14 37.69 107.14 46.74"/><polygon class="cls-12" points="107.14 57.11 114.98 61.66 114.98 52.61 107.14 48.06 107.14 57.11"/><polygon class="cls-21" points="81.4 42.24 89.23 46.8 89.23 37.76 81.4 33.21 81.4 42.24"/><path class="cls-10" d="M92.79,48.26l10.9,6.29c.57.35,1,0,1-.8V48.13a2.58,2.58,0,0,0-1-2.1l-10.9-6.29c-.56-.35-1.05,0-1.05.81v5.64A2.79,2.79,0,0,0,92.79,48.26Z"/><path class="cls-11" d="M104.32,37.18l-12.16-7a1,1,0,0,1-.39-.76h0c0-.28.16-.46.39-.28l12.16,7a1.06,1.06,0,0,1,.4.76h0C104.72,37.18,104.55,37.3,104.32,37.18Z"/><path class="cls-11" d="M104.32,42.48l-12.16-7a1,1,0,0,1-.39-.74h0c0-.3.16-.47.39-.3l12.16,7a.94.94,0,0,1,.4.74h0C104.72,42.48,104.55,42.59,104.32,42.48Z"/><path class="cls-12" d="M101.26,38,92.11,32.8A1,1,0,0,1,91.7,32h0c0-.28.18-.46.41-.28L101.26,37a1,1,0,0,1,.4.75h0C101.66,38,101.49,38.22,101.26,38Z"/><path class="cls-12" d="M97.8,41.38,92.11,38.1a1,1,0,0,1-.41-.75h0c0-.28.18-.45.41-.28l5.69,3.28a1,1,0,0,1,.41.75h0C98.21,41.38,98,41.5,97.8,41.38Z"/><ellipse class="cls-10" cx="85.31" cy="29.64" rx="3.23" ry="5.53" transform="translate(-3.39 46.63) rotate(-30)"/><polygon class="cls-13" points="117.5 64.71 117.5 41.1 100.98 31.59 100.98 55.21 117.5 64.71"/><polygon class="cls-9" points="127.99 50.31 102.19 35.4 102.19 62.18 127.99 77.1 127.99 50.31"/><polygon class="cls-10" points="127.99 50.31 102.19 35.4 102.19 39.26 127.99 54.18 127.99 50.31"/><path class="cls-12" d="M105.3,62.06l10.88,6.29c.58.35,1,0,1-.81V61.89a2.55,2.55,0,0,0-1-2.09L105.3,53.51c-.58-.35-1.1,0-1.1.8V60A2.74,2.74,0,0,0,105.3,62.06Z"/><path class="cls-22" d="M116.81,51l-12.15-7a1,1,0,0,1-.4-.75h0c0-.29.17-.46.4-.29l12.15,7a1,1,0,0,1,.41.74h0C117.22,51,117,51.06,116.81,51Z"/><path class="cls-22" d="M116.81,56.24l-12.15-7a1,1,0,0,1-.4-.75h0c0-.29.17-.46.4-.29l12.15,7a1.06,1.06,0,0,1,.41.76h0C117.22,56.24,117,56.36,116.81,56.24Z"/><path class="cls-22" d="M113.76,51.81l-9.15-5.3a1.05,1.05,0,0,1-.41-.74h0c0-.3.18-.46.41-.3l9.15,5.25a1,1,0,0,1,.41.75h0C114.17,51.81,114,52,113.76,51.81Z"/><path class="cls-22" d="M110.3,55.15l-5.69-3.28a1,1,0,0,1-.41-.76h0c0-.28.18-.46.41-.28l5.69,3.28a1,1,0,0,1,.41.76h0C110.71,55.15,110.53,55.27,110.3,55.15Z"/><path class="cls-19" d="M125.57,55.32h0a1.07,1.07,0,0,0-.46-.86L120.85,52a1,1,0,0,0-1.32.34h0a.94.94,0,0,0-.12.51V69.62a1.06,1.06,0,0,0,.46.87L124.13,73a1,1,0,0,0,1.31-.32v0a1.25,1.25,0,0,0,.12-.46Z"/><ellipse class="cls-23" cx="81.05" cy="102.27" rx="8.01" ry="4.6"/><path class="cls-24" d="M94.4,62.7a1.88,1.88,0,0,0-1.05-.06h0a.88.88,0,0,0-1,.69v.18a1.26,1.26,0,0,0,1,1.43h.3a1.36,1.36,0,0,0,.8-.23h0a1.13,1.13,0,0,0,.52-.8A1.35,1.35,0,0,0,94.4,62.7Z"/><path class="cls-25" d="M92.79,64a2.66,2.66,0,0,1,.46,1.33l-2.41,2.1A10,10,0,0,1,89,68.62l-5.09,1.91a1.66,1.66,0,0,1-2.17-.91h0c0-.06-.06-.12-.06-.23a.23.23,0,0,0,0-.18h0a1.57,1.57,0,0,1,1.24-1.78h0l5-1.62L92,63.39A1,1,0,0,1,92.79,64Z"/><path class="cls-26" d="M85.08,100.54s.11,1.67-.35,2.1-4.9.69-5.06-.23S82.09,101,82.09,101Z"/><path class="cls-25" d="M86.23,82.91l-1.15,17.63a3,3,0,0,1-3,.46L81,81.7a26.18,26.18,0,0,0,3.74-.57c.58-.18.35-.41.81-.57Z"/><path class="cls-26" d="M81.05,101.35s0,1.73-.46,2.09-4.85.47-5-.51,2.48-1.2,2.48-1.2Z"/><path class="cls-25" d="M83.7,84.12,81,101.35a3.16,3.16,0,0,1-3,.34L77.94,82a18.84,18.84,0,0,0,3.74-.46c.58-.11,1.15-.28,1.61-.4Z"/><path class="cls-24" d="M81,66.67h0a3.06,3.06,0,0,1-2.94-2.83l-.17-1.78a2.57,2.57,0,0,1,2.18-2.87h.23A3,3,0,0,1,83.24,62l.17,1.78a2.59,2.59,0,0,1-2.19,2.88Z"/><path class="cls-24" d="M82.78,65.17l.46,2.1a2.54,2.54,0,0,1-3.41.41l.35-2.25a1.24,1.24,0,0,1,.92-1.05l.64-.12a1,1,0,0,1,1,.91Z"/><path class="cls-27" d="M83.52,62.35a3,3,0,0,0-2-3.79h0a2.41,2.41,0,0,0-.92-.12h0a3.13,3.13,0,0,0-1,.18,2.26,2.26,0,0,0-1.43,1.19,3.73,3.73,0,0,0-.49,2.55S78,65.11,79,65.87s3.28-.7,2.82-2.36.62-2.26.69-1.33.23,1.5.46,1.44a1,1,0,0,0,.28-.52h0A3.15,3.15,0,0,0,83.52,62.35Z"/><path class="cls-28" d="M83.06,66.44A8.91,8.91,0,0,0,79.6,67l-.22,1,4.53-.47Z"/><path class="cls-17" d="M83.59,67.25s-6,0-6,2.59c-.23,7.34,0,15.27,0,15.27s5.82.46,8.76-1.57C86.34,83.54,87.84,67,83.59,67.25Z"/><path class="cls-11" d="M68.09,74l3-2.65a.75.75,0,0,0,.18-.69l-1.21-6.1c-.06-.23-.23-.35-.41-.18l-3,2.65a1.08,1.08,0,0,0-.23.69l1.22,6C67.74,74.1,67.91,74.21,68.09,74Z"/><path class="cls-28" d="M68.26,72.94l2.3-2a.87.87,0,0,0,.17-.51l-1-4.73a.16.16,0,0,0-.29-.12l-2.33,2a.52.52,0,0,0-.18.56l1,4.67C68,73,68.18,73.06,68.26,72.94Z"/><path class="cls-24" d="M68.49,74.74a3.57,3.57,0,0,1-1-.76,1,1,0,0,1,.12-1.32,1.63,1.63,0,0,1,1.67-.23h0a1.29,1.29,0,0,1,1.16,1.21,1.1,1.1,0,0,1-.92,1.25h-.13a2.2,2.2,0,0,1-.76-.16Z"/><path class="cls-25" d="M69.71,73.58A3.68,3.68,0,0,0,69.82,75l4.49,1a1.62,1.62,0,0,0,1.5-.55l4.25-4.43a1.79,1.79,0,0,0-.57-2.31h0a1.46,1.46,0,0,0-2,.29.2.2,0,0,1-.11.17l-3.22,4L70,72.76A1.7,1.7,0,0,0,69.71,73.58Z"/><path class="cls-29" d="M69.23,66.38l-1.32,1.15a.19.19,0,0,1-.28,0,.18.18,0,0,1-.06-.13h0a.55.55,0,0,1,.16-.58l1.34-1.15c.11-.12.28,0,.34.11h0A.56.56,0,0,1,69.23,66.38Z"/><path class="cls-24" d="M95.45,62.41l-1.67.8a.31.31,0,0,1-.42-.14v0h0a.36.36,0,0,1,.17-.47h0l1.67-.8a.36.36,0,0,1,.46.17h0a.35.35,0,0,1-.17.46Z"/><ellipse class="cls-3" cx="125.63" cy="103.13" rx="18.37" ry="10.6"/><path class="cls-11" d="M142.85,97.89h0c0-2.54-1.67-5.07-5-7-6.74-3.8-17.62-3.8-24.3,0-3.33,2-5,4.49-5,7h0v5h0c0,2.54,1.68,5.06,5,7,6.74,3.86,17.63,3.86,24.3,0,3.35-2,5-4.48,5-7h0Z"/><path class="cls-17" d="M142.85,97.89h0c0-2.25-1.32-4.49-3.91-6.29-2.2,5.07-6.58,15.44-6.58,15.44v5a20.18,20.18,0,0,0,5.47-2.1c3.35-2,5-4.48,5-7h0Z"/><path class="cls-18" d="M115.84,111.08a28.07,28.07,0,0,0,16.47,1v-5l-16.47-1Z"/><ellipse class="cls-9" cx="125.63" cy="97.89" rx="17.23" ry="9.91"/><path class="cls-30" d="M115.84,106.07a28.15,28.15,0,0,0,16.47,1l-6.68-9.16Z"/><path class="cls-14" d="M137.78,90.86a23.51,23.51,0,0,0-6.39-2.36l-5.76,9.33,6.68,9.16a20.25,20.25,0,0,0,5.41-2.1C144.52,101.05,144.52,94.72,137.78,90.86Z"/><path class="cls-12" d="M109.08,95.23c-1.62,3.35-.12,7,4.43,9.68a19.11,19.11,0,0,0,2.36,1.16l9.79-8.18Z"/><path class="cls-3" d="M41.48,93.51c-8-4.61-21-4.61-29.08,0C8.31,95.87,6,99.09,6,102.62s2.24,6.67,6.4,9.1a30,30,0,0,0,14.51,3.45,29.81,29.81,0,0,0,14.51-3.45c4.09-2.37,6.34-5.59,6.34-9.1S45.57,95.93,41.48,93.51Zm-1.73,9.11c0,1.72-1.27,3.39-3.51,4.66-5.13,2.94-13.49,2.94-18.66,0-2.25-1.33-3.52-3-3.52-4.66s1.27-3.41,3.52-4.73a19,19,0,0,1,9.33-2.25,19,19,0,0,1,9.33,2.25C38.54,99.21,39.75,100.89,39.75,102.62Z"/><path class="cls-17" d="M46.66,96.49c0-2.93-1.9-5.82-5.76-8.06C33.19,84,20.74,84,13,88.43c-3.85,2.25-5.75,5.14-5.75,8.06h0v5.77h0c0,2.93,1.9,5.81,5.75,8.06,7.72,4.44,20.17,4.44,27.88,0,3.86-2.25,5.76-5.13,5.76-8.06h0Zm-6.29,8.13H13.54c-1.49-2.77-.28-5.94,3.46-8.13,5.47-3.14,14.34-3.14,19.81,0,3.8,2.19,5,5.36,3.52,8.13Z"/><path class="cls-11" d="M40.92,88.44a28,28,0,0,0-13-3.33l-.28,3.28v5.75a19.41,19.41,0,0,1,9.25,2.35c3.8,2.19,5,5.36,3.46,8.13h-4.5l1.05,1.67v5.76a20,20,0,0,0,4-1.79c3.86-2.24,5.77-5.13,5.77-8.06h0V96.49h0C46.66,93.57,44.7,90.68,40.92,88.44Z"/><path class="cls-31" d="M13.83,110.73l.63.35h.06c6.45,3,15.39,3.34,22.41,1V106.3L35,104.63H13.54l-.17-.35h0l-.4.23v5.76a3.62,3.62,0,0,1,.68.41Z"/><path class="cls-22" d="M40.92,88.44C33.21,84,20.76,84,13.05,88.44s-7.72,11.64,0,16.07,20.16,4.44,27.87,0S48.56,92.88,40.92,88.44Zm-4,13.77c-5.48,3.14-14.35,3.14-19.81,0s-5.47-8.3,0-11.46,14.33-3.15,19.81,0,5.4,8.29,0,11.46Z"/><path class="cls-12" d="M40.92,88.44a27.87,27.87,0,0,0-12.58-3.28l-.69,3.28h0a19.35,19.35,0,0,1,9.27,2.36c5.47,3.14,5.47,8.29,0,11.47a16.12,16.12,0,0,1-3.33,1.44l3.33,2.7a20.5,20.5,0,0,0,4-1.78C48.56,100.08,48.56,92.88,40.92,88.44Z"/><path class="cls-14" d="M17,90.75a20.35,20.35,0,0,1,10.54-2.36h0l.69-3.28h0A29.3,29.3,0,0,0,13,88.39c-7.69,4.49-7.69,11.69,0,16.12h0L17,102.1C11.57,99,11.57,93.91,17,90.75Z"/><path class="cls-3" d="M69.87,110.73l-.57-.35a10.6,10.6,0,0,0-9.62.35L23.51,131.58a4.46,4.46,0,0,0-2.59,3.63,3.39,3.39,0,0,0,1.95,2.94l.58.34a8.32,8.32,0,0,0,4.26,1,10.91,10.91,0,0,0,5.36-1.37l36.16-20.86a4.45,4.45,0,0,0,2.59-3.63A3.27,3.27,0,0,0,69.87,110.73Z"/><path class="cls-32" d="M70.91,113.15v-5.64h0a2.73,2.73,0,0,0-1.5-2l-.58-.34c-2.24-1.27-6.16-1-8.75.34L23.91,126.39a3.63,3.63,0,0,0-2.1,2.49h0a1.12,1.12,0,0,0,0,.63v5h0a2.42,2.42,0,0,0,1.44,2.54l.57.34c2.25,1.27,6.17,1,8.76-.34L68.72,116.2C70.33,115.4,71,114.24,70.91,113.15Z"/><path class="cls-9" d="M70.91,113.15v-5.64h0a2.73,2.73,0,0,0-1.5-2l-.58-.34c-2.24-1.27-6.16-1-8.75.34l-8.67,5.07v15.72l17.45-10.07c1.5-.87,2.24-2,2.09-3.15Z"/><path class="cls-33" d="M47,113.15,24,126.39a3.67,3.67,0,0,0-2.1,2.49h0a1.34,1.34,0,0,0,0,.63v5h0a2.43,2.43,0,0,0,1.44,2.54l.58.34c2.25,1.27,6.16,1,8.75-.34l14.29-8.24Z"/><path class="cls-9" d="M24,126.46,60.08,105.6c2.59-1.5,6.51-1.66,8.75-.34l.58.34c2.25,1.27,2,3.58-.63,5.08L32.66,131.47c-2.59,1.5-6.5,1.67-8.75.35l-.58-.35C21.09,130.2,21.38,128,24,126.46Z"/><path class="cls-34" d="M69.41,105.55l-.58-.34c-2.24-1.27-6.16-1-8.75.34l-3.68,2.1L65,112.78l3.85-2.2C71.33,109.07,71.66,106.87,69.41,105.55Z"/><polygon class="cls-9" points="40.26 117.01 48.74 122.19 64.98 112.81 56.4 107.73 40.26 117.01"/><polygon class="cls-34" points="42.11 126 57.26 117.24 48.68 112.17 33.65 120.81 42.11 126"/><polygon class="cls-9" points="57.26 122.94 57.26 117.24 42.11 126 42.11 131.7 57.26 122.94"/><polygon class="cls-33" points="57.26 122.94 64.98 118.51 64.98 112.81 57.26 117.24 57.26 122.94"/><path class="cls-3" d="M73.43,121.73l21.48,12.39a.81.81,0,0,0,.74,0l21.49-12.39a.74.74,0,0,0,.29-1,.81.81,0,0,0-.41-.34l-21.48-7.83a.65.65,0,0,0-.51,0l-21.49,7.83a.66.66,0,0,0-.45.82l0,.1A1.17,1.17,0,0,0,73.43,121.73Z"/><polygon class="cls-22" points="95.28 133.02 95.28 101.46 74.26 120.87 95.28 133.02"/><polygon class="cls-14" points="74.26 120.87 95.28 133.02 95.28 113.15 87.5 108.66 74.26 120.87"/><polygon class="cls-12" points="74.26 120.87 95.28 133.02 95.28 119.95 82.95 112.81 74.26 120.87"/><polygon class="cls-31" points="95.28 101.46 116.35 120.87 95.28 133.02 95.28 101.46"/><polygon class="cls-17" points="95.28 113.15 95.28 133.02 116.35 120.87 103.11 108.66 95.28 113.15"/><polygon class="cls-11" points="95.28 119.95 95.28 133.02 116.35 120.87 107.66 112.81 95.28 119.95"/><polygon class="cls-19" points="74.26 120.87 95.28 133.02 95.28 126.69 78.46 116.96 74.26 120.87"/><polygon class="cls-18" points="95.28 126.69 95.28 133.02 116.35 120.87 112.15 116.96 95.28 126.69"/></g><path class="cls-35" d="M46.78,88.5l7.83-4a3.74,3.74,0,0,1,2.93-.23l2.1,1.15c.4.23,1.85,1,.92,1.44-2.83,1.32-5.47,2.88-8.29,4.26a5,5,0,0,1-2.1.29,5.11,5.11,0,0,1-2.29-.64L47,90.34c-.63-.34-.93-.68-1-1S46.26,88.73,46.78,88.5Z"/><path class="cls-36" d="M49.31,46.22a5.58,5.58,0,0,0,.12,2.37c.46,2.7,0,3.28-.87,6.1,0,0,4.26-3.51,4.33-3.58a14.66,14.66,0,0,0-.07-1.48l-2-1.68Z"/><path class="cls-37" d="M67.14,50c.34.3-.29.52-.46.58s-.75,0-.86.17-1.62,0-1.62,0a2.06,2.06,0,0,1,1.15-.52,7.39,7.39,0,0,0,1.33,0A.78.78,0,0,0,67.14,50Z"/><path class="cls-38" d="M67.22,50.14c.18.29-.46.46-.63.51a2.07,2.07,0,0,0-.69.18c-.12,0-.63,0-.46-.18s.57,0,.69-.11C66.41,50.43,66.87,50.49,67.22,50.14Z"/><path class="cls-39" d="M63.89,51h0a.58.58,0,0,1,.69.23c.23.28.34.69.11.86S63.54,51.46,63.89,51Z"/><path class="cls-37" d="M63.31,51.69a8,8,0,0,1,.92-.92c.52-.34.81-.4,2.1-.12.35.07.23.07.52,0l1.21-.46a1,1,0,0,1,.58,0,1.6,1.6,0,0,1,0,.92c-.06.12-.06,0-.17,0l-1.73.76a.83.83,0,0,1-.35,0c-.86-.23-1.43-.46-2.24.11a1.88,1.88,0,0,1-.53.35Z"/><path class="cls-38" d="M63.42,52.27l.52-.35c.69-.46.87-.57,2.54-.17l1.5-.69A1.38,1.38,0,0,1,68.6,51c.06,0-.11.29-.51.41l-1.56.74h0c-1.55-.4-1.67-.34-2.25.07-.11.11-.29.16-.52.34Z"/><path class="cls-40" d="M59.8,56.59a1.26,1.26,0,0,1-.58.41A3.7,3.7,0,0,1,58,56.7c-1-.51-3-2.64-4.94-6.05.23,0,1.61-.68,1.78-.68.57-.18.92.23,1.21.52a9.91,9.91,0,0,1,1.05,1.78c.34.64,1.32,1.27,1.9,2.09Z"/><path class="cls-40" d="M63.89,51c-.23.34.16,1,.8,1.15a17.69,17.69,0,0,1-5.12,4.78.9.9,0,0,1-.64.12,2.28,2.28,0,0,1-1-.7l1-1.89A27.9,27.9,0,0,1,63.89,51Z"/><path class="cls-40" d="M64.17,51.81a.91.91,0,0,0,.52.23,17.69,17.69,0,0,1-5.12,4.78.85.85,0,0,1-.64.11h-.06a4.64,4.64,0,0,1-.87-.28c-1-.52-3-2.65-4.94-6,.23-.06,1.55-.74,1.66-.74.81-.12,1.27.63,1.62,1.72.23.8,2,1.38,1.27,3.69.69.69,1.2,1,1.38,1s.86-.69,1.67-1.32A26.56,26.56,0,0,0,64.17,51.81Z"/><path class="cls-41" d="M63.89,51a.71.71,0,0,0,.11.74c-1.68.92-5,2.83-5.07,4.38-.12-.64-.12-1.55.11-1.73A27.22,27.22,0,0,1,63.89,51Z"/><path class="cls-37" d="M53.11,62.94c-.4,1.05,0,2.82.29,4.73.17,1,.46,2.1.58,3v.41a6.18,6.18,0,0,1,.11,1.72c-.11,1.15-.63,1.44-.86,2.94-.17,1.89.92,4,.8,6.08a1.29,1.29,0,0,1-.28.53c-.93,1,0,.86-.07,2.19,0,.11.53,2.1.53,2.1s1.39.43,1.5.43,1-.3,1-.3a2.82,2.82,0,0,0-.23-.46,8.21,8.21,0,0,1-.69-3.91,39.32,39.32,0,0,1,1.1-7.78,16.44,16.44,0,0,0,.4-3,32.86,32.86,0,0,0-.12-8.29Z"/><path class="cls-37" d="M49.83,68.8c.34,2.89.87,4,.75,5.24-.11.81-.87,2-1,2.71-.34,1.67.46,4.38.75,6.79,0,.23-.12.47-.12.7a7.74,7.74,0,0,0,.23,3.57c.07.35.23.46.35.86l2.1.29a22.27,22.27,0,0,1-.7-3.34A14.68,14.68,0,0,1,51.85,84c0-2.31.46-3.22.81-5.65A6.24,6.24,0,0,1,53,76a6.22,6.22,0,0,0,.52-1.22,5.37,5.37,0,0,0,.29-1.73c-.06-.91-.18-2.3-.46-4.19l-3.46-.4Z"/><path class="cls-42" d="M50.12,84.12a2.93,2.93,0,0,0-.29,1c0,.51.23,1.32.23,2l-.06,1a1.63,1.63,0,0,0,.93,1.5,2,2,0,0,0,1.73.46c.28-.12.45-.52.05-1.62a19.17,19.17,0,0,1-.63-2.82A9.3,9.3,0,0,0,52.46,88c0,.29.11.69-.23.75-1.5.17-1.57-.17-1.68-.57A14.47,14.47,0,0,1,50.12,84.12Z"/><path class="cls-42" d="M56.28,85.79c.17.23.29.57.47.87a5.77,5.77,0,0,1,.34.81.28.28,0,0,1-.06.34c-.35.4-2-.34-2.54-.75-.34-.29-.34-.63-.46-1-.11-.63-.17-.68-.28-1.32l-.18,1.73-.23.11a20.53,20.53,0,0,0-.17-2.19,2.68,2.68,0,0,1-.11-.63,1.35,1.35,0,0,1,.74-1.38c-.17.46.23,1.2.41,2.19s.81,2.1,1.32,2.18a1.48,1.48,0,0,0,.92-.35C56.52,86.31,56.4,86,56.28,85.79Z"/><path class="cls-43" d="M56.57,87.93a5,5,0,0,1-2.1-.87c-.35-.29-.35-.63-.46-1-.12-.63-.17-.68-.28-1.32l-.18,1.73-.23.11a20.53,20.53,0,0,0-.17-2.19,3.34,3.34,0,0,1-.12-.63,1.36,1.36,0,0,1,.75-1.38c-.17.46.23,1.2.41,2.19a3.86,3.86,0,0,0,1.05,2.1A10.3,10.3,0,0,0,56.57,87.93Z"/><path class="cls-43" d="M50.12,84.12a2.93,2.93,0,0,0-.29,1c0,.51.23,1.32.23,2l-.06,1a1.63,1.63,0,0,0,.93,1.5,2.75,2.75,0,0,0,1.43.51,2.56,2.56,0,0,1-.86-1.44c-.75,0-.8-.28-.92-.62A12.56,12.56,0,0,1,50.12,84.12Z"/><path class="cls-44" d="M53.51,62.52c-.35,1.16-1.38,1.16-.92,3s1.72,5.48,1.61,7.21c-.12,1.15-.52,1.38-.75,2.93-.23,1.85.29,4.55.23,6.57a1.83,1.83,0,0,0,2.23,1.32.76.76,0,0,0,.2-.06c.23-1.78.63-7.83,1.15-9.79a8.41,8.41,0,0,0,.4-2.64,46.58,46.58,0,0,0-.06-8,5.8,5.8,0,0,0-.12-1.44Z"/><path class="cls-45" d="M52.46,65.57c.46,1.91,1.73,5.48,1.61,7.21-.11,1.15-.52,1.38-.75,2.93-.23,1.85.29,4.55.23,6.57A1.76,1.76,0,0,0,55,83.61c-.3-3.58-.7-6.58.51-9.51a3.07,3.07,0,0,0,.18-1.44,63.53,63.53,0,0,0-1.14-8.24Z"/><path class="cls-44" d="M50.86,61.37c-.34.92-1.32,1.45-1.84,3.14a10.16,10.16,0,0,0,.41,4.55c.23,1,.57,2.1.81,3a16.71,16.71,0,0,1,.23,1.73c0,1-.76,2-.93,2.94-.34,1.67.12,5.47.4,7.83-.28.69,1.5,1.78,2.6,1a41.63,41.63,0,0,1,.17-7.15A6.07,6.07,0,0,1,53.06,76a10.28,10.28,0,0,0,.57-1.27,1.39,1.39,0,0,1,.12-.28A3.79,3.79,0,0,0,54,72.76l-.23-6.52.34-.34a21.29,21.29,0,0,0,3.4-3.51,1.24,1.24,0,0,0-.06-.47c0-.16,0-.28,0-.46-.17-.74-.52-1.32-.63-2-2.31,1.33-4.09,2-5.82,1.56-.07.17,0,.24-.07.29Z"/><path class="cls-46" d="M51.67,66.67c.23,1.33.58,4,.69,5.18a9.19,9.19,0,0,0,.35,2c.23.23.63.57.92-.17a13,13,0,0,0-.06-2.65c0-1-.12-3.68-.17-4.9a16.46,16.46,0,0,1,1.73-1.5c.28,1.45,1,7.73,1,7.84s.58.45.87-.29c0-.23.28-5.59.17-8.06v-.4a7.61,7.61,0,0,0-.63-3.46,11.2,11.2,0,0,1-4,1.5c.28,1,.33,1,1.66.8.58-.11,1-.23,1.16,0,.46.58-.35,1.16-.87,1.49-1,.64-1.72.58-2.59,1.16A2,2,0,0,0,51.67,66.67Z"/><path class="cls-46" d="M53.06,75.37l-1.16.34c-1,3.05-.74,5.87-.51,9.86a1.43,1.43,0,0,0,.86-.18c0-1.73,0-3.23.06-4.83A21.75,21.75,0,0,1,52.54,78,5.25,5.25,0,0,1,53.06,75.37Z"/><path class="cls-46" d="M57.09,73.64,55.94,74c-1,3-1,5.59-.81,9.56a1.32,1.32,0,0,0,.81-.11c0-1.73.23-3,.34-4.55.06-.81.12-1.62.24-2.53A4.65,4.65,0,0,1,57.09,73.64Z"/><path class="cls-45" d="M49,64.6a10.17,10.17,0,0,0,.41,4.55v.11c.23,1,.57,2,.75,2.82a14.64,14.64,0,0,1,.23,1.73c0,1-.75,2-.92,2.94-.35,1.67.12,5.47.4,7.83-.17.41.46,1,1.27,1.21-.4-4.26-.63-7.26.57-10.49A2.53,2.53,0,0,0,52,74c.17-2.59-.81-6.61-.81-7.65,0-1.39,1.15-1.33,2.82-2s2.1-1.72.75-1.37c-1.61.46-2.7,0-2.59-.64a8,8,0,0,0,.12-1v-.07a4.88,4.88,0,0,1-1.32-.11c0,.11-.07.18-.07.23a5.38,5.38,0,0,1-.74,1.21A4.56,4.56,0,0,0,49,64.6Z"/><path class="cls-40" d="M50.12,58.55a4.44,4.44,0,0,1,.74,2.65c1.34.81,4.2-.35,5.82-1.45a.16.16,0,0,0,0-.16c-.23-.93.23-1.73.12-2.77-.07-.28-.07-.58-.12-.86-.11-1-.23-2-.34-2.82-.23-1.5-.41-2.71-.64-2.77-3.15-.81-4.2.86-5.64,1.55-1.05.53-2,.81-2.1,1.79C47.81,55.2,49.43,57.28,50.12,58.55Z"/><path class="cls-40" d="M55.6,51.41a25.74,25.74,0,0,1-5.24,2.77c-.4.16-1.32,2.09-1.67,1.66-2.42-3,2.43-4.89,5-5.82,1-.39,1.61-.16,2,.23A.84.84,0,0,1,55.6,51.41Z"/><path class="cls-39" d="M50.12,58.55a4.44,4.44,0,0,1,.74,2.65,2.26,2.26,0,0,0,1.27.28v-.34c0-.92-.51-1.62.23-2.3a3.07,3.07,0,0,1,1-.41c1.27-.4,1.55-1,2.19-1.32.4-.18.81-.34,1.16-.46a10.73,10.73,0,0,0-1-3.46l-5.13,1.68a4.68,4.68,0,0,0-1.5-2.54A1.68,1.68,0,0,0,48,53.71C47.81,55.2,49.43,57.28,50.12,58.55Z"/><path class="cls-40" d="M55.13,56.36c-.46.23-1,.87-1.73,1.27a2.11,2.11,0,0,1-2.36-.4,8.22,8.22,0,0,1-.29-1A4.89,4.89,0,0,0,49.6,52.9,6.78,6.78,0,0,0,51,52l3.51-1.79,1.16.29A7.76,7.76,0,0,0,57,52.91a2.08,2.08,0,0,1,.4,1.78C57.09,55.66,56.05,56,55.13,56.36Z"/><path class="cls-39" d="M50.36,54.11c-.4.18-1.32,2.1-1.67,1.67-.8-1.05-1.26-2.3-.06-3.22A21.92,21.92,0,0,1,53.71,50a1.8,1.8,0,0,1,1.66,0l-.63.23-3.62,1.44c-.53.4-.93.81-1.5,1.27A10.44,10.44,0,0,1,50.36,54.11Z"/><path class="cls-38" d="M51.09,51.23c-.05.35.3.75.93,1.05,1,.52,2.47,0,2.3-.63-.11-.41-.11-.35-.06-.64a4.66,4.66,0,0,1,.53-1.49l-2.66-.92-.72-.34A3.42,3.42,0,0,1,51.09,51.23Z"/><path class="cls-47" d="M51.16,51.11c1.2-1.14,2.36-.79,3.28-1a.64.64,0,0,0,.11-.3c0-.23.12-.17.24-.46l-2.66-.92-.72-.26A3.78,3.78,0,0,1,51.16,51.11Z"/><path class="cls-41" d="M55.13,55.9c-.64.23-.81.75-1.5,1a1.75,1.75,0,0,1-2.09-.29,3.15,3.15,0,0,1-.24-1,3.53,3.53,0,0,0-1-2.76c.23-.11.81-.4,1-.52,1.21.52,2.42.69,3.15.12a1.78,1.78,0,0,0,0-1.73l1-.63A9.37,9.37,0,0,0,57,52.84a1.51,1.51,0,0,1,.4,1.44C57.14,55.27,55.94,55.6,55.13,55.9Z"/><path class="cls-41" d="M56.75,59.8a3,3,0,0,1-.1-1.48A5.9,5.9,0,0,0,56.77,57c-.4.39-1.16.34-1.62.8a3.89,3.89,0,0,1-1.66,1.05c-1.05.35-1.21.4-1.05,1.15a4.38,4.38,0,0,1,.11,1.49A13.24,13.24,0,0,0,56.75,59.8Z"/><path class="cls-40" d="M47.53,54.06a24.89,24.89,0,0,0-1.27,5.24,2.25,2.25,0,0,0-.11.93,1.06,1.06,0,0,0,2.09-.35c.29-1,.68-1.85,1.32-3.63s.23-3.14-.69-3.39C48.26,52.79,47.76,53.51,47.53,54.06Z"/><path class="cls-41" d="M47.65,60.05c.11-.18.57-.3.69-.41.28-.86.68-1.72,1.2-3.28s.29-2.76-.29-3.22C48.79,55,48,58,47.65,60.05Z"/><path class="cls-40" d="M47.53,54.06a24.89,24.89,0,0,0-1.27,5.24,2.25,2.25,0,0,0-.11.93,1,1,0,0,0,1.37.56,1,1,0,0,0,.47-.4,2.69,2.69,0,0,1-.81-.28c-.17-.18-.11-.35,0-.69.52-2.19,1-4.32,1.72-6.51h-.11C48.26,52.79,47.76,53.51,47.53,54.06Z"/><polygon class="cls-48" points="49.48 54.52 50 54.23 50 62.75 49.48 62.98 49.48 54.52"/><polygon class="cls-49" points="50 54.23 55.25 56.93 55.25 65.41 50 62.75 50 54.23"/><polygon class="cls-50" points="50 54.41 55.02 56.93 55.02 65.23 54.55 65.46 50 62.52 49.54 54.64 50 54.41"/><polygon class="cls-51" points="49.48 54.52 54.78 57.16 54.78 65.64 49.48 62.98 49.48 54.52"/><path class="cls-52" d="M52.36,62.35l-.86-.29.12-.86a1.85,1.85,0,0,1,1.05-.29.17.17,0,0,1,.11.06C53.11,61.14,52.77,62.41,52.36,62.35Z"/><path class="cls-38" d="M54.09,63.05a3.71,3.71,0,0,0,1.27-.41c.23-.12.29-1.44.23-1.44a11.81,11.81,0,0,1-1.33.35c-.34-.12-1.67-.46-2-.58l-.35.63-.17.52c.12,0,.52.12.58.12A8.4,8.4,0,0,0,54.09,63.05Z"/><path class="cls-37" d="M54.21,61.83a3.8,3.8,0,0,0,1.32-.58,0,0,0,0,0,.06,0c0-.06-.23-.06-.34,0a6.39,6.39,0,0,1-1,.35L52.53,61h-.28A17.57,17.57,0,0,0,54.21,61.83Z"/><path class="cls-37" d="M54.61,61.32c.06.34-.58.16-.75.11s-1.32-.29-1.15-.34a2.46,2.46,0,0,1,1-.07c.24.07.24.12.47.18A.62.62,0,0,0,54.61,61.32Z"/><path class="cls-40" d="M46.17,60.56a1.08,1.08,0,0,0,.46.53,3.77,3.77,0,0,0,.92.34,19.44,19.44,0,0,0,4.84.86,1,1,0,0,1,.4-1.38,34.15,34.15,0,0,0-4.43-1.32c-.23.11-.69.46-.75.46C47.22,60.05,45.85,59.64,46.17,60.56Z"/><path class="cls-41" d="M52.2,61.37a.7.7,0,0,1,.34-.46,26.11,26.11,0,0,0-4-1.21,1.47,1.47,0,0,0-.68.4Z"/><path class="cls-40" d="M46.17,60.56a1.08,1.08,0,0,0,.46.53,3.77,3.77,0,0,0,.92.34,19.44,19.44,0,0,0,4.84.86.92.92,0,0,1-.11-.69,34,34,0,0,1-5.06-1.44c-.17-.18-.12-.34,0-.64C46.61,59.7,45.92,59.8,46.17,60.56Z"/><path class="cls-53" d="M54.79,49.74c1.38,1,1.84,3.22,1.43,5.24-.17-1.25-.69-3.22-2-3.85a2.27,2.27,0,0,1,.29-1.05C54.55,50,54.72,49.74,54.79,49.74Z"/><path class="cls-54" d="M54.72,50.2c.18-.06.18-.11.3-.11a5.37,5.37,0,0,1,1.26,3.74A6.21,6.21,0,0,0,54.72,50.2Z"/><path class="cls-36" d="M56.17,54.81c-.29-1.9-.81-3-1.91-3.75a3.19,3.19,0,0,1,.23-.92A7.11,7.11,0,0,1,56.17,54.81Z"/><path class="cls-53" d="M54.84,47.67l-1.27-.46V45.42L54.15,44C55.88,44.55,55.76,47.37,54.84,47.67Z"/><path class="cls-53" d="M51.27,50.09a3.77,3.77,0,0,1-2-3.41A4,4,0,0,1,49.71,45a2.59,2.59,0,0,1,2.42-1.22c.41,0-.69.3-.23.47l-.34,3A4.39,4.39,0,0,1,51.27,50.09Z"/><path class="cls-37" d="M54.15,50a3.15,3.15,0,0,1-2.74-2,2.13,2.13,0,0,1-1.22-.81,2.32,2.32,0,0,1,.46-2.41,2.66,2.66,0,0,1,2-.87A2.58,2.58,0,0,1,55.5,45.7a8,8,0,0,1,0,1c0,.41.18.29.23.64a4.48,4.48,0,0,1,0,1.55c-.06.41,0,.81-.18.92A1.72,1.72,0,0,1,54.15,50Z"/><path class="cls-38" d="M54.15,50a3.15,3.15,0,0,1-2.74-2,2.13,2.13,0,0,1-1.22-.81,2.32,2.32,0,0,1,.46-2.41,2.66,2.66,0,0,1,2-.87,2.79,2.79,0,0,1,2.36,1A4.17,4.17,0,0,1,53.31,47c-.3.17-.4.29-.4.52,0,.46.63.4.68.63s-.58.34-.28,1a4.18,4.18,0,0,0,.92.86Z"/><path class="cls-53" d="M55.07,44.67c-1.15,2.65-3.63,3.14-3.63,3.69s-1-.3-1.27-.64a2.67,2.67,0,0,1,.46-3.4A3.39,3.39,0,0,1,55.07,44.67Z"/><path class="cls-36" d="M51.56,49.16a3.2,3.2,0,0,1-2.25-3h0A2.1,2.1,0,0,1,49.94,45a2.52,2.52,0,0,0-.4,1.73,2.51,2.51,0,0,1,.63-1.44,4.23,4.23,0,0,0-.28,1.49,2.8,2.8,0,0,1,.74-1.32,2.08,2.08,0,0,0-.34,1.79,2.21,2.21,0,0,1,.8-1.61,1.93,1.93,0,0,0-.39,1.21,2.57,2.57,0,0,1,.69-1.05A2.26,2.26,0,0,0,51,46.81a4.55,4.55,0,0,1,.63-1,3.29,3.29,0,0,0-.26,1.38,8.71,8.71,0,0,1,1.15-1,5.27,5.27,0,0,1-1,1.32,8.21,8.21,0,0,0,2.88-2.1c-.69,1.26-2,1.78-3,2.7l.06.52A.52.52,0,0,1,51.56,49.16Z"/><path class="cls-38" d="M51,47.14c-.64-.11-.57.53-.41.87s.35.23.46.4a.52.52,0,0,0,.58.29c.35-.06.06-.52,0-.69A1,1,0,0,0,51,47.14Z"/><path class="cls-47" d="M51.41,47.9c-.17-.23-.28-.58-.69-.53C51.09,47.37,51.21,47.67,51.41,47.9Z"/><path class="cls-36" d="M49.25,46.45a4.39,4.39,0,0,0,2.1,3.92,2.9,2.9,0,0,0,.23-1.27C49.83,48,50.29,48.41,49.25,46.45Z"/><path class="cls-54" d="M55,44.78c-.16-.74-1.5-1.2-2.93-1.05a2.86,2.86,0,0,0-2,.87,4.48,4.48,0,0,1,2-.69,2.86,2.86,0,0,0-1.8,1.21,3.39,3.39,0,0,1,1.85-1,2.74,2.74,0,0,0-1.27.92,4.16,4.16,0,0,1,1.56-.81,2.09,2.09,0,0,0-1,1c.57-.52.57-.69,1.38-.87a4.55,4.55,0,0,0-1.05,1.05,7.51,7.51,0,0,1,1.44-.86,6.56,6.56,0,0,0-.86,1,8.17,8.17,0,0,1,1.38-.86,5.89,5.89,0,0,0-1.27,1.32,13.87,13.87,0,0,1,1.5-1.15,8.85,8.85,0,0,1-.92,1,13.54,13.54,0,0,0,1.5-1.22,21.08,21.08,0,0,1-1.55,1.85,13.39,13.39,0,0,0,1.78-1.67A3.19,3.19,0,0,1,53.85,46,5.74,5.74,0,0,0,55,44.78Z"/><path class="cls-55" d="M54.44,47.09a5.48,5.48,0,0,1-1,.23c-.05,0-.11,0-.11.17v.64c0,.11.11.16.23.16a3.89,3.89,0,0,0,1-.28.11.11,0,0,0,.11-.11v-.69c0-.11-.16-.16-.28-.16Zm1.16-.81a1.39,1.39,0,0,1-.57.58c-.06,0-.06,0-.06.11v.58c0,.12.17.17.29.12s.34-.3.34-.46h0v-.93Z"/><path class="cls-56" d="M54.49,47.14a1.21,1.21,0,0,1-.46.12,1.79,1.79,0,0,1-.51.11c-.07,0-.07,0-.07.06v.7h0a.06.06,0,0,0,.06,0h.06a5.41,5.41,0,0,0,.58-.12,4.19,4.19,0,0,0,.46-.16.07.07,0,0,0,.06-.07h0v-.74a.06.06,0,0,0-.06-.06h0C54.61,47.14,54.61,47.14,54.49,47.14ZM54,47.2a1.47,1.47,0,0,1,.46-.11h.11a.07.07,0,0,1,.07.06h0v.69c0,.06,0,.06-.07.12s0,0-.11,0a5.17,5.17,0,0,1-.51.18,1.66,1.66,0,0,1-.58.11h-.06c-.06,0-.12,0-.12-.06v-.92c0-.12.06,0,.12,0,.29-.06.46-.06.64-.12Zm1.62-.75c0,.06,0,.11-.11.11s-.23.18-.35.3m0,0v.64m0,0,.06.06h.12a.66.66,0,0,0,.23-.18s.12-.11.12-.16V46.4Zm.23-1c.12-.11.18-.18.18-.29h.12v1.05c0,.06-.07.11-.12.17a.76.76,0,0,0-.23.24H55a.26.26,0,0,1-.06-.12v-.64l.06-.05c.15-.19.33-.24.38-.36Z"/><path class="cls-56" d="M54.72,47.32a.23.23,0,0,0,.18-.06.24.24,0,0,0,.12,0h0c0,.06-.12.06-.17.11h-.18Z"/><polygon class="cls-56" points="53.29 47.83 51.39 47.37 51.33 47.32 51.27 47.26 53.34 47.78 53.29 47.83"/></g></g></svg>