<svg xmlns="http://www.w3.org/2000/svg" xmlns:xlink="http://www.w3.org/1999/xlink" viewBox="0 0 150 150"><defs><style>.cls-1,.cls-14{fill:#d1dbef;opacity:0.64;isolation:isolate;}.cls-1,.cls-15,.cls-16,.cls-2,.cls-3{fill-rule:evenodd;}.cls-2,.cls-40{fill:#0098cc;}.cls-3,.cls-43{fill:#b2a9d3;}.cls-4{fill:#32465b;}.cls-5{fill:#58595b;}.cls-6{fill:#808184;}.cls-7{fill:#404041;}.cls-8{fill:#71dbf4;}.cls-9{fill:#5891cc;}.cls-10{fill:#5d97c8;}.cls-11{fill:#fff;}.cls-12{fill:#c6e9f6;}.cls-13{opacity:0.2;}.cls-15,.cls-48{fill:#cfedfa;}.cls-16,.cls-21{fill:#f26c21;}.cls-17{fill:#5db0e2;}.cls-18{fill:#30527e;}.cls-19{fill:#26769d;}.cls-20{fill:#91d5e2;}.cls-22{fill:#efa85a;}.cls-23{fill:#57738b;}.cls-24{fill:#21456e;}.cls-25{fill:#aeaac1;}.cls-26{fill:#1d3042;}.cls-27{fill:url(#radial-gradient);}.cls-28{fill:#8c95aa;}.cls-29{fill:#e9e9e9;}.cls-30{fill:#a6a8ab;}.cls-31{fill:#7a8aa5;}.cls-32{fill:#564a47;}.cls-33{fill:#86b4e0;}.cls-34{fill:#fac0af;}.cls-35{fill:#8f8caa;}.cls-36{fill:#5692cd;}.cls-37{fill:#bdbad3;}.cls-38{fill:#929497;}.cls-39{fill:#5cbfd8;}.cls-41{opacity:0.5;}.cls-42{fill:#81c9e4;}.cls-44{fill:url(#linear-gradient);}.cls-45{fill:url(#linear-gradient-2);}.cls-46{fill:url(#linear-gradient-3);}.cls-47{fill:url(#linear-gradient-4);}.cls-49{fill:#abcceb;}.cls-50{fill:#e0f2f7;}.cls-51{fill:#63c6f1;}.cls-52{fill:#663f98;}.cls-53{fill:#16a1bd;}.cls-54{fill:#f9c9b9;}.cls-55{fill:#79431c;}.cls-56{fill:#80addc;}.cls-57{fill:#bad6f0;}.cls-58{fill:#f6f7fb;}.cls-59{fill:#8aa4be;}.cls-60{fill:#527fa0;}.cls-61{fill:#efc6b4;}.cls-62{fill:#1b7a9b;}.cls-63{fill:#c7a395;}.cls-64{fill:#116d96;}.cls-65{fill:#053552;}.cls-66{fill:#00537e;}.cls-67{fill:#85423b;}.cls-68{fill:#572b26;}.cls-69{fill:#396887;}.cls-70{fill:#1c98d0;}.cls-71{fill:url(#linear-gradient-5);}.cls-72{fill:url(#linear-gradient-6);}.cls-73{fill:#d84226;}.cls-74{fill:#ee5730;}.cls-75{fill:#f26c26;}.cls-76{fill:#2c90c3;}.cls-77{fill:#72bbce;}.cls-78{fill:#2880b9;}.cls-79{fill:#cc5828;}.cls-80{fill:#f1a959;}</style><radialGradient id="radial-gradient" cx="-1230.51" cy="-1700.82" r="23.92" gradientTransform="translate(-1109.24 -1593.6) rotate(178.85)" gradientUnits="userSpaceOnUse"><stop offset="0" stop-color="#27c2e9"/><stop offset="0.1" stop-color="#24b8e3"/><stop offset="0.26" stop-color="#1d9fd1"/><stop offset="0.45" stop-color="#1278b7"/><stop offset="1" stop-color="#242b61"/></radialGradient><linearGradient id="linear-gradient" x1="39.86" y1="2815.06" x2="42.59" y2="2810.33" gradientTransform="translate(0 -2799.89)" gradientUnits="userSpaceOnUse"><stop offset="0" stop-color="#63b9e8"/><stop offset="0.05" stop-color="#63caf1"/><stop offset="0.11" stop-color="#75cbf1"/><stop offset="0.18" stop-color="#86ccf0"/><stop offset="0.23" stop-color="#8cccf0"/><stop offset="0.43" stop-color="#8cccf0"/><stop offset="0.66" stop-color="#a5def6"/></linearGradient><linearGradient id="linear-gradient-2" x1="13.4" y1="2841.05" x2="24.97" y2="2821.02" xlink:href="#linear-gradient"/><linearGradient id="linear-gradient-3" x1="25.98" y1="2825.22" x2="36.15" y2="2807.59" xlink:href="#linear-gradient"/><linearGradient id="linear-gradient-4" x1="17.94" y1="2827.08" x2="24.95" y2="2814.93" xlink:href="#linear-gradient"/><linearGradient id="linear-gradient-5" x1="342.43" y1="109.41" x2="352.82" y2="109.41" gradientTransform="translate(-289.56 -17.98) rotate(3.07)" gradientUnits="userSpaceOnUse"><stop offset="0" stop-color="#5ebcea"/><stop offset="1" stop-color="#81d3f6"/></linearGradient><linearGradient id="linear-gradient-6" x1="349.44" y1="120.3" x2="352.82" y2="120.3" xlink:href="#linear-gradient-5"/></defs><g id="Cloud_Analytics_Consulting" data-name="Cloud Analytics Consulting"><g id="Cloud_Adoption" data-name="Cloud Adoption"><g id="Cloud_Adoption-2" data-name="Cloud Adoption-2"><path class="cls-1" d="M136.83,47.21c.3.71.77,1,1.06.59.59-.76,1-2.65,2.24-1.94l1.12.65.59.35c1,.59,1.82,0,1.82-1.23V33.38A4.28,4.28,0,0,0,141.84,30L121.47,18.31,120,17.49l-6.19-3.56c-1-.59-1.82,0-1.82,1.23V27.38a4.22,4.22,0,0,0,1.82,3.35l.59.36,20.26,11.65C135.83,43.39,136.24,45.8,136.83,47.21Z"/><path class="cls-2" d="M136,29.2c-2.48-1.41-4.42-.06-4.42,3A10.33,10.33,0,0,0,136,40.33c2.41,1.41,4.41.06,4.41-3S138.48,30.61,136,29.2Z"/><path class="cls-3" d="M129.53,26.73v1.59l-15.6-9V17.78l15.6,9Zm0,8.12-15.6-9v1l15.6,8.94Zm0-2.23-15.6-8.95v.94l15.6,9v-1Zm-15.6-11.07v.94l15.6,9v-.94Z"/><path class="cls-4" d="M81.08,70.76a.32.32,0,0,1-.41-.12c-.06-.17,0-.29.18-.41,0,0,10.12-4.47,13.18-5.71a.6.6,0,0,1,.8.31l0,0a.52.52,0,0,1,.06.17l1.74,33.67A1.19,1.19,0,0,0,98,99.78h.35c2.42-1,18.9-11.07,18.9-11.07.18-.06.41-.12.47.06a.29.29,0,0,1-.12.35h0S100.66,99.37,98,100.49a1.31,1.31,0,0,1-1.75-.65.14.14,0,0,1,0-.06.94.94,0,0,1-.12-.47l-1.7-33.73c0-.23-.18-.35-.41-.23Z"/><polygon class="cls-5" points="84.91 69.88 84.09 67.99 79.79 69.88 80.67 71.7 84.91 69.88"/><path class="cls-6" d="M85.2,69.41a1.42,1.42,0,0,0-.58-1.3c-.42-.29-.77-.11-.83.36a1.36,1.36,0,0,0,.59,1.29C84.79,70,85.15,69.93,85.2,69.41Z"/><path class="cls-5" d="M81.66,72l-1.41-3-5.59,2.41a1.1,1.1,0,0,0-.69,1.4.61.61,0,0,0,0,.12h0l.41.94a1.12,1.12,0,0,0,1.47.62l.06,0Z"/><path class="cls-7" d="M80.49,69.53l1.48-.6a2.78,2.78,0,0,1,.88,1.88l-1.47.65A2.46,2.46,0,0,1,80.49,69.53Z"/><path class="cls-6" d="M82.14,71.23a2.35,2.35,0,0,0-1-2.12c-.65-.41-1.23-.17-1.29.59a2.28,2.28,0,0,0,1,2.12.76.76,0,0,0,1.08,0A.81.81,0,0,0,82.14,71.23Z"/><path class="cls-8" d="M21.27,120.68V121h0v.11h0v.18h0v.06l.06.06v.06l.06.06h.06a.05.05,0,0,0,.06.06h0v.06l.06.06.06.06,0,.12V122l.06.06h0l.06.06h.06A2.26,2.26,0,0,0,24.2,122l35-19.43A7.37,7.37,0,0,0,62.62,97l1.74-68.54.06-3.07a2.15,2.15,0,0,0-.94-2.11.05.05,0,0,1-.06-.06H61.77l-.11.06h-.12l-.06,0h-.06l-.12.06L26,42.74l-.18.12h0l-.17.12-.06.06h-.12l-.06.06h-.06l-.05.06-.12.06-.06.06-.06.06L25,43.4l-.06.06-.06.06h-.11l-.06.12-.12.12-.06.06-.12.12h0l-.12.11-.11.18h0l-.18.24s-.05,0-.06,0l-.23.36v.06a.4.4,0,0,0-.12.23l-.06.12-.06.12-.06.12h0l-.12.18v.27a.23.23,0,0,1-.06.12v.06l-.05.11v.06c0,.06-.06.12-.06.18h0l-.06.18v.06s0,0-.06.11v.65h0v.24l-.35.17v.24c0,.06-.06.12-.06.17l-.06,3.07L21.27,120v.65"/><path class="cls-9" d="M22.66,48.27l-.06,3.07.23-.12L64.36,28.44l.06-3.07a2.15,2.15,0,0,0-.94-2.11.05.05,0,0,1-.06-.06H61.77l-.11.06h-.12l-.06,0h-.06l-.12.06L26,42.74l-.18.12h0l-.17.12-.06.06h-.12l-.06.06h-.06l-.05.06-.12.06-.06.06-.06.06L25,43.4l-.06.06-.06.06h-.11l-.06.12-.12.12-.06.06-.12.12h0l-.12.11-.11.18h0l-.18.24s-.05,0-.06,0l-.23.36v.06a.4.4,0,0,0-.12.23l-.06.12-.06.12-.06.12h0l-.12.18v.27a.23.23,0,0,1-.06.12v.06l-.05.11v.06c0,.06-.06.12-.06.18h0l-.06.18v.06s0,0-.06.11v.65h0v.24l-.35.17v.24A.3.3,0,0,0,22.66,48.27Z"/><path class="cls-10" d="M21.27,47.27v-.53h0v-.17h0v-.12h0V45.8h0l.06-.17h0c0-.06.06-.12.06-.18h0v-.18c0-.06,0-.06.06-.12h0c0-.06.06-.12.06-.18h0v-.06c0-.06.06-.06.06-.12h0l.06-.12h.06a.66.66,0,0,0,.11-.24h0a.92.92,0,0,1,.24-.35h0v-.15l.18-.24h0c.05-.06.05-.11.11-.17h0l.12-.12h0l.12-.12h0l.06-.06.06-.12h0l.06-.06h0l.11-.11.06-.06h0l.06-.06.06-.06.06-.06.06-.06.06-.06.05,0,.06-.06h.06l.06-.06.06-.06h0l.06-.06.06-.06h0l.82-.23h0l.12-.06h0l35.2-19.31.12-.06h.3l.11-.06h0l.12-.06H62a.06.06,0,0,1,.06.06h.06l.12.06,1.41.88H61.77l-.11.06h-.12l-.06.06h-.06l-.12.06L26,42.74l-.18.12h0l-.17.12-.06.06h-.12l-.06.06h-.06l-.05.06c-.06,0-.06.06-.12.06l-.06.06-.06.06L25,43.4l-.06.06-.06.06h-.11l-.06.06-.12.12-.06.06-.12.18h0c-.06,0-.06.11-.12.11l-.11.18h0l-.18.24h0c-.06.12-.18.24-.24.36v.06c0,.06-.11.17-.11.23l-.06.12-.06.12-.06.12h0l-.12.18v.27a.23.23,0,0,1-.06.12v.06l-.06.11v.06c0,.06-.05.12-.05.18h0l-.06.18v.06s0,.11-.06.11v.06L23,47v.47h0v.24l-.35.17v.41L21.27,120v1.06h0v.12h0v.18h0v.06l.06.06v.06h.06l.06.06a.05.05,0,0,0,.06.06v.06h0l.06.06.09.12.06.06v.06l.06.06h.06l.06.06.06.06h0l-1.41-.82-.12-.12v-.06c-.06-.06-.12-.06-.12-.12h0l-.12-.11.12-.18c-.06-.06-.06-.12-.12-.18h0l-.06-.12h0v-.11h0l-.06-.18h0v-1.12l1.23-71.7C21.21,47.39,21.27,47.33,21.27,47.27Z"/><path class="cls-11" d="M60.89,27.73h0l-.06-.12h0v-.12h0v-.11h0v-.06h0V27.2h0v-.53h0v-.06h0v-.18h0v-.05h0v-.06h0v-.06h0V26.2h0v-.06h0v-.06h0l.06-.06h0v-.09h0l.06-.06h.71a.76.76,0,0,1,.29.71,2.52,2.52,0,0,1-1.18,1.88.78.78,0,0,1-.82.06h0Z"/><path class="cls-11" d="M56.42,30.14h0L56.36,30h0v-.1h0v-.06h0v-.06h0v-.08h0v-.06h0V29h-.12v-.09h0v-.06h0v-.06h0v-.08h0v-.06h0v-.06h0l.06-.06h0v-.06h.06l.06-.06h0l.06-.06h.82a.71.71,0,0,1,.29.7,2.5,2.5,0,0,1-1.17,1.86.8.8,0,0,1-.83.06h0Z"/><path class="cls-11" d="M52,32.62h0l-.06-.18h0v-.06h0v-.06h0v-.06h0v-.59h0v-.11h0V31.5h0v-.12h0v-.12h0V31.2h0v-.06h0v-.05h0V31h0v-.1h0l.06-.06h0l.06-.06h.83a.76.76,0,0,1,.29.71A2.28,2.28,0,0,1,52,33.4a.78.78,0,0,1-.82.06h0Z"/><path class="cls-12" d="M29,112.32l14.6-8a2.47,2.47,0,0,0,1.12-1.89c0-.7-.47-1-1.06-.64l-14.6,8a2.5,2.5,0,0,0-1.17,1.89h0a.71.71,0,0,0,.62.78A.72.72,0,0,0,29,112.32Z"/><path class="cls-12" d="M58.71,93.49,50.3,98.14A2.44,2.44,0,0,0,49.18,100c0,.71.47,1,1.06.65l6.24-3.42L58.71,96a2.47,2.47,0,0,0,1.12-1.89h0C59.83,93.49,59.36,93.19,58.71,93.49Z"/><g class="cls-13"><path class="cls-14" d="M24,119.33c-2.12,1.29-1.88,2.82.59,3.29l8.42,3a13.4,13.4,0,0,0,8.24-1.47l37.62-19.22c2.12-1.3,1.88-2.83-.59-3.3l-8.42-2.94a13.31,13.31,0,0,0-8.24,1.47Z"/></g><path class="cls-15" d="M65.13,31.85l-45,25.67a3,3,0,0,0-1.36,2.35c-.06,3.18-.35,23.73-.41,26.79,0,.88.59,1.23,1.35.76L30,81.53l.17-1.29c.12-.77.53-.88.77-.82.53.11.47.82.41,1.29L63,62.71c.12-.3.24-.53.36-.83L65,58.47c.24-.71,1.24-.3,1,.82L65.48,61a3,3,0,0,0,.59-1.59c.06-3.06.36-23.61.41-26.78C66.43,31.79,65.84,31.44,65.13,31.85Z"/><path class="cls-16" d="M54.77,45.33h0l-.11,7.36L50.25,50.1a13,13,0,0,0-2,6.3c-.06,4.06,2.77,5.71,6.3,3.71S61,53.11,61,49,58.3,43.27,54.77,45.33Z"/><path class="cls-2" d="M54.71,45.33A13,13,0,0,0,50.18,50l4.41,2.59Z"/><polygon class="cls-3" points="43.94 52.98 21.98 65.52 21.92 67.52 43.94 54.98 43.94 52.98"/><polygon class="cls-3" points="43.88 57.81 21.92 70.35 21.86 71.59 43.82 59.05 43.88 57.81"/><polygon class="cls-3" points="43.82 60.58 21.86 73.12 21.86 74.29 43.82 61.76 43.82 60.58"/><polygon class="cls-3" points="43.76 63.46 21.8 76 21.8 77.24 43.76 64.7 43.76 63.46"/><polygon class="cls-17" points="88.44 31.14 70.08 41.74 70.08 20.43 88.44 9.83 88.44 31.14"/><polygon class="cls-18" points="70.08 20.43 70.08 41.74 69.31 41.27 69.31 19.96 70.08 20.43"/><polygon class="cls-19" points="88.44 9.83 70.08 20.43 69.31 19.96 87.68 9.36 88.44 9.83"/><path class="cls-11" d="M73.49,37.21V31.14L86.2,23.79v6.06Zm.59-5.71v4.77l11.58-6.72V24.79Z"/><polygon class="cls-20" points="84.79 14.84 84.85 23.49 82.14 25.08 82.14 16.37 84.79 14.84"/><polygon class="cls-21" points="80.61 21.2 80.61 25.73 77.96 27.26 77.9 22.73 80.61 21.2"/><polygon class="cls-22" points="76.96 25.02 76.96 27.97 74.31 29.55 74.25 26.55 76.96 25.02"/><path class="cls-23" d="M113.4,113.93c.3-.17.65-.35,1-.53h0l2-.88-.12.35a12,12,0,0,1,4.59-.11l-.12-.36,2.3.94h0a7.1,7.1,0,0,1,.88.42c2.94,1.59,3,4.29.12,6a11.56,11.56,0,0,1-10.42.24C110.66,118.39,110.58,115.68,113.4,113.93Z"/><path class="cls-24" d="M116.23,115.44a5.29,5.29,0,0,0,4.88-.11c1.36-.83,1.3-2.07-.06-2.83a5.29,5.29,0,0,0-4.88.12C114.81,113.44,114.87,114.68,116.23,115.44Z"/><path class="cls-23" d="M118.66,114.5h0a1.09,1.09,0,0,0,1.12-1.07v-.11l-.29-14.83-2.36.06.35,14.83a1.13,1.13,0,0,0,1.14,1.13Z"/><path class="cls-5" d="M117.46,99.08a2,2,0,0,0,1.71-.06.48.48,0,0,0,.32-.6.08.08,0,0,1,0,0,.51.51,0,0,0-.3-.29,1.94,1.94,0,0,0-1.71.06.55.55,0,0,0-.35.64A.58.58,0,0,0,117.46,99.08Z"/><path class="cls-25" d="M118.29,99h0a.93.93,0,0,0,.94-.92v0h0l-.29-14h-1.89l.3,14a.9.9,0,0,0,.94.88h0Z"/><path class="cls-24" d="M104.45,91.72v-.53l-.76-.12-.88-.65a.57.57,0,0,0-.59,0l-.65.42-.65-.06v.53h0c0,.06.06.11.18.17l2,.83a.8.8,0,0,0,.53,0l.65-.41C104.39,91.9,104.45,91.84,104.45,91.72Z"/><path class="cls-23" d="M104.34,91l-1.59-1.08a.57.57,0,0,0-.59,0l-1.12.71c-.18.12-.12.24.06.35l2,.83a.56.56,0,0,0,.53-.06l.65-.41C104.45,91.25,104.51,91.13,104.34,91Z"/><path class="cls-26" d="M107,93.6a2.77,2.77,0,0,1-.64-.11L104,92.13a.27.27,0,0,1-.11-.35.28.28,0,0,1,.35-.12h0L106.66,93a.75.75,0,0,0,.71,0l3.94-2.41c.12-.06.3-.06.36.06h0a.24.24,0,0,1-.08.33l0,0-4,2.42A.75.75,0,0,1,107,93.6Z"/><polygon class="cls-27" points="130.12 88.01 126.24 85.83 128.35 84.77 130.24 86.07 130.12 88.01"/><path class="cls-28" d="M105.16,85.18c.24-.11.41-.29.65-.41l8.12-6.24a4.16,4.16,0,0,1,4.18-.88l.06.06h0l11.54,6.36-1,.35-4,1.88-5.35,4-4.24,2.35-.18.06A10,10,0,0,1,112.12,90c-1.12-1.82-4.07-2.29-5.83-3.77a3.12,3.12,0,0,1-.53.3A6.53,6.53,0,0,1,105.16,85.18Z"/><path class="cls-23" d="M101.51,82.54a.73.73,0,0,1,.47.17h0l11.3,6.22-.35,1.71-.41-.18a9.88,9.88,0,0,0,2.59,2.36l-1.24.29L102.81,87l-.15-.06a2.06,2.06,0,0,1-.41-.23h0a3.74,3.74,0,0,1-1.36-3.12v-.12a.71.71,0,0,1,.46-.9l.19,0Z"/><path class="cls-29" d="M116.66,77.41a5,5,0,0,0-2.18.77A4.48,4.48,0,0,1,116.66,77.41Z"/><path class="cls-30" d="M111.87,89.48v-.12a.77.77,0,0,1,1.53,0h0v.12a2.2,2.2,0,0,0,.94,2.06,2.68,2.68,0,0,0,2.59-.7l8.13-6.24a4.52,4.52,0,0,1,3.65-1.06l-6.89-3.83,8,4.42-1,.35-3.95,1.88-5.36,4-4.23,2.35-.18.06a10.14,10.14,0,0,1-2.83-2.71c-.17-.23-.29-.41-.41-.59Z"/><path class="cls-31" d="M115.23,93.37a4.77,4.77,0,0,0,2.82-1.12L126.18,86a2.69,2.69,0,0,1,2.59-.71c.64.3.94,1,.94,2.06a.77.77,0,0,0,.67.86.78.78,0,0,0,.86-.68v-.18a3.69,3.69,0,0,0-1.83-3.43,4.2,4.2,0,0,0-4.18.88l-8.12,6.24a2.65,2.65,0,0,1-2.59.71c-.65-.3-.94-1-.94-2.06v-.12a.79.79,0,0,0-.83-.71.88.88,0,0,0-.7.71v.12a3.07,3.07,0,0,0,2.45,3.6,2.54,2.54,0,0,0,.73,0Z"/><path class="cls-32" d="M122.06,106.79a2.14,2.14,0,0,1,2.53.35,11.82,11.82,0,0,1,2.47,5.71c.06,1.83-1.41,1.77-2.36,1.36s-3.65-4.18-3.82-5a2.63,2.63,0,0,1,.41-2C121.54,107.06,121.79,106.92,122.06,106.79Z"/><path class="cls-6" d="M121.66,106.38v1.55a1,1,0,0,0,.47.82,2.1,2.1,0,0,0,1.24.18c1.18-.24,1.24-.53,1.3-2.18S121.66,106.38,121.66,106.38Z"/><path class="cls-32" d="M127.66,103.55a2.14,2.14,0,0,1,2.53.35,11.86,11.86,0,0,1,2.47,5.72c.06,1.82-1.41,1.76-2.35,1.35s-3.65-4.18-3.83-5a2.48,2.48,0,0,1,.41-1.94Z"/><path class="cls-6" d="M127.29,103.2v1.59a.9.9,0,0,0,.47.82,1.89,1.89,0,0,0,1.17.18c1.18-.24,1.24-.53,1.3-2.18S127.29,103.2,127.29,103.2Z"/><path class="cls-23" d="M112.75,73.93c.3-7.47,8.13.94,8.13.94l5.36,5,4.82,5.06a4.58,4.58,0,0,1,1.24,3.71l-1.59,14.6a1.52,1.52,0,0,1-1.41,1.29,2.8,2.8,0,0,1-.71-.06,1.78,1.78,0,0,1-1.65-1.82l.06-13.6-10-5.77S112.46,81.42,112.75,73.93Z"/><path class="cls-23" d="M107.16,76.93c.3-7.47,8.13,1,8.13,1l5.35,5,4.83,5a4.61,4.61,0,0,1,1.24,3.71l-1.59,14.54a1.52,1.52,0,0,1-1.42,1.3,2.72,2.72,0,0,1-.7-.06,1.7,1.7,0,0,1-1.59-1.82h0l.06-13.6-10-5.76C111.4,86.19,106.87,84.36,107.16,76.93Z"/><path class="cls-33" d="M111.16,52.75c-6.71,2.29-5.53,5.94-5.53,5.94a202.07,202.07,0,0,1,1.24,21c-.06,3.53,18.72,3.36,15.72-5.94-3.54-11-2.12-20.2-4.07-21.26S112.66,52.1,111.16,52.75Z"/><path class="cls-34" d="M109.34,55.81c.35,1.18,1.88,1.77,3.47,1.29s2.59-1.76,2.3-2.94-1.88-1.76-3.47-1.29S109,54.63,109.34,55.81Z"/><path class="cls-11" d="M110.52,57.34a2.05,2.05,0,0,1-1.44-2.53l0-.06a2.27,2.27,0,0,1,.48-.82,4,4,0,0,1,4.35-1.24,2.16,2.16,0,0,1,1.41,1.41c.36,1.3-.76,2.77-2.47,3.3a3.41,3.41,0,0,1-2.35-.06Zm1.14-4.18a3,3,0,0,0-1.7,1.12,1.64,1.64,0,0,0-.36,1.47h0a1.54,1.54,0,0,0,1.12,1.06,3.45,3.45,0,0,0,2.06.06c1.42-.41,2.36-1.59,2.12-2.59a1.59,1.59,0,0,0-1.12-1.06,4.22,4.22,0,0,0-1.11-.18,5.47,5.47,0,0,0-1,.12Z"/><path class="cls-34" d="M109.05,67.82v3.41a1.21,1.21,0,0,0,.48,1l7.13,6.18-.77,1.24-9.36-6.47a1.86,1.86,0,0,1-.76-1.3L105,66Z"/><path class="cls-33" d="M105.87,56.57s-2.12,1.18-2.48,12.07c0,0,3.65,1.06,5.66.36S105.87,56.57,105.87,56.57Z"/><path class="cls-23" d="M109.28,60.93a47.41,47.41,0,0,1,1,6.48,1.22,1.22,0,0,1-.82,1.29h0Z"/><path class="cls-25" d="M111.58,82.93l1.53-.24,9.83-5.94a1.47,1.47,0,0,1,1.23,0l7.13,3.88.94-.12v1h0a.37.37,0,0,1-.24.35l-11.12,6.77a1.49,1.49,0,0,1-1.24,0l-7.77-4.24a.46.46,0,0,1-.29-.41h0Z"/><path class="cls-35" d="M119,79.18l.71-.41,7.77-.18,3.89,2.12.94-.12v1h0a.37.37,0,0,1-.24.35l-11.12,6.77a.84.84,0,0,1-.65.12Z"/><path class="cls-36" d="M131.83,80.59l.41-.06v1h0a.37.37,0,0,1-.24.35l-.17.12Z"/><path class="cls-37" d="M120.82,88.6a1.31,1.31,0,0,1-1.06-.06l-.1-1.61h1.06Z"/><path class="cls-11" d="M120.94,87.66l11.12-6.73c.3-.18.3-.53-.11-.71l-7.78-4.29a1.55,1.55,0,0,0-1.23,0L111.81,82.7c-.29.18-.29.53.12.71l7.73,4.25A1.51,1.51,0,0,0,120.94,87.66Z"/><path class="cls-38" d="M121.05,86.66,130.3,81c.23-.18.23-.42-.06-.59l-4.18-2.24a1.11,1.11,0,0,0-1.06,0l-9.24,5.65c-.24.18-.24.41.06.59L120,86.66A1.14,1.14,0,0,0,121.05,86.66Z"/><path class="cls-34" d="M123.66,75.71l.12.76a5.6,5.6,0,0,1,0,2l-.12.71a.88.88,0,0,1-.76.77h0a.54.54,0,0,1-.65-.42v-.06L122,77.83s-.42.58-.59.58a5.56,5.56,0,0,1,.64-2.64C122.66,74.82,123.66,75.71,123.66,75.71Z"/><path class="cls-34" d="M119.66,63.4l1.24,2.36a5.53,5.53,0,0,1,.53,1.82l.7,8.19,1.59-.06.53-9.25a3.78,3.78,0,0,0-.06-.82L123.25,61Z"/><path class="cls-25" d="M121.29,88.25l.94-1.24,9.83-6a1.31,1.31,0,0,0,.53-1.12l-.17-8.13L133,71l-.53-.3h0a.51.51,0,0,0-.42,0l-11.12,6.77a1.35,1.35,0,0,0-.53,1.12l.23,8.89a.52.52,0,0,0,.24.47h0Z"/><path class="cls-25" d="M128.12,83.42l.71-.41,3.7-6.83-.11-4.42L133,71l-.53-.3h0a.51.51,0,0,0-.42,0l-11.12,6.77a.9.9,0,0,0-.41.53Z"/><path class="cls-37" d="M132.71,71.35,133,71l-.53-.3h0a.51.51,0,0,0-.42,0l-.17.12Z"/><path class="cls-37" d="M120.82,77.59a1.44,1.44,0,0,0-.47.94l1.12.59.53-.94Z"/><path class="cls-22" d="M121.47,77.83l11.12-6.77c.3-.18.59,0,.59.41l.18,8.89a1.48,1.48,0,0,1-.53,1.12l-11.17,6.77c-.29.17-.59,0-.59-.42l-.13-8.9A1.15,1.15,0,0,1,121.47,77.83Z"/><path class="cls-34" d="M115.93,79.65l.18.35a2.52,2.52,0,0,0,.94,1l1.12.64a1,1,0,0,0,1.12,0h.06a.73.73,0,0,0,.17-.94v-.12l-1.18-1.17s.65.47.82.29-.65-.88-1.23-.88a2.22,2.22,0,0,1-1.18-.47Z"/><path class="cls-33" d="M118.52,52.45s2-.35,6,8.83a8.5,8.5,0,0,1-5,3.77C116,66.17,118.52,52.45,118.52,52.45Z"/><path class="cls-23" d="M120.35,64.76l-.83-6.71,1.77,6.24A4.86,4.86,0,0,1,120.35,64.76Z"/><path class="cls-11" d="M115.11,51.57l1.18-.35a2.59,2.59,0,0,1-1.36,1.12c-.82.23-.94-.47-.94-.47Z"/><path class="cls-22" d="M122.41,143.64l-13.07-7.18a.7.7,0,0,1-.41-.53h0l-.06-1.47.71.59,8-4.89a2.37,2.37,0,0,1,2.24-.12l12.48,6.83.94-.59.06,1.47h0a1,1,0,0,1-.53.71l-8.18,5A2.32,2.32,0,0,1,122.41,143.64Z"/><path class="cls-21" d="M133,135.69l-13.07-7.18a2.78,2.78,0,0,0-2.24.12l-8.18,5c-.65.42-.71,1-.12,1.3l13.07,7.18a2.66,2.66,0,0,0,2.24-.12l8.18-5C133.42,136.64,133.48,136.05,133,135.69Z"/><path class="cls-11" d="M119.29,134a.56.56,0,0,0,.35-.65.51.51,0,0,0-.35-.35,1.88,1.88,0,0,0-1.77,0,.58.58,0,0,0-.35.65.53.53,0,0,0,.35.36A2.11,2.11,0,0,0,119.29,134Z"/><path class="cls-11" d="M121.94,135.46a.56.56,0,0,0,.35-.65.58.58,0,0,0-.35-.35,1.85,1.85,0,0,0-1.77.06c-.47.29-.47.7,0,1A2.07,2.07,0,0,0,121.94,135.46Z"/><path class="cls-11" d="M124.66,136.93a.56.56,0,0,0,.35-.65.6.6,0,0,0-.35-.35,1.85,1.85,0,0,0-1.77.06.55.55,0,0,0-.35.65.51.51,0,0,0,.35.35A2.11,2.11,0,0,0,124.66,136.93Z"/><path class="cls-39" d="M108.28,143.58,95.21,136.4a.74.74,0,0,1-.41-.53h0l-.06-1.41.71.59,8-4.89a2.37,2.37,0,0,1,2.24-.12l12.48,6.83.94-.59.06,1.47h0a1,1,0,0,1-.53.71l-8.18,5A2.16,2.16,0,0,1,108.28,143.58Z"/><path class="cls-40" d="M118.82,135.69l-13.07-7.18a2.78,2.78,0,0,0-2.24.12l-8.18,5c-.65.42-.71,1-.12,1.3l13.07,7.18a2.66,2.66,0,0,0,2.24-.12l8.18-5C119.29,136.64,119.35,136.05,118.82,135.69Z"/><path class="cls-11" d="M105.16,134c.47-.3.47-.71,0-1a1.88,1.88,0,0,0-1.77,0,.58.58,0,0,0-.35.65.53.53,0,0,0,.35.36A2.11,2.11,0,0,0,105.16,134Z"/><path class="cls-11" d="M107.81,135.46a.56.56,0,0,0,.35-.65.51.51,0,0,0-.35-.35,1.85,1.85,0,0,0-1.77.06.55.55,0,0,0-.35.64.53.53,0,0,0,.35.36A2.07,2.07,0,0,0,107.81,135.46Z"/><path class="cls-11" d="M110.52,136.87a.56.56,0,0,0,.35-.65.6.6,0,0,0-.35-.35,1.91,1.91,0,0,0-1.77.06.55.55,0,0,0-.35.65.51.51,0,0,0,.35.35A1.75,1.75,0,0,0,110.52,136.87Z"/><path class="cls-11" d="M36.11,84.6c.12,0,.17-.06.29-.18a.46.46,0,0,0-.06-.59h0l-1.88-1.41.77-3.77a.39.39,0,0,0-.31-.45.38.38,0,0,0-.46.3v0h0l-.88,4.24,2.29,1.71C35.87,84.54,36,84.6,36.11,84.6Z"/><g class="cls-41"><path class="cls-11" d="M34.22,85.24a.38.38,0,0,0,.37-.39s0,0,0-.08a.33.33,0,0,0-.18-.29l-1.88-1.41.76-3.77a.41.41,0,0,0-.29-.47.41.41,0,0,0-.47.29h0l-.86,4.24L34,85.07C34,85.24,34.11,85.24,34.22,85.24Z"/></g><g class="cls-13"><path class="cls-11" d="M32.46,86.19a.41.41,0,0,0,.35-.46v0a.33.33,0,0,0-.18-.29L30.75,84l.77-3.77a.4.4,0,0,0-.3-.47h0a.41.41,0,0,0-.47.29h0l-.88,4.24,2.24,1.83A.37.37,0,0,0,32.46,86.19Z"/></g><path class="cls-42" d="M92.8,48.39a.31.31,0,0,0,.29-.17.46.46,0,0,0-.06-.59h0l-1.88-1.42.76-3.76a.39.39,0,0,0-.29-.47h0a.41.41,0,0,0-.47.29h0l-.88,4.24,2.29,1.71C92.56,48.33,92.66,48.39,92.8,48.39Z"/><g class="cls-41"><path class="cls-42" d="M90.91,49a.31.31,0,0,0,.3-.18.46.46,0,0,0-.06-.59h0l-1.88-1.34L90,43.16a.41.41,0,0,0-.82-.11l-.89,4.29L90.66,49Z"/></g><g class="cls-13"><path class="cls-42" d="M89.15,50c.23-.06.41-.23.35-.47a.33.33,0,0,0-.18-.29l-1.88-1.36.77-3.71a.43.43,0,0,0-.28-.52h0a.43.43,0,0,0-.53.3h0V44l-.88,4.24,2.29,1.71A.62.62,0,0,0,89.15,50Z"/></g><path class="cls-43" d="M128.88,53.93a.31.31,0,0,1-.29-.18.45.45,0,0,1,.06-.59h0l1.88-1.41L129.77,48a.4.4,0,0,1,.29-.47h0c.24-.06.41.12.47.35l.89,4.24-2.3,1.71C129.06,53.93,129,53.93,128.88,53.93Z"/><g class="cls-41"><path class="cls-43" d="M130.77,54.57a.31.31,0,0,1-.3-.17.46.46,0,0,1,.06-.59h0l1.89-1.41-.76-3.77a.35.35,0,0,1,.23-.45l.07,0h0a.41.41,0,0,1,.47.29h0l.88,4.3L131,54.46A.15.15,0,0,1,130.77,54.57Z"/></g><g class="cls-13"><path class="cls-43" d="M132.53,55.57a.3.3,0,0,1-.29-.17.45.45,0,0,1,.06-.59h0l1.88-1.41-.76-3.71a.36.36,0,0,1,.25-.45l.1,0c.24,0,.47.11.47.35l.88,4.18-2.29,1.71A.39.39,0,0,1,132.53,55.57Z"/></g><path class="cls-44" d="M40.17,15.31a9.37,9.37,0,0,0,3.06,1.23,8.49,8.49,0,0,0,1.24.24c.09-.54.15-1.09.19-1.65,1.89,0,1.53-2.59,1.53-2.59L41.47,9.93a1,1,0,0,0-.42-.23h0a4.39,4.39,0,0,0-3.82.29C36.4,11.42,38.87,14.43,40.17,15.31Z"/><path class="cls-45" d="M15.09,39.21l16-9.24C29.73,28.67,28.44,27.32,27,26c-1.82-1.65-3.7-3.24-5.35-5-1.18-1.24-3.77-3.3-4.89-4.59a11.55,11.55,0,0,0-2.88,7.06,5.76,5.76,0,0,0,.07,1.44l-.47.3a12.76,12.76,0,0,0-5.78,9.92,4.21,4.21,0,0,0,1.65,3.71h0l4.95,2.7L15,39.39h-.46Z"/><path class="cls-46" d="M42.66,17.13a8.18,8.18,0,0,1-3.47-1.7,5,5,0,0,1-1.36-4.12l-.29.23a11.54,11.54,0,0,0-.24-1.41,3.43,3.43,0,0,0,1.36-.83L33.77,6.6h0A5.49,5.49,0,0,0,28.24,7a16.51,16.51,0,0,0-5.89,6.65,4,4,0,0,0-3.18.59,8.18,8.18,0,0,0-2,1.68c1.24,1.41,4,3.65,5.24,4.94l.77.77h.17c3.06,2.47,6.07,4.94,9.13,7.36l5.12-2.89h0l.59-.29a14.47,14.47,0,0,0,6.06-8.42A7,7,0,0,1,42.66,17.13Z"/><path class="cls-47" d="M19.21,14.31a11.64,11.64,0,0,0-5.41,9.18A5.79,5.79,0,0,0,14,24.93l4.89,2.65c12.54,1.83,8.3-11.18,8.3-11.18l-4.71-2.65A4.2,4.2,0,0,0,19.21,14.31Z"/><path class="cls-48" d="M47.18,16.6a11.78,11.78,0,0,1-1.77,5.95,12.86,12.86,0,0,1-4,4.36l-.24.17-.35.18h-.16l-.47.23h0l-7.3,4.18L29.4,33.73,17.92,40.45l-.36.17-.53.24a3.29,3.29,0,0,1-1.35.23c-1.47,0-2.35-1.23-2.35-3.29A8.17,8.17,0,0,1,13.5,36a10.76,10.76,0,0,1,1.12-3l.3-.53a10,10,0,0,1,3.82-4l.47-.23L19.8,28l-.14-.66a6.64,6.64,0,0,1-.11-1.18,9.48,9.48,0,0,1,1.53-4.94,13.89,13.89,0,0,1,2.06-2.54c.23-.23.53-.41.76-.64a2.59,2.59,0,0,1,.65-.42,4.6,4.6,0,0,1,2.11-.67h.59l.59.17.29-.59a15.38,15.38,0,0,1,5.65-6.29,9.41,9.41,0,0,1,1.71-.77l.35-.12c.3,0,.59.06.89.06a4.15,4.15,0,0,1,1.47.3h.18a3.44,3.44,0,0,1,1.47,1.88,8.51,8.51,0,0,1,.35,1.65l.12,1.35.47-.35.59-.41.59-.36a3.49,3.49,0,0,1,.58-.29,4.26,4.26,0,0,1,1.89-.47h.41C46.35,13.07,47.18,14.48,47.18,16.6Z"/><path class="cls-49" d="M37.82,9.72h.11a4.13,4.13,0,0,1,1.83,3.53v1.12l.35.23L40,13.31a4,4,0,0,0-1.82-3.54H38a3.61,3.61,0,0,0-1.33-.29A2.57,2.57,0,0,1,37.82,9.72Z"/><path class="cls-49" d="M44.94,12.84h-.28c1.48.23,2.3,1.64,2.3,3.76a12.47,12.47,0,0,1-1.77,5.95,12.86,12.86,0,0,1-4,4.36L40.9,27l-.36.24h-.11l-.48.23h0l-7.29,4.18L29.1,33.73,17.74,40.27l-.41.41-.53.24a4.86,4.86,0,0,1-1.35.29h.41a3.51,3.51,0,0,0,1.35-.28l.53-.24.35-.18L29.4,33.93l3.53-2,7.3-4.18h0l.47-.24h.12l.35-.17.3-.18a12.49,12.49,0,0,0,4-4.36,11.73,11.73,0,0,0,1.76-5.94C47.18,14.48,46.35,13.07,44.94,12.84Z"/><path class="cls-50" d="M45.06,12.07a5.85,5.85,0,0,0-3.54.82,5.65,5.65,0,0,0-.58.36,4.77,4.77,0,0,0-2.42-4.12,4.72,4.72,0,0,0-2.94-.3,8.25,8.25,0,0,0-2.3.94,15.58,15.58,0,0,0-6,6.66,4.11,4.11,0,0,0-3.18.64,4.91,4.91,0,0,0-.71.48,11.92,11.92,0,0,0-4.65,8.59,5.56,5.56,0,0,0,.18,1.41l-.53.24a12.82,12.82,0,0,0-5.77,10c0,3.29,2.06,4.76,4.83,3.76a3.94,3.94,0,0,0,.94-.47l1.47-.88h0l.77-.41,1.53-.86,3.5-2.08L28,35.5l1.12-.65,2.42-1.41.76-.47.35-.18.42-.23.76-.47,2.88-1.48L41,28.08h.18l.35-.17A14.26,14.26,0,0,0,48,16.72C48,13.93,46.82,12.37,45.06,12.07ZM41.35,26.93l-.24.12-.35.18h-.1l-.47.23h0L36.6,29.52l-2.77,1.59-.76.42H33l-.59.35-.82.47-2.18,1.3L28,34.41l-1.53.88-.76.47-3.55,2.09L20,39.33h0l-1.89,1.12-.35.17-.53.24a3.35,3.35,0,0,1-1.29.23c-1.53,0-2.42-1.23-2.42-3.29A8.16,8.16,0,0,1,13.66,36a10.45,10.45,0,0,1,1.12-3l.29-.53a11,11,0,0,1,3.83-4l.47-.23L20,28l-.24-.59a7.84,7.84,0,0,1-.06-1.19,10,10,0,0,1,1.54-5,11.92,11.92,0,0,1,2.06-2.48c.23-.23.53-.41.76-.64a2.59,2.59,0,0,1,.65-.42,4.37,4.37,0,0,1,2-.64h.59l.65.17.29-.59a16,16,0,0,1,5.71-6.35,6.45,6.45,0,0,1,1.76-.77L36,9.36c.24,0,.47.06.71.06a3.83,3.83,0,0,1,1.41.3h.18a3.44,3.44,0,0,1,1.47,1.88,8.51,8.51,0,0,1,.35,1.65l.12,1.35.47-.35.65-.41.53-.36.59-.29a5.31,5.31,0,0,1,1.88-.47h.41c1.47.23,2.3,1.65,2.3,3.77a11.81,11.81,0,0,1-1.83,5.94A11.47,11.47,0,0,1,41.35,26.93Z"/><polygon class="cls-51" points="29.22 22.37 32.93 26.67 32.93 32.67 34.28 31.97 34.28 26.2 30.57 22.37 29.22 22.37"/><path class="cls-52" d="M35.58,32.38h0a1.37,1.37,0,0,0,1.86-.54l0-.05a1.22,1.22,0,0,0,.18-.65h0a1.43,1.43,0,0,0-.71-1.21h0a1.33,1.33,0,0,0-1.85.36l0,.05h0a1.5,1.5,0,0,0-.18.71h0A1.34,1.34,0,0,0,35.58,32.38Z"/><path class="cls-53" d="M34.34,24.49l-4.68-2.76a6.29,6.29,0,0,0-.41.64h0L34,25.14a3.73,3.73,0,0,1,1.94,3.35V57.87l.71-.59V28.49A4.51,4.51,0,0,0,34.34,24.49Z"/><path class="cls-34" d="M110.05,51.1c.17-.24,1.47.12,1.47.12l2.24.82.76,1.94.06.77-.3,1.18-2.88.64L109.81,55l.35-1.54S110.11,51.45,110.05,51.1Z"/><path class="cls-54" d="M117.23,45.57a8.27,8.27,0,0,1,.43,4.06,3,3,0,0,1-.53.94,3.69,3.69,0,0,1-.12,1.24,16.48,16.48,0,0,1-1.59,3.65,1.92,1.92,0,0,1-1.88.17,7.06,7.06,0,0,1-3.36-3.29,2.93,2.93,0,0,1,0-1.18,1.89,1.89,0,0,1-1.12-1.71A2.41,2.41,0,0,1,109,47l2.47-3,3.06-.3Z"/><path class="cls-55" d="M109.66,48c1,.18,1.83,1.65,1.83,1.65s1,.18,1.47-1.18a2.5,2.5,0,0,1,1.24-1.24c.59-.29,1.59.59,3.29-.35,2.12-1.18-.11-5.47-4.41-5.12-4.48.35-4.89,4.71-5,5.77a1.85,1.85,0,0,0,1,1.94S108.87,47.86,109.66,48Z"/><path class="cls-56" d="M27.65,105.7l.76-15.32a3,3,0,0,1,1.53-2.29L50.47,77.46a1.33,1.33,0,0,1,.86-.15.88.88,0,0,0-1.14-.06L29.67,87.89a3.15,3.15,0,0,0-1.54,2.29l-.76,15.31a1,1,0,0,0,.52,1A1,1,0,0,1,27.65,105.7Z"/><path class="cls-57" d="M51.84,78.38a1,1,0,0,0-.52-1,.63.63,0,0,1,.25.77L50.9,93.49a3.35,3.35,0,0,1-1.54,2.39L28.84,106.42a1.48,1.48,0,0,1-.86.15.87.87,0,0,0,1.14.05L49.73,96.09a3.21,3.21,0,0,0,1.54-2.39Z"/><path class="cls-58" d="M28.84,106.42,49.45,95.88A3.15,3.15,0,0,0,51,93.5l.77-15.32a1.52,1.52,0,0,0-.25-.86,1,1,0,0,0-.86.15L29.94,88.09a3.14,3.14,0,0,0-1.53,2.29l-.76,15.32a1.43,1.43,0,0,0,.24.86A1.57,1.57,0,0,0,28.84,106.42Z"/><path class="cls-21" d="M30.08,102.41l.28-5.49a5.28,5.28,0,0,1,3.43-.39A5.6,5.6,0,0,0,37.7,96a7,7,0,0,0,3.22-3.82,9.8,9.8,0,0,1,2.34-3.2,1.69,1.69,0,0,1,2.55.13,2.36,2.36,0,0,0,3.2.44l-.16,3.22S31.44,101.72,30.08,102.41Z"/><path class="cls-40" d="M43.41,93.59c-1.46.78-2.06-.57-2.65-1.93s-1.37-3-3.12-2.14-3.2,3.44-4.35,5.65c-.95,1.85-1.89,3.7-3.06,4.31v-.29c1.07-.51,1.92-2.27,2.86-4,1.15-2.31,2.51-4.89,4.56-5.93s2.62.61,3.39,2.16c.6,1.36,1.11,2.61,2.47,1.92a6.47,6.47,0,0,0,2.7-2.8,7.93,7.93,0,0,1,3-3.17l0,.29a7.47,7.47,0,0,0-2.8,2.89A7.21,7.21,0,0,1,43.41,93.59Z"/><polygon class="cls-59" points="30.08 102.41 29.99 102.4 30.52 91.72 30.61 91.72 30.08 102.41"/><polygon class="cls-59" points="48.95 92.73 48.85 92.82 49.38 82.14 49.48 82.05 48.95 92.73"/><polygon class="cls-59" points="29.98 102.5 29.99 102.4 48.95 92.64 48.94 92.83 29.98 102.5"/></g><path class="cls-14" d="M89.66,109.67c-5.3-2.94-13.89-2.94-19.25,0s-5.3,7.66,0,10.6,13.89,2.94,19.25,0S95,112.62,89.66,109.67Z"/><path class="cls-60" d="M85.26,66.29a1.93,1.93,0,0,0-.89,2.58.54.54,0,0,0,.07.13,1.77,1.77,0,0,0,2.31,1l0,0,1.48-2.89-.3-.88Z"/><polygon class="cls-61" points="84.32 68.88 84.97 70.35 86.09 69.17 85.38 67.7 84.32 68.88"/><path class="cls-11" d="M85.44,66.05l-1.65,1.47s2.12.89,2,2.3c.3-.29.94-.88,1.36-1.24C88.38,67.58,85.44,66.05,85.44,66.05Z"/><path class="cls-62" d="M88.32,60.28l1.77,2.42L85,66.52c2.65,1.3,1.88,3.48,1.88,3.48s7.48-5,7.89-6.13-4.3-9.59-4.3-9.59Z"/><path class="cls-11" d="M82.85,110.5s-2.65-.59-2.77.23c-.17,1.3,3.18,5.3,4,5.83a1.32,1.32,0,0,0,1.86.25,1.33,1.33,0,0,0,.49-1.37Z"/><path class="cls-61" d="M87.66,100.67c-.18-2.53-2-4-2-11.25-1-.59-5.59,2.42-5.59,2.42l2.18,7.36s.59,10.77.59,11.24c-3.42-.06-.53,3.65,1.65,4.94a1.71,1.71,0,0,0,1.82,0,15.87,15.87,0,0,1-.59-4.06C85.73,109.38,87.85,103.14,87.66,100.67Z"/><path class="cls-63" d="M83.08,112.93a19.31,19.31,0,0,1-.17-2.53S82.38,112.38,83.08,112.93Z"/><path class="cls-11" d="M74.73,113.56a4.93,4.93,0,0,0-2,.12c-1,.41-1.35,1.17-.64,1.82,2.47,2.18,8.94,2.77,9.41,2.53a1.36,1.36,0,0,0,.58-1.84l0-.1Z"/><path class="cls-61" d="M81,102.55a12.94,12.94,0,0,0-2.06-3.77l.35-4.59-5.24.3s-.24,2.23-.24,3.35,4.83,12,3.42,15.9a9.28,9.28,0,0,1-2.47-.12c-3.6,1.29,6.82,5.3,7.35,2.47a6.76,6.76,0,0,1-.53-1.59C80.91,110.93,81.5,104.43,81,102.55Z"/><path class="cls-64" d="M82,73.18s-8.25,3.7-8.54,4.29c.23,2.65-.59,15,.23,17,.24.47.24,1.88,4.6,1.41a12.58,12.58,0,0,0,4.94-1.59,14.23,14.23,0,0,0,.59-2.83,5.23,5.23,0,0,1,.82,2,8,8,0,0,0,1.89-2c.35-9.07,2.88-13.37.65-17.13C85.85,73,82,73.18,82,73.18Z"/><path class="cls-65" d="M79.43,79.77a9.94,9.94,0,0,0,7.66-5.59l-13.6,3.23C73.37,77.41,74.25,80.65,79.43,79.77Z"/><path class="cls-66" d="M90.44,56.46a5.35,5.35,0,0,0-1.65-2.77L84,54.1l-4.65,2.83s-6.6,2.94-6.6,5.18a3.9,3.9,0,0,0,1.65,2.94S74.66,72.7,73,76.93c.35.47,1.65,2.77,5.53,2.3a12,12,0,0,0,5.24-2.06,8.56,8.56,0,0,0,.53-2.12,4.85,4.85,0,0,1,.59,1.29,11.14,11.14,0,0,0,2-2.17c-.59-2.3-1.71-4.36-1.71-5.3C85.38,67.93,90.86,60.28,90.44,56.46Z"/><path class="cls-61" d="M57.18,51c-.7-.53-2.76-2.06-3-1.88s1.18,1.47,1.88,2.12a4,4,0,0,0-1.47,1.65c-.23.47.18.88.71,1.35.82,2.12,2.24,1.94,2.24,1.94l1.64-1.23s-1.47-3.24-1.82-3.77C57.3,51,57.24,51,57.18,51Z"/><path class="cls-11" d="M59.36,54.87a2.78,2.78,0,0,0-2.12,1.65l1.47,1.76,2-2C60.54,56.22,59.6,54.87,59.36,54.87Z"/><path class="cls-62" d="M73.55,59.93,66,61.4s-5.12-5.18-5.53-5.65c-1.12-.71-3.3,1.3-2.59,2.12s5.89,7.06,6.89,7.36,12.54-1.12,12.54-1.12,4.82-.24,4.23-3.65C81,57.58,73.55,59.93,73.55,59.93Z"/><path class="cls-61" d="M78.49,46.27s-.76,5.07.3,5.95a5.34,5.34,0,0,0,2.59,1.06l-.24-5.54Z"/><path class="cls-67" d="M80.32,41.86c-1.71-.18-2,.47-2,.94-1,6.83,1.82,10.3,2,10.6-.41,3.82-2,4.53-2,4.53s2.76-.88,3.18-.41.53,2.7,2.7,2.76a1.46,1.46,0,0,1,0-1.29s2.24,2.18,3.77,1.65a11.68,11.68,0,0,1,1.88-4.12,2.37,2.37,0,0,1,0,1.06c1.81-1.95.81-7.54.81-10.95C90.8,42.39,81.44,38.62,80.32,41.86Z"/><path class="cls-68" d="M80.32,41.86a18.4,18.4,0,0,1,7.47,3.29A10.44,10.44,0,0,0,80.32,41.86Z"/><polygon class="cls-69" points="60.87 104.74 53.98 100.13 52.77 120.85 59.66 125.46 60.87 104.74"/><polygon class="cls-10" points="64.27 103.06 57.38 98.45 53.98 100.13 60.87 104.74 64.27 103.06"/><polygon class="cls-10" points="60.87 104.74 59.66 125.46 63.06 123.78 64.27 103.06 60.87 104.74"/><polygon class="cls-70" points="53.5 113.03 46.61 108.42 45.57 125.84 52.46 130.56 53.5 113.03"/><polygon class="cls-71" points="56.8 111.34 49.91 106.73 46.61 108.42 53.5 113.03 56.8 111.34"/><polygon class="cls-72" points="53.5 113.03 52.46 130.56 55.75 128.87 56.8 111.34 53.5 113.03"/><polygon class="cls-73" points="46.97 121.06 40.07 116.55 39.28 129.33 46.17 133.94 46.97 121.06"/><polygon class="cls-74" points="50.26 119.47 43.37 114.86 40.07 116.55 46.97 121.06 50.26 119.47"/><polygon class="cls-75" points="46.97 121.06 46.17 133.94 49.57 132.26 50.26 119.47 46.97 121.06"/><polygon class="cls-76" points="40.53 127.23 33.65 122.62 33 132.72 39.89 137.33 40.53 127.23"/><polygon class="cls-77" points="43.93 125.55 37.05 120.94 33.65 122.62 40.53 127.23 43.93 125.55"/><polygon class="cls-78" points="40.53 127.23 39.89 137.33 43.29 135.65 43.93 125.55 40.53 127.23"/><polygon class="cls-79" points="34.43 133 27.55 128.39 27.03 136.12 33.91 140.73 34.43 133"/><polygon class="cls-80" points="37.73 131.32 30.94 126.71 27.55 128.39 34.43 133 37.73 131.32"/><polygon class="cls-75" points="34.43 133 33.91 140.73 37.31 139.05 37.73 131.32 34.43 133"/></g></g></svg>