<svg xmlns="http://www.w3.org/2000/svg" xmlns:xlink="http://www.w3.org/1999/xlink" viewBox="0 0 150 150"><defs><style>.cls-1{fill:none;stroke:#608d96;stroke-miterlimit:10;stroke-width:0.5px;}.cls-2{fill:#608d96;}.cls-3,.cls-4{fill:#5891cc;}.cls-10,.cls-100,.cls-101,.cls-102,.cls-103,.cls-104,.cls-105,.cls-106,.cls-107,.cls-108,.cls-109,.cls-11,.cls-110,.cls-111,.cls-112,.cls-113,.cls-12,.cls-13,.cls-14,.cls-15,.cls-16,.cls-17,.cls-18,.cls-19,.cls-20,.cls-21,.cls-22,.cls-23,.cls-24,.cls-25,.cls-26,.cls-27,.cls-28,.cls-29,.cls-30,.cls-31,.cls-4,.cls-61,.cls-62,.cls-63,.cls-64,.cls-65,.cls-66,.cls-87,.cls-88,.cls-89,.cls-90,.cls-91,.cls-92,.cls-93,.cls-94,.cls-95,.cls-96,.cls-97,.cls-99{fill-rule:evenodd;}.cls-5{fill:url(#linear-gradient);}.cls-6{fill:#3c6cab;}.cls-7{fill:#21456e;}.cls-8,.cls-95{fill:#81c9e4;}.cls-9{fill:#44769c;}.cls-10{fill:url(#linear-gradient-2);}.cls-11,.cls-39{fill:#d0dfe9;}.cls-12{fill:url(#linear-gradient-3);}.cls-13{fill:url(#linear-gradient-4);}.cls-14{fill:url(#linear-gradient-5);}.cls-15{fill:url(#linear-gradient-6);}.cls-16{fill:url(#linear-gradient-7);}.cls-17{fill:url(#linear-gradient-8);}.cls-18{fill:url(#linear-gradient-9);}.cls-19{fill:url(#linear-gradient-10);}.cls-20{fill:url(#linear-gradient-11);}.cls-21{fill:url(#linear-gradient-12);}.cls-22{fill:url(#linear-gradient-13);}.cls-23{fill:url(#linear-gradient-14);}.cls-24{fill:url(#linear-gradient-15);}.cls-25{fill:url(#linear-gradient-16);}.cls-26{fill:url(#linear-gradient-17);}.cls-27{fill:url(#linear-gradient-18);}.cls-28{fill:url(#linear-gradient-19);}.cls-29{fill:url(#linear-gradient-20);}.cls-30{fill:url(#linear-gradient-21);}.cls-31{fill:url(#linear-gradient-22);}.cls-32{fill:#bacddf;}.cls-33{fill:#a6bbcd;}.cls-34,.cls-93{fill:#fff;}.cls-35{fill:#f3f5fa;}.cls-36{fill:#5cbfd8;}.cls-37,.cls-92{fill:#0098cc;}.cls-38,.cls-96{fill:#f26c21;}.cls-40{fill:#f2a983;}.cls-41{fill:#11191b;}.cls-42{fill:#e7eff9;}.cls-102,.cls-43{fill:#57738b;}.cls-44{fill:#d4e6f7;}.cls-45{opacity:0.7;}.cls-46{fill:#d25827;}.cls-47{fill:#c55027;}.cls-48{fill:#dd8732;}.cls-49{fill:#240d0b;}.cls-50{fill:url(#linear-gradient-23);}.cls-51{fill:url(#linear-gradient-24);}.cls-52{fill:url(#linear-gradient-25);}.cls-53{fill:#1a6184;}.cls-54{fill:url(#linear-gradient-26);}.cls-55{fill:url(#linear-gradient-27);}.cls-56{fill:#c8d4ec;}.cls-57{fill:url(#linear-gradient-28);}.cls-58{fill:#c1cbe7;}.cls-59,.cls-98{opacity:0.2;}.cls-60{fill:url(#linear-gradient-29);}.cls-61{fill:#4b464f;}.cls-62{fill:#58515b;}.cls-63{fill:#615964;}.cls-64{fill:#685f6c;}.cls-65{fill:#383239;}.cls-66{fill:#f4d1c4;}.cls-67{fill:#c0bebe;}.cls-68{fill:#4dc2c2;}.cls-69{fill:#00a29b;}.cls-70{fill:#9db5cb;}.cls-71{fill:#f7f9fd;}.cls-72{fill:#45b0e4;}.cls-73{fill:#1eb1e7;}.cls-74{fill:#b5ccde;}.cls-75{fill:#528aaf;}.cls-76{fill:#5dbfd8;}.cls-77{fill:#e6e7e7;}.cls-78{fill:#f36d24;}.cls-79{fill:#0598cd;}.cls-80{fill:#04263f;}.cls-81{fill:#4e83b5;}.cls-82{fill:#e7c1af;}.cls-83{fill:#184c6e;}.cls-84{fill:#d8b3a3;}.cls-110,.cls-85{fill:#6d3f26;}.cls-111,.cls-86{fill:#5b2f1a;}.cls-87{fill:#f6d8cf;}.cls-88{fill:#0d0d0e;}.cls-89{fill:#404041;}.cls-90{fill:#d0d2d3;}.cls-91{fill:#a6a8ab;}.cls-94{fill:#0a7a98;}.cls-97{fill:#808184;}.cls-98{fill:#044ea0;}.cls-119,.cls-98{isolation:isolate;}.cls-99{fill:#fac0af;}.cls-100{fill:#e7a376;}.cls-101{fill:#e99b91;}.cls-103{fill:#3d5566;}.cls-104{fill:#121415;}.cls-106{fill:#20232e;}.cls-107{fill:#425d71;}.cls-108{fill:#4b6375;}.cls-109{fill:#da9569;}.cls-112{fill:#4a6a7d;}.cls-113{fill:#e8f6fd;}.cls-114{fill:#f8b093;}.cls-115{fill:#3c5260;}.cls-116{fill:#1f92bc;}.cls-117{fill:#117a93;}.cls-118{fill:#148cad;}.cls-119{fill:#237fbb;opacity:0.5;}.cls-120{fill:#722914;}</style><linearGradient id="linear-gradient" x1="-4489.21" y1="-3182.57" x2="-4503.33" y2="-3210.54" gradientTransform="matrix(-0.99, -0.16, 0.19, -0.98, -3790.1, -3736.07)" gradientUnits="userSpaceOnUse"><stop offset="0.04" stop-color="#fff"/><stop offset="0.25" stop-color="#f3f2f8"/><stop offset="0.59" stop-color="#e5e2f1"/><stop offset="0.86" stop-color="#e0ddee"/></linearGradient><linearGradient id="linear-gradient-2" x1="-3856.68" y1="-3498.96" x2="-3895.15" y2="-3450.62" gradientTransform="translate(-3799.01 -3439.46) rotate(-179.43)" gradientUnits="userSpaceOnUse"><stop offset="0" stop-color="#3f7dbf"/><stop offset="1" stop-color="#263a80"/></linearGradient><linearGradient id="linear-gradient-3" x1="-3860.19" y1="-3502.53" x2="-3898.86" y2="-3453.96" xlink:href="#linear-gradient-2"/><linearGradient id="linear-gradient-4" x1="-3861.5" y1="-3503.22" x2="-3899.94" y2="-3454.92" xlink:href="#linear-gradient-2"/><linearGradient id="linear-gradient-5" x1="-3866.26" y1="-3507.24" x2="-3904.67" y2="-3458.99" xlink:href="#linear-gradient-2"/><linearGradient id="linear-gradient-6" x1="-3871.8" y1="-3512.7" x2="-3910.46" y2="-3464.13" xlink:href="#linear-gradient-2"/><linearGradient id="linear-gradient-7" x1="-3873.5" y1="-3513.71" x2="-3911.83" y2="-3465.55" xlink:href="#linear-gradient-2"/><linearGradient id="linear-gradient-8" x1="-3893.27" y1="-3457.47" x2="-3893.27" y2="-3501.5" gradientTransform="translate(-3799.01 -3439.46) rotate(-179.43)" gradientUnits="userSpaceOnUse"><stop offset="0" stop-color="#70c6ab"/><stop offset="1" stop-color="#1face3"/></linearGradient><linearGradient id="linear-gradient-9" x1="-3877.83" y1="-3517.51" x2="-3916.21" y2="-3469.29" xlink:href="#linear-gradient-2"/><linearGradient id="linear-gradient-10" x1="-3897.36" y1="-3457.46" x2="-3897.36" y2="-3501.5" xlink:href="#linear-gradient-8"/><linearGradient id="linear-gradient-11" x1="-3845.89" y1="-3487.9" x2="-3884.33" y2="-3439.59" xlink:href="#linear-gradient-2"/><linearGradient id="linear-gradient-12" x1="-3849.28" y1="-3491.1" x2="-3887.93" y2="-3442.53" xlink:href="#linear-gradient-2"/><linearGradient id="linear-gradient-13" x1="-3853.68" y1="-3494.82" x2="-3892.06" y2="-3446.59" xlink:href="#linear-gradient-2"/><linearGradient id="linear-gradient-14" x1="-3857.92" y1="-3456.14" x2="-3857.92" y2="-3500.17" xlink:href="#linear-gradient-8"/><linearGradient id="linear-gradient-15" x1="-3858.69" y1="-3456.15" x2="-3858.69" y2="-3500.17" xlink:href="#linear-gradient-8"/><linearGradient id="linear-gradient-16" x1="-3861.64" y1="-3501.9" x2="-3900.3" y2="-3453.33" xlink:href="#linear-gradient-2"/><linearGradient id="linear-gradient-17" x1="-3863.3" y1="-3503.36" x2="-3901.62" y2="-3455.21" xlink:href="#linear-gradient-2"/><linearGradient id="linear-gradient-18" x1="-3867.66" y1="-3456.15" x2="-3867.66" y2="-3500.19" xlink:href="#linear-gradient-8"/><linearGradient id="linear-gradient-19" x1="-3861.8" y1="-3456.15" x2="-3861.8" y2="-3500.19" xlink:href="#linear-gradient-8"/><linearGradient id="linear-gradient-20" x1="-3856.95" y1="-3456.14" x2="-3856.95" y2="-3500.18" xlink:href="#linear-gradient-8"/><linearGradient id="linear-gradient-21" x1="-3867.5" y1="-3506.99" x2="-3905.88" y2="-3458.76" xlink:href="#linear-gradient-2"/><linearGradient id="linear-gradient-22" x1="-3860.98" y1="-3456.14" x2="-3860.98" y2="-3500.18" xlink:href="#linear-gradient-8"/><linearGradient id="linear-gradient-23" x1="570.94" y1="-3350.33" x2="466.92" y2="-3482.86" gradientTransform="matrix(1, 0.03, 0.03, -1, -337.02, -3378.15)" gradientUnits="userSpaceOnUse"><stop offset="0" stop-color="#50c6df"/><stop offset="0.31" stop-color="#4197c7"/><stop offset="0.61" stop-color="#3570b2"/><stop offset="0.85" stop-color="#2d57a6"/><stop offset="1" stop-color="#2a4ea1"/></linearGradient><linearGradient id="linear-gradient-24" x1="-4195.71" y1="-3482.32" x2="-4186.39" y2="-3474.95" gradientTransform="matrix(-1, -0.03, 0.03, -1, -4040.22, -3488.4)" gradientUnits="userSpaceOnUse"><stop offset="0" stop-color="#fff"/><stop offset="0.2" stop-color="#d1d1d1"/><stop offset="0.65" stop-color="#5d5d5d"/><stop offset="1"/></linearGradient><linearGradient id="linear-gradient-25" x1="-4195.71" y1="-3482.32" x2="-4186.39" y2="-3474.95" gradientTransform="matrix(-1, -0.03, 0.03, -1, -4040.22, -3488.4)" gradientUnits="userSpaceOnUse"><stop offset="0" stop-color="#9aaad7"/><stop offset="0.48" stop-color="#c8d1e9"/><stop offset="1" stop-color="#fff"/></linearGradient><linearGradient id="linear-gradient-26" x1="487.88" y1="-3446.86" x2="474.38" y2="-3464.05" xlink:href="#linear-gradient-23"/><linearGradient id="linear-gradient-27" x1="-4191.4" y1="-3449.1" x2="-4194.38" y2="-3455.45" gradientTransform="matrix(-1, -0.03, 0.03, -1, -4040.22, -3488.4)" gradientUnits="userSpaceOnUse"><stop offset="0" stop-color="#685fa9"/><stop offset="1" stop-color="#452d76"/></linearGradient><linearGradient id="linear-gradient-28" x1="-4219.44" y1="-3485.45" x2="-4221.25" y2="-3491.23" gradientTransform="matrix(-1, -0.03, 0.03, -1, -4040.22, -3488.4)" gradientUnits="userSpaceOnUse"><stop offset="0" stop-color="#9aaad7"/><stop offset="1" stop-color="#e7ebf6"/></linearGradient><linearGradient id="linear-gradient-29" x1="82.53" y1="1851.31" x2="94" y2="1851.31" gradientTransform="translate(0 -1745.89)" xlink:href="#linear-gradient"/></defs><g id="Migration_Strategy_for_On_Premise_to_Cloud" data-name="Migration Strategy for On Premise to Cloud"><g id="CLOUD-ADOPTION"><g id="CLOUD-ADOPTION-2"><line class="cls-1" x1="87.3" y1="96.92" x2="100" y2="105.02"/><ellipse class="cls-2" cx="100" cy="105.32" rx="2.4" ry="2.2"/><polyline class="cls-1" points="68 125.02 75.1 129.62 82.9 123.52 94 130.42"/><ellipse class="cls-2" cx="94" cy="130.53" rx="2.4" ry="2.2" transform="translate(-11.21 8.85) rotate(-5.09)"/><line class="cls-1" x1="72.7" y1="127.82" x2="60.5" y2="135.32"/><ellipse class="cls-2" cx="61.3" cy="135.52" rx="2.4" ry="2.2"/><ellipse class="cls-3" cx="123.2" cy="103.12" rx="2.4" ry="2.2"/><polygon class="cls-4" points="132.8 86.82 132.5 87.62 133.2 87.92 133.6 87.32 132.8 86.82"/><polygon class="cls-4" points="131.5 86.22 131.3 86.82 132.1 87.22 132.3 86.62 131.5 86.22"/><polygon class="cls-4" points="130.2 85.52 129.9 86.12 130.7 86.52 131 86.02 130.2 85.52"/><polygon class="cls-4" points="136.6 89.02 136.4 89.62 137 90.02 137.3 89.52 136.6 89.02"/><polygon class="cls-4" points="135.3 88.42 135.1 88.92 135.8 89.32 136 88.82 135.3 88.42"/><polygon class="cls-4" points="134 87.72 133.8 88.32 134.5 88.72 134.6 88.12 134 87.72"/><polygon class="cls-4" points="134.2 97.72 133.9 97.12 133 97.52 133.4 98.12 134.2 97.72"/><polygon class="cls-4" points="135.8 96.92 135.4 96.12 134.6 96.72 134.8 97.22 135.8 96.92"/><polygon class="cls-4" points="137.3 95.92 137 95.42 136.1 95.92 136.4 96.52 137.3 95.92"/><polygon class="cls-4" points="129.7 100.12 129.4 99.52 128.6 100.12 128.7 100.62 129.7 100.12"/><polygon class="cls-4" points="131 99.32 130.9 98.72 130.1 99.22 130.3 99.82 131 99.32"/><polygon class="cls-4" points="132.6 98.52 132.3 98.02 131.6 98.32 131.8 99.12 132.6 98.52"/><polygon class="cls-4" points="125.1 102.72 124.8 102.12 124 102.62 124.3 103.12 125.1 102.72"/><polygon class="cls-4" points="126.6 101.92 126.4 101.42 125.5 101.72 125.7 102.22 126.6 101.92"/><polygon class="cls-4" points="128.1 101.02 127.9 100.42 127 100.92 127.3 101.52 128.1 101.02"/><polygon class="cls-4" points="138.3 90.02 138.1 90.62 139.7 91.52 139.9 91.02 138.3 90.02"/><polygon class="cls-4" points="143.2 92.62 141.3 91.62 141.1 92.22 141.8 92.62 141.8 92.62 141.8 92.62 141.8 92.62 141.8 92.62 141.8 92.62 141.8 92.72 141.8 92.72 141.8 92.72 141.6 92.82 141.2 93.12 141.6 93.62 142.3 93.22 142.8 92.82 142.9 92.72 143.1 92.72 143.1 92.72 143.1 92.62 143.1 92.62 143.1 92.62 143.1 92.62 143.1 92.62 143.2 92.62"/><polygon class="cls-4" points="140.1 94.42 139.8 93.82 138.1 94.82 138.3 95.42 140.1 94.42"/><path class="cls-5" d="M24.2,140.12l-9.4-6.8c-4.3-3.1-4.2-10.2.3-13l59.2-38.4a6.78,6.78,0,0,1,8.1.6l8.5,7.7c3.8,3.4,3.4,10.1-1,12.7l-58.2,37.5A6.15,6.15,0,0,1,24.2,140.12Z"/><path class="cls-6" d="M69.9,98.72l-13.5-8.4a1.27,1.27,0,0,0-1.8,0l-31.9,20.1a1,1,0,0,0-.3,1.4h0c.1.1.1.2.2.2l13,8.2a2,2,0,0,0,2.3,0l31.7-20.1a1,1,0,0,0,.3-1.4Z"/><path class="cls-7" d="M69.9,100.22l-31.7,20.1a2,2,0,0,1-2.3,0l-13.1-8.2a1.08,1.08,0,0,1-.3-.7v1.8h0a4.88,4.88,0,0,0,.3.7l13,8.2a2,2,0,0,0,2.3,0L69.8,102a.86.86,0,0,0,.3-.6h0v-1.9C70.2,99.82,70,99.92,69.9,100.22Z"/><path class="cls-7" d="M69.9,100.22l-31.7,20.1c-.3.2-.7.3-1,.5v1.9a1.23,1.23,0,0,0,1-.5l31.7-20.1a.86.86,0,0,0,.3-.6h0v-1.8C70.2,99.82,70,99.92,69.9,100.22Z"/><polygon class="cls-8" points="85.3 20.92 10.2 68.52 10.2 128.82 85.3 81.22 85.3 20.92"/><polygon class="cls-3" points="10.2 68.52 7.7 66.82 7.7 127.32 10.2 128.82 10.2 68.52"/><polygon class="cls-3" points="85.3 20.92 82.6 19.32 7.7 66.82 10.2 68.52 85.3 20.92"/><path class="cls-9" d="M10.2,68.52v60.4l75.1-47.8V20.92Zm1.6,1.2,71.6-45.4V80l-71.6,45.4Z"/><polygon class="cls-10" points="71.4 40.42 65.7 44.02 65.7 42.82 71.4 39.22 71.4 40.42"/><polygon class="cls-11" points="63.6 45.22 56.1 50.02 56.1 48.82 63.6 44.02 63.6 45.22"/><polygon class="cls-11" points="74.8 41.62 67.6 46.02 67.6 44.82 74.8 40.42 74.8 41.62"/><polygon class="cls-11" points="66 47.02 62.3 49.32 62.3 48.12 66 45.82 66 47.02"/><polygon class="cls-11" points="72.3 45.82 64.2 51.02 64.2 49.82 72.3 44.62 72.3 45.82"/><polygon class="cls-11" points="62.9 51.92 60.5 53.22 60.5 52.02 63.1 50.72 62.9 51.92"/><polygon class="cls-11" points="74.6 47.62 69.1 51.02 69.1 49.82 74.8 46.42 74.6 47.62"/><polygon class="cls-12" points="67.9 51.72 65.2 53.42 65.2 52.22 67.9 50.52 67.9 51.72"/><polygon class="cls-11" points="63.7 54.32 60.2 56.52 60.2 55.32 63.7 53.12 63.7 54.32"/><polygon class="cls-13" points="68.7 54.12 62.3 58.22 62.3 57.02 68.7 53.12 68.7 54.12"/><polygon class="cls-14" points="75.9 55.52 68.3 60.12 68.3 59.12 75.9 54.32 75.9 55.52"/><polygon class="cls-11" points="74.6 53.22 67.3 57.92 67.3 56.72 74.6 52.22 74.6 53.22"/><polygon class="cls-11" points="71.2 65.32 65.7 68.72 65.7 67.52 71.2 64.12 71.2 65.32"/><polygon class="cls-11" points="73.8 66.52 64.2 72.52 64.2 71.32 73.8 65.32 73.8 66.52"/><polygon class="cls-15" points="67.9 76.12 65.2 77.92 65.2 76.72 67.9 74.92 67.9 76.12"/><polygon class="cls-16" points="73 76.72 58 86.12 58 84.92 73 75.52 73 76.72"/><polygon class="cls-11" points="73 79.52 67.6 82.92 67.6 81.72 73 78.32 73 79.52"/><polygon class="cls-11" points="66.3 83.72 62.9 86.02 62.9 84.82 66.3 82.72 66.3 83.72"/><polygon class="cls-17" points="61.1 87.92 58 89.92 58 88.72 61.1 86.82 61.1 87.92"/><polygon class="cls-18" points="75.7 80.82 66 86.82 66.3 85.52 75.7 79.52 75.7 80.82"/><polygon class="cls-19" points="64.9 87.52 62.4 88.92 62.4 87.72 64.9 86.32 64.9 87.52"/><polygon class="cls-20" points="32.8 63.72 27.1 67.12 27.1 65.92 32.8 62.52 32.8 63.72"/><polygon class="cls-11" points="21.3 69.52 25 67.32 25 68.52 21.3 70.72 21.3 69.52"/><polygon class="cls-11" points="34.3 64.72 34.3 65.92 27.9 69.92 27.9 68.72 34.3 64.72"/><polygon class="cls-11" points="26.6 70.72 22.7 73.12 22.7 71.92 26.6 69.52 26.6 70.72"/><polygon class="cls-11" points="32.8 69.72 24.7 74.72 24.7 73.52 32.8 68.52 32.8 69.72"/><polygon class="cls-11" points="23.4 75.52 20.9 77.12 20.9 75.92 23.4 74.32 23.4 75.52"/><polygon class="cls-11" points="33.6 71.12 33.6 72.32 29.6 74.72 29.6 73.52 33.6 71.12"/><polygon class="cls-21" points="28.4 75.52 25.6 77.32 25.6 76.12 28.4 74.32 28.4 75.52"/><polygon class="cls-11" points="24.3 78.12 20.7 80.32 20.7 79.12 24.3 76.92 24.3 78.12"/><polygon class="cls-11" points="30.2 77.32 23.5 81.32 23.7 80.12 30.2 76.12 30.2 77.32"/><polygon class="cls-22" points="31.8 81.92 24.2 86.82 24.2 85.52 31.8 80.92 31.8 81.92"/><polygon class="cls-11" points="30.5 80.02 23.4 84.32 23.4 83.32 30.5 78.82 30.5 80.02"/><polygon class="cls-23" points="26.9 91.82 21.4 95.12 21.4 94.22 26.9 90.82 26.9 91.82"/><polygon class="cls-24" points="29.6 93.02 20.1 99.02 20.1 97.82 29.7 92.02 29.6 93.02"/><polygon class="cls-25" points="31.3 98.02 28.4 99.82 28.4 98.62 31.3 96.82 31.3 98.02"/><polygon class="cls-26" points="36.6 98.72 21.4 108.22 21.4 107.02 36.6 97.52 36.6 98.72"/><polygon class="cls-27" points="36.6 101.42 31 104.82 31 103.82 36.6 100.22 36.6 101.42"/><polygon class="cls-28" points="29.6 105.82 26.2 107.82 26.2 106.62 29.6 104.62 29.6 105.82"/><polygon class="cls-29" points="24.7 110.02 21.3 112.02 21.4 110.82 24.7 108.82 24.7 110.02"/><polygon class="cls-30" points="39.2 102.62 29.6 108.62 29.6 107.42 39.2 101.42 39.2 102.62"/><polygon class="cls-31" points="28.3 109.42 25.8 111.02 25.8 109.82 28.3 108.22 28.3 109.42"/><polygon class="cls-32" points="28.4 27.02 8.2 39.62 8.2 65.72 28.4 53.02 28.4 27.02"/><polygon class="cls-33" points="8.2 39.62 6.8 38.62 6.8 64.72 8.2 65.72 8.2 39.62"/><polygon class="cls-34" points="28.4 27.02 26.7 26.02 6.8 38.62 8.2 39.62 28.4 27.02"/><polygon class="cls-35" points="26.7 30.22 9.9 40.72 9.9 62.52 26.7 51.82 26.7 30.22"/><polygon class="cls-36" points="14 51.82 14 57.62 11 59.72 11 53.62 14 51.82"/><polygon class="cls-36" points="27 49.42 27 50.12 26 50.62 26 50.12 27 49.42"/><polygon class="cls-32" points="27 47.22 27 47.92 26 48.42 26 47.92 27 47.22"/><polygon class="cls-32" points="27 45.02 27 45.62 26 46.22 26 45.62 27 45.02"/><polygon class="cls-32" points="27 42.82 27 43.42 26 44.02 26 43.42 27 42.82"/><polygon class="cls-32" points="27 40.72 27 41.22 26 41.92 26 41.22 27 40.72"/><polygon class="cls-32" points="27 38.42 27 39.02 26 39.62 26 39.02 27 38.42"/><polygon class="cls-32" points="27 36.22 27 36.82 26 37.42 26 36.82 27 36.22"/><polygon class="cls-32" points="27 34.02 27 34.52 26 35.22 26 34.52 27 34.02"/><polygon class="cls-37" points="21.6 42.42 21.6 53.22 18.7 55.32 18.7 44.32 21.6 42.42"/><polygon class="cls-38" points="17.9 46.22 17.9 55.62 14.8 57.52 14.8 48.22 17.9 46.22"/><polygon class="cls-38" points="25.1 36.12 25.1 51.12 22 53.02 22 37.92 25.1 36.12"/><path class="cls-39" d="M60.86,12.9l5.14,3a2.23,2.23,0,0,0-2.74.23l-5-3.09A2.22,2.22,0,0,1,60.86,12.9Z"/><path class="cls-40" d="M58.81,13.93v-.57l.34-.23v.23c0,.22.23,0,.23,0h.23v.22h.23c-.23.23-.35.23-.35.23-.23,0-.23.23-.34.23h-.23v-.23Z"/><path class="cls-41" d="M58.81,13.93c.23,0,.68,0,.68-.57h.23v.22h-.46c-.11.12-.11.35-.45.35Z"/><path class="cls-39" d="M57,11.53l5.14,3h-.23a2.93,2.93,0,0,0-2.74.68c-.23.23-.69.57-.8.69l-5.14-3a5,5,0,0,1,.91-.69,3.36,3.36,0,0,1,2.74-.68Z"/><path class="cls-42" d="M51.38,12.56c3.54-2.18,6.51-.8,6.86,3,.22-.23.68-.57.8-.69a3.45,3.45,0,0,1,2.74-.68,2.91,2.91,0,0,1,1.48,1.59c2.06-1.14,4.12,0,4.12,3,0,3.31-1.72,7.08-4.35,8.79L44.41,40.09c-3.31,2.29-6,.69-6-3.43A14.69,14.69,0,0,1,44,25.12a7.87,7.87,0,0,1,.92-.57C45.21,20.21,48,14.84,51.38,12.56Z"/><path class="cls-43" d="M66.23,19.07c0,2.51-1.48,6.05-3.54,7.42L44,39.06a3.25,3.25,0,0,1-2.05.8,1.9,1.9,0,0,1-1.15-.23,3.78,3.78,0,0,1-.91-2.85,12.9,12.9,0,0,1,4.91-10.17c.23-.23.35-.23.69-.57l.68-.57v-.8c.23-4.12,2.75-9,6-11a5.66,5.66,0,0,1,2.28-.92h0c1.71,0,2.06,2,2.4,3l.34,1.6.23,1.15,2.06-1.95c.23-.22.34-.57.68-.57a3.75,3.75,0,0,1,1.15-.57h.68c.23,0,.34.23.69.69l.23.68.22.69,1.26-.69a.56.56,0,0,1,.69-.23h.34C66.23,17,66.23,18.38,66.23,19.07Z"/><path class="cls-37" d="M64.63,17c-.22,0-.34.23-.68.23l-1.26.69-.23-.69-.23-.69c-.22-.57-.34-.68-.68-.68h-.69a2.17,2.17,0,0,0-1.14.57c-.23.23-.34.23-.68.57l-1.95,1.72-.34-1.15L56.52,16c-.23-1.14-.68-3-2.4-3h0a4.88,4.88,0,0,0-2.4.92,16.46,16.46,0,0,0-5.94,11v.91l-.68.57c-.23,0-.35.23-.69.57A13.08,13.08,0,0,0,39.5,37.12a3.53,3.53,0,0,0,1.14,2.74,5.53,5.53,0,0,0,1.94-.68L61.43,26.61a10.32,10.32,0,0,0,3.66-7.43A3.23,3.23,0,0,0,64.63,17Z"/><path class="cls-44" d="M51,8.9c-1.26-.69-3-.69-4.92.69-3.42,2.28-6.28,7.65-6.51,12.11l5.14,3c.23-4.69,3-9.83,6.52-12.11a4.7,4.7,0,0,1,5-.69Z"/><path class="cls-44" d="M40.18,40.78l-5.14-3c-1.14-.69-1.71-2.06-1.94-4.12a14.7,14.7,0,0,1,5.6-11.54,6.57,6.57,0,0,1,.91-.57l5.14,3c-.22.23-.57.35-.8.57a14.18,14.18,0,0,0-5.59,11.54C38.47,38.72,39.16,40.32,40.18,40.78Z"/><g class="cls-45"><path class="cls-34" d="M49.67,25.92h0c-.35,0-.57-.23-.35-.57A9.47,9.47,0,0,1,52,20.44c1.72-1.94,3.66-1.94,4.57-.23.23.23,0,.8-.23.91s-.68.58-.68.23c-.69-1.14-2.06-1.14-3.32.23a9.08,9.08,0,0,0-1.94,3.54Z"/><polygon class="cls-34" points="48.64 25.47 49.9 27.41 51.04 23.87 48.64 25.47"/><path class="cls-34" d="M53.21,29.81c-1.26.91-2.74.91-3.43-.46-.23-.23,0-.68.23-.8s.68-.57.68-.23c.69,1.15,2,.8,3.32-.23a8.57,8.57,0,0,0,1.83-3.65.83.83,0,0,1,.68-.8c.23,0,.34.23.34.8a9.37,9.37,0,0,1-2.62,5A1,1,0,0,0,53.21,29.81Z"/><polygon class="cls-34" points="57.32 23.87 56.18 21.81 54.69 25.47 57.32 23.87"/></g><path class="cls-46" d="M57.3,51.72h0l-2.1-1.4H55l-.8.7s-3.8,3.2-7.7,2.4h-.2a2.73,2.73,0,0,0-1.3.7h0c0,.2-.2.2-.2.5-4,5.6-7.6,7-7.7,7l-.7.1c-.2,0-.6.5-.6.8v1c.2,12,3.4,16.8,6,18.7h0l2.4,1.7.2-.6h.9c.3-.1.6-.2.7-.5h0c.3-.4,7.6-8.9,9.3-25.9l1.1-2.6Z"/><path class="cls-47" d="M44.1,84.22l-2.6-1.8c-2.6-1.8-5.9-6.7-6-18.9v-1a1.39,1.39,0,0,1,.5-1l.7-.2c.2,0,3.8-1.4,7.7-7,0-.2.2-.2.2-.5a1.71,1.71,0,0,1,1.3-.7h.3c4,.8,7.6-2.2,7.8-2.4l.8-.7c.2-.2.3-.2.6,0l2.1,1.4s.2.2,0,.2h0l-1.1,2.9-1.1,2.6C53.8,74.22,46.4,82.82,46,83a1.25,1.25,0,0,1-1.1.6h-.7Zm2.1-30.5h0a1.44,1.44,0,0,0-1.1.7.76.76,0,0,0-.2.5,24.41,24.41,0,0,1-8,7l-.7.2c-.2,0-.3.5-.3.6v1c.2,12,3.4,16.6,5.9,18.5l2.3,1.4.2-.5h.9c.2,0,.3-.2.8-.5.3-.5,7.6-8.9,9.3-25.9h0l1.1-2.6,1.1-2.9L55.7,50h-.2l-.8.7c-.6.6-4.4,3.8-8.5,3Z"/><path class="cls-48" d="M55.3,50.32H55l-.8.7s-3.8,3.2-7.7,2.4h-.2a2.73,2.73,0,0,0-1.3.7h0c0,.2-.2.2-.2.5-4,5.6-7.6,7-7.7,7l-.7.1c-.2,0-.2.2-.3.5l6,3.6L55,60a15.26,15.26,0,0,0,.3-3l1.1-2.6,1.1-2.9h0Z"/><path class="cls-48" d="M41.8,66.22l-6.5-3.8v-.2c.2-.2.2-.5.5-.5l.8-.2c.2,0,3.8-1.4,7.8-7,0-.2.2-.2.2-.5a1.75,1.75,0,0,1,1.4-.7h.3c4,.7,7.6-2.2,7.8-2.4l.7-.7c.2-.2.3-.2.5,0l2,1.4s.2.2,0,.2l-1.1,2.9-1.1,2.6a15.26,15.26,0,0,0-.3,3h0ZM36,62.12l5.9,3.6,12.9-5.5a15.26,15.26,0,0,0,.3-3h0l1-2.6,1.1-2.9-1.8-1.2h-.2l-.8.6c-.2.2-3.8,3.2-8,2.6h-.2a1.17,1.17,0,0,0-1.1.8.76.76,0,0,0-.2.5,26.83,26.83,0,0,1-8.1,6.9Z"/><path class="cls-38" d="M47.8,84.42a1.79,1.79,0,0,1-.7.5h0c-.3,0-9.3.6-9.4-19.9v-1.1c0-.5.2-.8.6-.8l.6-.2c.2,0,4-1.4,7.8-7,0-.2.2-.2.2-.5h0a1.71,1.71,0,0,1,1.3-.7h.2c4.1.7,7.8-2.4,7.8-2.4l.7-.6c.2-.2.6-.2.6.2V53c-.3,20.7-9.2,31-9.7,31.4Zm-8.1-18.9c.6,13.2,5.2,16.3,7.2,16.6.3,0,1-.6,1.3-1,2.1-3.1,6.5-11.3,7.3-25.3,0-.2-.2-.5-.3-.2a14.21,14.21,0,0,1-7.2,2c-.2,0-.3.2-.6.5a25.94,25.94,0,0,1-7.2,6.8c-.2,0-.4.3-.5.6Z"/><path class="cls-38" d="M47,84.92A6.81,6.81,0,0,1,42.7,83c-2.3-2.2-4.9-7-5.2-18v-1.1a1.33,1.33,0,0,1,.6-1h.7c.2,0,3.8-1.4,7.8-7,0-.2.2-.2.2-.5a1.71,1.71,0,0,1,1.3-.7h.3c4,.7,7.6-2.2,7.8-2.4l.8-.6a.48.48,0,0,1,.6-.2c.2,0,.2.2.2.5v1.1c-.3,20.9-9.3,31.2-9.6,31.5h0c-.2.4-.6.4-1,.6C47.1,84.92,47.1,84.92,47,84.92Zm1.3-29.8h0a1.44,1.44,0,0,0-1.1.7.76.76,0,0,0-.2.5c-4,5.5-7.7,7-8,7l-.8.2c-.2,0-.3.5-.3.6v1c.2,10.8,2.9,15.6,4.9,17.7a5.46,5.46,0,0,0,4.3,1.8c.2,0,.3-.2.8-.5h0c.3-.5,9.3-10.6,9.4-31.3v-1.4h-.2l-.7.7a9.48,9.48,0,0,1-8.1,3ZM47,82.32h0c-1.8-.5-6.5-2.6-7.3-16.8h0c0-.5.2-.7.3-.7A25.94,25.94,0,0,0,47.2,58a.63.63,0,0,1,.8-.4,9.74,9.74,0,0,0,7-1.9c.2,0,.3-.2.3,0,.2,0,.2.2.2.5-.5,14-5.3,22.3-7.3,25.1A2,2,0,0,1,47,82.32Zm-7-16.8c.6,13.9,5.5,16.3,7,16.5a2.39,2.39,0,0,0,1.1-1c1.8-2.9,6.5-11,7.2-25v-.2h0c-1.7,1-4.3,2.4-7.2,1.9-.2,0-.3,0-.6.5A24.56,24.56,0,0,1,40.3,65c-.4.1-.4.3-.3.5Z"/><path class="cls-37" d="M55,55.62a14.21,14.21,0,0,1-7.2,2c-.2,0-.3.2-.6.5a25.94,25.94,0,0,1-7.2,6.8,1.08,1.08,0,0,0-.3.7c.6,13.2,5.2,16.3,7.2,16.6.3,0,1-.6,1.3-1,2.1-3,6.6-11.2,7.3-25.2C55.5,55.62,55.3,55.62,55,55.62Z"/><path class="cls-47" d="M55,55.62a3.33,3.33,0,0,1-1,.6c-.8,13.7-5.3,21.7-7.2,24.7a2.41,2.41,0,0,1-1,1,3.13,3.13,0,0,0,1,.5c.3,0,1-.6,1.3-1,2.1-3,6.5-11.2,7.3-25.3C55.5,55.62,55.3,55.62,55,55.62Z"/><path class="cls-47" d="M47,82.32h0a2.22,2.22,0,0,1-1.1-.5l-.5-.1.3-.2a8.74,8.74,0,0,0,1-.8c1.9-2.8,6.5-10.8,7.2-24.5V56h0a3.59,3.59,0,0,0,1-.7h0c.2,0,.3-.2.3,0,.2,0,.2.2.2.5-.6,14.2-5.3,22.5-7.4,25.3A1.39,1.39,0,0,1,47,82.32Zm-.8-.6c.2,0,.3.2.7.2a2.39,2.39,0,0,0,1.1-1c1.8-2.9,6.5-11,7.2-25v-.2h0a3.33,3.33,0,0,1-1,.6C53.5,70.22,49,78.22,47,81A2.7,2.7,0,0,1,46.2,81.72Z"/><path class="cls-47" d="M47,82.32h0c-1.8-.5-6.5-2.6-7.3-16.8,0-.5.2-.7.3-.7A25.94,25.94,0,0,0,47.2,58a.63.63,0,0,1,.8-.4,9.74,9.74,0,0,0,7-1.9h0c.2,0,.3-.2.3,0,.2,0,.2.2.2.5-.5,14-5.3,22.3-7.3,25.1A2,2,0,0,1,47,82.32Zm.8-24.5c-.2,0-.3,0-.3.5a25.94,25.94,0,0,1-7.2,6.8c-.2,0-.3.5-.3.7.6,13.9,5.5,16.3,7,16.5.2,0,.7-.5,1.1-1,1.8-2.9,6.5-11,7.2-25v-.2h0c-2,.7-4.6,2.2-7.5,1.7Z"/><path class="cls-48" d="M43.6,68.32a1.14,1.14,0,0,1,.3-.8l4.7-2.9h.2a2.53,2.53,0,0,1,1.8,1l-1.5,3v.2a4.11,4.11,0,0,1-1.3,2.9l-.3.2-1.3,2.6c-.8-.2-1.7-.7-1.8-1.2l-.4-.1h0a1.16,1.16,0,0,1-.2-1v-3.8h-.2Z"/><path class="cls-48" d="M46,74.92a3.74,3.74,0,0,1-2-1.2l-.2-.2h0a1.69,1.69,0,0,1-.3-1v-4a1.1,1.1,0,0,1,.6-1l4.7-2.9H49a2.56,2.56,0,0,1,1.8,1.2h0l-1.5,3h0a3.84,3.84,0,0,1-1.5,3l-.2.2ZM48.8,65h0l-4.7,2.9a.91.91,0,0,0-.3.7v4.1c0,.5,0,.6.2.8h0c.3.2,1,1,1.8,1l1.3-2.6.3-.2a3.32,3.32,0,0,0,1.3-2.6v-.4l1.5-3c-.1-.2-.4-.6-1.4-.7Z"/><path class="cls-46" d="M44,73.52h0a2.66,2.66,0,0,1-.3-1.2v-4a1.85,1.85,0,0,1,.2-.7l1.8,1.2s.7,1.8,1.5,3.4l-1.1,2.4A3.33,3.33,0,0,1,44,73.52Z"/><path class="cls-38" d="M49,72.72l-2.6,1.7c-.7.5-1.3,0-1.3-1.2v-4.1a.78.78,0,0,1,.3-.7l4.7-2.8c.2-.2.3,0,.3.5v4.1A2.87,2.87,0,0,1,49,72.72Z"/><path class="cls-38" d="M45.6,74.72a2,2,0,0,1-.6-1.4v-4.1a1.1,1.1,0,0,1,.6-1l4.7-2.9c.2,0,.3-.2.3,0,.2,0,.2.2.2.7v4.1a3.84,3.84,0,0,1-1.5,3l-2.6,1.6c-.3,0-.6.2-.8.2S45.6,74.92,45.6,74.72Zm4.7-8.8-4.7,2.9a.86.86,0,0,0-.3.6v4.1a1.69,1.69,0,0,0,.3,1c.2.2.3,0,.7,0l2.6-1.7a3.32,3.32,0,0,0,1.3-2.6Z"/><polygon class="cls-46" points="47.3 72.22 47.3 70.02 47.7 70.02 47.7 71.52 48 71.32 48.3 71.72 47.3 72.22"/><path class="cls-46" d="M47.3,70.72h-.2a.73.73,0,0,1-.2-.6,1.52,1.52,0,0,1,.7-1.2c.2-.2.3-.2.6,0v.7a1.64,1.64,0,0,1-.8,1.2Zm.6-1.6h0a1.69,1.69,0,0,0-.7,1v.2h.2a2.07,2.07,0,0,0,.6-1C48.1,69.32,47.9,69.12,47.9,69.12Z"/><path class="cls-49" d="M48.5,69.52a1.43,1.43,0,0,1-.6,1.2c-.3.2-.6,0-.6-.5a1.43,1.43,0,0,1,.6-1.2C48.3,68.82,48.5,69.12,48.5,69.52Z"/><path class="cls-46" d="M47.5,71h-.2a.62.62,0,0,1-.2-.7,1.52,1.52,0,0,1,.7-1.2c.2-.2.3-.2.6,0a.62.62,0,0,1,.2.7,1.64,1.64,0,0,1-.8,1.2C47.8,70.72,47.7,71,47.5,71Zm.6-1.9h0a1.69,1.69,0,0,0-.7,1v.2h.2a2.07,2.07,0,0,0,.6-1C48.3,69.32,48.3,69.32,48.1,69.12Z"/><polygon class="cls-49" points="47.7 71.92 47.7 70.32 47.8 70.02 47.8 71.32 48.3 71.12 48.5 71.52 47.7 71.92"/><path class="cls-34" d="M45.4,67.92h0a.56.56,0,0,0,.5-.6h0v-2.2a1.94,1.94,0,0,1,1-1.7l1-.7q.3-.3.3,0a.76.76,0,0,1,.2.5v2.2c0,.2.2.7.6.7h0a.65.65,0,0,0,.6-.6h0v-2.2a1.43,1.43,0,0,0-.6-1.2,1.48,1.48,0,0,0-1.3,0l-1.3.6a3.32,3.32,0,0,0-1.3,2.6v2.2C45.1,67.72,45.2,67.82,45.4,67.92Z"/><polygon class="cls-50" points="57.3 83.52 35.6 96.22 35.6 96.22 35.4 100.52 37.3 101.42 59.2 88.52 59.2 84.62 57.3 83.52"/><path class="cls-51" d="M57,127.92c-2.4-1.4-19.5-12.8-19.2-13.2l8.5-4.8Z"/><path class="cls-52" d="M57,127.92c-2.4-1.4-19.5-12.8-19.2-13.2l8.5-4.8Z"/><polygon class="cls-53" points="59.2 86.12 59.2 82.22 37.5 95.02 37.3 99.02 59.2 86.12"/><polygon class="cls-37" points="57.6 81.12 59.2 82.22 37.5 95.02 35.6 94.02 57.6 81.12"/><polygon class="cls-54" points="35.6 98.12 35.6 94.02 37.5 95.02 37.3 99.02 35.6 98.12"/><polygon class="cls-55" points="57.7 85.22 57.7 84.62 38.4 95.42 38.4 96.42 57.7 85.22"/><path class="cls-56" d="M57.6,84.92c.3.2.6.5,1,.8l.2.2.6.6h0c.2.2.2.5.3.5.2.2.2.4.3.4h0a.76.76,0,0,1,.2.5c0,.2.2.2.2.5v.2h0a.22.22,0,0,0,.2.2h0c0,.2.2.2.2.5s.2.2.2.5h0c0,.2,0,.2.2.4,0,.2.1.3.2.5s0,.2.2.5h0c.2.5.3.9.5,1.3h0V94h0l-19.4,10.4h0l18.9-11.3v2.1a28.05,28.05,0,0,0,0,4.1v1.2a1.64,1.64,0,0,0,.2,1v.5c0,.5.2.6.2,1h0a2.93,2.93,0,0,0,.3,1h0c.1.3.2.6.3,1h0c.2.5.2.6.3.7h0c.2.2.2.6.3.8v.1c.2.2.4.5.6.7s.3.6.6.8h0l1.1,1.4h0c.3.4,1,.7,1.3,1.2h0a4.12,4.12,0,0,0,1.3,1h0c.3.5,1,.6,1.3,1a3.33,3.33,0,0,0,1,.6c.2.2.6.4.7.6l.6.4c.2.2.3.2.6.5s.5.4.7.6a.22.22,0,0,1,.2.2h0a4.17,4.17,0,0,0,.8.6h.2c.2.2.6.5.7.6h0c.2.2.6.2.8.5h.2c.2,0,.3.2.5.2h0c.2,0,.3.2.6.2h.2c.2,0,.3.2.6.2h2.1c.2,0,.2,0,.3-.2h0l-18.9,10.4h0a.22.22,0,0,0-.2.2H58.9c-.2,0-.3-.2-.6-.2h0c-.2,0-.3-.2-.5-.2h0c-.2,0-.3-.2-.6-.2h0c-.2-.2-.6-.2-.7-.4h0c-.2-.2-.6-.5-.7-.6a.22.22,0,0,1-.2-.2h0a4.17,4.17,0,0,0-.8-.6.22.22,0,0,1-.2-.2h0c-.2-.2-.6-.5-.7-.6a7.37,7.37,0,0,1-.6-.5l-.5-.5c-.2-.2-.6-.5-.7-.6a3.33,3.33,0,0,0-1-.6c-.3-.5-1-.6-1.3-1h0a4.12,4.12,0,0,0-1.3-1h0c-.3-.4-1-.7-1.3-1.2h0a13.44,13.44,0,0,1-1.1-1.4h0c-.2-.2-.3-.6-.6-.8h0c-.2-.2-.2-.4-.3-.6v-.4l-.2-.2c0-.2-.1-.3-.2-.5h0c0-.2-.2-.2-.2-.5s-.1-.3-.2-.5h0c0-.2-.2-.2-.2-.5a.52.52,0,0,0-.2-.4h0c0-.2-.2-.2-.2-.5s-.2-.5-.2-.6h0c0-.2-.2-.5-.2-.6v-3a48.74,48.74,0,0,1,.2-5.4h0v-1.9c0-.5-.2-.7-.2-1.2h0a2.66,2.66,0,0,1-.3-1.2h0a13.35,13.35,0,0,0-.6-1.2h0a3.13,3.13,0,0,0-.5-1h0a2.54,2.54,0,0,0-.8-1h0l-.6-.6v1a1.45,1.45,0,0,0-1-.7Z"/><path class="cls-57" d="M62.3,128.92l18.9-10.6a4.15,4.15,0,0,0,1.7-2.6L64,126.22a4.11,4.11,0,0,1-1.7,2.7"/><path class="cls-34" d="M42.9,104.22h0v2c0,1-.2,1.9-.2,3.1a16.15,16.15,0,0,1,.2-3.1v-1.8l-.2,5.8h0v1.2c.7,6.5,4.7,9.6,8.5,12.5a3.33,3.33,0,0,0,1,.6c.2.2.5.4.7.6l.6.5c.2.2.3.2.6.5,4,2.9,8.3,5.5,9.6.2l18.9-10.6.2.2L64,126.52c-1.5,5.4-5.9,2.6-9.8-.2-.2-.2-.3-.2-.6-.5l-.6-.5c-.2-.2-.6-.5-.7-.6a5.55,5.55,0,0,0-.8-.6c-3.8-2.6-8-6-8.6-12.7a23.48,23.48,0,0,1,0-5.3,12.05,12.05,0,0,1,0-1.9c-.2-3-1.8-6.8-4.3-8.5v-.2C41.1,97.22,42.9,101.22,42.9,104.22Z"/><path class="cls-58" d="M42.3,95.82l.2.2h0a2.19,2.19,0,0,1,.3.5l15.1-8.7c-.2-.2-.2-.5-.3-.5h0l-.2-.2Zm1.7,2.8c.2.2.2.6.3.8h0L59.4,91h0c0-.2-.2-.2-.2-.5a.22.22,0,0,0-.2-.2h0Zm4.5,1.5.3.8L60,94.42v-.9Zm-3.6,6.5,15-8.4v-1l-15.1,8.4Zm0,2.6v1.1l15-8.4v-1Zm.8,3.9h0c0,.2.2.5.2.6h0v.2l15-8.5v-.2h0c0-.2-.2-.5-.2-.6Zm4.4,1.6.3.7,12.1-6.8a.86.86,0,0,1-.3-.6h0Zm-1,4.4a.22.22,0,0,0,.2.2h0a2.19,2.19,0,0,1,.3.5l15.1-8.7a2.19,2.19,0,0,1-.3-.5h0l-.2-.2Zm2.4,2.1c.2.2.3.2.6.5h0l.2.2,15.1-8.7a.22.22,0,0,1-.2-.2h0c-.2-.2-.3-.2-.3-.4Zm3.2,2.3c.2,0,.2.2.3.2l.3.5,15.1-8.7-.5-.4c-.2,0-.2-.2-.3-.2Zm3.2,2.2h0c.2,0,.2,0,.2.2.2.2.3.2.6.5l15.1-8.7a5.58,5.58,0,0,0-.8-.5h-.2Z"/><path class="cls-39" d="M128,108.82l5.3,3a2.77,2.77,0,0,0-2.9.2l-5.3-3A2.4,2.4,0,0,1,128,108.82Z"/><path class="cls-40" d="M125.6,109.92v-.4l.5-.2v.2c0,.2.2,0,.2,0h.2v.2h.2a.76.76,0,0,1-.5.2c-.2,0-.2.2-.4.2h-.2Z"/><path class="cls-41" d="M125.6,109.92c.2,0,.6,0,.6-.4h.2v.2H126c-.2,0-.2.2-.4.2Z"/><path class="cls-39" d="M123.9,107.42l5.3,3.1H129a3.79,3.79,0,0,0-2.9.6l-.9.6-5.3-3,.9-.6c1.1-.6,1.9-1,2.9-.6Z"/><path class="cls-42" d="M118.2,108.52c3.5-2.3,6.6-1,7,3.1l.9-.6c1.1-.6,1.9-1,2.9-.6a3,3,0,0,1,1.6,1.7c2.2-1.2,4.1,0,4.1,3,0,3.3-1.7,7.2-4.4,8.9l-19.1,12.9c-3.3,2.3-6.1.6-6.1-3.5-.2-4.1,2.4-9.6,5.7-11.7.2-.2.5-.2.9-.5C111.8,116.32,114.7,110.92,118.2,108.52Z"/><path class="cls-43" d="M133.4,115.12c0,2.6-1.6,6.1-3.7,7.4l-19.1,12.9a3.53,3.53,0,0,1-1.9.6,1.39,1.39,0,0,1-1.1-.2,3.91,3.91,0,0,1-1.1-2.9c-.2-3.7,2.2-8.4,5-10.2.2-.2.5-.2.6-.5l.6-.5v-1a16.57,16.57,0,0,1,5.9-11.3,6.43,6.43,0,0,1,2.4-1h0c1.8,0,2.2,1.8,2.4,3.1l.2,1.7.2,1.2,2-1.8c.2-.2.4-.4.6-.4.4-.2.6-.5,1.1-.5h.9a.73.73,0,0,1,.6.6l.2.6.2.6,1.3-.6a.73.73,0,0,1,.6-.2h.5C133.2,112.92,133.2,114.42,133.4,115.12Z"/><path class="cls-37" d="M131.7,112.92c-.2,0-.5.2-.6.2l-1.3.6-.2-.6-.2-.6c-.2-.5-.5-.6-.6-.6h-.9a2.22,2.22,0,0,0-1.1.5c-.2.2-.5.2-.6.5l-2,1.8-.2-1.2-.2-1.7c-.2-1.2-.6-3-2.4-3h0a3.49,3.49,0,0,0-2.4,1c-3.1,2.1-5.7,7-5.9,11.3v1l-.6.5c-.2,0-.4.2-.6.5-2.9,1.8-5.3,6.8-5,10.2a4.36,4.36,0,0,0,1.1,2.9,3.61,3.61,0,0,0,2-.6l19-13a10.82,10.82,0,0,0,3.7-7.4C132.1,114.12,132.1,113.42,131.7,112.92Z"/><path class="cls-39" d="M117.7,104.82a5.2,5.2,0,0,0-5,.6c-3.5,2.3-6.4,7.8-6.5,12.4l5.3,3c.2-4.7,3-10.1,6.5-12.4,1.9-1.4,3.7-1.4,5-.6Z"/><path class="cls-39" d="M106.7,137.22l-5.3-3c-1.1-.6-1.8-2.1-1.9-4.2-.2-4.1,2.4-9.6,5.7-11.7.2-.2.5-.2.9-.4l5.3,3c-.2.2-.5.2-.9.5a14.78,14.78,0,0,0-5.7,11.7C105,135.22,105.6,136.82,106.7,137.22Z"/><g class="cls-45"><path class="cls-34" d="M116.4,122.12h0c-.4,0-.6-.2-.4-.5a9.73,9.73,0,0,1,2.6-4.9c1.7-1.8,3.7-1.8,4.6-.2.2.2,0,.6-.2,1s-.6.5-.6.2c-.6-1.2-1.9-1.2-3.3.2a8.72,8.72,0,0,0-1.9,3.7C116.9,121.62,116.7,121.82,116.4,122.12Z"/><polygon class="cls-34" points="115.3 121.62 116.7 123.72 117.7 120.02 115.3 121.62"/><path class="cls-34" d="M120,126.12c-1.3,1-2.9,1-3.5-.5-.2-.2,0-.6.2-1s.6-.5.6-.2c.6,1.2,2,1,3.3-.2a8.72,8.72,0,0,0,1.9-3.7c0-.5.5-.6.6-1a.56.56,0,0,1,.5.6,10.88,10.88,0,0,1-2.7,5.2A6.47,6.47,0,0,0,120,126.12Z"/><polygon class="cls-34" points="124.1 120.02 123 117.92 121.5 121.62 124.1 120.02"/></g><g class="cls-59"><path class="cls-60" d="M84.2,103c-2.3,1.3-2.3,3.5,0,4.8a8.9,8.9,0,0,0,8.1,0c2.3-1.3,2.3-3.5,0-4.8A8.9,8.9,0,0,0,84.2,103Z"/></g><path class="cls-61" d="M88.5,100.32c.6,0,1,1.3.2,2.1-.6,1-.6,2.5-1.3,3a4.65,4.65,0,0,1-2.3.6c-.2-.2.2-1.6,1-2.5C87.3,102.42,87.7,101.12,88.5,100.32Z"/><path class="cls-62" d="M86,104.42c0,.2-.2.2-.2.6l-.2.7h.7a2.35,2.35,0,0,0,1.3-.5,3.29,3.29,0,0,0,.7-1.3l-.3.3A1.67,1.67,0,0,1,86,104.42Z"/><path class="cls-63" d="M86,104.72a.22.22,0,0,1-.2.2h0l-.2.6h.6a1.61,1.61,0,0,0,1.3-.6c.2,0,.2-.2.5-.6A1.73,1.73,0,0,1,86,104.72Z"/><path class="cls-64" d="M85.8,105.52h0a12.29,12.29,0,0,0,1.3-.2h-1v.2Z"/><path class="cls-61" d="M91.6,102.22a2.08,2.08,0,0,1,0,2.1v2.6c0,.3-.5.7-1,1-.5.5-1.3.5-1.3-.6-.2-1.6.6-2.3.7-3.8Z"/><path class="cls-62" d="M89.3,106.72v.6c0,.8.6.8,1,.2.2-.2,1-.7,1-1v-.2c-.1,0-.3,0-.3.1v.1h0C90.8,107,90,107,89.3,106.72Z"/><path class="cls-63" d="M89.5,107.22v.2c0,.2,0,.6.2.6a6.37,6.37,0,0,0,.7-.2,1.56,1.56,0,0,0,.8-.6Z"/><path class="cls-64" d="M90.3,107.42h-.7v.2C90,107.82,90.3,107.82,90.3,107.42Z"/><path class="cls-61" d="M88.8,103v1.3l.2-.2v-1.6h0C88.8,102.62,88.8,102.62,88.8,103Z"/><path class="cls-65" d="M88.8,103v1.3h-.2v-.8C88.5,103.22,88.5,103,88.8,103Z"/><path class="cls-11" d="M88.5,95.22h0C88.8,95,88.5,95,88.5,95.22Zm0-.2h0C88.8,94.72,88.5,94.72,88.5,95Zm0-.6h0C88.8,94.22,88.5,94.22,88.5,94.42Zm0-.2Z"/><path class="cls-66" d="M89.5,84.42c-.6.8,0,.6,0,.6.2.8.7.2,1,0a1.42,1.42,0,0,0,.2-.6h0c.2-.2.6-.5.2-.7a.62.62,0,0,0-.7-.1l-.1.1C90.3,84,90,84.22,89.5,84.42Z"/><path class="cls-67" d="M110.5,41.42l2.4-1.4a.76.76,0,0,1,.2-.5l-2.4,1.4A.55.55,0,0,0,110.5,41.42Z"/><path class="cls-68" d="M111.2,41l2.4-1.4c-.1,0-.1-.1-.2-.1L111,41C111,40.92,111.1,41,111.2,41Z"/><path class="cls-69" d="M111,40.82l2.4-1.4H113l-2.4,1.4Z"/><path class="cls-44" d="M111.8,39.52l2.4-1.4-.9-.3-2.4,1.4Z"/><path class="cls-44" d="M111,39.22l2.4-1.4a2.08,2.08,0,0,0-1.1.1l-2.4,1.4A2,2,0,0,1,111,39.22Z"/><path class="cls-70" d="M122.6,81.52c-.6-.3-1.1-.1-1.1.6a1.89,1.89,0,0,0,1.1,1.8l2.2,1.3c.6.3,1.1.1,1.1-.6a1.89,1.89,0,0,0-1.1-1.8Z"/><path class="cls-71" d="M135.6,53.22a6.31,6.31,0,0,1,2.8,4.7l-.1,32.7c0,1.7-1.2,2.4-2.7,1.6l-23.8-13.7c-1.6-.9-2.8-1.8-2.8-3.6l.1-33.8c0-1.7,1.2-2.4,2.8-1.5Zm-25.1,19.7a2.28,2.28,0,0,0,.6,1.2l25,14.4c.3.2.6,0,.6-.5l.1-31.5a2.28,2.28,0,0,0-.6-1.2l-25.1-14.4c-.2-.1-.5-.1-.6.1a.37.37,0,0,0-.1.3C110.5,41.42,110.5,72.92,110.5,72.92Zm12.1,11,2.2,1.3c.6.3,1.1.1,1.1-.6a1.89,1.89,0,0,0-1.1-1.8l-2.2-1.2c-.6-.3-1.1-.1-1.1.6A2.45,2.45,0,0,0,122.6,83.92Z"/><path class="cls-72" d="M111.2,41c-.2-.1-.5-.1-.6.1a.37.37,0,0,0-.1.3l-.1,31.5a2.28,2.28,0,0,0,.6,1.2l25,14.4c.3.2.6,0,.6-.5l.1-31.5a1.74,1.74,0,0,0-.6-1.2Z"/><polygon class="cls-73" points="138.3 90.72 140.7 89.32 140.8 56.62 138.3 58.02 138.3 90.72"/><polygon class="cls-74" points="135.6 53.22 138.1 51.92 114.3 38.12 111.8 39.52 135.6 53.22"/><path class="cls-75" d="M138.3,58l2.4-1.4a6.68,6.68,0,0,0-1.4-3.6l-2.5,1.4A5.08,5.08,0,0,1,138.3,58Z"/><path class="cls-44" d="M136.9,54.42l2.4-1.4a3.74,3.74,0,0,0-1.3-1.2l-2.4,1.4A4.89,4.89,0,0,1,136.9,54.42Z"/><path class="cls-76" d="M118.8,51.22l10.6,5.9a4,4,0,0,1,1.9,3.4l.2,12.3a1.2,1.2,0,0,1-.6,1.3l.3-.2a1.2,1.2,0,0,0,.6-1.3l-.2-12.3a4.56,4.56,0,0,0-1.9-3.4l-10.6-5.8a1.41,1.41,0,0,0-1.4-.1l-.3.2A1.7,1.7,0,0,1,118.8,51.22Z"/><path class="cls-77" d="M116.9,52.42a1.26,1.26,0,0,1,2-1.2l10.6,5.9a4.27,4.27,0,0,1,1.9,3.4l.2,12.3a1.22,1.22,0,0,1-1.9,1.2l-10.6-5.9a3.9,3.9,0,0,1-1.9-3.4Z"/><polygon class="cls-78" points="119.9 60.92 128.2 65.52 128.2 67.02 119.9 62.42 119.9 60.92"/><polygon class="cls-79" points="120.1 57.82 128.1 62.32 128.1 63.72 120.1 59.22 120.1 57.82"/><polygon class="cls-76" points="120.7 54.92 128.1 59.02 128.1 60.42 120.7 56.42 120.7 54.92"/><polygon class="cls-44" points="112.2 73.72 134.7 86.72 134.7 85.02 112.2 72.02 112.2 73.72"/><polygon class="cls-78" points="121.5 77.42 134.7 85.02 134.7 86.72 121.5 79.02 121.5 77.42"/><polygon class="cls-80" points="127.6 77.02 125.8 77.32 127.6 79.62 127.6 77.02"/><polygon class="cls-80" points="121.8 76.22 123.9 77.42 123.9 75.02 121.8 73.82 121.8 76.22"/><polygon class="cls-80" points="118.8 74.52 119.5 74.92 119.5 72.52 118.8 72.02 118.8 74.52"/><polygon class="cls-80" points="117.7 73.82 118.4 74.22 118.4 71.82 117.7 71.42 117.7 73.82"/><path class="cls-81" d="M103.8,73.22a1.83,1.83,0,0,1-1.8,1.6h0a1.67,1.67,0,0,1-1.5-1.8l.6-6.7a1.65,1.65,0,0,1,1.7-1.5h.2a1.75,1.75,0,0,1,1.5,1.8h0Z"/><path class="cls-82" d="M104.6,97.12a12.1,12.1,0,0,1-.1-1.9c0-.2.2-6,.2-7.8l-2.9-1.3a26.13,26.13,0,0,0,.2,7.4,8.52,8.52,0,0,1,.4,2.3,2.08,2.08,0,0,1-.1,1.1c0,.2-.1.3-.2.5v.3c-.1.2-.1.1.1.2l.4.1c.1.1.3.1.5.2a1.47,1.47,0,0,1,.6.5c.1.2.1.5.2.6a.49.49,0,0,0,.6.3h0l.6-.2a.22.22,0,0,0,.2-.2l.2-.2c-.1,0-.2-.6-.3-.6A3.93,3.93,0,0,1,104.6,97.12Z"/><path class="cls-83" d="M105.7,98.72l-.6-.2c0,.1,0,.2-.1.2l-.1.1h-.3a.76.76,0,0,1-.5-.2,14.63,14.63,0,0,0-1.3-.9l-.3-.3a1.42,1.42,0,0,0-.2.6,1.1,1.1,0,0,0,0,.8.49.49,0,0,0,.7.1.64.64,0,0,1,.6,0c.2.2,0,1.1.5,1l1.3-.4c.2-.1.4-.1.6-.2a.77.77,0,0,0,.3-.2C106.4,98.82,105.8,98.72,105.7,98.72Z"/><path class="cls-82" d="M106,71.72h2.1l.8.5a.63.63,0,0,1,.5.6c0,.2-.1,1.2-.5,1.1s-2.1-.9-2.1-.9-.6,0-.6-.1l-.6-.4Z"/><path class="cls-81" d="M105,71.12a1.71,1.71,0,0,1,2,1.1v.1h0a1.54,1.54,0,0,1-1.2,1.9h0l-3.2.3a1.54,1.54,0,0,1-1.9-1.2h0a1.54,1.54,0,0,1,1.2-1.9h0Z"/><path class="cls-34" d="M107.6,66.42a2,2,0,0,0-1.4-.6c-.6.5-1.2-.1-1.7-.3a1,1,0,0,1-.5-.6.76.76,0,0,0-.5.2c-.6.6-.8,1.7,1.2,1.9a2.25,2.25,0,0,0,1.8-.2C107,66.82,108.1,66.82,107.6,66.42Z"/><path class="cls-82" d="M108.5,98.62a13.4,13.4,0,0,1-.1-2c0-.2.2-6,.2-7.8l-2.9-1.3c0,1.1-.3,5.2.2,7.4a15.54,15.54,0,0,1,.5,2.3,2.08,2.08,0,0,1-.1,1.1.52.52,0,0,1-.2.4c-.1.1,0,.2,0,.3s-.1.1.1.2.2,0,.3.1.3.1.4.2a1.47,1.47,0,0,1,.6.5c.2.2.1.5.1.6s.3.4.5.3h0l.6-.2a.22.22,0,0,0,.2-.2l.2-.2c-.1,0-.2-.6-.3-.6A9.68,9.68,0,0,0,108.5,98.62Z"/><path class="cls-9" d="M101.8,74.92l.3-.7c1.3-4.1-1.3-8.5,1.8-9.2,0,0-1.3,1.3.6,1.7s2.6-.5,2.6-.5c.9.4,3.2,1.7,1.6,5.8a12.1,12.1,0,0,0,0,3.8C105.4,77.22,103,76.22,101.8,74.92Z"/><path class="cls-83" d="M101.8,74.92c1.2,1.4,3.6,2.3,7,1a52.3,52.3,0,0,1,.4,13.7c-.9,1.1-6.5-.2-7.8-1.4C101.5,86.82,99.7,80.22,101.8,74.92Z"/><path class="cls-84" d="M104.1,65.42c0,.8,2.4,1.2,2.6.6a10.87,10.87,0,0,0,.1-1.8l-2.6-.2Z"/><path class="cls-85" d="M103.5,63.32c1.3,1.4,1.8,1.3,3.2.5a3.86,3.86,0,0,0,1.5-4.1c-.3-2-2.9-2.6-4.3-1.7C100.8,59.72,102,61.62,103.5,63.32Z"/><path class="cls-82" d="M104.1,62a6.07,6.07,0,0,0,.8,2.6,2.46,2.46,0,0,0,2.6.2c.9-.7.7-2.2.7-4.2s-1.2-2.3-2.3-1.4S103.9,60.22,104.1,62Z"/><path class="cls-85" d="M102,60.12c.1-.8,2.1-.9,2.1-.9s1-3.3,4.2-.6c.6.6.5,2.4.5,2.4a5.08,5.08,0,0,0-1.7.3,14.79,14.79,0,0,0-1.3,2.1l-.2.3c-.2.6-.6,1.5-2,.6C103.5,64.22,101.4,61.92,102,60.12Z"/><path class="cls-82" d="M105.7,62.62c.1.5.3.6.6.6s.5-.3.3-.8a.86.86,0,0,0-.6-.7C105.7,61.82,105.5,62.12,105.7,62.62Z"/><path class="cls-86" d="M103.7,66l-.3-.7c-2.9-4.5,1-5.9,1-5.9a.67.67,0,0,0-.6-.7,3.7,3.7,0,0,0-1.1-.5c-1.1,0-2.7.6-3,5.5,0,1-.5,3.4.1,4.8a1.46,1.46,0,0,0,.9.6h.3c1.3-.6,3.3-1.1,3-2.4A1.33,1.33,0,0,1,103.7,66Z"/><path class="cls-82" d="M115.2,73.32l1.2-.9,1.1-.5c.1,0,.6-.2.9-.1s.9.7.6,1.1a2,2,0,0,1-2.2,1,2,2,0,0,0-1.1.2l-.5.5Z"/><path class="cls-81" d="M113.4,73.52c1,.6.5,1.7-.3,2.2l-.4.1a1.67,1.67,0,0,1-1.9-.8l-4-4.9a1.75,1.75,0,0,1,.5-2.4h0a1.58,1.58,0,0,1,2.2.3h.1Z"/><path class="cls-81" d="M114.6,72.12a1.61,1.61,0,0,1,2,1v.2h0a1.72,1.72,0,0,1-1,2.1h0l-3.2.6a1.63,1.63,0,0,1-2.1-1h0v-.1h0a1.73,1.73,0,0,1,1.1-2.1h0Z"/><path class="cls-83" d="M109.4,100.22l-.5-.2c0,.1,0,.2-.1.2l-.1.1h-.3a.76.76,0,0,1-.5-.2,14.63,14.63,0,0,0-1.3-.9l-.3-.3c-.1.2-.2.3-.2.5a1.39,1.39,0,0,0,0,.9.61.61,0,0,0,.8.1.64.64,0,0,1,.6,0c.2.2,0,1.1.5,1l1.3-.3c.2-.1.5-.1.6-.2s.2-.1.3-.2C110.4,100.32,109.7,100.22,109.4,100.22Z"/><path class="cls-87" d="M73.8,102.92h-.2c-.1.2-.1.2.2,0h0C74,103.12,74,102.92,73.8,102.92Z"/><path class="cls-87" d="M74.3,102.32h0a.22.22,0,0,0-.2.2h.2Z"/><path class="cls-88" d="M73.6,94l2.9-1.8,3-1.8a.75.75,0,0,1,.8.1c.9.7,1.7,1.4,2.5,2.1s1.7,1.4,2.5,2.1c.2.1.2.4.1.6l-.1.1c-1,.6-2,1.3-3,1.9s-2,1.3-3,1.9a1,1,0,0,1-.9-.1c-.9-.7-1.7-1.4-2.5-2.1s-1.6-1.4-2.5-2.1c-.1-.1-.2-.2-.2-.3v-.3Z"/><path class="cls-88" d="M82.8,92.62c.9.7,1.7,1.4,2.5,2.1.2.1.2.4.1.6l-.1.1c-1,.6-2,1.3-3,1.9l-3,1.9.1-1.2Z"/><path class="cls-89" d="M73.5,93.92,76.6,92l3-1.8a.75.75,0,0,1,.8.1c.9.7,1.7,1.4,2.5,2.1s1.7,1.4,2.5,2.1c.2.1.2.4.1.6l-.1.1c-1,.6-2,1.3-3,1.9s-2,1.3-3,1.9a.75.75,0,0,1-.8-.1c-.9-.8-1.7-1.4-2.5-2.1s-1.6-1.4-2.5-2.1C73.2,94.32,73.2,94,73.5,93.92Z"/><path class="cls-90" d="M73.9,94.22c.8.7,1.6,1.4,2.5,2.1s1.7,1.4,2.5,2.1a.37.37,0,0,0,.3.1c1-.6,2-1.3,3-1.9s1.9-1.2,2.9-1.8a24.33,24.33,0,0,0-2.5-2c-.9-.6-1.6-1.4-2.5-2.1a.37.37,0,0,0-.3-.1l-3,1.8C75.8,93,74.9,93.62,73.9,94.22Z"/><path class="cls-91" d="M77.7,96.12c.2-.1.4-.3.6-.4a7,7,0,0,0,1,.8,7,7,0,0,0,1,.8c-.2.1-.4.3-.6.4a7,7,0,0,0-1-.8A3.92,3.92,0,0,1,77.7,96.12Z"/><path class="cls-92" d="M77.7,95.22c.2-.1.4-.3.6-.4l1.3,1.1A12.67,12.67,0,0,1,80.9,97c-.2.1-.4.3-.6.4a12.67,12.67,0,0,1-1.3-1.1C78.6,95.92,78.1,95.62,77.7,95.22Z"/><path class="cls-93" d="M77.6,94.22c.2-.1.4-.3.6-.4l1.7,1.4,1.7,1.4c-.2.1-.4.3-.6.4a21,21,0,0,1-1.7-1.4C78.7,95.12,78.1,94.72,77.6,94.22Z"/><path class="cls-94" d="M78.7,94.22c.2-.1.4-.3.6-.4A17.41,17.41,0,0,1,80.7,95a17.41,17.41,0,0,0,1.4,1.2c-.2.1-.4.3-.6.4-.5-.4-.9-.8-1.4-1.2A17.41,17.41,0,0,1,78.7,94.22Z"/><path class="cls-95" d="M80.2,94.62c.2-.1.4-.3.6-.4l1,.8,1,.8c-.2.1-.4.3-.6.4l-1-.8A3.92,3.92,0,0,0,80.2,94.62Z"/><path class="cls-96" d="M81.2,94.42a2.09,2.09,0,0,0,.6-.4c.3.2.5.5.8.7s.5.5.8.7c-.2.1-.4.3-.6.4-.3-.2-.5-.5-.8-.7A2.7,2.7,0,0,1,81.2,94.42Z"/><path class="cls-97" d="M77.3,96.72c.2-.1.4-.3.6-.4l.9.7a5.72,5.72,0,0,1,.8.7c-.2.1-.4.3-.6.4l-.9-.7A5,5,0,0,1,77.3,96.72Z"/><path class="cls-96" d="M77.3,93.42a8.08,8.08,0,0,0-.1,1.6c0,.6-.1,1-.1,1.6h.2a7.57,7.57,0,0,0,.1-1.5c0-.5.1-1,.1-1.5.6,0,1.3.2,2,.2s1.3.2,2,.2v-1.5c.1,0,.3.1.4.1a2.18,2.18,0,0,1-.5-.8c-.2.2-.3.4-.5.6h.4v1.4a12.25,12.25,0,0,0-1.9-.2c-.6,0-1.3-.2-1.9-.2Z"/><path class="cls-96" d="M81.6,93.82a2.09,2.09,0,0,0,.6-.4c.3.3.6.5.9.8s.6.5.9.8c-.2.1-.4.3-.6.4-.3-.3-.6-.5-.9-.8A2.36,2.36,0,0,1,81.6,93.82Z"/><path class="cls-93" d="M81.6,93a2.09,2.09,0,0,0,.6-.4l1.2,1,1.2,1a2.09,2.09,0,0,0-.6.4l-1.2-1A10.59,10.59,0,0,0,81.6,93Z"/><path class="cls-98" d="M84,136.32c3.2,1.4,8.8.8,12.5-1.3s4-5,.8-6.3-8.8-.8-12.5,1.3S80.7,134.92,84,136.32Z"/><path class="cls-99" d="M78.7,100.62c-.6-.7-2.9-1.3-3-2l-.5-2.3,1.2,1,1.3.8-.6-1a1.75,1.75,0,0,1-.1-.5.35.35,0,0,1,.2-.1.87.87,0,0,1,.6.4c.6.7.6.5,1.2.9s.7,1,1,2Z"/><path class="cls-100" d="M77.8,98.12l-.5-.7c-.1-.2-.2-.3-.2-.5s0-.2.1-.3a1.42,1.42,0,0,0,.2.6,8.34,8.34,0,0,0,.8,1.2C78,98.32,77.9,98.32,77.8,98.12Z"/><path class="cls-101" d="M78.7,100.62c-.6-.7-2.9-1.3-3-2l-.3-1.5c1.3,1.2,3.3,1.9,4.4,2.6l.1-.1.1.1Z"/><path class="cls-102" d="M92.7,89.22c-.5.3-1.1.8-.5,1.3l-.4,2.6,1.6,6.1-1.7,5.7a1.43,1.43,0,0,0,.6,1.2c.6.4,1.5.7,1.8.1l2.7-7.1a2.48,2.48,0,0,0,0-1.7c-.3-1.5-1-4.6-1.3-5.4C94.8,90.42,94.2,89.42,92.7,89.22Z"/><path class="cls-103" d="M92.7,89.32c-.5.3-1.1.7-.5,1.2l-.4,2.6,1.6,6.1-1.7,5.7a1.43,1.43,0,0,0,.6,1.2c.6.4,1.2.8,1.5.2a25.92,25.92,0,0,1,.4-4.8c.5-2.2,1.8-8,1.1-9.6S94.2,89.52,92.7,89.32Z"/><path class="cls-104" d="M90.8,131.52a3.33,3.33,0,0,0,1,.6v.4c.6,1,1.1,1.4,1.8,1.2,1-.3,1.3-.5,1.3-1.3a3.6,3.6,0,0,0-.2-2.3,6.25,6.25,0,0,0-2.2-1,18.49,18.49,0,0,0-2.3-.9.68.68,0,0,0-.8.4v.1A6.18,6.18,0,0,0,90.8,131.52Z"/><path class="cls-105" d="M90.8,131.52a3.33,3.33,0,0,0,1,.6v.4c.6,1,1.1,1.4,1.8,1.2,1-.3,1.3-.5,1.3-1.3A6.6,6.6,0,0,0,95,131a2.8,2.8,0,0,1-3.7-.6c-.3-.4-1.4-1.4-1.6-2.1a2.19,2.19,0,0,0-.3.5A5.81,5.81,0,0,0,90.8,131.52Z"/><path class="cls-104" d="M88.6,133.52c-.3-.1-1-1.1-2-1-1.2.2-2.6-.4-3.7-.5-.2,0-.5-.1-.6.1a.82.82,0,0,0-.4,1c.1.1.1.2.2.3a5.26,5.26,0,0,0,1.4,1.2,5.07,5.07,0,0,0,1.6.9c.5.2.8.2,1.3.4v.4a3.13,3.13,0,0,0,1,.5,2.46,2.46,0,0,0,1.9-.9,3.33,3.33,0,0,0-.1-2.2Z"/><path class="cls-105" d="M82.1,132.52c-.2.3-.2.6.2,1a5.26,5.26,0,0,0,1.4,1.2,5.07,5.07,0,0,0,1.6.9c.5.2.8.2,1.3.4v.4a3.13,3.13,0,0,0,1,.5,2.46,2.46,0,0,0,1.9-.9,8.6,8.6,0,0,0,.1-1.6,2.64,2.64,0,0,1-2.7.3,6,6,0,0,1-3.6-1.2A5.8,5.8,0,0,0,82.1,132.52Z"/><path class="cls-106" d="M85.9,133.82a1.39,1.39,0,0,1-.2-1.1l-2.1-.4c-1-.2-1.3,0-1,.2A5.92,5.92,0,0,0,85.9,133.82Z"/><path class="cls-107" d="M88,108.82c.3,2.5.9,9.6,1.7,11.7,1.2,3.2,1.5,6.1,2.2,9.6a2.34,2.34,0,0,0,1,1.2c.8.5,2,.5,2.2-.2-.2-3.2-.2-6.6-.5-8.3a10.82,10.82,0,0,0-1.1-4c-.1-1.4,0-5,0-7.7a14.63,14.63,0,0,0-.7-5.5Z"/><path class="cls-108" d="M88,108.82c.3,2.5.9,9.6,1.7,11.7,1.2,3.2,1.5,6.1,2.2,9.6a2.34,2.34,0,0,0,1,1.2c.2.1.3.2.5.2a79,79,0,0,0-1.3-9.6,5,5,0,0,0-.9-2.4c-.1-4.6-.2-7.8.9-12.4l1.4.7a8.3,8.3,0,0,0-.6-2.1Z"/><path class="cls-107" d="M84.1,109.92c-.9,4.6.6,9.3,1.1,12.6.6,3.8.6,7,.9,10.7.2,1.1,2.8,2.1,3.7,1,.2-3.2.6-5.9.4-7.7a8.89,8.89,0,0,0-.7-3.6c0-1.4,0-5.3.3-7.9.2-2.2,1-2.8-.1-5.6l-3.8,1.3Z"/><path class="cls-108" d="M84.1,109.92c-.9,4.6.6,9.3,1.1,12.6.6,3.8.6,7,.9,10.7a2.62,2.62,0,0,0,1.6,1.3c.1-2.7.1-5.5,0-8.2a19.85,19.85,0,0,0-.6-3c-.2-3.9-.5-8.5-.7-12.6l-.5.2Z"/><path class="cls-102" d="M93.1,89.32a3,3,0,0,1,1.9,2.2c.7,3.1-1.4,7.3-1.7,10.7-.1,2.2,1.3,4,.5,7.8-.3.9-2,1.7-2.6,2.2-.3-.9,0-2.2,0-3.7-.2,1.6-.5,2.4-.7,3.9-1.9,1.1-5.6,2.2-7.1.1.4-3.1,1.5-5.2,1.4-7.6-.1-4.1-2-7.6-1.6-9.6a3.75,3.75,0,0,1,1.4-2.1C86.3,91.82,91.2,88.52,93.1,89.32Z"/><path class="cls-103" d="M85.4,113.72a2.59,2.59,0,0,1-1.9-1.3c.4-3.1,1.3-5.9,1.3-8.3-.1-4.1-1.8-6.9-1.4-8.9a3.75,3.75,0,0,1,1.4-2.1,34.47,34.47,0,0,1,3.2-2v.4a7.4,7.4,0,0,0-2.3,2c2.7,2.5,1.2,8.8.8,11.7A59.87,59.87,0,0,0,85.4,113.72Z"/><path class="cls-99" d="M85.6,89.62c.3.2,1.8,0,1.8.1a13.33,13.33,0,0,0-.3,2.8c1.8,1.3,4.3-.2,4.1-1.1,0-.6-.3-2.3,0-2.9a11,11,0,0,0,1.4-2.1,3.59,3.59,0,0,0-.1-2.7,2.94,2.94,0,0,0-1-1.2,4,4,0,0,0-5.6,1.1l-.6,1.2c-.2.5.3.8.3,1.3,0,.1-.1.2-.2.4S85.2,89.42,85.6,89.62Z"/><path class="cls-101" d="M85.6,89.62c.3.2,1.8,0,1.8.1a13.33,13.33,0,0,0-.3,2.8,6.57,6.57,0,0,1,4-3.3,1.48,1.48,0,0,1,.1-.7,11,11,0,0,0,1.4-2.1,3.87,3.87,0,0,0-.1-2.8,2.94,2.94,0,0,0-1-1.2,4,4,0,0,0-5.6.9,3.1,3.1,0,0,0-.6,1.3c-.2.5.3.8.3,1.3,0,.1-.1.2-.2.4S85.3,89.42,85.6,89.62Z"/><path class="cls-101" d="M85.7,89.62a2,2,0,0,0,1.3-.2c.3-.1.5-.4.6-.4s.6-.7-.1-1.7,3.5,1.6,3.7,1.2a11,11,0,0,0,1.4-2.1,3.87,3.87,0,0,0-.1-2.8,2,2,0,0,0-.9-1.1,3.94,3.94,0,0,0-5.6,1,3.1,3.1,0,0,0-.6,1.3c-.2.5.3.8.3,1.3,0,.1-.1.2-.2.4S85.3,89.42,85.7,89.62Z"/><path class="cls-99" d="M85.6,89.62c.1.1.5,0,.6,0a1.8,1.8,0,0,0,.4-.9c-.1-.9-.5-1.7-.4-2,0-.8.3-.4-.1-1.2-.2-.6.1-.7.2-1.3a1.21,1.21,0,0,1-.5-.5,11.73,11.73,0,0,0-.5,1.1c-.2.5.3.8.3,1.3,0,.1-.1.2-.2.4S85.3,89.42,85.6,89.62Z"/><path class="cls-101" d="M87.4,87.32c.9-.8,1.7,1.7.3,1.7a1.27,1.27,0,0,0-.3-1.7Z"/><path class="cls-99" d="M87.4,87.72c-.1-.3,0-.4.1-.4.3.1.4.4.5.6.2.6-.1,1.3-.6,1,.5,0,.5-.6.3-.9S87.5,87.62,87.4,87.72Z"/><path class="cls-109" d="M87.6,87.92c-.1.2-.2.4-.1.5s.1.1.3,0A.76.76,0,0,0,87.6,87.92Z"/><path class="cls-110" d="M91.2,89.12c.1-1,1-1.7,1.4-2.8a3.43,3.43,0,0,0-1-3.8,3.9,3.9,0,0,0-5.3.8l-.1.1c-.1.1.2.6.5.8-.3.9-.2,1.1-.1,1.3.5.7.5.8.5,1.9l.3.2c.1-.9.5-.8.9-.5.6.5.3,2.3,1.8,2.3A1.13,1.13,0,0,0,91.2,89.12Z"/><path class="cls-111" d="M91.2,89.12c.1-1,1-1.7,1.4-2.8a3.55,3.55,0,0,0,.2-1c-1.4,1.1-3.8,1.1-6.2-.2,0,.2,0,.3.1.3.5.7.5.8.5,1.9l.3.2c.1-.9.5-.8.9-.5.6.5.3,2.3,1.8,2.3A.8.8,0,0,0,91.2,89.12Z"/><path class="cls-111" d="M91.2,89.12a1.78,1.78,0,0,1,.4-1,2.26,2.26,0,0,1-2.8.2c.2.6.6,1.2,1.3,1.2A2.1,2.1,0,0,0,91.2,89.12Z"/><path class="cls-110" d="M91.3,84.72a6.68,6.68,0,0,1-4.4-.7c-1-.6-.9-1.4-.7-1.7a2.93,2.93,0,0,1,2.2-.7h-.5a4.27,4.27,0,0,1,3.3.5c-.1-.1-.1-.1-.1-.2.5.2,1.7,1.2,1.5,1.9A3.81,3.81,0,0,1,91.3,84.72Z"/><path class="cls-111" d="M86.7,81.82a4.53,4.53,0,0,1,1.6-.3h-.4a4.27,4.27,0,0,1,3.3.5c-.1,0-.1-.1-.1-.2a4,4,0,0,1,1.2,1c-.9-.6-1.7-.7-3.4-.7a1.27,1.27,0,0,1,.6-.1c-.9,0-2-.2-2.8-.2Z"/><path class="cls-110" d="M91.3,84.72a7.08,7.08,0,0,1-4.5-.7c-1-.6-1.2-1.6-.3-2-.2.4.1,1.1,1,1.5.1.1.1-.1-.1-.3a14,14,0,0,1,1.7.9,1.38,1.38,0,0,1-.4-.3,9.69,9.69,0,0,0,2.3.3c-.1-.1-.3-.1-.4-.2a3.21,3.21,0,0,0,1.7-.2v.1A2.19,2.19,0,0,1,91.3,84.72Z"/><path class="cls-102" d="M84,93.92c-1.2,1-1.1,5.6-1.1,9,0,.1,1,3.3,3.2,1.4.1-1.7.2-3.5.3-5.1s.1-4.5-1.4-5.2C84.6,93.82,84.2,93.62,84,93.92Z"/><path class="cls-102" d="M85.1,101.52,80,98.82c-1.3-.4-2.1,1.8-1.5,2.4l5.2,3.4a2.12,2.12,0,0,0,1.9,0,1.73,1.73,0,0,0,.4-1.7A1.94,1.94,0,0,0,85.1,101.52Z"/><path class="cls-103" d="M78.6,99.52a1.51,1.51,0,0,0-.1,1.7l5.2,3.4a2.12,2.12,0,0,0,1.9,0l.3-.3C84.8,104.52,80.3,101.72,78.6,99.52Z"/><path class="cls-102" d="M92.8,89.82c.2,2.5-3,3.8-6.4,3.6,1.7,2.9,1.2,7.4.6,11.6-.3,2.9-1.2,5.7-1.2,8.3,1.5.3,2.8-.4,4.2-1,1.7-5.7,1.2-6.7.6-9.4,1.2,3,1,4.9.9,8.8a6.84,6.84,0,0,0,2.1-1.7c.8-3.9-1-7.4-.7-8.4C94.2,96.22,96.6,91,92.8,89.82Z"/><path class="cls-112" d="M89.6,113.62l-1.9.9c0,3.2.1,6.4.4,9.6.8,2,.6,7.8.4,10.5a2,2,0,0,0,1.1-.3c.1-5,.6-9-.5-10.6A83.32,83.32,0,0,1,89.6,113.62Z"/><path class="cls-102" d="M91.9,112.32c0,2.3.1,4.9.1,7.2a9.17,9.17,0,0,1,1.3,3.6,59.33,59.33,0,0,1,.6,8.4,1.39,1.39,0,0,0,1.1-.2c-.2-2.9-.3-5.7-.7-8.6a12.34,12.34,0,0,0-1.2-3.7c0-2.6.1-5.2.2-7.8A7.55,7.55,0,0,1,91.9,112.32Z"/><path class="cls-102" d="M91.2,89.42c.2-.1.4-.1.6-.2.5.2.6,1.4.4,1.8a3.82,3.82,0,0,1-3,1.9c-1.8.3-4-.1-4.5.2a8.32,8.32,0,0,1,1.8-1.3C88.2,91.62,91.6,90.82,91.2,89.42Z"/><path class="cls-113" d="M91.1,89.42c.1.9-2.5,1.6-3.9,1.1a2.85,2.85,0,0,0-.8,1.4c1.7.4,4.4.2,5-1.1A1.74,1.74,0,0,0,91.1,89.42Z"/><path class="cls-103" d="M83.8,93.92c-1,.9-1.1,3.7-1.1,6.5a6.33,6.33,0,0,0,1.6,2.4c-1.1-2.2-.1-7.5.3-9A.8.8,0,0,0,83.8,93.92Z"/><path class="cls-102" d="M84.8,94.12c-.1,1.1-1,6-.1,9a1.09,1.09,0,0,0,1,.7C85.8,99.12,86.2,95.12,84.8,94.12Z"/><path class="cls-114" d="M46.3,105.62l-.2.6-.8.6-.5.9-.1.5c0,.3.3.3.3.1l.1-.3.3-.3.1,1.5-.5,1.4.3.3,1.3-.5.6-.8v-3.8Z"/><path class="cls-114" d="M41.6,131.32a.9.9,0,0,0-.1.5,1.06,1.06,0,0,0-1.3.3l-.4.6,1.7,1.5h1.7l.8-.8-.3-1.7A4.64,4.64,0,0,1,41.6,131.32Z"/><path class="cls-115" d="M44,133c-.2.5-1.3.9-2.3.7-.9-.4-1.4-.7-1.6-1.4a2.35,2.35,0,0,1,1.4-.7l.1-.3-.7-.4a1,1,0,0,0-1.5.4.1.1,0,0,1-.1.1,1.78,1.78,0,0,0,.8,2.2l1.1.9c.5,1,.9,1.6,1.8,1.5s1.3-.5,1.3-1.3A4.67,4.67,0,0,0,44,133Z"/><path class="cls-116" d="M44,118.32l1-10.9-5.5,4.2.7,6.4c.3,3.7,1.1,11.7.7,13.7.8.9,2.9.9,3.5.9C43.6,128.32,46.7,123.32,44,118.32Z"/><path class="cls-114" d="M31.6,133H30.5l-.8.7.8,1.4,5.7-.4.2-1.3-.3-1a6.72,6.72,0,0,1-2.4-.4A2.18,2.18,0,0,1,31.6,133Z"/><path class="cls-116" d="M39.7,112.62l-3.9,6.9c1.8,3.8.7,12.3,1.1,13.3-.5.7-4.2.4-4-.3a12.31,12.31,0,0,0,.2-3.8c-.2-1.9-.6-4.8-.9-11.4a55.7,55.7,0,0,1,2.7-9.9,8.86,8.86,0,0,1,.8-1.7l8.9-1.4C46,110,42.8,111.32,39.7,112.62Z"/><path class="cls-115" d="M29.8,133c-1.1.1-1.1.8-1,1.4a2.58,2.58,0,0,0,2.2,1.4c1,0,3.4.2,3.4.2a3.05,3.05,0,0,0,2.3,0,3.08,3.08,0,0,0-.1-2.8c-.6,1.5-2.9,1.6-5.1,1.3-.5-.1-1-.6-.7-1a2.07,2.07,0,0,1,1-.6Z"/><path class="cls-116" d="M39.7,107.92c-2.6.4-4.4,4.9-6.2,9.5-.8,2.2-.5,6.9-.3,11.2-.2-1.9-.6-4.8-.9-11.5a55.7,55.7,0,0,1,2.7-9.9Z"/><path class="cls-117" d="M45.9,106.42c.4-1.7.2-4.2.2-6.8l-1-3.4.7-4.6c1.5.3,2.1,3.9,2.3,8,.5,1.8-.4,4.8-.7,7.3A1.24,1.24,0,0,1,45.9,106.42Z"/><path class="cls-118" d="M44.2,100.52c0,1.4.3,1.4,1.3,4.8-1.2,1.9-3.8,2.6-6.5,2.6a13.2,13.2,0,0,1-3.9-.6c-.2-2.3.9-5.4.5-7.4-2.3-.6-1.3-2.9-.7-4.2a1.42,1.42,0,0,0,.2-.6,5.34,5.34,0,0,0,.3-2.2,47.26,47.26,0,0,0,5.2-1.8c1.7-.8,5.2.4,5.2.4s.9.6.5,3C45.6,97.62,44.2,99.12,44.2,100.52Z"/><path class="cls-119" d="M38.9,107.92a13.2,13.2,0,0,1-3.9-.6c-.2-2.3.9-5.4.5-7.4-2.3-.6-1.3-2.9-.7-4.2a1.42,1.42,0,0,0,.2-.6c.3-.1.7-.1,1-.2,0,4.9.9,6.2,1.3,8.4A35.7,35.7,0,0,0,38.9,107.92Z"/><path d="M36.8,83.72s-3.3,2.2,1,7.6c0,0,3,1.3,4.3-1.1s1.7-6-.9-7.3S36.5,82.22,36.8,83.72Z"/><path class="cls-114" d="M38,89.32l.3,3.1c.7.6,3.5-.2,3.5-1.2l-.9-2.6Z"/><path class="cls-117" d="M38.3,91.92l-.9.4a3.16,3.16,0,0,0,3.6.2c1.4-.7,1.3-1.5,1.3-1.5l-.8-.2C41.3,91.52,39.7,92,38.3,91.92Z"/><path class="cls-120" d="M36.8,83.72s-3.3,2.2,1,7.6c0,0,3,1.3,4.3-1.1s1.7-6-.9-7.3S36.5,82.22,36.8,83.72Z"/><path class="cls-117" d="M36.9,95.52h0a1.61,1.61,0,0,1-.5,1.1,1.42,1.42,0,0,1-.6.2,11.48,11.48,0,0,1-1.9-.1,27.13,27.13,0,0,1-4.1-.9,3.7,3.7,0,0,1-1.1-.5c-.9-1.2-1.1-5.3-1.1-7.6.3-.4,1.3-.8,1.5-.3l1.4,5.1,4.9.6h0C36.5,93.12,37,94.52,36.9,95.52Z"/><path class="cls-114" d="M27.5,87.72l-.1-.9-.6-1.1-.4-1.5v-.5c.1-.2.1-.3.3-.3l-.1-.1c-.1-.4.2-.5.4-.3-.1-.3.2-.5.4-.2l.4.7-.1-.9-.2-1c-.1-.3.2-.4.3-.1l.3,1.3c.1-.1.2.1.2.3a3.54,3.54,0,0,1,.1.6l.3.9a7.57,7.57,0,0,1-.1,1.5l.1,1.2C29,87.72,27.7,88,27.5,87.72Z"/></g></g></g></svg>