<svg xmlns="http://www.w3.org/2000/svg" viewBox="0 0 150 150"><defs><style>.cls-1{fill:#84b0c6;}.cls-2{fill:#e2edf9;}.cls-3{fill:#afd0ea;}.cls-4{fill:#079abc;}.cls-5{fill:#34c5ef;}.cls-6{fill:#54717f;}.cls-7{fill:#010101;opacity:0.1;}.cls-17,.cls-49,.cls-55,.cls-7{isolation:isolate;}.cls-8{fill:#0599ce;}.cls-9{fill:#0aaeda;}.cls-10{fill:#82d3ef;}.cls-11{fill:#3d6dad;}.cls-12{fill:#f36e24;}.cls-13{fill:#f0a95b;}.cls-14{fill:#d83;}.cls-15{fill:#f8a391;}.cls-16{fill:#f47e67;}.cls-17{fill:#c4d9e0;opacity:0.36;}.cls-18{fill:#fcc49c;}.cls-19{fill:#3a5d84;}.cls-20{fill:#045476;}.cls-21{fill:#8a5c55;}.cls-22,.cls-55{fill:#fff;}.cls-23{fill:#d2d2d2;}.cls-24{fill:#f89521;}.cls-25{fill:#ec6348;}.cls-26{fill:#008b53;}.cls-27{fill:#c3d8eb;}.cls-28{fill:#fafdff;}.cls-29{fill:#f4f5f5;}.cls-29,.cls-30,.cls-31,.cls-32,.cls-33,.cls-34,.cls-35,.cls-36,.cls-37,.cls-38,.cls-39,.cls-40,.cls-41,.cls-42,.cls-43,.cls-44,.cls-45,.cls-46,.cls-47,.cls-48,.cls-49,.cls-50{fill-rule:evenodd;}.cls-30{fill:#251810;}.cls-31{fill:#f0b184;}.cls-32{fill:#e7a377;}.cls-33{fill:#16516c;}.cls-34{fill:#23698a;}.cls-35{fill:#2c81ab;}.cls-36{fill:#815455;}.cls-37{fill:#774a4b;}.cls-38{fill:#38689c;}.cls-39{fill:#3f6dad;}.cls-40{fill:#457db6;}.cls-41{fill:#d99569;}.cls-42{fill:#1f1012;}.cls-43{fill:#0f85c1;}.cls-44{fill:#e5e5e4;}.cls-45{fill:#3ba3db;}.cls-46{fill:#9eb0b9;}.cls-47{fill:#342013;}.cls-48{fill:#4e2e16;}.cls-49{fill:#e9f6f4;opacity:0.5;}.cls-50{fill:#2a2524;}.cls-51{fill:#d25a27;}.cls-52{fill:#c65127;}.cls-53{fill:#dd8732;}.cls-54{fill:#efa859;}.cls-55{opacity:0.43;}.cls-56{fill:#0598cd;}.cls-57{fill:#f36d24;}.cls-58{fill:#25100e;}</style></defs><g id="Security-integrated_Product_Engineering" data-name="Security-integrated Product  Engineering"><g id="Product_Management" data-name="Product Management"><g id="Product_Management-2" data-name="Product Management-2"><path class="cls-1" d="M132.74,76.38,83,47.58a4.75,4.75,0,0,0-4.4.13L50.18,64.14A2.28,2.28,0,0,0,48.92,66a1.86,1.86,0,0,0,1,1.57L99.71,96.35a3.58,3.58,0,0,0,2,.45,4.89,4.89,0,0,0,2.45-.63l28.37-16.39a2.26,2.26,0,0,0,1.26-1.89A1.94,1.94,0,0,0,132.74,76.38Z"/><path class="cls-2" d="M100.08,95.34,50.36,66.59c-.94-.5-1.37-2.7-.31-3.33L79,48.13A3.82,3.82,0,0,1,82.58,48l49.71,27.06c1,.5.82,3.14-.25,3.77L103.66,95.22A4,4,0,0,1,100.08,95.34Z"/><path class="cls-2" d="M92.12,71.9,60.73,61.61c7,21.24-11.22,1.85-10.18,1.22L79,46.5a3.84,3.84,0,0,1,3.58-.12l49.71,28.76c1,.49.82,1.44-.25,2.07L103.66,93.6C102.6,94.16,101.28,94.22,92.12,71.9Z"/><path class="cls-3" d="M132.29,75.07,83.89,44.93a4,4,0,0,1-1.63-3.2L80.75,9.21c0-1.15,2.28-2,3.14-1.44l49.78,28.69a4,4,0,0,1,1.64,3.2V72.43C135.31,73.63,133.24,75.63,132.29,75.07Z"/><path class="cls-2" d="M131.92,74.89,82.13,46.13a4.29,4.29,0,0,1-1.69-3.21V10.21c0-1.14.75-1.76,1.69-1.25l49.79,28.75a4.1,4.1,0,0,1,1.63,3.21V73.69C133.62,74.82,132.86,75.45,131.92,74.89Z"/><path class="cls-4" d="M129.84,72.05,84.27,45.77A3.41,3.41,0,0,1,82.83,43V14.67c0-1.06.63-1.57,1.44-1.06l45.57,26.28a3.46,3.46,0,0,1,1.46,2.76V71C131.3,72.05,130.66,72.56,129.84,72.05Z"/><path class="cls-5" d="M128.84,70.44,85.27,45.3a3.52,3.52,0,0,1-1.38-2.58V16.25c0-1,.63-1.45,1.38-1l43.57,25.14A3.52,3.52,0,0,1,130.22,43V69.42C130.16,70.44,129.51,70.86,128.84,70.44Z"/><path class="cls-6" d="M107.8,25.6c0,.5-.38.69-.81.44a2,2,0,0,1-.83-1.38c0-.5.38-.7.83-.45A1.81,1.81,0,0,1,107.8,25.6Z"/><ellipse class="cls-3" cx="107.06" cy="25.17" rx="0.31" ry="0.56" transform="translate(1.76 56.9) rotate(-30)"/><path class="cls-6" d="M109.57,26.6a.26.26,0,0,1-.21.29.33.33,0,0,1-.17,0,.7.7,0,0,1-.37-.68c0-.25.18-.32.37-.2A.68.68,0,0,1,109.57,26.6Z"/><path class="cls-1" d="M84.58,52.21l-2-1.14a1.73,1.73,0,0,0-1.76,0l-1.94,1.14a.52.52,0,0,0-.33.65l0,0a.33.33,0,0,0,.31.31l1.94,1.14a2.16,2.16,0,0,0,1.76,0l2-1.14a.55.55,0,0,0,.32-.69A1,1,0,0,0,84.58,52.21Z"/><path class="cls-1" d="M89.51,55.05,87.57,53.9a2.16,2.16,0,0,0-1.76,0l-1.94,1.15a.52.52,0,0,0-.32.67h0a.44.44,0,0,0,.31.31l2,1.14a2.08,2.08,0,0,0,1.76,0L89.58,56a.51.51,0,0,0,.32-.65v0C89.79,55.23,89.73,55.1,89.51,55.05Z"/><path class="cls-1" d="M94.5,57.93l-2-1.15a2.16,2.16,0,0,0-1.76,0l-1.94,1.15a.52.52,0,0,0-.31.69h0a.48.48,0,0,0,.31.31l1.94,1.15a2.16,2.16,0,0,0,1.76,0l2-1.15a.54.54,0,0,0,.32-.68A.82.82,0,0,0,94.5,57.93Z"/><path class="cls-1" d="M99.4,60.76l-1.94-1.14a2.16,2.16,0,0,0-1.76,0l-2,1.14a.53.53,0,0,0-.31.68h0a.77.77,0,0,0,.31.31l2,1.14a1.73,1.73,0,0,0,1.76,0l1.94-1.14a.51.51,0,0,0,.33-.63l0-.06C99.71,60.94,99.58,60.82,99.4,60.76Z"/><path class="cls-1" d="M104.37,63.64l-1.94-1.14a2.16,2.16,0,0,0-1.76,0l-2,1.14a.55.55,0,0,0-.31.69h0a.77.77,0,0,0,.31.31l2,1.14a2.16,2.16,0,0,0,1.76,0l1.94-1.14a.51.51,0,0,0,.33-.63s0,0,0-.06A.46.46,0,0,0,104.37,63.64Z"/><path class="cls-1" d="M109.32,66.46l-1.94-1.14a2.16,2.16,0,0,0-1.76,0l-2,1.14a.55.55,0,0,0-.31.7h0a.5.5,0,0,0,.31.31l2,1.14a2.16,2.16,0,0,0,1.76,0l1.94-1.14a.52.52,0,0,0,.31-.67v0A.86.86,0,0,0,109.32,66.46Z"/><path class="cls-1" d="M114.21,69.36l-1.94-1.15a2.16,2.16,0,0,0-1.76,0l-2,1.15a.53.53,0,0,0-.33.66v0c.07.19.2.31.32.31l2,1.14a1.78,1.78,0,0,0,1.76,0l1.94-1.14a.53.53,0,0,0,.32-.68C114.53,69.48,114.4,69.42,114.21,69.36Z"/><path class="cls-1" d="M119.23,72.18l-2-1.14a1.78,1.78,0,0,0-1.76,0l-1.94,1.14a.53.53,0,0,0-.33.66v0c.07.18.2.3.32.3l1.94,1.15a2.16,2.16,0,0,0,1.76,0l2-1.15a.56.56,0,0,0,.32-.68A.76.76,0,0,0,119.23,72.18Z"/><path class="cls-1" d="M124.13,75l-1.94-1.14a2.16,2.16,0,0,0-1.76,0l-2,1.14a.53.53,0,0,0-.32.67.55.55,0,0,0,.32.33l2,1.14a2.16,2.16,0,0,0,1.76,0L124.13,76a.54.54,0,0,0,.32-.69A.49.49,0,0,0,124.13,75Z"/><path class="cls-1" d="M74.4,58.12,72.46,57a2.16,2.16,0,0,0-1.76,0l-1.94,1.14a.53.53,0,0,0-.31.68h0a.86.86,0,0,0,.31.32l1.94,1.14a2.16,2.16,0,0,0,1.76,0l1.94-1.14a.53.53,0,0,0,.34-.67l0,0C74.72,58.3,74.66,58.18,74.4,58.12Z"/><path class="cls-1" d="M79.36,60.94,77.42,59.8a1.78,1.78,0,0,0-1.76,0l-1.94,1.14a.53.53,0,0,0-.31.68h0a.8.8,0,0,0,.31.32l1.94,1.14a2.16,2.16,0,0,0,1.76,0L79.36,62a.53.53,0,0,0,.32-.65A.7.7,0,0,0,79.36,60.94Z"/><path class="cls-1" d="M84.32,63.84l-1.94-1.15a2.16,2.16,0,0,0-1.76,0l-1.94,1.15a.52.52,0,0,0-.31.67h0a.49.49,0,0,0,.31.32L80.62,66a2.08,2.08,0,0,0,1.76,0l1.94-1.14a.54.54,0,0,0,.33-.69h0A.39.39,0,0,0,84.32,63.84Z"/><path class="cls-1" d="M89.23,66.66l-2-1.14a2.08,2.08,0,0,0-1.76,0l-1.94,1.14a.53.53,0,0,0,0,1l1.94,1.15a2.16,2.16,0,0,0,1.76,0l2-1.15a.53.53,0,0,0,.28-.65A.36.36,0,0,0,89.23,66.66Z"/><path class="cls-1" d="M94.19,69.48l-2-1.14a2.16,2.16,0,0,0-1.76,0l-1.94,1.14a.53.53,0,0,0-.33.67v0c.07.18.2.31.32.31l1.94,1.14a2.16,2.16,0,0,0,1.76,0l2-1.14a.53.53,0,0,0,.31-.68h0A.8.8,0,0,0,94.19,69.48Z"/><path class="cls-1" d="M99.08,72.37l-1.94-1.14a2.16,2.16,0,0,0-1.76,0l-1.95,1.14a.53.53,0,0,0-.31.68h0a.52.52,0,0,0,.31.32l1.95,1.14a2.16,2.16,0,0,0,1.76,0l1.94-1.14a.53.53,0,0,0,.33-.67v0C99.4,72.56,99.27,72.43,99.08,72.37Z"/><path class="cls-1" d="M104,75.2l-1.94-1.15a2.16,2.16,0,0,0-1.76,0l-2,1.15a.52.52,0,0,0-.31.67h0a.52.52,0,0,0,.31.32l2,1.14a2.11,2.11,0,0,0,1.74,0l2-1.14a.58.58,0,0,0,.32-.7C104.37,75.38,104.23,75.25,104,75.2Z"/><path class="cls-1" d="M109,78.09l-1.94-1.15a2.16,2.16,0,0,0-1.76,0l-2,1.15a.52.52,0,0,0-.31.67h0a.74.74,0,0,0,.31.32l2,1.15a1.78,1.78,0,0,0,1.76,0L109,79.09a.53.53,0,0,0,.33-.66v0C109.32,78.27,109.12,78.14,109,78.09Z"/><path class="cls-1" d="M69.14,66.84l-6.86-4a2.16,2.16,0,0,0-1.76,0L58.58,64a.54.54,0,0,0,0,1l6.85,4a1.78,1.78,0,0,0,1.76,0l2-1.14a.6.6,0,0,0,.37-.7A1.05,1.05,0,0,0,69.14,66.84Z"/><path class="cls-1" d="M93.94,81.16,72.15,68.59a2.16,2.16,0,0,0-1.76,0l-1.94,1.14a.54.54,0,0,0-.32.69,1,1,0,0,0,.32.32L90.23,83.31a2.16,2.16,0,0,0,1.76,0l2-1.14a.56.56,0,0,0,.3-.7C94.19,81.29,94.08,81.16,93.94,81.16Z"/><path class="cls-1" d="M103.73,86.81l-6.86-4a2.08,2.08,0,0,0-1.76,0l-1.94,1.14a.53.53,0,0,0-.32.68.49.49,0,0,0,.32.31L100,89a1.78,1.78,0,0,0,1.76,0l1.94-1.15a.52.52,0,0,0,.31-.67h0C104,87,103.91,86.88,103.73,86.81Z"/><path class="cls-1" d="M82,56.61l-6.85-4a2.16,2.16,0,0,0-1.76,0l-2,1.14a.55.55,0,0,0-.32.69.62.62,0,0,0,.32.32l6.86,3.95a2.16,2.16,0,0,0,1.76,0L82,57.62a.54.54,0,0,0,.33-.69h0C82.26,56.73,82.13,56.61,82,56.61Z"/><path class="cls-1" d="M86.91,59.44l-2-1.15a2.14,2.14,0,0,0-1.75,0l-2,1.15a.51.51,0,0,0-.33.65s0,0,0,0a.32.32,0,0,0,.31.31l2,1.14a1.76,1.76,0,0,0,1.75,0l2-1.14a.62.62,0,0,0,.31-.68A.74.74,0,0,0,86.91,59.44Z"/><path class="cls-1" d="M91.87,62.26l-2-1.14a2.06,2.06,0,0,0-1.75,0l-2,1.14a.52.52,0,0,0-.33.65s0,0,0,.05a.32.32,0,0,0,.31.3l2,1.15a2.14,2.14,0,0,0,1.75,0l2-1.15a.52.52,0,0,0,.31-.67h0A.74.74,0,0,0,91.87,62.26Z"/><path class="cls-1" d="M96.83,65.15l-2-1.14a2.14,2.14,0,0,0-1.75,0l-2,1.14a.52.52,0,0,0-.31.67v0a.54.54,0,0,0,.31.32l2,1.14a2.14,2.14,0,0,0,1.75,0l2-1.14a.53.53,0,0,0,.31-.68h0A.74.74,0,0,0,96.83,65.15Z"/><path class="cls-1" d="M101.72,68l-1.94-1.14a2.16,2.16,0,0,0-1.76,0l-2,1.14a.54.54,0,0,0-.32.69h0a.86.86,0,0,0,.32.31l2,1.14a2.16,2.16,0,0,0,1.76,0L101.72,69a.52.52,0,0,0,.33-.65s0,0,0,0S101.91,68,101.72,68Z"/><path class="cls-1" d="M106.66,70.86l-2-1.14a1.78,1.78,0,0,0-1.76,0L101,70.86a.54.54,0,0,0-.32.69,1,1,0,0,0,.32.32L103,73a2.16,2.16,0,0,0,1.76,0l2-1.14a.5.5,0,0,0,.38-.6v0A.54.54,0,0,0,106.66,70.86Z"/><path class="cls-1" d="M111.64,73.69l-1.94-1.15a2.16,2.16,0,0,0-1.76,0l-2,1.15a.54.54,0,0,0-.31.69h0a.47.47,0,0,0,.3.31l2,1.15a2.14,2.14,0,0,0,1.75,0l2-1.15a.5.5,0,0,0,.33-.63.08.08,0,0,0,0,0A.45.45,0,0,0,111.64,73.69Z"/><path class="cls-1" d="M116.54,76.58l-2-1.14a2.08,2.08,0,0,0-1.76,0l-2,1.14a.52.52,0,0,0-.31.67h0a.48.48,0,0,0,.3.32l2,1.15a2.16,2.16,0,0,0,1.76,0l2-1.15a.52.52,0,0,0,.31-.69h0a.29.29,0,0,0-.29-.31Z"/><path class="cls-1" d="M121.51,79.4l-2-1.14a2.16,2.16,0,0,0-1.76,0l-1.94,1.14a.49.49,0,0,0-.33.63.14.14,0,0,0,0,.06.33.33,0,0,0,.31.32l1.94,1.14a1.78,1.78,0,0,0,1.76,0l2-1.14a.53.53,0,0,0,.32-.68h0A.74.74,0,0,0,121.51,79.4Z"/><path class="cls-1" d="M66.87,59.63l-1.94-1.14a1.73,1.73,0,0,0-1.76,0l-1.94,1.14a.54.54,0,0,0-.32.69.82.82,0,0,0,.32.32l1.94,1.14a2.16,2.16,0,0,0,1.76,0l1.94-1.14A.52.52,0,0,0,67.2,60v0A.74.74,0,0,0,66.87,59.63Z"/><path class="cls-1" d="M71.78,62.44l-2-1.14a2.14,2.14,0,0,0-1.75,0l-1.95,1.14a.53.53,0,0,0-.31.68h0a.52.52,0,0,0,.31.32l1.95,1.14a2.14,2.14,0,0,0,1.75,0l2-1.14a.56.56,0,0,0,.31-.7h0C72.08,62.64,72,62.51,71.78,62.44Z"/><path class="cls-1" d="M76.74,65.34l-2-1.14a2.14,2.14,0,0,0-1.75,0l-2,1.14a.53.53,0,0,0-.31.68h0a.48.48,0,0,0,.31.31l2,1.14a2.14,2.14,0,0,0,1.75,0l2-1.14a.53.53,0,0,0,.31-.68h0A.49.49,0,0,0,76.74,65.34Z"/><path class="cls-1" d="M81.7,68.16l-2-1.15A2.14,2.14,0,0,0,78,67L76,68.16a.52.52,0,0,0-.31.67h0a.74.74,0,0,0,.31.32L78,70.3a1.76,1.76,0,0,0,1.75,0l2-1.14a.54.54,0,0,0,.31-.69h0A.62.62,0,0,0,81.7,68.16Z"/><path class="cls-1" d="M86.59,71.05l-2-1.15a2.16,2.16,0,0,0-1.76,0l-1.94,1.15a.53.53,0,0,0-.33.66v0c.07.19.2.31.32.31l1.94,1.15a2.16,2.16,0,0,0,1.76,0l2-1.15a.54.54,0,0,0,.32-.68.3.3,0,0,0-.28-.32Z"/><path class="cls-1" d="M91.55,73.87l-2-1.14a2.16,2.16,0,0,0-1.76,0L85.9,73.87a.54.54,0,0,0-.32.69.59.59,0,0,0,.32.32L87.84,76a2.16,2.16,0,0,0,1.76,0l2-1.14a.54.54,0,0,0,.32-.69h0C91.87,74.06,91.8,73.94,91.55,73.87Z"/><path class="cls-1" d="M96.51,76.7l-2-1.14a2.16,2.16,0,0,0-1.76,0L90.86,76.7a.52.52,0,0,0-.33.65s0,0,0,0c.07.19.2.32.32.32l1.94,1.14a2.16,2.16,0,0,0,1.76,0l2-1.14a.54.54,0,0,0,.32-.69h0A.86.86,0,0,0,96.51,76.7Z"/><path class="cls-1" d="M101.41,79.58l-2-1.14a1.72,1.72,0,0,0-1.75,0l-2,1.14a.51.51,0,0,0-.33.63.14.14,0,0,1,0,.06.34.34,0,0,0,.31.31l2,1.14a2.14,2.14,0,0,0,1.75,0l2-1.14a.5.5,0,0,0,.33-.63s0,0,0-.06S101.59,79.65,101.41,79.58Z"/><path class="cls-1" d="M106.37,82.42l-2-1.14a2.06,2.06,0,0,0-1.75,0l-2,1.14a.52.52,0,0,0-.31.67h0a.52.52,0,0,0,.31.32l2,1.15a2.14,2.14,0,0,0,1.75,0l2-1.15a.52.52,0,0,0,.31-.69h0A.42.42,0,0,0,106.37,82.42Z"/><path class="cls-1" d="M114,80.91,112,79.77a2.16,2.16,0,0,0-1.76,0l-2,1.14a.56.56,0,0,0-.32.69,1,1,0,0,0,.32.32l1.64.93-4.21,2.45a.54.54,0,0,0-.32.69h0a.53.53,0,0,0,.32.3l1.94,1.15a2.16,2.16,0,0,0,1.76,0l7-4.08a.54.54,0,0,0,.32-.69.53.53,0,0,0-.32-.32l-1.94-1.14Z"/><path class="cls-7" d="M119,37.3,80.5,15.05V43a3.4,3.4,0,0,0,.32,1.44l23.29,13.42v.94l25.14,14.5V49l-10.29-6Z"/><polygon class="cls-1" points="26.88 68.78 19.85 64.7 26.88 60.62 33.91 64.7 26.88 68.78"/><polygon class="cls-1" points="37.93 62.82 31.09 58.86 37.93 54.97 44.71 58.86 37.93 62.82"/><polygon class="cls-1" points="48.92 56.67 41.89 52.59 48.92 48.51 56.01 52.59 48.92 56.67"/><polygon class="cls-1" points="59.97 50.96 52.24 46.5 59.97 42.04 67.69 46.5 59.97 50.96"/><polygon class="cls-8" points="59.97 49.7 54.44 46.56 54.44 27.09 59.97 30.3 59.97 49.7"/><polygon class="cls-9" points="59.97 49.7 59.97 30.3 65.49 27.09 65.49 46.56 59.97 49.7"/><polygon class="cls-5" points="59.97 30.3 54.44 27.09 59.97 23.89 65.49 27.09 59.97 30.3"/><polygon class="cls-4" points="48.92 55.72 43.4 52.52 43.4 17.17 48.92 20.32 48.92 55.72"/><polygon class="cls-5" points="48.92 55.72 48.92 20.32 54.44 17.17 54.44 52.52 48.92 55.72"/><polygon class="cls-10" points="48.92 20.32 43.4 17.17 48.92 13.97 54.44 17.17 48.92 20.32"/><polygon class="cls-11" points="37.93 62.06 32.4 58.86 32.4 32.05 37.93 35.2 37.93 62.06"/><polygon class="cls-8" points="37.93 62.06 37.93 35.2 43.4 32.05 43.4 58.86 37.93 62.06"/><polygon class="cls-8" points="37.93 35.2 32.4 32.05 37.93 28.85 43.4 32.05 37.93 35.2"/><polygon class="cls-12" points="26.88 67.85 21.35 64.7 21.35 50.64 26.88 53.85 26.88 67.85"/><polygon class="cls-13" points="26.88 67.85 26.88 53.85 32.4 50.64 32.4 64.7 26.88 67.85"/><polygon class="cls-14" points="26.88 53.85 21.35 50.64 26.88 47.44 32.4 50.64 26.88 53.85"/><polygon class="cls-2" points="115.84 66.66 73.84 42.42 73.84 13.23 115.84 37.46 115.84 66.66"/><polygon class="cls-3" points="115.84 41.68 73.84 17.44 73.84 13.23 115.84 37.46 115.84 41.68"/><polygon class="cls-3" points="104.54 47.07 113.09 52.03 113.09 42.17 104.54 37.21 104.54 47.07"/><polygon class="cls-5" points="104.54 58.37 113.09 63.33 113.09 53.47 104.54 48.51 104.54 58.37"/><polygon class="cls-15" points="76.48 42.17 85.02 47.13 85.02 37.28 76.48 32.32 76.48 42.17"/><path class="cls-3" d="M88.91,48.73l11.87,6.85c.63.38,1.14,0,1.14-.88V48.58a2.8,2.8,0,0,0-1.14-2.29L88.91,39.44c-.62-.38-1.15,0-1.15.88v6.14A3,3,0,0,0,88.91,48.73Z"/><path class="cls-4" d="M101.47,36.65,88.22,29a1.07,1.07,0,0,1-.43-.82h0c0-.31.18-.51.43-.31l13.25,7.66a1.09,1.09,0,0,1,.44.82h0C101.91,36.65,101.72,36.77,101.47,36.65Z"/><path class="cls-4" d="M101.47,42.42,88.22,34.76a1,1,0,0,1-.43-.81h0c0-.32.18-.5.43-.32l13.25,7.67a1,1,0,0,1,.44.81h0C101.91,42.42,101.72,42.54,101.47,42.42Z"/><path class="cls-5" d="M98.14,37.58l-10-5.71a1.16,1.16,0,0,1-.44-.82h0c0-.31.19-.51.44-.31l10,5.71a1.09,1.09,0,0,1,.44.81h0C98.58,37.58,98.39,37.78,98.14,37.58Z"/><path class="cls-5" d="M94.37,41.23l-6.21-3.58a1.14,1.14,0,0,1-.44-.82h0c0-.31.19-.49.44-.31l6.21,3.58a1.17,1.17,0,0,1,.45.82h0C94.82,41.23,94.62,41.36,94.37,41.23Z"/><ellipse class="cls-3" cx="80.75" cy="28.43" rx="3.52" ry="6.02" transform="translate(-3.39 44.18) rotate(-30)"/><polygon class="cls-7" points="115.84 66.66 115.84 40.92 97.83 30.56 97.83 56.3 115.84 66.66"/><polygon class="cls-2" points="127.27 50.95 99.15 34.7 99.15 63.89 127.27 80.16 127.27 50.95"/><polygon class="cls-3" points="127.27 50.95 99.15 34.7 99.15 38.91 127.27 55.17 127.27 50.95"/><path class="cls-5" d="M102.54,63.77l11.86,6.85c.63.38,1.15,0,1.15-.88V63.58a2.81,2.81,0,0,0-1.15-2.28l-11.86-6.86c-.63-.38-1.2,0-1.2.88v6.22A3,3,0,0,0,102.54,63.77Z"/><path class="cls-16" d="M115.09,51.65,101.84,44a1.09,1.09,0,0,1-.43-.83h0c0-.31.18-.5.43-.31l13.25,7.66a1.15,1.15,0,0,1,.45.81h0C115.54,51.65,115.34,51.78,115.09,51.65Z"/><path class="cls-16" d="M115.09,57.42l-13.25-7.65a1,1,0,0,1-.43-.81h0c0-.32.18-.51.43-.32l13.25,7.65a1.17,1.17,0,0,1,.45.83h0C115.54,57.42,115.34,57.55,115.09,57.42Z"/><path class="cls-16" d="M111.76,52.59l-10-5.77a1.15,1.15,0,0,1-.45-.81h0c0-.32.2-.51.45-.32l10,5.71a1.14,1.14,0,0,1,.45.82h0C112.21,52.59,112,52.78,111.76,52.59Z"/><path class="cls-16" d="M108,56.24l-6.2-3.58a1.17,1.17,0,0,1-.45-.82h0c0-.31.2-.51.45-.31L108,55.1a1.17,1.17,0,0,1,.45.83h0C108.44,56.24,108.24,56.36,108,56.24Z"/><path class="cls-13" d="M124.63,56.42h0a1.14,1.14,0,0,0-.5-.94l-4.64-2.7a1.06,1.06,0,0,0-1.44.37h0a.93.93,0,0,0-.13.56V72a1.15,1.15,0,0,0,.51.95l4.65,2.69a1,1,0,0,0,1.42-.35l0,0a1.27,1.27,0,0,0,.12-.51Z"/><ellipse class="cls-17" cx="76.11" cy="107.6" rx="8.73" ry="5.02"/><path class="cls-18" d="M90.66,64.46a2,2,0,0,0-1.15-.06h0a1,1,0,0,0-1.06.75v.19a1.38,1.38,0,0,0,1.14,1.57h.32a1.51,1.51,0,0,0,.88-.25h0a1.21,1.21,0,0,0,.56-.88A1.49,1.49,0,0,0,90.66,64.46Z"/><path class="cls-19" d="M88.91,65.87a3,3,0,0,1,.5,1.45l-2.63,2.29a10.68,10.68,0,0,1-2,1.31L79.23,73a1.81,1.81,0,0,1-2.37-1h0c0-.07-.07-.13-.07-.26a.22.22,0,0,0-.06-.19h0a1.73,1.73,0,0,1,1.36-1.94h0l5.41-1.76,4.57-2.63A1.16,1.16,0,0,1,88.91,65.87Z"/><path class="cls-20" d="M80.5,105.71s.12,1.82-.38,2.29-5.34.75-5.52-.26,2.64-1.5,2.64-1.5Z"/><path class="cls-19" d="M81.75,86.5,80.5,105.71a3.24,3.24,0,0,1-3.26.5l-1.2-21a29.76,29.76,0,0,0,4.08-.61c.63-.2.38-.45.88-.63Z"/><path class="cls-20" d="M76.11,106.59s0,1.89-.51,2.29-5.28.5-5.4-.56S72.91,107,72.91,107Z"/><path class="cls-19" d="M79,87.81l-3,18.78a3.45,3.45,0,0,1-3.26.38l-.07-21.42a22.31,22.31,0,0,0,4.08-.5c.63-.13,1.26-.31,1.76-.44Z"/><path class="cls-18" d="M76,68.8h0a3.35,3.35,0,0,1-3.2-3.09l-.18-1.94A2.79,2.79,0,0,1,75,60.64h.25a3.31,3.31,0,0,1,3.22,3.07l.18,1.94a2.83,2.83,0,0,1-2.39,3.15Z"/><path class="cls-18" d="M78,67.16l.51,2.29a2.77,2.77,0,0,1-3.72.44l.38-2.45a1.36,1.36,0,0,1,1-1.15l.7-.12a1.06,1.06,0,0,1,1.13,1Z"/><path class="cls-21" d="M78.8,64.09A3.3,3.3,0,0,0,76.64,60h0a2.87,2.87,0,0,0-1-.13h0a3.47,3.47,0,0,0-1.14.2,2.38,2.38,0,0,0-1.55,1.29,4.06,4.06,0,0,0-.54,2.79s.38,3,1.51,3.83,3.58-.76,3.07-2.58.69-2.45.76-1.45.25,1.64.5,1.58a1.19,1.19,0,0,0,.31-.57h0A3.67,3.67,0,0,0,78.8,64.09Z"/><path class="cls-22" d="M78.3,68.54a9.68,9.68,0,0,0-3.77.63l-.24,1.15,4.94-.52Z"/><path class="cls-11" d="M78.87,69.42s-6.5.06-6.5,2.83c-.25,8,0,16.64,0,16.64s6.34.5,9.54-1.71C81.88,87.18,83.51,69.17,78.87,69.42Z"/><path class="cls-4" d="M62,76.83l3.26-2.89a.81.81,0,0,0,.19-.76l-1.31-6.65c-.07-.25-.25-.37-.45-.19L60.4,69.23a1.13,1.13,0,0,0-.25.75l1.33,6.6C61.6,76.89,61.79,77,62,76.83Z"/><path class="cls-22" d="M62.16,75.63l2.52-2.19a1,1,0,0,0,.18-.56L63.8,67.72a.17.17,0,0,0-.31-.12l-2.55,2.2a.58.58,0,0,0-.19.62l1.07,5.08C61.91,75.7,62.08,75.76,62.16,75.63Z"/><path class="cls-18" d="M62.42,77.58a3.9,3.9,0,0,1-1.15-.82,1.15,1.15,0,0,1,.13-1.44,1.81,1.81,0,0,1,1.83-.25h0a1.39,1.39,0,0,1,1.25,1.31,1.19,1.19,0,0,1-1,1.37l-.14,0h0a2.58,2.58,0,0,1-.82-.19Z"/><path class="cls-19" d="M63.74,76.33a4.33,4.33,0,0,0,.13,1.56L68.76,79a1.77,1.77,0,0,0,1.63-.6L75,73.61a2,2,0,0,0-.63-2.52h0a1.57,1.57,0,0,0-2.19.32.22.22,0,0,1-.13.19l-3.5,4.33L64,75.42A2.22,2.22,0,0,0,63.74,76.33Z"/><path class="cls-23" d="M63.23,68.48l-1.44,1.25a.22.22,0,0,1-.31,0,.27.27,0,0,1-.07-.14h0a.59.59,0,0,1,.18-.63L63,67.72c.13-.12.31-.06.38.13h0A.6.6,0,0,1,63.23,68.48Z"/><path class="cls-18" d="M91.8,64.14,90,65a.34.34,0,0,1-.46-.15v0h0a.39.39,0,0,1,.19-.5h0l1.82-.88a.41.41,0,0,1,.51.18h0a.39.39,0,0,1-.2.5Z"/><ellipse class="cls-1" cx="124.7" cy="108.53" rx="20.02" ry="11.55"/><path class="cls-4" d="M143.47,102.82h0c0-2.77-1.82-5.52-5.47-7.66-7.34-4.15-19.21-4.15-26.49,0-3.63,2.14-5.46,4.89-5.46,7.66h0v5.46h0c0,2.77,1.83,5.52,5.46,7.66,7.35,4.2,19.21,4.2,26.49,0,3.65-2.14,5.47-4.89,5.47-7.66h0Z"/><path class="cls-11" d="M143.47,102.82h0c0-2.45-1.44-4.89-4.27-6.86-2.38,5.53-7.16,16.84-7.16,16.84v5.46a22.7,22.7,0,0,0,6-2.29c3.65-2.13,5.47-4.89,5.47-7.65h0Z"/><path class="cls-12" d="M114,117.2A30.64,30.64,0,0,0,132,118.27v-5.46L114,111.73Z"/><ellipse class="cls-2" cx="124.7" cy="102.82" rx="18.78" ry="10.8"/><path class="cls-24" d="M114,111.73A30.64,30.64,0,0,0,132,112.81l-7.28-10Z"/><path class="cls-8" d="M138,95.16a25.65,25.65,0,0,0-7-2.57l-6.28,10.17,7.28,10a21.64,21.64,0,0,0,5.9-2.29C145.3,106.27,145.3,99.37,138,95.16Z"/><path class="cls-5" d="M106.66,99.93c-1.76,3.64-.13,7.67,4.83,10.55a18.48,18.48,0,0,0,2.57,1.25l10.68-8.91Z"/><path class="cls-1" d="M37.5,95.16c-7.27-4.19-19-4.19-26.42,0-3.71,2.15-5.8,5.07-5.8,8.27s2,6.06,5.8,8.26a27.26,27.26,0,0,0,13.18,3.14,27,27,0,0,0,13.18-3.14c3.72-2.15,5.76-5.07,5.76-8.26S41.21,97.35,37.5,95.16Zm-1.57,8.27c0,1.56-1.15,3.08-3.19,4.24-4.66,2.66-12.25,2.66-17,0-2-1.21-3.19-2.73-3.19-4.24s1.15-3.1,3.19-4.3a17.23,17.23,0,0,1,8.47-2,17.24,17.24,0,0,1,8.48,2C34.83,100.33,35.93,101.86,35.93,103.43Z"/><path class="cls-11" d="M42.2,97.87c0-2.67-1.72-5.29-5.22-7.33-7-4-18.32-4-25.32,0-3.51,2-5.23,4.67-5.23,7.33h0v5.23h0c0,2.67,1.72,5.28,5.23,7.33,7,4,18.31,4,25.32,0,3.5-2.05,5.22-4.66,5.22-7.33h0Zm-5.71,7.38H12.12c-1.35-2.52-.25-5.39,3.15-7.38,5-2.86,13-2.86,18,0,3.45,2,4.55,4.86,3.19,7.38Z"/><path class="cls-4" d="M37,90.55a25.45,25.45,0,0,0-11.83-3l-.26,3v5.22a17.48,17.48,0,0,1,8.4,2.14c3.46,2,4.5,4.86,3.14,7.38H32.37l1,1.51V112a18.32,18.32,0,0,0,3.61-1.63c3.5-2,5.24-4.66,5.24-7.32h0V97.87h0C42.2,95.21,40.42,92.59,37,90.55Z"/><path class="cls-25" d="M12.39,110.8l.57.31H13c5.85,2.73,14,3,20.35.9v-5.24l-1.73-1.51H12.12l-.15-.32h0l-.36.21v5.23a3.9,3.9,0,0,1,.62.37Z"/><path class="cls-16" d="M37,90.55c-7-4-18.32-4-25.32,0s-7,10.57,0,14.6,18.31,4,25.32,0S43.93,94.58,37,90.55Zm-3.67,12.51c-5,2.85-13,2.85-18,0s-5-7.54,0-10.41,13-2.86,18,0,4.9,7.53,0,10.41Z"/><path class="cls-5" d="M37,90.55a25.64,25.64,0,0,0-11.43-3l-.63,3h0a17.57,17.57,0,0,1,8.42,2.15c5,2.85,5,7.53,0,10.41a14.53,14.53,0,0,1-3,1.31l3,2.46A18.88,18.88,0,0,0,37,105.26C43.93,101.12,43.93,94.58,37,90.55Z"/><path class="cls-8" d="M15.27,92.65a18.48,18.48,0,0,1,9.57-2.14h0l.62-3h0a26.54,26.54,0,0,0-13.85,3c-7,4.07-7,10.61,0,14.64h.05L15.22,103C10.33,100.13,10.33,95.52,15.27,92.65Z"/><path class="cls-1" d="M63.29,110.8l-.53-.32a9.6,9.6,0,0,0-8.73.32L21.18,129.74A4,4,0,0,0,18.83,133a3.06,3.06,0,0,0,1.77,2.67l.52.31a7.59,7.59,0,0,0,3.88.89,9.83,9.83,0,0,0,4.86-1.25l32.85-18.94a4.05,4.05,0,0,0,2.35-3.29A3,3,0,0,0,63.29,110.8Z"/><path class="cls-26" d="M64.23,113v-5.12h0a2.49,2.49,0,0,0-1.36-1.79l-.53-.31c-2-1.15-5.59-1-8,.31L21.54,125a3.24,3.24,0,0,0-1.9,2.25h0a.92.92,0,0,0,0,.57v4.56h0a2.18,2.18,0,0,0,1.3,2.3l.52.31c2,1.16,5.6,1,8-.31l32.82-18.94C63.71,115,64.34,114,64.23,113Z"/><path class="cls-2" d="M64.23,113v-5.12h0a2.49,2.49,0,0,0-1.36-1.79l-.53-.31c-2-1.15-5.59-1-8,.31l-7.87,4.6V125l15.84-9.15c1.37-.79,2-1.84,1.91-2.86Z"/><path class="cls-27" d="M42.47,113,21.6,125a3.3,3.3,0,0,0-1.91,2.25h0a1.37,1.37,0,0,0,0,.57v4.56h0a2.21,2.21,0,0,0,1.31,2.3l.52.31c2.05,1.16,5.6,1,8-.31l13-7.48Z"/><path class="cls-2" d="M21.6,125.08l32.79-18.94c2.36-1.36,5.92-1.51,8-.31l.53.31c2,1.15,1.78,3.25-.57,4.61L29.49,129.63c-2.35,1.37-5.9,1.52-7.95.32l-.52-.32C19,128.48,19.25,126.43,21.6,125.08Z"/><path class="cls-28" d="M62.87,106.09l-.53-.31c-2-1.15-5.59-1-8,.31L51.05,108l7.79,4.66,3.5-2C64.61,109.29,64.91,107.29,62.87,106.09Z"/><polygon class="cls-2" points="36.4 116.5 44.09 121.21 58.84 112.68 51.05 108.08 36.4 116.5"/><polygon class="cls-28" points="38.07 124.66 51.83 116.71 44.04 112.1 30.39 119.95 38.07 124.66"/><polygon class="cls-2" points="51.83 121.89 51.83 116.71 38.07 124.66 38.07 129.84 51.83 121.89"/><polygon class="cls-27" points="51.83 121.89 58.84 117.86 58.84 112.68 51.83 116.71 51.83 121.89"/><path class="cls-1" d="M67.8,128.81l23.42,13.51a1,1,0,0,0,.81,0l23.41-13.51a.8.8,0,0,0,.32-1.07.84.84,0,0,0-.44-.37L91.9,118.83a.77.77,0,0,0-.56,0l-23.42,8.54a.71.71,0,0,0-.48.89.36.36,0,0,0,0,.11A1.16,1.16,0,0,0,67.8,128.81Z"/><polygon class="cls-16" points="91.62 141.12 91.62 106.72 68.7 127.87 91.62 141.12"/><polygon class="cls-8" points="68.7 127.87 91.62 141.12 91.62 119.46 83.14 114.56 68.7 127.87"/><polygon class="cls-5" points="68.7 127.87 91.62 141.12 91.62 126.86 78.18 119.08 68.7 127.87"/><polygon class="cls-25" points="91.62 106.72 114.59 127.87 91.62 141.12 91.62 106.72"/><polygon class="cls-11" points="91.62 119.46 91.62 141.12 114.59 127.87 100.15 114.56 91.62 119.46"/><polygon class="cls-4" points="91.62 126.86 91.62 141.12 114.59 127.87 105.11 119.08 91.62 126.86"/><polygon class="cls-13" points="68.7 127.87 91.62 141.12 91.62 134.21 73.28 123.61 68.7 127.87"/><polygon class="cls-12" points="91.62 134.21 91.62 141.12 114.59 127.87 110 123.61 91.62 134.21"/></g><path class="cls-29" d="M38.75,92.59l8.53-4.33a4.06,4.06,0,0,1,3.2-.25l2.29,1.25c.43.26,2,1.15,1,1.57-3.09,1.44-6,3.14-9,4.64a5.4,5.4,0,0,1-2.29.32,5.46,5.46,0,0,1-2.5-.7l-1-.5c-.69-.37-1-.74-1.06-1.14S38.19,92.84,38.75,92.59Z"/><path class="cls-30" d="M41.51,46.5a6.07,6.07,0,0,0,.13,2.58c.5,3,0,3.58-1,6.65l4.72-3.89a14.71,14.71,0,0,0-.07-1.63L43.2,48.38Z"/><path class="cls-31" d="M60.94,50.65c.38.32-.31.56-.5.63s-.81,0-.94.18-1.76,0-1.76,0A2.14,2.14,0,0,1,59,50.9a11.53,11.53,0,0,0,1.44,0A.8.8,0,0,0,60.94,50.65Z"/><path class="cls-32" d="M61,50.77c.2.32-.5.51-.68.56a2,2,0,0,0-.76.2c-.12,0-.68,0-.5-.2s.63,0,.75-.12C60.15,51.09,60.66,51.15,61,50.77Z"/><path class="cls-33" d="M57.4,51.65h0a.63.63,0,0,1,.75.25c.25.31.38.76.13.94S57,52.21,57.4,51.65Z"/><path class="cls-31" d="M56.77,52.46a7.35,7.35,0,0,1,1-1c.56-.37.88-.44,2.28-.13.38.07.25.07.57,0L62,50.77a1.12,1.12,0,0,1,.63,0,1.92,1.92,0,0,1,0,1c-.06.12-.06,0-.19,0l-1.88.82a.82.82,0,0,1-.38.06c-.94-.25-1.57-.5-2.45.12a2.18,2.18,0,0,1-.57.38Z"/><path class="cls-32" d="M56.9,53.09l.56-.37c.75-.51.94-.63,2.76-.19l1.64-.75c.3-.07.62-.13.68-.07s-.12.32-.56.45l-1.7.81h0c-1.69-.44-1.82-.38-2.45.07-.12.12-.32.18-.57.37Z"/><path class="cls-34" d="M52.94,57.8a1.36,1.36,0,0,1-.63.45A4.05,4.05,0,0,1,51,57.93c-1.15-.56-3.26-2.88-5.4-6.6.25,0,1.76-.74,1.95-.74.62-.19,1,.25,1.32.56A10.84,10.84,0,0,1,50,53.09c.37.7,1.44,1.39,2.07,2.29Z"/><path class="cls-34" d="M57.4,51.65c-.25.38.18,1.15.88,1.26a19.43,19.43,0,0,1-5.59,5.21,1,1,0,0,1-.7.13,2.42,2.42,0,0,1-1.06-.76L52,55.42A32.14,32.14,0,0,1,57.4,51.65Z"/><path class="cls-34" d="M57.71,52.59a.88.88,0,0,0,.57.25,19.16,19.16,0,0,1-5.59,5.21.91.91,0,0,1-.7.13h-.05a5,5,0,0,1-.95-.31c-1.15-.57-3.26-2.89-5.4-6.59.25-.07,1.69-.82,1.82-.82.88-.12,1.38.69,1.76,1.88.25.88,2.14,1.51,1.38,4,.76.76,1.32,1.14,1.51,1.06S53,56.67,53.88,56A29.3,29.3,0,0,0,57.71,52.59Z"/><path class="cls-35" d="M57.4,51.65a.81.81,0,0,0,.12.81c-1.82,1-5.4,3.09-5.53,4.78-.12-.7-.12-1.69.13-1.88A29.35,29.35,0,0,1,57.4,51.65Z"/><path class="cls-31" d="M45.65,64.73c-.43,1.14,0,3.07.32,5.15.18,1.14.5,2.29.63,3.26v.44a6.6,6.6,0,0,1,.12,1.88c-.12,1.26-.68,1.58-.93,3.21-.2,2.06,1,4.34.87,6.63a1.38,1.38,0,0,1-.31.57c-1,1.14,0,.94-.07,2.39,0,.12.57,2.28.57,2.28s1.52.47,1.63.47,1.07-.32,1.07-.32a3.33,3.33,0,0,0-.25-.5,8.92,8.92,0,0,1-.76-4.26,43.33,43.33,0,0,1,1.2-8.48,17.88,17.88,0,0,0,.44-3.33,36.47,36.47,0,0,0-.13-9Z"/><path class="cls-31" d="M42.07,71.12c.38,3.14,1,4.38.83,5.71-.13.88-.95,2.14-1.15,3-.37,1.82.51,4.78.81,7.4,0,.26-.12.51-.12.76a9.2,9.2,0,0,0-.13,1.38,8.65,8.65,0,0,0,.38,2.52c.07.37.25.5.38.93l2.28.32a25,25,0,0,1-.75-3.64,15.11,15.11,0,0,1-.32-1.76c0-2.52.5-3.51.88-6.15A6.77,6.77,0,0,1,45.54,79a7.07,7.07,0,0,0,.56-1.33,6,6,0,0,0,.32-1.88c-.07-1-.2-2.51-.51-4.58l-3.77-.43Z"/><path class="cls-36" d="M42.39,87.81A3.52,3.52,0,0,0,42.07,89c0,.56.25,1.44.25,2.12l0,1.14a1.77,1.77,0,0,0,1,1.64,2.24,2.24,0,0,0,1.89.5c.31-.12.49-.56.06-1.76a21.61,21.61,0,0,1-.69-3.07A10,10,0,0,0,44.94,92c.06.32.13.75-.25.82-1.63.18-1.7-.19-1.83-.63A15.88,15.88,0,0,1,42.39,87.81Z"/><path class="cls-36" d="M49.11,89.63c.19.25.31.63.51,1a5.27,5.27,0,0,1,.37.88.31.31,0,0,1-.07.38c-.37.43-2.19-.38-2.76-.83-.38-.31-.38-.68-.5-1.14-.13-.69-.19-.74-.31-1.44l-.2,1.89-.25.12c-.06-.75-.06-1.76-.18-2.39a3.14,3.14,0,0,1-.13-.68,1.49,1.49,0,0,1,.81-1.51c-.18.5.26,1.31.45,2.39s.88,2.28,1.44,2.37a1.63,1.63,0,0,0,1-.37C49.36,90.2,49.24,89.87,49.11,89.63Z"/><path class="cls-37" d="M49.42,92A5.29,5.29,0,0,1,47.14,91c-.38-.31-.38-.68-.51-1.14-.12-.69-.18-.74-.31-1.44l-.19,1.89-.25.12c-.06-.75-.06-1.76-.18-2.39a3.14,3.14,0,0,1-.13-.68,1.48,1.48,0,0,1,.81-1.51c-.18.5.25,1.31.45,2.39A4.14,4.14,0,0,0,48,90.53,10.89,10.89,0,0,0,49.42,92Z"/><path class="cls-37" d="M42.39,87.81A3.52,3.52,0,0,0,42.07,89c0,.56.25,1.44.25,2.12l0,1.14a1.77,1.77,0,0,0,1,1.64,3,3,0,0,0,1.57.56,2.78,2.78,0,0,1-.94-1.57c-.82,0-.88-.31-1-.68A13.4,13.4,0,0,1,42.39,87.81Z"/><path class="cls-38" d="M46.08,64.27c-.37,1.26-1.49,1.26-1,3.33s1.87,6,1.75,7.85c-.13,1.25-.56,1.51-.81,3.2-.25,2,.31,5,.25,7.15a2,2,0,0,0,2.43,1.45l.21-.07c.25-1.94.68-8.53,1.26-10.67a9.35,9.35,0,0,0,.43-2.88,49.9,49.9,0,0,0-.07-8.73,5.91,5.91,0,0,0-.12-1.57Z"/><path class="cls-39" d="M44.94,67.6c.5,2.08,1.89,6,1.76,7.85-.12,1.25-.57,1.51-.82,3.2-.25,2,.32,5,.25,7.15a1.92,1.92,0,0,0,1.58,1.45c-.32-3.89-.76-7.16.56-10.36a3.23,3.23,0,0,0,.19-1.57,69.48,69.48,0,0,0-1.23-9Z"/><path class="cls-38" d="M43.2,63c-.37,1-1.44,1.58-2,3.43a11.26,11.26,0,0,0,.45,5c.25,1.14.63,2.29.88,3.27a16.84,16.84,0,0,1,.25,1.89c0,1.14-.82,2.13-1,3.2-.37,1.81.13,6,.44,8.53-.31.76,1.63,1.95,2.83,1.08a45.17,45.17,0,0,1,.19-7.8A6.82,6.82,0,0,1,45.59,79a11.45,11.45,0,0,0,.63-1.38c.06-.13.06-.18.13-.31a4.06,4.06,0,0,0,.25-1.89l-.25-7.09.37-.38a23.59,23.59,0,0,0,3.71-3.83,1.68,1.68,0,0,0-.07-.5c0-.18-.06-.31-.06-.5-.18-.82-.56-1.44-.68-2.14-2.52,1.45-4.46,2.14-6.35,1.7-.07.18,0,.25-.07.31Z"/><path class="cls-40" d="M44.08,68.8c.26,1.44.63,4.38.76,5.64a9.22,9.22,0,0,0,.38,2.2c.25.25.68.62,1-.19a14.7,14.7,0,0,0-.07-2.89c0-1.14-.12-4-.18-5.34a17.27,17.27,0,0,1,1.89-1.63c.3,1.58,1.06,8.42,1.14,8.55s.63.49,1-.32c0-.25.31-6.09.18-8.79V65.6a8.31,8.31,0,0,0-.69-3.78,12,12,0,0,1-4.33,1.64c.31,1.14.37,1.14,1.82.88.63-.13,1.06-.25,1.26,0,.5.63-.38,1.26-.95,1.62-1.06.7-1.88.63-2.82,1.26A2.2,2.2,0,0,0,44.08,68.8Z"/><path class="cls-40" d="M45.59,78.27l-1.25.38c-1.15,3.32-.82,6.4-.56,10.74a1.51,1.51,0,0,0,.93-.19c0-1.89,0-3.52.07-5.27A23.9,23.9,0,0,1,45,81.16,5.89,5.89,0,0,1,45.59,78.27Z"/><path class="cls-40" d="M50,76.38l-1.25.38c-1.15,3.33-1.15,6.09-.88,10.42a1.41,1.41,0,0,0,.88-.12c0-1.89.25-3.26.37-5,.06-.88.13-1.76.25-2.76A5.2,5.2,0,0,1,50,76.38Z"/><path class="cls-39" d="M41.19,66.53a11.26,11.26,0,0,0,.45,5v.13c.25,1.06.63,2.14.82,3.07a15.29,15.29,0,0,1,.25,1.89c0,1.14-.82,2.14-1,3.2-.38,1.82.12,6,.43,8.54-.18.44.5,1.14,1.38,1.31-.43-4.64-.68-7.91.63-11.43a2.78,2.78,0,0,0,.25-1.45c.2-2.82-.88-7.21-.88-8.34C43.47,66.9,44.78,67,46.6,66.2s2.28-1.87.82-1.5c-1.76.51-3,.06-2.82-.69a7.62,7.62,0,0,0,.12-1.07v-.06a5.41,5.41,0,0,1-1.44-.13c0,.13-.06.19-.06.25a5.89,5.89,0,0,1-.82,1.33A5.08,5.08,0,0,0,41.19,66.53Z"/><path class="cls-34" d="M42.39,59.94a4.77,4.77,0,0,1,.81,2.89c1.46.88,4.58-.38,6.35-1.58a.23.23,0,0,0,0-.18c-.25-1,.25-1.89.13-3-.07-.31-.07-.63-.13-.93C49.39,56,49.26,55,49.14,54c-.26-1.63-.45-2.95-.7-3-3.43-.88-4.57.94-6.15,1.7-1.14.57-2.19.88-2.29,2C39.88,56.29,41.64,58.56,42.39,59.94Z"/><path class="cls-34" d="M48.37,52.16a28.07,28.07,0,0,1-5.71,3c-.44.19-1.44,2.29-1.82,1.82-2.64-3.27,2.64-5.34,5.46-6.34,1.14-.44,1.76-.19,2.14.25A.91.91,0,0,1,48.37,52.16Z"/><path class="cls-33" d="M42.39,59.94a4.77,4.77,0,0,1,.81,2.89,2.6,2.6,0,0,0,1.39.31v-.38c0-1-.56-1.76.25-2.5A3.2,3.2,0,0,1,46,59.81c1.38-.43,1.69-1.14,2.39-1.44.43-.19.88-.37,1.26-.5a11.57,11.57,0,0,0-1.08-3.77L43,55.93a5.09,5.09,0,0,0-1.63-2.77,1.83,1.83,0,0,0-1.25,1.51C39.88,56.29,41.64,58.56,42.39,59.94Z"/><path class="cls-34" d="M47.86,57.55c-.51.25-1.08,1-1.89,1.38a2.27,2.27,0,0,1-2.57-.43,9.72,9.72,0,0,1-.32-1.14,5.37,5.37,0,0,0-1.26-3.58,6.8,6.8,0,0,0,1.58-.94l3.83-1.94,1.25.31a8.83,8.83,0,0,0,1.39,2.58,2.22,2.22,0,0,1,.43,1.94C50,56.8,48.86,57.12,47.86,57.55Z"/><path class="cls-33" d="M42.66,55.1c-.44.2-1.44,2.29-1.82,1.82-.88-1.14-1.38-2.5-.07-3.51a23.45,23.45,0,0,1,5.53-2.82,2,2,0,0,1,1.82,0l-.69.25-4,1.57c-.57.43-1,.88-1.64,1.38A10.59,10.59,0,0,1,42.66,55.1Z"/><path class="cls-32" d="M43.46,52c-.06.38.32.82,1,1.14,1.06.58,2.7,0,2.52-.68-.13-.45-.13-.38-.07-.7a4.89,4.89,0,0,1,.57-1.62l-2.89-1-.79-.36A3.75,3.75,0,0,1,43.46,52Z"/><path class="cls-41" d="M43.52,51.84c1.32-1.25,2.58-.87,3.58-1.15a.7.7,0,0,0,.13-.32c0-.25.12-.18.25-.5l-2.89-1-.79-.28A4.12,4.12,0,0,1,43.52,51.84Z"/><path class="cls-35" d="M47.86,57.05c-.7.25-.88.82-1.64,1.14a1.92,1.92,0,0,1-2.28-.32,3.78,3.78,0,0,1-.26-1.14,3.82,3.82,0,0,0-1.07-3c.25-.12.88-.44,1.07-.57,1.32.57,2.63.75,3.43.13a1.93,1.93,0,0,0,0-1.89l1.15-.69a10.28,10.28,0,0,0,1.63,3,1.58,1.58,0,0,1,.43,1.57C50.05,56.36,48.74,56.73,47.86,57.05Z"/><path class="cls-35" d="M49.62,61.3a3.39,3.39,0,0,1-.11-1.61,6.38,6.38,0,0,0,.13-1.44c-.44.43-1.26.37-1.76.88a4.4,4.4,0,0,1-1.82,1.14c-1.14.38-1.31.43-1.14,1.25A5,5,0,0,1,45,63.15,14.61,14.61,0,0,0,49.62,61.3Z"/><path class="cls-34" d="M39.57,55.05a26.72,26.72,0,0,0-1.38,5.71,2.65,2.65,0,0,0-.13,1,1.16,1.16,0,0,0,2.29-.38c.31-1.06.74-2,1.44-4S42,54,41,53.73C40.37,53.66,39.82,54.44,39.57,55.05Z"/><path class="cls-35" d="M39.7,61.57c.12-.19.62-.32.75-.44.31-.94.74-1.88,1.31-3.58s.31-3-.32-3.51C40.94,56,40.13,59.31,39.7,61.57Z"/><path class="cls-34" d="M39.57,55.05a26.72,26.72,0,0,0-1.38,5.71,2.65,2.65,0,0,0-.13,1,1.15,1.15,0,0,0,1.5.61,1.13,1.13,0,0,0,.51-.43,3.19,3.19,0,0,1-.88-.31c-.19-.19-.12-.38,0-.75.56-2.39,1.15-4.71,1.88-7.1h-.13C40.37,53.66,39.82,54.44,39.57,55.05Z"/><polygon class="cls-42" points="41.7 55.55 42.27 55.23 42.27 64.52 41.7 64.77 41.7 55.55"/><polygon class="cls-43" points="42.27 55.23 47.98 58.18 47.98 67.41 42.27 64.52 42.27 55.23"/><polygon class="cls-44" points="42.27 55.42 47.73 58.18 47.73 67.22 47.23 67.47 42.27 64.27 41.76 55.67 42.27 55.42"/><polygon class="cls-45" points="41.7 55.55 47.48 58.43 47.48 67.66 41.7 64.77 41.7 55.55"/><path class="cls-46" d="M44.84,64.09l-.94-.32.13-.94a2,2,0,0,1,1.14-.32.24.24,0,0,1,.13.07C45.65,62.76,45.28,64.14,44.84,64.09Z"/><path class="cls-32" d="M46.72,64.84a4,4,0,0,0,1.39-.44c.25-.13.31-1.57.25-1.57a14.72,14.72,0,0,1-1.45.38c-.38-.13-1.82-.51-2.2-.63l-.37.68-.19.58c.13,0,.56.12.63.12A8.27,8.27,0,0,0,46.72,64.84Z"/><path class="cls-31" d="M46.85,63.52a4.22,4.22,0,0,0,1.44-.63h.07c0-.07-.25-.07-.38,0a6.64,6.64,0,0,1-1.14.37L45,62.64h-.31C45.41,63,46.12,63.26,46.85,63.52Z"/><path class="cls-31" d="M47.28,63c.07.37-.62.18-.81.12s-1.44-.32-1.25-.38a2.69,2.69,0,0,1,1.06-.06c.25.06.25.12.5.19A.7.7,0,0,0,47.28,63Z"/><path class="cls-34" d="M38.08,62.13a1.14,1.14,0,0,0,.51.57,3.56,3.56,0,0,0,1,.38,21.14,21.14,0,0,0,5.28.94,1.15,1.15,0,0,1,.44-1.51,37.33,37.33,0,0,0-4.84-1.44c-.25.13-.75.5-.81.5C39.23,61.57,37.74,61.13,38.08,62.13Z"/><path class="cls-35" d="M44.66,63a.78.78,0,0,1,.37-.5,28.54,28.54,0,0,0-4.34-1.31,1.54,1.54,0,0,0-.74.43Z"/><path class="cls-34" d="M38.08,62.13a1.14,1.14,0,0,0,.51.57,3.56,3.56,0,0,0,1,.38,21.14,21.14,0,0,0,5.28.94,1,1,0,0,1-.12-.76,37.72,37.72,0,0,1-5.52-1.56c-.19-.2-.13-.38,0-.7C38.56,61.2,37.81,61.3,38.08,62.13Z"/><path class="cls-47" d="M47.48,50.34c1.51,1.06,2,3.51,1.56,5.71-.18-1.37-.75-3.51-2.13-4.2a2.45,2.45,0,0,1,.32-1.15C47.23,50.65,47.41,50.34,47.48,50.34Z"/><path class="cls-48" d="M47.41,50.84c.19-.07.19-.12.32-.12a5.83,5.83,0,0,1,1.38,4.08A6.85,6.85,0,0,0,47.41,50.84Z"/><path class="cls-30" d="M49,55.86c-.32-2.07-.88-3.27-2.08-4.08a3.19,3.19,0,0,1,.25-1A7.84,7.84,0,0,1,49,55.86Z"/><path class="cls-47" d="M47.54,48.08l-1.39-.5V45.63l.63-1.58C48.67,44.68,48.54,47.76,47.54,48.08Z"/><path class="cls-47" d="M43.65,50.72A4.13,4.13,0,0,1,41.44,47,4.36,4.36,0,0,1,42,45.13a2.81,2.81,0,0,1,2.64-1.33c.44,0-.76.32-.25.5L44,47.58A4.85,4.85,0,0,1,43.65,50.72Z"/><path class="cls-31" d="M46.78,50.59a3.43,3.43,0,0,1-3-2.21,2.27,2.27,0,0,1-1.33-.88A2.5,2.5,0,0,1,43,44.88a2.87,2.87,0,0,1,2.2-1,2.82,2.82,0,0,1,3.08,2,9.37,9.37,0,0,1,0,1.06c0,.45.19.32.25.7a5.32,5.32,0,0,1,0,1.69c-.07.45,0,.88-.2,1A2,2,0,0,1,46.78,50.59Z"/><path class="cls-32" d="M46.78,50.59a3.43,3.43,0,0,1-3-2.21,2.27,2.27,0,0,1-1.33-.88A2.5,2.5,0,0,1,43,44.88a2.87,2.87,0,0,1,2.2-1A3,3,0,0,1,47.75,45a4.57,4.57,0,0,1-1.88,2.38c-.32.19-.44.32-.44.57,0,.5.69.43.75.69s-.63.37-.31,1.07a5,5,0,0,0,1,.94Z"/><path class="cls-47" d="M47.79,44.81c-1.26,2.89-4,3.43-4,4s-1.06-.32-1.38-.7a2.91,2.91,0,0,1,.5-3.7A3.69,3.69,0,0,1,47.79,44.81Z"/><path class="cls-30" d="M44,49.71a3.52,3.52,0,0,1-2.45-3.27h0a2.3,2.3,0,0,1,.69-1.31A2.66,2.66,0,0,0,41.76,47a2.74,2.74,0,0,1,.69-1.56,4.66,4.66,0,0,0-.31,1.62A3,3,0,0,1,43,45.63a2.3,2.3,0,0,0-.37,1.95,2.43,2.43,0,0,1,.88-1.76A2,2,0,0,0,43,47.14,2.86,2.86,0,0,1,43.78,46a2.42,2.42,0,0,0-.38,1.14,4.91,4.91,0,0,1,.68-1.06,3.51,3.51,0,0,0-.28,1.5,10.54,10.54,0,0,1,1.26-1.14A5.84,5.84,0,0,1,44,47.88a8.79,8.79,0,0,0,3.14-2.28C46.37,47,45,47.54,43.86,48.54l.06.56A.58.58,0,0,1,44,49.71Z"/><path class="cls-32" d="M43.4,47.5c-.7-.12-.63.58-.45,1s.38.25.51.44a.56.56,0,0,0,.62.32c.38-.07.07-.57,0-.76A1,1,0,0,0,43.4,47.5Z"/><path class="cls-41" d="M43.8,48.33c-.18-.25-.31-.63-.76-.57C43.46,47.76,43.58,48.08,43.8,48.33Z"/><path class="cls-30" d="M41.44,46.75A4.8,4.8,0,0,0,43.73,51,3,3,0,0,0,44,49.64C42.07,48.38,42.58,48.89,41.44,46.75Z"/><path class="cls-48" d="M47.66,44.93c-.18-.81-1.63-1.31-3.2-1.14a3.07,3.07,0,0,0-2.19,1A4.8,4.8,0,0,1,44.4,44a3.13,3.13,0,0,0-1.95,1.32,3.65,3.65,0,0,1,2-1.14,2.94,2.94,0,0,0-1.38,1,4.6,4.6,0,0,1,1.7-.88,2.29,2.29,0,0,0-1.07,1.08c.63-.58.63-.76,1.51-1a5,5,0,0,0-1.15,1.14,8.59,8.59,0,0,1,1.57-.94,7.35,7.35,0,0,0-.94,1.07,7.62,7.62,0,0,1,1.51-.94,5.72,5.72,0,0,0-1.38,1.44,14.17,14.17,0,0,1,1.63-1.26,10.69,10.69,0,0,1-1,1.14,14.69,14.69,0,0,0,1.63-1.32,25,25,0,0,1-1.69,2,14.52,14.52,0,0,0,1.94-1.82,3.56,3.56,0,0,1-.88,1.32A6,6,0,0,0,47.66,44.93Z"/><path class="cls-49" d="M47.1,47.45A6.64,6.64,0,0,1,46,47.7c-.06,0-.13,0-.13.18v.7c0,.12.13.18.25.18a4.17,4.17,0,0,0,1.15-.31.13.13,0,0,0,.12-.12v-.75c0-.12-.18-.18-.31-.18Zm1.27-.88a1.47,1.47,0,0,1-.63.63c-.06,0-.06,0-.06.12V48c0,.13.19.18.31.13a.78.78,0,0,0,.38-.5h0v-1Z"/><path class="cls-50" d="M47.16,47.5a1.28,1.28,0,0,1-.5.13,1.83,1.83,0,0,1-.56.13c-.07,0-.07,0-.07.06v.76h0a.06.06,0,0,0,0,.06h.07c.2-.06.45-.06.63-.13a4.24,4.24,0,0,0,.5-.18.07.07,0,0,0,.07-.07h0v-.81a.07.07,0,0,0-.07-.07h0C47.28,47.5,47.28,47.5,47.16,47.5Zm-.56.07a1.74,1.74,0,0,1,.5-.12h.13a.07.07,0,0,1,.07.07h0v.75c0,.06,0,.06-.07.13s0,.05-.13.05a5.31,5.31,0,0,1-.56.2,2.2,2.2,0,0,1-.63.12h-.07c-.05,0-.12,0-.12-.07v-1c0-.13.07,0,.12,0,.32-.07.51-.07.7-.13Zm1.77-.82c0,.07,0,.13-.13.13s-.25.19-.37.32m-.06,0V48m.06,0,.07.07h.12a.82.82,0,0,0,.25-.2s.13-.12.13-.18v-1Zm.25-1.13c.12-.13.19-.2.19-.32h.13v1.14c0,.07-.07.13-.13.2a.67.67,0,0,0-.25.25h-.32a.26.26,0,0,1-.06-.13v-.7l.06,0c.17-.21.37-.27.42-.39Z"/><path class="cls-50" d="M47.41,47.7a.23.23,0,0,0,.19-.07h.19c-.06.07-.13.07-.19.13h-.19Z"/><polygon class="cls-50" points="45.84 48.26 43.78 47.76 43.71 47.7 43.65 47.63 45.9 48.2 45.84 48.26"/><path class="cls-51" d="M110.56,14.61l1.21,2.76C113.5,35.8,121.63,44.88,122,45.31h0a1.18,1.18,0,0,0,.86.52h0a6.29,6.29,0,0,0,1-.09l.17.52,2.77-1.73h0c2.94-2,6.48-7.09,6.66-20.15v-1a1,1,0,0,0-.52-.86l-.87-.26c-.17-.09-4.32-1.56-8.65-7.61-.08-.09-.17-.26-.26-.35h0a2.4,2.4,0,0,0-1.38-.86h-.26c-4.5.86-8.65-2.69-8.65-2.69L112,10c-.18-.17-.35-.17-.44-.08l-2.24,1.47h0Z"/><path class="cls-52" d="M123.54,46h-.87a2.43,2.43,0,0,1-1-.6c-.35-.44-8.48-9.52-10.29-28l-1.21-2.76-1.3-3.12h0c-.09-.17,0-.26.09-.34l2.25-1.39c.17-.17.43-.08.69.09l.86.69c.18.09,4.15,3.46,8.48,2.6h.34a2.38,2.38,0,0,1,1.56.86,1.66,1.66,0,0,1,.35.43c4.32,6.06,8.39,7.44,8.56,7.53l.86.26a1.15,1.15,0,0,1,.7,1v1c-.18,13.15-3.81,18.34-6.75,20.33L124,46.43Zm-2-32.52c-4.59.87-8.65-2.51-8.82-2.68l-.87-.69a.27.27,0,0,0-.17-.09l-2.25,1.47,1.3,2.94L112,17.2v.09c1.81,18.42,9.86,27.5,10.2,27.85a1.19,1.19,0,0,0,.78.43,5.47,5.47,0,0,0,.95-.09h.18l.17.52,2.51-1.64c2.85-2,6.4-7,6.57-20v-1a1,1,0,0,0-.43-.69l-.87-.26c-.17-.09-4.32-1.56-8.73-7.7-.09-.08-.18-.26-.26-.34a2.24,2.24,0,0,0-1.39-.87c.09.09.09,0,0,0S121.55,13.57,121.55,13.48Z"/><path class="cls-53" d="M109.18,11.15v.08l1.3,3.12,1.21,2.76c.17,1.22.26,2.34.43,3.38l14.36,6.23,6.83-4a1.47,1.47,0,0,0-.43-.35l-.87-.26c-.17-.09-4.32-1.56-8.65-7.61-.08-.09-.17-.26-.26-.35h0a2.51,2.51,0,0,0-1.38-.86h-.26c-4.5.86-8.65-2.68-8.65-2.68L112,9.94c-.18-.18-.35-.18-.44-.09Z"/><path class="cls-53" d="M112,20.75v-.09c-.18-1-.35-2.16-.44-3.29l-1.21-2.76L109,11.49a.25.25,0,0,1,.08-.34l2.25-1.39c.17-.17.43-.08.69.09l.87.69c.17.09,4.15,3.46,8.47,2.6h.35a2.38,2.38,0,0,1,1.56.86,1.42,1.42,0,0,1,.34.43C128,20.49,132,21.87,132.19,22l.86.26a1.1,1.1,0,0,1,.52.43l.09.17L126.56,27Zm21,1.81-.86-.26c-.17-.08-4.33-1.55-8.74-7.69-.08-.09-.17-.26-.26-.35a2.1,2.1,0,0,0-1.29-.78h-.26c-4.59.87-8.65-2.51-8.82-2.68l-.87-.69a.27.27,0,0,0-.17-.09l-2.16,1.39,1.29,2.94L112,17.11v.09c.09,1,.18,2.16.35,3.2l14.1,6.14,6.57-3.8C133,22.65,133,22.65,133,22.56Z"/><path class="cls-54" d="M119.73,46.61c-.43-.44-10.29-11.51-10.55-34v-1c0-.35.26-.43.52-.17l.86.69c.09.08,4.15,3.54,8.65,2.68h.26a2.57,2.57,0,0,1,1.39.86h0a1.58,1.58,0,0,1,.26.35c4.32,6,8.47,7.52,8.64,7.61l.87.26a1,1,0,0,1,.52.87v1C130.8,47.82,121,47.13,120.6,47.13h0a1.56,1.56,0,0,1-.87-.52Zm8.65-20.93a26,26,0,0,1-8-7.35.88.88,0,0,0-.69-.44c-3.11.44-6-.95-7.87-2.07-.26-.18-.43,0-.43.26.6,15.22,5.79,24,8,27.24.43.52,1.13,1.21,1.47,1.13,2.25-.52,7.18-3.72,7.87-18A.8.8,0,0,0,128.38,25.68Z"/><path class="cls-55" d="M120.34,47.39a2.41,2.41,0,0,1-1-.61h0c-.44-.43-10.3-11.5-10.64-34.08v-1a.51.51,0,0,1,.26-.52.56.56,0,0,1,.6.17l.87.69c.17.09,4.15,3.46,8.47,2.6h.35a2.38,2.38,0,0,1,1.56.86,1.42,1.42,0,0,1,.34.43c4.33,6.06,8.39,7.44,8.56,7.53l.87.26a1.16,1.16,0,0,1,.69,1v1c-.17,11.85-3.11,17.13-5.62,19.38a7,7,0,0,1-4.84,2.16A1.23,1.23,0,0,0,120.34,47.39Zm-1.21-32.52c-4.59.86-8.65-2.51-8.83-2.68l-.86-.7a.28.28,0,0,0-.17-.08v1.21C109.61,35,119.39,46,119.82,46.43h0a1.21,1.21,0,0,0,.78.44c.08.08,2.42.26,4.84-2s5.36-7.35,5.53-19.12v-1a1,1,0,0,0-.43-.7l-.86-.26c-.18-.08-4.41-1.55-8.74-7.69-.08-.09-.17-.26-.26-.35A2.52,2.52,0,0,0,119.3,15h0S119.21,15,119.13,14.87Zm.26,28.54c-2.25-3.12-7.44-12-8.13-27.33a.32.32,0,0,1,.17-.44.59.59,0,0,1,.52,0,12.65,12.65,0,0,0,7.78,2.08,1.18,1.18,0,0,1,.87.52,27.54,27.54,0,0,0,7.87,7.26,1.12,1.12,0,0,1,.52,1h0c-.7,15.3-6.32,17.73-8.05,18.16h-.08C120.34,44.62,119.64,43.84,119.39,43.41Zm9.25-17a1.11,1.11,0,0,0-.35-.61,28.17,28.17,0,0,1-7.95-7.35.63.63,0,0,0-.52-.34,12.92,12.92,0,0,1-8-2.17h-.08V16c.69,15.22,5.88,24,8,27.16.35.6,1,1.12,1.21,1,1.65-.35,7-2.77,7.7-17.82Z"/><path class="cls-56" d="M111.43,16.08c.6,15.22,5.79,24,8,27.24.43.52,1.13,1.21,1.47,1.13,2.25-.52,7.18-3.72,7.87-18a1,1,0,0,0-.43-.78,26,26,0,0,1-8-7.35.88.88,0,0,0-.69-.44c-3.11.44-6-.95-7.87-2.07C111.6,15.64,111.43,15.73,111.43,16.08Z"/><path class="cls-52" d="M111.51,16.08c.61,15.22,5.8,24,8,27.24.43.52,1.12,1.21,1.47,1.13s.6-.26,1-.44a5.69,5.69,0,0,1-1-1c-2.25-3.11-7.27-11.76-8-26.55-.44-.17-.78-.43-1.13-.6S111.43,15.73,111.51,16.08Z"/><path class="cls-52" d="M119.39,43.41c-2.25-3.12-7.44-12-8.13-27.33a.32.32,0,0,1,.17-.44.59.59,0,0,1,.52,0h0c.34.18.78.44,1.12.61l.09.09v.08c.78,14.79,5.79,23.44,8,26.47a2.48,2.48,0,0,0,.95,1l.34.17-.34.18a6.53,6.53,0,0,1-1.13.43h-.08C120.34,44.62,119.64,43.84,119.39,43.41Zm1.38-.26c-2.16-3-7.27-11.68-8-26.55-.35-.18-.7-.44-1-.61h-.09v.09c.69,15.22,5.88,24,8,27.15.35.61,1,1.13,1.22,1l.77-.26Z"/><path class="cls-52" d="M119.39,43.41c-2.25-3.12-7.44-12-8.13-27.33a.32.32,0,0,1,.17-.44.59.59,0,0,1,.52,0h0a12.65,12.65,0,0,0,7.78,2.08,1.18,1.18,0,0,1,.87.52,27.54,27.54,0,0,0,7.87,7.26,1.12,1.12,0,0,1,.52,1c-.7,15.3-6.32,17.73-8.05,18.16h-.08C120.34,44.62,119.64,43.84,119.39,43.41Zm.43-25.34a12.92,12.92,0,0,1-8-2.17h-.08V16c.69,15.22,5.88,24,8,27.16.35.6,1,1.12,1.21,1,1.65-.35,7-2.77,7.7-17.82a.73.73,0,0,0-.35-.61,28.17,28.17,0,0,1-7.95-7.35.77.77,0,0,0-.52-.34Z"/><path class="cls-53" d="M124.57,33.81a1.83,1.83,0,0,1-.25,1l-.09.09-.09.09A4.37,4.37,0,0,1,122,36.23l-1.56-2.86-.34-.17a3.74,3.74,0,0,1-1.56-3v-.25l-1.73-3.2a2.76,2.76,0,0,1,1.9-1.22.17.17,0,0,1,.26,0l5.19,3.12c.26.08.43.52.43.86Z"/><path class="cls-53" d="M121.89,36.32l-1.55-3L120,33.2a3.8,3.8,0,0,1-1.64-3.2v-.26l-1.73-3.28.08-.09a2.52,2.52,0,0,1,2-1.3.94.94,0,0,1,.44.09l5.19,3.11a1.38,1.38,0,0,1,.51,1v4.32a2.23,2.23,0,0,1-.34,1.21l-.09.09h0l-.17.17A4,4,0,0,1,122,36.4Zm-4.84-9.6,1.64,3.11v.34A3.75,3.75,0,0,0,120.16,33l.44.26,1.47,2.77a5.4,5.4,0,0,0,2-1.13l.08-.09.09-.08a1.58,1.58,0,0,0,.26-.95V29.48a.88.88,0,0,0-.35-.69L119,25.68h-.17A2,2,0,0,0,117.05,26.72Z"/><path class="cls-51" d="M122,36.23l-1.38-2.51c.77-1.56,1.55-3.55,1.55-3.55l2.17-1.38a2.4,2.4,0,0,1,.25.69v4.33a1.83,1.83,0,0,1-.25,1l-.09.09-.09.09A4.37,4.37,0,0,1,122,36.23Z"/><path class="cls-57" d="M117,31V26.72c0-.35.18-.52.44-.35l5.19,3.11a1,1,0,0,1,.43.87v4.32c0,1.21-.69,1.73-1.56,1.21l-3-1.81A3.51,3.51,0,0,1,117,31Z"/><path class="cls-57" d="M121.89,36.49a1.42,1.42,0,0,1-.69-.26l-3-1.82a3.8,3.8,0,0,1-1.64-3.2V26.89a.52.52,0,0,1,.78-.52l5.19,3.11a1.37,1.37,0,0,1,.52,1v4.32a1.6,1.6,0,0,1-.61,1.48A1.27,1.27,0,0,1,121.89,36.49Zm-4.84-9.77H117c-.08,0-.08.08-.08.17v4.32a3.72,3.72,0,0,0,1.47,2.86l3,1.81a.66.66,0,0,0,.78.09,1.37,1.37,0,0,0,.44-1.13V30.52a.91.91,0,0,0-.35-.69l-5.19-3.11Z"/><polygon class="cls-51" points="119.47 32.94 119.64 32.68 119.9 32.86 119.9 31.3 120.34 31.3 120.34 33.46 119.47 32.94"/><path class="cls-51" d="M120,31.9a1.76,1.76,0,0,1-.78-1.38.66.66,0,0,1,.26-.6.67.67,0,0,1,.69.08,1.75,1.75,0,0,1,.78,1.39.66.66,0,0,1-.26.6.3.3,0,0,1-.26.09A1.46,1.46,0,0,1,120,31.9Zm-.17-1.64c-.18.09-.18.17-.18.26a1.31,1.31,0,0,0,.61,1,.34.34,0,0,0,.26.08c.09,0,.09-.08.09-.25a1.31,1.31,0,0,0-.61-1c-.09-.09-.09-.09-.17-.09Z"/><path class="cls-58" d="M119.82,30.17a1.5,1.5,0,0,1,.69,1.22c0,.43-.35.69-.69.43a1.5,1.5,0,0,1-.69-1.21A.45.45,0,0,1,119.82,30.17Z"/><path class="cls-51" d="M119.64,31.9a1.75,1.75,0,0,1-.77-1.38.64.64,0,0,1,.26-.6.67.67,0,0,1,.69.08,1.78,1.78,0,0,1,.78,1.39.69.69,0,0,1-.26.6.32.32,0,0,1-.26.09A.56.56,0,0,1,119.64,31.9Zm-.17-1.64c-.08.09-.17.17-.17.26a1.32,1.32,0,0,0,.6,1,.35.35,0,0,0,.26.08c.09,0,.09-.08.09-.25a1.31,1.31,0,0,0-.61-1c-.08-.09-.08-.09-.17-.09Z"/><polygon class="cls-58" points="119.21 32.77 119.39 32.42 119.73 32.68 119.73 31.3 120.08 31.56 120.08 33.29 119.21 32.77"/><path class="cls-22" d="M123.1,28.44V26.11a3.53,3.53,0,0,0-1.55-2.77l-1-.6a1.5,1.5,0,0,0-1.47-.09,1.44,1.44,0,0,0-.61,1.3v2.33a.56.56,0,0,0,.52.52h0a.56.56,0,0,0,.52-.52V24c0-.18,0-.35.08-.35a.84.84,0,0,1,.35.09l1,.6a2.23,2.23,0,0,1,1,1.82v2.33a.56.56,0,0,0,.52.52h0A.73.73,0,0,0,123.1,28.44Z"/></g></g></svg>