<svg xmlns="http://www.w3.org/2000/svg" xmlns:xlink="http://www.w3.org/1999/xlink" viewBox="0 0 150 150"><defs><style>.cls-1{fill:none;}.cls-2{opacity:0.97;}.cls-3,.cls-74,.cls-80{opacity:0.4;}.cls-133,.cls-3,.cls-47,.cls-48,.cls-49,.cls-50,.cls-67,.cls-68,.cls-72,.cls-73,.cls-74,.cls-78,.cls-79,.cls-80,.cls-91{isolation:isolate;}.cls-3{fill:url(#linear-gradient);}.cls-4{fill:#b8e6f2;}.cls-5{fill:#abd7f2;}.cls-6{fill:#93d8f7;}.cls-7{fill:#ceecf9;}.cls-8{fill:#1eb1e7;}.cls-9{fill:url(#linear-gradient-2);}.cls-10,.cls-133,.cls-47,.cls-49,.cls-67{fill:#fff;}.cls-11{fill:#9ddaef;}.cls-12{fill:#dd8732;}.cls-13{fill:#d25827;}.cls-14{fill:#f26c21;}.cls-15{fill:#240d0b;}.cls-16{fill:url(#linear-gradient-3);}.cls-17{fill:#3857a6;}.cls-18{fill:#476ab2;}.cls-19{clip-path:url(#clip-path);}.cls-20{fill:url(#linear-gradient-4);}.cls-21{fill:url(#linear-gradient-5);}.cls-22{fill:url(#linear-gradient-6);}.cls-23{fill:url(#linear-gradient-7);}.cls-24{clip-path:url(#clip-path-2);}.cls-25{fill:url(#linear-gradient-8);}.cls-26{fill:url(#linear-gradient-9);}.cls-27{fill:url(#linear-gradient-10);}.cls-28{fill:url(#linear-gradient-11);}.cls-29{clip-path:url(#clip-path-3);}.cls-30{fill:url(#linear-gradient-12);}.cls-31{fill:url(#linear-gradient-13);}.cls-32{fill:url(#linear-gradient-14);}.cls-33{fill:url(#linear-gradient-15);}.cls-34{clip-path:url(#clip-path-4);}.cls-35{fill:url(#linear-gradient-16);}.cls-36{fill:url(#linear-gradient-17);}.cls-37{fill:url(#linear-gradient-18);}.cls-38{fill:url(#linear-gradient-19);}.cls-39{clip-path:url(#clip-path-5);}.cls-40{fill:url(#linear-gradient-20);}.cls-41{fill:url(#linear-gradient-21);}.cls-42{fill:url(#linear-gradient-22);}.cls-43{fill:url(#linear-gradient-23);}.cls-44{fill:url(#linear-gradient-24);}.cls-45{fill:#0bc1ed;}.cls-46{fill:url(#linear-gradient-25);}.cls-47,.cls-48,.cls-72,.cls-78{opacity:0.6;}.cls-48{fill:url(#linear-gradient-26);}.cls-49,.cls-50,.cls-68,.cls-73,.cls-79{opacity:0.3;}.cls-50{fill:url(#linear-gradient-27);}.cls-51{fill:url(#linear-gradient-28);}.cls-52{fill:url(#linear-gradient-29);}.cls-53{fill:url(#linear-gradient-30);}.cls-54{fill:url(#linear-gradient-31);}.cls-55{fill:url(#linear-gradient-32);}.cls-56{fill:url(#linear-gradient-33);}.cls-57{fill:url(#linear-gradient-34);}.cls-58{fill:url(#linear-gradient-35);}.cls-59{fill:url(#linear-gradient-36);}.cls-60{fill:url(#linear-gradient-37);}.cls-61{fill:url(#linear-gradient-38);}.cls-62{fill:url(#linear-gradient-39);}.cls-63{fill:url(#linear-gradient-40);}.cls-64{fill:url(#linear-gradient-41);}.cls-65{fill:url(#linear-gradient-42);}.cls-66{fill:url(#linear-gradient-43);}.cls-67{opacity:0.5;}.cls-68{fill:url(#linear-gradient-44);}.cls-69{fill:url(#linear-gradient-45);}.cls-70{fill:url(#linear-gradient-46);}.cls-71{fill:url(#linear-gradient-47);}.cls-72{fill:url(#linear-gradient-48);}.cls-73{fill:url(#linear-gradient-49);}.cls-74{fill:url(#linear-gradient-50);}.cls-75{fill:url(#linear-gradient-51);}.cls-76{fill:url(#linear-gradient-52);}.cls-77{fill:url(#linear-gradient-53);}.cls-78{fill:url(#linear-gradient-54);}.cls-79{fill:url(#linear-gradient-55);}.cls-80{fill:url(#linear-gradient-56);}.cls-81{fill:#bbe5f5;}.cls-82{fill:#67c8f2;}.cls-83{fill:#53a7dd;}.cls-84{fill:#3860ab;}.cls-85{fill:#4681c3;}.cls-86{fill:#f6921e;}.cls-87{fill:#0098cc;}.cls-88{fill:#81a5d6;}.cls-89{fill:url(#linear-gradient-57);}.cls-90{fill:#d0dfe9;}.cls-92{fill:#1c76bc;}.cls-93{fill:#37404a;}.cls-94{fill:#242a32;}.cls-95{fill:#ffd439;}.cls-96{fill:#8b95a4;}.cls-97{fill:#cad2dd;}.cls-98{fill:#a4adba;}.cls-99{fill:#d4e0f2;}.cls-100{fill:#ecf3fa;}.cls-101{fill:#b4b2c3;}.cls-102{fill:#fac615;}.cls-103{fill:#fcb614;}.cls-104{fill:#dae6f5;}.cls-105{fill:#eff4fb;}.cls-106{fill:#c8d4ec;}.cls-107{fill:#f1f1f1;}.cls-108{fill:#efa85a;}.cls-109{fill:#f48148;}.cls-110{fill:#f59065;}.cls-111{fill:#f5b474;}.cls-112{fill:url(#linear-gradient-58);}.cls-113{fill:url(#linear-gradient-59);}.cls-114{fill:url(#linear-gradient-60);}.cls-115{fill:url(#linear-gradient-61);}.cls-116{fill:url(#linear-gradient-62);}.cls-117{fill:url(#linear-gradient-63);}.cls-118{fill:url(#linear-gradient-64);}.cls-119{fill:url(#linear-gradient-65);}.cls-120{fill:url(#linear-gradient-66);}.cls-121{fill:#c1cbe7;}.cls-122{fill:#404041;}.cls-123{fill:#c55027;}.cls-124{fill:url(#linear-gradient-67);}.cls-125{fill:url(#linear-gradient-68);}.cls-126{fill:url(#linear-gradient-69);}.cls-127{fill:#b39caa;}.cls-128{fill:#e9dbe0;}.cls-129{fill:#74cbe2;}.cls-130{fill:#441b1b;}.cls-131{fill:#4b70b1;}.cls-132{opacity:0.53;}.cls-133{font-size:6.98px;font-family:ArialMT, Arial;}.cls-134{fill:#f8ab97;}.cls-135{fill:#fac3b2;}.cls-136{fill:#612c2b;}.cls-137{fill:#6581c0;}.cls-138{fill:#dccbd3;}.cls-139{fill:#44449a;}.cls-140{fill:#526578;}.cls-141{fill:#cbb7bf;}.cls-142{fill:#eee7e9;}.cls-143{fill:#bacddf;}.cls-144{fill:#a6bbcd;}.cls-145{fill:#f3f5fa;}.cls-146{fill:#5cbfd8;}.cls-147{fill:#81c9e4;}.cls-148{fill:#def1f6;}.cls-149{fill:#c9dbea;}.cls-150{fill:#448ac9;}</style><linearGradient id="linear-gradient" x1="102.44" y1="-1274.31" x2="111.23" y2="-1274.31" gradientTransform="matrix(1, 0, 0, -1, 0, -1187)" gradientUnits="userSpaceOnUse"><stop offset="0" stop-color="#96d4cf"/><stop offset="1" stop-color="#17b9e8"/></linearGradient><linearGradient id="linear-gradient-2" x1="130.68" y1="-1214.65" x2="127.5" y2="-1211.64" gradientTransform="matrix(1, 0, 0, -1, 0, -1187)" gradientUnits="userSpaceOnUse"><stop offset="0" stop-color="#3a9dd7"/><stop offset="1" stop-color="#bfe5f0"/></linearGradient><linearGradient id="linear-gradient-3" x1="107.26" y1="-1245.33" x2="104.18" y2="-1245.33" gradientTransform="matrix(1, 0, 0, -1, 0, -1187)" gradientUnits="userSpaceOnUse"><stop offset="0" stop-color="#60c8d8"/><stop offset="1" stop-color="#bfe5f0"/></linearGradient><clipPath id="clip-path"><polygon class="cls-1" points="94.3 44.88 94.3 48.45 103.27 52.77 103.27 49.31 94.3 44.88"/></clipPath><linearGradient id="linear-gradient-4" x1="95.01" y1="-1235.12" x2="108.07" y2="-1235.12" gradientTransform="matrix(1, 0, 0, -1, 0, -1187)" gradientUnits="userSpaceOnUse"><stop offset="0" stop-color="#476ab2"/><stop offset="1" stop-color="#27236b"/></linearGradient><linearGradient id="linear-gradient-5" x1="102.08" y1="-1238.93" x2="95.26" y2="-1233.98" gradientTransform="matrix(1, 0, 0, -1, 0, -1187)" gradientUnits="userSpaceOnUse"><stop offset="0" stop-color="#6fcbdc"/><stop offset="1" stop-color="#87cfc8"/></linearGradient><linearGradient id="linear-gradient-6" x1="95.01" y1="-1233.93" x2="108.07" y2="-1233.93" xlink:href="#linear-gradient-4"/><linearGradient id="linear-gradient-7" x1="102.04" y1="-1237.82" x2="95.22" y2="-1232.86" xlink:href="#linear-gradient-5"/><clipPath id="clip-path-2"><polygon class="cls-1" points="94.3 49.63 94.3 53.2 103.27 57.53 103.27 54.07 94.3 49.63"/></clipPath><linearGradient id="linear-gradient-8" x1="95.01" y1="-1239.88" x2="108.07" y2="-1239.88" xlink:href="#linear-gradient-4"/><linearGradient id="linear-gradient-9" x1="102.07" y1="-1243.68" x2="95.25" y2="-1238.72" xlink:href="#linear-gradient-5"/><linearGradient id="linear-gradient-10" x1="95.01" y1="-1238.69" x2="108.07" y2="-1238.69" xlink:href="#linear-gradient-4"/><linearGradient id="linear-gradient-11" x1="102.08" y1="-1242.5" x2="95.26" y2="-1237.54" xlink:href="#linear-gradient-5"/><clipPath id="clip-path-3"><polygon class="cls-1" points="94.3 54.39 94.3 57.85 103.27 62.29 103.27 58.83 94.3 54.39"/></clipPath><linearGradient id="linear-gradient-12" x1="95.01" y1="-1244.53" x2="108.07" y2="-1244.53" xlink:href="#linear-gradient-4"/><linearGradient id="linear-gradient-13" x1="102.05" y1="-1248.42" x2="95.23" y2="-1243.47" xlink:href="#linear-gradient-5"/><linearGradient id="linear-gradient-14" x1="95.01" y1="-1243.45" x2="108.07" y2="-1243.45" xlink:href="#linear-gradient-4"/><linearGradient id="linear-gradient-15" x1="102.06" y1="-1247.24" x2="95.25" y2="-1242.29" xlink:href="#linear-gradient-5"/><clipPath id="clip-path-4"><polygon class="cls-1" points="94.3 59.04 94.3 62.61 103.27 67.04 103.27 63.48 94.3 59.04"/></clipPath><linearGradient id="linear-gradient-16" x1="95.01" y1="-1249.29" x2="108.07" y2="-1249.29" xlink:href="#linear-gradient-4"/><linearGradient id="linear-gradient-17" x1="102.04" y1="-1253.17" x2="95.22" y2="-1248.22" xlink:href="#linear-gradient-5"/><linearGradient id="linear-gradient-18" x1="95.01" y1="-1248.21" x2="108.07" y2="-1248.21" xlink:href="#linear-gradient-4"/><linearGradient id="linear-gradient-19" x1="102.05" y1="-1251.99" x2="95.23" y2="-1247.04" xlink:href="#linear-gradient-5"/><clipPath id="clip-path-5"><polygon class="cls-1" points="94.3 63.8 94.3 67.37 103.27 71.69 103.27 68.23 94.3 63.8"/></clipPath><linearGradient id="linear-gradient-20" x1="95.01" y1="-1254.04" x2="108.07" y2="-1254.04" xlink:href="#linear-gradient-4"/><linearGradient id="linear-gradient-21" x1="102.07" y1="-1257.85" x2="95.25" y2="-1252.89" xlink:href="#linear-gradient-5"/><linearGradient id="linear-gradient-22" x1="95.01" y1="-1252.85" x2="108.07" y2="-1252.85" xlink:href="#linear-gradient-4"/><linearGradient id="linear-gradient-23" x1="102.04" y1="-1256.74" x2="95.22" y2="-1251.79" xlink:href="#linear-gradient-5"/><linearGradient id="linear-gradient-24" x1="107.08" y1="-1226.52" x2="103.6" y2="-1226.52" xlink:href="#linear-gradient-3"/><linearGradient id="linear-gradient-25" x1="109.67" y1="-1220.95" x2="100.99" y2="-1220.95" gradientTransform="matrix(1, 0, 0, -1, 0, -1187)" gradientUnits="userSpaceOnUse"><stop offset="0" stop-color="#4995d1"/><stop offset="1" stop-color="#374ea1"/></linearGradient><linearGradient id="linear-gradient-26" x1="107.07" y1="-1223.05" x2="103.59" y2="-1223.05" xlink:href="#linear-gradient-3"/><linearGradient id="linear-gradient-27" x1="107.07" y1="-1223.05" x2="103.59" y2="-1223.05" xlink:href="#linear-gradient-3"/><linearGradient id="linear-gradient-28" x1="213.63" y1="-1419.09" x2="187.9" y2="-1400.4" gradientTransform="matrix(0.87, -0.5, 0, -1.15, -59.81, -1477.37)" gradientUnits="userSpaceOnUse"><stop offset="0.17" stop-color="#6fc8c4"/><stop offset="0.27" stop-color="#6cc1c2"/><stop offset="0.42" stop-color="#64aebc"/><stop offset="0.59" stop-color="#578fb3"/><stop offset="0.79" stop-color="#4464a6"/><stop offset="0.88" stop-color="#3a4c9f"/></linearGradient><linearGradient id="linear-gradient-29" x1="206.5" y1="-1413.58" x2="197.46" y2="-1407.02" xlink:href="#linear-gradient-28"/><linearGradient id="linear-gradient-30" x1="205.73" y1="-1416.11" x2="190.2" y2="-1404.83" xlink:href="#linear-gradient-28"/><linearGradient id="linear-gradient-31" x1="210.66" y1="-1419.25" x2="191.88" y2="-1405.61" xlink:href="#linear-gradient-28"/><linearGradient id="linear-gradient-32" x1="198.19" y1="-1413.28" x2="192.4" y2="-1409.07" xlink:href="#linear-gradient-28"/><linearGradient id="linear-gradient-33" x1="213.64" y1="-1423.78" x2="187.91" y2="-1405.09" xlink:href="#linear-gradient-28"/><linearGradient id="linear-gradient-34" x1="206.52" y1="-1418.28" x2="197.48" y2="-1411.71" xlink:href="#linear-gradient-28"/><linearGradient id="linear-gradient-35" x1="205.75" y1="-1420.81" x2="190.22" y2="-1409.52" xlink:href="#linear-gradient-28"/><linearGradient id="linear-gradient-36" x1="210.65" y1="-1423.98" x2="191.88" y2="-1410.34" xlink:href="#linear-gradient-28"/><linearGradient id="linear-gradient-37" x1="198.21" y1="-1417.98" x2="192.41" y2="-1413.77" xlink:href="#linear-gradient-28"/><linearGradient id="linear-gradient-38" x1="213.62" y1="-1428.45" x2="187.89" y2="-1409.76" xlink:href="#linear-gradient-28"/><linearGradient id="linear-gradient-39" x1="206.49" y1="-1422.94" x2="197.46" y2="-1416.38" xlink:href="#linear-gradient-28"/><linearGradient id="linear-gradient-40" x1="205.75" y1="-1425.44" x2="190.21" y2="-1414.16" xlink:href="#linear-gradient-28"/><linearGradient id="linear-gradient-41" x1="210.67" y1="-1428.58" x2="191.9" y2="-1414.94" xlink:href="#linear-gradient-28"/><linearGradient id="linear-gradient-42" x1="198.21" y1="-1422.61" x2="192.41" y2="-1418.4" xlink:href="#linear-gradient-28"/><linearGradient id="linear-gradient-43" x1="213.64" y1="-1433.14" x2="187.91" y2="-1414.45" xlink:href="#linear-gradient-28"/><linearGradient id="linear-gradient-44" x1="107.07" y1="-1217.81" x2="103.59" y2="-1217.81" xlink:href="#linear-gradient-3"/><linearGradient id="linear-gradient-45" x1="126.03" y1="-1254.52" x2="124.13" y2="-1254.52" xlink:href="#linear-gradient-3"/><linearGradient id="linear-gradient-46" x1="125.88" y1="-1248.4" x2="123.72" y2="-1248.4" xlink:href="#linear-gradient-3"/><linearGradient id="linear-gradient-47" x1="127.48" y1="-1244.95" x2="122.11" y2="-1244.95" xlink:href="#linear-gradient-25"/><linearGradient id="linear-gradient-48" x1="125.88" y1="-1245.92" x2="123.73" y2="-1245.92" xlink:href="#linear-gradient-3"/><linearGradient id="linear-gradient-49" x1="125.88" y1="-1245.92" x2="123.73" y2="-1245.92" xlink:href="#linear-gradient-3"/><linearGradient id="linear-gradient-50" x1="125.88" y1="-1242.68" x2="123.73" y2="-1242.68" xlink:href="#linear-gradient-3"/><linearGradient id="linear-gradient-51" x1="86.35" y1="-1249.88" x2="84.45" y2="-1249.88" xlink:href="#linear-gradient-3"/><linearGradient id="linear-gradient-52" x1="86.22" y1="-1240.95" x2="84.07" y2="-1240.95" xlink:href="#linear-gradient-3"/><linearGradient id="linear-gradient-53" x1="87.83" y1="-1237.45" x2="82.46" y2="-1237.45" xlink:href="#linear-gradient-25"/><linearGradient id="linear-gradient-54" x1="86.22" y1="-1238.63" x2="84.07" y2="-1238.63" xlink:href="#linear-gradient-3"/><linearGradient id="linear-gradient-55" x1="86.22" y1="-1238.63" x2="84.07" y2="-1238.63" xlink:href="#linear-gradient-3"/><linearGradient id="linear-gradient-56" x1="86.22" y1="-1235.23" x2="84.07" y2="-1235.23" xlink:href="#linear-gradient-3"/><linearGradient id="linear-gradient-57" x1="8.3" y1="-1244" x2="56.38" y2="-1244" gradientTransform="matrix(1, 0, 0, -1, 0, -1187)" gradientUnits="userSpaceOnUse"><stop offset="0" stop-color="#5262ab"/><stop offset="0.18" stop-color="#5267af"/><stop offset="0.4" stop-color="#5177ba"/><stop offset="0.65" stop-color="#5190cc"/><stop offset="0.91" stop-color="#4fb3e5"/><stop offset="1" stop-color="#4fc0ee"/></linearGradient><linearGradient id="linear-gradient-58" x1="-223.99" y1="-1191.55" x2="-291.69" y2="-1277.8" gradientTransform="matrix(1, 0, 0, -1, 296.59, -1187)" gradientUnits="userSpaceOnUse"><stop offset="0" stop-color="#50c6df"/><stop offset="0.31" stop-color="#4197c7"/><stop offset="0.61" stop-color="#3570b2"/><stop offset="0.85" stop-color="#2d57a6"/><stop offset="1" stop-color="#2a4ea1"/></linearGradient><linearGradient id="linear-gradient-59" x1="-60.69" y1="-1277.26" x2="-54.59" y2="-1272.43" gradientTransform="translate(-40.02 -1187) rotate(180)" gradientUnits="userSpaceOnUse"><stop offset="0" stop-color="#fff"/><stop offset="0.2" stop-color="#d1d1d1"/><stop offset="0.65" stop-color="#5d5d5d"/><stop offset="1"/></linearGradient><linearGradient id="linear-gradient-60" x1="-60.69" y1="-1277.26" x2="-54.59" y2="-1272.43" gradientTransform="translate(-40.02 -1187) rotate(180)" gradientUnits="userSpaceOnUse"><stop offset="0" stop-color="#9aaad7"/><stop offset="0.48" stop-color="#c8d1e9"/><stop offset="1" stop-color="#fff"/></linearGradient><linearGradient id="linear-gradient-61" x1="-281.38" y1="-1249.77" x2="-277.06" y2="-1260.34" xlink:href="#linear-gradient-58"/><linearGradient id="linear-gradient-62" x1="-275.78" y1="-1260.78" x2="-281.24" y2="-1253.54" xlink:href="#linear-gradient-58"/><linearGradient id="linear-gradient-63" x1="-278.45" y1="-1254.42" x2="-287.08" y2="-1265.4" xlink:href="#linear-gradient-58"/><linearGradient id="linear-gradient-64" x1="-57.98" y1="-1257" x2="-59.43" y2="-1260.09" gradientTransform="translate(-40.02 -1187) rotate(180)" gradientUnits="userSpaceOnUse"><stop offset="0" stop-color="#685fa9"/><stop offset="1" stop-color="#452d76"/></linearGradient><linearGradient id="linear-gradient-65" x1="-72.01" y1="-1279.54" x2="-59.17" y2="-1258.38" gradientTransform="translate(-40.02 -1187) rotate(180)" gradientUnits="userSpaceOnUse"><stop offset="0" stop-color="#9aaad7"/><stop offset="0.04" stop-color="#a5b4dc"/><stop offset="0.15" stop-color="#bdc8e5"/><stop offset="0.28" stop-color="#d0d8ed"/><stop offset="0.42" stop-color="#dde3f2"/><stop offset="0.61" stop-color="#e5e9f5"/><stop offset="1" stop-color="#e7ebf6"/></linearGradient><linearGradient id="linear-gradient-66" x1="-76.18" y1="-1278.78" x2="-77.22" y2="-1282.11" gradientTransform="translate(-40.02 -1187) rotate(180)" gradientUnits="userSpaceOnUse"><stop offset="0" stop-color="#9aaad7"/><stop offset="1" stop-color="#e7ebf6"/></linearGradient><linearGradient id="linear-gradient-67" x1="111.71" y1="-1243.19" x2="111.71" y2="-1249.1" gradientTransform="translate(130.34 -1187) rotate(180)" gradientUnits="userSpaceOnUse"><stop offset="0" stop-color="#fff"/><stop offset="0.07" stop-color="#f3f3f3"/><stop offset="0.37" stop-color="#c2c2c2"/><stop offset="0.64" stop-color="#9e9e9e"/><stop offset="0.86" stop-color="#888"/><stop offset="1" stop-color="gray"/></linearGradient><linearGradient id="linear-gradient-68" x1="113.92" y1="-1243.1" x2="113.51" y2="-1249.58" xlink:href="#linear-gradient-67"/><linearGradient id="linear-gradient-69" x1="112.78" y1="-1243.59" x2="112.23" y2="-1249.46" gradientTransform="translate(130.34 -1187) rotate(180)" gradientUnits="userSpaceOnUse"><stop offset="0" stop-color="#fff"/><stop offset="1" stop-color="#979797"/></linearGradient></defs><g id="Single_Multi_Hybrid_Cloud_Strategy" data-name="Single/Multi/Hybrid Cloud Strategy"><g id="_6" data-name="6" class="cls-2"><path class="cls-3" d="M136.5,80.12l-11.14-2.38L108,69.2a7.6,7.6,0,0,0-5.94.21l-16.12,7.9L75.51,79.47V90.61a1.61,1.61,0,0,0,1,1.3l27.57,13.51a7.63,7.63,0,0,0,6-.21L135,93c1-.43,1.4-1.08,1.4-1.62V80.12Z"/><path class="cls-4" d="M125.36,81.74,108,73.2a7.56,7.56,0,0,0-5.94.22L85.89,81.31,75.51,83.47V94.61a1.61,1.61,0,0,0,1,1.3l27.25,13.3H110L135,97c1-.43,1.4-1.08,1.4-1.62V84.23Z"/><path class="cls-5" d="M136.5,76l-11.14-2.38L108,65.09a7.56,7.56,0,0,0-5.94.22L85.89,73.2,75.51,75.36V85.74h0a1.58,1.58,0,0,0,1,1.3l27.57,13.52a7.63,7.63,0,0,0,6-.22l25-12.22c1-.43,1.4-1.08,1.4-1.62h0V76Z"/><path class="cls-6" d="M104.17,90.18,76.49,76.66c-1.52-.76-1.3-2.06.43-2.92l25-12.22a7.65,7.65,0,0,1,5.94-.22l27.58,13.52c1.51.76,1.3,2.06-.43,2.92L110.12,90A7.64,7.64,0,0,1,104.17,90.18Z"/><path class="cls-5" d="M136.5,67.47,125.25,65l-17.41-8.54a7.6,7.6,0,0,0-5.94.21l-16.11,7.9L75.4,66.71V70.5h0a1.58,1.58,0,0,0,1,1.29l27.68,13.52a7.59,7.59,0,0,0,6-.22l25-12.22c1-.43,1.4-1.08,1.4-1.62h0V67.47Z"/><path class="cls-7" d="M104.06,81.63,76.49,68.12c-1.52-.76-1.3-2.06.43-2.92l25-12.33a7.61,7.61,0,0,1,5.94-.22l27.58,13.52c1.51.76,1.3,2-.43,2.92L110,81.42A8.14,8.14,0,0,1,104.06,81.63Z"/></g><g id="_3" data-name="3"><path class="cls-8" d="M122.4,10.07l-1-1.19L124,7.59c.11-.11.21-.11.32-.22h.11a3.85,3.85,0,0,1,3,.32,7.71,7.71,0,0,1,1.84,1.41l1.73-.86c.1-.11.21-.11.32-.22h0a4.73,4.73,0,0,1,4.11.32c3.46,1.73,6.27,6.49,6.27,10.49a3,3,0,0,1-.11,1,8.48,8.48,0,0,1,3.25,6.59,3.41,3.41,0,0,1-1.3,2.92h0c-.11.11-.22.11-.32.22l-2.6,1.3-2.38-2.17.11-.32-14.6-7.14a9.08,9.08,0,0,1-4.54-7.57C119.26,11.26,120.56,10,122.4,10.07Z"/><path class="cls-5" d="M119.48,11.59c.32-2.6,2.48-3.68,5-2.38a7.28,7.28,0,0,1,2.27,1.84C127.8,9.21,130,8.67,132.45,10c3.46,1.73,6.27,6.48,6.27,10.48a3.27,3.27,0,0,1-.1,1A8.51,8.51,0,0,1,141.86,28c0,2.82-2.05,4-4.43,2.82l-16.55-8.11a9.08,9.08,0,0,1-4.54-7.57C116.34,12.67,117.64,11.37,119.48,11.59Z"/><path class="cls-9" d="M131.26,26.83a.86.86,0,0,0-.43-.64l-2.59-1.3c-.11,0-.22-.11-.22,0h0l-1.3.65,3.14,2.27,1.29-.65h.11Z"/><path class="cls-10" d="M129.53,27.81l-2.59-1.3a.87.87,0,0,1-.43-.65h0c0-.21.21-.32.43-.21l2.59,1.29a.91.91,0,0,1,.44.65h0C130,27.81,129.75,27.92,129.53,27.81Z"/><path class="cls-11" d="M109.42,52.14h0a.52.52,0,0,1,.22-.65c.64-.32,1.73-.87,3.78-1.84C117.1,47.92,117,45,117,44.89V35.27a6.38,6.38,0,0,1,3.57-5.62l7-3.14a.6.6,0,0,1,.75.22h0a.53.53,0,0,1-.21.65l-6.92,3.13h0a5.63,5.63,0,0,0-2.92,4.76v9.62c0,.11.1,3.57-4.22,5.63-2.06,1-3.24,1.51-3.79,1.83A.56.56,0,0,1,109.42,52.14Z"/></g><path class="cls-12" d="M133.5,22.17a1.82,1.82,0,0,1-.23.91l-.11.11a.11.11,0,0,1-.12.11,3.89,3.89,0,0,1-1.93,1l-1.37-2.39-.34-.12A3.15,3.15,0,0,1,128,19.21V19l-1.6-2.73a2.47,2.47,0,0,1,1.71-1c.11-.12.11,0,.23,0L133,17.84a1,1,0,0,1,.46.8Z"/><path class="cls-12" d="M131,24.56l-1.36-2.51-.23-.11a3.49,3.49,0,0,1-1.48-2.73V19l-1.48-2.62v-.11a2.46,2.46,0,0,1,1.82-1.14.22.22,0,0,1,.34,0l4.67,2.62a1.17,1.17,0,0,1,.46.91v3.64a1.35,1.35,0,0,1-.35,1l-.11.12h0a.11.11,0,0,1-.11.11,4,4,0,0,1-1.94,1Zm-4.21-8.2L128.26,19v.34a3.1,3.1,0,0,0,1.26,2.39l.34.23,1.36,2.39a7.51,7.51,0,0,0,1.71-1l.11-.11.12-.11a1.71,1.71,0,0,0,.22-.8V18.64a.92.92,0,0,0-.34-.57l-4.66-2.62h-.12A2,2,0,0,0,126.78,16.36Z"/><path class="cls-13" d="M131.22,24.56,130,22.39c.8-1.48,1.48-3.07,1.48-3.07l1.93-1.14a1.19,1.19,0,0,1,.23.57v3.64a1.67,1.67,0,0,1-.23.91l-.22.12c.11-.12,0-.12,0,0A7.16,7.16,0,0,1,131.22,24.56Z"/><path class="cls-14" d="M126.56,20V16.36c0-.34.22-.45.45-.34l4.67,2.62a1,1,0,0,1,.45.8v3.64c0,1-.57,1.48-1.36,1L128,22.62A3.57,3.57,0,0,1,126.56,20Z"/><path class="cls-14" d="M131.22,24.56a1.67,1.67,0,0,1-.68-.23l-2.73-1.48a3.49,3.49,0,0,1-1.48-2.73V16.48a.59.59,0,0,1,.23-.46.35.35,0,0,1,.45,0l4.67,2.62a1.2,1.2,0,0,1,.45.91v3.64a1.47,1.47,0,0,1-.57,1.25A.53.53,0,0,1,131.22,24.56Zm-4.44-8.2h0c-.11,0-.11.12,0,.12v3.64A3.12,3.12,0,0,0,128,22.51L130.77,24a.54.54,0,0,0,.68.11c.23-.11.34-.45.34-.91V19.55a1,1,0,0,0-.34-.57l-4.67-2.62Z"/><polygon class="cls-13" points="128.95 21.6 129.06 21.37 129.4 21.48 129.4 20.23 129.74 20.23 129.74 22.05 128.95 21.6"/><path class="cls-13" d="M129.4,20.8a1.51,1.51,0,0,1-.68-1.14.66.66,0,0,1,.23-.57.52.52,0,0,1,.57,0,1.53,1.53,0,0,1,.68,1.14.68.68,0,0,1-.23.57c-.11.11-.11.11-.23.11A1.09,1.09,0,0,0,129.4,20.8Zm-.11-1.48c-.12.12-.23.12-.12.34a1.3,1.3,0,0,0,.57.91H130c.11,0,.11-.11.11-.22a1.27,1.27,0,0,0-.56-.91.36.36,0,0,0-.23-.12Z"/><path class="cls-15" d="M129.17,19.32a1.33,1.33,0,0,1,.57,1c0,.34-.22.56-.57.34a1.38,1.38,0,0,1-.57-1C128.6,19.21,129,19.09,129.17,19.32Z"/><path class="cls-13" d="M129.17,20.8a1.51,1.51,0,0,1-.68-1.14.66.66,0,0,1,.23-.57.52.52,0,0,1,.57,0,1.53,1.53,0,0,1,.68,1.14.65.65,0,0,1-.23.57c-.11.11-.11.11-.22.11S129.29,20.8,129.17,20.8ZM129,19.32a.41.41,0,0,0-.12.34,1.27,1.27,0,0,0,.57.91h.23c.11,0,.11-.11.11-.22a1.25,1.25,0,0,0-.57-.91.33.33,0,0,0-.22-.12Z"/><polygon class="cls-15" points="128.72 21.48 128.83 21.26 129.17 21.37 129.17 20.23 129.51 20.46 129.51 21.94 128.72 21.48"/><path class="cls-10" d="M132.13,17.73V15.79a2.9,2.9,0,0,0-1.36-2.27l-.91-.46A1.05,1.05,0,0,0,128.6,13a1.4,1.4,0,0,0-.56,1.14V16a.49.49,0,0,0,.45.46h0A.49.49,0,0,0,129,16V14.09a.49.49,0,0,1,.11-.34.57.57,0,0,1,.34.11l.91.45a1.89,1.89,0,0,1,.91,1.48v1.94a.49.49,0,0,0,.46.45h0A.41.41,0,0,0,132.13,17.73Z"/><g id="_5" data-name="5"><path class="cls-16" d="M117.11,69.21v-27l-24-.43V68.56c-.11.21,0,.43.32.65l10.92,5.51a2.52,2.52,0,0,0,2.17-.11l10-4.75C117,69.64,117.22,69.42,117.11,69.21Z"/><path class="cls-10" d="M104.35,47.58,93.43,42.06c-.54-.32-.43-.75.22-1.08l10.06-4.75a3,3,0,0,1,2.16-.11l10.92,5.51c.54.33.43.76-.22,1.08l-9.94,4.76A2.8,2.8,0,0,1,104.35,47.58Z"/><polygon class="cls-17" points="94.3 44.88 94.3 48.45 103.27 52.77 103.27 49.31 94.3 44.88"/><polygon class="cls-18" points="94.3 48.45 97.87 46.72 94.3 44.88 94.3 48.45"/><g class="cls-19"><path class="cls-20" d="M108,48.77a.38.38,0,0,0,.11-.22.61.61,0,0,0-.32-.54l-6.93-3.35h-.21l-5.62,2.7,7.35,4.22,5.51-2.7c0-.11,0-.11.11-.11Z"/><path class="cls-21" d="M102.08,51.47l-6.92-3.35a.6.6,0,0,1-.32-.54h0c0-.22.11-.32.32-.22l6.92,3.36a.58.58,0,0,1,.33.54h0C102.41,51.47,102.3,51.58,102.08,51.47Z"/><path class="cls-22" d="M108,47.58a.38.38,0,0,0,.11-.22.61.61,0,0,0-.32-.54l-6.93-3.35h-.21l-5.62,2.7,7.35,4.22,5.51-2.7.11-.11Z"/><path class="cls-23" d="M102.08,50.39,95.16,47a.61.61,0,0,1-.32-.54h0c0-.22.11-.33.32-.22l6.92,3.35a.6.6,0,0,1,.33.55h0C102.41,50.39,102.3,50.5,102.08,50.39Z"/></g><polygon class="cls-17" points="94.3 49.63 94.3 53.2 103.27 57.53 103.27 54.07 94.3 49.63"/><polygon class="cls-18" points="94.3 53.2 97.87 51.37 94.3 49.63 94.3 53.2"/><g class="cls-24"><path class="cls-25" d="M108,53.53a.38.38,0,0,0,.11-.22.6.6,0,0,0-.32-.54l-6.93-3.35h-.21l-5.62,2.7,7.35,4.22,5.51-2.7c0-.11,0-.11.11-.11Z"/><path class="cls-26" d="M102.08,56.23l-6.92-3.35a.61.61,0,0,1-.32-.54h0c0-.22.11-.33.32-.22l6.92,3.35a.6.6,0,0,1,.33.54h0C102.41,56.23,102.3,56.34,102.08,56.23Z"/><path class="cls-27" d="M108,52.34a.38.38,0,0,0,.11-.22.61.61,0,0,0-.32-.54l-6.93-3.35h-.21l-5.62,2.7,7.35,4.22,5.51-2.7c0-.11,0-.11.11-.11Z"/><path class="cls-28" d="M102.08,55l-6.92-3.35a.61.61,0,0,1-.32-.54h0c0-.22.11-.33.32-.22l6.92,3.35a.6.6,0,0,1,.33.54h0C102.41,55,102.3,55.15,102.08,55Z"/></g><polygon class="cls-17" points="94.3 54.39 94.3 57.85 103.27 62.29 103.27 58.83 94.3 54.39"/><polygon class="cls-18" points="94.3 57.85 97.87 56.12 94.3 54.39 94.3 57.85"/><g class="cls-29"><path class="cls-30" d="M108,58.18a.38.38,0,0,0,.11-.22.6.6,0,0,0-.32-.54l-6.93-3.35h-.21l-5.62,2.7L102.3,61l5.52-2.7c.1,0,.1,0,.21-.11Z"/><path class="cls-31" d="M102.08,61l-6.92-3.35a.61.61,0,0,1-.32-.54h0c0-.22.11-.33.32-.22l6.92,3.35a.6.6,0,0,1,.33.54h0C102.41,61,102.3,61.1,102.08,61Z"/><path class="cls-32" d="M108,57.1a.38.38,0,0,0,.11-.22.6.6,0,0,0-.32-.54L100.89,53h-.21l-5.62,2.7,7.35,4.22,5.51-2.71c0-.1,0-.1.11-.1Z"/><path class="cls-33" d="M102.08,59.8l-6.92-3.35a.61.61,0,0,1-.32-.54h0c0-.22.11-.33.32-.22L102.08,59a.6.6,0,0,1,.33.54h0C102.41,59.8,102.3,59.91,102.08,59.8Z"/></g><polygon class="cls-17" points="94.3 59.04 94.3 62.61 103.27 67.04 103.27 63.48 94.3 59.04"/><polygon class="cls-18" points="94.3 62.61 97.87 60.88 94.3 59.04 94.3 62.61"/><g class="cls-34"><path class="cls-35" d="M108,62.94a.38.38,0,0,0,.11-.22.6.6,0,0,0-.32-.54l-7-3.35h-.22L95,61.53l7.35,4.22L107.82,63c.1-.1.1-.1.21-.1Z"/><path class="cls-36" d="M102.08,65.75l-6.92-3.36a.59.59,0,0,1-.32-.54h0c0-.21.11-.32.32-.21L102.08,65a.59.59,0,0,1,.33.54h0C102.41,65.64,102.3,65.75,102.08,65.75Z"/><path class="cls-37" d="M108,61.75a.38.38,0,0,0,.11-.22.6.6,0,0,0-.32-.54l-7-3.25h-.22L95,60.45l7.35,4.22L107.82,62l.21-.21Z"/><path class="cls-38" d="M102.08,64.56l-6.92-3.35a.61.61,0,0,1-.32-.55h0c0-.21.11-.32.32-.21l6.92,3.35a.59.59,0,0,1,.33.54h0C102.41,64.56,102.3,64.67,102.08,64.56Z"/></g><polygon class="cls-17" points="94.3 63.8 94.3 67.37 103.27 71.69 103.27 68.23 94.3 63.8"/><polygon class="cls-18" points="94.3 67.37 97.87 65.53 94.3 63.8 94.3 67.37"/><g class="cls-39"><path class="cls-40" d="M108,67.69a.34.34,0,0,0,.11-.21.59.59,0,0,0-.32-.54l-6.93-3.36h-.21l-5.62,2.71,7.35,4.21,5.51-2.7c0-.11,0-.11.11-.11Z"/><path class="cls-41" d="M102.08,70.4,95.16,67a.59.59,0,0,1-.32-.54h0c0-.21.11-.32.32-.21l6.92,3.35a.59.59,0,0,1,.33.54h0C102.41,70.4,102.3,70.5,102.08,70.4Z"/><path class="cls-42" d="M108,66.5a.34.34,0,0,0,.11-.21.59.59,0,0,0-.32-.54l-6.93-3.36h-.21L95.06,65.1l7.35,4.22,5.51-2.71c0-.11,0-.11.11-.11Z"/><path class="cls-43" d="M102.08,69.32,95.16,66a.6.6,0,0,1-.32-.54h0c0-.21.11-.32.32-.21l6.92,3.35a.59.59,0,0,1,.33.54h0C102.41,69.21,102.3,69.32,102.08,69.32Z"/></g><path class="cls-44" d="M117.22,39.69V35.58l-8.11-.11L106,33.85a2.56,2.56,0,0,0-2.17.1l-2.92,1.41L93.22,35v4.21c0,.22.1.33.32.44l10.92,5.51a2.52,2.52,0,0,0,2.17-.11l10.05-4.76C117,40.12,117.22,39.9,117.22,39.69Z"/><path class="cls-10" d="M104.46,41,93.54,35.47c-.54-.33-.43-.76.22-1.08l10-4.76a3,3,0,0,1,2.17-.11L116.9,35c.54.32.43.75-.22,1.08l-10.05,4.76A2.56,2.56,0,0,1,104.46,41Z"/><path class="cls-45" d="M104.79,38.71l-6.71-3.35c-.32-.22-.32-.43.11-.65l6.16-2.92a1.66,1.66,0,0,1,1.41,0l6.71,3.35c.32.22.32.44-.11.65l-6.17,2.92A3,3,0,0,1,104.79,38.71Z"/><path class="cls-46" d="M98.19,35.36l1.08.54,5.08-2.49a1.66,1.66,0,0,1,1.41,0l5.52,2.82,1-.44c.43-.21.43-.54.11-.65l-6.71-3.35a2.09,2.09,0,0,0-1.4,0l-6.17,2.92C97.87,34.82,97.76,35.14,98.19,35.36Z"/><path class="cls-47" d="M104.46,36.77,93.54,31.25c-.54-.32-.43-.76.22-1.08l10-4.76A3.1,3.1,0,0,1,106,25.3l10.92,5.52c.54.32.43.76-.22,1.08l-10.05,4.87A2.57,2.57,0,0,1,104.46,36.77Z"/><path class="cls-48" d="M116.68,32l-10.05,4.76a3,3,0,0,1-2.17.1L93.54,31.36a.56.56,0,0,1-.32-.43V35c0,.21.1.32.32.43L104.46,41a2.56,2.56,0,0,0,2.17-.1l10.05-4.76c.33-.22.54-.44.54-.65V31.36C117.22,31.58,117,31.79,116.68,32Z"/><path class="cls-49" d="M104.46,36.77,93.54,31.25c-.54-.32-.43-.76.22-1.08l10-4.76A3.1,3.1,0,0,1,106,25.3l10.92,5.52c.54.32.43.76-.22,1.08l-10.05,4.87A2.57,2.57,0,0,1,104.46,36.77Z"/><path class="cls-50" d="M116.68,32l-10.05,4.76a3,3,0,0,1-2.17.1L93.54,31.36a.56.56,0,0,1-.32-.43V35c0,.21.1.32.32.43L104.46,41a2.56,2.56,0,0,0,2.17-.1l10.05-4.76c.33-.22.54-.44.54-.65V31.36C117.22,31.58,117,31.79,116.68,32Z"/><polygon class="cls-51" points="115.39 47.9 108.25 51.47 108.25 50.5 115.39 46.93 115.39 47.9"/><polygon class="cls-52" points="115.39 49.74 113.22 50.82 113.22 49.85 115.39 48.77 115.39 49.74"/><polygon class="cls-53" points="112.36 51.26 108.25 53.31 108.25 52.34 112.36 50.28 112.36 51.26"/><polygon class="cls-54" points="115.39 51.47 110.3 54.07 110.3 53.09 115.39 50.5 115.39 51.47"/><polygon class="cls-55" points="109.44 54.39 108.25 55.04 108.25 54.07 109.44 53.53 109.44 54.39"/><polygon class="cls-56" points="115.39 53.31 108.25 56.88 108.25 55.91 115.39 52.34 115.39 53.31"/><polygon class="cls-57" points="115.39 55.15 113.22 56.23 113.22 55.26 115.39 54.18 115.39 55.15"/><polygon class="cls-58" points="112.36 56.66 108.25 58.72 108.25 57.74 112.36 55.69 112.36 56.66"/><polygon class="cls-59" points="115.39 56.99 110.3 59.48 110.3 58.5 115.39 56.01 115.39 56.99"/><polygon class="cls-60" points="109.44 59.91 108.25 60.45 108.25 59.58 109.44 58.93 109.44 59.91"/><polygon class="cls-61" points="115.39 58.72 108.25 62.29 108.25 61.31 115.39 57.74 115.39 58.72"/><polygon class="cls-62" points="115.39 60.56 113.22 61.64 113.22 60.66 115.39 59.58 115.39 60.56"/><polygon class="cls-63" points="112.36 62.07 108.25 64.02 108.25 63.15 112.36 61.1 112.36 62.07"/><polygon class="cls-64" points="115.39 62.29 110.3 64.77 110.3 63.91 115.39 61.31 115.39 62.29"/><polygon class="cls-65" points="109.44 65.21 108.25 65.86 108.25 64.88 109.44 64.23 109.44 65.21"/><polygon class="cls-66" points="115.39 64.13 108.25 67.69 108.25 66.72 115.39 63.15 115.39 64.13"/><path class="cls-67" d="M104.46,30.39,93.54,24.87c-.54-.32-.43-.76.22-1.08l10-4.76a3.1,3.1,0,0,1,2.17-.11l10.92,5.52c.54.32.43.76-.22,1.08l-10.05,4.87A2.57,2.57,0,0,1,104.46,30.39Z"/><path class="cls-68" d="M116.68,25.52l-10.05,4.87a3,3,0,0,1-2.17.1L93.54,25a.56.56,0,0,1-.32-.43v6.38c0,.21.1.32.32.43l10.92,5.51a2.56,2.56,0,0,0,2.17-.1L116.68,32c.33-.22.54-.43.54-.65V25C117.22,25.2,117,25.41,116.68,25.52Z"/></g><g id="_2" data-name="2"><path class="cls-69" d="M132.17,68.59l-.11-5.52-14.82-.21.11,5.4a.44.44,0,0,0,.22.44l6.7,3.35a2.06,2.06,0,0,0,1.41,0l6.16-3C132.06,68.91,132.17,68.81,132.17,68.59Z"/><path class="cls-10" d="M124.27,66.43l-6.7-3.36c-.33-.21-.33-.43.11-.64l6.16-2.92a1.59,1.59,0,0,1,1.41,0l6.7,3.35c.33.21.33.43-.11.65l-6.16,2.92A3.31,3.31,0,0,1,124.27,66.43Z"/><path class="cls-70" d="M132.17,61.56V59l-5-.11-1.94-1a2.19,2.19,0,0,0-1.41,0l-1.84.87-4.76-.11v2.6c0,.1.11.21.22.32l6.71,3.35a2,2,0,0,0,1.4,0L131.73,62C132.06,61.78,132.17,61.67,132.17,61.56Z"/><path class="cls-10" d="M124.27,62.32,117.57,59c-.33-.22-.33-.44.11-.65l6.16-2.92a1.59,1.59,0,0,1,1.41,0l6.7,3.35c.33.22.33.43-.11.65l-6.16,2.92A1.65,1.65,0,0,1,124.27,62.32Z"/><path class="cls-45" d="M124.49,60.91l-4.11-2c-.22-.11-.22-.33.11-.44l3.78-1.83a1.19,1.19,0,0,1,.87,0l4.11,2c.21.11.21.33-.11.43l-3.79,1.84A1.15,1.15,0,0,1,124.49,60.91Z"/><path class="cls-71" d="M120.38,58.86l.65.32,3.14-1.51a1.16,1.16,0,0,1,.86,0l3.46,1.73.65-.33c.22-.1.32-.32.11-.43l-4.11-2a1.18,1.18,0,0,0-.87,0l-3.78,1.83C120.16,58.53,120.16,58.75,120.38,58.86Z"/><path class="cls-47" d="M124.27,59.29l-6.7-3.35c-.33-.22-.33-.44.11-.65l6.16-2.92a1.59,1.59,0,0,1,1.41,0l6.7,3.35c.33.22.33.43-.11.65l-6.16,2.92A1.58,1.58,0,0,1,124.27,59.29Z"/><path class="cls-72" d="M131.84,56.26l-6.16,2.92a1.59,1.59,0,0,1-1.41,0l-6.7-3.35c-.11-.11-.22-.22-.22-.33v3c0,.11.11.22.22.33l6.7,3.35a2.06,2.06,0,0,0,1.41,0l6.16-2.92c.22-.11.33-.22.33-.43v-3C132.17,56.05,132.06,56.15,131.84,56.26Z"/><path class="cls-49" d="M124.27,59.29l-6.7-3.35c-.33-.22-.33-.44.11-.65l6.16-2.92a1.59,1.59,0,0,1,1.41,0l6.7,3.35c.33.22.33.43-.11.65l-6.16,2.92A1.58,1.58,0,0,1,124.27,59.29Z"/><path class="cls-73" d="M131.84,56.26l-6.16,2.92a1.59,1.59,0,0,1-1.41,0l-6.7-3.35c-.11-.11-.22-.22-.22-.33v3c0,.11.11.22.22.33l6.7,3.35a2.06,2.06,0,0,0,1.41,0l6.16-2.92c.22-.11.33-.22.33-.43v-3C132.17,56.05,132.06,56.15,131.84,56.26Z"/><path class="cls-67" d="M124.27,55.72l-6.7-3.35c-.33-.22-.33-.43.11-.65l6.16-2.92a1.59,1.59,0,0,1,1.41,0l6.7,3.35c.33.22.33.44-.11.65l-6.16,2.92A3,3,0,0,1,124.27,55.72Z"/><path class="cls-74" d="M131.84,52.69l-6.16,2.92a1.59,1.59,0,0,1-1.41,0l-6.7-3.35c-.11-.11-.22-.22-.22-.32V55.5c0,.11.11.22.22.33l6.7,3.46a2.06,2.06,0,0,0,1.41,0l6.16-2.92c.22-.11.33-.22.33-.43V52.37C132.17,52.48,132.06,52.59,131.84,52.69Z"/></g><g id="_1" data-name="1"><path class="cls-75" d="M92.49,66.82V55.57l-14.81-.21V66.49a.45.45,0,0,0,.21.44l6.71,3.35a2,2,0,0,0,1.4,0l6.17-2.92A1,1,0,0,0,92.49,66.82Z"/><path class="cls-10" d="M84.6,58.93l-6.71-3.36c-.32-.21-.32-.43.11-.65L84.16,52a1.66,1.66,0,0,1,1.41,0l6.7,3.36c.33.21.33.43-.1.65L86,58.93A1.63,1.63,0,0,1,84.6,58.93Z"/><path class="cls-76" d="M92.49,54.06v-2.6l-5-.1-2-1a2.12,2.12,0,0,0-1.41,0l-1.84.87H77.68v2.59c0,.11.1.22.21.33l6.71,3.35a2,2,0,0,0,1.4,0l6.17-2.92A1,1,0,0,0,92.49,54.06Z"/><path class="cls-10" d="M84.6,54.82l-6.71-3.36c-.32-.21-.32-.43.11-.64l6.16-2.92a1.59,1.59,0,0,1,1.41,0l6.7,3.35c.33.21.33.43-.1.65L86,54.82A1.63,1.63,0,0,1,84.6,54.82Z"/><path class="cls-45" d="M84.81,53.41l-4.11-2c-.21-.11-.21-.33.11-.44l3.79-1.84a1.27,1.27,0,0,1,.86,0l4.11,2.06c.22.11.22.32-.11.43l-3.78,1.84A1.19,1.19,0,0,1,84.81,53.41Z"/><path class="cls-77" d="M80.7,51.36l.65.32,3.14-1.51a1.16,1.16,0,0,1,.86,0l3.46,1.73.65-.33c.22-.11.33-.32.11-.43l-4.11-2.06a1.26,1.26,0,0,0-.86,0l-3.79,1.84C80.49,51.14,80.49,51.25,80.7,51.36Z"/><path class="cls-47" d="M84.6,51.79l-6.71-3.35c-.32-.22-.32-.44.11-.65l6.16-2.92a1.59,1.59,0,0,1,1.41,0l6.7,3.35c.33.22.33.43-.1.65L86,51.79A1.63,1.63,0,0,1,84.6,51.79Z"/><path class="cls-78" d="M92.17,48.87,86,51.79a1.63,1.63,0,0,1-1.4,0l-6.71-3.35c-.21,0-.21-.11-.21-.22v3c0,.11.1.21.21.32l6.71,3.35a2,2,0,0,0,1.4,0L92.17,52c.21-.1.32-.21.32-.43v-3C92.49,48.65,92.38,48.76,92.17,48.87Z"/><path class="cls-49" d="M84.6,51.79l-6.71-3.35c-.32-.22-.32-.44.11-.65l6.16-2.92a1.59,1.59,0,0,1,1.41,0l6.7,3.35c.33.22.33.43-.1.65L86,51.79A1.63,1.63,0,0,1,84.6,51.79Z"/><path class="cls-79" d="M92.17,48.87,86,51.79a1.63,1.63,0,0,1-1.4,0l-6.71-3.35c-.21,0-.21-.11-.21-.22v3c0,.11.1.21.21.32l6.71,3.35a2,2,0,0,0,1.4,0L92.17,52c.21-.1.32-.21.32-.43v-3C92.49,48.65,92.38,48.76,92.17,48.87Z"/><path class="cls-67" d="M84.6,48.22l-6.71-3.35c-.32-.22-.32-.43.11-.65l6.16-2.92a1.59,1.59,0,0,1,1.41,0l6.7,3.35c.33.22.33.43-.1.65L86,48.22A2,2,0,0,1,84.6,48.22Z"/><path class="cls-80" d="M92.17,45.19,86,48.11a1.57,1.57,0,0,1-1.4,0l-6.71-3.35c-.21,0-.21-.11-.21-.22v3.57c0,.11.1.22.21.33l6.71,3.35a2.09,2.09,0,0,0,1.4,0l6.17-2.92c.21-.11.32-.22.32-.43V44.87C92.49,45,92.38,45.08,92.17,45.19Z"/></g><g id="_4" data-name="4"><path class="cls-10" d="M79.21,35.56l3.87-1.93c.11,0,.11-.12.11-.12l-.79-.34h-.12L78.41,35.1c-.11,0-.11.12-.11.12l.8.34Z"/><path class="cls-81" d="M60.66,32.15V20.77a1.16,1.16,0,0,1,.57-.91l15.36-7.51a.21.21,0,0,1,.34,0h0l.57.34-.45.45v11a1.17,1.17,0,0,1-.57.91L61.57,32.83h-.11l-.57-.23h0C60.66,32.49,60.66,32.37,60.66,32.15Z"/><path class="cls-82" d="M61.69,32.83l15.36-7.51a1,1,0,0,0,.57-.91V12.92c0-.35-.23-.46-.57-.35L61.69,20.2a1,1,0,0,0-.57.91V32.26C61.12,32.49,61.35,33.06,61.69,32.83Z"/><path class="cls-10" d="M62,31.69l14.56-7.17c.12-.11.23-.23.23-.34V13.71c0-.11-.11-.23-.23-.11L62,20.77c-.12.11-.23.22-.23.34V31.58C61.8,31.69,61.91,31.69,62,31.69Z"/><path class="cls-10" d="M69.31,16.9h0c.11-.12.23-.12.23-.23h0c0-.11-.12-.11-.12-.11h-.11c-.11,0-.11.11-.11.22h0C69.2,16.9,69.2,17,69.31,16.9Z"/><path class="cls-82" d="M61.8,32.83l.91-.12,14.57-7.16a1.82,1.82,0,0,1,1.13,0l10.7,5.23h.57v.46h0a.24.24,0,0,1-.23.22L74.09,39A1.85,1.85,0,0,1,73,39L62,33.63c-.23-.12-.23-.23-.23-.35h0Z"/><path class="cls-6" d="M74.2,38.63l15.37-7.51c.34-.11.22-.45-.12-.57L78.53,25.2c-.34-.11-.91-.22-1.14,0L62,32.71c-.34.12-.23.46.11.57l10.93,5.35A1.82,1.82,0,0,0,74.2,38.63Z"/><path class="cls-83" d="M69.77,36l14.56-7.16c.11-.12.11-.23,0-.23l-6.14-3.07a.34.34,0,0,0-.46,0L63.17,32.71c-.12.12-.12.23,0,.23L69.31,36A.34.34,0,0,0,69.77,36Z"/><path class="cls-83" d="M79.21,35.56l4.1-1.93c.11,0,.11-.12,0-.12L80,31.92h-.23l-4.1,1.93c-.11,0-.11.12,0,.12L79,35.56Z"/><path class="cls-84" d="M84.44,29h0L78.3,26a.35.35,0,0,0-.45,0L63.28,33.06h0c-.11-.12-.11-.23,0-.23l14.57-7.17c.11-.11.34,0,.45,0l6.14,3.07C84.56,28.73,84.56,28.85,84.44,29Z"/><path class="cls-84" d="M83.31,33.51h-.12L80,31.92h-.23l-4,1.93h-.12c-.11,0-.11-.11,0-.11l4.1-1.94H80l3.3,1.6Z"/><path class="cls-84" d="M78.19,26.8l.45-.23c.12,0,.12-.11,0-.23h-.23a.35.35,0,0,0-.45,0l-.46.23c-.11,0-.11.11,0,.23l.12.11C78,26.91,78.07,26.91,78.19,26.8Z"/><path class="cls-84" d="M77.16,27.37l.46-.23c.11,0,.11-.11,0-.23l-.12-.11a.33.33,0,0,0-.45,0l-.46.23c-.11,0-.11.11,0,.22l.12.12Z"/><path class="cls-84" d="M76.14,27.82l.45-.23c.12,0,.12-.11,0-.22l-.11-.12a.36.36,0,0,0-.46,0l-.45.23c-.11,0-.11.11,0,.23l.11.11C75.91,27.94,76,27.94,76.14,27.82Z"/><path class="cls-84" d="M75.11,28.39l.46-.23c.11,0,.11-.11,0-.22l-.11-.12a.36.36,0,0,0-.46,0l-.45.23c-.12,0-.12.11,0,.23l.11.11Z"/><path class="cls-84" d="M74.09,28.85l.46-.23c.11,0,.11-.12,0-.23l-.12-.11a.33.33,0,0,0-.45,0l-.46.22c-.11,0-.11.12,0,.23l.11.12Z"/><path class="cls-84" d="M73.07,29.3l.45-.23c.11,0,.11-.11,0-.22l-.11-.12a.36.36,0,0,0-.46,0L72.5,29c-.12,0-.12.11,0,.23l.22.11C72.84,29.41,73.07,29.41,73.07,29.3Z"/><path class="cls-84" d="M72,29.87l.46-.23c.11,0,.11-.11,0-.23l-.12-.11a.35.35,0,0,0-.45,0l-.46.23c-.11,0-.11.11,0,.23l.12.11Z"/><path class="cls-84" d="M71,30.33l.45-.23c.12,0,.12-.12,0-.23l-.11-.11a.34.34,0,0,0-.46,0l-.45.34c-.12,0-.12.11,0,.23l.11.11C70.79,30.44,71,30.44,71,30.33Z"/><path class="cls-84" d="M70.11,30.89l.45-.22c.12,0,.12-.12,0-.23l-.11-.11a.34.34,0,0,0-.46,0l-.45.22c-.12,0-.12.12,0,.23l.11.11Z"/><path class="cls-84" d="M69.08,31.35l.46-.23c.11,0,.11-.11,0-.23l-.12-.11a.35.35,0,0,0-.45,0l-.46.23c-.11,0-.11.11,0,.23l.12.11Z"/><path class="cls-84" d="M68,31.8l.45-.22c.11,0,.11-.12,0-.23h-.23a.35.35,0,0,0-.45,0l-.34.23c-.12,0-.12.11,0,.22l.11.12C67.72,31.92,67.83,31.92,68,31.8Z"/><path class="cls-84" d="M66.92,32.37l.46-.22c.11,0,.11-.12,0-.23l-.12-.12a.35.35,0,0,0-.45,0l-.46.23c-.11,0-.11.12,0,.23l.12.11Z"/><path class="cls-84" d="M65.9,32.83l.45-.23c.12,0,.12-.11,0-.23l-.11-.11a.36.36,0,0,0-.46,0l-.45.23c-.12,0-.12.11,0,.22l.11.12C65.67,32.94,65.78,32.94,65.9,32.83Z"/><path class="cls-84" d="M64.87,33.4l.46-.23c.11,0,.11-.11,0-.23l-.12-.11a.33.33,0,0,0-.45,0l-.46.23c-.11,0-.11.11,0,.22l.12.12Z"/><path class="cls-84" d="M79.44,27.48l.45-.23c.12,0,.12-.11,0-.22l-.45-.23a.34.34,0,0,0-.46,0l-.57.23c-.11,0-.11.11,0,.22l.46.23Z"/><path class="cls-84" d="M78.41,27.94l.46-.23c.11,0,.11-.12,0-.23l-.46-.23a.35.35,0,0,0-.45,0l-.46.23c-.11,0-.11.11,0,.23l.46.23Z"/><path class="cls-84" d="M77.39,28.39l.46-.23c.11,0,.11-.11,0-.22l-.57-.12a.36.36,0,0,0-.46,0l-.45.23c-.12,0-.12.11,0,.23l.45.22A.87.87,0,0,0,77.39,28.39Z"/><path class="cls-84" d="M76.37,29l.45-.23c.11,0,.11-.11,0-.23l-.45-.22a.34.34,0,0,0-.46,0l-.45.22c-.12,0-.12.12,0,.23l.45.23Z"/><path class="cls-84" d="M75.34,29.41l.46-.22c.11,0,.11-.12,0-.23l-.46-.23a.35.35,0,0,0-.45,0l-.46.23c-.11,0-.11.11,0,.23l.46.22A.33.33,0,0,0,75.34,29.41Z"/><path class="cls-84" d="M74.32,30l.45-.22c.12,0,.12-.12,0-.23l-.57-.23a.35.35,0,0,0-.45,0l-.46.23c-.11,0-.11.11,0,.23l.46.22Z"/><path class="cls-84" d="M73.29,30.44l.46-.23c.11,0,.11-.11,0-.23l-.46-.22a.33.33,0,0,0-.45,0l-.46.22c-.11,0-.11.12,0,.23l.46.23Z"/><path class="cls-84" d="M72.27,30.89l.45-.22c.12,0,.12-.12,0-.23l-.45-.23a.36.36,0,0,0-.46,0l-.56.23c-.12,0-.12.11,0,.23l.45.22A.49.49,0,0,0,72.27,30.89Z"/><path class="cls-84" d="M71.25,31.46l.45-.22c.11,0,.11-.12,0-.23l-.45-.23a.36.36,0,0,0-.46,0l-.46.23c-.11,0-.11.11,0,.23l.46.22Z"/><path class="cls-84" d="M70.22,31.92l.46-.23c.11,0,.11-.11,0-.23l-.46-.22a.33.33,0,0,0-.45,0l-.46.22c-.11,0-.11.12,0,.23l.46.23A.35.35,0,0,0,70.22,31.92Z"/><path class="cls-84" d="M69.2,32.49l.45-.23c.12,0,.12-.11,0-.23l-.45-.23a.36.36,0,0,0-.46,0l-.57.23c-.11,0-.11.12,0,.23l.46.23Z"/><path class="cls-84" d="M68.17,32.94l.46-.23c.11,0,.11-.11,0-.22l-.46-.23a.35.35,0,0,0-.45,0l-.46.23c-.11,0-.11.11,0,.22l.46.23Z"/><path class="cls-84" d="M67.15,33.4l.45-.23c.12,0,.12-.11,0-.23L67,32.83a.33.33,0,0,0-.45,0l-.46.23c-.11,0-.11.11,0,.22l.46.23A.89.89,0,0,0,67.15,33.4Z"/><path class="cls-84" d="M66.12,34l.46-.23c.11,0,.11-.11,0-.23l-.46-.23a.35.35,0,0,0-.45,0l-.46.23c-.11,0-.11.12,0,.23l.46.23Z"/><path class="cls-84" d="M80.58,28.05l.45-.23c.12,0,.12-.11,0-.23l-.45-.22a.34.34,0,0,0-.46,0l-.45.22c-.12,0-.12.12,0,.23l.45.23Z"/><path class="cls-84" d="M79.55,28.5l.46-.22c.11,0,.11-.12,0-.23l-.46-.23a.35.35,0,0,0-.45,0l-.46.23c-.11,0-.11.11,0,.23l.46.22A.33.33,0,0,0,79.55,28.5Z"/><path class="cls-84" d="M78.53,29.07l.45-.22c.12,0,.12-.12,0-.23l-.57-.23a.35.35,0,0,0-.45,0l-.46.23c-.11,0-.11.11,0,.23l.46.22Z"/><path class="cls-84" d="M77.5,29.53,78,29.3c.11,0,.11-.11,0-.23l-.46-.22a.33.33,0,0,0-.45,0l-.46.22c-.11,0-.11.12,0,.23l.46.23Z"/><path class="cls-84" d="M76.48,30l.45-.22c.12,0,.12-.12,0-.23l-.45-.23a.36.36,0,0,0-.46,0l-.45.23c-.11,0-.11.11,0,.23L76,30A.34.34,0,0,0,76.48,30Z"/><path class="cls-84" d="M75.46,30.55l.45-.22c.11,0,.11-.12,0-.23l-.45-.23a.36.36,0,0,0-.46,0l-.45.23c-.12,0-.12.11,0,.23l.45.22Z"/><path class="cls-84" d="M74.43,31l.46-.23c.11,0,.11-.11,0-.23l-.46-.22a.33.33,0,0,0-.45,0l-.46.22c-.11,0-.11.12,0,.23L74,31A.35.35,0,0,0,74.43,31Z"/><path class="cls-84" d="M73.41,31.58l.45-.23c.12,0,.12-.11,0-.23l-.45-.23a.36.36,0,0,0-.46,0l-.45.23c-.12,0-.12.12,0,.23l.45.23Z"/><path class="cls-84" d="M72.38,32l.46-.23c.11,0,.11-.11,0-.22l-.46-.23a.35.35,0,0,0-.45,0l-.46.23c-.11,0-.11.11,0,.22l.46.23Z"/><path class="cls-84" d="M71.36,32.49l.45-.23c.12,0,.12-.11,0-.23l-.45-.23a.36.36,0,0,0-.46,0l-.45.23c-.12,0-.12.12,0,.23l.45.23A.36.36,0,0,0,71.36,32.49Z"/><path class="cls-84" d="M70.33,33.06l.46-.23c.11,0,.11-.12,0-.23l-.46-.23a.35.35,0,0,0-.45,0l-.46.23c-.11,0-.11.11,0,.23l.46.23Z"/><path class="cls-84" d="M69.31,33.51l.46-.23c.11,0,.11-.11,0-.22l-.46-.23a.33.33,0,0,0-.45,0l-.46.23c-.11,0-.11.11,0,.22l.46.23A.33.33,0,0,0,69.31,33.51Z"/><path class="cls-84" d="M68.29,34.08l.45-.23c.12,0,.12-.11,0-.22l-.57-.23a.33.33,0,0,0-.45,0l-.46.23c-.11,0-.11.11,0,.22l.46.23Z"/><path class="cls-84" d="M67.26,34.54l.46-.23c.11,0,.11-.12,0-.23l-.57-.23h-.34l-.46.23c-.11,0-.11.11,0,.23l.46.23Z"/><path class="cls-84" d="M80.8,29.07l1.48-.68c.12,0,.12-.11,0-.23l-.45-.22a.34.34,0,0,0-.46,0l-1.48.68c-.11,0-.11.11,0,.23l.46.22A.33.33,0,0,0,80.8,29.07Z"/><path class="cls-84" d="M79.78,29.64l.45-.23c.12,0,.12-.11,0-.22L79.78,29a.36.36,0,0,0-.46,0l-.45.23c-.11,0-.11.11,0,.22l.45.23Z"/><path class="cls-84" d="M78.76,30.1l.45-.23c.11,0,.11-.11,0-.23l-.45-.23a.36.36,0,0,0-.46,0l-.45.23c-.12,0-.12.12,0,.23l.45.23A.36.36,0,0,0,78.76,30.1Z"/><path class="cls-84" d="M77.73,30.67l.46-.23c.11,0,.11-.11,0-.23L77.73,30a.35.35,0,0,0-.45,0l-.46.23c-.11,0-.11.12,0,.23l.46.23Z"/><path class="cls-84" d="M76.71,31.12l.45-.23c.12,0,.12-.11,0-.22l-.57-.23h-.45l-.46.23c-.11,0-.11.11,0,.22l.46.23Z"/><path class="cls-84" d="M75.68,31.58l.46-.23c.11,0,.11-.11,0-.23l-.46-.23a.35.35,0,0,0-.45,0l-.46.23c-.11,0-.11.12,0,.23l.46.23A.35.35,0,0,0,75.68,31.58Z"/><path class="cls-84" d="M74.66,32.15l.45-.23c.12,0,.12-.12,0-.23l-.45-.23a.36.36,0,0,0-.46,0l-.45.23c-.12,0-.12.11,0,.23l.45.23Z"/><path class="cls-84" d="M73.63,32.6l.46-.23c.11,0,.11-.11,0-.22l-.46-.23a.33.33,0,0,0-.45,0l-.46.23c-.11,0-.11.11,0,.22l.46.23A.35.35,0,0,0,73.63,32.6Z"/><path class="cls-84" d="M72.61,33.17l.46-.23c.11,0,.11-.11,0-.23l-.46-.22a.33.33,0,0,0-.45,0l-.46.22c-.11,0-.11.12,0,.23l.46.23Z"/><path class="cls-84" d="M71.59,33.63,72,33.4c.12,0,.12-.12,0-.23l-.45-.23a.36.36,0,0,0-.46,0l-.45.23c-.12,0-.12.11,0,.23l.45.23Z"/><path class="cls-84" d="M70.56,34.08l.46-.23c.11,0,.11-.11,0-.22l-.57-.12a.36.36,0,0,0-.46,0l-.45.23c-.12,0-.12.11,0,.23l.45.22A.87.87,0,0,0,70.56,34.08Z"/><path class="cls-84" d="M69.54,34.65l.45-.23c.12,0,.12-.11,0-.23L69.54,34a.34.34,0,0,0-.46,0l-.45.22c-.12,0-.12.12,0,.23l.45.23Z"/><path class="cls-84" d="M69.65,35.67l.46-.22c.11,0,.11-.12,0-.23l-1.71-.8a.35.35,0,0,0-.45,0l-.46.23c-.11,0-.11.11,0,.23l1.71.79C69.42,35.79,69.54,35.79,69.65,35.67Z"/><path class="cls-84" d="M83,29.19l.45-.23c.11,0,.11-.11,0-.23L83,28.5a.36.36,0,0,0-.46,0l-.45.23c-.12,0-.12.12,0,.23l.45.23C82.74,29.3,82.85,29.3,83,29.19Z"/><path class="cls-84" d="M81.94,29.76l.46-.23c.11,0,.11-.12,0-.23l-.57-.23a.36.36,0,0,0-.46,0L81,29.3c-.11,0-.11.11,0,.23l.46.23Z"/><path class="cls-84" d="M80.92,30.21l.45-.23c.12,0,.12-.11,0-.22l-.45-.23a.34.34,0,0,0-.46,0l-.45.23c-.12,0-.12.11,0,.22l.45.23Z"/><path class="cls-84" d="M79.89,30.67l.46-.23c.11,0,.11-.11,0-.23L79.89,30a.35.35,0,0,0-.45,0l-.46.23c-.11,0-.11.12,0,.23l.46.23C79.67,30.78,79.78,30.78,79.89,30.67Z"/><path class="cls-84" d="M75.8,32.71,79.32,31c.12,0,.12-.12,0-.23l-.45-.23a.36.36,0,0,0-.46,0l-3.52,1.71c-.12,0-.12.11,0,.23l.45.22Z"/><path class="cls-84" d="M74.77,33.17l.46-.23c.11,0,.11-.11,0-.23l-.46-.22a.33.33,0,0,0-.45,0l-.46.22c-.11,0-.11.12,0,.23l.46.23C74.55,33.28,74.66,33.28,74.77,33.17Z"/><path class="cls-84" d="M73.75,33.74l.45-.23c.12,0,.12-.11,0-.23l-.45-.22a.34.34,0,0,0-.46,0l-.45.22c-.12,0-.12.12,0,.23l.45.23Z"/><path class="cls-84" d="M72.72,34.19l.46-.22c.11,0,.11-.12,0-.23l-.46-.23a.35.35,0,0,0-.45,0l-.46.23c-.11,0-.11.11,0,.23l.46.22C72.5,34.31,72.61,34.31,72.72,34.19Z"/><path class="cls-84" d="M71.7,34.76l.46-.22c.11,0,.11-.12,0-.23l-.57-.23a.36.36,0,0,0-.46,0l-.45.23c-.12,0-.12.11,0,.23l.45.22Z"/><path class="cls-84" d="M70.68,35.22l.45-.23c.12,0,.12-.11,0-.23l-.45-.22a.34.34,0,0,0-.46,0l-.45.22c-.12,0-.12.12,0,.23l.45.23Z"/><path class="cls-10" d="M78.19,26.68l.45-.22c.12,0,.12-.12,0-.23h-.23a.33.33,0,0,0-.45,0l-.46.23c-.11,0-.11.11,0,.22l.12.12C78,26.8,78.19,26.8,78.19,26.68Z"/><path class="cls-10" d="M77.16,27.25l.46-.22c.11,0,.11-.12,0-.23l-.12-.12a.35.35,0,0,0-.45,0l-.46.23c-.11,0-.11.12,0,.23l.12.11Z"/><path class="cls-10" d="M76.25,27.71l.46-.23c.11,0,.11-.11,0-.23l-.12-.11a.35.35,0,0,0-.45,0l-.46.23c-.11,0-.11.11,0,.22l.12.12Z"/><path class="cls-10" d="M75.23,28.16l.45-.22c.12,0,.12-.12,0-.23l-.11-.12a.36.36,0,0,0-.46,0l-.45.23c-.11,0-.11.12,0,.23l.11.11A.34.34,0,0,0,75.23,28.16Z"/><path class="cls-10" d="M74.2,28.73l.46-.23c.11,0,.11-.11,0-.22l-.11-.12a.36.36,0,0,0-.46,0l-.46.23c-.11,0-.11.11,0,.23l.12.11Z"/><path class="cls-10" d="M73.18,29.19l.45-.23c.12,0,.12-.11,0-.23l-.11-.11a.33.33,0,0,0-.45,0l-.46.23c-.11,0-.11.11,0,.22l.11.12A.36.36,0,0,0,73.18,29.19Z"/><path class="cls-10" d="M72.16,29.76l.45-.23c.11,0,.11-.12,0-.23l-.11-.11a.34.34,0,0,0-.46,0l-.45.22c-.12,0-.12.12,0,.23l.11.12Z"/><path class="cls-10" d="M71.13,30.21l.46-.23c.11,0,.11-.11,0-.22l-.12-.12a.35.35,0,0,0-.45,0l-.57.23c-.12,0-.12.11,0,.23l.11.11Z"/><path class="cls-10" d="M70.11,30.67l.45-.23c.12,0,.12-.11,0-.23l-.11-.11a.34.34,0,0,0-.46,0l-.57.34c-.11,0-.11.11,0,.23l.12.11A.89.89,0,0,0,70.11,30.67Z"/><path class="cls-10" d="M69.08,31.24l.46-.23c.11,0,.11-.12,0-.23h-.23a.35.35,0,0,0-.45,0L68.4,31c-.11,0-.11.11,0,.23l.11.11A1.29,1.29,0,0,1,69.08,31.24Z"/><path class="cls-10" d="M68,31.69l.45-.23c.11,0,.11-.11,0-.22h-.23a.33.33,0,0,0-.45,0l-.46.22c-.11,0-.11.12,0,.23l.12.11C67.72,31.8,68,31.8,68,31.69Z"/><path class="cls-10" d="M67,32.26l.46-.23c.11,0,.11-.11,0-.23l-.11-.11a.36.36,0,0,0-.46,0l-.45.23c-.12,0-.12.11,0,.23l.11.11Z"/><path class="cls-10" d="M66,32.71l.46-.22c.11,0,.11-.12,0-.23l-.12-.11a.33.33,0,0,0-.45,0l-.46.22c-.11,0-.11.12,0,.23l.12.11Z"/><path class="cls-10" d="M65,33.17l.45-.23c.12,0,.12-.11,0-.23h-.68l-.46.23c-.11,0-.11.12,0,.23l.12.11A.89.89,0,0,0,65,33.17Z"/><path class="cls-10" d="M79.44,27.25l.45-.22c.12,0,.12-.12,0-.23l-.45-.23a.36.36,0,0,0-.46,0l-.45.23c-.12,0-.12.11,0,.23l.45.22A.34.34,0,0,0,79.44,27.25Z"/><path class="cls-10" d="M78.41,27.82l.46-.23c.11,0,.11-.11,0-.22l-.46-.23a.35.35,0,0,0-.45,0l-.46.23c-.11,0-.11.11,0,.22l.46.23Z"/><path class="cls-10" d="M77.39,28.28l.46-.23c.11,0,.11-.11,0-.23l-.57-.11a.34.34,0,0,0-.46,0l-.45.23c-.12,0-.12.11,0,.22l.45.23A.87.87,0,0,0,77.39,28.28Z"/><path class="cls-10" d="M76.37,28.85l.45-.23c.11,0,.11-.12,0-.23l-.57-.23a.35.35,0,0,0-.45,0l-.46.23c-.11,0-.11.11,0,.23l.46.23Z"/><path class="cls-10" d="M75.34,29.3l.46-.23c.11,0,.11-.11,0-.22l-.46-.23a.33.33,0,0,0-.45,0l-.46.23c-.11,0-.11.11,0,.22l.46.23Z"/><path class="cls-10" d="M74.32,29.76l.45-.23c.12,0,.12-.12,0-.23l-.45-.23a.36.36,0,0,0-.46,0l-.45.23c-.12,0-.12.11,0,.23l.45.23A.36.36,0,0,0,74.32,29.76Z"/><path class="cls-10" d="M73.29,30.33l.46-.23c.11,0,.11-.12,0-.23l-.46-.23a.35.35,0,0,0-.45,0l-.46.23c-.11,0-.11.11,0,.23l.46.23Z"/><path class="cls-10" d="M72.27,30.78l.45-.23c.12,0,.12-.11,0-.22l-.45-.23a.34.34,0,0,0-.46,0l-.45.23c-.11,0-.11.11,0,.22l.45.23A.36.36,0,0,0,72.27,30.78Z"/><path class="cls-10" d="M71.25,31.35l.45-.23c.11,0,.11-.11,0-.23l-.45-.22a.34.34,0,0,0-.46,0l-.46.22c-.11,0-.11.12,0,.23l.46.23Z"/><path class="cls-10" d="M70.22,31.8l.46-.22c.11,0,.11-.12,0-.23l-.46-.23a.35.35,0,0,0-.45,0l-.46.23c-.11,0-.11.11,0,.23l.46.22Z"/><path class="cls-10" d="M69.2,32.26l.45-.23c.12,0,.12-.11,0-.23l-.45-.22a.34.34,0,0,0-.46,0l-.45.22c-.12,0-.12.12,0,.23l.45.23A.36.36,0,0,0,69.2,32.26Z"/><path class="cls-10" d="M68.17,32.83l.46-.23c.11,0,.11-.11,0-.23l-.46-.22a.33.33,0,0,0-.45,0l-.46.22c-.11,0-.11.12,0,.23l.46.23Z"/><path class="cls-10" d="M67.15,33.28l.45-.22c.12,0,.12-.12,0-.23L67,32.6a.35.35,0,0,0-.45,0l-.46.23c-.11,0-.11.11,0,.23l.46.22A.49.49,0,0,0,67.15,33.28Z"/><path class="cls-10" d="M66.12,33.85l.46-.22c.11,0,.11-.12,0-.23l-.46-.23a.35.35,0,0,0-.45,0l-.46.23c-.11,0-.11.11,0,.23l.46.22Z"/><path class="cls-10" d="M80.58,27.94l.45-.23c.12,0,.12-.12,0-.23l-.45-.23a.36.36,0,0,0-.46,0l-.45.23c-.12,0-.12.11,0,.23l.45.23Z"/><path class="cls-10" d="M79.55,28.39l.46-.23c.11,0,.11-.11,0-.22l-.46-.23a.33.33,0,0,0-.45,0l-.46.23c-.11,0-.11.11,0,.22l.46.23Z"/><path class="cls-10" d="M78.53,28.85l.45-.23c.12,0,.12-.12,0-.23l-.57-.11a.33.33,0,0,0-.45,0l-.46.22c-.11,0-.11.12,0,.23L78,29C78.3,29,78.41,29,78.53,28.85Z"/><path class="cls-10" d="M77.5,29.41l.46-.22c.11,0,.11-.12,0-.23l-.46-.23a.35.35,0,0,0-.45,0l-.46.23c-.11,0-.11.11,0,.23l.46.22Z"/><path class="cls-10" d="M76.48,29.87l.45-.23c.12,0,.12-.11,0-.23l-.45-.22a.34.34,0,0,0-.46,0l-.45.22c-.11,0-.11.12,0,.23l.45.23C76.25,30,76.37,30,76.48,29.87Z"/><path class="cls-10" d="M75.46,30.44l.45-.23c.11,0,.11-.11,0-.23l-.45-.22a.34.34,0,0,0-.46,0l-.45.22c-.12,0-.12.12,0,.23l.45.23Z"/><path class="cls-10" d="M74.43,30.89l.46-.22c.11,0,.11-.12,0-.23l-.46-.23a.35.35,0,0,0-.45,0l-.46.23c-.11,0-.11.11,0,.23l.46.22Z"/><path class="cls-10" d="M73.41,31.35l.45-.23c.12,0,.12-.11,0-.23l-.45-.22a.34.34,0,0,0-.46,0l-.45.22c-.12,0-.12.12,0,.23l.45.23C73.18,31.46,73.29,31.46,73.41,31.35Z"/><path class="cls-10" d="M72.38,31.92l.46-.23c.11,0,.11-.11,0-.23l-.46-.22a.33.33,0,0,0-.45,0l-.46.22c-.11,0-.11.12,0,.23l.46.23Z"/><path class="cls-10" d="M71.36,32.37l.45-.22c.12,0,.12-.12,0-.23l-.45-.23a.36.36,0,0,0-.46,0l-.45.23c-.12,0-.12.11,0,.23l.45.22C71.13,32.49,71.25,32.49,71.36,32.37Z"/><path class="cls-10" d="M70.33,32.94l.46-.23c.11,0,.11-.11,0-.22l-.46-.23a.35.35,0,0,0-.45,0l-.46.23c-.11,0-.11.11,0,.22l.46.23Z"/><path class="cls-10" d="M69.31,33.4l.46-.23c.11,0,.11-.11,0-.23l-.57-.23a.36.36,0,0,0-.46,0l-.45.23c-.12,0-.12.12,0,.23l.45.23Z"/><path class="cls-10" d="M68.29,33.85l.45-.22c.12,0,.12-.12,0-.23l-.57-.12a.35.35,0,0,0-.45,0l-.46.23c-.11,0-.11.12,0,.23l.46.23C68.06,34,68.17,34,68.29,33.85Z"/><path class="cls-10" d="M67.26,34.42l.46-.23c.11,0,.11-.11,0-.22l-.46-.23a.35.35,0,0,0-.45,0l-.46.23c-.11,0-.11.11,0,.22l.46.23Z"/><path class="cls-10" d="M80.8,29l1.48-.68c.12,0,.12-.12,0-.23l-.45-.23a.36.36,0,0,0-.46,0l-1.48.68c-.11,0-.11.12,0,.23l.46.23C80.58,29.07,80.69,29.07,80.8,29Z"/><path class="cls-10" d="M79.78,29.53l.45-.23c.12,0,.12-.11,0-.23l-.45-.22a.34.34,0,0,0-.46,0l-.45.22c-.11,0-.11.12,0,.23l.45.23Z"/><path class="cls-10" d="M78.76,30l.45-.22c.11,0,.11-.12,0-.23l-.57-.23a.35.35,0,0,0-.45,0l-.46.23c-.11,0-.11.11,0,.23l.46.22Z"/><path class="cls-10" d="M77.73,30.44l.46-.23c.11,0,.11-.11,0-.23l-.46-.22a.33.33,0,0,0-.45,0l-.46.22c-.11,0-.11.12,0,.23l.46.23A.35.35,0,0,0,77.73,30.44Z"/><path class="cls-10" d="M76.71,31l.45-.23c.12,0,.12-.11,0-.23l-.45-.22a.34.34,0,0,0-.46,0l-.45.22c-.12,0-.12.12,0,.23l.45.23Z"/><path class="cls-10" d="M75.68,31.46l.46-.22c.11,0,.11-.12,0-.23l-.46-.23a.35.35,0,0,0-.45,0l-.46.23c-.11,0-.11.11,0,.23l.46.22A.33.33,0,0,0,75.68,31.46Z"/><path class="cls-10" d="M74.66,32l.45-.23c.12,0,.12-.11,0-.22l-.45-.23a.36.36,0,0,0-.46,0l-.45.23c-.12,0-.12.11,0,.22l.45.23Z"/><path class="cls-10" d="M73.63,32.49l.46-.23c.11,0,.11-.11,0-.23l-.46-.23a.35.35,0,0,0-.45,0l-.46.23c-.11,0-.11.12,0,.23l.46.23Z"/><path class="cls-10" d="M72.61,32.94l.46-.23c.11,0,.11-.11,0-.22l-.46-.23a.35.35,0,0,0-.45,0l-.46.23c-.11,0-.11.11,0,.22l.46.23A.33.33,0,0,0,72.61,32.94Z"/><path class="cls-10" d="M71.59,33.51l.45-.23c.12,0,.12-.11,0-.22l-.45-.23a.34.34,0,0,0-.46,0l-.45.23c-.12,0-.12.11,0,.22l.45.23Z"/><path class="cls-10" d="M70.56,34l.46-.23c.11,0,.11-.11,0-.23l-.57-.23a.36.36,0,0,0-.46,0l-.45.23c-.12,0-.12.12,0,.23L70,34A.52.52,0,0,0,70.56,34Z"/><path class="cls-10" d="M69.54,34.54l.45-.23c.12,0,.12-.12,0-.23l-.57-.23a.35.35,0,0,0-.45,0l-.46.23c-.11,0-.11.11,0,.23l.46.23Z"/><path class="cls-10" d="M69.65,35.56l.46-.23c.11,0,.11-.11,0-.23l-1.71-.79a.33.33,0,0,0-.45,0l-.46.23c-.11,0-.11.11,0,.22l1.71.8C69.42,35.67,69.54,35.67,69.65,35.56Z"/><path class="cls-10" d="M83,29.07l.45-.22c.11,0,.11-.12,0-.23L83,28.39a.36.36,0,0,0-.46,0l-.45.23c-.12,0-.12.11,0,.23l.45.22Z"/><path class="cls-10" d="M81.94,29.53l.46-.23c.11,0,.11-.11,0-.23l-.46-.22a.33.33,0,0,0-.45,0l-.46.22c-.11,0-.11.12,0,.23l.46.23C81.71,29.64,81.94,29.64,81.94,29.53Z"/><path class="cls-10" d="M80.92,30.1l.45-.23c.12,0,.12-.11,0-.23l-.45-.23a.36.36,0,0,0-.46,0l-.45.23c-.12,0-.12.12,0,.23l.45.23Z"/><path class="cls-10" d="M79.89,30.55l.46-.22c.11,0,.11-.12,0-.23l-.46-.23a.35.35,0,0,0-.45,0L79,30.1c-.11,0-.11.11,0,.23l.46.22C79.67,30.67,79.78,30.67,79.89,30.55Z"/><path class="cls-10" d="M75.8,32.6l3.52-1.71c.12,0,.12-.11,0-.22l-.45-.23a.36.36,0,0,0-.46,0l-3.52,1.71c-.12,0-.12.11,0,.22l.45.23Z"/><path class="cls-10" d="M74.77,33.06l.46-.23c.11,0,.11-.12,0-.23l-.46-.23a.35.35,0,0,0-.45,0l-.46.23c-.11,0-.11.11,0,.23l.46.23C74.55,33.17,74.66,33.17,74.77,33.06Z"/><path class="cls-10" d="M73.75,33.63l.45-.23c.12,0,.12-.12,0-.23l-.45-.23a.36.36,0,0,0-.46,0l-.45.23c-.12,0-.12.11,0,.23l.45.23Z"/><path class="cls-10" d="M72.72,34.08l.46-.23c.11,0,.11-.11,0-.22l-.46-.23a.33.33,0,0,0-.45,0l-.46.23c-.11,0-.11.11,0,.22l.46.23Z"/><path class="cls-10" d="M71.7,34.54l.46-.23c.11,0,.11-.12,0-.23l-.46-.23a.35.35,0,0,0-.45,0l-.46.23c-.11,0-.11.11,0,.23l.46.23C71.47,34.65,71.59,34.65,71.7,34.54Z"/><path class="cls-10" d="M70.68,35.1l.45-.22c.12,0,.12-.12,0-.23l-.45-.23a.36.36,0,0,0-.46,0l-.45.23c-.12,0-.12.11,0,.23l.45.22Z"/><path class="cls-10" d="M71.7,38.06a.57.57,0,0,0-.23-.45l-1.93-.91h-.23l-.91.45,2.28,1.6.91-.46h.11Z"/><path class="cls-82" d="M70.45,38.63l-1.94-.91c-.11-.11-.34-.23-.22-.45h0c0-.23.11-.23.34-.23l1.93.91c.12.11.34.23.23.45h0C70.79,38.63,70.68,38.75,70.45,38.63Z"/><path class="cls-85" d="M76.25,24.41c.12-.12.23-.23.23-.34V13.71l.23-.11c.11-.12.22,0,.22.11V24.18c0,.11-.11.34-.22.34L62.14,31.69c-.11.11-.23,0-.23-.11v-.12Z"/><path class="cls-11" d="M54.52,61.73s1-.45,4-1.93c4-1.94,3.87-5.24,3.87-5.35v-9.1a5.27,5.27,0,0,1,2.73-4.56l4.32-2.16a.53.53,0,0,0,.23-.68h0a.52.52,0,0,0-.79-.11L64.53,40a6.37,6.37,0,0,0-3.3,5.35v9.21c0,.12.12,2.85-3.3,4.55-3,1.48-4,1.94-4,1.94Z"/><path class="cls-86" d="M63.62,26.34l11.27-5.46a1,1,0,0,0,.45-.8V18.49c0-.34-.23-.45-.45-.34L63.62,23.73a.93.93,0,0,0-.45.79v1.59C63.05,26.34,63.28,26.46,63.62,26.34Z"/><path class="cls-87" d="M68,24.18l6.94-3.41a1,1,0,0,0,.45-.8V18.38c0-.34-.23-.46-.45-.34L68,21.45a1,1,0,0,0-.46.8v1.59C67.38,24.18,67.6,24.29,68,24.18Z"/></g><path class="cls-88" d="M56.12,13.88,54.46,13a.11.11,0,0,1-.11-.11h0c-.11-.11-.33,0-.55.11L7.53,39.72a2.23,2.23,0,0,0-.88,1.54V98.57a.65.65,0,0,0,.22.55H7l1.54.89L9,98.35l-.56.22L53.8,72.4a2.23,2.23,0,0,0,.88-1.54v-56Z"/><path class="cls-88" d="M54.57,13a.11.11,0,0,1-.11-.11h0c-.11-.11-.33,0-.55.11L7.53,39.72a1.33,1.33,0,0,0-.55.55l31.8,21.2L53.91,72.4a2.23,2.23,0,0,0,.88-1.54v-56l1.44-1Z"/><path class="cls-89" d="M56.45,71.74a2.2,2.2,0,0,1-.89,1.54L9.19,100c-.45.33-.89,0-.89-.56V42.26a2.2,2.2,0,0,1,.89-1.55L55.45,14c.56-.33.89,0,.89.55v57.2Z"/><polygon class="cls-90" points="55.56 69.2 9.19 95.92 9.19 42.15 55.56 15.42 55.56 69.2"/><path class="cls-8" d="M20.67,54c-3.09,1.77-5.63.33-5.63-3.2A12.49,12.49,0,0,1,20.67,41c3.09-1.76,5.63-.33,5.63,3.2A12.35,12.35,0,0,1,20.67,54Zm0-11.15a8.57,8.57,0,0,0-4,6.84c0,2.54,1.76,3.54,4,2.32a8.58,8.58,0,0,0,4-6.84C24.65,42.59,22.88,41.59,20.67,42.81Z"/><path class="cls-14" d="M20.67,52c-2.1,1.33-4,.22-4-2.32a8.57,8.57,0,0,1,4-6.84V40.93A12.48,12.48,0,0,0,15,50.65c0,3.64,2.54,5.08,5.63,3.2a12.48,12.48,0,0,0,5.63-9.72l-1.65,1A8.58,8.58,0,0,1,20.67,52Z"/><path class="cls-8" d="M33.48,46.56c-3.09,1.77-5.63.33-5.63-3.2a12.49,12.49,0,0,1,5.63-9.72c3.09-1.76,5.63-.33,5.63,3.21S36.68,44.69,33.48,46.56Zm0-11.15a8.6,8.6,0,0,0-4,6.85c0,2.54,1.77,3.53,4,2.32a8.6,8.6,0,0,0,4-6.85C37.45,35.19,35.69,34.2,33.48,35.41Z"/><path class="cls-14" d="M33.48,44.58c-2.21,1.21-3.87.22-3.87-2.32a8.6,8.6,0,0,1,4-6.85V33.53A12.49,12.49,0,0,0,28,43.25c0,3.53,2.54,5.08,5.52,3.31Z"/><path class="cls-8" d="M47.17,38.61c-3.09,1.77-5.63.33-5.63-3.2a12.32,12.32,0,0,1,5.63-9.72c3.09-1.76,5.63-.33,5.63,3.21A12.46,12.46,0,0,1,47.17,38.61Zm0-11a8.6,8.6,0,0,0-4,6.85c0,2.54,1.76,3.53,4,2.32a8.61,8.61,0,0,0,4-6.85C51.15,27.35,49.38,26.25,47.17,27.57Z"/><path class="cls-14" d="M43.2,34.31a8.69,8.69,0,0,1,4-6.74V25.69a12.6,12.6,0,0,0-5.63,9.61Z"/><g class="cls-91"><polygon class="cls-92" points="56.45 60.81 57 60.48 56.89 67.54 56.45 67.87 56.45 60.81"/><polygon class="cls-93" points="44.41 53.85 44.96 53.52 57 60.48 56.45 60.81 44.41 53.85"/><polygon class="cls-94" points="56.45 60.81 56.45 67.87 44.41 60.92 44.41 53.85 56.45 60.81"/></g><g class="cls-91"><polygon class="cls-95" points="37.56 55.84 37.12 55.62 46.07 50.43 46.4 50.76 37.56 55.84"/><polygon class="cls-96" points="32.04 68.65 31.6 68.43 31.6 57.49 31.93 57.72 32.04 68.65"/><polygon class="cls-97" points="31.93 57.72 31.6 57.49 36.57 54.62 37.01 54.84 31.93 57.72"/><polygon class="cls-98" points="37.01 54.84 37.56 55.84 46.4 50.76 46.51 60.26 32.04 68.65 31.93 57.72 37.01 54.84"/></g><g class="cls-91"><polygon class="cls-99" points="33.37 68.76 32.27 68.2 32.27 59.59 33.37 60.26 33.37 68.76"/><polygon class="cls-100" points="33.37 60.26 32.27 59.59 46.07 51.64 47.17 52.3 33.37 60.26"/><polygon class="cls-101" points="47.17 52.3 47.17 60.81 33.37 68.76 33.37 60.26 47.17 52.3"/></g><polygon class="cls-102" points="32.04 67.21 32.04 67.65 32.04 67.65 32.04 67.76 31.6 67.76 31.6 68.09 33.37 69.09 33.37 67.98 32.04 67.21"/><g class="cls-91"><polygon class="cls-96" points="33.37 69.42 32.93 69.2 32.93 60.48 33.37 60.7 33.37 69.42"/><polygon class="cls-97" points="33.37 60.7 32.93 60.48 47.39 52.08 47.83 52.3 33.37 60.7"/><polygon class="cls-98" points="47.83 52.3 47.83 61.03 33.37 69.42 33.37 60.7 47.83 52.3"/></g><polygon class="cls-103" points="33.37 69.42 31.6 68.43 31.6 67.32 33.37 68.32 33.37 69.42"/><g class="cls-91"><polygon class="cls-95" points="39.88 57.16 39.44 56.94 48.39 51.75 48.72 52.08 39.88 57.16"/><polygon class="cls-96" points="34.36 69.97 33.92 69.75 33.92 58.82 34.25 59.04 34.36 69.97"/><polygon class="cls-97" points="34.25 59.04 33.92 58.82 38.89 55.95 39.22 56.17 34.25 59.04"/><polygon class="cls-98" points="39.22 56.17 39.88 57.16 48.72 52.08 48.83 61.58 34.36 69.97 34.25 59.04 39.22 56.17"/></g><g class="cls-91"><polygon class="cls-99" points="35.69 70.08 34.58 69.53 34.58 60.92 35.69 61.58 35.69 70.08"/><polygon class="cls-100" points="35.69 61.58 34.58 60.92 48.39 52.97 49.49 53.63 35.69 61.58"/><polygon class="cls-101" points="49.49 53.63 49.49 62.13 35.69 70.08 35.69 61.58 49.49 53.63"/></g><polygon class="cls-102" points="34.36 68.54 34.36 68.98 34.25 68.98 34.25 69.09 33.92 69.09 33.92 69.42 35.69 70.41 35.69 69.31 34.36 68.54"/><g class="cls-91"><polygon class="cls-96" points="35.69 70.75 35.25 70.52 35.25 61.8 35.58 62.02 35.69 70.75"/><polygon class="cls-97" points="35.58 62.02 35.25 61.8 49.71 53.41 50.15 53.63 35.58 62.02"/><polygon class="cls-98" points="50.15 53.63 50.15 62.35 35.69 70.75 35.58 62.02 50.15 53.63"/></g><polygon class="cls-103" points="35.69 70.75 33.92 69.75 33.92 68.65 35.69 69.64 35.69 70.75"/><g class="cls-91"><polygon class="cls-97" points="44.85 60.15 44.41 59.92 53.35 54.73 53.8 54.95 44.85 60.15"/><polygon class="cls-96" points="39.33 72.95 38.89 72.62 38.89 61.8 39.33 62.02 39.33 72.95"/><polygon class="cls-97" points="39.33 62.02 38.89 61.8 43.86 58.93 44.3 59.15 39.33 62.02"/><polygon class="cls-98" points="44.3 59.15 44.85 60.15 53.8 54.95 53.8 64.56 39.33 72.95 39.33 62.02 44.3 59.15"/></g><g class="cls-91"><polygon class="cls-99" points="40.66 73.06 39.55 72.51 39.55 63.9 40.66 64.56 40.66 73.06"/><polygon class="cls-100" points="40.66 64.56 39.55 63.9 53.35 55.95 54.46 56.5 40.66 64.56"/><polygon class="cls-101" points="54.46 56.5 54.57 65.11 40.66 73.06 40.66 64.56 54.46 56.5"/></g><polygon class="cls-102" points="39.33 71.52 39.33 71.96 39.33 71.96 39.33 72.07 38.89 72.07 38.89 72.29 40.66 73.39 40.66 72.29 39.33 71.52"/><g class="cls-91"><polygon class="cls-96" points="40.66 73.73 40.22 73.39 40.22 64.67 40.66 65 40.66 73.73"/><polygon class="cls-97" points="40.66 65 40.22 64.67 54.68 56.39 55.12 56.61 40.66 65"/><polygon class="cls-98" points="55.12 56.61 55.12 65.33 40.66 73.73 40.66 65 55.12 56.61"/></g><polygon class="cls-103" points="40.66 73.73 38.89 72.62 38.89 71.63 40.66 72.62 40.66 73.73"/><g class="cls-91"><polygon class="cls-92" points="42.87 68.54 43.42 68.32 43.42 75.38 42.87 75.71 42.87 68.54"/><polygon class="cls-90" points="30.83 61.58 31.38 61.36 43.42 68.32 42.87 68.54 30.83 61.58"/><polygon class="cls-5" points="42.87 68.54 42.87 75.71 30.83 68.76 30.83 61.58 42.87 68.54"/></g><g class="cls-91"><polygon class="cls-104" points="43.09 66.99 42.64 66.66 42.64 75.82 43.09 76.16 43.09 66.99"/><polygon class="cls-105" points="57 58.93 56.56 58.6 42.64 66.66 43.09 66.99 57 58.93"/><polygon class="cls-106" points="43.09 66.99 43.09 76.16 57 68.09 57 58.93 43.09 66.99"/></g><polygon class="cls-99" points="51.92 62.8 50.15 63.9 52.36 64.89 52.36 62.57 51.92 62.8"/><polygon class="cls-107" points="49.05 64.56 49.05 66.77 52.36 64.89 50.15 63.9 49.05 64.56"/><polygon class="cls-14" points="51.92 62.8 51.92 64.67 49.05 66.44 49.05 64.56 51.92 62.8"/><g class="cls-91"><polygon class="cls-108" points="42.42 45.46 41.98 45.24 50.93 40.05 51.26 40.38 42.42 45.46"/><polygon class="cls-109" points="36.9 60.7 36.46 60.48 36.46 47.12 36.79 47.34 36.9 60.7"/><polygon class="cls-108" points="36.79 47.34 36.46 47.12 41.43 44.24 41.87 44.47 36.79 47.34"/><polygon class="cls-14" points="41.87 44.47 42.42 45.46 51.26 40.38 51.37 52.41 36.9 60.7 36.79 47.34 41.87 44.47"/></g><g class="cls-91"><polygon class="cls-99" points="38.23 60.92 37.12 60.26 37.12 49.21 38.23 49.88 38.23 60.92"/><polygon class="cls-100" points="38.23 49.88 37.12 49.21 50.93 41.26 52.03 41.92 38.23 49.88"/><polygon class="cls-101" points="52.03 41.92 52.03 52.97 38.23 60.92 38.23 49.88 52.03 41.92"/></g><polygon class="cls-110" points="36.9 59.37 36.9 59.81 36.9 59.81 36.9 59.92 36.46 59.92 36.46 60.15 38.23 61.25 38.23 60.15 36.9 59.37"/><g class="cls-91"><polygon class="cls-109" points="38.23 61.47 37.79 61.25 37.79 50.1 38.23 50.32 38.23 61.47"/><polygon class="cls-111" points="38.23 50.32 37.79 50.1 52.25 41.7 52.69 41.92 38.23 50.32"/><polygon class="cls-108" points="52.69 41.92 52.69 53.19 38.23 61.47 38.23 50.32 52.69 41.92"/></g><polygon class="cls-14" points="38.23 61.47 36.46 60.48 36.46 59.37 38.23 60.48 38.23 61.47"/><path class="cls-100" d="M48.28,49.1l.11-.11a.73.73,0,0,0,.22-.77,1.69,1.69,0,0,0-2.21-1.11,6.52,6.52,0,0,0-3.65,4.09c-.11.33,0,.55.23.55s.44-.22.55-.55a4.28,4.28,0,0,1,2.65-3,1.15,1.15,0,0,1,1.54.77C47.94,49.1,48.17,49.21,48.28,49.1Z"/><polygon class="cls-100" points="49.27 47.67 48.16 50.43 47.17 48.88 49.27 47.67"/><path class="cls-100" d="M45.63,55.07a7.1,7.1,0,0,0,2.76-3.54c.11-.33,0-.55-.22-.55s-.45.22-.56.55a4.71,4.71,0,0,1-2.54,2.87,1.15,1.15,0,0,1-1.54-.77c-.11-.22-.33-.22-.55,0a.72.72,0,0,0-.23.77A1.62,1.62,0,0,0,45,55.51,2.21,2.21,0,0,1,45.63,55.07Z"/><polygon class="cls-100" points="42.2 54.84 43.09 52.19 44.19 53.52 42.2 54.84"/><polygon class="cls-112" points="25.2 67.76 10.62 76.05 10.62 76.05 10.62 78.58 11.84 79.25 26.41 70.86 26.41 68.32 25.2 67.76"/><g id="SVGID"><path class="cls-113" d="M25.64,95.26c-1.77-.77-13.36-7.62-13.25-7.73L18,84.33Z"/></g><path class="cls-114" d="M25.64,95.26c-1.77-.77-13.36-7.62-13.25-7.73L18,84.33Z"/><polygon class="cls-115" points="26.41 69.42 26.41 66.88 11.84 75.27 11.84 77.81 26.41 69.42"/><polygon class="cls-116" points="25.2 66.33 26.41 66.88 11.84 75.27 10.62 74.61 25.2 66.33"/><polygon class="cls-117" points="10.62 77.15 10.62 74.61 11.84 75.27 11.84 77.81 10.62 77.15"/><polygon class="cls-118" points="25.42 68.76 25.42 68.32 12.61 75.49 12.61 76.16 25.42 68.76"/><path class="cls-119" d="M25.31,68.65a1.1,1.1,0,0,1,.55.44c.11,0,.11.11.22.22l.33.33h0c.11.11.22.22.22.33s.11.22.22.33h0c.11.11.11.22.22.33s.12.23.23.23V71h0a.11.11,0,0,0,.11.11.38.38,0,0,0,.11.22.38.38,0,0,0,.11.22h0c0,.11.11.11.11.22s.11.22.11.33.11.11.11.22h0c0,.11.11.22.11.33s.11.22.11.33h0v.78h0L15.7,81h0l12.48-7.28v3.75a2.15,2.15,0,0,0,.11.77c0,.22.11.45.11.67v.22a4.76,4.76,0,0,0,.11.55h0c.11.22.11.44.22.55h0a1.86,1.86,0,0,1,.22.55h0c.11.22.22.33.33.56h0c.11.11.22.33.33.44a.11.11,0,0,0,.12.11c.11.11.22.33.33.44s.22.33.44.44h0a3,3,0,0,0,.88.77h0c.33.22.55.45.88.67h0l1,.66h0a4.46,4.46,0,0,0,1,.55l.66.33c.23.11.34.22.56.33l.33.22c.11.11.22.11.33.23s.33.22.55.33a.11.11,0,0,1,.11.11c.22.11.33.22.55.33a.11.11,0,0,1,.11.11c.23.11.34.22.56.33h0c.22.11.33.22.55.22h.11c.11.11.22.11.44.11h0c.11,0,.22.11.44.11h.11c.11,0,.22.11.44.11h1.55c.11,0,.11-.11.22-.11h0l-12.48,7h0c-.11,0-.11.11-.22.11H27.74c-.11,0-.22-.11-.44-.11h-.11c-.12,0-.23-.11-.45-.11h0c-.11,0-.22-.11-.44-.11h-.11c-.22-.11-.33-.11-.55-.22h0c-.22-.11-.33-.22-.55-.33a.11.11,0,0,1-.11-.12c-.22-.11-.33-.22-.56-.33a.11.11,0,0,1-.11-.11c-.22-.11-.33-.22-.55-.33s-.22-.11-.33-.22l-.33-.22c-.22-.11-.33-.22-.55-.33l-.66-.33a4.75,4.75,0,0,0-1-.55h0l-1-.67h0a6.24,6.24,0,0,1-.89-.66h0c-.33-.22-.55-.55-.88-.77h0c-.11-.11-.22-.33-.44-.44h0L17.36,89v-.11a.11.11,0,0,0-.11-.11l-.11-.11c-.11-.11-.11-.22-.22-.33h0c0-.11-.11-.11-.11-.22s-.11-.22-.11-.33h0a.38.38,0,0,0-.12-.22c0-.11-.11-.22-.11-.33h0a.38.38,0,0,0-.11-.22c0-.11-.11-.22-.11-.33h0c0-.11-.11-.34-.11-.45v-.55a.83.83,0,0,0-.11-.44v-.66c-.11-.89,0-2.65,0-3.43h0a3,3,0,0,0-.11-1V80a2.8,2.8,0,0,0-.22-.77h0a1.6,1.6,0,0,1-.22-.78h0l-.33-.66h0c-.11-.22-.33-.44-.44-.66h0a2.4,2.4,0,0,0-.44-.55h0l-.34-.33-.22-.22a2.71,2.71,0,0,1-.55-.45Z"/><g class="cls-91"><g class="cls-91"><path class="cls-120" d="M29.28,95.81l12.48-7a2.47,2.47,0,0,0,1.11-1.65l-12.48,7a3.12,3.12,0,0,1-1.11,1.66"/></g></g><path class="cls-10" d="M15.81,80.9h0V81h0v3.65h0a2.15,2.15,0,0,0,.11.77c.66,4,3.31,6,6,7.51l.66.33c.22.11.33.22.55.33l.33.22c.11.11.22.11.33.22,2.76,1.66,5.63,3.21,6.52,0l12.47-7,.12.11-12.48,7c-.89,3.32-3.87,1.66-6.63,0-.11-.11-.22-.11-.33-.22l-.33-.22c-.22-.11-.33-.22-.55-.33s-.33-.22-.55-.33c-2.54-1.55-5.53-3.53-6.19-7.73A16.67,16.67,0,0,1,15.7,82a4.23,4.23,0,0,1,.11-1.11,7.18,7.18,0,0,0-3.09-5.19V75.6A7.19,7.19,0,0,1,15.81,80.9Z"/><path class="cls-121" d="M15.15,75.71l.11.11h0l.22.23,10.05-5.64c-.11-.11-.11-.22-.22-.22h0l-.11-.11Zm1.21,1.66c.11.11.11.33.22.44h0l10.05-5.63h0a.38.38,0,0,0-.11-.22.11.11,0,0,0-.11-.11Zm3.1.77.22.44,7.51-4.19v-.66Zm-2.32,4.2,9.93-5.52v-.66L17,81.68A1.4,1.4,0,0,1,17.14,82.34Zm0,1.55v.55l10.05-5.52c0-.22,0-.45-.12-.56Zm.55,2.42h0a.42.42,0,0,1,.11.34h0v.11l10.05-5.64a.11.11,0,0,0-.11-.11h0c0-.11-.11-.22-.11-.33Zm3.09.89.22.44,8-4.53c-.11-.11-.22-.33-.33-.44h0ZM20.23,90c.11.11.11.11.22.11h0c.11.11.22.11.22.22l10-5.63c-.11-.11-.22-.11-.33-.22h0l-.11-.11Zm1.66,1.32c.11.11.22.11.33.22h0a.11.11,0,0,1,.11.11L32.38,86c-.12,0-.12-.11-.23-.11h0c-.11-.11-.22-.11-.33-.22Zm2.2,1.33c.11,0,.11.11.22.11l.34.22,10-5.63-.33-.11c-.11,0-.11-.11-.22-.11Zm2.21,1.32h0a.11.11,0,0,1,.11.11c.11.11.33.11.44.22l10-5.63a.83.83,0,0,0-.44-.22.11.11,0,0,1-.11-.11Z"/><path class="cls-14" d="M16.47,62.24l.56-.33,2-1.21.56-.33L20,60c.33-.22.55,0,.55.34v4.3a1.35,1.35,0,0,1-.55,1l-4,2.42c-.33.23-.55,0-.55-.33v-4.3a1.33,1.33,0,0,1,.55-1Z"/><path class="cls-122" d="M18,64.34a.78.78,0,0,0-.33.66c0,.22.11.33.22.33v1.22l.22-.11V65.22a1.18,1.18,0,0,0,.22-.66C18.35,64.34,18.24,64.23,18,64.34Z"/><path class="cls-123" d="M19.23,59.59h0c.12,0,.12,0,.12-.11h0l.77.44h0l-.44.34-.78-.45Zm-3,1.77.78.44,2-1.21-.77-.45ZM14.71,63v4.3h0l.77.44h0v-4.3h0v-.11h0l.44-.33-.77-.45-.44.34h0V63Z"/><path class="cls-124" d="M18.24,58.05h0v-.11h0l.77.44h0v2.1L18.24,60v-2Z"/><path class="cls-125" d="M15.7,59.59h0v-.11h0v-.11h0a.11.11,0,0,1,.11-.11h0l1.11-.66h0l.77.44h0l-1.11.66h0a.11.11,0,0,1-.11.11h0v.11h0V60h0v.11h0v.12h0v1.43L17,62l-.56.33h0l-.77-.44V59.59Z"/><path class="cls-126" d="M17.36,58.38a2.29,2.29,0,0,0-1,1.88v2.09l.56-.33v-2.1a.93.93,0,0,1,.44-.77l1.1-.66c.22-.11.44,0,.44.22v2.1l.56-.33v-2.1c0-.66-.45-1-1-.55Z"/><path class="cls-87" d="M113.88,120.75,76.65,142.22a6.2,6.2,0,0,1-5.78-.27L8.94,106.21c-1.75-1-1.93-2.54-.44-3.32L45.73,81.42a6.2,6.2,0,0,1,5.78.27l61.93,35.74C115.19,118.39,115.37,119.88,113.88,120.75Z"/><rect class="cls-127" x="7.54" y="101.57" width="4.29" height="2.8"/><rect class="cls-127" x="110.64" y="116.55" width="4.29" height="2.63"/><path class="cls-128" d="M113.88,118.13,76.65,139.59a6.17,6.17,0,0,1-5.78-.27L8.94,103.59c-1.75-1-1.93-2.54-.44-3.33L45.73,78.8a6.16,6.16,0,0,1,5.78.26l61.93,35.74C115.19,115.76,115.37,117.25,113.88,118.13Z"/><path class="cls-8" d="M112.65,118.21,76.74,138.8c-1.4.87-4,.7-5.7-.26l-60.7-34.87c-1.66-1-1.84-2.45-.44-3.24L45.82,79.85c1.4-.88,4-.7,5.69.26L112.21,115C114,115.94,114.14,117.34,112.65,118.21Z"/><polygon class="cls-5" points="108.62 115.67 72.36 136.61 13.85 102.8 50.11 81.86 108.62 115.67"/><polygon class="cls-129" points="91.45 122.86 72.8 133.63 60.36 126.45 79.02 115.67 91.45 122.86"/><path class="cls-5" d="M95.48,125.75c.79.44.18,1.57-1.4,2.45s-3.41,1.23-4.2.79-.18-1.58,1.4-2.45S94.69,125.31,95.48,125.75Z"/><path class="cls-130" d="M17.17,110.33l-3.59-2.1a1.1,1.1,0,0,1-.44-.88h0c0-.35.18-.52.44-.35l3.59,2.1a1.08,1.08,0,0,1,.44.88h0C17.61,110.33,17.35,110.42,17.17,110.33Z"/><path class="cls-131" d="M23.57,114,20,111.91a1.08,1.08,0,0,1-.44-.88h0c0-.35.17-.52.44-.35l3.59,2.1a1.1,1.1,0,0,1,.44.88h0C24,114,23.83,114.18,23.57,114Z"/><path class="cls-130" d="M82.08,137.92a1.36,1.36,0,0,1-.52,1.05c-.35.18-.53,0-.53-.43a1.37,1.37,0,0,1,.53-1.06C81.82,137.31,82.08,137.48,82.08,137.92Z"/><path class="cls-10" d="M66.93,127.85c-.53.26-.35.7.44,1.23a2.38,2.38,0,0,0,2.1.26c.52-.26.35-.7-.44-1.23A2.35,2.35,0,0,0,66.93,127.85Zm.44.26a1.41,1.41,0,0,1,1.22.27c.61.35.7.61.44.7a1.51,1.51,0,0,1-1.23-.27C67.19,128.46,67.1,128.2,67.37,128.11Zm1.92-1.57-.35.17,2.28,3.42.35-.18Zm1.67.78c-.53.27-.35.7.43,1.23a2.34,2.34,0,0,0,2.11.26c.52-.26.35-.7-.44-1.22A2.36,2.36,0,0,0,71,127.32Zm.43.27a1.45,1.45,0,0,1,1.23.26c.61.35.7.61.44.7a1.45,1.45,0,0,1-1.23-.26C71.31,127.94,71.13,127.76,71.39,127.59Z"/><g class="cls-132"><polygon class="cls-10" points="66.97 97.79 74.59 93.41 74.15 93.24 66.53 97.62 66.97 97.79"/><polygon class="cls-10" points="73.28 111.28 72.93 111.46 78.97 114.96 79.41 114.79 73.28 111.28"/><polygon class="cls-10" points="72.58 101.12 73.02 101.3 76.78 99.19 74.33 97.7 78.18 95.52 77.83 95.25 73.54 97.7 75.99 99.19 72.58 101.12"/><polygon class="cls-10" points="55.5 117.5 55.15 117.33 51.2 119.6 53.66 121 51.12 122.41 51.55 122.67 54.45 121 51.99 119.6 55.5 117.5"/><polygon class="cls-10" points="79.58 104.1 79.15 103.84 82.65 101.82 90.1 102.26 90.1 102.52 82.83 102.17 79.58 104.1"/><polygon class="cls-10" points="62.15 94.03 61.8 93.76 64.96 91.92 67.32 93.33 70.83 91.22 71.26 91.49 67.32 93.76 64.96 92.45 62.15 94.03"/><polygon class="cls-10" points="43.23 100.77 43.58 100.51 40.26 98.58 42.62 97.18 39.47 95.34 39.03 95.6 41.83 97.18 39.47 98.58 43.23 100.77"/><path class="cls-10" d="M80.46,111.46c.35-.18,1.31-.7,2.19-1.23l.18-.09L79.06,108l-.44.27L82,110.14a13,13,0,0,0-2.19,1.32v.09l3.33,1.92.43-.26Z"/><path class="cls-10" d="M70.47,119l-.35-.26,2.11-1.23c-.88-.52-4.12-2.36-4.56-2.63l.44-.26c.53.35,4.73,2.72,4.82,2.8l.17.09Z"/><path class="cls-10" d="M37.54,114.79l-2.45-1.41.43-.26,2.11,1.23c.87-.53,4-2.37,4.55-2.63l.35.26c-.61.35-4.73,2.72-4.82,2.81Z"/><path class="cls-10" d="M46,118.9l-2.45-1.4.17-.09,4.82-2.8.44.26c-.53.35-3.77,2.19-4.56,2.63l2.1,1.23Z"/><polygon class="cls-10" points="68.46 121.97 61.89 118.2 62.33 117.94 68.81 121.71 68.46 121.97"/><polygon class="cls-10" points="54.88 94.03 48.4 90.26 47.96 90.44 54.53 94.2 54.88 94.03"/><polygon class="cls-10" points="37.89 103.84 32.9 100.95 32.46 101.21 37.45 104.01 37.89 103.84"/><polygon class="cls-10" points="38.06 107.43 32.28 110.84 32.63 111.02 38.5 107.69 38.06 107.43"/><polygon class="cls-10" points="49.19 97.27 46.04 95.43 44.81 92.63 41.66 90.78 41.31 91.05 44.28 92.8 45.51 95.6 48.84 97.53 49.19 97.27"/><polygon class="cls-10" points="62.33 95.6 59 93.68 61.02 92.54 64.34 94.46 62.33 95.6"/><polygon class="cls-10" points="68.02 98.93 64.69 97 66.71 95.78 70.04 97.7 68.02 98.93"/><polygon class="cls-10" points="73.72 102.17 70.39 100.25 72.4 99.11 75.73 101.03 73.72 102.17"/><polygon class="cls-10" points="79.32 105.5 76.08 103.57 78.1 102.35 81.42 104.28 79.32 105.5"/><polygon class="cls-10" points="38.24 109.53 34.91 107.6 37.01 106.47 40.26 108.3 38.24 109.53"/><polygon class="cls-10" points="43.93 112.77 40.6 110.84 42.62 109.71 45.95 111.63 43.93 112.77"/><polygon class="cls-10" points="49.63 116.1 46.3 114.17 48.31 112.95 51.64 114.87 49.63 116.1"/><polygon class="cls-10" points="55.32 119.34 51.99 117.41 54.01 116.28 57.34 118.2 55.32 119.34"/><polygon class="cls-10" points="76.08 108.3 79.32 106.47 81.42 107.6 78.1 109.53 76.08 108.3"/><polygon class="cls-10" points="70.39 111.63 73.72 109.71 75.73 110.84 72.4 112.77 70.39 111.63"/><polygon class="cls-10" points="64.69 114.87 68.02 112.95 70.04 114.17 66.71 116.1 64.69 114.87"/><polygon class="cls-10" points="59 118.2 62.33 116.28 64.34 117.41 61.02 119.34 59 118.2"/><polygon class="cls-10" points="51.99 94.46 55.32 92.54 57.34 93.68 54.01 95.6 51.99 94.46"/><polygon class="cls-10" points="46.3 97.7 49.63 95.78 51.64 97 48.31 98.93 46.3 97.7"/><polygon class="cls-10" points="40.6 101.03 43.93 99.11 45.95 100.25 42.62 102.17 40.6 101.03"/><polygon class="cls-10" points="34.91 104.28 38.24 102.35 40.26 103.57 37.01 105.5 34.91 104.28"/><path class="cls-10" d="M58.12,92,34,105.94l24.08,13.93,24.09-13.93Zm0,25.49-20-11.56,20-11.56,20.06,11.56Z"/><path class="cls-10" d="M58.12,94.9,39,105.94l19.09,11,19.1-11ZM45.25,107.34,42.88,106l2.37-1.32L47.61,106Zm3.24-1.84-2.37-1.31,2.37-1.32,2.36,1.32Zm3.24-1.93-2.37-1.31L51.73,101l2.36,1.31ZM55,101.73l-2.28-1.4L55.06,99l2.36,1.31Zm3.24-1.92-2.36-1.32,2.36-1.31,2.37,1.31Zm-9.81,9.37L46,107.87l2.36-1.32,2.37,1.32Zm3.33-1.84L49.36,106l2.37-1.32L54.09,106ZM55,105.41l-2.36-1.31L55,102.79l2.37,1.31Zm3.24-1.84-2.36-1.31L58.21,101l2.37,1.31Zm3.24-1.92-2.36-1.32L61.45,99l2.37,1.31ZM51.64,111l-2.36-1.31,2.36-1.32L54,109.71Zm3.24-1.84-2.36-1.31,2.36-1.32,2.37,1.32Zm3.24-1.93-2.36-1.31,2.36-1.31,2.37,1.31Zm3.33-1.84-2.36-1.31,2.36-1.31,2.37,1.31Zm3.24-1.84-2.36-1.31L64.69,101l2.37,1.31ZM54.88,113l-2.36-1.32,2.36-1.31,2.37,1.31ZM58.12,111l-2.36-1.31,2.36-1.32,2.37,1.32Zm3.25-1.84L59,107.87l2.37-1.41,2.36,1.32Zm3.24-1.93-2.37-1.31,2.37-1.31L67,105.94Zm3.32-1.84-2.36-1.31,2.36-1.31,2.37,1.31Zm-9.81,9.38-2.36-1.32,2.36-1.31,2.37,1.31Zm3.25-1.93L59,111.55l2.37-1.32,2.36,1.32ZM64.61,111l-2.37-1.31,2.37-1.32L67,109.71Zm3.24-1.93-2.37-1.31,2.37-1.32,2.36,1.32Zm3.24-1.84-2.37-1.31,2.37-1.31,2.36,1.31Z"/></g><text class="cls-133" transform="matrix(-0.64, 0.38, -0.92, -0.39, 77.39, 121.9)">100</text><path class="cls-8" d="M83.13,120l-.7,3.06a4.63,4.63,0,0,1-2.45-.61c-1.93-1-2.1-2.89-.35-4.21a6.92,6.92,0,0,1,6.74-.7c1.93,1,2.11,2.81.44,4.21Z"/><path class="cls-86" d="M82.87,124.08l.79-3.06,3.59,1.75-.09.09A7.48,7.48,0,0,1,82.87,124.08Z"/><ellipse class="cls-129" cx="36.26" cy="102.71" rx="7.21" ry="3.77"/><path class="cls-134" d="M38.53,82.9c.21-.54-3.66-1.08-3.66-1.08s0,2.91-.11,4.09a15.06,15.06,0,0,0,.43,5.17,43,43,0,0,1,.43,6.67,6.24,6.24,0,0,1-1.4,3.66c-.32.54,1,1,1.72.22a10.23,10.23,0,0,1,1.29-1.18c.43-.22.33-.87.22-2,0-1,.32-4,.54-6,.21-2.8-.43-2.9-.33-4.3A17.94,17.94,0,0,1,38.53,82.9Z"/><path class="cls-131" d="M37.88,99.05h0a1.19,1.19,0,0,0-.43-.54,3.87,3.87,0,0,1-1.19,2.37c-1.07.75-1.61.86-2.15.53a4.66,4.66,0,0,1-.86,1.08c-.32.32,0,.75,1,.65a2.05,2.05,0,0,0,1.61-.86A9,9,0,0,1,37,100.77c.11-.11.11-.11.21-.11h0v1.08a.22.22,0,0,0,.33,0,13.63,13.63,0,0,1,.21-1.4A2.9,2.9,0,0,0,37.88,99.05Z"/><path class="cls-135" d="M41.43,84.41c.22-.54-3.66-1.08-3.66-1.08s0,2.91-.11,4.09a15.58,15.58,0,0,0,.43,5.17,42.74,42.74,0,0,1,.44,6.67,6.31,6.31,0,0,1-1.4,3.66c-.33.54,1,1,1.72.22A9.86,9.86,0,0,1,40.14,102c.43-.21.32-.86.22-2,0-1,.32-4,.53-6,.22-2.8-.43-2.91-.32-4.31A25,25,0,0,1,41.43,84.41Z"/><path class="cls-131" d="M40.79,100.55h0a3.12,3.12,0,0,0-.33-.64,3.83,3.83,0,0,1-1.18,2.37c-1.08.75-1.62.86-2.15.53a5,5,0,0,1-.87,1.08c-.32.32,0,.75,1,.65a2.07,2.07,0,0,0,1.62-.86A9,9,0,0,1,40,102.17c.11-.11.11-.11.22-.11h0v1.08a.21.21,0,0,0,.32,0c.11-.33,0-.65.22-1.4A2.3,2.3,0,0,0,40.79,100.55Z"/><path class="cls-131" d="M31.42,70.52a2.44,2.44,0,0,1,.43-.65c1-1.5,2.37-5,4.2-5.6s2.15.65,2.15.65l-4.41,7.43A3.73,3.73,0,0,1,31.42,70.52Z"/><path class="cls-136" d="M39.71,61.91a6.6,6.6,0,0,1,1.18,3.33,12.72,12.72,0,0,1,.22,3s-2,.21-2.48-.76S39.71,61.91,39.71,61.91Z"/><path class="cls-131" d="M33.9,76.44a16.68,16.68,0,0,0-.22,3c0,2.48.22,7.32.22,7.32a3.53,3.53,0,0,0,2,1.3A6.5,6.5,0,0,0,39.71,88c.21-1.08.43-2.69.43-2.69a21,21,0,0,1,.43,2.58,2.19,2.19,0,0,0,1.08-.54s.21-1.94.43-4.09a12.21,12.21,0,0,0-.76-6.13C39.82,73.43,34,74.5,33.9,76.44Z"/><path class="cls-10" d="M42.29,68.58c-.21-1.29-3.12-3.12-3.12-3.12a6.07,6.07,0,0,1-1,1.83A5.63,5.63,0,0,0,37,68.58h0A11.35,11.35,0,0,1,37.56,66a5.61,5.61,0,0,0-.11-1.51,1,1,0,0,1-.43-.11c-.43.43-1.19,1.62-1.62,2.05s-1.61,2-1.18,3.55a18.32,18.32,0,0,1,.43,3.66,15.42,15.42,0,0,1-.86,3s.75,1.94,3.55,1.51a7.91,7.91,0,0,0,3.55-1.61A29.66,29.66,0,0,1,40.46,72C40.57,72.24,42.72,71.16,42.29,68.58Z"/><path class="cls-137" d="M37,65.78s-.65,1.83-1.29,3.45S35.19,75.36,35,76c-.32,1.08-1.07,1.51-1.61,1.18,0,0,1.18-5.27.75-7.1s0-2.26,1.29-3.88,1.19-1.29,1.19-1.29Z"/><path class="cls-131" d="M36.7,65.24c-.44.65-1.4,1.83-1.4,1.83l.32.54a1.08,1.08,0,0,0-.54.54c0,.86.22,3.12.22,3.12a17.11,17.11,0,0,1,1.83-4.73c.43-.65.21-.65.21-.65S36.91,65.24,36.7,65.24Z"/><path class="cls-134" d="M37.34,64.71a12.38,12.38,0,0,1-.32,2,.51.51,0,0,0,.32.54,2.48,2.48,0,0,0,1.29-.11c1-.75,1.08-1.18,1.08-1.18a7.45,7.45,0,0,1-.22-1.29V62.34Z"/><path class="cls-138" d="M37,65.46s-.32.21-.54,1.29a2.41,2.41,0,0,0,.11,1.19l.75-.87a2.35,2.35,0,0,1-.11-1.5C37.45,65.14,37,65.46,37,65.46Z"/><path class="cls-135" d="M39.06,60.08a2.34,2.34,0,0,0-3.66,1.07c-.86,2.16,1,5,2.05,4.52a3.49,3.49,0,0,0,2.26-1.93A4,4,0,0,0,39.06,60.08Z"/><path class="cls-137" d="M39.82,65.46a11.61,11.61,0,0,0-2.59,5.17A20.74,20.74,0,0,0,36.59,75c-.11,1.72.21,3.23.86,3.77C39.49,80.42,42,78,42,78a21.14,21.14,0,0,1-.86-4.31c.21-1,1.4-5.49,1.08-6.14A23.61,23.61,0,0,0,39.82,65.46Z"/><path class="cls-131" d="M39.6,65.24a2.85,2.85,0,0,1-1,2.05A7.89,7.89,0,0,0,37,71.92l2.15-2.69-.32-.76h.86a4.49,4.49,0,0,0,.75-2.26A1.25,1.25,0,0,0,39.6,65.24Z"/><path class="cls-138" d="M37.77,68.47a7.27,7.27,0,0,1-.32-1.4,8.79,8.79,0,0,0,2.15-1.4A3.24,3.24,0,0,1,37.77,68.47Z"/><path class="cls-139" d="M43.05,78.16A.88.88,0,0,1,41.86,78c-.54-.65-.86-1.19-.54-1.51s.87-.32,1.51.21A1.08,1.08,0,0,1,43.05,78.16Z"/><path class="cls-131" d="M41.32,67c.65-.11,1.62,1.4,2.8,3.44a10.76,10.76,0,0,1,1.62,4.31,2,2,0,0,1-.43,1.07,9.28,9.28,0,0,1-2.16,2.37,2.18,2.18,0,0,0-.64-1.51,1.49,1.49,0,0,0-1-.21l1.4-2.37a12.7,12.7,0,0,1-2.26-3.66C39.92,69,40.57,67.07,41.32,67Z"/><path class="cls-136" d="M37,61.69a6.6,6.6,0,0,0,2.9,1.94c.65-1.62.87-2.05.54-3a1.6,1.6,0,0,0-1.61-1.07,2.18,2.18,0,0,0-2.91-.11,2.5,2.5,0,0,0-.54,3.88S35.4,62.23,37,61.69Z"/><path class="cls-135" d="M38.63,63.41a.83.83,0,0,1,.33-.32c.1-.11.43-.11.53.32a.76.76,0,0,1-.32.86Z"/><path class="cls-131" d="M32.82,69.66c-.11,0-4.41-.54-4.95-.65.21.86.43,1.19-.43,2,.32.43,2,.75,3.12,1.07a11.94,11.94,0,0,0,2.15.54,1.07,1.07,0,0,0,.86-.32C34.65,71.27,32.82,69.66,32.82,69.66Z"/><path class="cls-134" d="M28,69.23a10.26,10.26,0,0,1-.76-.86c-.43-.43-.54-1-.75-1.08s-.43.11-.22.65A9.86,9.86,0,0,0,26.79,69l1,1.94S28.51,70.63,28,69.23Z"/><path class="cls-135" d="M43.05,77.73a2,2,0,0,1-.54.65,2.51,2.51,0,0,0-.86.32,3.06,3.06,0,0,1-1.4.43.79.79,0,0,1-.76-1.29,3.26,3.26,0,0,1,1.19-1.08,5.18,5.18,0,0,0,1.18-.32C43.05,76.33,43.05,77.73,43.05,77.73Z"/><path class="cls-130" d="M117.5,78.58a12.36,12.36,0,0,0-3,1.25c-1.25.79-1.93,1.59-2.73,1.14s-1.36-3.53-1.36-3.53L118,76.07C118,76.19,118.41,78,117.5,78.58Z"/><path class="cls-135" d="M117.16,75.28s1.82,1.59,1.71,3.18c-.12.91,0,1.25-.12,2.39s0,4.89,0,6.26c0,.68,1.14,1.48,1.71,1.93s.34.92.46,1.14c.34.46-1.14.91-1.94.23s-2-1.25-2.16-2.39a36.82,36.82,0,0,0-.68-5.23,18.84,18.84,0,0,1-.23-3.53c0-.68-2.5-2.85-2.62-3.07C113.18,75.62,117.16,75.28,117.16,75.28Z"/><path class="cls-135" d="M114.66,77.89a2.55,2.55,0,0,1,.68,2.28,9.35,9.35,0,0,0-.34,2.5c0,1-.46,5.58-.46,6.94a12.4,12.4,0,0,0,.46,2.62c0,.34-.23.8-.11,1.14,0,.57-1.37.45-1.82.23s-.35-3.19-.12-4a23.05,23.05,0,0,0-.8-4.66c-.45-1.82.12-4.33-.22-4.78-.8-.91-2.39-1.71-2.51-2.73s1.14-3.07,2.28-2.62C112.15,75.05,113.18,76.53,114.66,77.89Z"/><path class="cls-140" d="M106.12,72.32s-1,2.84-.11,4.66c.8,1.48,5.69,4,5.69,4a4.14,4.14,0,0,1,1.59-2.62,47.41,47.41,0,0,1,4.55-2.16l-6.14-4.67A4.35,4.35,0,0,1,106.12,72.32Z"/><path class="cls-135" d="M115,70c.45-.23.8-.34,1.25-.57-.11-.34-.45-1-.8-1.82a19,19,0,0,0-1.13-1.93c-.34-.46-1.48-2-1.48-2L111.24,65s1.94,2.28,2.28,2.62S114.77,69.59,115,70Z"/><path class="cls-130" d="M120.46,89a5,5,0,0,1,1.37,1c.45.57-.12,1.36-1.25,1.25a5.6,5.6,0,0,1-1.83-1c-.45-.34-1.36-.8-1.7-1.14s-.12-1.14-.12-1.14a1.62,1.62,0,0,0,.57.8,8,8,0,0,0,1.48.91c.8.23,1.25.45,1.6.11S120.46,89,120.46,89Z"/><path class="cls-130" d="M115,91.89a2,2,0,0,1-.23,1.25c-.34.46-1,.46-1.48-.34a4.15,4.15,0,0,1-.45-2.16,6.53,6.53,0,0,1,.11-1,.68.68,0,0,0-.34.91,12.66,12.66,0,0,1,0,2c.11,1.14.34,1.94,1.14,2.39a1,1,0,0,0,1.59-1A6.49,6.49,0,0,0,115,91.89Z"/><path class="cls-141" d="M111.59,65.38a2,2,0,0,0,.68-.46A2.43,2.43,0,0,0,113,64a4.56,4.56,0,0,0-2.27-2.84c-.8-.35-1.94.56-1.94.56Z"/><path class="cls-10" d="M112.72,63.56,113,64s-.57,1-1.25,1.25-.34-.45-.34-.45S111.81,65,112.72,63.56Z"/><path class="cls-142" d="M104.42,64.81c.11-.69,2.16-2.16,2.16-2.16s1.25.91,1.59,1.13a5.09,5.09,0,0,1,1.14,1.14h0a8.13,8.13,0,0,0-.57-2.27,5.5,5.5,0,0,1,0-1.37.91.91,0,0,0,.34-.11c.34.34,1.14,1.36,1.48,1.82s1.82,1.59,1.48,3a5.89,5.89,0,0,1-.45,1.25,6.84,6.84,0,0,0-.12,2.16,19.91,19.91,0,0,0,.8,2.39s-1.37,1.82-3.07,1.82a5.31,5.31,0,0,1-3.3-1.25,27.88,27.88,0,0,0,.22-4C106.35,68.22,104,67.08,104.42,64.81Z"/><path class="cls-10" d="M109.42,62.3s1.14,1.37,1.14,1.82c-.34.23-1,.8-1,.8l-.8-2.62Z"/><path class="cls-135" d="M111.81,73a37.24,37.24,0,0,0-3.52-2.28,3,3,0,0,1-.8-1.47c-.23-.69-.68-1.71-.68-1.71l-2.17.68a15.9,15.9,0,0,0,1.26,2.5,5,5,0,0,0,1.25,1.6,10.59,10.59,0,0,0,4.09,1.82A3.48,3.48,0,0,1,111.81,73Z"/><path class="cls-136" d="M111.13,58a12.58,12.58,0,0,1,.23,4.44,6.57,6.57,0,0,1-.68,2.27,6,6,0,0,0-1.6-2.39c-.68-.45.34-1.25.34-1.25Z"/><path class="cls-134" d="M108.85,61.51a7.23,7.23,0,0,0,.23,1.82,2.7,2.7,0,0,1,.34,1.82A12.46,12.46,0,0,1,108.06,64c-.46-.34-1.59-1.14-1.59-1.14V59.46Z"/><path class="cls-135" d="M107.49,57.41a2,2,0,0,1,3.19,1.14c.68,1.93-1,4.44-2.05,4a3.79,3.79,0,0,1-1.94-2.05A3.27,3.27,0,0,1,107.49,57.41Z"/><path class="cls-10" d="M106.47,62.08a9.86,9.86,0,0,1,1.36,1.13,21.86,21.86,0,0,1,1.71,1.94,3.61,3.61,0,0,1-1.48.34,9.38,9.38,0,0,1-2.16-2.16A4.36,4.36,0,0,1,106.47,62.08Z"/><path class="cls-141" d="M105,69.13a7.15,7.15,0,0,1-1-1.36c-.23-.8-.68-2.17.68-3.19,1-.8,2,1.14,2.28,1.93a6.3,6.3,0,0,1,.23,1.94A2.63,2.63,0,0,1,105,69.13Z"/><path class="cls-10" d="M107.15,68.11a5.29,5.29,0,0,0,.11.57,2.25,2.25,0,0,1-1.14.68,4.37,4.37,0,0,1-.91.11l-.34-.57a3.56,3.56,0,0,0,1.14-.22A5.11,5.11,0,0,0,107.15,68.11Z"/><path class="cls-136" d="M109.08,58.21a4.17,4.17,0,0,1-.57,2.39,4.74,4.74,0,0,0-.68,3c0,1.82.57,2.27.57,2.27a4,4,0,0,1-2.5-3.41c-.23-2.51-.23-4.55.45-5.46a1.88,1.88,0,0,1,1.82-.69s1.48-1.14,2.85,1a2,2,0,0,1,0,2.16A2.72,2.72,0,0,0,109.08,58.21Z"/><path class="cls-141" d="M117.84,67.54h-.22l-2.73,1.59a2,2,0,0,0-.91.8l-3,5.12c-.12.23-.12.34,0,.34h0l.34.11.11-.34,2.62-1.48a2,2,0,0,0,.91-.79l3-5.12h0l.11.11.23-.23-.46-.11Z"/><path class="cls-142" d="M117.84,67.65l-2.73,1.6a2,2,0,0,0-.91.79l-3,5.24c-.22.34-.11.45.23.34L114.2,74a2,2,0,0,0,.91-.79l3-5.12C118.3,67.65,118.19,67.54,117.84,67.65Z"/><path class="cls-135" d="M116.71,70.38c-.69.46-1.26,1.25-1.14,1.71s.68,0,.91-.34A1.53,1.53,0,0,0,116.71,70.38Z"/><path class="cls-135" d="M111,72.54s.57.23.79,0a1.39,1.39,0,0,1,.69-.34s-.23.34.11.46.34.11.91,0c.34-.12.68,0,.34.57a3,3,0,0,1-1.25,1.14,4.59,4.59,0,0,1-1.71-.23C109.88,73.8,111,72.54,111,72.54Z"/><polygon class="cls-143" points="5.11 88.69 17.85 96.09 17.85 111.34 5.11 103.94 5.11 88.69"/><polygon class="cls-144" points="17.85 96.09 18.88 95.52 18.88 110.77 17.85 111.34 17.85 96.09"/><polygon class="cls-10" points="5.11 88.69 6.13 88.12 18.88 95.52 17.85 96.09 5.11 88.69"/><polygon class="cls-145" points="6.24 90.63 16.83 96.77 16.83 109.4 6.24 103.26 6.24 90.63"/><polygon class="cls-146" points="6.93 99.27 6.93 102.69 8.86 103.83 8.86 100.3 6.93 99.27"/><polygon class="cls-146" points="6.02 101.78 6.02 102.12 6.58 102.46 6.58 102.12 6.02 101.78"/><polygon class="cls-143" points="6.02 100.53 6.02 100.87 6.58 101.21 6.58 100.87 6.02 100.53"/><polygon class="cls-143" points="6.02 99.27 6.02 99.61 6.58 99.96 6.58 99.61 6.02 99.27"/><polygon class="cls-143" points="6.02 98.02 6.02 98.36 6.58 98.7 6.58 98.36 6.02 98.02"/><polygon class="cls-143" points="6.02 96.66 6.02 97 6.58 97.34 6.58 97 6.02 96.66"/><polygon class="cls-143" points="6.02 95.41 6.02 95.75 6.58 96.09 6.58 95.75 6.02 95.41"/><polygon class="cls-143" points="6.02 94.15 6.02 94.5 6.58 94.84 6.58 94.5 6.02 94.15"/><polygon class="cls-143" points="6.02 92.9 6.02 93.24 6.58 93.58 6.58 93.24 6.02 92.9"/><polygon class="cls-87" points="9.32 97.8 9.32 104.05 11.25 105.19 11.25 98.82 9.32 97.8"/><polygon class="cls-14" points="11.71 99.96 11.71 105.42 13.64 106.56 13.64 101.09 11.71 99.96"/><polygon class="cls-14" points="14.1 98.02 14.1 106.78 16.03 107.92 16.03 99.16 14.1 98.02"/><path class="cls-147" d="M73,80.17a5.36,5.36,0,0,1,4.62-.33h0a.78.78,0,0,1,.43.22l5.71,3.12s.43,3.12-1.83,3.12a11.71,11.71,0,0,1-.22,2,7.15,7.15,0,0,1-1.5-.22,10.93,10.93,0,0,1-3.66-1.5C74.91,85.55,72,82,73,80.17Z"/><path class="cls-147" d="M45.74,115.59h.65l-.87,2.69-6-3.23h-.11c-1.19-.65-1.94-2.26-1.94-4.42a15.55,15.55,0,0,1,7-12,2.11,2.11,0,0,1,.54-.33,9.1,9.1,0,0,1-.22-1.72,13.92,13.92,0,0,1,3.45-8.61c1.39,1.61,4.52,4.09,5.92,5.6,2,2.15,4.3,4,6.46,6,1.72,1.5,3.33,3.12,4.95,4.73l-19.27,11.2A1,1,0,0,1,45.74,115.59Z"/><path class="cls-147" d="M81.16,89.1a17.27,17.27,0,0,1-7.32,10.23l-.65.32h0l-6.14,3.56c-3.76-3-7.32-6-11.08-8.94a.38.38,0,0,0-.22-.11l-.86-.86c-1.62-1.61-4.84-4.3-6.35-6a10.12,10.12,0,0,1,2.37-1.93,5,5,0,0,1,3.87-.76A19.41,19.41,0,0,1,62,76.51c2.59-1.51,4.85-1.62,6.57-.76h0l.11.11,5.92,3.23a4.14,4.14,0,0,1-1.61,1,5,5,0,0,1,.32,1.72l.43-.21a6.15,6.15,0,0,0,1.61,5.16,10.89,10.89,0,0,0,4.2,2A5.78,5.78,0,0,0,81.16,89.1Z"/><path class="cls-147" d="M55,84.69l5.92,3.23S66,103.74,50.8,101.48l-5.92-3.23a9.1,9.1,0,0,1-.22-1.72,14.48,14.48,0,0,1,6.46-11.09A4.64,4.64,0,0,1,55,84.69Z"/><path class="cls-148" d="M82.34,82.64a6.73,6.73,0,0,0-4.2,1.08,4.53,4.53,0,0,0-.75.43c-.22-2.48-1.29-4.31-2.91-5.06a5.41,5.41,0,0,0-3.66-.32A8.92,8.92,0,0,0,68,79.84a20.13,20.13,0,0,0-7.21,8.08,4.89,4.89,0,0,0-3.88.75,4.34,4.34,0,0,0-.86.54,14.18,14.18,0,0,0-5.59,10.55,8.18,8.18,0,0,0,.21,1.72,2.31,2.31,0,0,1-.54.33,15.72,15.72,0,0,0-7,12c0,3.88,2.47,5.82,5.81,4.52l1.18-.64,12.92-7.43,4.31-2.48,10-5.81h0l.21-.11.43-.21c4.31-2.59,7.86-8.61,7.86-13.57C85.89,85,84.49,83.07,82.34,82.64Z"/><path class="cls-7" d="M82.23,83.51h-.1a1,1,0,0,0-.54-.11,5.63,5.63,0,0,0-2.26.54c-.33.21-.54.21-.76.43a2.4,2.4,0,0,1-.64.43l-.65.54-.64.43-.11-1.62a4.38,4.38,0,0,0-.43-2,5,5,0,0,0-1.94-2.27c-.11,0-.11-.1-.22-.1a3.06,3.06,0,0,0-1.72-.43,4.71,4.71,0,0,0-1.18.1l-.76.33a11.36,11.36,0,0,0-2,.86,18.56,18.56,0,0,0-6.78,7.64l-.33.76-.75-.22a1.8,1.8,0,0,0-.75-.11,4.74,4.74,0,0,0-2.37.76c-.22.21-.54.32-.76.53s-.64.54-.86.76a16.64,16.64,0,0,0-2.37,3,13.27,13.27,0,0,0-1.83,6,3.18,3.18,0,0,0,.11,1.4l.22.75-.76.33a.78.78,0,0,0-.53.21A14,14,0,0,0,46,107.3l-.32.64a20.9,20.9,0,0,0-1.29,3.66,11.71,11.71,0,0,0-.22,2.05c0,2.47,1.08,4,2.91,4a4.45,4.45,0,0,0,1.62-.32,1.48,1.48,0,0,0,.64-.22l.43-.21L63.39,109l4.31-2.48,8.83-5.06v-.1l.64-.22.11-.11.43-.21.32-.22a16.31,16.31,0,0,0,7-12.49C85,85.66,84.06,83.94,82.23,83.51Z"/><path class="cls-149" d="M72.44,79.52a4.6,4.6,0,0,1,1.61.43c.11,0,.11,0,.22.11a5.07,5.07,0,0,1,2.26,4.2l.11,1.61-.44-.32-.1-1.4A5.22,5.22,0,0,0,73.84,80l-.22-.11A4,4,0,0,0,72.44,79.52Z"/><path class="cls-149" d="M85,88.24a16.35,16.35,0,0,1-7,12.49l-.32.21-.43.11-.11.11-.64.22v.1l-8.61,5.06L63.61,109l-13.67,7.86-.43.21a1.52,1.52,0,0,0-.65.22,4.44,4.44,0,0,1-1.61.32h-.43a4.44,4.44,0,0,0,1.61-.32,1.52,1.52,0,0,0,.65-.22l.43-.21L63.18,109l4.2-2.48,8.82-5.06v-.1l.54-.22.11-.11.43-.21c.11-.11.22-.11.32-.22a16.31,16.31,0,0,0,7-12.49c0-2.58-1.07-4.19-2.8-4.52h-.11a5,5,0,0,0,.54.11h0C84.06,83.94,85,85.55,85,88.24Z"/><path class="cls-150" d="M60,88.67h0a1.55,1.55,0,0,1,.75.11l.43.11L61,89l-.76-.22A.38.38,0,0,1,60,88.67Z"/><path class="cls-148" d="M50.48,100.3v-.54a14.54,14.54,0,0,1,5.59-10.55,2.22,2.22,0,0,0,.86-.54,5.54,5.54,0,0,1,3.88-.75A19.44,19.44,0,0,1,68,79.84a8.92,8.92,0,0,1,2.8-1.07,5,5,0,0,1,3.55.32c1.62.75,2.7,2.48,2.91,5.06a3.05,3.05,0,0,1,.75-.43,5.84,5.84,0,0,1,4.2-1.08c2.16.43,3.56,2.37,3.56,5.49v.54c-.11-2.9-1.51-4.63-3.56-5A6.51,6.51,0,0,0,78,84.8a4.25,4.25,0,0,0-.75.43c-.21-2.48-1.29-4.31-2.91-5.06a4.3,4.3,0,0,0-3.44-.33,8,8,0,0,0-2.8,1.08A19.37,19.37,0,0,0,60.92,89a4.85,4.85,0,0,0-3.88.75,3.92,3.92,0,0,0-.86.54A15.08,15.08,0,0,0,50.48,100.3Z"/><path class="cls-10" d="M82.45,82.54a6.39,6.39,0,0,0-4.2,1.18,4.53,4.53,0,0,0-.75.43c-.22-2.48-1.3-4.31-2.91-5.06A5.06,5.06,0,0,0,71,78.77a8,8,0,0,0-2.8,1.07A20.06,20.06,0,0,0,61,87.92a4.89,4.89,0,0,0-3.88.75c-.22.11-.54.33-.86.54a14.19,14.19,0,0,0-5.6,10.55,8.15,8.15,0,0,0,.22,1.72,2.54,2.54,0,0,1-.54.33,15.73,15.73,0,0,0-7,12c0,3.88,2.58,5.82,5.81,4.52l1.19-.64,1.83-1.08.86-.54,1.83-1.07,4.2-2.48,2.8-1.61,1.29-.76,2.91-1.72.86-.54.43-.21.54-.22.86-.54,8.61-5v-.11l.21-.1.43-.22c4.31-2.48,7.86-8.5,7.86-13.46C85.89,85,84.49,83.07,82.45,82.54Zm.43,12.81a18.91,18.91,0,0,1-4.95,5.59c-.11.11-.22.11-.33.22l-.32.22-.11.1-.64.22v.11l-7.86,4.09-.86.53-.22.11-.75.43-.86.54L63.39,109l-1.61.86L60,111l-.86.53-4.2,2.59-2.8,1.51-2.26,1.29-.43.21a1.52,1.52,0,0,0-.65.22,4.36,4.36,0,0,1-1.61.32c-1.83,0-2.91-1.51-2.91-4a13,13,0,0,1,.22-2.05,14.64,14.64,0,0,1,1.29-3.66,2.4,2.4,0,0,0,.43-.64,13.06,13.06,0,0,1,4.52-4.85l.54-.21.75-.33-.21-.75c0-.43-.11-1-.11-1.4a13.15,13.15,0,0,1,1.83-6,12.9,12.9,0,0,1,2.37-3,6,6,0,0,1,.86-.76,1.86,1.86,0,0,1,.75-.53,5.66,5.66,0,0,1,2.37-.76,1.61,1.61,0,0,1,.76.11l.75.22.32-.76a18.7,18.7,0,0,1,6.78-7.64,11.78,11.78,0,0,1,2-.86.63.63,0,0,0,.43-.11c.43,0,.86-.11,1.29-.11a5.12,5.12,0,0,1,1.72.43l.22.11a4.57,4.57,0,0,1,1.72,2.26,12.27,12.27,0,0,1,.43,1.94l.22,1.61.64-.43.76-.54a3.71,3.71,0,0,1,.64-.43,7.62,7.62,0,0,1,.76-.43,5.36,5.36,0,0,1,2.26-.53c.21,0,.32.1.54.1h.1c1.83.22,2.8,1.94,2.8,4.52a15.32,15.32,0,0,1-2.15,7.22Z"/></g></svg>