<svg xmlns="http://www.w3.org/2000/svg" xmlns:xlink="http://www.w3.org/1999/xlink" viewBox="0 0 100 100"><defs><style>.cls-1,.cls-4{fill:none;}.cls-2{clip-path:url(#clip-path);}.cls-3{fill:#333;}.cls-4{stroke:#333;stroke-miterlimit:10;stroke-width:2.92px;}</style><clipPath id="clip-path"><rect class="cls-1" width="100" height="100"/></clipPath></defs><g id="Layer_3" data-name="Layer 3"><g class="cls-2"><path class="cls-3" d="M72.5,22l7.41.51L81,22.6a1.46,1.46,0,0,0,1.46-1.46l-.69-7.57-.1-1.09a1.46,1.46,0,1,0-2.92,0l.69,7.57.1,1.09L81,19.67l-7.41-.5L72.5,19.1A1.46,1.46,0,0,0,71,20.56,1.48,1.48,0,0,0,72.5,22Z"/><path class="cls-3" d="M28.15,92.44l-3.08-7.93L24,86.29l7.78-2.44A1.46,1.46,0,0,0,31.06,81l-7.78,2.45a1.46,1.46,0,0,0-1,1.78l3.08,7.94a1.5,1.5,0,0,0,1.78,1,1.48,1.48,0,0,0,1-1.79Z"/><path class="cls-3" d="M15.59,72.76A41.68,41.68,0,0,1,8.87,46.85,41.13,41.13,0,0,1,16.1,26.49a42.25,42.25,0,0,1,7.13-7.88,37.2,37.2,0,0,1,4.14-3.1,42.87,42.87,0,0,1,4.8-2.72A41.74,41.74,0,0,1,54.51,9,41.12,41.12,0,0,1,77.39,19.16c.79.7,1.55,1.44,2.29,2.2,1.31,1.35,3.38-.72,2.07-2.07A44.18,44.18,0,0,0,11.23,71.18c.56,1,1.17,2,1.82,3a1.46,1.46,0,0,0,2.54-1.44Z"/><path class="cls-3" d="M86.89,31.52A41.27,41.27,0,0,1,70.1,86a41.29,41.29,0,0,1-41.81-1c-.87-.54-1.71-1.11-2.54-1.7a1.47,1.47,0,0,0-2,.55,1.51,1.51,0,0,0,.55,2A44.19,44.19,0,0,0,93.42,58.12,44.72,44.72,0,0,0,90.78,33c-.42-1-.87-2-1.35-3a1.46,1.46,0,1,0-2.54,1.45Z"/><path class="cls-3" d="M52.6,64.05l4,1.5c1.09.41,2.19.93,3.31,1.23a4.26,4.26,0,0,0,3.28-.36,3.7,3.7,0,0,0,1.53-4.06,5.64,5.64,0,0,0-3-3.42l-9.11-4a9.19,9.19,0,0,0-2-.73,7.61,7.61,0,0,0-3.67.28L42.26,55.9l-2.87.87c-.26.08-.53.14-.79.23s.5,0,.11,0c-1.66-.09-3.36,0-5,0a1.49,1.49,0,0,0-1.46,1.47V69.38a1.47,1.47,0,0,0,1.46,1.46l3.43.09c.53,0,1.06.06,1.59,0s-.53-.09-.08,0c1.75.28,3.5.54,5.25.81l16.43,2.55,1.69.26a8.32,8.32,0,0,0,5.55-1c1.86-1.08,3.68-2.2,5.52-3.3s3.51-2.17,5.31-3.17a5.1,5.1,0,0,0,2.08-6,4.21,4.21,0,0,0-4.94-3,6.27,6.27,0,0,0-2,.73l-3.17,1.72-3.82,2.07a6.92,6.92,0,0,1-2.17,1,10.59,10.59,0,0,1-1.59,0c-1.88-.07-1.88,2.86,0,2.92A6.79,6.79,0,0,0,66.47,66l2.72-1.47,6.07-3.29.11,0c.24-.13-.11,0-.13,0s.29-.1.35-.12.31-.08.46-.12l.21,0c-.06,0-.3,0-.05,0h.52c.2,0-.22-.06,0,0,0,0,.4.11.23,0s.45.31.17.08c.07,0,.36.4.24.23a2.36,2.36,0,0,1,.4,1.06c0,.07,0,.43,0,.6a1.31,1.31,0,0,1,0,.41c0,.13-.06.25-.1.38s-.12.31-.06.18-.15.25-.13.22c-.16.27.11-.11-.11.14,0,0-.22.19,0,0a1.65,1.65,0,0,1-.25.15l-.15.07-.21.13-.94.56-3.29,2c-2.06,1.23-4.12,2.47-6.19,3.69a5.4,5.4,0,0,1-3.48.83c-.44,0-.89-.13-1.34-.2L45.82,69.12l-6-.93A39.11,39.11,0,0,0,34.74,68l-1.05,0,1.46,1.46V58.49L33.69,60l4.39,0a5,5,0,0,0,1.23-.09c.54-.13,1.07-.32,1.6-.48l5.21-1.58c1.48-.45,3-1.11,4.55-.53,1,.37,1.94.84,2.89,1.27l5.11,2.24a13,13,0,0,1,2.26,1.08c-.42-.3.12.12.22.21a5.77,5.77,0,0,1,.42.44c.27.29-.12-.24.08.11.07.12.15.23.21.35.18.36,0-.24,0,.15a1.31,1.31,0,0,1,.06.27c0-.15,0-.13,0,0,0-.06.06-.24,0,.06-.1.48.08-.23-.08.24s.08-.23-.11.16.14-.07-.09.07.22,0-.09,0l-.23.05c.33-.08,0,0-.07,0l-.41,0c.42,0-.06,0-.19,0l-.21-.07-.39-.14-2.37-.89-4.36-1.63a1.47,1.47,0,0,0-1.79,1,1.5,1.5,0,0,0,1.05,1.79Z"/><path class="cls-3" d="M21.24,55.55H33.69l-1.46-1.46V72.65l1.46-1.46H23.17a1.47,1.47,0,0,0,0,2.93H33.69a1.48,1.48,0,0,0,1.46-1.47V54.09a1.48,1.48,0,0,0-1.46-1.46H21.24a1.46,1.46,0,0,0,0,2.92Z"/><ellipse class="cls-4" cx="25.61" cy="64.87" rx="2.07" ry="2.05"/><path class="cls-3" d="M64.66,60.45l.46-2.73-1,1.05a19,19,0,0,0,3-1.24H65.63c.72.52,1.44,1,2.18,1.56a3.91,3.91,0,0,0,5-.55c.73-.7,1.43-1.42,2.15-2.14a4,4,0,0,0,.72-4.95c-.51-.8-1.1-1.55-1.65-2.33v1.45a20.15,20.15,0,0,0,1.24-3l-1,1c.89-.15,1.78-.28,2.67-.45A3.91,3.91,0,0,0,80,44.33c0-1,0-2.07,0-3.1a4,4,0,0,0-2.91-4c-.94-.24-1.93-.34-2.89-.5l1,1a18.12,18.12,0,0,0-1.24-3v1.44c.52-.72,1-1.44,1.56-2.17a3.91,3.91,0,0,0-.48-4.95c-.68-.72-1.4-1.4-2.1-2.1a4,4,0,0,0-5-.84c-.81.51-1.57,1.11-2.35,1.66h1.45A19.3,19.3,0,0,0,64,26.54l1,1.05c-.15-.89-.28-1.78-.45-2.67a3.92,3.92,0,0,0-3.86-3.12c-1,0-2.07,0-3.11,0a4,4,0,0,0-4,2.92c-.23,1-.34,2-.5,2.93l1-1a19.08,19.08,0,0,0-3,1.25h1.45c-.73-.52-1.44-1.06-2.18-1.57a3.93,3.93,0,0,0-5,.58L43.3,29a4,4,0,0,0-.66,5c.52.77,1.08,1.52,1.62,2.27V34.85a19.05,19.05,0,0,0-1.22,3l1.05-1c-.89.15-1.79.28-2.67.45a3.92,3.92,0,0,0-3.12,3.86c0,1,0,2.07,0,3.11a4,4,0,0,0,2.92,4c1,.23,2,.34,2.93.5l-1-1a19.08,19.08,0,0,0,1.25,3V49.21c-.5.7-1,1.4-1.51,2.11a3.91,3.91,0,0,0,.41,5c1.29,1.37,3.35-.7,2.07-2.07a.94.94,0,0,1-.21-1,3.89,3.89,0,0,1,.51-.76l1.27-1.77a1.42,1.42,0,0,0,0-1.45,13.77,13.77,0,0,1-1-2.28,1.47,1.47,0,0,0-1-1l-2.45-.42-.3-.05-.32-.07a2.25,2.25,0,0,1-.29-.18.84.84,0,0,1-.3-.56s0-.2,0-.28V41.1c0-.13,0-.33,0-.32s.2-.37.11-.25a.89.89,0,0,1,.25-.25,1.1,1.1,0,0,1,.57-.19c.88-.17,1.77-.3,2.65-.45a1.44,1.44,0,0,0,1-1,14,14,0,0,1,.94-2.31,1.48,1.48,0,0,0,0-1.44l-1.42-2a2,2,0,0,1-.47-.91,1,1,0,0,1,.37-.79c.63-.65,1.29-1.28,1.93-1.93s1-.95,1.8-.39,1.45,1,2.17,1.57a1.47,1.47,0,0,0,1.45,0,13.82,13.82,0,0,1,2.28-1,1.47,1.47,0,0,0,1-1.05l.42-2.45c0-.1,0-.2,0-.3a2.34,2.34,0,0,1,.07-.32,2.25,2.25,0,0,1,.18-.29.89.89,0,0,1,.56-.3h.28c.94,0,1.87,0,2.81,0,.14,0,.27,0,.41,0l.33,0s.37.21.24.11a.76.76,0,0,1,.25.26,1.17,1.17,0,0,1,.2.56c.16.88.29,1.77.44,2.65a1.44,1.44,0,0,0,1,1,14.57,14.57,0,0,1,2.38,1,1.47,1.47,0,0,0,1.45,0l2-1.41a1.56,1.56,0,0,1,1-.45,1.14,1.14,0,0,1,.75.45l2,2c.57.57.72,1,.22,1.68s-1,1.44-1.55,2.16a1.45,1.45,0,0,0,0,1.44,13.93,13.93,0,0,1,1,2.3,1.46,1.46,0,0,0,1,1l2.42.41.3,0s.42.12.3.07a1.55,1.55,0,0,1,.22.12c.22.14-.11-.11.08.07s.29.39.3.84V44a3,3,0,0,1-.06.76c-.16.4-.41.53-.91.62-.89.17-1.78.3-2.67.45a1.43,1.43,0,0,0-1,1,13.52,13.52,0,0,1-1,2.29,1.5,1.5,0,0,0,0,1.45l1.41,2a1.89,1.89,0,0,1,.46.9,1,1,0,0,1-.38.81L71,56.19c-.58.58-1,.89-1.8.34s-1.44-1-2.16-1.54a1.43,1.43,0,0,0-1.44,0,14.74,14.74,0,0,1-2.29.95,1.47,1.47,0,0,0-1.05,1l-.46,2.73a1.5,1.5,0,0,0,1,1.78,1.47,1.47,0,0,0,1.79-1Z"/><path class="cls-3" d="M65.25,42.67a6.16,6.16,0,0,1-1.18,3.61c-.1.14,0,0,0,0l-.15.19-.33.36a6.57,6.57,0,0,1-.78.71c.13-.1-.18.12-.22.15l-.42.25c-.25.14-.65.33-.77.38a6.18,6.18,0,0,1-7-1.85,5.27,5.27,0,0,1-.43-.62,7.73,7.73,0,0,1-.49-.95,7.88,7.88,0,0,1-.39-1.64A6.09,6.09,0,0,1,54,39.54a6.09,6.09,0,0,1,6.3-2.85,6.11,6.11,0,0,1,5,6,1.46,1.46,0,0,0,2.92,0,9.12,9.12,0,0,0-6-8.46,9,9,0,0,0-9.9,2.64,9,9,0,1,0,15.86,5.82A1.46,1.46,0,0,0,65.25,42.67Z"/></g></g></svg>