<svg xmlns="http://www.w3.org/2000/svg" xmlns:xlink="http://www.w3.org/1999/xlink" viewBox="0 0 100 100"><defs><style>.cls-1,.cls-4{fill:none;}.cls-2{clip-path:url(#clip-path);}.cls-3{fill:#333;}.cls-4{stroke:#333;stroke-miterlimit:10;stroke-width:2.77px;}</style><clipPath id="clip-path"><rect class="cls-1" width="100" height="100"/></clipPath></defs><g id="Layer_5" data-name="Layer 5"><g class="cls-2"><path class="cls-3" d="M42.86,39V26.82l-1,1.34,5-1.7-1.56-.65,3.4,6.52a1.4,1.4,0,0,0,2.41,0L55,25.81l-1.56.65,4.79,1.61-1-1.34V39l1.39-1.39H41.47a1.39,1.39,0,0,0,0,2.77H58.53A1.4,1.4,0,0,0,59.92,39V26.73a1.43,1.43,0,0,0-1-1.34l-4.79-1.61a1.4,1.4,0,0,0-1.55.66L48.71,31h2.41l-3.4-6.52a1.39,1.39,0,0,0-1.55-.66l-5.05,1.7a1.44,1.44,0,0,0-1,1.34V39A1.39,1.39,0,0,0,42.86,39Z"/><path class="cls-3" d="M52.24,19c0,.11,0,.21,0,.32s-.06.22,0-.05c-.05.17-.07.34-.12.5s-.1.34,0,.12,0,.08-.06.1-.2.31-.27.47.23-.25,0,0a.86.86,0,0,1-.13.14c-.11.12-.23.23-.35.34s.27-.16,0,0l-.16.11-.22.11c-.3.18.19,0-.07,0a3.76,3.76,0,0,1-.48.13l-.19,0c0-.05.27,0,0,0a1,1,0,0,1-.46,0l.15,0-.19,0-.29-.07-.24-.08c-.18,0,.29.16,0,0L48.72,21c-.13-.07-.12,0,.06.06a.7.7,0,0,1-.19-.16c-.13-.12-.25-.25-.37-.38s.16.27,0,0l-.1-.17a1.54,1.54,0,0,1-.23-.44c.06.29,0,.14,0,.06s-.06-.2-.08-.3,0-.13,0-.19c-.06-.26,0,.24,0-.11,0-.16,0-.32,0-.48s.07-.4,0-.06a1.42,1.42,0,0,0,0-.2,2.54,2.54,0,0,0,.14-.48c0,.06-.11.25,0,0a3.07,3.07,0,0,1,.17-.31l.1-.16c.16-.28-.16.15,0,0s.21-.25.33-.36l.18-.16c.21-.19-.06.05-.06.05s.43-.26.5-.3,0,0-.06,0a1.16,1.16,0,0,1,.28-.1,2,2,0,0,1,.48-.1c-.33,0,.1,0,.21,0a.75.75,0,0,1,.26,0h-.1l.14,0a1.52,1.52,0,0,1,.57.17c-.23-.16-.14-.07-.06,0l.3.16s.2.11.2.14l-.1-.08.11.09a4.07,4.07,0,0,1,.41.42c.19.21-.05-.06-.05-.06s.16.24.19.28L52,18a.91.91,0,0,1,.07.14c0,.09,0,.06,0-.1.1.1.12.44.16.58s0,0,0-.05c0,.14,0,.28,0,.42A1.39,1.39,0,1,0,55,19a5.17,5.17,0,0,0-3.38-4.82,5,5,0,0,0-5.43,1.5,5.23,5.23,0,0,0-.5,5.94A5,5,0,0,0,51.06,24,5.13,5.13,0,0,0,55,19a1.39,1.39,0,0,0-1.38-1.38A1.41,1.41,0,0,0,52.24,19Z"/><path class="cls-3" d="M86.13,40.31V26.21c0-4.94.05-9.88,0-14.82A7.12,7.12,0,0,0,79,4.28H23c-.92,0-1.88-.06-2.8,0a7.16,7.16,0,0,0-6.35,7.29V88.94A7.28,7.28,0,0,0,17.28,95a9,9,0,0,0,5,1H78.71a9.49,9.49,0,0,0,1.68-.11,7,7,0,0,0,5.48-5.08,20.71,20.71,0,0,0,.26-5.34V40.31a1.39,1.39,0,0,0-2.78,0V88a9.49,9.49,0,0,1-.06,1.69,4.22,4.22,0,0,1-4.11,3.53c-.21,0-.42,0-.63,0H22.36a6.64,6.64,0,0,1-3.71-.62,4.36,4.36,0,0,1-2-3.72c0-.24,0-.47,0-.71V11.67c0-2.52,1.62-4.58,4.17-4.62,2.92,0,5.85,0,8.77,0H79a4.28,4.28,0,0,1,4.37,4.45c0,1.82,0,3.64,0,5.46V40.31A1.39,1.39,0,0,0,86.13,40.31Z"/><path class="cls-3" d="M23.72,86H69.79c2.13,0,4.27.08,6.4,0h.09a1.39,1.39,0,0,0,0-2.77H30.21c-2.13,0-4.27-.07-6.4,0h-.09a1.39,1.39,0,0,0,0,2.77Z"/><path class="cls-3" d="M23.72,70.83h8.81a1.39,1.39,0,0,0,0-2.77H23.72a1.39,1.39,0,0,0,0,2.77Z"/><path class="cls-3" d="M23.72,77.24h8.81a1.39,1.39,0,0,0,0-2.77H23.72a1.39,1.39,0,0,0,0,2.77Z"/><path class="cls-3" d="M44.56,70.83h8.8a1.39,1.39,0,1,0,0-2.77h-8.8a1.39,1.39,0,1,0,0,2.77Z"/><path class="cls-3" d="M44.56,77.24h8.8a1.4,1.4,0,0,0,1.39-1.38,1.43,1.43,0,0,0-1.39-1.39h-8.8a1.39,1.39,0,1,0,0,2.77Z"/><path class="cls-3" d="M67.47,70.83h8.81a1.39,1.39,0,0,0,0-2.77H67.47a1.39,1.39,0,0,0,0,2.77Z"/><path class="cls-3" d="M67.47,77.24h8.81a1.39,1.39,0,0,0,0-2.77H67.47a1.39,1.39,0,0,0,0,2.77Z"/><rect class="cls-4" x="33.6" y="11.68" width="32.8" height="27.29"/><path class="cls-3" d="M84.68,61.13h6.15a1.39,1.39,0,0,0,0-2.78H84.68a1.39,1.39,0,0,0,0,2.78Z"/><path class="cls-3" d="M84.68,67.54H95a1.39,1.39,0,0,0,0-2.77H84.68a1.39,1.39,0,0,0,0,2.77Z"/><path class="cls-3" d="M15.44,29.4H9.29A1.4,1.4,0,0,0,7.9,30.78a1.42,1.42,0,0,0,1.39,1.39h6.15a1.39,1.39,0,0,0,0-2.77Z"/><path class="cls-3" d="M15.44,35.81H5.12a1.39,1.39,0,0,0,0,2.77H15.44a1.39,1.39,0,0,0,0-2.77Z"/><path class="cls-3" d="M30.71,56.27l8.93-8.94,1.28-1.27a1.39,1.39,0,0,0-2-2L30,53l-1.27,1.27a1.39,1.39,0,1,0,2,2Z"/><path class="cls-3" d="M28.94,58.76a3.08,3.08,0,0,1-.3.33l-.17.15c-.17.15.28-.19,0,0l-.38.23-.19.09.16-.07-.14.05a2.37,2.37,0,0,1-.46.11l-.11,0,.18,0H27.3c-.15,0-.29,0-.44,0s.31,0,.17,0l-.11,0a1.14,1.14,0,0,1-.25-.06,1.66,1.66,0,0,1-.21-.06l-.11,0,.16.07a3.55,3.55,0,0,1-.43-.23l-.2-.13.14.11-.09-.07a3.73,3.73,0,0,1-.34-.35c-.2-.23.15.23,0,0l-.12-.18c0-.07-.07-.13-.1-.19s-.15-.33-.05-.1,0,0,0-.07a1.6,1.6,0,0,1-.05-.21,1.42,1.42,0,0,1,0-.2c0-.14,0,.18,0,.17s0-.1,0-.14,0-.28,0-.43-.06.3,0,.07c0-.08,0-.16.05-.24a1.72,1.72,0,0,1,.07-.21l0-.11s-.13.3-.06.17.14-.29.22-.43.23-.31.07-.1,0,0,.06-.06.35-.34.35-.33l-.15.11.1-.06.18-.12.2-.1.1,0c-.23.09,0,0,.07,0l.21-.06.21,0c.29-.06-.24,0,0,0a3.2,3.2,0,0,1,.44,0h.21s-.31,0-.16,0l.14,0a3.45,3.45,0,0,1,.46.12c.23.07-.27-.13-.05,0l.24.11.19.12c.05,0,.27.19.08,0s0,0,.06.06l.19.18.18.2c.09.1-.12-.15-.12-.15l.09.12a3.75,3.75,0,0,1,.24.44c.1.2-.1-.31,0,0a2.17,2.17,0,0,1,.07.24c0,.08,0,.17.05.25s0-.19,0-.18,0,.1,0,.14a1.31,1.31,0,0,1,0,.28c0,.07,0,.35,0,.11s0,.05,0,.11a2.17,2.17,0,0,1-.07.24l0,.11c0,.17,0-.1.06-.13a2.53,2.53,0,0,0-.12.23,2.46,2.46,0,0,1-.31.48,1.39,1.39,0,0,0,.53,1.89,1.43,1.43,0,0,0,1,.14,1.7,1.7,0,0,0,.86-.66,4.5,4.5,0,0,0,.09-5.12,5,5,0,0,0-2.43-1.85,4.79,4.79,0,0,0-2.73-.13,4.71,4.71,0,0,0-3.58,4.13,4.56,4.56,0,0,0,2.63,4.48,5.08,5.08,0,0,0,3.19.37,4.7,4.7,0,0,0,2.6-1.58,1.52,1.52,0,0,0,.41-1,1.39,1.39,0,0,0-2.37-1Z"/><path class="cls-3" d="M70.45,54.31l-8.94-8.94L60.24,44.1a1.39,1.39,0,0,0-2,2L67.22,55l1.27,1.27a1.39,1.39,0,1,0,2-2Z"/><path class="cls-3" d="M68.3,60.72a4.86,4.86,0,0,0,5,1.52A4.71,4.71,0,0,0,76.73,58a4.63,4.63,0,0,0-2.94-4.44,4.9,4.9,0,0,0-5.28,1.09,4.54,4.54,0,0,0-.44,5.79,1.58,1.58,0,0,0,.86.66,1.43,1.43,0,0,0,1-.14,1.4,1.4,0,0,0,.66-.85,1.34,1.34,0,0,0-.14-1,3.11,3.11,0,0,1-.25-.38,1.28,1.28,0,0,1-.11-.2,1,1,0,0,1,0-.1c-.08-.15.1.29,0,.13s-.09-.27-.12-.42S70,57.77,70,58s0,0,0-.11v-.24c0-.06,0-.32,0-.08s0,0,0-.06l.06-.25a1.18,1.18,0,0,0,.07-.2s-.13.29-.07.17,0-.07.05-.1a2.38,2.38,0,0,1,.23-.41l.06-.09s-.2.25-.11.15l.15-.17c.11-.12.24-.22.36-.33s-.26.18-.14.11l.1-.07.2-.12.2-.1.1,0c.15-.07-.28.1-.12,0l.46-.13.22,0s-.31,0-.17,0h.69s-.31,0-.17,0l.25,0c.14,0,.28.1.42.13l-.16-.07.1,0,.22.11.19.12s.27.19.06,0l.06,0,.18.18s.24.3.09.09,0,0,0,.07a3.5,3.5,0,0,1,.24.42c.1.22-.1-.28,0-.06a1.66,1.66,0,0,1,.06.21,1.6,1.6,0,0,1,0,.21s0,.07,0,.11,0-.3,0-.14,0,.28,0,.42,0,.32,0,.08,0,0,0,.1a3.17,3.17,0,0,0-.12.41s.13-.29.07-.17l0,.1a1.55,1.55,0,0,1-.12.22,1.18,1.18,0,0,1-.11.19c-.18.27.18-.21,0,0s-.22.24-.34.35-.26.21-.06.06,0,0-.08,0a3.55,3.55,0,0,1-.43.23c-.2.1.3-.1,0,0l-.25.07-.25.06c-.29,0,.24,0,0,0a4.34,4.34,0,0,1-.51,0h-.11c-.16,0,.3,0,.14,0l-.25,0-.28-.08-.11,0c-.16,0,.28.13.13.06s-.31-.15-.45-.24a2,2,0,0,0-.22-.14s.25.2.15.11a.52.52,0,0,0-.11-.1,4.86,4.86,0,0,1-.38-.41,1.4,1.4,0,0,0-1-.41,1.4,1.4,0,0,0-1.39,1.39A1.62,1.62,0,0,0,68.3,60.72Z"/><path class="cls-3" d="M51.29,56.05l-.34-9,0-1.29a1.39,1.39,0,1,0-2.78,0l.34,9,.05,1.29a1.42,1.42,0,0,0,1.39,1.39,1.4,1.4,0,0,0,1.38-1.39Z"/><path class="cls-3" d="M45.32,59.15a4.86,4.86,0,0,0,2.6,4.59A4.71,4.71,0,0,0,53.34,63a4.66,4.66,0,0,0,.85-5.36,4.86,4.86,0,0,0-4.56-2.71,4.75,4.75,0,0,0-2.94,1.26,4.68,4.68,0,0,0-1.37,3,1.39,1.39,0,0,0,1.39,1.38,1.41,1.41,0,0,0,1.38-1.38c0,.39,0-.08.06-.18s.08-.25.07-.26-.15.32,0,.1.13-.26.2-.38l0-.07c.09-.13.06-.1-.07.09.06,0,.11-.14.16-.19a2.16,2.16,0,0,0,.31-.29c-.12.19-.22.16-.09.08l.21-.13.15-.08.08,0-.1,0a2,2,0,0,0,.46-.13c.27-.07,0,0,0,0l.22,0a3.57,3.57,0,0,1,.46,0c.19,0-.33-.07,0,0l.22.06.22.06c.29.08-.27-.14,0,0L51,58a1.43,1.43,0,0,0,.22.15s-.26-.23-.09-.06.22.19.32.3.16.26,0,.06.07.09.09.14a2.82,2.82,0,0,1,.21.38c.12.23,0-.07,0-.09s.08.23.08.25a2.24,2.24,0,0,1,.1.44s0-.35,0-.09,0,.21,0,.32a.87.87,0,0,1,0,.23s.05-.29,0-.09-.07.29-.11.44.15-.28,0,0l-.07.15c0,.08-.09.15-.13.22l0,.07c-.09.13-.06.1.07-.09a2.8,2.8,0,0,0-.28.31l-.16.14c-.13.14.31-.2.06-.05l-.36.21s-.14,0-.16.08c.2-.08.23-.1.1,0l-.17,0-.17,0-.08,0c-.15,0-.12,0,.09,0h-.63c-.3,0,.22,0,0,0l-.49-.13c-.3-.08.28.14,0,0-.08,0-.16-.07-.24-.12L49,61.15l-.11-.08c-.12-.09-.1-.06.08.07-.11-.13-.26-.23-.38-.36l-.11-.14c.13.19.15.21.06.09l-.05-.07c-.09-.15-.17-.3-.25-.46s.08.3,0,0c0-.09-.06-.17-.08-.26s0-.14,0-.21c-.06-.34,0,.22,0-.05s0-.36,0-.54a1.39,1.39,0,0,0-1.38-1.39A1.43,1.43,0,0,0,45.32,59.15Z"/></g></g></svg>