<?xml version="1.0" encoding="utf-8"?>
<!-- Generator: Adobe Illustrator 24.1.1, SVG Export Plug-In . SVG Version: 6.00 Build 0)  -->
<svg version="1.1" id="Layer_1" xmlns="http://www.w3.org/2000/svg" xmlns:xlink="http://www.w3.org/1999/xlink" x="0px" y="0px"
	 viewBox="0 0 150 150" style="enable-background:new 0 0 150 150;" xml:space="preserve">
<style type="text/css">
	.st0{fill:none;stroke:#909AA0;stroke-width:2;stroke-miterlimit:10;}
	.st1{fill:none;stroke:#909AA0;stroke-miterlimit:10;}
	.st2{fill:#E2DEDE;}
	.st3{fill:#5892CD;}
	.st4{fill:#CCEBF4;}
	.st5{fill:url(#SVGID_1_);}
	.st6{fill:#6FACDE;}
	.st7{opacity:0.47;fill:#3C6CAC;enable-background:new    ;}
	.st8{fill:url(#SVGID_2_);}
	.st9{fill:#D5E1F3;}
	.st10{clip-path:url(#SVGID_4_);}
	.st11{fill:#C1CDE9;}
	.st12{fill:#CFDBF0;}
	.st13{fill:#DBE7F6;}
	.st14{fill:#E8F0FA;}
	.st15{fill:#4A90CD;}
	.st16{clip-path:url(#SVGID_6_);}
	.st17{fill:#46B2E6;}
	.st18{fill:#50C8EC;}
	.st19{clip-path:url(#SVGID_8_);}
	.st20{clip-path:url(#SVGID_10_);}
	.st21{clip-path:url(#SVGID_12_);}
	.st22{clip-path:url(#SVGID_14_);}
	.st23{clip-path:url(#SVGID_16_);}
	.st24{fill:#9AA4D3;}
	.st25{fill:#F36D21;}
	.st26{fill:#D4EAF9;}
	.st27{fill:url(#SVGID_17_);}
	.st28{fill:#12748F;}
	.st29{fill:#0099CD;}
	.st30{fill:#82CBE5;}
	.st31{fill:#5CC0D8;}
	.st32{fill:#BBCEE0;}
	.st33{fill:#A7BCCE;}
	.st34{fill:#FFFFFF;}
	.st35{fill:#F4F6FB;}
	.st36{fill:#F0A95B;}
	.st37{fill:#F58348;}
	.st38{fill:#EDF4FB;}
	.st39{fill:#B5B3C5;}
	.st40{fill:#F69165;}
	.st41{fill:#F6B574;}
	.st42{fill:#909AA0;}
	.st43{opacity:0.5;fill:#C2C4C5;enable-background:new    ;}
	.st44{fill:#D1E0EA;}
	.st45{fill:#C2CCE8;}
	.st46{fill:url(#SVGID_18_);}
	.st47{fill:#AFE1F6;}
	.st48{fill:url(#SVGID_19_);}
	.st49{fill:url(#SVGID_20_);}
	.st50{fill:url(#SVGID_21_);}
	.st51{fill:#D25727;}
	.st52{fill:#C65027;}
	.st53{fill:#DD8833;}
	.st54{fill:#240D0B;}
	.st55{fill:#1E76BD;}
	.st56{fill:#38414B;}
	.st57{fill:#242B32;}
	.st58{fill:#FFD53A;}
	.st59{fill:#8C96A5;}
	.st60{fill:#CBD3DD;}
	.st61{fill:#A5ADBA;}
	.st62{fill:#FBC717;}
	.st63{fill:#FDB714;}
	.st64{fill:#3C6CAC;}
	.st65{fill:#F0F5FC;}
	.st66{fill:#C9D5ED;}
	.st67{fill:#F2F2F2;}
</style>
<g>
	<g id="SharePoint_Migration_to_Azure">
		<g id="Layer_29">
			<line class="st0" x1="30.6" y1="36.5" x2="131.6" y2="135"/>
			<line class="st0" x1="32" y1="121.6" x2="136.5" y2="26.7"/>
			<ellipse class="st1" cx="75.6" cy="81.1" rx="30.2" ry="15.4"/>
			<ellipse class="st1" cx="75.6" cy="81.1" rx="23.5" ry="12"/>
			<ellipse class="st1" cx="75.6" cy="81.1" rx="18.2" ry="9.3"/>
			<ellipse class="st2" cx="75.6" cy="81.1" rx="15" ry="7.6"/>
			<path class="st3" d="M88.4,77.5H61.9v2.3l0,0c0,0,0,0.1,0,0.1c0,4.3,5.9,7.7,13.2,7.7s13.2-3.5,13.2-7.7c0,0,0-0.1,0-0.1l0,0
				V77.5z"/>
			<ellipse class="st4" cx="75.1" cy="77.5" rx="13.2" ry="7.7"/>
			
				<radialGradient id="SVGID_1_" cx="66.3654" cy="83.8538" r="28.6502" gradientTransform="matrix(0.3402 0 0 -0.3402 48.311 112.6939)" gradientUnits="userSpaceOnUse">
				<stop  offset="0" style="stop-color:#FFFFFF"/>
				<stop  offset="1" style="stop-color:#000000"/>
			</radialGradient>
			<path class="st5" d="M75.1,85.2c-7.2,0-13.1-3.4-13.2-7.6c0,0,0,0.1,0,0.1c0,4.2,5.9,7.7,13.2,7.7c7.3,0,13.2-3.4,13.2-7.7
				c0,0,0-0.1,0-0.1C88.2,81.8,82.3,85.2,75.1,85.2z"/>
			<path class="st6" d="M87.3,74H62.9v3.2l0,0c0,0,0,0.1,0,0.1c0,3.9,5.5,7.1,12.2,7.1c6.7,0,12.2-3.2,12.2-7.1c0,0,0-0.1,0-0.1l0,0
				V74z"/>
			<ellipse class="st4" cx="75.1" cy="74" rx="12.2" ry="7.1"/>
			<ellipse class="st7" cx="75.1" cy="74" rx="10.8" ry="6.3"/>
			
				<radialGradient id="SVGID_2_" cx="67.3223" cy="95.6533" r="26.4501" gradientTransform="matrix(0.3402 0 0 -0.3402 48.311 112.6939)" gradientUnits="userSpaceOnUse">
				<stop  offset="0" style="stop-color:#FFFFFF"/>
				<stop  offset="1" style="stop-color:#000000"/>
			</radialGradient>
			<path class="st8" d="M75.1,81.1c-6.7,0-12.1-3.1-12.2-7c0,0,0,0.1,0,0.1c0,3.9,5.5,7.1,12.2,7.1c6.7,0,12.2-3.2,12.2-7.1
				c0,0,0-0.1,0-0.1C87.2,78,81.8,81.1,75.1,81.1z"/>
		</g>
		<g id="database">
			<g>
				<path class="st9" d="M7.6,48.1v3.4c0,2.2,1.5,4.5,4.4,6.2c5.9,3.4,15.5,3.4,21.5,0c3-1.7,4.5-4,4.5-6.3V48
					c0,2.3-1.5,4.5-4.5,6.3c-6,3.4-15.6,3.4-21.5,0C9.1,52.6,7.6,50.3,7.6,48.1z"/>
				<g>
					<defs>
						<path id="SVGID_3_" d="M7.6,48.1v3.4c0,2.2,1.5,4.5,4.4,6.2c5.9,3.4,15.5,3.4,21.5,0c3-1.7,4.5-4,4.5-6.3V48
							c0,2.3-1.5,4.5-4.5,6.3c-6,3.4-15.6,3.4-21.5,0C9.1,52.6,7.6,50.3,7.6,48.1z"/>
					</defs>
					<clipPath id="SVGID_4_">
						<use xlink:href="#SVGID_3_"  style="overflow:visible;"/>
					</clipPath>
					<g class="st10">
						<g>
							<path class="st11" d="M7.6,48.1v3.4c0,2.2,1.5,4.5,4.4,6.2c1.2,0.7,2.5,1.3,3.9,1.6v-3.5c-1.4-0.4-2.7-0.9-3.9-1.6
								C9.1,52.6,7.6,50.3,7.6,48.1z"/>
							<path class="st12" d="M15.9,55.9v3.5c2.1,0.6,4.3,0.9,6.5,0.9v-3.5C20.2,56.8,18,56.5,15.9,55.9L15.9,55.9z"/>
							<path class="st13" d="M22.4,56.8v3.4c4,0.1,8.1-0.8,11.1-2.6c0.2-0.1,0.3-0.2,0.4-0.3V54c-0.1,0.1-0.3,0.2-0.4,0.3
								C30.5,56,26.4,56.9,22.4,56.8z"/>
							<path class="st12" d="M34,54v3.4c1.4-0.8,2.5-2,3.4-3.4v-3.5C36.5,52,35.4,53.2,34,54L34,54z"/>
							<path class="st12" d="M37.3,50.6v3.4c0.4-0.8,0.7-1.7,0.7-2.6V48C38,48.9,37.8,49.8,37.3,50.6L37.3,50.6z"/>
						</g>
					</g>
				</g>
				<path class="st14" d="M12.1,41.8c-6,3.4-6,9-0.1,12.4c5.9,3.4,15.5,3.4,21.5,0s6-9,0.1-12.5C27.7,38.4,18.1,38.4,12.1,41.8z"/>
			</g>
			<g>
				<path class="st15" d="M8,42.1v5c0,2.2,1.4,4.4,4.3,6c5.8,3.4,15.1,3.4,20.9,0c2.9-1.7,4.4-3.9,4.4-6.1v-5c0,2.2-1.5,4.4-4.4,6.1
					c-5.8,3.4-15.1,3.4-20.9,0C9.5,46.5,8,44.3,8,42.1z"/>
				<g>
					<defs>
						<path id="SVGID_5_" d="M8,42.1v5c0,2.2,1.4,4.4,4.3,6c5.8,3.4,15.1,3.4,20.9,0c2.9-1.7,4.4-3.9,4.4-6.1v-5
							c0,2.2-1.5,4.4-4.4,6.1c-5.8,3.4-15.1,3.4-20.9,0C9.5,46.5,8,44.3,8,42.1z"/>
					</defs>
					<clipPath id="SVGID_6_">
						<use xlink:href="#SVGID_5_"  style="overflow:visible;"/>
					</clipPath>
					<g class="st16">
						<g>
							<path class="st15" d="M8,42.1v5c0,2.2,1.4,4.4,4.3,6c1.2,0.7,2.4,1.2,3.8,1.6v-5c-1.3-0.4-2.6-0.9-3.8-1.6
								C9.5,46.5,8,44.3,8,42.1z"/>
							<path class="st17" d="M16.1,49.7v5c2.1,0.6,4.2,0.9,6.3,0.9v-5C20.3,50.6,18.2,50.3,16.1,49.7z"/>
							<path class="st18" d="M22.4,50.7v5c3.9,0.1,7.8-0.8,10.8-2.5c0.1-0.1,0.3-0.2,0.4-0.3v-5l-0.4,0.3
								C30.2,49.9,26.3,50.7,22.4,50.7L22.4,50.7z"/>
							<path class="st17" d="M33.6,47.9v5c1.4-0.8,2.5-1.9,3.3-3.3v-5C36.1,46,35,47.1,33.6,47.9z"/>
							<path class="st17" d="M36.9,44.6v5c0.4-0.8,0.7-1.7,0.7-2.6v-5C37.6,42.9,37.4,43.8,36.9,44.6z"/>
						</g>
					</g>
				</g>
				<path class="st18" d="M12.4,36c-5.8,3.4-5.8,8.8-0.1,12.1c5.8,3.3,15.1,3.4,20.9,0c5.8-3.4,5.8-8.8,0.1-12.1S18.2,32.7,12.4,36z
					"/>
			</g>
			<g>
				<path class="st9" d="M7.6,38.5v3.4c0,2.2,1.5,4.5,4.4,6.2c5.9,3.4,15.5,3.4,21.5,0c3-1.7,4.5-4,4.5-6.3v-3.4
					c0,2.3-1.5,4.5-4.5,6.3c-6,3.4-15.6,3.4-21.5,0C9.1,42.9,7.6,40.7,7.6,38.5z"/>
				<g>
					<defs>
						<path id="SVGID_7_" d="M7.6,38.5v3.4c0,2.2,1.5,4.5,4.4,6.2c5.9,3.4,15.5,3.4,21.5,0c3-1.7,4.5-4,4.5-6.3v-3.4
							c0,2.3-1.5,4.5-4.5,6.3c-6,3.4-15.6,3.4-21.5,0C9.1,42.9,7.6,40.7,7.6,38.5z"/>
					</defs>
					<clipPath id="SVGID_8_">
						<use xlink:href="#SVGID_7_"  style="overflow:visible;"/>
					</clipPath>
					<g class="st19">
						<g>
							<path class="st11" d="M7.6,38.5v3.4c0,2.2,1.5,4.5,4.4,6.2c1.2,0.7,2.5,1.2,3.9,1.6v-3.4c-1.4-0.4-2.7-0.9-3.9-1.6
								C9.1,42.9,7.6,40.7,7.6,38.5z"/>
							<path class="st12" d="M15.9,46.3v3.4c2.1,0.6,4.3,0.9,6.5,0.9v-3.4C20.2,47.2,18,46.9,15.9,46.3L15.9,46.3z"/>
							<path class="st13" d="M22.4,47.2v3.4c4,0.1,8.1-0.8,11.1-2.6l0.4-0.3v-3.4c-0.1,0.1-0.3,0.2-0.4,0.3
								C30.5,46.4,26.4,47.3,22.4,47.2z"/>
							<path class="st12" d="M34,44.4v3.4c1.4-0.8,2.5-2,3.4-3.4V41C36.5,42.4,35.4,43.5,34,44.4L34,44.4z"/>
							<path class="st12" d="M37.3,41v3.4c0.4-0.8,0.7-1.7,0.7-2.6v-3.4C38,39.3,37.8,40.2,37.3,41z"/>
						</g>
					</g>
				</g>
				<path class="st14" d="M12.1,32.2c-6,3.4-6,9-0.1,12.5c5.9,3.4,15.5,3.4,21.5,0s6-9,0.1-12.5S18.1,28.7,12.1,32.2z"/>
			</g>
			<g>
				<path class="st15" d="M8,32.5v5c0,2.2,1.4,4.4,4.3,6c5.8,3.4,15.1,3.4,20.9,0c2.9-1.7,4.4-3.9,4.4-6.1v-5c0,2.2-1.5,4.4-4.4,6.1
					c-5.8,3.4-15.1,3.4-20.9,0C9.5,36.9,8,34.7,8,32.5z"/>
				<g>
					<defs>
						<path id="SVGID_9_" d="M8,32.5v5c0,2.2,1.4,4.4,4.3,6c5.8,3.4,15.1,3.4,20.9,0c2.9-1.7,4.4-3.9,4.4-6.1v-5
							c0,2.2-1.5,4.4-4.4,6.1c-5.8,3.4-15.1,3.4-20.9,0C9.5,36.9,8,34.7,8,32.5z"/>
					</defs>
					<clipPath id="SVGID_10_">
						<use xlink:href="#SVGID_9_"  style="overflow:visible;"/>
					</clipPath>
					<g class="st20">
						<g>
							<path class="st15" d="M8,32.5v5c0,2.2,1.4,4.4,4.3,6c1.2,0.7,2.4,1.2,3.8,1.6v-5c-1.3-0.4-2.6-0.9-3.8-1.6
								C9.5,36.9,8,34.7,8,32.5z"/>
							<path class="st17" d="M16.1,40.1v5c2.1,0.6,4.2,0.9,6.3,0.9v-5C20.3,41,18.2,40.7,16.1,40.1z"/>
							<path class="st18" d="M22.4,41.1v5c3.9,0.1,7.8-0.8,10.8-2.5l0.4-0.3v-5l-0.4,0.3C30.2,40.3,26.3,41.1,22.4,41.1z"/>
							<path class="st17" d="M33.6,38.3v5c1.4-0.8,2.5-1.9,3.3-3.3v-5C36.1,36.4,35,37.5,33.6,38.3z"/>
							<path class="st17" d="M36.9,35v5c0.4-0.8,0.7-1.7,0.7-2.6v-5C37.6,33.4,37.4,34.2,36.9,35z"/>
						</g>
					</g>
				</g>
				<path class="st18" d="M12.4,26.4c-5.8,3.4-5.8,8.8-0.1,12.1c5.8,3.3,15.1,3.4,20.9,0c5.8-3.4,5.8-8.8,0.1-12.1
					S18.2,23.1,12.4,26.4z"/>
			</g>
			<g>
				<path class="st9" d="M7.6,28.9v3.4c0,2.2,1.5,4.5,4.4,6.2c5.9,3.4,15.5,3.4,21.5,0c3-1.7,4.5-4,4.5-6.3v-3.4
					c0,2.3-1.5,4.5-4.5,6.3c-6,3.4-15.6,3.4-21.5,0C9.1,33.3,7.6,31.1,7.6,28.9z"/>
				<g>
					<defs>
						<path id="SVGID_11_" d="M7.6,28.9v3.4c0,2.2,1.5,4.5,4.4,6.2c5.9,3.4,15.5,3.4,21.5,0c3-1.7,4.5-4,4.5-6.3v-3.4
							c0,2.3-1.5,4.5-4.5,6.3c-6,3.4-15.6,3.4-21.5,0C9.1,33.3,7.6,31.1,7.6,28.9z"/>
					</defs>
					<clipPath id="SVGID_12_">
						<use xlink:href="#SVGID_11_"  style="overflow:visible;"/>
					</clipPath>
					<g class="st21">
						<g>
							<path class="st11" d="M7.6,28.9v3.4c0,2.2,1.5,4.5,4.4,6.2c1.2,0.7,2.5,1.2,3.9,1.6v-3.4c-1.3-0.4-2.6-0.9-3.9-1.6
								C9.1,33.3,7.6,31.1,7.6,28.9z"/>
							<path class="st12" d="M15.9,36.7v3.4c2.1,0.6,4.3,0.9,6.5,0.9v-3.4C20.2,37.6,18,37.3,15.9,36.7z"/>
							<path class="st13" d="M22.4,37.6v3.4c4,0.1,8.1-0.8,11.1-2.6c0.2-0.1,0.3-0.2,0.4-0.3v-3.4c-0.1,0.1-0.3,0.2-0.4,0.3
								C30.5,36.8,26.4,37.7,22.4,37.6z"/>
							<path class="st12" d="M34,34.8v3.4c1.4-0.8,2.5-2,3.4-3.4v-3.5C36.5,32.8,35.4,34,34,34.8z"/>
							<path class="st12" d="M37.3,31.4v3.4c0.4-0.8,0.7-1.7,0.7-2.6v-3.4C38,29.7,37.8,30.6,37.3,31.4z"/>
						</g>
					</g>
				</g>
				<path class="st14" d="M12.1,22.6c-6,3.4-6,9-0.1,12.5s15.5,3.4,21.5,0c5.9-3.4,6-9,0.1-12.5S18.1,19.2,12.1,22.6z"/>
			</g>
			<g>
				<path class="st15" d="M8,22.8v5c0,2.2,1.4,4.4,4.3,6c5.8,3.4,15.1,3.4,20.9,0c2.9-1.7,4.4-3.9,4.4-6.1v-5c0,2.2-1.5,4.4-4.4,6.1
					c-5.8,3.4-15.1,3.4-20.9,0C9.5,27.1,8,24.9,8,22.8z"/>
				<g>
					<defs>
						<path id="SVGID_13_" d="M8,22.8v5c0,2.2,1.4,4.4,4.3,6c5.8,3.4,15.1,3.4,20.9,0c2.9-1.7,4.4-3.9,4.4-6.1v-5
							c0,2.2-1.5,4.4-4.4,6.1c-5.8,3.4-15.1,3.4-20.9,0C9.5,27.1,8,24.9,8,22.8z"/>
					</defs>
					<clipPath id="SVGID_14_">
						<use xlink:href="#SVGID_13_"  style="overflow:visible;"/>
					</clipPath>
					<g class="st22">
						<g>
							<path class="st15" d="M8,22.8v5c0,2.2,1.4,4.4,4.3,6c1.2,0.7,2.4,1.2,3.8,1.6v-5c-1.3-0.4-2.6-0.9-3.8-1.6
								C9.5,27.1,8,24.9,8,22.8z"/>
							<path class="st17" d="M16.1,30.3v5c2.1,0.6,4.2,0.9,6.3,0.9v-5C20.3,31.2,18.2,30.9,16.1,30.3z"/>
							<path class="st18" d="M22.4,31.3v5c3.9,0.1,7.8-0.8,10.8-2.5c0.1-0.1,0.3-0.2,0.4-0.3v-5l-0.4,0.3
								C30.2,30.5,26.3,31.3,22.4,31.3z"/>
							<path class="st17" d="M33.6,28.5v5c1.4-0.8,2.5-1.9,3.3-3.3v-5C36.1,26.6,35,27.7,33.6,28.5z"/>
							<path class="st17" d="M36.9,25.2v5c0.4-0.8,0.7-1.7,0.7-2.6v-5C37.6,23.6,37.4,24.4,36.9,25.2z"/>
						</g>
					</g>
				</g>
				<path class="st18" d="M12.4,16.6c-5.8,3.4-5.8,8.8-0.1,12.1s15.1,3.4,20.9,0c5.8-3.4,5.8-8.8,0.1-12.1S18.2,13.3,12.4,16.6z"/>
			</g>
			<g>
				<path class="st9" d="M7.6,19.1v3.4c0,2.2,1.5,4.5,4.4,6.2c5.9,3.4,15.5,3.4,21.5,0c3-1.7,4.5-4,4.5-6.3V19
					c0,2.3-1.5,4.5-4.5,6.3c-6,3.4-15.6,3.4-21.5,0C9.1,23.5,7.6,21.3,7.6,19.1z"/>
				<g>
					<defs>
						<path id="SVGID_15_" d="M7.6,19.1v3.4c0,2.2,1.5,4.5,4.4,6.2c5.9,3.4,15.5,3.4,21.5,0c3-1.7,4.5-4,4.5-6.3V19
							c0,2.3-1.5,4.5-4.5,6.3c-6,3.4-15.6,3.4-21.5,0C9.1,23.5,7.6,21.3,7.6,19.1z"/>
					</defs>
					<clipPath id="SVGID_16_">
						<use xlink:href="#SVGID_15_"  style="overflow:visible;"/>
					</clipPath>
					<g class="st23">
						<g>
							<path class="st11" d="M7.6,19.1v3.4c0,2.2,1.5,4.5,4.4,6.2c1.2,0.7,2.5,1.2,3.9,1.6v-3.4c-1.4-0.4-2.7-0.9-3.9-1.6
								C9.1,23.5,7.6,21.3,7.6,19.1z"/>
							<path class="st12" d="M15.9,26.9v3.4c2.1,0.6,4.3,0.9,6.5,0.9v-3.4C20.2,27.8,18,27.5,15.9,26.9z"/>
							<path class="st13" d="M22.4,27.8v3.4c4,0.1,8.1-0.8,11.1-2.6c0.2-0.1,0.3-0.2,0.4-0.3V25l-0.4,0.3
								C30.5,27,26.4,27.9,22.4,27.8L22.4,27.8z"/>
							<path class="st12" d="M34,25v3.4c1.4-0.8,2.5-2,3.4-3.4v-3.4C36.5,23,35.4,24.2,34,25z"/>
							<path class="st12" d="M37.3,21.6V25c0.4-0.8,0.7-1.7,0.7-2.6V19C38,19.9,37.8,20.8,37.3,21.6z"/>
						</g>
					</g>
				</g>
				<path class="st14" d="M12.1,12.8c-6,3.4-6,9-0.1,12.5s15.5,3.4,21.5,0s6-9,0.1-12.5S18.1,9.4,12.1,12.8z"/>
				<path class="st13" d="M13.4,14.2c-5.2,2.6-5.2,6.9-0.1,9.6s13.6,2.6,18.8,0s5.2-6.9,0.1-9.6S18.7,11.6,13.4,14.2z"/>
				<path class="st24" d="M9.1,19c0,0.1,0,0.2,0,0.3c0.1,1.7,1.4,3.4,3.6,4.6c2.6,1.5,6.2,2.4,10,2.4c3.8,0,7.3-0.8,10-2.4
					c2.2-1.3,3.6-3,3.7-4.7c0-0.1,0-0.2,0-0.3c0-1.7-1.3-3.5-3.7-4.9c-2.6-1.5-6.2-2.4-10-2.4c-3.8,0-7.3,0.8-10,2.4
					C10.5,15.5,9.1,17.3,9.1,19z M10.3,19.3L10.3,19.3c0-0.1,0-0.2,0-0.3c0-1.3,1.1-2.8,3.1-3.9c2.5-1.4,5.8-2.2,9.4-2.2
					c3.5,0,7,0.8,9.4,2.2c2,1.1,3.1,2.5,3.1,3.9c0,0.1,0,0.2,0,0.2l0,0c0,0.1,0,0.2,0,0.3c0,1.3-1.1,2.8-3.1,3.9
					c-2.5,1.4-5.8,2.2-9.4,2.2c-3.5,0-7-0.8-9.4-2.2c-2-1.1-3.1-2.5-3.1-3.9C10.3,19.5,10.3,19.4,10.3,19.3z"/>
				<path class="st18" d="M9.1,19.3c0.1,1.7,1.4,3.4,3.6,4.6c2.6,1.5,6.2,2.4,10,2.4c3.8,0,7.3-0.8,10-2.4c2.2-1.3,3.6-3,3.7-4.7
					c-0.1-1.7-1.4-3.3-3.6-4.6c-2.6-1.5-6.2-2.4-10-2.4c-3.8,0-7.3,0.8-10,2.4C10.6,15.9,9.3,17.6,9.1,19.3z M10.3,19.6
					c0-0.1,0-0.2,0-0.3l0,0c0-0.1,0-0.2,0-0.3c0-1.3,1.1-2.8,3.1-3.9c2.5-1.4,5.8-2.2,9.4-2.2c3.5,0,7,0.8,9.4,2.2
					c2,1.1,3.1,2.5,3.1,3.9c0,0.1,0,0.2,0,0.2l0,0c0,0.1,0,0.2,0,0.3c0,1.3-1.1,2.8-3.1,3.9c-2.5,1.4-5.8,2.2-9.4,2.2
					c-3.5,0-7-0.8-9.4-2.2C11.4,22.3,10.3,20.9,10.3,19.6L10.3,19.6z"/>
			</g>
		</g>
		<g>
			<path class="st25" d="M84,48.5L84,48.5l0.2,0h0l0.2,0l0,0h0l0.1,0h0.1l0.1,0h0h0l0.1,0H85l0.1,0h0l0,0l0.2,0h0.1h0.1h0.1h0.2h0.5
				h0.2h0l0.2,0h0c0.1,0,0.2,0,0.2,0l0,0h0l0.1,0h0.1l0.1,0h0.1l0.1,0l0.1,0l0.1,0h0l0,0l0.2,0.1h0l0.2,0.1l0,0l0.2,0.1l0,0
				c0.1,0,0.1,0.1,0.2,0.1l2.2,1.3l0.1-0.1l0.3-0.2h0l0.1-0.1l0.2-0.1l0.1,0l0.2-0.1h0h0c0.1,0,0.2-0.1,0.2-0.1l0,0l0,0l0.2-0.1h0h0
				c0.1,0,0.2-0.1,0.2-0.1l0,0c0.1,0,0.2-0.1,0.2-0.1h0h0l0.2-0.1l0,0h0c0.1,0,0.2-0.1,0.3-0.1l0,0l0.3-0.1h0.1h0h0.1h0.1H94H94h0
				h0.1h0.1h0.1h0.1h0.1h0.4H95h0l0.2,0h0.1l0.2,0h0l0,0c0.1,0,0.1,0,0.2,0.1h0l0.2,0.1h0h0l0.1,0l0.1,0l0.1,0l0.1,0l0.1,0l0,0
				l0.1,0.1l5.4,3.1l-0.1-0.1l0,0c0,0-0.1,0-0.1,0l-0.1,0l-0.1,0l-0.1,0l-0.1,0h0c-0.1,0-0.1,0-0.2-0.1h0l-0.2-0.1h0l-0.2,0h-0.1
				l-0.2,0h0h-0.2h-0.5h-0.1h-0.1h-0.1h-0.1h-0.1h-0.1h-0.1h-0.1h-0.1c-0.1,0-0.2,0-0.3,0.1l0,0l-0.3,0.1h0l-0.2,0.1l-0.1,0L98,52.3
				l0,0l-0.2,0.1l-0.1,0l-0.2,0.1l0,0l-0.2,0.1l-0.1-0.1l-0.2,0.1l-0.2,0.2l-0.1,0.1c-0.2,0.1-0.4,0.3-0.6,0.4l-0.1,0.1l-0.2,0.1
				l-4-2.3h-0.4H91H91h-0.1h0l-0.2,0h0l-0.1,0h-0.1l-0.1,0h-0.1l-0.1,0h-0.1l-0.1,0h0l-0.2,0h0l-0.2,0h0l-0.3,0.1l-5.4-3.1l0.3-0.1
				L84,48.5z"/>
			<path class="st25" d="M47.3,80.3L47.3,80.3c0-0.2,0-0.3,0-0.4v-0.1c0-0.1,0-0.3,0-0.4l0,0c0,0,0,0,0,0c0-0.1,0-0.2,0-0.4
				c0,0,0,0,0-0.1c0,0,0,0,0,0c0-0.1,0-0.3,0-0.4c0,0,0,0,0,0c0,0,0,0,0-0.1c0-0.1,0-0.3,0.1-0.4c0,0,0,0,0,0l0,0
				c0-0.1,0-0.3,0.1-0.4c0,0,0,0,0-0.1v0c0-0.1,0.1-0.3,0.1-0.4c0,0,0,0,0,0v0c0-0.1,0.1-0.3,0.1-0.4c0.1-0.2,0,0,0,0l0,0
				c0-0.1,0.1-0.3,0.1-0.4c0,0,0,0,0,0v0c0-0.1,0.1-0.3,0.1-0.4c0,0,0,0,0,0l0-0.1c0-0.1,0.1-0.3,0.1-0.4l0,0l0,0l0.2-0.4
				c0,0,0,0,0-0.1c0,0,0,0,0,0c0.1-0.1,0.1-0.3,0.2-0.4v0c0,0,0,0,0,0c0-0.1,0.1-0.2,0.1-0.4l0-0.1v0l0.2-0.4c0,0,0,0,0,0l0-0.1
				c0.1-0.1,0.1-0.2,0.2-0.4v0l0,0c0.1-0.1,0.1-0.3,0.2-0.4l0,0c0,0,0,0,0,0c0.1-0.2,0.2-0.3,0.3-0.5l0,0l0,0l0.2-0.4c0,0,0,0,0-0.1
				l0.2-0.3l0-0.1c0,0,0,0,0,0c0.1-0.2,0.2-0.3,0.3-0.5c0,0,0,0,0-0.1c0.1-0.2,0.2-0.3,0.3-0.5l0,0c0,0,0,0,0,0l0.3-0.4l0.1-0.1
				l0.3-0.4l0,0c0.1-0.2,0.3-0.4,0.4-0.5l0,0l0,0c0.1-0.1,0.2-0.3,0.3-0.4l0,0l0,0c0.1-0.1,0.2-0.3,0.3-0.4l0,0l0,0
				c0.1-0.1,0.2-0.2,0.3-0.4l0,0l0,0c0.1-0.1,0.2-0.2,0.3-0.4l0,0l0,0l0.3-0.3c0,0,0,0,0,0l0,0c0.1-0.1,0.2-0.2,0.4-0.3l0,0l0.1-0.1
				l0.1-0.1l0.2-0.2l0,0l0,0l0.2-0.1l0.1-0.1l0.1-0.1h0l0.1-0.1l0.1-0.1l0.1-0.1l0.1-0.1l0.1,0l0.1-0.1l0.1-0.1l0.1-0.1l0,0l0,0
				l0.4-0.2l0,0l0.4-0.2l0,0l0.1-0.1c0.1-0.1,0.2-0.1,0.3-0.2h0l0.1-0.1l0.1,0l0.2-0.1l0,0l0.2-0.1c0-0.1,0.1-0.2,0.1-0.3
				c0,0,0-0.1,0-0.1l0.1-0.2v0c0,0,0-0.1,0-0.1c0,0,0-0.1,0.1-0.2c0-0.1,0-0.1,0-0.1l0.1-0.2c0,0,0,0,0-0.1c0,0,0-0.1,0-0.1l0.1-0.2
				l0.1-0.2c0-0.1,0-0.1,0.1-0.2c0,0,0,0,0-0.1c0,0,0,0,0,0c0.1-0.2,0.1-0.4,0.2-0.6l0,0c0,0,0,0,0,0c0.1-0.2,0.2-0.4,0.2-0.6v0l0,0
				c0.1-0.2,0.2-0.4,0.2-0.6c0,0,0,0,0,0c0,0,0,0,0,0l0.3-0.6l0,0l0-0.1c0-0.1,0.1-0.1,0.1-0.2l0.1-0.1l0.1-0.2l0.1-0.1c0,0,0,0,0,0
				l0.2-0.3v0c0.1-0.1,0.1-0.2,0.2-0.4l0,0l0,0l0.3-0.6l0-0.1l0.3-0.6l0,0l0-0.1c0.1-0.1,0.1-0.2,0.2-0.4c0,0,0-0.1,0.1-0.1
				c0.1-0.1,0.2-0.3,0.3-0.4l0-0.1l0.2-0.3l0.1-0.1l0.3-0.4v0c0,0,0,0,0,0c0.1-0.2,0.2-0.3,0.4-0.5c0,0,0,0,0,0
				c0.1-0.2,0.3-0.4,0.4-0.5l0,0l0,0l0.3-0.3l0.1-0.1c0.1-0.1,0.1-0.2,0.2-0.3l0-0.1l0,0l0.2-0.3l0-0.1c0.1-0.1,0.2-0.2,0.2-0.3l0,0
				l0.1-0.1l0.2-0.2l0.1-0.1c0.1-0.1,0.1-0.1,0.2-0.2s0,0,0-0.1l0.1-0.1l0.2-0.2l0.1-0.1l0.2-0.2l0.1-0.1l0,0l0.2-0.2l0.1-0.1
				l0.3-0.3l0,0l0-0.1l0.2-0.2l0.1-0.1l0.2-0.2l0.1,0l0.1-0.1l0.2-0.2l0.1-0.1l0.2-0.2l0.1-0.1l0,0l0.3-0.3l0.1-0.1
				c0.1-0.1,0.2-0.1,0.2-0.2l0,0l0.1-0.1l0.2-0.2l0.1-0.1c0.1-0.1,0.1-0.1,0.2-0.1l0.1-0.1l0,0l0.2-0.1l0.1-0.1l0.2-0.2l0,0l0,0
				l0.3-0.2l0.1-0.1l0.2-0.1l0,0l0.1-0.1l0.2-0.1l0.1-0.1l0.2-0.1l0,0l0.1-0.1l0.2-0.1l0.1-0.1l0.2-0.1l0.1,0l0.1-0.1l0.3-0.2l0.1,0
				l0.1,0l0.3-0.1l0,0l0.3-0.1l0,0l0.1,0c0.1,0,0.2-0.1,0.2-0.1l0.1-0.1l0.1,0l0.1-0.1l0.1,0l0.3-0.1l0,0l0.3-0.1l0.1,0l0.1-0.1
				l0.1,0l0.1,0l0.2-0.1l0.1,0l0.1,0l0.2,0l0.1,0l0.3-0.1l0,0h0.1l0.3-0.1l0.1,0l0.2,0h0l0.1,0l0.2,0l0.1,0l0.1,0h0.1l0.2,0l0.2,0
				h0.2h0.1h0.1h0.2h0.8h0.2h0.1c0.1,0,0.2,0,0.3,0l0,0l0.2,0h0.1l0.2,0h0.1c0.1,0,0.1,0,0.2,0h0l0.1,0l0.2,0l0.1,0l0.2,0l0.1,0
				l0.2,0l0.1,0l0.1,0l0.1,0l0.2,0.1l0.1,0l0.2,0.1l0.1,0l0.2,0.1l0.1,0c0.1,0,0.2,0.1,0.3,0.1l0,0l5.4,3.1L85.6,48c0,0-0.1,0-0.1,0
				l-0.2-0.1l-0.1,0l-0.2-0.1l-0.1,0l-0.2-0.1l-0.1,0l-0.1,0l-0.2,0l-0.1,0l-0.2,0l-0.1,0l-0.2,0l-0.1,0l-0.2,0h-0.1l-0.2,0h-0.1
				L83,46.9l-0.3,0h-0.1h-0.2H82h-0.1h-0.2h-0.2h-0.2l-0.2,0h-0.2l-0.2,0l-0.1,0l-0.2,0l-0.1,0l-0.2,0l-0.1,0c-0.1,0-0.2,0-0.3,0.1
				h-0.1l-0.3,0.1l-0.1,0l-0.2,0.1l-0.1,0l-0.2,0.1l-0.1,0l-0.2,0.1l-0.1,0c-0.1,0-0.2,0.1-0.3,0.1l0,0l-0.3,0.1l-0.1,0L77.5,48
				L77.4,48l-0.2,0.1l-0.1,0l-0.3,0.2h0l-0.3,0.2l-0.1,0c-0.1,0.1-0.2,0.1-0.3,0.2l-0.2,0.1l-0.2,0.1L75.5,49l-0.2,0.1l-0.1,0.1
				L75,49.3l-0.1,0.1l-0.2,0.1l-0.1,0.1l-0.2,0.1l-0.1,0.1L74.1,50l0,0l-0.3,0.2l-0.1,0.1l-0.2,0.1l-0.1,0.1l-0.2,0.2l-0.1,0.1
				l-0.2,0.2L72.8,51l-0.2,0.2l-0.1,0.1l-0.3,0.3l-0.1,0.1L72,51.7l-0.1,0.1L71.7,52l-0.1,0.1l-0.2,0.2l-0.1,0.1
				c-0.1,0.1-0.1,0.1-0.2,0.2L71,52.6l-0.3,0.3L70.7,53l-0.2,0.2l-0.1,0.1l-0.2,0.2l-0.1,0.1L70,53.8l-0.1,0.1l-0.2,0.2l-0.1,0.1
				l-0.2,0.2l-0.1,0.1l-0.3,0.3l0,0.1l-0.2,0.3c0,0,0,0.1-0.1,0.1l-0.2,0.3l-0.1,0.1c-0.1,0.1-0.2,0.2-0.3,0.3l0,0l-0.4,0.6
				c0,0,0,0,0,0c-0.1,0.2-0.2,0.3-0.4,0.5l0,0.1l-0.3,0.4c0,0,0,0.1-0.1,0.1l-0.2,0.3l0,0.1c-0.1,0.1-0.2,0.3-0.3,0.4l-0.1,0.1
				c-0.1,0.1-0.1,0.2-0.2,0.4c0,0,0,0,0,0.1c-0.1,0.2-0.2,0.4-0.3,0.6l0,0.1c-0.1,0.2-0.2,0.4-0.3,0.6l0,0.1
				c-0.1,0.1-0.1,0.2-0.2,0.4v0c-0.1,0.1-0.1,0.2-0.2,0.3l-0.1,0.1L65,61.3c0,0.1,0,0.1-0.1,0.1c0,0.1-0.1,0.1-0.1,0.2
				c0,0.1,0,0.1,0,0.1c-0.1,0.2-0.2,0.4-0.3,0.6l0,0.1c-0.1,0.2-0.2,0.4-0.2,0.6c0,0,0,0.1,0,0.1L64,63.6c0,0,0,0.1,0,0.1
				c-0.1,0.2-0.2,0.4-0.2,0.6c0,0,0,0.1,0,0.1c0,0,0,0.1-0.1,0.2c0,0.1,0,0.1-0.1,0.2c0,0.1,0,0.1-0.1,0.2s0,0.1-0.1,0.2
				c0,0.1,0,0.1-0.1,0.2c0,0.1,0,0.1,0,0.1c0,0,0,0.1-0.1,0.2c0,0.1,0,0.1,0,0.1l-0.1,0.2l0,0.1L63,66.5l0,0l-0.2,0.1l-0.2,0.1
				l-0.1,0l-0.1,0.1L62.1,67L62,67.1c-0.1,0.1-0.2,0.1-0.4,0.2l0,0c-0.1,0.1-0.2,0.2-0.3,0.2l-0.1,0.1l-0.1,0.1L61,67.7l-0.1,0.1
				l-0.1,0.1L60.7,68l-0.1,0.1l-0.1,0.1l-0.1,0.1l-0.1,0.1l-0.2,0.1l0,0l-0.2,0.2l-0.1,0.1l-0.2,0.1l-0.4,0.3l0,0
				c-0.1,0.1-0.2,0.2-0.3,0.3l-0.1,0.1L58.4,70l-0.1,0.1c-0.1,0.1-0.2,0.2-0.3,0.4l0,0c-0.1,0.1-0.2,0.3-0.3,0.4l0,0
				c-0.1,0.1-0.2,0.3-0.3,0.4l0,0c-0.1,0.2-0.3,0.4-0.4,0.5l0,0l-0.3,0.4c0,0,0,0.1-0.1,0.1c-0.1,0.1-0.2,0.2-0.3,0.4c0,0,0,0,0,0.1
				c-0.1,0.2-0.2,0.3-0.3,0.5l0,0.1c-0.1,0.2-0.2,0.3-0.3,0.5c0,0,0,0.1,0,0.1c-0.1,0.1-0.1,0.2-0.2,0.3l0,0.1l-0.2,0.4l0,0.1
				c-0.1,0.2-0.2,0.3-0.3,0.5c0,0,0,0.1,0,0.1l-0.2,0.5l0,0.1c-0.1,0.1-0.1,0.2-0.2,0.4c0,0,0,0.1,0,0.1c-0.1,0.1-0.1,0.3-0.2,0.4
				c0,0,0,0.1,0,0.1L54,77.1c0,0,0,0,0,0.1c-0.1,0.1-0.1,0.3-0.2,0.4c0,0,0,0.1,0,0.1c-0.1,0.1-0.1,0.3-0.1,0.4l0,0
				c0,0.1-0.1,0.3-0.1,0.4c0,0,0,0.1,0,0.1c0,0.1-0.1,0.3-0.1,0.4c0,0,0,0.1,0,0.1c0,0.1-0.1,0.3-0.1,0.4c0,0,0,0,0,0
				c0,0.1-0.1,0.3-0.1,0.4c0,0,0,0,0,0.1c0,0.1-0.1,0.3-0.1,0.4c0,0,0,0.1,0,0.1c0,0.1-0.1,0.3-0.1,0.4c0,0,0,0,0,0
				c0,0.1,0,0.3-0.1,0.4v0.1c0,0.1,0,0.3,0,0.4c0,0,0,0.1,0,0.1l0,0.4c0,0,0,0,0,0c0,0.1,0,0.3,0,0.4c0,0,0,0.1,0,0.1
				c0,0.1,0,0.3,0,0.4v0.1v0.4v0c0,0.1,0,0.3,0,0.4c0,0,0,0,0,0.1v0.1c0,0,0,0.1,0,0.1v0.1c0,0,0,0.1,0,0.1c0,0,0,0.1,0,0.1
				s0,0.1,0,0.1l0,0.1c0,0,0,0.1,0,0.1c0,0,0,0.1,0,0.1s0,0.1,0,0.1l0,0.2c0,0,0,0,0,0.1c0,0.1,0,0.2,0.1,0.2c0,0,0,0,0,0.1
				c0,0.1,0,0.1,0,0.2l0,0.1c0,0.1,0,0.1,0.1,0.2l0,0.1c0,0.1,0,0.1,0.1,0.2s0,0,0,0l0.1,0.2l0,0.1c0,0.1,0.1,0.1,0.1,0.2v0
				c0,0,0,0.1,0,0.1l0,0.1l0,0.1c0,0,0,0.1,0,0.1s0,0,0,0.1l0,0.1c0,0,0,0,0,0.1l0.1,0.1l0.1,0.2l0,0l0.1,0.1c0,0,0,0,0,0.1l0.1,0.1
				l0,0.1l0.1,0.1l0,0l0.1,0.1l0,0l0.1,0.1l0.1,0l0.1,0.1l0,0l0.2,0.1c0.2,0.1,0.3,0.2,0.5,0.3L50,86.3c-0.2-0.1-0.3-0.2-0.5-0.3
				l-0.2-0.1l0,0l-0.1-0.1l-0.1,0l-0.1-0.1l0,0c0,0-0.1-0.1-0.1-0.1l0,0l-0.1-0.1l0-0.1l-0.1-0.1c0,0,0,0,0-0.1l-0.1-0.1l0,0
				c0-0.1-0.1-0.1-0.1-0.2l0,0c0,0,0,0,0-0.1l0-0.1c0,0,0-0.1,0-0.1c0,0,0,0,0-0.1l0-0.1l0-0.1c0,0,0-0.1,0-0.1l0-0.1l0,0v0
				c0-0.1-0.1-0.1-0.1-0.2c0,0,0,0,0-0.1c0-0.1-0.1-0.2-0.1-0.2l0,0v0c0-0.1,0-0.1-0.1-0.2c0-0.1,0-0.1,0-0.1c0,0,0-0.1-0.1-0.2
				c0-0.1,0,0,0,0c0,0,0,0,0,0c0-0.1,0-0.1,0-0.2c0,0,0,0,0-0.1c0-0.1,0-0.2-0.1-0.2l0,0c0,0,0,0,0-0.1c0-0.1,0-0.1,0-0.2
				c0-0.1,0-0.1,0-0.1c0,0,0-0.1,0-0.1v0c0,0,0-0.1,0-0.1c0,0,0-0.1,0-0.1c0,0,0-0.1,0-0.1c0,0,0-0.1,0-0.1c0,0,0,0,0,0v-0.1v-0.1
				c0,0,0-0.1,0-0.1v-0.1v-0.1c0-0.1,0-0.3,0-0.4v0c0-0.1,0-0.3,0-0.4L47.3,80.3z"/>
			<path class="st26" d="M52.7,83.4c0,0.1,0,0.3,0,0.4v0c0,0.1,0,0.1,0,0.2c0,0.1,0,0.1,0,0.2c0,0.1,0,0.2,0,0.3c0,0.1,0,0.1,0,0.2
				c0,0.1,0,0.1,0,0.1c0,0,0,0.1,0,0.1l0,0.1c0,0,0,0,0,0c0,0,0,0.1,0,0.1c0,0.1,0,0.1,0,0.2l0,0.2c0,0,0,0,0,0.1l0.1,0.2l0,0.1
				c0,0.1,0,0.1,0,0.2c0,0,0,0,0,0c0,0,0,0.1,0,0.1s0,0.1,0,0.1c0,0,0,0,0,0.1l0,0.1c0,0.1,0.1,0.2,0.1,0.3c0,0,0,0.1,0,0.1
				c0,0,0,0,0,0c0,0,0,0.1,0,0.1l0,0.1l0,0.1v0l0,0.1c0.1,0.2,0.2,0.3,0.2,0.5c0.1,0.1,0.1,0.2,0.2,0.3l0.1,0.2c0,0,0,0,0,0.1
				l0.1,0.1l0,0.1l0.1,0.1c0,0,0.1,0.1,0.1,0.1l0.1,0.1l0,0c0,0,0.1,0.1,0.1,0.1l0.1,0l0.1,0.1l0,0l0.1,0.1l0.1,0.1l0.1,0.1l0.1,0
				l0.1,0.1l0.1,0l0.1,0.1c0,0,0,0,0,0l0,0c1.7,1,4.1,0.9,6.7-0.7l10.8-6.2l8.1-4.7l2.7-1.5l13.2-7.6c3.6-2.1,6.5-6.9,6.9-11.1
				c0-0.3,0-0.6,0-0.9c0-2.2-0.8-3.7-2-4.5l-0.1-0.1l0,0h0l-0.1,0l-0.1,0l-0.1,0h0l0,0l-0.1,0h0c-0.1,0-0.1,0-0.2-0.1h0l-0.1,0h0
				l-0.1,0l-0.2,0l-0.2,0h0h-0.2h-0.5l-0.2,0h-0.1h-0.1h-0.1h-0.1l-0.1,0l-0.1,0l-0.1,0l0,0c-0.1,0-0.2,0-0.3,0.1l0,0l-0.1,0l-0.1,0
				l-0.1,0l-0.1,0l-0.1,0l0,0h0c-0.1,0-0.2,0.1-0.3,0.1l0,0l-0.1,0.1c-0.1,0-0.1,0-0.2,0.1l-0.1,0.1l-0.1,0.1
				c-0.1,0-0.1,0.1-0.2,0.1c0,0-0.1,0-0.1,0.1l-0.1,0.1l-0.1,0.1L96.4,53c-0.2,0.1-0.4,0.2-0.5,0.4l-0.3,0.2c-0.8-1.4-2.4-2.3-4-2.3
				h-0.4H91h-0.1h-0.1h-0.1h-0.1c-0.1,0-0.2,0-0.3,0l-0.1,0l-0.1,0l-0.2,0l-0.2,0l-0.1,0l-0.1,0c-0.2,0-0.3,0.1-0.5,0.2
				c-0.3-0.8-0.7-1.5-1.2-2.1c-0.4-0.5-0.9-1-1.5-1.4c-0.1-0.1-0.3-0.2-0.4-0.3l-0.1-0.1l-0.1-0.1l-0.1-0.1l-0.1,0l-0.1,0l-0.2-0.1
				L85,47.3l0,0l-0.1,0c0,0-0.1,0-0.1,0l-0.1,0l-0.1,0c-0.1,0-0.2-0.1-0.3-0.1l-0.2,0l-0.1,0l-0.2,0h-0.1h0l-0.1,0l-0.1,0h0l-0.2,0
				c0,0,0,0-0.1,0l-0.3,0l-0.3,0h-0.1h-0.2h-0.5c-0.1,0-0.1,0-0.2,0l0,0h-0.2h-0.2h-0.1l-0.2,0l-0.2,0l-0.1,0l-0.2,0l-0.1,0l-0.2,0
				c-0.2,0-0.4,0.1-0.6,0.1c-0.1,0-0.1,0-0.2,0c-0.1,0-0.2,0.1-0.3,0.1c-0.1,0-0.2,0.1-0.3,0.1l-0.1,0l-0.2,0.1c0,0-0.1,0-0.1,0
				l-0.2,0.1l-0.1,0.1l0,0l-0.2,0.1l-0.1,0L77.5,48L77.4,48l-0.1,0.1c-0.1,0.1-0.3,0.1-0.4,0.2l0,0c0,0-0.1,0-0.1,0
				s-0.1,0.1-0.2,0.1l-0.1,0.1l-0.1,0L76,48.8l-0.2,0.1L75.7,49L75.5,49l-0.2,0.1l-0.1,0.1l-0.1,0.1L75,49.4l-0.3,0.2
				c0,0-0.1,0-0.1,0.1c-0.3,0.2-0.5,0.4-0.8,0.6l-0.1,0.1l-0.2,0.1l0,0c-0.1,0.1-0.2,0.1-0.2,0.2l-0.1,0l-0.1,0.1L73,50.9l-0.3,0.3
				l-0.1,0.1l-0.3,0.2l-0.1,0.1L72,51.8l-0.1,0.1L71.7,52l-0.1,0.1l-0.2,0.2l-0.1,0.1l-0.2,0.2L71,52.7c-0.1,0.1-0.2,0.2-0.3,0.3
				c-0.3,0.3-0.6,0.6-0.9,1l-0.1,0.2c-0.1,0.1-0.2,0.3-0.3,0.4l-0.3,0.4c-0.1,0.1-0.2,0.2-0.3,0.4c-0.1,0.1-0.1,0.2-0.2,0.3
				s-0.1,0.1-0.1,0.1l-0.1,0.2c-0.2,0.3-0.5,0.7-0.7,1c-0.1,0.1-0.1,0.2-0.2,0.3l-0.1,0.1c-0.1,0.1-0.2,0.2-0.2,0.4
				c-0.1,0.2-0.3,0.4-0.4,0.6l-0.2,0.3c0,0-0.1,0.1-0.1,0.1l-0.2,0.3c-0.1,0.1-0.1,0.2-0.2,0.4L66,59.5c-0.2,0.4-0.4,0.8-0.6,1.1
				l-0.1,0.3c-0.1,0.3-0.3,0.5-0.4,0.8c0,0.1-0.1,0.2-0.1,0.3c0,0.1-0.1,0.2-0.1,0.3c0,0,0,0.1,0,0.1c0,0.1-0.1,0.2-0.1,0.3
				l-0.1,0.3c-0.1,0.3-0.2,0.5-0.3,0.8c-0.1,0.2-0.1,0.4-0.2,0.6c-0.1,0.4-0.3,0.8-0.4,1.2c0,0.1,0,0.1-0.1,0.2L63.2,66l0,0.1l0,0.1
				l-0.1,0.2l-0.2,0.1c-0.1,0-0.1,0.1-0.2,0.1l-0.1,0c-0.1,0-0.1,0.1-0.2,0.1L62.2,67l-0.2,0.1l-0.2,0.2l0,0l-0.2,0.1l-0.2,0.1
				l-0.1,0.1L61,67.7c-0.1,0.1-0.2,0.2-0.3,0.2l-0.2,0.1L60,68.5l-0.2,0.2c-0.1,0.1-0.3,0.2-0.4,0.4l-0.2,0.2l-0.1,0.1L59,69.4
				l-0.2,0.2l-0.2,0.3L58.5,70c-0.1,0.2-0.3,0.3-0.4,0.5l-0.2,0.2l-0.2,0.2c-0.1,0.1-0.1,0.2-0.2,0.2c-0.3,0.4-0.6,0.7-0.9,1.1
				l-0.1,0.1l0,0l-0.2,0.3l-0.2,0.2l-0.1,0.2c-0.1,0.1-0.1,0.2-0.2,0.3l-0.1,0.2c-0.1,0.1-0.1,0.2-0.2,0.3L55.5,74
				c-0.1,0.1-0.2,0.3-0.2,0.4l-0.1,0.2l0,0.1L55,74.9l0,0l-0.1,0.2c0,0,0,0,0,0.1c0,0.1-0.1,0.1-0.1,0.2s-0.1,0.2-0.1,0.3
				c0,0.1-0.1,0.3-0.2,0.4c0,0,0,0,0,0l-0.1,0.2c0,0.1-0.1,0.1-0.1,0.2s0,0.1,0,0.1c0,0.1-0.1,0.2-0.1,0.3c0,0,0,0,0,0.1
				c0,0.1-0.1,0.2-0.1,0.3l-0.1,0.2l-0.1,0.2c0,0.1,0,0.1-0.1,0.2s-0.1,0.2-0.1,0.3c0,0.1,0,0.1-0.1,0.2c0,0.1,0,0.1,0,0.1
				c0,0,0,0,0,0c0,0.1-0.1,0.3-0.1,0.4c0,0,0,0.1,0,0.1c0,0.2-0.1,0.3-0.1,0.5c0,0.2-0.1,0.3-0.1,0.4c0,0.1,0,0.2-0.1,0.3
				c0,0.1,0,0.1,0,0.2c0,0,0,0.1,0,0.1c0,0.1,0,0.1,0,0.2c0,0.1,0,0.2,0,0.2c0,0.1,0,0.3-0.1,0.4s0,0.2,0,0.3l0,0.2
				c0,0.2,0,0.3,0,0.5c0,0.1,0,0.1,0,0.2c0,0.1,0,0.1,0,0.2c0,0.1,0,0.2,0,0.2s0,0.1,0,0.2L52.7,83.4z M88.1,53.9l-1.7-1.5l-0.6-1.5
				c-0.2-0.6-0.5-1.1-0.8-1.6l0.1,0.1l0.1,0.1c0.1,0.1,0.2,0.1,0.3,0.2c0.4,0.3,0.8,0.7,1.1,1.1c0.3,0.4,0.6,0.9,0.8,1.4
				c0.1,0.1,0.1,0.2,0.1,0.3L88.1,53.9z M95.1,56.2l-1.7-1.5l-0.9-1.5c0.6,0.2,1.1,0.6,1.4,1.1c0.1,0.1,0.1,0.2,0.2,0.3L95.1,56.2z"
				/>
			
				<linearGradient id="SVGID_17_" gradientUnits="userSpaceOnUse" x1="57.8408" y1="81.4208" x2="105.5339" y2="81.4208" gradientTransform="matrix(-1 0 0 -1 159.96 150)">
				<stop  offset="0" style="stop-color:#C7EAF7"/>
				<stop  offset="0.22" style="stop-color:#F9D9E8"/>
				<stop  offset="0.56" style="stop-color:#5DC0E9"/>
				<stop  offset="0.89" style="stop-color:#F9D9E8"/>
				<stop  offset="1" style="stop-color:#C7EAF7"/>
			</linearGradient>
			<path class="st27" d="M102.1,56.7c0,0.2,0,0.5,0,0.7c-0.3,3.7-3,8-6,9.8L61.3,87.3c-1,0.6-2.2,1-3.4,1.1c-0.6,0-1.1-0.1-1.6-0.4
				l-0.1,0l0,0h0l0,0l0,0l0,0l-0.1,0l0,0l0,0l0,0l0,0l-0.1-0.1l0,0l-0.1-0.1l-0.1-0.1l0,0l0,0l-0.1-0.1l-0.1-0.1l0,0l-0.1-0.1l0,0
				c0,0-0.1-0.1-0.1-0.1s-0.1-0.1-0.1-0.2l-0.1-0.2c0,0,0-0.1,0-0.1l0-0.1L55,86.4v0v0l0-0.1l-0.1-0.2l0,0c0,0,0-0.1,0-0.1l0-0.1
				l0-0.1l0-0.1l0,0l0-0.1l0-0.2v0l0-0.1l0-0.1v0c0,0,0-0.1,0-0.1l0,0v-0.1l0-0.1v-0.1v-0.1c0-0.1,0-0.1,0-0.2s0-0.2,0-0.3v-0.1
				c0,0,0-0.1,0-0.1v0v-0.2c0-0.1,0-0.2,0-0.3v-0.3c0-0.1,0-0.1,0-0.2c0-0.1,0-0.2,0-0.2v0c0,0,0-0.1,0-0.1v0c0-0.1,0-0.3,0-0.4
				l0-0.2c0-0.1,0-0.2,0-0.2v0c0-0.1,0-0.2,0-0.3v0c0-0.1,0-0.1,0-0.2l0-0.2v0v0c0-0.1,0-0.1,0-0.2v0c0-0.1,0-0.1,0-0.2v-0.1
				c0-0.1,0.1-0.2,0.1-0.4c0-0.1,0.1-0.3,0.1-0.4c0,0,0-0.1,0-0.1l0.1-0.3l0-0.1l0-0.1v0l0.1-0.2c0-0.1,0.1-0.2,0.1-0.2l0-0.1
				c0,0,0-0.1,0-0.1v0c0-0.1,0-0.1,0.1-0.2v-0.1l0-0.2l0-0.1c0-0.1,0-0.1,0.1-0.2c0,0,0-0.1,0-0.1l0.1-0.3l0,0l0.1-0.3
				c0,0,0.1-0.2,0.1-0.2l0,0c0-0.1,0.1-0.2,0.1-0.3v0c0-0.1,0.1-0.2,0.1-0.3l0-0.1l0.1-0.1l0-0.1v0l0,0l0.1-0.2l0-0.1l0.1-0.2l0,0
				l0.1-0.2l0.2-0.4c0,0,0.2-0.4,0.3-0.5l0.1-0.1l0,0v0c0-0.1,0.1-0.1,0.1-0.2c0,0,0.1-0.1,0.1-0.1l0,0c0-0.1,0.1-0.1,0.1-0.2
				l0.1-0.1c0.1-0.1,0.1-0.1,0.2-0.2l0.1-0.1c0.3-0.4,0.5-0.7,0.8-1v0l0.2-0.2l0.3-0.4c0.1-0.1,0.3-0.3,0.4-0.4l0.2-0.1l0.1-0.1
				l0.1-0.1l0.1-0.1l0,0c0,0,0.1-0.1,0.1-0.1l0.1-0.1l0.1-0.1c0.1-0.1,0.2-0.2,0.4-0.3l0.2-0.2c0.1-0.1,0.3-0.2,0.4-0.3l0.2-0.1
				l0.3-0.2h0l0.1-0.1l0.2-0.1l0.2-0.1l0.1-0.1l0.1-0.1l0.2-0.1h0l0.2-0.1c0.1,0,0.1-0.1,0.2-0.1l0.2-0.1l0.1-0.1l0.1,0l0.1,0
				l0.2-0.1l0.7-0.3l0.2-0.8l0.1-0.2l0.1-0.3c0-0.1,0.1-0.2,0.1-0.3l0-0.1c0,0,0-0.1,0-0.1v0c0.1-0.4,0.2-0.7,0.4-1.1
				c0.1-0.2,0.1-0.4,0.2-0.6c0.1-0.2,0.2-0.5,0.3-0.7l0.1-0.2l0,0c0-0.1,0.1-0.2,0.1-0.2l0,0v0l0-0.1l0.1-0.3c0-0.1,0.1-0.2,0.1-0.3
				v0c0.1-0.2,0.2-0.5,0.3-0.7l0.1-0.2c0.2-0.4,0.4-0.7,0.6-1.1c0.1-0.1,0.2-0.3,0.2-0.3l0.1-0.3l0-0.1l0.1-0.2l0,0l0-0.1l0.2-0.3
				l0.3-0.5v0c0.1-0.1,0.1-0.2,0.2-0.3l0.1-0.2c0-0.1,0.1-0.1,0.1-0.2l0,0c0.2-0.3,0.4-0.6,0.7-0.9l0.2-0.3l0.2-0.2l0,0l0.3-0.3
				l0.3-0.3l0,0c0.1-0.1,0.2-0.2,0.3-0.3l0.2-0.2c0.3-0.3,0.6-0.6,0.8-0.9c0.1-0.1,0.2-0.2,0.2-0.2l0.1-0.1l0.2-0.2l0,0l0.1-0.1
				l0.2-0.2l0.1-0.1l0.3-0.2l0.2-0.2l0.1,0l0,0l0.1-0.1l0.2-0.1l0.1-0.1l0.3-0.2l0.2-0.2l0.1-0.1l0,0l0.1-0.1l0.1-0.1l0.1-0.1l0,0
				l0.1-0.1l0.1,0l0,0c0.2-0.2,0.5-0.3,0.7-0.5l0.1-0.1l0.3-0.2l0.2-0.1l0.1-0.1l0.1-0.1l0.1-0.1l0,0c0,0,0.1,0,0.1-0.1l0.3-0.2
				c0.1-0.1,0.2-0.1,0.3-0.2l0.1,0h0l0.1,0l0,0l0,0l0.1-0.1l0,0l0.1-0.1l0.3-0.2l0.1-0.1h0l0.1,0l0.2-0.1l0.1,0l0.2-0.1l0.3-0.1l0,0
				l0.1,0l0.2-0.1l0.1,0h0h0l0.2-0.1h0c0.1,0,0.1,0,0.2-0.1H80H80l0.1,0c0.1,0,0.3-0.1,0.5-0.1l0.2,0l0.3,0h0h0h0.1h0.1h0.1h0.1h0.1
				h0.1h0.1H82h0.6h0.3l0.2,0l0.1,0l0.1,0h0.1h0h0l0.1,0l0,0l0.1,0l0.1,0l0.1,0l0.1,0l0.1,0h0l0.1,0l0.1,0l0.1,0l0,0h0l0.3,0.1l0,0
				l0.1,0h0l0.1,0l0,0l0.1,0.1l0.1,0.1c0.1,0.1,0.2,0.1,0.3,0.2c0.4,0.3,0.8,0.7,1.1,1.1c0.3,0.4,0.6,0.9,0.8,1.4
				c0.1,0.1,0.1,0.2,0.1,0.3L88,54l1.6-0.5c0.1,0,0.2-0.1,0.4-0.1l0.1,0l0.1,0h0l0.1,0h0l0.1,0l0.1,0l0.1,0l0.1,0h0.1h0h0.1H91h0.2
				h0h0.3c0.3,0,0.7,0.1,1,0.2c0.6,0.2,1.1,0.6,1.4,1.1c0.1,0.1,0.1,0.2,0.2,0.3l1,1.7l1.5-1.2l0.2-0.1l0,0c0.1-0.1,0.3-0.2,0.4-0.3
				l0.1-0.1l0.1,0l0.1-0.1l0,0h0l0,0l0.2-0.1l0.1,0l0,0l0,0l0.1,0l0.1-0.1l0,0l0.1,0l0.1-0.1l0.1,0l0.1,0h0h0l0.1,0l0.1,0l0.3-0.1
				l0,0h0l0.2,0l0.2,0h0.1h0.1h0.4h0.1h0.1c0,0,0.1,0,0.1,0h0h0h0l0.1,0l0,0l0.1,0l0.1,0l0.1,0.1C101.7,54.2,102.1,55.3,102.1,56.7z
				"/>
			<path class="st28" d="M84.9,49.3c0.3,0.5,0.6,1,0.8,1.6l0.6,1.5l1.7,1.5l-0.6-1.5c0-0.1-0.1-0.2-0.1-0.3
				c-0.2-0.5-0.5-0.9-0.8-1.4c-0.3-0.4-0.7-0.8-1.1-1.1c-0.1-0.1-0.2-0.1-0.3-0.2L85,49.3L84.9,49.3z"/>
			<path class="st28" d="M92.5,53.2l0.9,1.5l1.7,1.5l-1-1.7c-0.1-0.1-0.1-0.2-0.2-0.3C93.6,53.7,93.1,53.4,92.5,53.2z"/>
			<path class="st28" d="M54.5,83.3v0.1c0,0.1,0,0.2,0,0.3V84v0c0,0,0,0.1,0,0.1v0c0,0.1,0,0.2,0,0.3l0,0.2v0.1v0.1v0.1v0.1l0,0
				c0,0.1,0,0.1,0,0.1v0c0,0,0,0.1,0,0.1l0,0.1v0l0,0.2l0,0.1l0,0l0,0.1l0,0.1l0,0.1c0,0,0,0.1,0,0.1l0,0l0.1,0.2l0,0.1v0v0l0.1,0.1
				l0,0.1c0,0,0,0.1,0,0.1l0.1,0.2c0,0.1,0.1,0.1,0.1,0.2l0.1,0.1l0,0l0.1,0.1l0,0l0.1,0.1l0.1,0.1l0,0l0,0l0.1,0.1l0.1,0.1l0,0
				l0.1,0.1l0,0l0,0l0,0l0,0l0.1,0l0,0l0,0l0,0h0l0,0l0.1,0c0.5,0.3,1,0.4,1.6,0.4c1.2-0.1,2.4-0.4,3.4-1.1l34.9-20
				c3.1-1.8,5.7-6,6-9.8c0-0.2,0-0.5,0-0.7c0-1.5-0.4-2.5-1.2-3l-0.1-0.1l-0.1,0l-0.1,0l0,0l-0.1,0h0h0h0c0,0-0.1,0-0.1,0h-0.1h-0.1
				h-0.4h-0.1h-0.1l-0.2,0l-0.2,0h0h0L99,53.7l-0.1,0l-0.1,0h0h0l-0.1,0l-0.1,0l-0.1,0.1l-0.1,0l0,0L98.2,54l-0.1,0l0,0l0,0l-0.1,0
				l-0.2,0.1l0,0h0l0,0l-0.1,0.1l-0.1,0l-0.1,0.1c-0.1,0.1-0.3,0.2-0.4,0.3l0,0l-0.2,0.1l-1.5,1.2l-1.7-1.5l-0.9-1.5
				c-0.3-0.1-0.6-0.2-1-0.2h-0.3h-0.1H91H91h-0.1h0h-0.1l-0.1,0l-0.1,0l-0.1,0l-0.1,0h0l-0.1,0h0h-0.1l-0.1,0
				c-0.2,0-0.3,0.1-0.4,0.1l-1.6,0.5l-1.7-1.4l-0.6-1.5c-0.2-0.6-0.5-1.1-0.8-1.6l0,0l-0.1-0.1h0l-0.1,0l0,0L84.3,49h0l0,0l-0.1,0
				l-0.1,0l-0.1,0h0l-0.1,0l-0.1,0l-0.1,0l-0.1,0l-0.1,0l0,0l-0.1,0h0h0h-0.1l-0.1,0l-0.1,0l-0.2,0h-0.3H82h-0.2h-0.1h-0.1h-0.1
				h-0.1h-0.1h0h-0.1h0h0l-0.3,0l-0.2,0c-0.2,0-0.3,0.1-0.5,0.1l-0.1,0H80H80c-0.1,0-0.1,0-0.2,0.1h0l-0.2,0.1h0h0l-0.1,0l-0.2,0.1
				l-0.1,0l0,0l-0.3,0.1l-0.2,0.1l-0.1,0l-0.2,0.1l-0.1,0h0L78,49.7l-0.3,0.2l-0.1,0.1l0,0L77.4,50l0,0l0,0l-0.1,0h0l-0.1,0
				c-0.1,0.1-0.2,0.1-0.3,0.2l-0.3,0.2c0,0-0.1,0-0.1,0.1l0,0c0,0-0.1,0.1-0.1,0.1l-0.1,0.1l-0.1,0.1L76,50.8L75.7,51l-0.1,0.1
				c-0.2,0.2-0.4,0.3-0.7,0.5l0,0l-0.1,0l-0.1,0.1l0,0l-0.1,0.1l-0.1,0.1L74.4,52l0,0l-0.1,0.1l-0.2,0.2l-0.3,0.2l-0.1,0.1l-0.2,0.1
				l-0.1,0.1v0l0,0L73.2,53l-0.3,0.2l-0.1,0.1l-0.3,0.3l0,0l0,0l-0.2,0.2L72.2,54L72,54.2c-0.3,0.3-0.6,0.6-0.8,0.9L71,55.3
				c-0.1,0.1-0.2,0.2-0.3,0.3l0,0L70.4,56l-0.3,0.3l0,0L70,56.6l-0.2,0.3c-0.2,0.3-0.5,0.6-0.7,0.9l0,0L69,58l-0.1,0.2
				c-0.1,0.1-0.1,0.2-0.2,0.3v0L68.3,59l-0.2,0.3l0,0.1l0,0l-0.1,0.2l0,0.1L67.7,60l-0.2,0.3c-0.2,0.4-0.4,0.7-0.6,1.1l-0.1,0.2
				c-0.1,0.3-0.2,0.5-0.3,0.7v0c0,0.1-0.1,0.2-0.1,0.3L66.2,63l0,0.1v0l0,0c0,0.1-0.1,0.2-0.1,0.2l0,0L66,63.6
				c-0.1,0.2-0.2,0.5-0.3,0.7c-0.1,0.2-0.1,0.4-0.2,0.6c-0.1,0.4-0.3,0.7-0.4,1.1v0c0,0,0,0.1,0,0.1v0.1c0,0.1-0.1,0.2-0.1,0.3
				l-0.1,0.3L64.8,67l-0.2,0.8l-0.7,0.3l-0.2,0.1l-0.1,0l-0.1,0l-0.1,0.1l-0.3,0.1c-0.1,0-0.1,0.1-0.2,0.1l-0.2,0.1h0l-0.2,0.1
				l-0.1,0.1l-0.1,0.1L62.3,69l-0.2,0.1c0,0-0.1,0.1-0.1,0.1h0l-0.3,0.2l-0.2,0.1c-0.1,0.1-0.3,0.2-0.4,0.3L60.9,70
				c-0.1,0.1-0.2,0.2-0.4,0.3l-0.1,0.1l-0.1,0.1c-0.1,0-0.1,0.1-0.1,0.1l0,0c-0.1,0-0.1,0.1-0.1,0.1l-0.1,0.1l-0.1,0.2l-0.1,0.1
				c-0.1,0.1-0.3,0.3-0.4,0.4L59,72l-0.2,0.2v0c-0.3,0.3-0.5,0.7-0.8,1l-0.1,0.1c-0.1,0.1-0.1,0.1-0.2,0.2l-0.1,0.1
				c0,0.1-0.1,0.1-0.1,0.2l0,0c0,0-0.1,0.1-0.1,0.1c0,0.1-0.1,0.1-0.1,0.2v0l0,0l-0.1,0.1C57.2,74.6,57,75,57,75
				c-0.1,0.1-0.1,0.2-0.2,0.4l-0.1,0.2l0,0l-0.2,0.2l0,0L56.4,76l0,0v0l0,0.1l-0.1,0.1l0,0.1c0,0.1-0.1,0.2-0.1,0.3v0
				c-0.1,0.1-0.1,0.2-0.1,0.3l0,0l-0.1,0.2l-0.1,0.3l0,0l-0.1,0.3l0,0.1c0,0.1,0,0.1-0.1,0.2l-0.1,0.2l0,0.1v0.1
				c0,0.1,0,0.1-0.1,0.2v0c0,0,0,0.1,0,0.1l0,0.1l-0.1,0.2L55.2,79v0l0,0.1l0,0.1l-0.1,0.3c0,0,0,0.1,0,0.1c0,0.1-0.1,0.3-0.1,0.4
				s-0.1,0.2-0.1,0.4v0.1c0,0.1,0,0.1,0,0.2v0c0,0.1,0,0.1,0,0.2v0v0l0,0.2c0,0.1,0,0.1,0,0.2v0c0,0.1,0,0.2,0,0.3v0
				c0,0.1,0,0.2,0,0.2l0,0.2c0,0.1,0,0.3,0,0.4v0c0,0,0,0.1,0,0.1v0c0,0,0,0.2,0,0.2s0,0.1,0,0.2v0.2L54.5,83.3z"/>
			<path class="st29" d="M54.5,83.3v0.1c0,0.1,0,0.2,0,0.3V84v0c0,0,0,0.1,0,0.1v0c0,0.1,0,0.2,0,0.3l0,0.2v0.1v0.1v0.1v0.1l0,0
				c0,0.1,0,0.1,0,0.1v0c0,0,0,0.1,0,0.1l0,0.1v0l0,0.2l0,0.1l0,0l0,0.1l0,0.1l0,0.1c0,0,0,0.1,0,0.1l0,0l0.1,0.2l0,0.1v0v0l0.1,0.1
				l0,0.1c0,0,0,0.1,0,0.1c0.4,0.1,0.7,0.2,1.1,0.2c1.2-0.1,2.4-0.4,3.4-1.1l34.7-20.1c3.1-1.8,5.7-6,6-9.8c0-0.2,0-0.5,0-0.7
				c0-0.6-0.1-1.1-0.2-1.7h-0.3h-0.1h-0.1l-0.2,0l-0.2,0h0h0l-0.3,0.1l-0.1,0l-0.1,0h0h0l-0.1,0l-0.1,0l-0.1,0.1l-0.1,0l0,0
				l-0.1,0.1L98,54l0,0l0,0l-0.1,0l-0.2,0.1l0,0h0l0,0l-0.1,0.1l-0.1,0l-0.1,0.1c-0.1,0.1-0.3,0.2-0.4,0.3l0,0l-0.2,0.1l-1.5,1.2
				l-1.7-1.5l-0.9-1.5c-0.3-0.1-0.6-0.2-1-0.2h-0.3H91h0H91h-0.1h0h-0.1l-0.1,0l-0.1,0l-0.1,0l-0.1,0h0l-0.1,0h0h-0.1L90,53
				c-0.2,0-0.3,0.1-0.4,0.1l-1.6,0.5l-1.7-1.3l-0.6-1.5c-0.2-0.6-0.5-1.1-0.8-1.6l0,0l-0.1-0.1h0l-0.1,0l0,0L84.3,49h0l0,0l-0.1,0
				l-0.1,0l-0.1,0h0l-0.1,0l-0.1,0l-0.1,0l-0.1,0l-0.1,0l0,0l-0.1,0h0h0h-0.1l-0.1,0l-0.1,0l-0.2,0h-0.3H82h-0.2h-0.1h-0.1h-0.1
				h-0.1h-0.1h0h-0.1h0h0l-0.3,0l-0.2,0c-0.2,0-0.3,0.1-0.5,0.1l-0.1,0H80H80c-0.1,0-0.1,0-0.2,0.1h0l-0.2,0.1h0h0l-0.1,0l-0.2,0.1
				l-0.1,0l0,0l-0.3,0.1l-0.2,0.1l-0.1,0l-0.2,0.1l-0.1,0h0L78,49.7l-0.3,0.2l-0.1,0.1l0,0L77.4,50l0,0l0,0l-0.1,0h0l-0.1,0
				c-0.1,0.1-0.2,0.1-0.3,0.2l-0.3,0.2c0,0-0.1,0-0.1,0.1l0,0c0,0-0.1,0.1-0.1,0.1l-0.1,0.1l-0.1,0.1L76,50.8L75.7,51l-0.1,0.1
				c-0.2,0.2-0.4,0.3-0.7,0.5l0,0l-0.1,0l-0.1,0.1l0,0l-0.1,0.1l-0.1,0.1L74.4,52l0,0l-0.1,0.1l-0.2,0.2l-0.3,0.2l-0.1,0.1l-0.2,0.1
				l-0.1,0.1v0l0,0L73.2,53l-0.3,0.2l-0.1,0.1l-0.3,0.3l0,0l0,0l-0.2,0.2L72.2,54L72,54.2c-0.3,0.3-0.6,0.6-0.8,0.9L71,55.3
				c-0.1,0.1-0.2,0.2-0.3,0.3l0,0L70.4,56l-0.3,0.3l0,0L70,56.6l-0.2,0.3c-0.2,0.3-0.5,0.6-0.7,0.9l0,0L69,58l-0.1,0.2
				c-0.1,0.1-0.1,0.2-0.2,0.3v0L68.3,59l-0.2,0.3l0,0.1l0,0l-0.1,0.2l0,0.1L67.7,60l-0.2,0.3c-0.2,0.4-0.4,0.7-0.6,1.1l-0.1,0.2
				c-0.1,0.3-0.2,0.5-0.3,0.7v0c0,0.1-0.1,0.2-0.1,0.3L66.2,63l0,0.1v0l0,0c0,0.1-0.1,0.2-0.1,0.2l0,0L66,63.6
				c-0.1,0.2-0.2,0.5-0.3,0.7c-0.1,0.2-0.1,0.4-0.2,0.6c-0.1,0.4-0.3,0.7-0.4,1.1v0c0,0,0,0.1,0,0.1v0.1c0,0.1-0.1,0.2-0.1,0.3
				l-0.1,0.3L64.8,67l-0.2,0.8l-0.7,0.3l-0.2,0.1l-0.1,0l-0.1,0l-0.1,0.1l-0.3,0.1c-0.1,0-0.1,0.1-0.2,0.1l-0.2,0.1h0l-0.2,0.1
				l-0.1,0.1l-0.1,0.1L62.3,69l-0.2,0.1c0,0-0.1,0.1-0.1,0.1h0l-0.3,0.2l-0.2,0.1c-0.1,0.1-0.3,0.2-0.4,0.3L60.9,70
				c-0.1,0.1-0.2,0.2-0.4,0.3l-0.1,0.1l-0.1,0.1c-0.1,0-0.1,0.1-0.1,0.1l0,0c-0.1,0-0.1,0.1-0.1,0.1l-0.1,0.1l-0.1,0.2l-0.1,0.1
				c-0.1,0.1-0.3,0.3-0.4,0.4L59,72l-0.2,0.2v0c-0.3,0.3-0.5,0.7-0.8,1l-0.1,0.1c-0.1,0.1-0.1,0.1-0.2,0.2l-0.1,0.1
				c0,0.1-0.1,0.1-0.1,0.2l0,0c0,0-0.1,0.1-0.1,0.1c0,0.1-0.1,0.1-0.1,0.2v0l0,0l-0.1,0.1C57.2,74.6,57,75,57,75
				c-0.1,0.1-0.1,0.2-0.2,0.4l-0.1,0.2l0,0l-0.2,0.2l0,0L56.4,76l0,0v0l0,0.1l-0.1,0.1l0,0.1c0,0.1-0.1,0.2-0.1,0.3v0
				c-0.1,0.1-0.1,0.2-0.1,0.3l0,0l-0.1,0.2l-0.1,0.3l0,0l-0.1,0.3l0,0.1c0,0.1,0,0.1-0.1,0.2l-0.1,0.2l0,0.1v0.1
				c0,0.1,0,0.1-0.1,0.2v0c0,0,0,0.1,0,0.1l0,0.1l-0.1,0.2L55.2,79v0l0,0.1l0,0.1l-0.1,0.3c0,0,0,0.1,0,0.1c0,0.1-0.1,0.3-0.1,0.4
				s-0.1,0.2-0.1,0.4v0.1c0,0.1,0,0.1,0,0.2v0c0,0.1,0,0.1,0,0.2v0v0l0,0.2c0,0.1,0,0.1,0,0.2v0c0,0.1,0,0.2,0,0.3v0
				c0,0.1,0,0.2,0,0.2l0,0.2c0,0.1,0,0.3,0,0.4v0c0,0,0,0.1,0,0.1v0c0,0,0,0.2,0,0.2s0,0.1,0,0.2v0.2L54.5,83.3z"/>
		</g>
		<path class="st30" d="M80.5,54.9l6,11.4l-11.3,6.8l0,0l7.3-6.2c-0.2-0.2-0.3-0.4-0.5-0.5c-1-1.1-2.1-2.3-3.2-3.5
			c-0.1-0.1-0.1-0.2-0.1-0.3c0.6-2.6,1.1-5.1,1.6-7.5C80.4,55,80.4,54.9,80.5,54.9z"/>
		<path class="st30" d="M79.9,54c-0.1,0.4-0.2,0.7-0.3,1.1c-1.3,4.7-2.7,9.7-4.3,15.1c-0.1,0.3-0.2,0.5-0.2,0.8
			c0,0.1-0.1,0.2-0.1,0.2c-1.3,0.8-2.7,1.5-4.1,2.4c-0.2,0.1-0.2,0.1-0.1-0.2c1.6-4.4,3.1-8.5,4.5-12.4c0-0.1,0.1-0.2,0.2-0.3
			l4.3-6.5C79.8,54.1,79.9,54.1,79.9,54L79.9,54z"/>
		<path class="st31" d="M79.9,54L79.9,54C79.9,54,79.9,54,79.9,54L79.9,54z"/>
		<g>
			<path class="st30" d="M131.9,96.8c-1-0.6-2.2-0.7-3.4-0.4c-0.9,0.2-1.7,0.5-2.5,1c-0.9,0.5-1.7,1.1-2.4,1.8l3.7,2.1
				c0.7-0.7,1.5-1.3,2.4-1.8c0.8-0.5,1.6-0.8,2.5-1c1.1-0.3,2.3-0.1,3.4,0.4L131.9,96.8z"/>
			<path class="st30" d="M121,94.6c-1.2-0.6-2.6-0.8-3.9-0.5c-1,0.2-2,0.6-2.9,1.2c-1.8,1.1-3.3,2.4-4.6,4c-2.5,3.1-4.3,7-4.8,10.7
				c-0.8,0.2-1.7,0.5-2.4,1c-1.5,0.9-2.9,2.1-4,3.5c-2.5,3.1-4.2,7.1-4.2,10.7c0,2.6,0.9,4.4,2.4,5.3l3.7,2.1
				c-1.5-0.9-2.4-2.7-2.4-5.3c0-3.6,1.7-7.6,4.2-10.7c1.1-1.4,2.5-2.6,4-3.5c0.7-0.4,1.6-0.8,2.4-1c0.4-3.7,2.2-7.6,4.8-10.7
				c1.3-1.6,2.8-3,4.6-4c0.9-0.5,1.9-0.9,2.9-1.2c1.3-0.3,2.7-0.2,3.9,0.5L121,94.6z"/>
			<path class="st29" d="M117.9,97.5c4.8-2.7,8.7-1,9.4,3.8c0.7-0.7,1.5-1.3,2.4-1.8c4.5-2.6,8.2-0.5,8.2,4.7
				c0,5.2-3.7,11.6-8.2,14.2L106.2,132c-4.5,2.6-8.2,0.5-8.2-4.7s3.7-11.6,8.2-14.2c0.7-0.4,1.6-0.8,2.4-1
				C109.2,106.5,113.1,100.2,117.9,97.5z"/>
		</g>
		<path class="st25" d="M114.3,106.2c0.8-0.4,1.4-0.1,1.4,0.8c0,0.5-0.1,0.9-0.4,1.3l5.7,5.4c0.2-0.3,0.4-0.5,0.7-0.7
			c0.3-0.2,0.7-0.3,1-0.1l3.1-4.1c0-0.1-0.1-0.3-0.1-0.4c0.1-1,0.6-1.9,1.4-2.4c0.8-0.4,1.4-0.1,1.4,0.8c-0.1,1-0.6,1.9-1.4,2.4
			c-0.3,0.2-0.6,0.2-0.9,0.1l-3.2,4.2c0,0.1,0,0.1,0,0.2c-0.1,1-0.6,1.9-1.4,2.4c-0.8,0.4-1.4,0.1-1.4-0.8c0-0.4,0.1-0.8,0.3-1.2
			l-5.7-5.4c-0.2,0.2-0.4,0.4-0.6,0.5c-0.8,0.4-1.4,0.1-1.4-0.8C112.9,107.6,113.4,106.7,114.3,106.2z"/>
		<polygon class="st32" points="141.9,105.1 119.7,117.8 119.7,144.4 141.9,131.5 		"/>
		<polygon class="st33" points="119.7,117.8 118.1,116.8 118.1,143.4 119.7,144.4 		"/>
		<polygon class="st34" points="141.9,105.1 140.2,104.1 118.1,116.8 119.7,117.8 		"/>
		<polygon class="st35" points="140.1,108.4 121.6,119 121.6,141 140.1,130.4 		"/>
		<polygon class="st32" points="140.4,127.8 140.4,128.4 139.4,129 139.4,128.4 		"/>
		<polygon class="st32" points="140.4,125.6 140.4,126.2 139.4,126.8 139.4,126.2 		"/>
		<polygon class="st32" points="140.4,123.4 140.4,124 139.4,124.6 139.4,124 		"/>
		<polygon class="st32" points="140.4,121.2 140.4,121.7 139.4,122.4 139.4,121.8 		"/>
		<polygon class="st32" points="140.4,118.9 140.4,119.5 139.4,120.1 139.4,119.6 		"/>
		<polygon class="st32" points="140.4,116.7 140.4,117.3 139.4,117.9 139.4,117.3 		"/>
		<polygon class="st32" points="140.4,114.5 140.4,115.1 139.4,115.7 139.4,115.1 		"/>
		<polygon class="st32" points="140.4,112.3 140.4,112.9 139.4,113.5 139.4,112.9 		"/>
		<path class="st25" d="M124.8,122.4c0.7-0.4,1.3-0.1,1.3,0.7c0,0.4-0.1,0.8-0.3,1.2l5.1,4.9c0.2-0.2,0.4-0.4,0.7-0.6
			c0.3-0.2,0.6-0.2,0.9-0.1l2.8-3.7c0-0.1,0-0.2-0.1-0.3c0-0.9,0.5-1.7,1.3-2.2c0.7-0.4,1.3-0.1,1.3,0.7c0,0.9-0.5,1.7-1.3,2.2
			c-0.2,0.2-0.5,0.2-0.8,0.1l-2.9,3.8c0,0.1,0,0.1,0,0.2c0,0.9-0.5,1.7-1.3,2.2c-0.7,0.4-1.3,0.1-1.3-0.7c0-0.4,0.1-0.7,0.3-1
			l-5.2-4.9c-0.2,0.2-0.3,0.4-0.6,0.5c-0.7,0.4-1.3,0.1-1.3-0.7C123.6,123.7,124.1,122.9,124.8,122.4z"/>
		<g>
			<path class="st30" d="M56.7,23.9c-1-0.6-2.2-0.7-3.4-0.4c-0.9,0.2-1.7,0.5-2.5,1c-0.9,0.5-1.7,1.1-2.4,1.8l3.7,2.2
				c0.7-0.7,1.5-1.3,2.4-1.8c0.8-0.5,1.6-0.8,2.5-1c1.1-0.3,2.3-0.1,3.4,0.4L56.7,23.9z"/>
			<path class="st30" d="M45.8,21.8c-1.2-0.6-2.6-0.8-3.9-0.5c-1,0.2-2,0.6-2.9,1.2c-1.8,1.1-3.3,2.4-4.6,4c-2.5,3.1-4.3,7-4.8,10.7
				c-0.8,0.2-1.7,0.5-2.4,1c-1.5,0.9-2.9,2.1-4,3.5c-2.5,3.1-4.2,7.2-4.2,10.7c0,2.6,0.9,4.4,2.4,5.3l3.7,2.1
				c-1.5-0.9-2.4-2.7-2.4-5.3c0-3.6,1.7-7.6,4.2-10.7c1.1-1.4,2.5-2.6,4-3.5c0.7-0.4,1.6-0.8,2.4-1c0.4-3.7,2.2-7.6,4.8-10.7
				c1.3-1.6,2.8-3,4.6-4c0.9-0.5,1.9-0.9,2.9-1.2c1.3-0.3,2.7-0.2,3.9,0.5L45.8,21.8z"/>
			<path class="st25" d="M42.8,24.6c4.8-2.7,8.7-1,9.4,3.8c0.7-0.7,1.5-1.3,2.4-1.8c4.5-2.6,8.2-0.5,8.2,4.7s-3.7,11.6-8.2,14.2
				L31.1,59.1c-4.5,2.6-8.2,0.5-8.2-4.7c0-5.2,3.7-11.6,8.2-14.2c0.7-0.4,1.6-0.8,2.4-1C34.1,33.6,38,27.3,42.8,24.6z"/>
		</g>
		<path class="st34" d="M48,37.4c0.1,0,0.1-0.1,0.2-0.1c0.2-0.2,0.4-0.6,0.3-0.9c-0.4-1.1-1.3-1.6-2.5-1.3c-1.7,0.5-3.5,2.5-4.2,4.8
			c-0.1,0.3,0,0.6,0.2,0.6c0.3-0.1,0.6-0.3,0.6-0.7c0.5-1.7,1.8-3.1,3.1-3.5c0.9-0.2,1.5,0.1,1.8,0.9C47.6,37.5,47.8,37.6,48,37.4z"
			/>
		<polygon class="st34" points="49.1,35.9 47.8,39 46.7,37.2 		"/>
		<path class="st34" d="M44.9,44.4c1.3-0.8,2.6-2.3,3.2-4.1c0.1-0.3,0-0.6-0.2-0.6c-0.2,0-0.5,0.3-0.6,0.6c-0.6,1.6-1.8,3-3,3.3
			c-0.7,0.3-1.5-0.1-1.8-0.8c0,0,0-0.1,0-0.1c-0.1-0.2-0.3-0.3-0.6,0c-0.2,0.2-0.4,0.6-0.3,0.9c0.4,1.1,1.3,1.6,2.5,1.3
			C44.3,44.7,44.6,44.5,44.9,44.4z"/>
		<polygon class="st34" points="40.9,44.2 41.9,41.1 43.3,42.6 		"/>
		<g>
			<path class="st30" d="M132.4,7.7c-1-0.6-2.2-0.7-3.4-0.4c-0.9,0.2-1.7,0.5-2.5,1c-0.9,0.5-1.7,1.1-2.4,1.8l3.7,2.1
				c0.7-0.7,1.5-1.3,2.4-1.8c0.8-0.5,1.6-0.8,2.5-1c1.1-0.3,2.3-0.1,3.4,0.4L132.4,7.7z"/>
			<path class="st30" d="M121.5,5.5c-1.2-0.6-2.6-0.8-3.9-0.5c-1,0.2-2,0.6-2.9,1.2c-1.8,1.1-3.3,2.4-4.6,4c-2.5,3.1-4.3,7-4.8,10.7
				c-0.8,0.2-1.7,0.5-2.4,1c-1.5,0.9-2.9,2.1-4,3.5c-2.5,3.1-4.2,7.2-4.2,10.7c0,2.6,0.9,4.4,2.4,5.3l3.7,2.1
				c-1.5-0.9-2.4-2.7-2.4-5.3c0-3.6,1.7-7.6,4.2-10.7c1.1-1.4,2.5-2.6,4-3.5c0.7-0.4,1.6-0.8,2.4-1c0.4-3.7,2.2-7.6,4.8-10.7
				c1.3-1.6,2.8-3,4.6-4c0.9-0.5,1.9-0.9,2.9-1.2c1.3-0.3,2.7-0.1,3.9,0.5L121.5,5.5z"/>
			<path class="st29" d="M118.4,8.3c4.8-2.7,8.7-1,9.4,3.8c0.7-0.7,1.5-1.3,2.4-1.8c4.5-2.6,8.2-0.5,8.2,4.7s-3.7,11.6-8.2,14.2
				l-23.6,13.6c-4.5,2.6-8.2,0.5-8.2-4.7s3.7-11.6,8.2-14.2c0.7-0.4,1.6-0.8,2.4-1C109.7,17.3,113.7,11,118.4,8.3z"/>
		</g>
		<g>
			<polygon class="st36" points="118.3,19.9 117.9,19.7 125.9,15.1 126.3,15.3 			"/>
			<polygon class="st37" points="113.3,33.7 113,33.4 112.9,21.4 113.3,21.6 			"/>
			<polygon class="st36" points="113.3,21.6 112.9,21.4 117.4,18.8 117.8,19 			"/>
			<polygon class="st25" points="117.8,19 118.3,19.9 126.3,15.3 126.3,26.2 113.3,33.7 113.3,21.6 			"/>
		</g>
		<g>
			<polygon class="st9" points="114.5,33.8 113.6,33.3 113.5,23.3 114.5,23.9 			"/>
			<polygon class="st38" points="114.5,23.9 113.5,23.3 126,16.2 126.9,16.7 			"/>
			<polygon class="st39" points="126.9,16.7 127,26.7 114.5,33.8 114.5,23.9 			"/>
		</g>
		<polygon class="st40" points="113.3,32.4 113.3,32.8 113.3,32.8 113.3,32.9 113,32.9 113,33.2 114.5,34.1 114.5,33.1 		"/>
		<g>
			<polygon class="st37" points="114.5,34.3 114.2,34.1 114.1,24.1 114.5,24.3 			"/>
			<polygon class="st41" points="114.5,24.3 114.1,24.1 127.1,16.6 127.5,16.8 			"/>
			<polygon class="st25" points="127.5,16.8 127.5,26.8 114.5,34.3 114.5,24.3 			"/>
		</g>
		<polygon class="st25" points="114.5,34.3 113,33.4 113,32.5 114.5,33.4 		"/>
		<path class="st34" d="M118.3,23.7c0.3-0.2,0.6,0,0.6,0.4c0,0.2-0.1,0.4-0.2,0.6l2.5,2.3c0.1-0.1,0.2-0.2,0.3-0.3
			c0.1-0.1,0.3-0.1,0.4,0l1.3-1.8c0-0.1,0-0.1,0-0.2c0-0.4,0.2-0.8,0.6-1.1c0.3-0.2,0.6,0,0.6,0.3c0,0.4-0.3,0.8-0.6,1.1
			c-0.1,0.1-0.3,0.1-0.4,0.1l-1.4,1.8c0,0,0,0.1,0,0.1c0,0.4-0.2,0.8-0.6,1.1c-0.3,0.2-0.6,0-0.6-0.3c0-0.2,0.1-0.3,0.1-0.5
			l-2.5-2.4c-0.1,0.1-0.2,0.2-0.3,0.2c-0.3,0.2-0.6,0-0.6-0.3C117.7,24.4,117.9,24,118.3,23.7z"/>
		<path class="st42" d="M23.3,142.1L23.3,142.1c-4.6-2.3-7.3-5.6-7.5-9.3s2-7.3,6.3-10.1c8.9-5.9,23.9-6.8,33.4-2.1
			c4.6,2.3,7.3,5.6,7.5,9.3c0.2,3.7-2,7.3-6.3,10.1c-4.4,2.9-10.4,4.6-16.4,5S28.1,144.5,23.3,142.1z M22.2,122.9
			c-4.3,2.8-6.5,6.4-6.3,10c0.2,3.6,2.9,6.8,7.4,9.1l0,0c9.5,4.7,24.4,3.8,33.2-2.1c4.3-2.8,6.5-6.4,6.3-10
			c-0.2-3.6-2.9-6.8-7.4-9.1c-4.7-2.3-10.8-3.3-16.9-2.9S26.6,119.9,22.2,122.9z"/>
		
			<ellipse transform="matrix(0.9981 -6.191955e-02 6.191955e-02 0.9981 -8.0591 2.6938)" class="st43" cx="39.4" cy="131.4" rx="16.9" ry="9.8"/>
		<polygon class="st44" points="62.5,132.3 67.5,129 63.3,126.9 58.3,130.2 		"/>
		<path class="st45" d="M56.4,130.4l7-4.7l6,3l-7,4.7L56.4,130.4z M63.4,125.9l-6.7,4.4l5.7,2.8l6.7-4.4L63.4,125.9z"/>
		
			<linearGradient id="SVGID_18_" gradientUnits="userSpaceOnUse" x1="1568.4816" y1="31.8132" x2="1561.1407" y2="37.4858" gradientTransform="matrix(-1 6.000000e-02 -6.000000e-02 -1 1632.01 61.13)">
			<stop  offset="0" style="stop-color:#5FBDEB"/>
			<stop  offset="1" style="stop-color:#82D4F7"/>
		</linearGradient>
		<polygon class="st46" points="62.1,125.4 67.1,122.1 62.8,120 57.9,123.3 		"/>
		<polygon class="st29" points="58.1,126.5 57.9,123.3 62.1,125.4 62.3,128.6 		"/>
		<polygon class="st3" points="67.1,122.1 67.3,125.3 62.3,128.6 62.1,125.4 		"/>
		<polygon class="st34" points="63.9,121.5 66.2,122.7 66.2,123.4 65.6,123.8 65.5,123.1 63.2,122 		"/>
		<polygon class="st34" points="62.5,122.4 64.8,123.6 64.9,124.3 64.2,124.7 64.2,124 61.9,122.9 		"/>
		<polygon class="st34" points="61.1,123.4 63.4,124.5 63.5,125.2 62.8,125.6 62.8,124.9 60.5,123.8 		"/>
		<polygon class="st47" points="63.9,121.5 63.9,121.8 63.5,122.1 63.2,122 		"/>
		<polygon class="st47" points="66,123.3 66.2,123.4 65.6,123.8 65.6,123.5 		"/>
		
			<linearGradient id="SVGID_19_" gradientUnits="userSpaceOnUse" x1="1565.1714" y1="32.5694" x2="1567.4091" y2="32.5694" gradientTransform="matrix(-1 6.000000e-02 -6.000000e-02 -1 1632.01 61.13)">
			<stop  offset="0" style="stop-color:#2874BB"/>
			<stop  offset="1" style="stop-color:#0664AD"/>
		</linearGradient>
		<polygon class="st48" points="63.9,121.5 66.2,122.7 66.2,123.4 66,123.3 65.9,122.8 63.9,121.8 		"/>
		<polygon class="st47" points="62.5,122.4 62.5,122.7 62.1,123 61.9,122.9 		"/>
		<polygon class="st47" points="64.6,124.2 64.9,124.3 64.2,124.7 64.2,124.4 		"/>
		
			<linearGradient id="SVGID_20_" gradientUnits="userSpaceOnUse" x1="1566.5913" y1="31.7481" x2="1568.829" y2="31.7481" gradientTransform="matrix(-1 6.000000e-02 -6.000000e-02 -1 1632.01 61.13)">
			<stop  offset="0" style="stop-color:#2874BB"/>
			<stop  offset="1" style="stop-color:#0664AD"/>
		</linearGradient>
		<polygon class="st49" points="62.5,122.4 64.8,123.6 64.9,124.3 64.6,124.2 64.6,123.8 62.5,122.7 		"/>
		<polygon class="st47" points="61.1,123.4 61.1,123.6 60.7,123.9 60.5,123.8 		"/>
		<polygon class="st47" points="63.2,125.1 63.5,125.2 62.8,125.6 62.8,125.3 		"/>
		
			<linearGradient id="SVGID_21_" gradientUnits="userSpaceOnUse" x1="1568.0144" y1="30.9253" x2="1570.2523" y2="30.9253" gradientTransform="matrix(-1 6.000000e-02 -6.000000e-02 -1 1632.01 61.13)">
			<stop  offset="0" style="stop-color:#2874BB"/>
			<stop  offset="1" style="stop-color:#0664AD"/>
		</linearGradient>
		<polygon class="st50" points="61.1,123.4 63.4,124.5 63.5,125.2 63.2,125.1 63.2,124.7 61.1,123.6 		"/>
		<g>
			<path class="st30" d="M39.1,93.9c-1-0.6-2.2-0.7-3.4-0.4c-0.9,0.2-1.7,0.5-2.5,1c-0.9,0.5-1.7,1.1-2.4,1.8l3.7,2.1
				c0.7-0.7,1.5-1.3,2.4-1.8c0.8-0.5,1.6-0.8,2.5-1c1.1-0.3,2.3-0.1,3.4,0.4L39.1,93.9z"/>
			<path class="st30" d="M28.2,91.7c-1.2-0.6-2.6-0.8-3.9-0.5c-1,0.2-2,0.6-2.9,1.2c-1.8,1.1-3.3,2.4-4.6,4c-2.5,3.1-4.3,7-4.8,10.7
				c-0.8,0.2-1.7,0.5-2.4,1c-1.5,0.9-2.9,2.1-4,3.5c-2.5,3.1-4.2,7.2-4.2,10.7c0,2.6,0.9,4.4,2.4,5.3l3.7,2.1
				c-1.5-0.9-2.4-2.7-2.4-5.3c0-3.6,1.7-7.6,4.2-10.7c1.1-1.4,2.5-2.6,4-3.5c0.7-0.4,1.6-0.8,2.4-1c0.4-3.7,2.2-7.6,4.8-10.7
				c1.3-1.6,2.8-3,4.6-4C26,94,27,93.6,28,93.4c1.3-0.3,2.7-0.2,3.9,0.5L28.2,91.7z"/>
			<path class="st29" d="M25.2,94.5c4.8-2.7,8.7-1,9.4,3.8c0.7-0.7,1.5-1.3,2.4-1.8c4.5-2.6,8.2-0.5,8.2,4.7
				c0,5.2-3.7,11.6-8.2,14.2l-23.6,13.6c-4.5,2.6-8.2,0.5-8.2-4.7c0-5.2,3.7-11.6,8.2-14.2c0.7-0.4,1.6-0.8,2.4-1
				C16.5,103.6,20.4,97.3,25.2,94.5z"/>
		</g>
		<path class="st34" d="M30.4,107.4c0.1,0,0.1-0.1,0.2-0.1c0.2-0.2,0.4-0.6,0.3-0.9c-0.4-1.1-1.3-1.6-2.5-1.3
			c-1.7,0.5-3.5,2.5-4.2,4.8c-0.1,0.3,0,0.6,0.2,0.6c0.3-0.1,0.6-0.3,0.6-0.7c0.5-1.7,1.8-3.1,3.1-3.5c0.7-0.3,1.5,0.1,1.8,0.8
			c0,0,0,0.1,0,0.1C30,107.5,30.2,107.5,30.4,107.4z"/>
		<polygon class="st34" points="31.5,105.8 30.2,108.9 29.1,107.2 		"/>
		<path class="st34" d="M27.3,114.3c1.3-0.8,2.6-2.3,3.2-4.1c0.1-0.3,0-0.6-0.2-0.6c-0.2,0-0.5,0.3-0.6,0.6c-0.6,1.6-1.8,3-3,3.3
			c-0.9,0.2-1.6-0.1-1.8-1c-0.1-0.2-0.4-0.3-0.6,0c-0.2,0.2-0.4,0.5-0.3,0.9c0.4,1.1,1.3,1.6,2.5,1.3
			C26.7,114.6,27,114.5,27.3,114.3z"/>
		<polygon class="st34" points="23.3,114.1 24.3,111 25.7,112.5 		"/>
		<path class="st51" d="M52,100.6C52,100.6,52,100.5,52,100.6l-2.1-1.3c-0.1-0.1-0.3-0.1-0.4,0.1l-0.8,0.6c0,0-3.9,3.1-8.1,2.3
			c-0.1,0-0.2,0-0.3,0c-0.5,0.1-1,0.4-1.3,0.7l0,0c-0.1,0.1-0.2,0.2-0.3,0.3c-4.1,5.4-8,6.7-8.1,6.8l-0.8,0.2
			c-0.3,0.1-0.5,0.4-0.5,0.8v0.9c0.2,11.6,3.5,16.1,6.3,17.9l0,0l2.6,1.5l0.2-0.5c0.3,0,0.6,0.1,0.9,0l0,0c0.3-0.1,0.6-0.2,0.8-0.5
			l0,0c0.4-0.4,8-8.4,9.6-24.8l1.2-2.4L52,100.6z"/>
		<path class="st52" d="M38.1,131.7l-2.8-1.6c-2.8-1.8-6.2-6.3-6.3-18v-0.9c0-0.4,0.3-0.8,0.6-0.9l0.8-0.2c0.2-0.1,4-1.3,8.1-6.7
			c0.1-0.1,0.2-0.2,0.3-0.3c0.4-0.4,0.9-0.7,1.4-0.8c0.1,0,0.2,0,0.3,0c4.1,0.7,7.8-2.2,8-2.3l0.8-0.6c0.2-0.2,0.4-0.2,0.6-0.1
			l2.1,1.3c0.1,0.1,0.1,0.2,0.1,0.3l0,0l-1.2,2.7l-1.1,2.4c-1.7,16.4-9.4,24.5-9.7,24.8c-0.2,0.3-0.6,0.5-0.9,0.5
			c-0.3,0-0.6,0-0.8,0L38.1,131.7z M40.3,102.5L40.3,102.5c-0.5,0.1-1,0.3-1.3,0.7c-0.1,0.1-0.2,0.2-0.3,0.3
			c-4.1,5.4-8.1,6.8-8.2,6.8l-0.8,0.2c-0.2,0.1-0.4,0.3-0.4,0.6v0.9c0.2,11.5,3.5,16,6.2,17.7l2.4,1.4l0.2-0.4l0.1,0
			c0.3,0,0.6,0.1,0.9,0c0.3,0,0.5-0.2,0.7-0.4c0.3-0.3,7.9-8.4,9.6-24.7l0-0.1l1.1-2.4l1.2-2.6l-2.1-1.2c0,0-0.1,0-0.2,0.1l-0.8,0.6
			c-0.2,0.1-4,3.2-8.3,2.4C40.4,102.5,40.3,102.5,40.3,102.5L40.3,102.5z"/>
		<path class="st53" d="M49.8,99.2c-0.1-0.1-0.3-0.1-0.4,0.1l-0.8,0.6c0,0-3.9,3.1-8.1,2.3c-0.1,0-0.2,0-0.3,0
			c-0.5,0.1-1,0.4-1.3,0.7l0,0c-0.1,0.1-0.2,0.2-0.3,0.3c-4.1,5.4-8,6.7-8.1,6.8l-0.8,0.2c-0.2,0.1-0.3,0.2-0.4,0.3l6.4,3.5
			l13.5-5.5c0.1-1,0.3-1.9,0.4-3l1.2-2.4l1.2-2.7c0,0,0,0,0-0.1L49.8,99.2z"/>
		<path class="st53" d="M35.7,114.4l-6.6-3.7l0.1-0.2c0.1-0.2,0.3-0.3,0.5-0.4l0.8-0.2c0.2-0.1,4-1.3,8.1-6.7
			c0.1-0.1,0.2-0.2,0.3-0.3c0.4-0.4,0.9-0.7,1.4-0.8c0.1,0,0.2,0,0.3,0c4.1,0.7,7.8-2.2,8-2.3l0.8-0.6c0.2-0.2,0.4-0.2,0.6-0.1
			l2.1,1.3c0.1,0.1,0.1,0.2,0.1,0.3l-1.2,2.7l-1.1,2.4c-0.1,1-0.2,2-0.4,2.9v0.1L35.7,114.4z M29.6,110.7l6.2,3.4l13.3-5.5
			c0.1-0.9,0.3-1.9,0.4-2.9l0-0.1l1.1-2.4l1.2-2.6l-2.1-1.2c0,0-0.1,0-0.2,0.1l-0.8,0.6c-0.2,0.1-4,3.2-8.3,2.4c-0.1,0-0.1,0-0.2,0
			c-0.5,0.1-0.9,0.3-1.2,0.7c-0.1,0.1-0.2,0.2-0.3,0.3c-4.1,5.4-8.1,6.8-8.2,6.8l-0.8,0.2C29.7,110.6,29.6,110.6,29.6,110.7z"/>
		<path class="st25" d="M42.1,131.8c-0.2,0.2-0.5,0.4-0.8,0.5l0,0c-0.4,0-9.6,0.6-9.9-18.9v-0.9c0-0.3,0.2-0.6,0.5-0.8l0.8-0.2
			c0.2-0.1,4.1-1.3,8.1-6.8c0.1-0.1,0.2-0.2,0.3-0.3l0,0c0.3-0.4,0.8-0.7,1.3-0.7l0,0c0.1,0,0.2,0,0.3,0c4.2,0.8,8.1-2.3,8.1-2.3
			l0.8-0.7c0.3-0.2,0.5-0.1,0.5,0.2v0.9C51.8,121.6,42.5,131.4,42.1,131.8L42.1,131.8z M33.5,113.9c0.6,12.7,5.3,15.5,7.4,16
			c0.3,0.1,1-0.5,1.3-1c2.1-2.8,7-10.7,7.6-24.1c0-0.3-0.2-0.4-0.4-0.2c-1.7,1-4.5,2.2-7.4,1.9c-0.3,0-0.5,0.2-0.7,0.4
			c-2.9,3.7-5.7,5.6-7.5,6.5C33.7,113.4,33.5,113.6,33.5,113.9L33.5,113.9z"/>
		<path class="st25" d="M41.1,132.5c-0.7,0-2.6-0.2-4.6-1.9c-2.3-2-5.1-6.7-5.3-17.2v-0.9c0-0.4,0.3-0.8,0.6-0.9l0.8-0.2
			c0.2-0.1,4-1.3,8.1-6.7c0.1-0.1,0.2-0.2,0.3-0.3c0.4-0.4,0.9-0.7,1.4-0.8c0.1,0,0.2,0,0.3,0c4.1,0.7,7.8-2.2,8-2.3l0.8-0.6
			c0.1-0.1,0.4-0.2,0.6-0.1c0.2,0.1,0.3,0.3,0.2,0.4v0.9c-0.3,20-9.6,29.8-10,30.2l0,0c-0.2,0.3-0.6,0.5-0.9,0.5
			C41.3,132.5,41.2,132.5,41.1,132.5z M42.5,103.8L42.5,103.8c-0.5,0.1-1,0.3-1.3,0.7c-0.1,0.1-0.2,0.2-0.3,0.3
			c-4.1,5.4-8.1,6.8-8.2,6.8l-0.8,0.2c-0.2,0.1-0.4,0.3-0.4,0.6v0.9c0.2,10.4,2.9,15,5.2,17c2.3,2,4.5,1.8,4.6,1.8
			c0.3,0,0.5-0.2,0.7-0.4l0,0c0.4-0.4,9.6-10.1,9.9-30v-0.9c0-0.1,0-0.1,0-0.1c0,0-0.1,0-0.2,0.1l-0.8,0.6c-0.2,0.1-4,3.2-8.3,2.4
			C42.5,103.8,42.5,103.8,42.5,103.8z M41,130.1h-0.1c-1.6-0.4-6.9-2.6-7.6-16.1l0,0c0-0.3,0.2-0.7,0.5-0.8c1.8-1,4.5-2.9,7.4-6.5
			c0.2-0.3,0.5-0.4,0.8-0.4c2.9,0.3,5.6-0.8,7.3-1.8c0.1-0.1,0.3-0.1,0.5,0c0.1,0.1,0.2,0.3,0.2,0.4c-0.6,13.5-5.5,21.5-7.6,24.2
			C42.2,129.4,41.5,130.1,41,130.1z M33.7,113.9c0.7,13.3,5.7,15.5,7.3,15.8c0.2,0,0.8-0.4,1.2-0.9c2.1-2.7,6.9-10.6,7.6-24.1
			c0,0,0-0.1,0-0.1c0,0,0,0-0.1,0c-1.8,1-4.6,2.2-7.6,1.9c-0.2,0-0.4,0.1-0.5,0.3c-2.9,3.6-5.7,5.6-7.5,6.5
			C33.8,113.5,33.7,113.7,33.7,113.9L33.7,113.9z"/>
		<path class="st29" d="M49.5,104.5c-1.7,1-4.5,2.2-7.4,1.9c-0.3,0-0.5,0.2-0.7,0.4c-2.9,3.7-5.7,5.6-7.5,6.5
			c-0.2,0.1-0.4,0.4-0.4,0.7c0.6,12.7,5.3,15.5,7.4,16c0.3,0.1,1-0.5,1.3-1c2.1-2.8,7-10.7,7.6-24.1
			C49.9,104.5,49.7,104.4,49.5,104.5z"/>
		<path class="st52" d="M49.5,104.5c-0.3,0.2-0.7,0.4-1,0.6c-0.7,13.1-5.5,20.8-7.6,23.6c-0.3,0.4-0.6,0.7-1,0.9
			c0.3,0.2,0.7,0.3,1,0.4c0.3,0.1,1-0.5,1.3-1c2.1-2.8,7-10.7,7.6-24.1C49.9,104.5,49.7,104.4,49.5,104.5z"/>
		<path class="st52" d="M41,130.1h-0.1c-0.4-0.1-0.7-0.2-1.1-0.4l-0.3-0.1l0.3-0.2c0.4-0.2,0.7-0.5,0.9-0.9c2-2.7,6.8-10.4,7.5-23.5
			v-0.1l0.1,0c0.3-0.2,0.7-0.4,1-0.6l0,0c0.1-0.1,0.3-0.1,0.5,0c0.1,0.1,0.2,0.3,0.2,0.4c-0.6,13.5-5.5,21.5-7.6,24.2
			C42.2,129.4,41.5,130.1,41,130.1z M40.3,129.5c0.2,0.1,0.5,0.2,0.7,0.2c0.2,0,0.8-0.4,1.2-0.9c2.1-2.7,6.9-10.6,7.6-24.1
			c0,0,0-0.1,0-0.1c0,0,0,0-0.1,0c-0.3,0.2-0.6,0.4-1,0.5c-0.8,13.2-5.6,20.9-7.6,23.6C40.8,129,40.6,129.3,40.3,129.5z"/>
		<path class="st52" d="M41,130.1h-0.1c-1.6-0.4-6.9-2.6-7.6-16.1c0-0.3,0.2-0.7,0.5-0.8c1.8-1,4.5-2.9,7.4-6.5
			c0.2-0.3,0.5-0.4,0.8-0.4c2.9,0.3,5.6-0.8,7.3-1.8l0,0c0.1-0.1,0.3-0.1,0.5,0c0.1,0.1,0.2,0.3,0.2,0.4
			c-0.6,13.5-5.5,21.5-7.6,24.2C42.2,129.4,41.5,130.1,41,130.1z M42,106.5c-0.2,0-0.4,0.1-0.5,0.3c-2.9,3.6-5.7,5.6-7.5,6.5
			c-0.2,0.1-0.3,0.3-0.3,0.5c0.7,13.3,5.7,15.5,7.3,15.8c0.2,0,0.8-0.4,1.2-0.9c2.1-2.7,6.9-10.6,7.6-24.1c0,0,0-0.1,0-0.1
			c0,0,0,0-0.1,0C47.8,105.7,45,106.9,42,106.5L42,106.5z"/>
		<path class="st53" d="M37.5,116.6c0-0.3,0.2-0.6,0.4-0.8l4.9-2.7c0.1,0,0.2-0.1,0.2,0c0.7,0.1,1.4,0.5,1.8,1.1l-1.6,2.8v0.3
			c0,1-0.7,2.2-1.5,2.7l-0.3,0.2l-1.4,2.6c-0.8-0.1-1.7-0.8-2.1-1.1c0,0-0.1-0.1-0.1-0.1l-0.1-0.1c-0.2-0.3-0.3-0.6-0.3-0.9
			L37.5,116.6z"/>
		<path class="st53" d="M40,122.8c-0.9-0.1-1.7-0.8-2.1-1.1c-0.1,0-0.1-0.1-0.1-0.1l0,0l-0.1-0.1c-0.2-0.3-0.3-0.7-0.3-1v-3.8
			c0-0.4,0.2-0.7,0.5-0.9l4.9-2.7c0.1-0.1,0.2-0.1,0.4-0.1c0.8,0.1,1.5,0.5,1.9,1.1l0,0.1l-1.6,2.9v0.2c0,1.1-0.7,2.3-1.5,2.8
			l-0.3,0.2l-1.5,2.6L40,122.8z M43,113.2L43,113.2c-0.1,0-0.1,0-0.1,0L38,116c-0.2,0.1-0.3,0.4-0.3,0.6v3.8c0,0.3,0.1,0.6,0.2,0.8
			l0.1,0.1c0,0,0.1,0.1,0.1,0.1c0.5,0.5,1.2,0.8,1.8,1l1.4-2.5l0.4-0.2c0.8-0.4,1.4-1.6,1.4-2.5v-0.3l1.6-2.8
			C44.2,113.6,43.7,113.3,43,113.2L43,113.2z"/>
		<path class="st51" d="M37.9,121.6c0,0-0.1-0.1-0.1-0.1l-0.1-0.1c-0.2-0.3-0.3-0.6-0.3-0.9v-3.8c0-0.2,0.1-0.5,0.2-0.7l2,1.2
			c0,0,0.7,1.7,1.5,3.2l-1.3,2.3C39.1,122.5,38.3,121.9,37.9,121.6z"/>
		<path class="st25" d="M43.3,120.7l-2.8,1.6c-0.8,0.4-1.5,0-1.5-1.1v-3.8c0-0.3,0.2-0.6,0.4-0.8l4.9-2.7c0.2-0.1,0.4,0,0.4,0.3v3.8
			C44.8,119.1,44.1,120.3,43.3,120.7z"/>
		<path class="st25" d="M39.6,122.7c-0.4-0.2-0.6-0.7-0.6-1.3v-3.8c0-0.4,0.2-0.7,0.5-0.9l4.9-2.7c0.1-0.1,0.3-0.1,0.5,0
			c0.2,0.1,0.3,0.3,0.2,0.5v3.8c0,1.1-0.7,2.4-1.5,2.8l-2.8,1.6c-0.2,0.1-0.4,0.2-0.7,0.2C39.9,122.8,39.7,122.8,39.6,122.7z
			 M44.6,114.2l-4.9,2.7c-0.2,0.1-0.3,0.4-0.3,0.6v3.8c-0.1,0.4,0.1,0.8,0.4,1c0.3,0.1,0.5,0.1,0.8-0.1l2.8-1.6
			c0.8-0.4,1.4-1.6,1.4-2.6v-3.8c0-0.1,0-0.1-0.1-0.2L44.6,114.2C44.6,114.2,44.6,114.2,44.6,114.2L44.6,114.2z"/>
		<polygon class="st51" points="41.5,120.2 41.5,118.2 41.9,118.2 41.9,119.6 42.2,119.4 42.3,119.7 		"/>
		<path class="st51" d="M41.4,118.9c-0.1,0-0.2,0-0.3-0.1c-0.2-0.1-0.3-0.3-0.3-0.5c0-0.5,0.3-0.9,0.7-1.2c0.2-0.1,0.4-0.1,0.6,0
			c0.2,0.1,0.3,0.3,0.3,0.5c0,0.5-0.3,1-0.7,1.2C41.7,118.9,41.6,118.9,41.4,118.9z M42,117.3c-0.1,0-0.1,0-0.2,0.1
			c-0.3,0.2-0.5,0.5-0.5,0.9c0,0.1,0,0.2,0.1,0.2c0.1,0,0.2,0,0.3,0c0.3-0.2,0.5-0.5,0.5-0.9C42.2,117.5,42.1,117.4,42,117.3
			C42,117.3,42,117.3,42,117.3L42,117.3z"/>
		<path class="st54" d="M42.6,117.6c0,0.4-0.3,0.8-0.6,1.1c-0.3,0.2-0.6,0-0.6-0.4c0-0.4,0.3-0.8,0.6-1.1
			C42.4,117.1,42.6,117.2,42.6,117.6z"/>
		<path class="st51" d="M41.7,118.9c-0.1,0-0.2,0-0.3-0.1c-0.2-0.1-0.3-0.3-0.3-0.5c0-0.5,0.3-0.9,0.7-1.2c0.2-0.1,0.4-0.1,0.6,0
			c0.2,0.1,0.3,0.3,0.3,0.5c0,0.5-0.3,0.9-0.7,1.2C42,118.9,41.9,118.9,41.7,118.9z M42.3,117.4c-0.1,0-0.1,0-0.2,0.1
			c-0.3,0.2-0.5,0.5-0.5,0.9c0,0.1,0,0.2,0.1,0.2c0.1,0,0.2,0,0.3,0c0.3-0.2,0.5-0.5,0.5-0.9C42.5,117.5,42.4,117.4,42.3,117.4
			C42.3,117.4,42.3,117.4,42.3,117.4L42.3,117.4z"/>
		<polygon class="st54" points="41.8,120 41.8,118.5 42.1,118.3 42.1,119.4 42.4,119.3 42.6,119.6 		"/>
		<path class="st34" d="M39.5,116.1L39.5,116.1c0.3,0,0.5-0.2,0.5-0.5c0,0,0,0,0,0v-2.1c0-0.7,0.4-1.3,1-1.6l0.9-0.5
			c0.2-0.1,0.3-0.1,0.3-0.1c0,0,0.1,0.1,0.1,0.3v2.1c0,0.3,0.2,0.5,0.5,0.5c0,0,0,0,0,0l0,0c0.3,0,0.5-0.2,0.5-0.5c0,0,0,0,0,0v-2.1
			c0-0.5-0.2-0.9-0.6-1.2c-0.4-0.2-0.9-0.2-1.3,0.1l-0.9,0.5c-0.8,0.5-1.4,1.4-1.4,2.4v2.1C39,115.9,39.2,116.2,39.5,116.1
			C39.5,116.1,39.5,116.1,39.5,116.1z"/>
		<g>
			<polygon class="st55" points="148,32.2 148.4,31.9 148.4,38.3 147.9,38.6 			"/>
			<polygon class="st56" points="137.2,25.9 137.6,25.7 148.4,31.9 148,32.2 			"/>
			<polygon class="st57" points="148,32.2 147.9,38.6 137.2,32.3 137.2,25.9 			"/>
		</g>
		<g>
			<polygon class="st58" points="131,27.8 130.7,27.6 138.6,23 139,23.2 			"/>
			<polygon class="st59" points="126,39.2 125.7,39 125.6,29.3 126,29.5 			"/>
			<polygon class="st60" points="126,29.5 125.6,29.3 130.1,26.7 130.5,26.9 			"/>
			<polygon class="st61" points="130.5,26.9 131,27.8 139,23.2 139,31.7 126,39.2 126,29.5 			"/>
		</g>
		<g>
			<polygon class="st9" points="127.3,39.4 126.3,38.8 126.3,31.2 127.2,31.7 			"/>
			<polygon class="st38" points="127.2,31.7 126.3,31.2 138.7,24 139.7,24.6 			"/>
			<polygon class="st39" points="139.7,24.6 139.7,32.2 127.3,39.4 127.2,31.7 			"/>
		</g>
		<polygon class="st62" points="126,38 126,38.4 126,38.4 126,38.5 125.7,38.5 125.7,38.7 127.3,39.6 127.3,38.7 		"/>
		<g>
			<polygon class="st59" points="127.3,39.9 126.9,39.7 126.9,31.9 127.2,32.1 			"/>
			<polygon class="st60" points="127.2,32.1 126.9,31.9 139.9,24.4 140.2,24.6 			"/>
			<polygon class="st61" points="140.2,24.6 140.2,32.4 127.3,39.9 127.2,32.1 			"/>
		</g>
		<polygon class="st63" points="127.3,39.9 125.7,39 125.7,38 127.3,39 		"/>
		<g>
			<polygon class="st58" points="133.1,29 132.7,28.7 140.7,24.1 141.1,24.3 			"/>
			<polygon class="st59" points="128.1,40.4 127.7,40.2 127.7,30.4 128.1,30.7 			"/>
			<polygon class="st60" points="128.1,30.7 127.7,30.4 132.2,27.8 132.6,28.1 			"/>
			<polygon class="st61" points="132.6,28.1 133.1,29 141.1,24.3 141.1,32.9 128.1,40.4 128.1,30.7 			"/>
		</g>
		<g>
			<polygon class="st9" points="129.3,40.6 128.4,40 128.3,32.4 129.3,32.9 			"/>
			<polygon class="st38" points="129.3,32.9 128.3,32.4 140.7,25.2 141.7,25.8 			"/>
			<polygon class="st39" points="141.7,25.8 141.8,33.4 129.3,40.6 129.3,32.9 			"/>
		</g>
		<polygon class="st62" points="128.1,39.2 128.1,39.5 128.1,39.5 128.1,39.7 127.7,39.7 127.7,39.9 129.3,40.8 129.3,39.9 		"/>
		<g>
			<polygon class="st59" points="129.3,41.1 129,40.9 128.9,33.1 129.3,33.3 			"/>
			<polygon class="st60" points="129.3,33.3 128.9,33.1 141.9,25.6 142.3,25.8 			"/>
			<polygon class="st61" points="142.3,25.8 142.3,33.6 129.3,41.1 129.3,33.3 			"/>
		</g>
		<polygon class="st63" points="129.3,41.1 127.7,40.2 127.7,39.2 129.3,40.2 		"/>
		<g>
			<polygon class="st60" points="137.6,31.6 137.2,31.4 145.2,26.8 145.6,27 			"/>
			<polygon class="st59" points="132.6,43.1 132.2,42.9 132.2,33.1 132.6,33.3 			"/>
			<polygon class="st60" points="132.6,33.3 132.2,33.1 136.7,30.5 137.1,30.7 			"/>
			<polygon class="st61" points="137.1,30.7 137.6,31.6 145.6,27 145.6,35.6 132.6,43.1 132.6,33.3 			"/>
		</g>
		<g>
			<polygon class="st9" points="133.8,43.3 132.9,42.7 132.8,35 133.8,35.6 			"/>
			<polygon class="st38" points="133.8,35.6 132.8,35 145.3,27.8 146.2,28.4 			"/>
			<polygon class="st39" points="146.2,28.4 146.3,36.1 133.8,43.3 133.8,35.6 			"/>
		</g>
		<polygon class="st62" points="132.6,41.8 132.6,42.2 132.6,42.2 132.6,42.4 132.2,42.4 132.2,42.6 133.8,43.5 133.8,42.6 		"/>
		<g>
			<polygon class="st59" points="133.8,43.8 133.5,43.6 133.4,35.7 133.8,35.9 			"/>
			<polygon class="st60" points="133.8,35.9 133.4,35.7 146.4,28.2 146.8,28.4 			"/>
			<polygon class="st61" points="146.8,28.4 146.8,36.3 133.8,43.8 133.8,35.9 			"/>
		</g>
		<polygon class="st63" points="133.8,43.8 132.2,42.9 132.2,41.9 133.8,42.8 		"/>
		<g>
			<polygon class="st55" points="135.8,39.2 136.3,38.9 136.2,45.3 135.8,45.6 			"/>
			<polygon class="st44" points="125,33 125.5,32.7 136.3,38.9 135.8,39.2 			"/>
			<polygon class="st64" points="135.8,39.2 135.8,45.6 125,39.4 125,33 			"/>
		</g>
		<g>
			<polygon class="st13" points="136,37.7 135.5,37.5 135.6,45.8 136,46 			"/>
			<polygon class="st65" points="148.5,30.5 148,30.3 135.5,37.5 136,37.7 			"/>
			<polygon class="st66" points="136,37.7 136,46 148.5,38.8 148.5,30.5 			"/>
		</g>
		<polygon class="st9" points="143.9,34.1 142.4,35 144.3,35.9 144.3,33.9 		"/>
		<polygon class="st67" points="141.3,35.6 141.3,37.6 144.3,35.9 142.4,35 		"/>
		<polygon class="st56" points="143.9,34.1 143.9,35.7 141.3,37.2 141.3,35.6 		"/>
		<g>
			<polygon class="st36" points="135.4,18.5 135,18.2 143,13.6 143.4,13.9 			"/>
			<polygon class="st37" points="130.4,32.2 130,32 130,19.9 130.4,20.2 			"/>
			<polygon class="st36" points="130.4,20.2 130,19.9 134.5,17.4 134.9,17.6 			"/>
			<polygon class="st25" points="134.9,17.6 135.4,18.5 143.4,13.9 143.4,24.7 130.4,32.2 130.4,20.2 			"/>
		</g>
		<g>
			<polygon class="st9" points="131.6,32.3 130.6,31.8 130.6,21.9 131.6,22.4 			"/>
			<polygon class="st38" points="131.6,22.4 130.6,21.9 143,14.7 144,15.3 			"/>
			<polygon class="st39" points="144,15.3 144,25.2 131.6,32.3 131.6,22.4 			"/>
		</g>
		<polygon class="st40" points="130.4,30.9 130.4,31.3 130.4,31.3 130.4,31.4 130,31.4 130,31.7 131.6,32.6 131.6,31.6 		"/>
		<g>
			<polygon class="st37" points="131.6,32.9 131.2,32.7 131.2,22.6 131.6,22.8 			"/>
			<polygon class="st41" points="131.6,22.8 131.2,22.6 144.2,15.1 144.6,15.3 			"/>
			<polygon class="st25" points="144.6,15.3 144.6,25.4 131.6,32.9 131.6,22.8 			"/>
		</g>
		<polygon class="st25" points="131.6,32.9 130,32 130,31 131.6,31.9 		"/>
		<path class="st38" d="M139.9,22.4C139.9,22.4,139.9,22.4,139.9,22.4c0.2-0.2,0.2-0.3,0.2-0.4c-0.1-0.5-0.6-0.7-1.1-0.6
			c0,0,0,0-0.1,0c-0.8,0.2-1.6,1.1-1.9,2.2c0,0.2,0,0.3,0.1,0.3c0.1,0,0.2-0.1,0.3-0.3c0.2-0.8,0.8-1.4,1.4-1.6
			c0.3-0.1,0.7,0,0.8,0.4c0,0,0,0,0,0C139.7,22.4,139.8,22.5,139.9,22.4z"/>
		<polygon class="st38" points="140.4,21.7 139.8,23.1 139.3,22.3 		"/>
		<path class="st38" d="M138.5,25.5c0.7-0.4,1.2-1.1,1.4-1.8c0.1-0.2,0-0.3-0.1-0.3c-0.1,0-0.2,0.1-0.3,0.3
			c-0.3,0.7-0.8,1.3-1.3,1.5c-0.3,0.1-0.7,0-0.8-0.4c0,0,0,0,0-0.1c0-0.1-0.2-0.1-0.3,0c-0.1,0.1-0.2,0.2-0.1,0.4
			c0.1,0.5,0.6,0.7,1,0.6c0,0,0.1,0,0.1,0C138.2,25.7,138.4,25.6,138.5,25.5z"/>
		<polygon class="st38" points="136.7,25.4 137.1,24 137.8,24.7 		"/>
	</g>
</g>
</svg>
