<svg xmlns="http://www.w3.org/2000/svg" xmlns:xlink="http://www.w3.org/1999/xlink" viewBox="0 0 100 100"><defs><style>.cls-1{fill:none;}.cls-2{clip-path:url(#clip-path);}.cls-3{fill:#333;}</style><clipPath id="clip-path"><rect id="SVGID" class="cls-1" width="100" height="100"/></clipPath></defs><g id="Layer_3" data-name="Layer 3"><g class="cls-2"><path class="cls-3" d="M21.35,57h9.53l-1.39-1.39,0,10.73,0,17.11v3.93L30.94,86H21.12a1.39,1.39,0,0,0,0,2.78h9.82a1.41,1.41,0,0,0,1.39-1.39l0-10.73,0-17.1V55.61a1.4,1.4,0,0,0-1.38-1.38H21.35a1.39,1.39,0,0,0,0,2.77Z"/><path class="cls-3" d="M6.46,51.78H21.12l-1.39-1.39V92.7c0,.57,0,1.16,0,1.72a.21.21,0,0,1,0,.08l1.39-1.38h-12a1.39,1.39,0,0,0,0,2.77H21.12a1.41,1.41,0,0,0,1.39-1.39V55.85c0-1.79.06-3.59,0-5.38v-.08A1.4,1.4,0,0,0,21.12,49H6.46a1.39,1.39,0,0,0,0,2.77Z"/><path class="cls-3" d="M82.83,80.3c.29,0,.55.13.83.2s0,0,0,0l.18.08.43.24.15.11s-.23-.22-.07,0l.28.25c.09.09.16.19.25.28-.23-.24,0,0,.07.12a2.68,2.68,0,0,1,.18.33s.19.42.11.21.06.21.08.28.06.28.1.42c.08.31,0-.21,0,.12,0,.12,0,.25,0,.38s0,.26,0,.39,0,.13,0,.19.06-.26,0,0-.12.51-.19.76,0,0-.06.14-.15.31-.23.45-.16.23-.23.35.16-.16-.1.12a5.87,5.87,0,0,1-.67.65c-.16.14.2-.13,0,0l-.19.13c-.13.09-.27.17-.41.25a3.55,3.55,0,0,1-.44.21c-.2.09.19-.06,0,0l-.31.11a6.9,6.9,0,0,1-2.28.34c-2.53,0-5.06,0-7.59,0H43.15c-.94,0-1.89,0-2.84,0a6.69,6.69,0,0,1-3.17-1.11c-1.48-.83-2.91-1.74-4.66-1.74H31l1.38,1.39V58.4l-.7,1.21a44.79,44.79,0,0,0,8-5.21c1.89-1.67,3.67-3.48,5.42-5.3,2-2.11,4-4.27,5.74-6.57,1.23-1.6,2.8-3.45,2.95-5.55a22.19,22.19,0,0,0-.3-4.23c-.19-1.63-.42-3.26-.46-4.89,0-.34,0-.67,0-1,0-.14,0-.27,0-.41,0,.29,0-.15.06-.24a5.2,5.2,0,0,1,.92-1.93A4.47,4.47,0,0,1,55.6,23c.26-.15-.19.05.06,0l.42-.15c.3-.1.61-.18.92-.25a5.7,5.7,0,0,1,2-.17h.1l.16,0a3.74,3.74,0,0,1,.45.12s.24.11,0,0l.17.09s.26.17.12.07.12.11.15.14,0-.08.13.16c0,.09.11.18.17.27s.26.41.4.61L61.62,25c.26.4.52.8.76,1.22.11.19.21.39.31.59l.15.32c0,.06.2.45.14.3s.06.17.08.22l.15.41c.08.28.16.55.23.83s.13.61.18.91a6.87,6.87,0,0,1,.11.87A24.84,24.84,0,0,1,63,38.89q-1.1,4.28-2.23,8.52c-.18.66-.37,1.32-.55,2a1.4,1.4,0,0,0,1.34,1.74H89.23l.6,0c.46,0-.11,0,.14,0l.32.06a5.9,5.9,0,0,1,.6.17c.36.13-.23-.13.09,0l.38.22.17.11c-.32-.22,0,0,.09.11s.09.1.14.14-.13-.24.06.09c.06.11.27.62.16.26.06.18.1.37.15.56s0-.28,0,0c0,.11,0,.23,0,.35s0,.16,0,.25c0,.37,0-.06,0,.15s-.08.41-.15.62a2.41,2.41,0,0,1-.08.25c0,.1,0,.07,0-.07a1.13,1.13,0,0,1-.09.2c-.1.2-.2.4-.32.6l-.19.29c-.06.1-.21.27,0,.08-.18.21-.37.42-.57.62l-.18.16s-.45.36-.19.17a5.57,5.57,0,0,1-2.9,1.16,1.39,1.39,0,0,0-1,1.7,1.42,1.42,0,0,0,1.69,1A8.3,8.3,0,0,0,93.75,57a6.09,6.09,0,0,0,.91-5.29,5.29,5.29,0,0,0-5-3.3c-.59,0-1.19,0-1.78,0H61.51l1.34,1.74c.85-3,1.64-6.06,2.42-9.1a36.09,36.09,0,0,0,1.29-8.27,15.12,15.12,0,0,0-1.75-7.81c-.47-.84-1-1.62-1.57-2.42a15.42,15.42,0,0,0-1-1.5,4.26,4.26,0,0,0-2.15-1.22,8.77,8.77,0,0,0-4.62.34,7.19,7.19,0,0,0-4,3.06c-1.85,2.88-1.11,6.38-.73,9.57.1.83.2,1.66.26,2.5,0,.3.05.61.05.92a6.91,6.91,0,0,0,0,.91c0,.08.09-.29,0-.07s0,.16-.06.23-.07.15-.08.21.14-.27.06-.13a.87.87,0,0,0-.07.17,11.66,11.66,0,0,1-.67,1.19c-.3.48-.62.94-1,1.4l-.29.39-.12.15-.65.82c-.94,1.17-1.93,2.3-2.93,3.41-1.94,2.14-3.95,4.22-6,6.2-.73.7-1.47,1.39-2.25,2-.13.11-.49.5-.12.11a6.52,6.52,0,0,1-1.1.76c-.87.57-1.76,1.11-2.66,1.64s-1.87,1.08-2.82,1.6a1.4,1.4,0,0,0-.7,1.21V85.87A1.41,1.41,0,0,0,31,87.26c.53,0,1.07,0,1.61,0h.19c.06,0,.26,0,.05,0l.26.05a4.19,4.19,0,0,1,1.06.42c1.86,1,3.6,2.23,5.76,2.38.81.06,1.64,0,2.46,0h30c2.7,0,5.41,0,8.11,0,3.25-.06,6.42-1.65,7.47-4.9a6,6,0,0,0-2.47-6.9,5.3,5.3,0,0,0-1.88-.67,1.45,1.45,0,0,0-1.7,1,1.4,1.4,0,0,0,1,1.69Z"/><path class="cls-3" d="M85.09,70.45a8.19,8.19,0,0,1,.81.23c.33.12-.11-.07.1,0l.4.21.29.18.15.11c-.28-.17-.14-.12-.07-.06s.35.32.51.5a.67.67,0,0,1,.11.14s-.2-.32-.07-.09.11.16.16.25a2.15,2.15,0,0,1,.14.26l.08.15c.11.21-.07-.22,0-.06s.13.39.18.6,0,.19.05.28,0-.27,0-.1a1.49,1.49,0,0,0,0,.21,4.42,4.42,0,0,1,0,.63c0,.17,0,.28,0,0,0,.13,0,.25-.07.38s-.11.41-.18.62l-.06.16s.13-.26.06-.13-.11.24-.17.35a5.3,5.3,0,0,1-.33.57c-.1.15-.18.23,0,0a3.73,3.73,0,0,1-.26.3,5.21,5.21,0,0,1-.47.47s-.33.25-.14.12-.17.11-.23.14c-.22.14-.46.24-.7.37s.25-.07.07,0l-.22.08-.38.11-.44.08c-.19,0,.24,0,.05,0l-.26,0a6.55,6.55,0,0,1-1,0A1.39,1.39,0,0,0,81.8,79a1.42,1.42,0,0,0,1.38,1.39A6.87,6.87,0,0,0,89.75,77a6.3,6.3,0,0,0-.07-6.71,6.51,6.51,0,0,0-3.89-2.51,1.39,1.39,0,0,0-.7,2.69Z"/><path class="cls-3" d="M87.44,60.48a8.36,8.36,0,0,1,.81.25c-.3-.11.11.06.18.09l.37.2c.1.06.19.14.29.19S88.9,61,89,61.16l.11.09c.18.17.34.36.51.52-.17-.16-.11-.15,0,0a2.2,2.2,0,0,1,.15.26c0,.08.09.18.14.26s-.08-.27,0-.09a1.39,1.39,0,0,0,.06.19c.06.19.08.39.13.58,0-.23,0-.18,0,0s0,.23,0,.34,0,.2,0,.3c0,.36,0-.11,0,.08s-.09.43-.15.64a2.47,2.47,0,0,1-.1.29.85.85,0,0,1-.06.17s.12-.26,0-.12-.2.44-.32.65-.25.35-.35.54.18-.22.06-.08l-.09.11-.24.28a5.9,5.9,0,0,1-.51.49l-.25.21c.25-.2,0,0-.09,0a4.7,4.7,0,0,1-.69.39.75.75,0,0,1-.13.06c-.27.15.19,0,0,0l-.41.13a6.43,6.43,0,0,1-.76.17c.36-.07-.1,0-.19,0s-.3,0-.45,0a1.39,1.39,0,1,0,0,2.77A7.31,7.31,0,0,0,91.75,67,6.15,6.15,0,0,0,92,60.36a6.56,6.56,0,0,0-3.88-2.57,1.39,1.39,0,0,0-.7,2.69Z"/><path class="cls-3" d="M13.72,84.42a1.07,1.07,0,0,0,0,.25s.06-.33,0-.1a1.9,1.9,0,0,0-.11.39s.15-.31,0-.11l-.07.15-.13.21c-.14.22.22-.24,0,0a2.2,2.2,0,0,1-.26.27s-.13.09-.16.14.29-.19.09-.08a3.6,3.6,0,0,1-.37.22s-.12,0-.16.07c.29-.18.11,0,0,0a3.69,3.69,0,0,1-.45.11c-.25.06.07,0,.08,0s-.19,0-.24,0a3.12,3.12,0,0,1-.43,0c-.31,0,.22,0,0,0l-.31-.07-.35-.11.17.07-.16-.07-.15-.08-.15-.09-.07,0c-.13-.08-.1-.06.09.08a2.7,2.7,0,0,0-.31-.28l-.14-.16c-.14-.12.19.31,0,.07l-.19-.32c-.1-.17,0-.13,0,.07,0,0,0-.13-.05-.15s0-.14,0-.2c-.08-.29,0,.13,0,0s0-.26,0-.38c0-.28-.08.22,0,.06s0-.13,0-.2a.88.88,0,0,1,.05-.15c.07-.27-.13.21,0,.06s.14-.26.22-.39,0,.09-.08.1.12-.14.17-.19.16-.15.24-.23-.28.18,0,0l.14-.1.15-.08c.05,0,.34-.21.16-.08s0,0,.08,0l.18,0L11.5,83h0c.15,0,.13,0-.07,0a1.22,1.22,0,0,1,.43,0h.23c.28,0-.26,0,0,0a3.69,3.69,0,0,1,.45.11l.08,0-.08,0a1.23,1.23,0,0,0,.23.11c.1,0,.27.21.37.22-.17,0-.22-.19-.06,0l.21.2.11.13c.2.2-.17-.28,0,0s.14.27.22.39-.1-.33,0-.06c0,.08,0,.15.07.23a.9.9,0,0,0,0,.16c0-.21,0-.24,0-.1a1,1,0,0,1,0,.17,1.4,1.4,0,0,0,1.38,1.39,1.43,1.43,0,0,0,1.39-1.39,4.39,4.39,0,0,0-3.19-4,4.94,4.94,0,0,0-5,1.27,4,4,0,0,0-.48,4.94,4.89,4.89,0,0,0,4.92,2,4.41,4.41,0,0,0,3.72-4.17,1.39,1.39,0,1,0-2.77,0Z"/><path class="cls-3" d="M87.79,57.75H74.44a1.39,1.39,0,0,0,0,2.77H87.79a1.39,1.39,0,0,0,0-2.77Z"/><path class="cls-3" d="M85.44,67.72h-11a1.39,1.39,0,0,0,0,2.77h11a1.39,1.39,0,0,0,0-2.77Z"/><path class="cls-3" d="M83.18,77.58H74.26a1.39,1.39,0,0,0,0,2.77h8.92a1.39,1.39,0,1,0,0-2.77Z"/><path class="cls-3" d="M14.89,9.73a18.26,18.26,0,0,0,15.25,30.8A18.44,18.44,0,0,0,45.89,26.44a18.26,18.26,0,0,0-29-18.51,18.26,18.26,0,0,0-2,1.8c-1.24,1.28.72,3.25,2,2A15.5,15.5,0,0,1,43.53,23.56,15.51,15.51,0,0,1,15.38,31.3a15.68,15.68,0,0,1,0-17.8,15.91,15.91,0,0,1,1.49-1.81C18.08,10.4,16.12,8.43,14.89,9.73Z"/><path class="cls-3" d="M18.15,23.45l17.62.27,2.46,0a1.39,1.39,0,0,0,0-2.77l-17.61-.26-2.47,0a1.39,1.39,0,0,0,0,2.77Z"/><path class="cls-3" d="M26.8,11.83l-.26,17.62,0,2.46a1.39,1.39,0,0,0,2.77,0l.27-17.61,0-2.47a1.39,1.39,0,0,0-2.78,0Z"/></g></g></svg>