<?xml version="1.0" encoding="utf-8"?>
<!-- Generator: Adobe Illustrator 24.3.0, SVG Export Plug-In . SVG Version: 6.00 Build 0)  -->
<svg version="1.1" xmlns="http://www.w3.org/2000/svg" xmlns:xlink="http://www.w3.org/1999/xlink" x="0px" y="0px"
	 viewBox="0 0 150 150" style="enable-background:new 0 0 150 150;" xml:space="preserve">
<style type="text/css">
	.st0{fill:url(#SVGID_1_);}
	.st1{fill:url(#SVGID_2_);}
	.st2{fill:#FFFFFF;}
	.st3{fill:#0847A6;}
	.st4{display:none;}
	.st5{display:inline;fill:url(#SVGID_3_);}
	.st6{display:inline;fill:url(#SVGID_4_);}
	.st7{display:inline;fill:#FFFFFF;}
	.st8{display:inline;}
	.st9{fill:#8B8B8B;}
	.st10{display:inline;fill:url(#SVGID_5_);}
	.st11{display:inline;fill:url(#SVGID_6_);}
	.st12{fill:#017DFF;}
	.st13{display:inline;fill:url(#SVGID_7_);}
	.st14{display:inline;fill:url(#SVGID_8_);}
	.st15{fill:#008A57;}
	.st16{opacity:0.9;fill:url(#SVGID_9_);}
	.st17{fill:url(#SVGID_10_);}
	.st18{fill:url(#SVGID_11_);}
	.st19{fill:url(#SVGID_12_);}
	.st20{fill:#5D1E93;}
	.st21{fill:url(#SVGID_13_);}
	.st22{fill:url(#SVGID_14_);}
	.st23{fill:#005099;}
	.st24{fill:url(#SVGID_15_);}
	.st25{fill:url(#SVGID_16_);}
	.st26{fill:#181818;}
	.st27{fill:url(#SVGID_17_);}
	.st28{fill:url(#SVGID_18_);}
	.st29{display:inline;fill:#D30507;}
	.st30{font-family:'Poppins-SemiBold';}
	.st31{font-size:38px;}
	.st32{fill:url(#SVGID_19_);}
	.st33{fill:url(#SVGID_20_);}
	.st34{fill:#D30507;}
	.st35{fill:url(#SVGID_21_);}
	.st36{fill:url(#SVGID_22_);}
	.st37{fill:#FF0C5D;}
</style>
<g id="_x31_">
	<radialGradient id="SVGID_1_" cx="51.2442" cy="80.1365" r="46.2442" gradientUnits="userSpaceOnUse">
		<stop  offset="0.4734" style="stop-color:#404040"/>
		<stop  offset="0.6075" style="stop-color:#7F7F7F;stop-opacity:0.7453"/>
		<stop  offset="0.7406" style="stop-color:#B6B6B6;stop-opacity:0.4925"/>
		<stop  offset="0.8545" style="stop-color:#DEDEDE;stop-opacity:0.2763"/>
		<stop  offset="0.9447" style="stop-color:#F6F6F6;stop-opacity:0.105"/>
		<stop  offset="1" style="stop-color:#FFFFFF;stop-opacity:0"/>
	</radialGradient>
	<circle class="st0" cx="51.2" cy="80.1" r="46.2"/>
	<linearGradient id="SVGID_2_" gradientUnits="userSpaceOnUse" x1="58.8922" y1="75" x2="141.0291" y2="75">
		<stop  offset="0" style="stop-color:#021559"/>
		<stop  offset="1" style="stop-color:#0953B8"/>
	</linearGradient>
	<polygon class="st1" points="145,75 57.6,13.1 57.6,136.9 	"/>
	
		<ellipse transform="matrix(0.2298 -0.9732 0.9732 0.2298 -28.5817 112.7557)" class="st2" cx="56.9" cy="74.4" rx="40.3" ry="40.3"/>
	<g>
		<path class="st3" d="M37.1,74.3c0-9.1,3.4-13.6,10.3-13.6c3.6,0,6.2,1.2,7.8,3.6c1.6,2.4,2.4,5.8,2.4,10c0,4.2-0.8,7.6-2.4,10
			C53.6,86.7,51,88,47.4,88C40.5,88,37.1,83.4,37.1,74.3z M52.3,74.3c0-2.7-0.3-4.8-1-6.3c-0.7-1.5-2-2.2-3.9-2.2
			c-2,0-3.3,0.7-4,2.2c-0.7,1.5-1,3.6-1,6.3c0,2.8,0.3,4.9,1,6.4c0.7,1.5,2,2.2,4,2.2c2,0,3.3-0.7,3.9-2.2
			C52,79.2,52.3,77.1,52.3,74.3z"/>
		<path class="st3" d="M59.8,66.1v-5h9.7V88h-5.6V66.1H59.8z"/>
	</g>
</g>
<g id="_x32_" class="st4">
	<radialGradient id="SVGID_3_" cx="51.2442" cy="80.1365" r="46.2442" gradientUnits="userSpaceOnUse">
		<stop  offset="0.4734" style="stop-color:#404040"/>
		<stop  offset="0.6075" style="stop-color:#7F7F7F;stop-opacity:0.7453"/>
		<stop  offset="0.7406" style="stop-color:#B6B6B6;stop-opacity:0.4925"/>
		<stop  offset="0.8545" style="stop-color:#DEDEDE;stop-opacity:0.2763"/>
		<stop  offset="0.9447" style="stop-color:#F6F6F6;stop-opacity:0.105"/>
		<stop  offset="1" style="stop-color:#FFFFFF;stop-opacity:0"/>
	</radialGradient>
	<circle class="st5" cx="51.2" cy="80.1" r="46.2"/>
	<linearGradient id="SVGID_4_" gradientUnits="userSpaceOnUse" x1="58.8921" y1="75" x2="141.0291" y2="75">
		<stop  offset="0" style="stop-color:#575757"/>
		<stop  offset="1" style="stop-color:#A6A6A6"/>
	</linearGradient>
	<polygon class="st6" points="145,75 57.6,13.1 57.6,136.9 	"/>
	
		<ellipse transform="matrix(0.7071 -0.7071 0.7071 0.7071 -35.9546 62.0681)" class="st7" cx="56.9" cy="74.4" rx="40.3" ry="40.3"/>
	<g class="st8">
		<path class="st9" d="M35.1,74.3c0-9.1,3.4-13.6,10.3-13.6c3.6,0,6.2,1.2,7.8,3.6c1.6,2.4,2.4,5.8,2.4,10c0,4.2-0.8,7.6-2.4,10
			C51.6,86.7,49,88,45.4,88C38.5,88,35.1,83.4,35.1,74.3z M50.3,74.3c0-2.7-0.3-4.8-1-6.3c-0.7-1.5-2-2.2-3.9-2.2
			c-2,0-3.3,0.7-4,2.2c-0.7,1.5-1,3.6-1,6.3c0,2.8,0.3,4.9,1,6.4c0.7,1.5,2,2.2,4,2.2c2,0,3.3-0.7,3.9-2.2
			C50,79.2,50.3,77.1,50.3,74.3z"/>
		<path class="st9" d="M71.6,68.9c0-1.2-0.3-2.1-0.9-2.8c-0.6-0.7-1.5-1-2.7-1c-2.5,0-3.8,1.7-4,5.1h-5.2C59,67,60,64.6,61.8,63
			c1.8-1.6,4-2.5,6.7-2.5c2.8,0,4.9,0.7,6.4,2.1c1.5,1.4,2.2,3.3,2.2,5.7c0,1.9-0.6,3.8-1.7,5.6c-1.1,1.9-2.5,3.6-4.2,5.2
			c-1.7,1.6-3.5,2.9-5.4,4.1h11.7v4.4H58.7v-4C67.3,77.8,71.6,72.9,71.6,68.9z"/>
	</g>
</g>
<g id="_x33_" class="st4">
	<radialGradient id="SVGID_5_" cx="51.2442" cy="80.1365" r="46.2442" gradientUnits="userSpaceOnUse">
		<stop  offset="0.4734" style="stop-color:#404040"/>
		<stop  offset="0.6075" style="stop-color:#7F7F7F;stop-opacity:0.7453"/>
		<stop  offset="0.7406" style="stop-color:#B6B6B6;stop-opacity:0.4925"/>
		<stop  offset="0.8545" style="stop-color:#DEDEDE;stop-opacity:0.2763"/>
		<stop  offset="0.9447" style="stop-color:#F6F6F6;stop-opacity:0.105"/>
		<stop  offset="1" style="stop-color:#FFFFFF;stop-opacity:0"/>
	</radialGradient>
	<circle class="st10" cx="51.2" cy="80.1" r="46.2"/>
	<linearGradient id="SVGID_6_" gradientUnits="userSpaceOnUse" x1="58.8922" y1="75" x2="141.0291" y2="75">
		<stop  offset="0" style="stop-color:#007AFF"/>
		<stop  offset="1" style="stop-color:#1DC8FE"/>
	</linearGradient>
	<polygon class="st11" points="145,75 57.6,13.1 57.6,136.9 	"/>
	<g class="st8">
		
			<ellipse transform="matrix(0.2298 -0.9732 0.9732 0.2298 -28.5817 112.7557)" class="st2" cx="56.9" cy="74.4" rx="40.3" ry="40.3"/>
	</g>
	<g class="st8">
		<path class="st12" d="M35.1,74.3c0-9.1,3.4-13.6,10.3-13.6c3.6,0,6.2,1.2,7.8,3.6c1.6,2.4,2.4,5.8,2.4,10c0,4.2-0.8,7.6-2.4,10
			C51.6,86.7,49,88,45.4,88C38.5,88,35.1,83.4,35.1,74.3z M50.3,74.3c0-2.7-0.3-4.8-1-6.3c-0.7-1.5-2-2.2-3.9-2.2
			c-2,0-3.3,0.7-4,2.2c-0.7,1.5-1,3.6-1,6.3c0,2.8,0.3,4.9,1,6.4c0.7,1.5,2,2.2,4,2.2c2,0,3.3-0.7,3.9-2.2
			C50,79.2,50.3,77.1,50.3,74.3z"/>
		<path class="st12" d="M73.5,61.1c1.3,0.6,2.3,1.5,3,2.6c0.7,1.1,1,2.4,1,3.7c0,1.7-0.5,3.1-1.4,4.2c-0.9,1.1-2.2,1.8-3.7,2v0.2
			c3.7,1.1,5.6,3.3,5.6,6.6c0,2.3-0.8,4.2-2.3,5.6c-1.5,1.4-3.7,2.1-6.5,2.1c-3,0-5.4-0.7-7.1-2.2c-1.8-1.5-2.8-3.7-3-6.7h5.2
			c0.1,1.4,0.6,2.5,1.3,3.2c0.8,0.8,1.9,1.2,3.3,1.2c1.2,0,2.2-0.3,2.8-1c0.7-0.7,1-1.6,1-2.6c0-1.3-0.5-2.3-1.5-3
			c-1-0.7-2.4-1-4.4-1h-1.1v-4.4h1.1c3.5,0.1,5.3-1.2,5.3-3.7c0-1.1-0.3-1.9-0.9-2.6c-0.6-0.6-1.5-0.9-2.6-0.9
			c-1.1,0-2.1,0.4-2.8,1.1c-0.7,0.7-1.2,1.7-1.3,3h-5.2c0.2-2.7,1-4.8,2.7-6.3c1.6-1.5,3.9-2.2,6.8-2.2
			C70.6,60.1,72.2,60.4,73.5,61.1z"/>
	</g>
</g>
<g id="_x34_" class="st4">
	<radialGradient id="SVGID_7_" cx="51.2442" cy="80.1365" r="46.2442" gradientUnits="userSpaceOnUse">
		<stop  offset="0.4734" style="stop-color:#404040"/>
		<stop  offset="0.6075" style="stop-color:#7F7F7F;stop-opacity:0.7453"/>
		<stop  offset="0.7406" style="stop-color:#B6B6B6;stop-opacity:0.4925"/>
		<stop  offset="0.8545" style="stop-color:#DEDEDE;stop-opacity:0.2763"/>
		<stop  offset="0.9447" style="stop-color:#F6F6F6;stop-opacity:0.105"/>
		<stop  offset="1" style="stop-color:#FFFFFF;stop-opacity:0"/>
	</radialGradient>
	<circle class="st13" cx="51.2" cy="80.1" r="46.2"/>
	<linearGradient id="SVGID_8_" gradientUnits="userSpaceOnUse" x1="58.8922" y1="75" x2="141.0291" y2="75">
		<stop  offset="0" style="stop-color:#006834"/>
		<stop  offset="1" style="stop-color:#00C495"/>
	</linearGradient>
	<polygon class="st14" points="145,75 57.6,13.1 57.6,136.9 	"/>
	
		<ellipse transform="matrix(0.7071 -0.7071 0.7071 0.7071 -35.9546 62.0681)" class="st7" cx="56.9" cy="74.4" rx="40.3" ry="40.3"/>
	<g class="st8">
		<path class="st15" d="M35.1,74.3c0-9.1,3.4-13.6,10.3-13.6c3.6,0,6.2,1.2,7.8,3.6c1.6,2.4,2.4,5.8,2.4,10c0,4.2-0.8,7.6-2.4,10
			C51.6,86.7,49,88,45.4,88C38.5,88,35.1,83.4,35.1,74.3z M50.3,74.3c0-2.7-0.3-4.8-1-6.3c-0.7-1.5-2-2.2-3.9-2.2
			c-2,0-3.3,0.7-4,2.2c-0.7,1.5-1,3.6-1,6.3c0,2.8,0.3,4.9,1,6.4c0.7,1.5,2,2.2,4,2.2c2,0,3.3-0.7,3.9-2.2
			C50,79.2,50.3,77.1,50.3,74.3z"/>
		<path class="st15" d="M58.8,82.6v-4.4l12.8-17.3h5.7v17.1h3.5v4.6h-3.5V88H72v-5.4H58.8z M72.4,67.1l-8.1,10.8h8.1V67.1z"/>
	</g>
</g>
<g id="_x35_" class="st4">
	<g class="st8">
		<linearGradient id="SVGID_9_" gradientUnits="userSpaceOnUse" x1="58.8922" y1="75" x2="141.0291" y2="75">
			<stop  offset="0" style="stop-color:#008200"/>
			<stop  offset="1" style="stop-color:#77C600"/>
		</linearGradient>
		<polygon class="st16" points="145,75 57.6,13.1 57.6,136.9 		"/>
		<g>
			<radialGradient id="SVGID_10_" cx="51.2442" cy="80.1365" r="46.2442" gradientUnits="userSpaceOnUse">
				<stop  offset="0.4734" style="stop-color:#404040"/>
				<stop  offset="0.5402" style="stop-color:#6D6D6D"/>
				<stop  offset="0.6169" style="stop-color:#999999"/>
				<stop  offset="0.6944" style="stop-color:#BEBEBE"/>
				<stop  offset="0.7716" style="stop-color:#DADADA"/>
				<stop  offset="0.8484" style="stop-color:#EFEFEF"/>
				<stop  offset="0.9247" style="stop-color:#FBFBFB"/>
				<stop  offset="1" style="stop-color:#FFFFFF"/>
			</radialGradient>
			<circle class="st17" cx="51.2" cy="80.1" r="46.2"/>
			<circle class="st2" cx="56.9" cy="74.4" r="40.3"/>
		</g>
	</g>
	<g class="st8">
		<path class="st15" d="M35.1,74.3c0-9.1,3.4-13.6,10.3-13.6c3.6,0,6.2,1.2,7.8,3.6c1.6,2.4,2.4,5.8,2.4,10c0,4.2-0.8,7.6-2.4,10
			C51.6,86.7,49,88,45.4,88C38.5,88,35.1,83.4,35.1,74.3z M50.3,74.3c0-2.7-0.3-4.8-1-6.3c-0.7-1.5-2-2.2-3.9-2.2
			c-2,0-3.3,0.7-4,2.2c-0.7,1.5-1,3.6-1,6.3c0,2.8,0.3,4.9,1,6.4c0.7,1.5,2,2.2,4,2.2c2,0,3.3-0.7,3.9-2.2
			C50,79.2,50.3,77.1,50.3,74.3z"/>
		<path class="st15" d="M78.3,65.3H65.6v6.8c0.6-0.7,1.4-1.2,2.4-1.7c1-0.4,2.2-0.6,3.4-0.6c1.8,0,3.4,0.4,4.6,1.2
			c1.2,0.8,2.1,1.9,2.7,3.2c0.6,1.3,0.9,2.8,0.9,4.4c0,2.9-0.8,5.2-2.4,6.9c-1.6,1.7-3.9,2.6-6.9,2.6c-2,0-3.6-0.3-5.1-1
			c-1.4-0.7-2.6-1.7-3.4-2.9c-0.8-1.3-1.3-2.7-1.3-4.4h5.2c0.2,1.1,0.7,2,1.4,2.7c0.7,0.7,1.7,1,2.9,1c1.5,0,2.6-0.4,3.3-1.3
			c0.7-0.9,1.1-2.1,1.1-3.6c0-1.4-0.4-2.5-1.1-3.3c-0.8-0.8-1.8-1.2-3.2-1.2c-1,0-1.9,0.2-2.6,0.7c-0.7,0.4-1.2,1-1.6,1.8h-5.2V60.6
			h17.6V65.3z"/>
	</g>
</g>
<g id="_x36_" class="st4">
	<g class="st8">
		<linearGradient id="SVGID_11_" gradientUnits="userSpaceOnUse" x1="58.8922" y1="75" x2="141.0291" y2="75">
			<stop  offset="0" style="stop-color:#450C67"/>
			<stop  offset="1" style="stop-color:#984BFF"/>
		</linearGradient>
		<polygon class="st18" points="145,75 57.6,13.1 57.6,136.9 		"/>
		<g>
			<radialGradient id="SVGID_12_" cx="51.2442" cy="80.1365" r="46.2442" gradientUnits="userSpaceOnUse">
				<stop  offset="0.4734" style="stop-color:#404040"/>
				<stop  offset="0.6075" style="stop-color:#7F7F7F;stop-opacity:0.7453"/>
				<stop  offset="0.7406" style="stop-color:#B6B6B6;stop-opacity:0.4925"/>
				<stop  offset="0.8545" style="stop-color:#DEDEDE;stop-opacity:0.2763"/>
				<stop  offset="0.9447" style="stop-color:#F6F6F6;stop-opacity:0.105"/>
				<stop  offset="1" style="stop-color:#FFFFFF;stop-opacity:0"/>
			</radialGradient>
			<circle class="st19" cx="51.2" cy="80.1" r="46.2"/>
			<circle class="st2" cx="56.9" cy="74.4" r="40.3"/>
		</g>
	</g>
	<g class="st8">
		<path class="st20" d="M35.1,74.3c0-9.1,3.4-13.6,10.3-13.6c3.6,0,6.2,1.2,7.8,3.6c1.6,2.4,2.4,5.8,2.4,10c0,4.2-0.8,7.6-2.4,10
			C51.6,86.7,49,88,45.4,88C38.5,88,35.1,83.4,35.1,74.3z M50.3,74.3c0-2.7-0.3-4.8-1-6.3c-0.7-1.5-2-2.2-3.9-2.2
			c-2,0-3.3,0.7-4,2.2c-0.7,1.5-1,3.6-1,6.3c0,2.8,0.3,4.9,1,6.4c0.7,1.5,2,2.2,4,2.2c2,0,3.3-0.7,3.9-2.2
			C50,79.2,50.3,77.1,50.3,74.3z"/>
		<path class="st20" d="M69.3,64.5c-1.8,0-3.1,0.8-3.9,2.3c-0.8,1.6-1.2,4-1.1,7.3c0.4-1.2,1.2-2.2,2.4-2.9c1.2-0.7,2.6-1.1,4.1-1.1
			c2.6,0,4.6,0.8,6.1,2.3c1.5,1.6,2.2,3.8,2.2,6.6c0,1.8-0.4,3.3-1.1,4.7c-0.7,1.4-1.8,2.4-3.2,3.2c-1.4,0.8-3.1,1.2-5.1,1.2
			c-3.9,0-6.6-1.2-8.1-3.6c-1.5-2.4-2.2-5.8-2.2-10c0-4.9,0.8-8.5,2.4-10.9c1.6-2.4,4.1-3.5,7.7-3.5c2.7,0,4.8,0.8,6.2,2.3
			c1.4,1.5,2.3,3.5,2.5,5.9h-5C72.9,65.8,71.6,64.5,69.3,64.5z M66,82.2c0.8,0.9,2,1.4,3.6,1.4c1.4,0,2.5-0.4,3.3-1.2
			c0.8-0.8,1.2-1.9,1.2-3.4c0-1.5-0.4-2.7-1.2-3.5c-0.8-0.8-1.9-1.2-3.3-1.2c-1.3,0-2.4,0.4-3.4,1.1c-0.9,0.8-1.4,1.8-1.4,3.3
			C64.8,80.1,65.2,81.3,66,82.2z"/>
	</g>
</g>
<g id="_x37_" class="st4">
	<g class="st8">
		<linearGradient id="SVGID_13_" gradientUnits="userSpaceOnUse" x1="58.8922" y1="75" x2="141.0291" y2="75">
			<stop  offset="0" style="stop-color:#003575"/>
			<stop  offset="1" style="stop-color:#007DD4"/>
		</linearGradient>
		<polygon class="st21" points="145,75 57.6,13.1 57.6,136.9 		"/>
		<g>
			<radialGradient id="SVGID_14_" cx="51.2442" cy="80.1365" r="46.2442" gradientUnits="userSpaceOnUse">
				<stop  offset="0.4734" style="stop-color:#404040"/>
				<stop  offset="0.5856" style="stop-color:#747474;stop-opacity:0.7871"/>
				<stop  offset="0.7281" style="stop-color:#AFAFAF;stop-opacity:0.5164"/>
				<stop  offset="0.8498" style="stop-color:#DADADA;stop-opacity:0.2853"/>
				<stop  offset="0.9442" style="stop-color:#F5F5F5;stop-opacity:0.1059"/>
				<stop  offset="1" style="stop-color:#FFFFFF;stop-opacity:0"/>
			</radialGradient>
			<circle class="st22" cx="51.2" cy="80.1" r="46.2"/>
			<circle class="st2" cx="56.9" cy="74.4" r="40.3"/>
		</g>
	</g>
	<g class="st8">
		<path class="st23" d="M35.1,74.3c0-9.1,3.4-13.6,10.3-13.6c3.6,0,6.2,1.2,7.8,3.6c1.6,2.4,2.4,5.8,2.4,10c0,4.2-0.8,7.6-2.4,10
			C51.6,86.7,49,88,45.4,88C38.5,88,35.1,83.4,35.1,74.3z M50.3,74.3c0-2.7-0.3-4.8-1-6.3c-0.7-1.5-2-2.2-3.9-2.2
			c-2,0-3.3,0.7-4,2.2c-0.7,1.5-1,3.6-1,6.3c0,2.8,0.3,4.9,1,6.4c0.7,1.5,2,2.2,4,2.2c2,0,3.3-0.7,3.9-2.2
			C50,79.2,50.3,77.1,50.3,74.3z"/>
		<path class="st23" d="M75.8,64.9L66,88h-5.5l9.9-22.5H57.9v-4.6h17.9V64.9z"/>
	</g>
</g>
<g id="_x38_" class="st4">
	<g class="st8">
		<linearGradient id="SVGID_15_" gradientUnits="userSpaceOnUse" x1="58.8922" y1="75" x2="141.0291" y2="75">
			<stop  offset="0" style="stop-color:#000000"/>
			<stop  offset="1" style="stop-color:#505050"/>
		</linearGradient>
		<polygon class="st24" points="145,75 57.6,13.1 57.6,136.9 		"/>
		<g>
			<radialGradient id="SVGID_16_" cx="51.2442" cy="80.1365" r="46.2442" gradientUnits="userSpaceOnUse">
				<stop  offset="0.4734" style="stop-color:#404040"/>
				<stop  offset="0.6075" style="stop-color:#7F7F7F;stop-opacity:0.7453"/>
				<stop  offset="0.7406" style="stop-color:#B6B6B6;stop-opacity:0.4925"/>
				<stop  offset="0.8545" style="stop-color:#DEDEDE;stop-opacity:0.2763"/>
				<stop  offset="0.9447" style="stop-color:#F6F6F6;stop-opacity:0.105"/>
				<stop  offset="1" style="stop-color:#FFFFFF;stop-opacity:0"/>
			</radialGradient>
			<circle class="st25" cx="51.2" cy="80.1" r="46.2"/>
			<circle class="st2" cx="56.9" cy="74.4" r="40.3"/>
		</g>
	</g>
	<g class="st8">
		<path class="st26" d="M35.1,74.3c0-9.1,3.4-13.6,10.3-13.6c3.6,0,6.2,1.2,7.8,3.6c1.6,2.4,2.4,5.8,2.4,10c0,4.2-0.8,7.6-2.4,10
			C51.6,86.7,49,88,45.4,88C38.5,88,35.1,83.4,35.1,74.3z M50.3,74.3c0-2.7-0.3-4.8-1-6.3c-0.7-1.5-2-2.2-3.9-2.2
			c-2,0-3.3,0.7-4,2.2c-0.7,1.5-1,3.6-1,6.3c0,2.8,0.3,4.9,1,6.4c0.7,1.5,2,2.2,4,2.2c2,0,3.3-0.7,3.9-2.2
			C50,79.2,50.3,77.1,50.3,74.3z"/>
		<path class="st26" d="M61,63.6c0.7-1.1,1.8-2,3.2-2.7c1.4-0.7,3.2-1,5.2-1c2,0,3.8,0.3,5.2,1s2.5,1.6,3.2,2.7
			c0.7,1.1,1.1,2.3,1.1,3.6c0,1.5-0.4,2.7-1.1,3.7c-0.7,1-1.8,1.8-3.2,2.3c1.6,0.6,2.8,1.5,3.7,2.6c0.8,1.2,1.3,2.6,1.3,4.2
			c0,1.8-0.4,3.3-1.3,4.6s-2.1,2.2-3.6,2.9c-1.5,0.7-3.3,1-5.2,1c-2,0-3.7-0.3-5.2-1c-1.5-0.7-2.7-1.6-3.6-2.9s-1.3-2.8-1.3-4.6
			c0-1.6,0.4-3,1.3-4.2c0.8-1.2,2.1-2,3.7-2.6C62.8,72.8,61.7,72,61,71c-0.7-1-1.1-2.3-1.1-3.7C59.9,66,60.3,64.8,61,63.6z M65.8,83
			c0.9,0.8,2.1,1.2,3.6,1.2s2.7-0.4,3.6-1.2c0.9-0.8,1.3-1.8,1.3-3.2c0-1.4-0.5-2.4-1.4-3.1c-0.9-0.7-2.1-1.1-3.6-1.1
			c-1.4,0-2.6,0.4-3.6,1.1c-0.9,0.7-1.4,1.8-1.4,3.1C64.5,81.2,64.9,82.2,65.8,83z M66.3,70.9c0.8,0.7,1.8,1,3.1,1
			c1.3,0,2.4-0.3,3.1-1c0.8-0.7,1.1-1.6,1.1-2.8s-0.4-2.2-1.2-2.8c-0.8-0.7-1.8-1-3.1-1c-1.3,0-2.3,0.3-3.1,1
			c-0.8,0.7-1.2,1.6-1.2,2.8S65.6,70.3,66.3,70.9z"/>
	</g>
</g>
<g id="_x39_" class="st4">
	<g class="st8">
		<linearGradient id="SVGID_17_" gradientUnits="userSpaceOnUse" x1="58.8922" y1="75" x2="141.0291" y2="75">
			<stop  offset="0" style="stop-color:#CD0000"/>
			<stop  offset="1" style="stop-color:#FF2A33"/>
		</linearGradient>
		<polygon class="st27" points="145,75 57.6,13.1 57.6,136.9 		"/>
		<g>
			<radialGradient id="SVGID_18_" cx="51.2442" cy="80.1365" r="46.2442" gradientUnits="userSpaceOnUse">
				<stop  offset="0.4734" style="stop-color:#404040"/>
				<stop  offset="0.6065" style="stop-color:#7E7E7E;stop-opacity:0.7472"/>
				<stop  offset="0.7396" style="stop-color:#B5B5B5;stop-opacity:0.4944"/>
				<stop  offset="0.854" style="stop-color:#DDDDDD;stop-opacity:0.2773"/>
				<stop  offset="0.9445" style="stop-color:#F5F5F5;stop-opacity:0.1054"/>
				<stop  offset="1" style="stop-color:#FEFEFE;stop-opacity:0"/>
			</radialGradient>
			<circle class="st28" cx="51.2" cy="80.1" r="46.2"/>
			
				<ellipse transform="matrix(0.7071 -0.7071 0.7071 0.7071 -35.9546 62.0682)" class="st2" cx="56.9" cy="74.4" rx="40.3" ry="40.3"/>
		</g>
	</g>
	<text transform="matrix(1 0 0 1 33.3103 87.9618)" class="st29 st30 st31">09</text>
	<g class="st8">
		<linearGradient id="SVGID_19_" gradientUnits="userSpaceOnUse" x1="45.2751" y1="227.8926" x2="86.6311" y2="227.8926">
			<stop  offset="0" style="stop-color:#CD0000"/>
			<stop  offset="1" style="stop-color:#FF2A33"/>
		</linearGradient>
		<polygon class="st32" points="88.6,227.9 44.6,196.7 44.6,259 		"/>
		<g>
			<radialGradient id="SVGID_20_" cx="41.4243" cy="230.4789" r="23.284" gradientUnits="userSpaceOnUse">
				<stop  offset="0.4734" style="stop-color:#404040"/>
				<stop  offset="0.5402" style="stop-color:#6D6D6D"/>
				<stop  offset="0.6169" style="stop-color:#999999"/>
				<stop  offset="0.6944" style="stop-color:#BEBEBE"/>
				<stop  offset="0.7716" style="stop-color:#DADADA"/>
				<stop  offset="0.8484" style="stop-color:#EFEFEF"/>
				<stop  offset="0.9247" style="stop-color:#FBFBFB"/>
				<stop  offset="1" style="stop-color:#FFFFFF"/>
			</radialGradient>
			<circle class="st33" cx="41.4" cy="230.5" r="23.3"/>
			
				<ellipse transform="matrix(0.7071 -0.7071 0.7071 0.7071 -147.9696 97.9861)" class="st2" cx="44.3" cy="227.6" rx="20.3" ry="20.3"/>
			<g>
				<path class="st34" d="M38.3,234.6c-1.8,0-3.2-0.6-4.1-1.9c-0.9-1.2-1.4-2.9-1.4-5c0-2.1,0.5-3.7,1.4-5c0.9-1.2,2.3-1.9,4.1-1.9
					c1.8,0,3.2,0.6,4.1,1.9c0.9,1.2,1.4,2.9,1.4,5c0,2.1-0.5,3.7-1.4,5C41.5,234,40.2,234.6,38.3,234.6z M36.4,224.6
					c-0.4,0.8-0.6,1.9-0.6,3.2c0,1.3,0.2,2.4,0.6,3.2c0.4,0.8,1.1,1.2,2,1.2c0.9,0,1.5-0.4,2-1.2c0.4-0.8,0.6-1.9,0.6-3.2
					c0-1.3-0.2-2.4-0.6-3.2c-0.4-0.8-1.1-1.2-2-1.2C37.4,223.3,36.8,223.7,36.4,224.6z"/>
				<path class="st34" d="M49.3,232.1c0.8,0,1.5-0.3,1.9-0.8c0.4-0.6,0.7-1.3,0.8-2.2c-0.8,0.5-1.7,0.8-2.6,0.8
					c-1.2,0-2.3-0.4-3.1-1.2c-0.8-0.8-1.2-1.9-1.2-3.2c0-1.3,0.4-2.4,1.3-3.2c0.9-0.8,2-1.2,3.4-1.2c0.9,0,1.7,0.2,2.4,0.5
					c0.7,0.4,1.2,0.9,1.6,1.5c0.7,1.3,1.1,2.8,1.1,4.7c0,1.2-0.1,2.3-0.4,3.2c-0.3,0.9-0.7,1.6-1.2,2.2c-1,1.1-2.3,1.6-3.8,1.6
					c-0.6,0-1.2-0.1-1.8-0.3c-0.6-0.2-1-0.4-1.3-0.6c-0.3-0.2-0.6-0.4-1-0.7L47,231c0.1,0.1,0.2,0.2,0.4,0.3
					c0.1,0.1,0.4,0.3,0.8,0.5C48.6,232,49,232.1,49.3,232.1z M49.7,227.3c0.6,0,1.1-0.2,1.5-0.5c0.4-0.3,0.6-0.8,0.6-1.3
					c0-0.6-0.2-1-0.6-1.4c-0.4-0.4-0.9-0.6-1.4-0.6c-0.6,0-1,0.2-1.4,0.5c-0.4,0.4-0.5,0.8-0.5,1.4c0,0.6,0.2,1,0.5,1.4
					C48.7,227.1,49.2,227.3,49.7,227.3z"/>
			</g>
		</g>
	</g>
</g>
<g id="_x31_0" class="st4">
	<g class="st8">
		<linearGradient id="SVGID_21_" gradientUnits="userSpaceOnUse" x1="58.8921" y1="75" x2="141.0291" y2="75">
			<stop  offset="0" style="stop-color:#FF0055"/>
			<stop  offset="1" style="stop-color:#FF5990"/>
		</linearGradient>
		<polygon class="st35" points="145,75 57.6,13.1 57.6,136.9 		"/>
		<g>
			<radialGradient id="SVGID_22_" cx="51.2442" cy="80.1365" r="46.2442" gradientUnits="userSpaceOnUse">
				<stop  offset="0.4734" style="stop-color:#404040"/>
				<stop  offset="0.6075" style="stop-color:#7F7F7F;stop-opacity:0.7453"/>
				<stop  offset="0.7406" style="stop-color:#B6B6B6;stop-opacity:0.4925"/>
				<stop  offset="0.8545" style="stop-color:#DEDEDE;stop-opacity:0.2763"/>
				<stop  offset="0.9447" style="stop-color:#F6F6F6;stop-opacity:0.105"/>
				<stop  offset="1" style="stop-color:#FFFFFF;stop-opacity:0"/>
			</radialGradient>
			<circle class="st36" cx="51.2" cy="80.1" r="46.2"/>
			
				<ellipse transform="matrix(0.2298 -0.9732 0.9732 0.2298 -28.5818 112.7555)" class="st2" cx="56.9" cy="74.4" rx="40.3" ry="40.3"/>
		</g>
	</g>
	<g class="st8">
		<path class="st37" d="M37.8,66.1v-5h9.7V88h-5.6V66.1H37.8z"/>
		<path class="st37" d="M51.6,74.3c0-9.1,3.4-13.6,10.3-13.6c3.6,0,6.2,1.2,7.8,3.6c1.6,2.4,2.4,5.8,2.4,10c0,4.2-0.8,7.6-2.4,10
			c-1.6,2.4-4.2,3.6-7.8,3.6C55.1,88,51.6,83.4,51.6,74.3z M66.8,74.3c0-2.7-0.3-4.8-1-6.3c-0.7-1.5-2-2.2-3.9-2.2
			c-2,0-3.3,0.7-4,2.2c-0.7,1.5-1,3.6-1,6.3c0,2.8,0.3,4.9,1,6.4c0.7,1.5,2,2.2,4,2.2c2,0,3.3-0.7,3.9-2.2
			C66.5,79.2,66.8,77.1,66.8,74.3z"/>
	</g>
</g>
</svg>
